<?xml version="1.0" encoding="utf-8"?>
<!-- Generator: Adobe Illustrator 19.0.0, SVG Export Plug-In . SVG Version: 6.00 Build 0)  -->
<!DOCTYPE svg PUBLIC "-//W3C//DTD SVG 1.1//EN" "http://www.w3.org/Graphics/SVG/1.1/DTD/svg11.dtd" [
	<!ENTITY ns_extend "http://ns.adobe.com/Extensibility/1.0/">
	<!ENTITY ns_ai "http://ns.adobe.com/AdobeIllustrator/10.0/">
	<!ENTITY ns_graphs "http://ns.adobe.com/Graphs/1.0/">
	<!ENTITY ns_vars "http://ns.adobe.com/Variables/1.0/">
	<!ENTITY ns_imrep "http://ns.adobe.com/ImageReplacement/1.0/">
	<!ENTITY ns_sfw "http://ns.adobe.com/SaveForWeb/1.0/">
	<!ENTITY ns_custom "http://ns.adobe.com/GenericCustomNamespace/1.0/">
	<!ENTITY ns_adobe_xpath "http://ns.adobe.com/XPath/1.0/">
]>
<svg version="1.1" id="Layer_1" xmlns:x="&ns_extend;" xmlns:i="&ns_ai;" xmlns:graph="&ns_graphs;"
	 xmlns="http://www.w3.org/2000/svg" xmlns:xlink="http://www.w3.org/1999/xlink" x="0px" y="0px" viewBox="0 0 239 298.8"
	 enable-background="new 0 0 239 298.8" xml:space="preserve">
	 <switch>
	 	<g i:extraneous="self">
	 		<g id="lionTail">
	 			<animateTransform id="tail1" attributeName="transform" type="translate" from="0 0" to="2 2" begin="0s; tail2.end" dur="0.6s"/>
	 			<animateTransform id="tail2" attributeName="transform" type="translate" from="2 2" to="0 0" begin="tail1.end" dur="1.5s"/>
	 			<path fill="#FFC900" d="M184.7,28.8c-16.8,30.9,34,84.4,38.5,126.1c0.3,3.2-0.1,6.8-2.4,10.1s-7,6.4-11.9,6.8l1-5
	 				c4.4-0.3,6.7-6.8,6.1-10.8c-4.5-41.6-55.2-95.2-38.5-126.1"/>
	 			<path fill="#EFAE0C" d="M182.5,34.3l0.7-2.4l-5.5-2.6l-1.3,3.1c0.3,0.3,0.6,0.6,0.9,0.9C178.7,34.3,180.6,34.6,182.5,34.3z"/>
	 			<g>
	 				<path fill="#FCF74C" d="M188.8,3.5l-2.2,7.8L184.9,7c-1.3,1.3-1.7,1.8-2.8,3.4c-6.2,8.5-7.5,18-2.9,21.4
	 					c4.6,3.4,13.3-0.8,19.5-9.2s7.5-18,2.9-21.4C198.5-1.1,193.6,0,188.8,3.5L188.8,3.5z"
	 					/>
	 					<animateTransform id="tail1" attributeName="transform" type="rotate" from="0 180 50" to="10 180 30" begin="0s; tail2.end" dur="0.6s"/>
	 					<animateTransform id="tail2" attributeName="transform" type="rotate" from="10 180 30" to="0 180 50" begin="tail1.end" dur="1.5s"/>
	 			</g>
	 		</g>
	 		<g id="lionBody">
	 			<g>
	 				<animateTransform id="anim1" attributeName="transform" type="translate" from="0 0" to="0 2" begin="0s; anim2.end" dur="0.6s"/>
	 				<animateTransform id="anim2" attributeName="transform" type="translate" from="0 2" to="0 0" begin="anim1.end" dur="1.5s"/>
	 				<path fill="#FCF74C" d="M213.3,252.4l4.2-5.6c13.5-19.3,21.5-42.7,21.5-67.2c0-2.5,0-5-0.1-7.5c0,0-29,1.5-29,1.5
	 					s28.7-6.8,28.7-6.8c-3.3-47-25.6-86.8-77.4-99l0,0l-12.5,26.5l4.3-30.3l0,0c-10-1.7-25.9-1.2-38-0.8
	 					C60.6,64.6,15.9,98.7,1.5,146.5l0,0l32.5,9.7l-31.6,0C0.8,163.7,0,171.5,0,179.5c0,63.9,22.7,109.6,119.5,115.7
	 					C157.5,297.6,191.4,280,213.3,252.4L213.3,252.4"/>
	 			</g>
	 			<path opacity="0.44" fill="#E87325" d="M80.3,293.7H32.2c-1.5,0-2.7-1.3-2.6-2.7c1.1-17.4,12.6-31.7,26.6-30.9
	 				c17.7,1,25.9,13.7,26.6,31C83,292.4,81.8,293.7,80.3,293.7z"/>
	 			<path opacity="0.44" fill="#E87325" d="M161.9,293.7H210c1.5,0,2.7-1.3,2.6-2.7c-1.1-17.4-12.6-31.7-26.6-30.9
	 				c-17.7,1-25.9,13.7-26.6,31C159.2,292.4,160.4,293.7,161.9,293.7z"/>
	 			<path fill="#FFC900" d="M79.6,295.7H31.5c-1.5,0-2.7-1.3-2.6-2.7c1.1-17.4,12.6-31.7,26.6-30.9c17.7,1,25.9,13.7,26.6,31
	 				C82.3,294.4,81.1,295.7,79.6,295.7z"/>
	 			<path fill="#E87325" d="M34.9,295.7c0-4.8,2.9-8.8,6.4-8.8s6.4,3.9,6.4,8.8"/>
	 			<path fill="#E87325" d="M49.8,295.7c0-4.8,2.9-8.8,6.4-8.8s6.4,3.9,6.4,8.8"/>
	 			<path fill="#E87325" d="M64.4,295.7c0-4.8,2.9-8.8,6.4-8.8s6.4,3.9,6.4,8.8"/>
	 			<path fill="#FFC900" d="M161.2,295.7h48.1c1.5,0,2.7-1.3,2.6-2.7c-1.1-17.4-12.6-31.7-26.6-30.9c-17.7,1-25.9,13.7-26.6,31
	 				C158.5,294.4,159.7,295.7,161.2,295.7z"/>
	 			<path fill="#E87325" d="M205.9,295.7c0-4.8-2.9-8.8-6.4-8.8c-3.5,0-6.4,3.9-6.4,8.8"/>
	 			<path fill="#E87325" d="M191,295.7c0-4.8-2.9-8.8-6.4-8.8c-3.5,0-6.4,3.9-6.4,8.8"/>
	 			<path fill="#E87325" d="M176.4,295.7c0-4.8-2.9-8.8-6.4-8.8c-3.5,0-6.4,3.9-6.4,8.8"/>
	 		</g>
	 		<g id="lionHead">
	 				<animateTransform id="anim1" attributeName="transform" type="translate" from="0 0" to="0 12" begin="0s; anim2.end" dur="1s"/>
	 				<animateTransform id="anim2" attributeName="transform" type="translate" from="0 7" to="0 0" begin="anim1.end" dur="1.5s"/>
	 			<path opacity="0.2" fill="#EFAE0C" d="M57.5,181.3c-10-7-15.9-16.3-6.3-30.1c6.5-9.4,19.2-12.7,30.1-7.4l0-0.2
	 				c10.1-6.5,23.2-10.3,38.7-10.3c20.8-0.1,35.4,4,45.3,11.1l0,0c10.3-3.6,20.8,0,26.7,8.6c10.3,14.9,2.4,24.7-9.2,31.9l0.1,0
	 				c0,7.1-1,14.7-2.6,22.6c-10.1,50.1-27.4,74.5-60.8,74.6c-33.5,0.1-48.8-30.2-60.4-74.2c-2.5-9.4-3-18.4-1.8-26.8"/>
	 			<path fill="#FFC900" d="M58,178.5c-9.9-6.9-15.7-16.1-6.3-29.7c6.4-9.3,18.8-12.5,29.7-7.3l0-0.2c10-6.4,22.8-10.1,38.1-10.1
	 				c20.5,0,34.9,4.1,44.7,11.1v0c10.1-3.5,20.5,0.1,26.3,8.6c10.2,14.8,2.4,24.4-9,31.5l0.1,0c0,7.1-0.9,14.6-2.5,22.3
	 				c-9.8,49.5-26.7,73.5-59.7,73.5s-48.1-30-59.7-73.5c-2.5-9.2-3-18.2-1.8-26.5"/>
	 			<polyline fill="#FFC900" points="113.5,132.4 113.4,122.9 96.4,135.5 			"/>
	 			<polyline fill="#FFC900" points="128,132.5 128,125.9 119.5,132.2 			"/>
	 			<path fill="#E87325" d="M103.6,227.9h35.8c1.5,0,2.2,1.8,1.1,2.8l-17.9,15.8c-0.6,0.5-1.5,0.5-2.1,0l-17.9-15.8
	 				C101.4,229.7,102.1,227.9,103.6,227.9z"/>
	 			<g>
	 				<g>
	 					<g>
	 						<path opacity="0.1091" fill="#E87325" d="M153.2,231.8c17.7-2,35.5-4.1,53.2-6c0.4,0-0.6-0.9-0.9-0.8
	 							c-17.7,1.8-35.4,4-53.1,5.9C152,231,152.9,231.9,153.2,231.8z"/>
	 						<path opacity="0.1091" fill="#E87325" d="M153.4,231.1c17.7-2,35.5-4,53.3-6c0.4,0,0-0.6-0.2-0.6c-17.8,2-35.5,4-53.3,6
	 							C152.7,230.6,153.1,231.2,153.4,231.1z"/>
	 						<path opacity="0.1091" fill="#E87325" d="M153.6,231.7c17.7-2,35.5-4,53.2-6c0.3,0-0.6-0.9-1-0.9c-17.7,1.8-35.4,4-53.1,5.9
	 							C152.4,230.8,153.3,231.7,153.6,231.7z"/>
	 						<path opacity="0.1091" fill="#E87325" d="M154.2,232.4c17.8-2,35.5-4,53.3-6c0.4,0-0.4-0.6-0.3-0.6c-0.3-0.2-1.1-1-1.6-1
	 							c-17.7,1.7-35.4,4-53.1,5.9c-0.4,0,0.3,0.6,0.3,0.6C153,231.6,153.8,232.5,154.2,232.4z"/>
	 						<path opacity="0.1091" fill="#E87325" d="M154.3,231.8c17.7-2,35.5-4,53.2-6c0.3,0-0.9-1.2-1.3-1.1c-17.7,1.8-35.4,4-53.1,5.9
	 							C152.7,230.6,153.9,231.8,154.3,231.8z"/>
	 						<path opacity="0.1091" fill="#E87325" d="M152.6,230.8c17.8-2,35.6-4,53.3-6c0.1,0,0.3-0.4,0.1-0.3c-17.7,2-35.5,4-53.2,6
	 							C152.6,230.5,152.4,230.9,152.6,230.8z"/>
	 						<path opacity="0.1091" fill="#E87325" d="M152.7,231.7c17.7-2,35.5-4,53.3-6c0.4,0-0.2-0.7-0.5-0.6c-17.8,2-35.5,4-53.3,6
	 							C151.9,231.1,152.5,231.7,152.7,231.7z"/>
	 						<path opacity="0.1091" fill="#E87325" d="M153.2,232.5c17.7-2,35.5-4.1,53.2-6c0.3,0-1.1-1.4-1.5-1.3
	 							c-17.7,1.7-35.4,4-53.1,5.9C151.5,231.1,152.8,232.5,153.2,232.5z"/>
	 						<path opacity="0.1091" fill="#E87325" d="M154.2,231c17.7-2,35.4-4,53.2-6c0.5-0.1-0.1-0.7-0.3-0.7c-17.8,2-35.6,4-53.4,6
	 							C153.3,230.4,153.9,231,154.2,231z"/>
	 						<path opacity="0.1091" fill="#E87325" d="M152.8,232.2c17.7-2,35.5-4.1,53.2-6c0.3,0-0.7-1-1-0.9c-17.7,1.8-35.4,4-53.1,5.9
	 							C151.5,231.2,152.5,232.2,152.8,232.2z"/>
	 						<path opacity="0.1091" fill="#E87325" d="M153.6,230.6c17.8-2,35.5-4,53.3-6c0.3,0,0.2-0.5-0.1-0.5c-17.8,2-35.5,4-53.3,6
	 							C153.3,230.2,153.4,230.7,153.6,230.6z"/>
	 						<path opacity="0.1091" fill="#E87325" d="M152.3,231.2c17.8-2,35.5-4,53.3-6c0.3,0,0.2-0.5,0-0.4c-17.8,2-35.5,4-53.3,6
	 							C152,230.8,152.1,231.2,152.3,231.2z"/>
	 					</g>
	 				</g>
	 			</g>
	 			<g>
	 				<g>
	 					<g>
	 						<path opacity="0.1091" fill="#E87325" d="M155.4,238.9c12,0,24,0,36,0c0.4,0-0.4-0.9-0.7-0.9c-12,0-24,0-36,0
	 							C154.3,237.9,155.1,238.9,155.4,238.9z"/>
	 						<path opacity="0.1091" fill="#E87325" d="M155.6,238.2c12,0,24,0,36.1,0c0.4,0,0.1-0.6-0.1-0.6c-12,0-24,0-36.1,0
	 							C155,237.6,155.3,238.2,155.6,238.2z"/>
	 						<path opacity="0.1091" fill="#E87325" d="M155.9,238.8c12,0,24,0,36.1,0c0.4,0-0.5-1-0.8-1c-12,0-24,0-36,0
	 							C154.7,237.7,155.6,238.8,155.9,238.8z"/>
	 						<path opacity="0.1091" fill="#E87325" d="M156.5,239.5c12,0,24,0,36.1,0c0.4,0-0.3-0.6-0.3-0.6c-0.2-0.3-1-1.2-1.4-1.2
	 							c-12,0-24,0-36,0c-0.4,0,0.2,0.6,0.2,0.6C155.3,238.5,156.1,239.5,156.5,239.5z"/>
	 						<path opacity="0.1091" fill="#E87325" d="M156.5,238.8c12,0,24,0,36.1,0c0.3,0-0.7-1.3-1.1-1.3c-12,0-24,0-36,0
	 							C155.1,237.5,156.1,238.8,156.5,238.8z"/>
	 						<path opacity="0.1091" fill="#E87325" d="M154.8,237.9c12,0,24.1,0,36.1,0c0.1,0,0.4-0.3,0.1-0.3c-12,0-24.1,0-36.1,0
	 							C154.8,237.5,154.6,237.9,154.8,237.9z"/>
	 						<path opacity="0.1091" fill="#E87325" d="M155,238.7c12,0,24,0,36.1,0c0.4,0-0.2-0.7-0.4-0.7c-12,0-24,0-36.1,0
	 							C154.2,238,154.7,238.7,155,238.7z"/>
	 						<path opacity="0.1091" fill="#E87325" d="M155.5,239.6c12,0,24,0,36.1,0c0.3,0-1-1.6-1.4-1.6c-12,0-24,0-36,0
	 							C153.8,237.9,155.1,239.6,155.5,239.6z"/>
	 						<path opacity="0.1091" fill="#E87325" d="M156.3,238.1c12,0,24,0,36.1,0c0.5,0,0-0.7-0.2-0.7c-12,0-24,0-36.1,0
	 							C155.6,237.4,156,238.1,156.3,238.1z"/>
	 						<path opacity="0.1091" fill="#E87325" d="M155,239.2c12,0,24,0,36,0c0.4,0-0.6-1.1-0.9-1.1c-12,0-24,0-36,0
	 							C153.8,238.1,154.7,239.2,155,239.2z"/>
	 						<path opacity="0.1091" fill="#E87325" d="M155.8,237.7c12,0,24.1,0,36.1,0c0.3,0,0.3-0.4,0-0.4c-12,0-24.1,0-36.1,0
	 							C155.6,237.2,155.6,237.7,155.8,237.7z"/>
	 						<path opacity="0.1091" fill="#E87325" d="M154.6,238.3c12,0,24.1,0,36.1,0c0.3,0,0.3-0.5,0-0.5c-12,0-24.1,0-36.1,0
	 							C154.3,237.8,154.3,238.3,154.6,238.3z"/>
	 					</g>
	 				</g>
	 			</g>
	 			<g>
	 				<g>
	 					<g>
	 						<path opacity="0.1091" fill="#E87325" d="M148.9,243.5c13.7,3.4,27.5,6.7,41.2,10.3c0.3,0.1-0.3-1.1-0.6-1.2
	 							c-6.7-2-13.7-3.5-20.5-5.2c-6.9-1.7-13.7-3.4-20.6-5.2C148,242.2,148.6,243.4,148.9,243.5z"/>
	 						<path opacity="0.1091" fill="#E87325" d="M149,242.7c13.8,3.4,27.5,6.9,41.3,10.3c0.4,0.1,0.3-0.5,0-0.6
	 							c-13.8-3.4-27.5-6.9-41.3-10.3C148.6,242,148.8,242.7,149,242.7z"/>
	 						<path opacity="0.1091" fill="#E87325" d="M149.3,243.3c13.7,3.4,27.5,6.7,41.2,10.3c0.3,0.1-0.4-1.1-0.7-1.2
	 							c-6.7-2-13.7-3.5-20.5-5.2c-6.9-1.7-13.7-3.4-20.6-5.2C148.5,242.1,149,243.3,149.3,243.3z"/>
	 						<path opacity="0.1091" fill="#E87325" d="M149.9,244.1c13.8,3.4,27.6,6.8,41.3,10.3c0.4,0.1-0.2-0.7-0.2-0.7
	 							c-0.2-0.4-0.7-1.3-1.2-1.5c-2.1-0.7-4.2-1.2-6.3-1.7c-4.7-1.2-9.4-2.4-14.2-3.5c-6.9-1.7-13.7-3.4-20.6-5.2
	 							c-0.4-0.1,0.1,0.7,0.1,0.7C149,242.9,149.5,244,149.9,244.1z"/>
	 						<path opacity="0.1091" fill="#E87325" d="M149.9,243.4c13.7,3.4,27.6,6.7,41.3,10.3c0.3,0.1-0.5-1.3-0.9-1.4
	 							c-2.1-0.7-4.2-1.1-6.3-1.7c-4.7-1.2-9.4-2.4-14.2-3.5c-6.9-1.7-13.7-3.4-20.6-5.2C148.9,241.9,149.6,243.3,149.9,243.4z"/>
	 						<path opacity="0.1091" fill="#E87325" d="M148.3,242.4c13.8,3.5,27.6,6.9,41.3,10.3c0.1,0,0.4-0.3,0.2-0.3
	 							c-13.8-3.4-27.6-6.9-41.3-10.3C148.4,242.1,148.1,242.4,148.3,242.4z"/>
	 						<path opacity="0.1091" fill="#E87325" d="M148.4,243.3c13.8,3.5,27.5,6.9,41.3,10.3c0.4,0.1-0.1-0.8-0.3-0.9
	 							c-13.8-3.4-27.5-6.9-41.3-10.3C147.7,242.3,148.2,243.2,148.4,243.3z"/>
	 						<path opacity="0.1091" fill="#E87325" d="M149,244.2c13.8,3.4,27.6,6.7,41.3,10.3c0.4,0.1-0.1-0.7-0.1-0.7
	 							c-0.2-0.4-0.7-1.2-1.1-1.4c-2.1-0.7-4.2-1.2-6.3-1.7c-4.7-1.2-9.4-2.4-14.2-3.5c-6.9-1.7-13.7-3.4-20.6-5.2
	 							c-0.4-0.1,0,0.6,0.1,0.7C148.2,243,148.6,244.1,149,244.2z"/>
	 						<path opacity="0.1091" fill="#E87325" d="M149.7,242.6c13.8,3.4,27.5,6.9,41.3,10.3c0.4,0.1,0.2-0.6,0-0.6
	 							c-13.8-3.4-27.5-6.9-41.3-10.3C149.3,241.9,149.5,242.6,149.7,242.6z"/>
	 						<path opacity="0.1091" fill="#E87325" d="M148.5,243.8c13.7,3.5,27.6,6.7,41.2,10.3c0.3,0.1-0.5-1.4-0.9-1.5
	 							c-2.1-0.7-4.2-1.1-6.3-1.7c-4.7-1.2-9.4-2.4-14.2-3.5c-6.9-1.7-13.7-3.4-20.6-5.2C147.5,242.2,148.2,243.7,148.5,243.8z"/>
	 						<path opacity="0.1091" fill="#E87325" d="M149.3,242.2c13.8,3.5,27.6,6.9,41.3,10.3c0.2,0,0.4-0.3,0.2-0.4
	 							c-13.8-3.4-27.6-6.9-41.3-10.3C149.3,241.8,149,242.1,149.3,242.2z"/>
	 						<path opacity="0.1091" fill="#E87325" d="M148.1,242.9c13.8,3.4,27.5,6.9,41.3,10.3c0.3,0.1,0.3-0.5,0.1-0.5
	 							c-13.8-3.4-27.5-6.9-41.3-10.3C147.8,242.2,147.8,242.8,148.1,242.9z"/>
	 					</g>
	 				</g>
	 			</g>
	 			<g>
	 				<g>
	 					<g>
	 						<path opacity="0.1091" fill="#E87325" d="M89.5,229.5c-12.7-3.2-25.5-6.4-38.2-9.7c-0.4-0.1,0.1,0.9,0.4,0.9
	 							c12.7,3.2,25.4,6.4,38.1,9.7C90.2,230.6,89.8,229.6,89.5,229.5z"/>
	 						<path opacity="0.1091" fill="#E87325" d="M89.7,228.6c-12.7-3.2-25.5-6.4-38.2-9.7c-0.4-0.1,0.1,0.9,0.4,0.9
	 							c12.7,3.2,25.4,6.4,38.2,9.7C90.4,229.7,90,228.7,89.7,228.6z"/>
	 						<path opacity="0.1091" fill="#E87325" d="M90,229.4c-12.7-3.2-25.5-6.4-38.2-9.7c-0.4-0.1,0,0.8,0.3,0.8
	 							c12.7,3.2,25.5,6.4,38.2,9.7C90.6,230.3,90.2,229.4,90,229.4z"/>
	 						<path opacity="0.1091" fill="#E87325" d="M90.7,230.1c-12.7-3.2-25.5-6.4-38.2-9.6c-0.4-0.1-0.2,0.6,0,0.6
	 							c12.7,3.2,25.5,6.4,38.2,9.6C91.1,230.9,90.9,230.2,90.7,230.1z"/>
	 						<path opacity="0.1091" fill="#E87325" d="M90.7,229.4c-12.7-3.2-25.5-6.4-38.2-9.6c-0.4-0.1-0.2,0.6,0,0.7
	 							c12.7,3.2,25.5,6.4,38.2,9.7C91.1,230.2,90.9,229.5,90.7,229.4z"/>
	 						<path opacity="0.1091" fill="#E87325" d="M89,228.4c-12.7-3.2-25.5-6.4-38.2-9.7c-0.3-0.1,0.3,1.1,0.6,1.1
	 							c12.7,3.3,25.4,6.4,38.1,9.7C89.8,229.6,89.3,228.5,89,228.4z"/>
	 						<path opacity="0.1091" fill="#E87325" d="M89.1,229.3c-12.7-3.2-25.4-6.4-38.1-9.7c-0.3-0.1,0.2,1,0.5,1.1
	 							c12.7,3.3,25.4,6.4,38.1,9.7C89.9,230.5,89.4,229.4,89.1,229.3z"/>
	 						<path opacity="0.1091" fill="#E87325" d="M89.7,230.3c-12.7-3.2-25.5-6.4-38.2-9.7c-0.4-0.1,0.1,0.8,0.3,0.9
	 							c12.7,3.2,25.5,6.4,38.2,9.7C90.4,231.3,90,230.4,89.7,230.3z"/>
	 						<path opacity="0.1091" fill="#E87325" d="M90.3,228.5c-12.7-3.2-25.5-6.4-38.2-9.6c-0.4-0.1,0,0.7,0.2,0.8
	 							c12.7,3.2,25.5,6.4,38.2,9.7C90.9,229.3,90.6,228.5,90.3,228.5z"/>
	 						<path opacity="0.1091" fill="#E87325" d="M89.3,230c-12.7-3.3-25.5-6.4-38.2-9.7c-0.3-0.1,0.2,0.9,0.4,1
	 							c12.7,3.3,25.4,6.4,38.1,9.7C90,231.1,89.6,230.1,89.3,230z"/>
	 						<path opacity="0.1091" fill="#E87325" d="M90,228.1c-12.7-3.2-25.5-6.4-38.2-9.7c-0.4-0.1,0.1,0.8,0.3,0.9
	 							c12.7,3.2,25.5,6.4,38.2,9.7C90.6,229.1,90.2,228.2,90,228.1z"/>
	 						<path opacity="0.1091" fill="#E87325" d="M88.8,228.8c-12.7-3.2-25.5-6.4-38.2-9.7c-0.3-0.1,0.3,1.1,0.6,1.2
	 							c12.7,3.3,25.4,6.4,38.1,9.7C89.6,230.1,89.1,228.9,88.8,228.8z"/>
	 					</g>
	 				</g>
	 			</g>
	 			<g>
	 				<g>
	 					<g>
	 						<path opacity="0.1091" fill="#E87325" d="M86.2,235.9c-16.9-1.9-33.8-3.6-50.7-5.4c-0.4,0,0.3,0.9,0.5,0.9
	 							c16.9,1.8,33.7,3.5,50.6,5.4C87.1,236.8,86.5,235.9,86.2,235.9z"/>
	 						<path opacity="0.1091" fill="#E87325" d="M86.3,234.9c-16.9-1.8-33.8-3.6-50.6-5.3c-0.4,0,0.2,0.8,0.5,0.8
	 							c16.9,1.8,33.8,3.5,50.6,5.3C87.1,235.8,86.6,235,86.3,234.9z"/>
	 						<path opacity="0.1091" fill="#E87325" d="M86.6,235.7c-16.9-1.8-33.8-3.5-50.7-5.3c-0.4,0,0.1,0.7,0.4,0.8
	 							c16.9,1.8,33.8,3.6,50.7,5.3C87.4,236.5,86.9,235.7,86.6,235.7z"/>
	 						<path opacity="0.1091" fill="#E87325" d="M87.3,236.4c-16.9-1.7-33.8-3.5-50.6-5.3c-0.4,0-0.2,0.6,0.1,0.6
	 							c16.9,1.8,33.8,3.6,50.6,5.3C87.9,237.1,87.6,236.4,87.3,236.4z"/>
	 						<path opacity="0.1091" fill="#E87325" d="M87.3,235.7c-16.9-1.7-33.8-3.5-50.6-5.3c-0.4,0-0.2,0.6,0.1,0.6
	 							c16.9,1.8,33.8,3.6,50.6,5.3C87.9,236.4,87.6,235.8,87.3,235.7z"/>
	 						<path opacity="0.1091" fill="#E87325" d="M85.7,234.7c-16.9-1.8-33.8-3.4-50.6-5.3c-0.3,0,0.4,1,0.8,1
	 							c8.4,1.2,16.8,1.8,25.2,2.7c8.4,0.9,16.9,1.8,25.3,2.7C86.6,235.8,86,234.7,85.7,234.7z"/>
	 						<path opacity="0.1091" fill="#E87325" d="M85.7,235.6c-16.9-1.8-33.7-3.4-50.6-5.3c-0.3,0,0.4,1,0.7,1
	 							c8.4,1.2,16.8,1.8,25.2,2.7c8.4,0.9,16.8,1.8,25.3,2.7C86.7,236.7,86,235.7,85.7,235.6z"/>
	 						<path opacity="0.1091" fill="#E87325" d="M86.4,236.6c-16.9-1.8-33.8-3.6-50.6-5.3c-0.4,0,0.2,0.8,0.5,0.8
	 							c16.9,1.8,33.7,3.5,50.6,5.3C87.2,237.5,86.7,236.7,86.4,236.6z"/>
	 						<path opacity="0.1091" fill="#E87325" d="M87.1,234.8c-16.9-1.8-33.8-3.5-50.6-5.3c-0.5,0-0.1,0.6,0.1,0.7
	 							c16.9,1.8,33.8,3.6,50.7,5.3C87.7,235.5,87.3,234.8,87.1,234.8z"/>
	 						<path opacity="0.1091" fill="#E87325" d="M85.9,236.3c-16.9-1.8-33.7-3.4-50.6-5.3c-0.4,0,0.3,0.9,0.6,0.9
	 							c16.8,2.1,33.7,3.6,50.5,5.4C86.9,237.3,86.2,236.3,85.9,236.3z"/>
	 						<path opacity="0.1091" fill="#E87325" d="M86.6,234.4c-16.9-1.8-33.8-3.5-50.7-5.3c-0.4,0,0.1,0.8,0.4,0.8
	 							c16.9,1.8,33.8,3.6,50.7,5.3C87.4,235.2,86.8,234.4,86.6,234.4z"/>
	 						<path opacity="0.1091" fill="#E87325" d="M85.4,235.1c-16.9-1.8-33.8-3.3-50.6-5.4c-0.3,0,0.6,1.1,0.9,1.1
	 							c2.6,0.4,5.1,0.6,7.7,0.9c5.8,0.6,11.6,1.2,17.4,1.8c8.4,0.9,16.9,1.8,25.3,2.7C86.5,236.3,85.7,235.2,85.4,235.1z"/>
	 					</g>
	 				</g>
	 			</g>
	 			<g>
	 				<g>
	 					<g>
	 						<path opacity="0.1091" fill="#E87325" d="M91.4,240.9c-12.3,3.4-24.6,6.9-36.9,10.3c-0.3,0.1,0.6,0.7,0.9,0.7
	 							c12.3-3.4,24.5-6.9,36.8-10.3C92.6,241.5,91.7,240.8,91.4,240.9z"/>
	 						<path opacity="0.1091" fill="#E87325" d="M91.5,240c-12.3,3.5-24.6,6.9-36.9,10.3c-0.4,0.1,0.4,0.7,0.6,0.6
	 							c12.3-3.4,24.6-6.9,36.9-10.3C92.5,240.5,91.8,239.9,91.5,240z"/>
	 						<path opacity="0.1091" fill="#E87325" d="M91.9,240.7c-12.3,3.5-24.6,6.9-36.9,10.3c-0.4,0.1,0.4,0.6,0.6,0.6
	 							c12.3-3.4,24.6-6.9,36.9-10.3C92.9,241.2,92.1,240.6,91.9,240.7z"/>
	 						<path opacity="0.1091" fill="#E87325" d="M92.6,241.4c-12.3,3.5-24.6,6.9-36.9,10.4c-0.4,0.1,0.1,0.6,0.3,0.5
	 							c12.3-3.4,24.6-6.9,36.9-10.3C93.4,241.8,92.8,241.3,92.6,241.4z"/>
	 						<path opacity="0.1091" fill="#E87325" d="M92.6,240.7c-12.3,3.5-24.6,6.9-36.9,10.3c-0.4,0.1,0,0.6,0.2,0.5
	 							c12.3-3.4,24.6-6.9,36.9-10.3C93.2,241.1,92.9,240.7,92.6,240.7z"/>
	 						<path opacity="0.1091" fill="#E87325" d="M90.9,239.8c-12.3,3.4-24.6,6.9-36.9,10.3c-0.3,0.1,0.7,0.8,1,0.7
	 							c12.3-3.4,24.5-6.9,36.8-10.3C92.1,240.4,91.1,239.7,90.9,239.8z"/>
	 						<path opacity="0.1091" fill="#E87325" d="M91,240.7c-12.3,3.4-24.6,6.9-36.9,10.3c-0.3,0.1,0.8,0.8,1.1,0.8
	 							c12.3-3.3,24.5-6.8,36.8-10.3C92.4,241.4,91.3,240.6,91,240.7z"/>
	 						<path opacity="0.1091" fill="#E87325" d="M91.7,241.7c-12.3,3.4-24.6,6.9-36.9,10.3c-0.3,0.1,0.7,0.7,0.9,0.7
	 							c12.3-3.3,24.5-6.9,36.8-10.3C93,242.2,92,241.6,91.7,241.7z"/>
	 						<path opacity="0.1091" fill="#E87325" d="M92.4,239.9c-12.3,3.4-24.6,6.9-36.9,10.3c-0.3,0.1,0,0.6,0.2,0.5
	 							c12.3-3.4,24.6-6.9,36.9-10.3C92.9,240.3,92.6,239.8,92.4,239.9z"/>
	 						<path opacity="0.1091" fill="#E87325" d="M91.2,241.3c-12.3,3.4-24.6,6.9-36.9,10.3c-0.3,0.1,0.8,0.8,1.1,0.7
	 							c12.3-3.3,24.5-6.8,36.8-10.3C92.6,242,91.5,241.2,91.2,241.3z"/>
	 						<path opacity="0.1091" fill="#E87325" d="M91.9,239.5c-12.3,3.5-24.6,6.9-36.9,10.3c-0.4,0.1,0.1,0.6,0.3,0.5
	 							c12.3-3.4,24.6-6.9,36.9-10.3C92.7,239.9,92.2,239.5,91.9,239.5z"/>
	 						<path opacity="0.1091" fill="#E87325" d="M90.6,240.2c-12.3,3.4-24.6,6.9-36.9,10.3c-0.3,0.1,0.9,0.9,1.3,0.8
	 							c12.3-3.3,24.5-6.8,36.8-10.3C92.1,241,90.9,240.1,90.6,240.2z"/>
	 					</g>
	 				</g>
	 			</g>
	 			<line fill="none" stroke="#E87325" stroke-width="2" stroke-miterlimit="10" x1="121.5" y1="240.7" x2="121.5" y2="266.5"/>
	 			<circle cx="98.4" cy="203.2" r="3.6"/>
	 			<circle cx="141.4" cy="203.2" r="3.6"/>
	 			<path fill="none" stroke="#E87325" stroke-width="2" stroke-linecap="round" stroke-miterlimit="10" d="M144.9,253.1
	 				c-2.3,7.9-12,13.8-23.8,13.8c-11.5,0-21.1-5.7-23.6-13.3"/>
	 			</g>
	 	</g>
	 </switch>
</svg>
