<?xml version="1.0" encoding="utf-8"?>
<!-- Generator: Adobe Illustrator 19.0.0, SVG Export Plug-In . SVG Version: 6.00 Build 0)  -->
<svg version="1.1" id="Layer_1" xmlns="http://www.w3.org/2000/svg" xmlns:xlink="http://www.w3.org/1999/xlink" x="0px" y="0px"
	 viewBox="-234 313 297.8 400" style="enable-background:new -234 313 297.8 400;" xml:space="preserve">
<style type="text/css">
	.st0{fill:none;stroke:#F8EE56;stroke-width:0.5;stroke-miterlimit:10;}
	.st1{fill:#FFC900;}
	.st2{enable-background:new    ;}
	.st3{opacity:0.41;}
	.st4{opacity:0.1091;fill:#FFFFFF;enable-background:new    ;}
	.st5{fill:none;}
</style>
<script  src="../balloonPop.js"></script>
<g id="strange">
	<path id="XMLID_92_" class="st0" d="M-31,530.2l1.8,13.9c1.5,11.6,0.7,23.4-2.2,34.8l-0.2,0.8c-2.2,8.7-2.8,17.7-1.7,26.5l2.3,17.9
		l1.7,13.2c1.5,11.7,1.6,23.6,0.1,35.4l-1.8,14.7l-2.9,25.3c-0.7,6.4-0.6,12.9,0.5,19.3l2.4,15"/>
	<path id="XMLID_48_" class="st1" d="M-2.2,492.4c1.3-17.9-11.2-34.6-27.4-34.6c-1.1,0-1.9,0-3.5,0c-1.7,0-2.7,0.2-3,0.2
		c-14.5,1.4-25.4,17.2-24.2,34.4c1,14.6,8.4,26.5,20.5,32.3c2.4,1.2,5,1.8,7.6,1.8s5.3-0.5,7.7-1.6C-11.3,519.1-3.3,507.2-2.2,492.4
		z"/>
	<path id="XMLID_45_" class="st1" d="M-31.7,524.4c0,1.1-1.1,4.1-1.3,4.6c-0.1,0.3-0.4,0.8-0.2,1.1c0.3,0.3,0.6,0.1,0.9-0.1
		c0.3-0.2,0.5-0.4,0.9-0.4s0.7,0.1,1.1,0.2c0.4,0.1,0.8,0,0.9-0.3c0.1-0.3,0-0.5-0.1-0.8c-0.5-1.1-1.1-2.2-1.6-3.2
		c-0.1,0-0.3-0.1-0.4-0.1"/>
	<g id="XMLID_86_" class="st2">
		<path d="M-48.5,489.6c0,0.6-0.2,1.1-0.7,1.5c-0.4,0.4-1,0.5-1.7,0.5c-0.5,0-0.9-0.1-1.4-0.3c-0.5-0.2-0.9-0.4-1.3-0.7l0.6-1
			c0.7,0.6,1.5,0.8,2.2,0.8c0.3,0,0.5-0.1,0.7-0.2c0.2-0.1,0.3-0.3,0.3-0.5c0-0.3-0.4-0.6-1.3-0.9c-0.1,0-0.1,0-0.1,0
			c-1.3-0.4-2-1-2-1.8c0-0.6,0.2-1.1,0.7-1.4c0.5-0.4,1.1-0.5,1.8-0.5c0.7,0,1.4,0.2,2.1,0.6l-0.5,1c-0.5-0.3-1.1-0.5-1.7-0.5
			c-0.3,0-0.6,0.1-0.8,0.2s-0.3,0.3-0.3,0.5c0,0.2,0.1,0.4,0.3,0.5c0.1,0.1,0.3,0.1,0.6,0.2c0.3,0.1,0.5,0.1,0.7,0.2
			c0.2,0.1,0.4,0.1,0.6,0.2c0.2,0.1,0.4,0.2,0.6,0.3C-48.7,488.6-48.5,489-48.5,489.6z"/>
		<path d="M-45.7,486.2v3.2c0,0.3,0.1,0.5,0.2,0.7c0.2,0.2,0.4,0.3,0.7,0.3s0.6-0.1,0.8-0.4l0.6,0.9c-0.5,0.4-1,0.6-1.6,0.6
			c-0.6,0-1.1-0.2-1.5-0.6c-0.4-0.4-0.6-0.9-0.6-1.6v-6.3h1.3v2h1.7v1.1H-45.7z"/>
		<path d="M-39,486.4c-0.7,0-1.2,0.2-1.5,0.6c-0.3,0.4-0.5,1-0.5,1.7v2.7h-1.3v-6.4h1.3v1.3c0.2-0.4,0.5-0.7,0.9-1s0.8-0.4,1.2-0.4
			L-39,486.4C-38.9,486.4-38.9,486.4-39,486.4z"/>
		<path d="M-37.1,490.7c-0.6-0.6-0.9-1.4-0.9-2.4s0.3-1.8,0.9-2.4s1.3-0.9,2.2-0.9c0.8,0,1.5,0.4,2.1,1.2v-1.1h1.3v6.4h-1.3v-1
			c-0.3,0.4-0.6,0.7-1,0.8c-0.4,0.2-0.8,0.3-1.2,0.3C-35.8,491.6-36.5,491.3-37.1,490.7z M-36.6,488.4c0,0.6,0.2,1.1,0.6,1.5
			s0.9,0.6,1.4,0.6c0.5,0,1-0.2,1.3-0.6c0.4-0.4,0.6-0.9,0.6-1.5c0-0.6-0.2-1.1-0.6-1.5c-0.4-0.4-0.8-0.6-1.4-0.6s-1,0.2-1.4,0.6
			C-36.4,487.2-36.6,487.8-36.6,488.4z"/>
		<path d="M-28.1,488.1v3.5h-1.3v-6.4h1.3v1.2c0.2-0.4,0.5-0.7,0.9-0.9c0.4-0.2,0.8-0.3,1.2-0.3c0.7,0,1.3,0.2,1.7,0.7
			c0.4,0.4,0.7,1.1,0.7,1.9v3.9h-1.3V488c0-1.2-0.5-1.8-1.5-1.8c-0.5,0-0.9,0.2-1.2,0.5C-28,487-28.1,487.5-28.1,488.1z"/>
		<path d="M-18.9,492.9c1.2,0,1.8-0.8,1.8-2.3v-0.4c-0.2,0.3-0.5,0.5-0.8,0.7s-0.8,0.3-1.2,0.3c-0.8,0-1.5-0.3-2.1-0.9
			c-0.5-0.6-0.8-1.3-0.8-2.2s0.3-1.6,0.8-2.2c0.5-0.6,1.2-0.9,2.1-0.9s1.5,0.3,2.1,0.9v-0.8h1.3v5.5c0,1.1-0.3,2-0.9,2.6
			c-0.6,0.6-1.3,0.9-2.2,0.9c-0.7,0-1.3-0.2-1.9-0.5s-0.9-0.8-1.2-1.4l1.2-0.5C-20.5,492.5-19.9,492.9-18.9,492.9z M-20.8,488.1
			c0,0.5,0.2,1,0.5,1.4c0.3,0.4,0.8,0.6,1.3,0.6s1-0.2,1.3-0.6c0.3-0.4,0.5-0.8,0.5-1.4c0-0.5-0.2-1-0.5-1.4
			c-0.3-0.4-0.8-0.6-1.3-0.6c-0.5,0-1,0.2-1.3,0.6C-20.6,487.1-20.8,487.6-20.8,488.1z"/>
		<path d="M-11,485c0.9,0,1.6,0.2,2.2,0.7c0.6,0.5,0.9,1.1,0.9,1.9l0,0l-4.7,2c0.4,0.5,1,0.8,1.7,0.8c0.7,0,1.3-0.3,1.8-0.8l0.8,0.9
			c-0.8,0.8-1.7,1.2-2.7,1.2c-0.9,0-1.7-0.3-2.3-0.9c-0.6-0.6-1-1.4-1-2.4c0-0.7,0.2-1.3,0.5-1.8c0.3-0.5,0.8-0.9,1.2-1.1
			C-12.1,485.2-11.5,485-11,485z M-13,488.4c0,0.1,0,0.2,0,0.2l3.5-1.5c-0.3-0.5-0.8-0.8-1.5-0.8c-0.5,0-1,0.2-1.4,0.6
			C-12.8,487.2-13,487.7-13,488.4z"/>
	</g>
	<g id="XMLID_6_" class="st3">
		<g id="XMLID_312_">
			<g id="XMLID_313_">
				<path id="XMLID_325_" class="st4" d="M-32.3,466.6c2.6-0.3,5.1,0,7.5,1c4.2,0.7,7.6,3.1,10.2,7c-0.8-1.1-1.6-2.2-2.4-3.2
					c1.3,1.9,2.6,3.8,4,5.7c-0.7-1.2-1.4-2.3-2.1-3.5c1.1,2,2.2,4,3.3,6.1c-0.6-1.2-1.2-2.5-1.7-3.7c0.9,2.1,1.8,4.2,2.6,6.3
					c-0.4-1.3-0.9-2.6-1.3-3.9c0.8,5.7,1.6,11.4,2.3,17.1c0.3-1.4,0.6-2.8,0.9-4.2c-0.4,1.8-0.9,3.6-1.3,5.4
					c-0.1,0.3-0.1,1.1,0.3,1.3c0.7,0.3,1.3-1.4,1.4-1.7c0.6-1.5,1.1-3,1.6-4.5c0.4-1.1,1-2.7,0.8-3.9c-1.1-6.4-4.1-12.7-8.4-17.5
					c-2.6-3-5.7-5.2-9.2-6.9c-1.2-0.6-2.3-1.1-3.6-1.5c-3.8-1.3-7.7-1.6-11.8-1.7c-1.8-0.1,1.2,2.6,1.1,2.5c1.2,1,2.4,1.9,3.6,2.8
					C-33.8,466.1-33.1,466.4-32.3,466.6z"/>
				<path id="XMLID_324_" class="st4" d="M-31,463.6c3.2-0.4,6.2,0.2,8.9,1.9c10.9,2.9,15.2,12,12.9,27.3c0.2-0.9,0.4-1.8,0.6-2.7
					c-0.3,0.9-0.5,1.9-0.8,2.8c-0.2,0.7-0.5,2.8,0.8,1.9c0.6-0.4,0.8-1.4,1.1-2c0.4-1.1,1-2.3,1.1-3.5c0.5-6.6-1.7-13.8-5.3-19.3
					c-2.5-3.8-5.8-6.8-9.9-8.9c-1.5-0.8-2.3-1.1-4-1.7c-3.3-1.1-6.4-1.4-9.9-1.5c-1.5-0.1,0.2,2.1,0.4,2.2c0.8,0.9,1.6,1.8,2.5,2.6
					C-32.2,463.1-31.6,463.4-31,463.6z"/>
				<path id="XMLID_323_" class="st4" d="M-30.4,466c1.5,0,2.9,0.1,4.4,0.1c2.3,0.1,4.5,0.8,6.4,2.1c1.5,0.5,2.7,1.2,3.8,2.3
					c4.1,3.3,6.6,7.7,7.5,13.4c0.8,4,1.2,7.9,0,11.9c-0.1,0.3-0.2,1.1,0.2,1.3c0.6,0.4,1.3-1.2,1.5-1.5c0.7-1.3,1.3-2.7,1.9-4.1
					c0.4-1,1.2-2.4,1.1-3.6c-0.7-6.8-3.7-13.4-8.1-18.6c-3-3.5-6.7-6.2-10.9-8.1c-2.2-1.1-4.6-1.9-7.1-2.4c-2.7-0.7-5.4-0.9-8.2-0.8
					c-1.9-0.1,1.3,2.9,1.2,2.8c1.3,1.3,2.6,2.5,4,3.7C-32.1,465.1-31.3,465.6-30.4,466z"/>
				<path id="XMLID_322_" class="st4" d="M-27.5,469.2c3.8-0.3,7.3,0.4,10.8,2.1c6.8,5.3,10.5,11.8,11,19.3c0.3,3.4,0.1,6.4-1.1,9.5
					c-0.3,0.8,0.7,1.1,1.2,0.8c0.9-0.4,2-2.4,2.2-3.4c1.7-7.8-0.7-17-5.6-23.2c-2.9-3.6-6.6-6.7-11-8.4c-1.3-0.5-2.6-0.9-3.9-1.2
					c-2.9-0.7-5.4-0.9-8.5-1c-1.6-0.1,0.5,2.1,0.6,2.2c0.9,0.8,1.8,1.6,2.7,2.3C-28.7,468.8-28.2,469.1-27.5,469.2z"/>
				<path id="XMLID_321_" class="st4" d="M-27.6,466.5c2.8-0.2,5.5,0.1,8.2,0.9c3,1,5.5,2.6,7.6,4.8c2,2.2,3.5,4.7,4.6,7.5
					c2.1,5.4,3,12,0.9,17.5c-0.4,1,0.7,1.1,1.2,0.7c0.5-0.6,1-1.2,1.4-1.9s0.8-1.4,1.1-2.1c1.4-8.7-1.7-18-7.4-24.6
					c-2-2.3-4.4-4.1-7-5.7c-1.2-0.8-2.6-1.4-4-2c-3.8-1.6-7.8-2-11.9-2.2c-1.7-0.1,0.4,2.4,0.6,2.5c0.9,1.1,1.9,2.1,2.9,3.2
					C-28.9,465.8-28.3,466.2-27.6,466.5z"/>
				<path id="XMLID_320_" class="st4" d="M-31.3,465.3c3.5-0.6,6.9-0.1,10.2,1.5c8.6,8.6,11.4,17.5,8.4,27c-0.2,0.6-0.6,1.5-0.1,2
					s1.1,0.2,1.4-0.3c1.8-3.6,1.8-8,1.4-11.9c-0.2-2.5-0.8-4.9-1.6-7.2c-1.2-3.5-3.1-6.7-5.8-9.2c-1.7-1.5-4.1-3-6.3-3.7
					c-2.6-0.8-4.9-0.4-7.5-0.1C-32.3,463.5-32.5,465.4-31.3,465.3z"/>
				<path id="XMLID_319_" class="st4" d="M-33.5,466.4c6.1-0.3,11.3,1.7,15.8,6c-0.6-0.6-1.2-1.2-1.8-1.8c6.2,8.4,8.6,17,7,25.9
					c-0.1,0.5,0.1,0.8,0.5,1c0.9,0.2,1.2-1.5,1.4-2c2-5.8,0.6-11.8-1.6-17.2c-1.4-3.5-3.5-6.8-6.2-9.3c-2.1-2-4.4-3.5-7.1-4.6
					c-4-1.6-7.9-1.9-12.2-2.1c-0.3,0.1-0.5,0.3-0.5,0.7c0.1,0.5,0.4,0.9,0.9,1.2C-36.3,465.1-34.8,466.4-33.5,466.4z"/>
				<path id="XMLID_318_" class="st4" d="M-30.8,470.1c5-0.3,9.5,1,13.5,3.9c-0.8-0.6-1.5-1.1-2.3-1.7c3.3,9,6.7,17.9,10,26.9
					c0.3-1,0.5-2,0.8-2.9c-0.3,1-0.6,1.9-0.9,2.9c-0.2,0.6-0.8,3,0.7,2c0.6-0.4,1-1.5,1.3-2.1c0.5-1,1.4-2.5,1.5-3.7
					c0.1-3.1-0.5-6.1-1.4-9.1c-1.3-4.3-3.5-8.6-6.6-11.9c-1.9-2.1-4-3.8-6.5-5.2c-2-1.1-4.2-1.9-6.4-2.4c-3.3-0.8-5.2-0.7-8.6-0.8
					c-0.4,0.1-0.5,0.4-0.4,0.7c0.2,0.6,0.6,1,1.2,1.2C-33.9,468.8-32.3,470.1-30.8,470.1z"/>
				<path id="XMLID_317_" class="st4" d="M-27.8,463.6c1.4,0,2.9,0.1,4.3,0.1c3,0.3,5.6,1.2,7.9,2.9c4.5,3,7.3,7.5,8.5,13.2
					c1.1,4.9,1.3,10.2-0.6,15c-0.2,0.6,0.1,1.3,0.8,1.3c0.8,0,1.2-1.2,1.4-1.8c2.1-5.8,1.3-12.5-0.6-18.2c-1.5-4.5-4.1-8.4-7.7-11.5
					c-2.4-2.1-5.2-3.5-8.2-4.5c-2.9-1-5.5-1.1-8.6-1.3c-1.2-0.1-0.4,1.5-0.2,1.9C-30.1,461.5-28.9,463.6-27.8,463.6z"/>
				<path id="XMLID_316_" class="st4" d="M-32.6,469c5-0.3,9.4,0.9,13.4,3.9c-0.7-0.5-1.5-1.1-2.2-1.6c3.5,8.3,6.9,16.7,10.4,25
					c0.1-1.1,0.2-2.3,0.3-3.4c-0.3,2.1-0.7,4.1-1.1,6.1c-0.1,0.5,0,0.8,0.4,1.1c1.2,0.4,2-3.6,2.2-4c0.8-2.4,1-3.8,0.6-6.4
					c-0.5-3-1.5-6.1-2.8-8.9c-1.6-3.5-3.6-6.4-6.3-9.1c-2.2-2.2-4.8-3.8-7.7-4.9c-3.9-1.5-7.8-1.7-11.9-1.8
					c-0.3,0.1-0.5,0.4-0.4,0.7c0.2,0.5,0.6,0.9,1.1,1.2C-35.6,467.8-34.1,469-32.6,469z"/>
				<path id="XMLID_315_" class="st4" d="M-28.6,463.4c2.7,0.1,5.4,0,8,0.8c1.1,0.5,2.2,1,3.3,1.5c4.5,2.4,6.8,6.2,7,11.5
					c1.8,2.8,2.6,5.7,2.5,8.8c0,0.8,0,1.5-0.1,2.3c-0.2,2-0.6,3.8-1.5,5.7c-0.3,0.6-0.1,1,0.5,1.3c0.7,0.3,0.9,0,1.2-0.6
					c1.3-2.7,1.7-5.6,1.7-8.5c0-3.2-0.3-6.5-1.2-9.6c-0.9-3.2-2.5-6.1-4.5-8.8c-1.6-2-3.4-3.5-5.7-4.7c-1.2-0.5-2.4-1-3.5-1.6
					c-2.6-0.7-5.2-1-7.9-0.8c-0.5,0-1.1,0.3-1.1,0.9C-30,462.1-29.1,463.4-28.6,463.4z"/>
				<path id="XMLID_314_" class="st4" d="M-32.4,466.7c2.5-0.5,4.9-0.2,7.1,0.8c5.7,1,9.5,5,11.1,11.8c1.4,4.6,2.4,10.2,0.7,14.9
					c-0.2,0.6-0.7,1.9-0.3,2.5c0.2,0.3,1,0.7,1.3,0.1c1.2-2.3,1.5-4.7,1.6-7.3c0.2-4.8-0.8-9.9-2.9-14.3c-1.2-2.6-2.9-4.9-5.1-6.8
					c-1.7-1.5-3.9-2.7-6.1-3.5c-2.5-0.9-5.2-0.5-7.7-0.4C-33.9,464.8-33.7,466.8-32.4,466.7z"/>
			</g>
		</g>
	</g>
	<g id="XMLID_4_" class="st3">
		<g id="XMLID_297_">
			<g id="XMLID_298_">
				<path id="XMLID_310_" class="st4" d="M-13.1,498.3c0,2.2-0.4,4.3-1.2,6.3c-2.1,4.8-5.1,8.8-9.1,12c-1.6,1.3-3.3,2.5-5.2,3.4
					c-2.5,1.3-5.1,2.1-7.9,2.3c-0.4,0-1.1,0.2-1.2,0.7c-0.1,0.7,1.7,0.8,2,0.8c1.6,0.2,3.1,0.2,4.7,0.2c1.2,0,2.8,0.2,3.9-0.4
					c6.2-2.9,11.4-7.4,15.1-13.2c3.7-5.9,6.3-12.4,7.1-19.4c0.2-1.9-3,1.2-2.9,1.1c-1.3,1.2-2.5,2.5-3.8,3.8
					C-12.2,496.7-12.8,497.4-13.1,498.3z"/>
				<path id="XMLID_309_" class="st4" d="M-12.5,495.3c-0.4,4.3-1.6,7.7-4,11.2c-3.7,5.3-8.1,8.6-14.4,11.5c1.1-0.4,2.2-0.8,3.2-1.2
					c-2,0.6-3.9,1.3-5.9,1.9c1.1-0.3,2.3-0.6,3.4-0.9c1.4-0.3-6.1,0.7-6.7,1.6c-0.4,0.7,0.2,1,0.8,1c1.5,0.2,3.2-0.2,4.6-0.4
					c3.2-0.4,6-1.8,8.7-3.6c4.9-3.3,9-8,11.7-13.3c2.1-4.2,3.3-8.3,3.8-13c0.2-1.6-2.2,0.7-2.2,0.6
					C-10.3,491.9-12.3,493.7-12.5,495.3z"/>
				<path id="XMLID_308_" class="st4" d="M-10.9,497.5c0,2.2-0.5,4.3-1.3,6.3c-2.1,4.9-5.1,8.9-9.1,12.2c-1.6,1.3-3.3,2.5-5.2,3.5
					c-2.5,1.3-5.1,2.1-7.9,2.3c-0.3,0.1-1,0.3-1,0.7c-0.1,0.7,1.5,0.8,1.8,0.8c1.4,0.1,2.8,0.1,4.3,0.1c1.2,0,2.4,0,3.5-0.5
					c5.1-2,9.4-5.3,13-9.5c5.3-6.2,8.7-14,9.7-22c0.2-1.8-2.8,0.8-2.7,0.8c-1.2,1.1-2.4,2.2-3.5,3.3
					C-10.1,496.1-10.6,496.7-10.9,497.5z"/>
				<path id="XMLID_307_" class="st4" d="M-10.3,501.4c-0.1,3.1-1,6-2.6,8.7c-0.8,1.5-1.7,2.8-2.9,4c-4.9,5.8-11.4,10-19.6,10.1
					c-0.6,0-1,0.6-0.8,1.2c0.2,0.6,1,0.7,1.6,0.7c3.3-0.1,6-0.6,9.1-1.9c2.9-1.3,5.5-2.9,7.9-5c3.3-2.7,6.1-5.9,8.1-9.7
					c1.7-3.2,2.5-6.1,2.9-9.6c0.1-1-1.1-0.7-1.6-0.5C-8.7,499.8-10.2,500.5-10.3,501.4z"/>
				<path id="XMLID_306_" class="st4" d="M-9.6,498.7c-0.1,3.1-0.9,5.9-2.4,8.5c-1.1,1.9-2.3,3.7-3.8,5.3
					c-4.5,5.1-10.4,8.6-17.5,9.3c-0.7,0.1-1.6,0.4-1.1,1.2c0.4,0.8,2.6,0.6,3.2,0.5c2.3-0.3,4.2-0.7,6.3-1.5
					c3.6-1.3,6.8-3.8,9.6-6.4c3-2.8,5.6-6.1,7.4-9.8c1.6-3.2,2.3-6.2,2.8-9.7c0.2-1.2-1.5-0.4-1.8-0.2
					C-7.8,496.5-9.5,497.6-9.6,498.7z"/>
				<path id="XMLID_305_" class="st4" d="M-16.2,495.6c0.1,2-0.4,3.9-1.3,5.7c-2.7,8.7-9.4,14.2-20.3,16.7c-0.6,0.1-2.4,0.2-2.6,1.1
					c-0.1,0.9,1,0.9,1.6,0.8c4.7-0.4,8.8-2,12.7-4.8c3.4-2.5,6.3-5.5,8.6-9c1.2-1.9,2-3.6,2.8-5.7c0.8-2.2,1-4.2,1.3-6.4
					c0.1-0.6-0.7-1-1.2-0.8C-15.3,493.5-16.1,494.9-16.2,495.6z"/>
				<path id="XMLID_304_" class="st4" d="M-15.2,497.8c-0.7,6.1-3.1,10.7-7.1,15c-4,4.2-8.2,6.7-14,8.5c1.3-0.2,2.6-0.5,3.8-0.7
					c-2.1,0.3-4.3,0.6-6.4,1c-0.3,0.1-1,0.3-1,0.7C-40,523-38.4,523-38,523c1.4,0.1,2.8,0.1,4.2,0c1.2-0.1,2.4-0.1,3.5-0.5
					c12.2-5.2,19.9-18.3,21.3-31.1c0.2-1.8-2.6,1.2-2.4,1c-1,1.1-1.9,2.3-2.7,3.4C-14.7,496.4-15,497.1-15.2,497.8z"/>
				<path id="XMLID_303_" class="st4" d="M-13,501.6c-0.1,1.1-0.2,2.2-0.4,3.2c-0.4,2-1.2,3.9-2.3,5.6c-1.5,2.8-3.3,5.3-5.7,7.5
					c-1.6,1.4-3.3,2.8-5.1,3.9c-3.4,2.2-6.9,3.1-10.9,3.4c-0.9,0.1-0.7,1-0.3,1.4c0.8,0.6,3.1,1,4.1,0.8c4.6-0.9,8.5-2.4,12.3-5.2
					c3-2.2,5.6-4.9,7.8-7.9c1.5-2.1,2.6-4.1,3.8-6.3c1.7-3.2,2.5-6.5,3-10.1c0.2-1.5-2,0-2.2,0.1c-1,0.7-1.9,1.4-2.8,2.1
					C-12.4,500.5-12.8,501-13,501.6z"/>
				<path id="XMLID_302_" class="st4" d="M-11.3,495.9c-0.5,5.4-1.8,9-5.9,13.5c-4.4,4.7-9.6,8.2-16.6,8.9c-0.6,0.1-2,0.1-1.9,1.1
					s1.4,0.7,2.1,0.7c5.1-0.3,10-2.5,14-5.8c2.6-2.1,4.8-4.4,6.7-7.1c1.1-1.5,1.9-3.1,2.7-4.8c1.1-2.4,1.5-4.6,1.7-7.3
					c0.1-0.6-0.5-1-1-1C-10,494.1-11.2,495.4-11.3,495.9z"/>
				<path id="XMLID_301_" class="st4" d="M-14.7,500.3c-0.1,1.1-0.2,2.2-0.4,3.2c-1.2,2.7-2.4,5.3-3.6,8c-1.5,2.2-3.4,4.2-5.4,6
					c-1.6,1.4-3.3,2.6-5.1,3.6c-3,1.7-5.7,2.5-9.3,2.9c-1.2,0.1-1.1,1-0.2,1.4c1,0.3,2.1,0.5,3.2,0.5c1.1,0.1,2.1,0.2,3.2,0.2
					c2.4-0.8,4.4-1.5,6.6-2.8c2-1.2,3.8-2.7,5.6-4.2c6.9-6.1,11.3-15.6,12.4-24.6c0.2-1.7-2.6,0.7-2.5,0.7c-1.1,1-2.1,2-3.1,3.1
					C-14,498.9-14.4,499.6-14.7,500.3z"/>
				<path id="XMLID_300_" class="st4" d="M-13,494.9c-0.1,1.1-0.2,2.1-0.4,3.2c-0.6,2.5-1.6,4.8-3.1,6.8c-1.3,2.1-3,3.9-5.2,5.2
					c-3.4,4.1-7.9,6.3-13.4,6.8c-0.6,0.1-2,0.1-2.3,0.8s0.4,1.2,1,1.1c2.4-0.1,4.7-0.4,7-1.3c3-1.2,5.7-2.8,8.2-4.8
					c2.2-1.8,4.2-3.7,5.8-6c1.3-1.7,2.4-3.7,3.2-5.7c0.9-2.2,1.1-4.4,1.4-6.7c0.1-0.5-0.7-0.9-1.1-0.9
					C-12.3,493.6-12.9,494.5-13,494.9z"/>
				<path id="XMLID_299_" class="st4" d="M-16.9,496.6c-0.1,5-2,9.5-5.6,13.5c-5.4,5.2-11.4,8.5-18.3,9.9c-0.8,0.4-0.8,1.2,0.1,1.4
					c1,0.3,3,0,4.1-0.2c2.7-0.5,5.5-1.7,7.8-3.1c3-1.8,5.6-4.2,7.9-6.8c1.4-1.6,2.6-3.4,3.7-5.3c2.2-3.7,3.2-7.7,3.6-11.9
					c0.1-0.8-0.5-1.1-1.2-0.8C-15.5,493.7-16.8,495.7-16.9,496.6z"/>
			</g>
		</g>
	</g>
</g>
<g id="sad">
	<path id="XMLID_91_" class="st0" d="M13.6,576.3l-1.8,13.9c-1.5,11.6-0.7,23.4,2.2,34.8l0.2,0.8c2.2,8.7,2.8,17.7,1.7,26.5
		l-2.3,17.9l-1.7,13.2c-1.5,11.7-1.6,23.6-0.1,35.4l1.8,14.7l2.9,25.3c0.7,6.4,0.6,12.9-0.5,19.3l-2.4,15"/>
	<path id="XMLID_66_" class="st1" d="M40.9,548.6c1.3-17.9-11.2-34.6-27.4-34.6c-1.1,0-1.9,0-3.5,0c-1.7,0-2.7,0.2-3,0.2
		c-14.5,1.4-25.4,17.2-24.2,34.4c1,14.6,8.4,26.5,20.5,32.3c2.4,1.2,5,1.8,7.6,1.8s5.3-0.5,7.7-1.6
		C31.8,575.3,39.8,563.4,40.9,548.6z"/>
	<path id="XMLID_63_" class="st1" d="M11.5,580.6c0,1.1-1.1,4.1-1.3,4.6c-0.1,0.3-0.4,0.8-0.2,1.1c0.3,0.3,0.6,0.1,0.9-0.1
		c0.3-0.2,0.5-0.4,0.9-0.4s0.7,0.1,1.1,0.2c0.4,0.1,0.8,0,0.9-0.3c0.1-0.3,0-0.5-0.1-0.8c-0.5-1.1-1.1-2.2-1.6-3.2
		c-0.1,0-0.3-0.1-0.4-0.1"/>
	<rect id="XMLID_82_" x="0.9" y="538.5" class="st5" width="47" height="18"/>
	<g id="XMLID_81_" class="st2">
		<path d="M6.4,545.5c0,0.6-0.2,1.1-0.7,1.5c-0.4,0.4-1,0.5-1.7,0.5c-0.5,0-0.9-0.1-1.4-0.3s-0.9-0.4-1.3-0.7l0.6-1
			c0.7,0.6,1.5,0.8,2.2,0.8c0.3,0,0.5-0.1,0.7-0.2c0.2-0.1,0.3-0.3,0.3-0.5c0-0.3-0.4-0.6-1.3-0.9c-0.1,0-0.1,0-0.1,0
			c-1.3-0.4-2-1-2-1.8c0-0.6,0.2-1.1,0.7-1.4c0.5-0.4,1.1-0.5,1.8-0.5s1.4,0.2,2.1,0.6l-0.5,1c-0.5-0.3-1.1-0.5-1.7-0.5
			c-0.3,0-0.6,0.1-0.8,0.2c-0.2,0.1-0.3,0.3-0.3,0.5c0,0.2,0.1,0.4,0.3,0.5c0.1,0.1,0.3,0.1,0.6,0.2c0.3,0.1,0.5,0.1,0.7,0.2
			c0.2,0.1,0.4,0.1,0.6,0.2c0.2,0.1,0.4,0.2,0.6,0.3C6.2,544.4,6.4,544.8,6.4,545.5z"/>
		<path d="M8.4,546.5c-0.6-0.6-0.9-1.4-0.9-2.4s0.3-1.8,0.9-2.4s1.3-0.9,2.2-0.9c0.8,0,1.5,0.4,2.1,1.2V541h1.3v6.4h-1.3v-1
			c-0.3,0.4-0.6,0.7-1,0.8c-0.4,0.2-0.8,0.3-1.2,0.3C9.7,547.5,9,547.2,8.4,546.5z M8.9,544.2c0,0.6,0.2,1.1,0.6,1.5
			s0.9,0.6,1.4,0.6c0.5,0,1-0.2,1.3-0.6c0.4-0.4,0.6-0.9,0.6-1.5c0-0.6-0.2-1.1-0.6-1.5c-0.4-0.4-0.8-0.6-1.4-0.6s-1,0.2-1.4,0.6
			C9.1,543.1,8.9,543.6,8.9,544.2z"/>
		<path d="M16.5,546.5c-0.6-0.6-0.9-1.4-0.9-2.4s0.3-1.8,0.9-2.4c0.6-0.6,1.4-0.9,2.2-0.9c0.9,0,1.5,0.4,2.1,1.1v-3.5h1.3v8.9h-1.3
			v-1c-0.5,0.7-1.2,1.1-2.2,1.1C17.8,547.5,17.1,547.2,16.5,546.5z M17,544.2c0,0.6,0.2,1.1,0.6,1.5c0.4,0.4,0.9,0.6,1.4,0.6
			c0.5,0,1-0.2,1.3-0.6s0.6-0.9,0.6-1.5c0-0.6-0.2-1.1-0.6-1.5c-0.4-0.4-0.8-0.6-1.4-0.6c-0.5,0-1,0.2-1.4,0.6
			C17.1,543.1,17,543.6,17,544.2z"/>
	</g>
	<g id="XMLID_5_" class="st3">
		<g id="XMLID_221_">
			<g id="XMLID_236_">
				<path id="XMLID_276_" class="st4" d="M9.7,523.9c2.6-0.3,5.1,0,7.5,1c4.2,0.7,7.6,3.1,10.2,7c-0.8-1.1-1.6-2.2-2.4-3.2
					c1.3,1.9,2.6,3.8,4,5.7c-0.7-1.2-1.4-2.3-2.1-3.5c1.1,2,2.2,4,3.3,6.1c-0.6-1.2-1.2-2.5-1.7-3.7c0.9,2.1,1.8,4.2,2.6,6.3
					c-0.4-1.3-0.9-2.6-1.3-3.9c0.8,5.7,1.6,11.4,2.3,17.1c0.3-1.4,0.6-2.8,0.9-4.2c-0.4,1.8-0.9,3.6-1.3,5.4
					c-0.1,0.3-0.1,1.1,0.3,1.3c0.7,0.3,1.3-1.4,1.4-1.7c0.6-1.5,1.1-3,1.6-4.5c0.4-1.1,1-2.7,0.8-3.9c-1.1-6.4-4.1-12.7-8.4-17.5
					c-2.6-3-5.7-5.2-9.2-6.9c-1.2-0.6-2.3-1.1-3.6-1.5c-3.8-1.3-7.7-1.6-11.8-1.7c-1.8-0.1,1.2,2.6,1.1,2.5c1.2,1,2.4,1.9,3.6,2.8
					C8.2,523.3,8.9,523.7,9.7,523.9z"/>
				<path id="XMLID_275_" class="st4" d="M11.1,520.8c3.2-0.4,6.2,0.2,8.9,1.9c10.9,2.9,15.2,12,12.9,27.3c0.2-0.9,0.4-1.8,0.6-2.7
					c-0.3,0.9-0.5,1.9-0.8,2.8c-0.2,0.7-0.5,2.8,0.8,1.9c0.6-0.4,0.8-1.4,1.1-2c0.4-1.1,1-2.3,1.1-3.5c0.5-6.6-1.7-13.8-5.3-19.3
					c-2.5-3.8-5.8-6.8-9.9-8.9c-1.5-0.8-2.3-1.1-4-1.7c-3.3-1.1-6.4-1.4-9.9-1.5c-1.5-0.1,0.2,2.1,0.4,2.2c0.8,0.9,1.6,1.8,2.5,2.6
					C9.9,520.3,10.4,520.7,11.1,520.8z"/>
				<path id="XMLID_274_" class="st4" d="M11.7,523.2c1.5,0,2.9,0.1,4.4,0.1c2.3,0.1,4.5,0.8,6.4,2.1c1.5,0.5,2.7,1.2,3.8,2.3
					c4.1,3.3,6.6,7.7,7.5,13.4c0.8,4,1.2,7.9,0,11.9c-0.1,0.3-0.2,1.1,0.2,1.3c0.6,0.4,1.3-1.2,1.5-1.5c0.7-1.3,1.3-2.7,1.9-4.1
					c0.4-1,1.2-2.4,1.1-3.6c-0.7-6.8-3.7-13.4-8.1-18.6c-3-3.5-6.7-6.2-10.9-8.1c-2.2-1.1-4.6-1.9-7.1-2.4c-2.7-0.7-5.4-0.9-8.2-0.8
					c-1.9-0.1,1.3,2.9,1.2,2.8c1.3,1.3,2.6,2.5,4,3.7C10,522.3,10.8,522.9,11.7,523.2z"/>
				<path id="XMLID_273_" class="st4" d="M14.5,526.5c3.8-0.3,7.3,0.4,10.8,2.1c6.8,5.3,10.5,11.8,11,19.3c0.3,3.4,0.1,6.4-1.1,9.5
					c-0.3,0.8,0.7,1.1,1.2,0.8c0.9-0.4,2-2.4,2.2-3.4c1.7-7.8-0.7-17-5.6-23.2c-2.9-3.6-6.6-6.7-11-8.4c-1.3-0.5-2.6-0.9-3.9-1.2
					c-2.9-0.7-5.4-0.9-8.5-1c-1.6-0.1,0.5,2.1,0.6,2.2c0.9,0.8,1.8,1.6,2.7,2.3C13.3,526.1,13.9,526.4,14.5,526.5z"/>
				<path id="XMLID_272_" class="st4" d="M14.4,523.7c2.8-0.2,5.5,0.1,8.2,0.9c3,1,5.5,2.6,7.6,4.8c2,2.2,3.5,4.7,4.6,7.5
					c2.1,5.4,3,12,0.9,17.5c-0.4,1,0.7,1.1,1.2,0.7c0.5-0.6,1-1.2,1.4-1.9s0.8-1.4,1.1-2.1c1.4-8.7-1.7-18-7.4-24.6
					c-2-2.3-4.4-4.1-7-5.7c-1.2-0.8-2.6-1.4-4-2c-3.8-1.6-7.8-2-11.9-2.2c-1.7-0.1,0.4,2.4,0.6,2.5c0.9,1.1,1.9,2.1,2.9,3.2
					C13.1,523,13.7,523.5,14.4,523.7z"/>
				<path id="XMLID_271_" class="st4" d="M10.7,522.6c3.5-0.6,6.9-0.1,10.2,1.5c8.6,8.6,11.4,17.5,8.4,27c-0.2,0.6-0.6,1.5-0.1,2
					s1.1,0.2,1.4-0.3c1.8-3.6,1.8-8,1.4-11.9c-0.2-2.5-0.8-4.9-1.6-7.2c-1.2-3.5-3.1-6.7-5.8-9.2c-1.7-1.5-4.1-3-6.3-3.7
					c-2.6-0.8-4.9-0.4-7.5-0.1C9.7,520.8,9.5,522.6,10.7,522.6z"/>
				<path id="XMLID_270_" class="st4" d="M8.6,523.6c6.1-0.3,11.3,1.7,15.8,6c-0.6-0.6-1.2-1.2-1.8-1.8c6.2,8.4,8.6,17,7,25.9
					c-0.1,0.5,0.1,0.8,0.5,1c0.9,0.2,1.2-1.5,1.4-2c2-5.8,0.6-11.8-1.6-17.2c-1.4-3.5-3.5-6.8-6.2-9.3c-2.1-2-4.4-3.5-7.1-4.6
					c-4-1.6-7.9-1.9-12.2-2.1c-0.3,0.1-0.5,0.3-0.5,0.7c0.1,0.5,0.4,0.9,0.9,1.2C5.8,522.3,7.2,523.6,8.6,523.6z"/>
				<path id="XMLID_269_" class="st4" d="M11.3,527.3c5-0.3,9.5,1,13.5,3.9c-0.8-0.6-1.5-1.1-2.3-1.7c3.3,9,6.7,17.9,10,26.9
					c0.3-1,0.5-2,0.8-2.9c-0.3,1-0.6,1.9-0.9,2.9c-0.2,0.6-0.8,3,0.7,2c0.6-0.4,1-1.5,1.3-2.1c0.5-1,1.4-2.5,1.5-3.7
					c0.1-3.1-0.5-6.1-1.4-9.1c-1.3-4.3-3.5-8.6-6.6-11.9c-1.9-2.1-4-3.8-6.5-5.2c-2-1.1-4.2-1.9-6.4-2.4c-3.3-0.8-5.2-0.7-8.6-0.8
					c-0.4,0.1-0.5,0.4-0.4,0.7c0.2,0.6,0.6,1,1.2,1.2C8.1,526,9.8,527.3,11.3,527.3z"/>
				<path id="XMLID_268_" class="st4" d="M14.2,520.9c1.4,0,2.9,0.1,4.3,0.1c3,0.3,5.6,1.2,7.9,2.9c4.5,3,7.3,7.5,8.5,13.2
					c1.1,4.9,1.3,10.2-0.6,15c-0.2,0.6,0.1,1.3,0.8,1.3c0.8,0,1.2-1.2,1.4-1.8c2.1-5.8,1.3-12.5-0.6-18.2c-1.5-4.5-4.1-8.4-7.7-11.5
					c-2.4-2.1-5.2-3.5-8.2-4.5c-2.9-1-5.5-1.1-8.6-1.3c-1.2-0.1-0.4,1.5-0.2,1.9C11.9,518.7,13.1,520.8,14.2,520.9z"/>
				<path id="XMLID_267_" class="st4" d="M9.4,526.2c5-0.3,9.4,0.9,13.4,3.9c-0.7-0.5-1.5-1.1-2.2-1.6c3.5,8.3,6.9,16.7,10.4,25
					c0.1-1.1,0.2-2.3,0.3-3.4c-0.3,2.1-0.7,4.1-1.1,6.1c-0.1,0.5,0,0.8,0.4,1.1c1.2,0.4,2-3.6,2.2-4c0.8-2.4,1-3.8,0.6-6.4
					c-0.5-3-1.5-6.1-2.8-8.9c-1.6-3.5-3.6-6.4-6.3-9.1c-2.2-2.2-4.8-3.8-7.7-4.9c-3.9-1.5-7.8-1.7-11.9-1.8
					c-0.3,0.1-0.5,0.4-0.4,0.7c0.2,0.5,0.6,0.9,1.1,1.2C6.4,525,8,526.2,9.4,526.2z"/>
				<path id="XMLID_266_" class="st4" d="M13.4,520.6c2.7,0.1,5.4,0,8,0.8c1.1,0.5,2.2,1,3.3,1.5c4.5,2.4,6.8,6.2,7,11.5
					c1.8,2.8,2.6,5.7,2.5,8.8c0,0.8,0,1.5-0.1,2.3c-0.2,2-0.6,3.8-1.5,5.7c-0.3,0.6-0.1,1,0.5,1.3c0.7,0.3,0.9,0,1.2-0.6
					c1.3-2.7,1.7-5.6,1.7-8.5c0-3.2-0.3-6.5-1.2-9.6c-0.9-3.2-2.5-6.1-4.5-8.8c-1.6-2-3.4-3.5-5.7-4.7c-1.2-0.5-2.4-1-3.5-1.6
					c-2.6-0.7-5.2-1-7.9-0.8c-0.5,0-1.1,0.3-1.1,0.9C12,519.3,13,520.6,13.4,520.6z"/>
				<path id="XMLID_251_" class="st4" d="M9.6,524c2.5-0.5,4.9-0.2,7.1,0.8c5.7,1,9.5,5,11.1,11.8c1.4,4.6,2.4,10.2,0.7,14.9
					c-0.2,0.6-0.7,1.9-0.3,2.5c0.2,0.3,1,0.7,1.3,0.1c1.2-2.3,1.5-4.7,1.6-7.3c0.2-4.8-0.8-9.9-2.9-14.3c-1.2-2.6-2.9-4.9-5.1-6.8
					c-1.7-1.5-3.9-2.7-6.1-3.5c-2.5-0.9-5.2-0.5-7.7-0.4C8.1,522,8.4,524,9.6,524z"/>
			</g>
		</g>
	</g>
	<g id="XMLID_1_" class="st3">
		<g id="XMLID_71_">
			<g id="XMLID_73_">
				<path id="XMLID_191_" class="st4" d="M28.9,555.6c0,2.2-0.4,4.3-1.2,6.3c-2.1,4.8-5.1,8.8-9.1,12c-1.6,1.3-3.3,2.5-5.2,3.4
					c-2.5,1.3-5.1,2.1-7.9,2.3c-0.4,0-1.1,0.2-1.2,0.7c-0.1,0.7,1.7,0.8,2,0.8c1.6,0.2,3.1,0.2,4.7,0.2c1.2,0,2.8,0.2,3.9-0.4
					c6.2-2.9,11.4-7.4,15.1-13.2c3.7-5.9,6.3-12.4,7.1-19.4c0.2-1.9-3,1.2-2.9,1.1c-1.3,1.2-2.5,2.5-3.8,3.8
					C29.8,553.9,29.3,554.7,28.9,555.6z"/>
				<path id="XMLID_176_" class="st4" d="M29.6,552.5c-0.4,4.3-1.6,7.7-4,11.2c-3.7,5.3-8.1,8.6-14.4,11.5c1.1-0.4,2.2-0.8,3.2-1.2
					c-2,0.6-3.9,1.3-5.9,1.9c1.1-0.3,2.3-0.6,3.4-0.9c1.4-0.3-6.1,0.7-6.7,1.6c-0.4,0.7,0.2,1,0.8,1c1.5,0.2,3.2-0.2,4.6-0.4
					c3.2-0.4,6-1.8,8.7-3.6c4.9-3.3,9-8,11.7-13.3c2.1-4.2,3.3-8.3,3.8-13c0.2-1.6-2.2,0.7-2.2,0.6
					C31.7,549.1,29.7,550.9,29.6,552.5z"/>
				<path id="XMLID_161_" class="st4" d="M31.1,554.8c0,2.2-0.5,4.3-1.3,6.3c-2.1,4.9-5.1,8.9-9.1,12.2c-1.6,1.3-3.3,2.5-5.2,3.5
					c-2.5,1.3-5.1,2.1-7.9,2.3c-0.3,0.1-1,0.3-1,0.7c-0.1,0.7,1.5,0.8,1.8,0.8c1.4,0.1,2.8,0.1,4.3,0.1c1.2,0,2.4,0,3.5-0.5
					c5.1-2,9.4-5.3,13-9.5c5.3-6.2,8.7-14,9.7-22c0.2-1.8-2.8,0.8-2.7,0.8c-1.2,1.1-2.4,2.2-3.5,3.3C31.9,553.3,31.4,554,31.1,554.8
					z"/>
				<path id="XMLID_146_" class="st4" d="M31.8,558.7c-0.1,3.1-1,6-2.6,8.7c-0.8,1.5-1.7,2.8-2.9,4c-4.9,5.8-11.4,10-19.6,10.1
					c-0.6,0-1,0.6-0.8,1.2s1,0.7,1.6,0.7c3.3-0.1,6-0.6,9.1-1.9c2.9-1.3,5.5-2.9,7.9-5c3.3-2.7,6.1-5.9,8.1-9.7
					c1.7-3.2,2.5-6.1,2.9-9.6c0.1-1-1.1-0.7-1.6-0.5C33.3,557,31.9,557.7,31.8,558.7z"/>
				<path id="XMLID_131_" class="st4" d="M32.4,555.9c-0.1,3.1-0.9,5.9-2.4,8.5c-1.1,1.9-2.3,3.7-3.8,5.3
					c-4.5,5.1-10.4,8.6-17.5,9.3c-0.7,0.1-1.6,0.4-1.1,1.2c0.4,0.8,2.6,0.6,3.2,0.5c2.3-0.3,4.2-0.7,6.3-1.5
					c3.6-1.3,6.8-3.8,9.6-6.4c3-2.8,5.6-6.1,7.4-9.8c1.6-3.2,2.3-6.2,2.8-9.7c0.2-1.2-1.5-0.4-1.8-0.2
					C34.3,553.7,32.5,554.8,32.4,555.9z"/>
				<path id="XMLID_116_" class="st4" d="M25.8,552.8c0.1,2-0.4,3.9-1.3,5.7c-2.7,8.7-9.4,14.2-20.3,16.7c-0.6,0.1-2.4,0.2-2.6,1.1
					c-0.1,0.9,1,0.9,1.6,0.8c4.7-0.4,8.8-2,12.7-4.8c3.4-2.5,6.3-5.5,8.6-9c1.2-1.9,2-3.6,2.8-5.7c0.8-2.2,1-4.2,1.3-6.4
					c0.1-0.6-0.7-1-1.2-0.8C26.7,550.7,25.9,552.1,25.8,552.8z"/>
				<path id="XMLID_113_" class="st4" d="M26.8,555.1c-0.7,6.1-3.1,10.7-7.1,15c-4,4.2-8.2,6.7-14,8.5c1.3-0.2,2.6-0.5,3.8-0.7
					c-2.1,0.3-4.3,0.6-6.4,1c-0.3,0.1-1,0.3-1,0.7c-0.1,0.7,1.5,0.7,1.9,0.7c1.4,0.1,2.8,0.1,4.2,0c1.2-0.1,2.4-0.1,3.5-0.5
					c12.2-5.2,19.9-18.3,21.3-31.1c0.2-1.8-2.6,1.2-2.4,1c-1,1.1-1.9,2.3-2.7,3.4C27.4,553.6,27,554.3,26.8,555.1z"/>
				<path id="XMLID_112_" class="st4" d="M29,558.9c-0.1,1.1-0.2,2.2-0.4,3.2c-0.4,2-1.2,3.9-2.3,5.6c-1.5,2.8-3.3,5.3-5.7,7.5
					c-1.6,1.4-3.3,2.8-5.1,3.9c-3.4,2.2-6.9,3.1-10.9,3.4c-0.9,0.1-0.7,1-0.3,1.4c0.8,0.6,3.1,1,4.1,0.8c4.6-0.9,8.5-2.4,12.3-5.2
					c3-2.2,5.6-4.9,7.8-7.9c1.5-2.1,2.6-4.1,3.8-6.3c1.7-3.2,2.5-6.5,3-10.1c0.2-1.5-2,0-2.2,0.1c-1,0.7-1.9,1.4-2.8,2.1
					C29.6,557.8,29.2,558.2,29,558.9z"/>
				<path id="XMLID_99_" class="st4" d="M30.8,553.1c-0.5,5.4-1.8,9-5.9,13.5c-4.4,4.7-9.6,8.2-16.6,8.9c-0.6,0.1-2,0.1-1.9,1.1
					s1.4,0.7,2.1,0.7c5.1-0.3,10-2.5,14-5.8c2.6-2.1,4.8-4.4,6.7-7.1c1.1-1.5,1.9-3.1,2.7-4.8c1.1-2.4,1.5-4.6,1.7-7.3
					c0.1-0.6-0.5-1-1-1C32,551.4,30.8,552.6,30.8,553.1z"/>
				<path id="XMLID_96_" class="st4" d="M27.4,557.6c-0.1,1.1-0.2,2.2-0.4,3.2c-1.2,2.7-2.4,5.3-3.6,8c-1.5,2.2-3.4,4.2-5.4,6
					c-1.6,1.4-3.3,2.6-5.1,3.6c-3,1.7-5.7,2.5-9.3,2.9c-1.2,0.1-1.1,1-0.2,1.4c1,0.3,2.1,0.5,3.2,0.5c1.1,0.1,2.1,0.2,3.2,0.2
					c2.4-0.8,4.4-1.5,6.6-2.8c2-1.2,3.8-2.7,5.6-4.2c6.9-6.1,11.3-15.6,12.4-24.6c0.2-1.7-2.6,0.7-2.5,0.7c-1.1,1-2.1,2-3.1,3.1
					C28.1,556.2,27.6,556.8,27.4,557.6z"/>
				<path id="XMLID_95_" class="st4" d="M29.1,552.2c-0.1,1.1-0.2,2.1-0.4,3.2c-0.6,2.5-1.6,4.8-3.1,6.8c-1.3,2.1-3,3.9-5.2,5.2
					c-3.4,4.1-7.9,6.3-13.4,6.8c-0.6,0.1-2,0.1-2.3,0.8c-0.3,0.7,0.4,1.2,1,1.1c2.4-0.1,4.7-0.4,7-1.3c3-1.2,5.7-2.8,8.2-4.8
					c2.2-1.8,4.2-3.7,5.8-6c1.3-1.7,2.4-3.7,3.2-5.7c0.9-2.2,1.1-4.4,1.4-6.7c0.1-0.5-0.7-0.9-1.1-0.9
					C29.7,550.8,29.1,551.7,29.1,552.2z"/>
				<path id="XMLID_74_" class="st4" d="M25.2,553.8c-0.1,5-2,9.5-5.6,13.5c-5.4,5.2-11.4,8.5-18.3,9.9c-0.8,0.4-0.8,1.2,0.1,1.4
					c1,0.3,3,0,4.1-0.2c2.7-0.5,5.5-1.7,7.8-3.1c3-1.8,5.6-4.2,7.9-6.8c1.4-1.6,2.6-3.4,3.7-5.3c2.2-3.7,3.2-7.7,3.6-11.9
					c0.1-0.8-0.5-1.1-1.2-0.8C26.5,550.9,25.3,552.9,25.2,553.8z"/>
			</g>
		</g>
	</g>
</g>
<g id="kind">
	<path id="XMLID_90_" class="st0" d="M-50.6,559.5l-1.8,13.9c-1.5,11.6-0.7,23.4,2.2,34.8l0.2,0.8c2.2,8.7,2.8,17.7,1.7,26.5
		l-2.3,17.9l-1.7,13.2c-1.5,11.7-1.6,23.6-0.1,35.4l1.8,14.7l2.9,25.3c0.7,6.4,0.6,12.9-0.5,19.3l-2.4,15"/>
	<path id="XMLID_57_" class="st1" d="M-76.3,589.4c-1.3-17.9,11.2-34.6,27.4-34.6c1.1,0,1.9,0,3.5,0c1.7,0,2.7,0.2,3,0.2
		c14.5,1.4,25.4,17.2,24.2,34.4c-1,14.6-8.4,26.5-20.5,32.3c-2.4,1.2-5,1.8-7.6,1.8s-5.3-0.5-7.7-1.6
		C-67.1,616.1-75.2,604.2-76.3,589.4z"/>
	<path id="XMLID_54_" class="st1" d="M-46.8,621.4c0,1.1,1.1,4.1,1.3,4.6c0.1,0.3,0.4,0.8,0.2,1.1c-0.3,0.3-0.6,0.1-0.9-0.1
		c-0.3-0.2-0.5-0.4-0.9-0.4s-0.7,0.1-1.1,0.2c-0.4,0.1-0.8,0-0.9-0.3c-0.1-0.3,0-0.5,0.1-0.8c0.5-1.1,1.1-2.2,1.6-3.2
		c0.1,0,0.3-0.1,0.4-0.1"/>
	<g id="XMLID_84_" class="st2">
		<path d="M-58,589.2h-1.3v-8.9h1.3v5.2l2.6-2.7h1.7l-2.4,2.5l2.6,3.9h-1.6l-1.9-2.8l-1,1V589.2z"/>
		<path d="M-52.3,581.5c-0.2-0.2-0.3-0.4-0.3-0.6s0.1-0.4,0.3-0.6s0.4-0.3,0.6-0.3c0.2,0,0.4,0.1,0.6,0.3s0.3,0.4,0.3,0.6
			s-0.1,0.4-0.3,0.6s-0.4,0.3-0.6,0.3C-51.9,581.8-52.1,581.7-52.3,581.5z M-51,589.2h-1.3v-6.4h1.3V589.2z"/>
		<path d="M-47.8,585.7v3.5h-1.3v-6.4h1.3v1.2c0.2-0.4,0.5-0.7,0.9-0.9c0.4-0.2,0.8-0.3,1.2-0.3c0.7,0,1.3,0.2,1.7,0.7
			c0.4,0.4,0.7,1.1,0.7,1.9v3.9h-1.3v-3.5c0-1.2-0.5-1.8-1.5-1.8c-0.5,0-0.9,0.2-1.2,0.5C-47.6,584.7-47.8,585.2-47.8,585.7z"/>
		<path d="M-40.9,588.4c-0.6-0.6-0.9-1.4-0.9-2.4s0.3-1.8,0.9-2.4c0.6-0.6,1.4-0.9,2.2-0.9c0.9,0,1.5,0.4,2.1,1.1v-3.5h1.3v8.9h-1.3
			v-1c-0.5,0.7-1.2,1.1-2.2,1.1C-39.6,589.3-40.3,589-40.9,588.4z M-40.4,586c0,0.6,0.2,1.1,0.6,1.5c0.4,0.4,0.9,0.6,1.4,0.6
			c0.5,0,1-0.2,1.3-0.6s0.6-0.9,0.6-1.5c0-0.6-0.2-1.1-0.6-1.5c-0.4-0.4-0.8-0.6-1.4-0.6c-0.5,0-1,0.2-1.4,0.6
			C-40.2,584.9-40.4,585.4-40.4,586z"/>
	</g>
	<g id="XMLID_8_" class="st3">
		<g id="XMLID_252_">
			<g id="XMLID_253_">
				<path id="XMLID_265_" class="st4" d="M-48.3,565.5c2.6-0.3,5.1,0,7.5,1c4.2,0.7,7.6,3.1,10.2,7c-0.8-1.1-1.6-2.2-2.4-3.2
					c1.3,1.9,2.6,3.8,4,5.7c-0.7-1.2-1.4-2.3-2.1-3.5c1.1,2,2.2,4,3.3,6.1c-0.6-1.2-1.2-2.5-1.7-3.7c0.9,2.1,1.8,4.2,2.6,6.3
					c-0.4-1.3-0.9-2.6-1.3-3.9c0.8,5.7,1.6,11.4,2.3,17.1c0.3-1.4,0.6-2.8,0.9-4.2c-0.4,1.8-0.9,3.6-1.3,5.4
					c-0.1,0.3-0.1,1.1,0.3,1.3c0.7,0.3,1.3-1.4,1.4-1.7c0.6-1.5,1.1-3,1.6-4.5c0.4-1.1,1-2.7,0.8-3.9c-1.1-6.4-4.1-12.7-8.4-17.5
					c-2.6-3-5.7-5.2-9.2-6.9c-1.2-0.6-2.3-1.1-3.6-1.5c-3.8-1.3-7.7-1.6-11.8-1.7c-1.8-0.1,1.2,2.6,1.1,2.5c1.2,1,2.4,1.9,3.6,2.8
					C-49.9,564.9-49.1,565.3-48.3,565.5z"/>
				<path id="XMLID_264_" class="st4" d="M-47,562.4c3.2-0.4,6.2,0.2,8.9,1.9c10.9,2.9,15.2,12,12.9,27.3c0.2-0.9,0.4-1.8,0.6-2.7
					c-0.3,0.9-0.5,1.9-0.8,2.8c-0.2,0.7-0.5,2.8,0.8,1.9c0.6-0.4,0.8-1.4,1.1-2c0.4-1.1,1-2.3,1.1-3.5c0.5-6.6-1.7-13.8-5.3-19.3
					c-2.5-3.8-5.8-6.8-9.9-8.9c-1.5-0.8-2.3-1.1-4-1.7c-3.3-1.1-6.4-1.4-9.9-1.5c-1.5-0.1,0.2,2.1,0.4,2.2c0.8,0.9,1.6,1.8,2.5,2.6
					C-48.2,561.9-47.7,562.3-47,562.4z"/>
				<path id="XMLID_263_" class="st4" d="M-46.4,564.8c1.5,0,2.9,0.1,4.4,0.1c2.3,0.1,4.5,0.8,6.4,2.1c1.5,0.5,2.7,1.2,3.8,2.3
					c4.1,3.3,6.6,7.7,7.5,13.4c0.8,4,1.2,7.9,0,11.9c-0.1,0.3-0.2,1.1,0.2,1.3c0.6,0.4,1.3-1.2,1.5-1.5c0.7-1.3,1.3-2.7,1.9-4.1
					c0.4-1,1.2-2.4,1.1-3.6c-0.7-6.8-3.7-13.4-8.1-18.6c-3-3.5-6.7-6.2-10.9-8.1c-2.2-1.1-4.6-1.9-7.1-2.4c-2.7-0.7-5.4-0.9-8.2-0.8
					c-1.9-0.1,1.3,2.9,1.2,2.8c1.3,1.3,2.6,2.5,4,3.7C-48.1,564-47.3,564.5-46.4,564.8z"/>
				<path id="XMLID_262_" class="st4" d="M-43.5,568.1c3.8-0.3,7.3,0.4,10.8,2.1c6.8,5.3,10.5,11.8,11,19.3c0.3,3.4,0.1,6.4-1.1,9.5
					c-0.3,0.8,0.7,1.1,1.2,0.8c0.9-0.4,2-2.4,2.2-3.4c1.7-7.8-0.7-17-5.6-23.2c-2.9-3.6-6.6-6.7-11-8.4c-1.3-0.5-2.6-0.9-3.9-1.2
					c-2.9-0.7-5.4-0.9-8.5-1c-1.6-0.1,0.5,2.1,0.6,2.2c0.9,0.8,1.8,1.6,2.7,2.3C-44.8,567.7-44.2,568-43.5,568.1z"/>
				<path id="XMLID_261_" class="st4" d="M-43.6,565.4c2.8-0.2,5.5,0.1,8.2,0.9c3,1,5.5,2.6,7.6,4.8c2,2.2,3.5,4.7,4.6,7.5
					c2.1,5.4,3,12,0.9,17.5c-0.4,1,0.7,1.1,1.2,0.7c0.5-0.6,1-1.2,1.4-1.9c0.4-0.7,0.8-1.4,1.1-2.1c1.4-8.7-1.7-18-7.4-24.6
					c-2-2.3-4.4-4.1-7-5.7c-1.2-0.8-2.6-1.4-4-2c-3.8-1.6-7.8-2-11.9-2.2c-1.7-0.1,0.4,2.4,0.6,2.5c0.9,1.1,1.9,2.1,2.9,3.2
					C-45,564.6-44.4,565.1-43.6,565.4z"/>
				<path id="XMLID_260_" class="st4" d="M-47.3,564.2c3.5-0.6,6.9-0.1,10.2,1.5c8.6,8.6,11.4,17.5,8.4,27c-0.2,0.6-0.6,1.5-0.1,2
					s1.1,0.2,1.4-0.3c1.8-3.6,1.8-8,1.4-11.9c-0.2-2.5-0.8-4.9-1.6-7.2c-1.2-3.5-3.1-6.7-5.8-9.2c-1.7-1.5-4.1-3-6.3-3.7
					c-2.6-0.8-4.9-0.4-7.5-0.1C-48.4,562.4-48.6,564.3-47.3,564.2z"/>
				<path id="XMLID_259_" class="st4" d="M-49.5,565.3c6.1-0.3,11.3,1.7,15.8,6c-0.6-0.6-1.2-1.2-1.8-1.8c6.2,8.4,8.6,17,7,25.9
					c-0.1,0.5,0.1,0.8,0.5,1c0.9,0.2,1.2-1.5,1.4-2c2-5.8,0.6-11.8-1.6-17.2c-1.4-3.5-3.5-6.8-6.2-9.3c-2.1-2-4.4-3.5-7.1-4.6
					c-4-1.6-7.9-1.9-12.2-2.1c-0.3,0.1-0.5,0.3-0.5,0.7c0.1,0.5,0.4,0.9,0.9,1.2C-52.3,563.9-50.9,565.2-49.5,565.3z"/>
				<path id="XMLID_258_" class="st4" d="M-46.8,569c5-0.3,9.5,1,13.5,3.9c-0.8-0.6-1.5-1.1-2.3-1.7c3.3,9,6.7,17.9,10,26.9
					c0.3-1,0.5-2,0.8-2.9c-0.3,1-0.6,1.9-0.9,2.9c-0.2,0.6-0.8,3,0.7,2c0.6-0.4,1-1.5,1.3-2.1c0.5-1,1.4-2.5,1.5-3.7
					c0.1-3.1-0.5-6.1-1.4-9.1c-1.3-4.3-3.5-8.6-6.6-11.9c-1.9-2.1-4-3.8-6.5-5.2c-2-1.1-4.2-1.9-6.4-2.4c-3.3-0.8-5.2-0.7-8.6-0.8
					c-0.4,0.1-0.5,0.4-0.4,0.7c0.2,0.6,0.6,1,1.2,1.2C-50,567.7-48.3,568.9-46.8,569z"/>
				<path id="XMLID_257_" class="st4" d="M-43.8,562.5c1.4,0,2.9,0.1,4.3,0.1c3,0.3,5.6,1.2,7.9,2.9c4.5,3,7.3,7.5,8.5,13.2
					c1.1,4.9,1.3,10.2-0.6,15c-0.2,0.6,0.1,1.3,0.8,1.3c0.8,0,1.2-1.2,1.4-1.8c2.1-5.8,1.3-12.5-0.6-18.2c-1.5-4.5-4.1-8.4-7.7-11.5
					c-2.4-2.1-5.2-3.5-8.2-4.5c-2.9-1-5.5-1.1-8.6-1.3c-1.2-0.1-0.4,1.5-0.2,1.9C-46.1,560.3-44.9,562.5-43.8,562.5z"/>
				<path id="XMLID_256_" class="st4" d="M-48.6,567.9c5-0.3,9.4,0.9,13.4,3.9c-0.7-0.5-1.5-1.1-2.2-1.6c3.5,8.3,6.9,16.7,10.4,25
					c0.1-1.1,0.2-2.3,0.3-3.4c-0.3,2.1-0.7,4.1-1.1,6.1c-0.1,0.5,0,0.8,0.4,1.1c1.2,0.4,2-3.6,2.2-4c0.8-2.4,1-3.8,0.6-6.4
					c-0.5-3-1.5-6.1-2.8-8.9c-1.6-3.5-3.6-6.4-6.3-9.1c-2.2-2.2-4.8-3.8-7.7-4.9c-3.9-1.5-7.8-1.7-11.9-1.8
					c-0.3,0.1-0.5,0.4-0.4,0.7c0.2,0.5,0.6,0.9,1.1,1.2C-51.6,566.7-50.1,567.8-48.6,567.9z"/>
				<path id="XMLID_255_" class="st4" d="M-44.6,562.3c2.7,0.1,5.4,0,8,0.8c1.1,0.5,2.2,1,3.3,1.5c4.5,2.4,6.8,6.2,7,11.5
					c1.8,2.8,2.6,5.7,2.5,8.8c0,0.8,0,1.5-0.1,2.3c-0.2,2-0.6,3.8-1.5,5.7c-0.3,0.6-0.1,1,0.5,1.3c0.7,0.3,0.9,0,1.2-0.6
					c1.3-2.7,1.7-5.6,1.7-8.5c0-3.2-0.3-6.5-1.2-9.6c-0.9-3.2-2.5-6.1-4.5-8.8c-1.6-2-3.4-3.5-5.7-4.7c-1.2-0.5-2.4-1-3.5-1.6
					c-2.6-0.7-5.2-1-7.9-0.8c-0.5,0-1.1,0.3-1.1,0.9C-46,560.9-45.1,562.2-44.6,562.3z"/>
				<path id="XMLID_254_" class="st4" d="M-48.5,565.6c2.5-0.5,4.9-0.2,7.1,0.8c5.7,1,9.5,5,11.1,11.8c1.4,4.6,2.4,10.2,0.7,14.9
					c-0.2,0.6-0.7,1.9-0.3,2.5c0.2,0.3,1,0.7,1.3,0.1c1.2-2.3,1.5-4.7,1.6-7.3c0.2-4.8-0.8-9.9-2.9-14.3c-1.2-2.6-2.9-4.9-5.1-6.8
					c-1.7-1.5-3.9-2.7-6.1-3.5c-2.5-0.9-5.2-0.5-7.7-0.4C-49.9,563.6-49.7,565.6-48.5,565.6z"/>
			</g>
		</g>
	</g>
	<g id="XMLID_7_" class="st3">
		<g id="XMLID_206_">
			<g id="XMLID_237_">
				<path id="XMLID_249_" class="st4" d="M-29.2,597.2c0,2.2-0.4,4.3-1.2,6.3c-2.1,4.8-5.1,8.8-9.1,12c-1.6,1.3-3.3,2.5-5.2,3.4
					c-2.5,1.3-5.1,2.1-7.9,2.3c-0.4,0-1.1,0.2-1.2,0.7c-0.1,0.7,1.7,0.8,2,0.8c1.6,0.2,3.1,0.2,4.7,0.2c1.2,0,2.8,0.2,3.9-0.4
					c6.2-2.9,11.4-7.4,15.1-13.2c3.7-5.9,6.3-12.4,7.1-19.4c0.2-1.9-3,1.2-2.9,1.1c-1.3,1.2-2.5,2.5-3.8,3.8
					C-28.2,595.5-28.8,596.3-29.2,597.2z"/>
				<path id="XMLID_248_" class="st4" d="M-28.5,594.2c-0.4,4.3-1.6,7.7-4,11.2c-3.7,5.3-8.1,8.6-14.4,11.5c1.1-0.4,2.2-0.8,3.2-1.2
					c-2,0.6-3.9,1.3-5.9,1.9c1.1-0.3,2.3-0.6,3.4-0.9c1.4-0.3-6.1,0.7-6.7,1.6c-0.4,0.7,0.2,1,0.8,1c1.5,0.2,3.2-0.2,4.6-0.4
					c3.2-0.4,6-1.8,8.7-3.6c4.9-3.3,9-8,11.7-13.3c2.1-4.2,3.3-8.3,3.8-13c0.2-1.6-2.2,0.7-2.2,0.6
					C-26.4,590.8-28.3,592.6-28.5,594.2z"/>
				<path id="XMLID_247_" class="st4" d="M-27,596.4c0,2.2-0.5,4.3-1.3,6.3c-2.1,4.9-5.1,8.9-9.1,12.2c-1.6,1.3-3.3,2.5-5.2,3.5
					c-2.5,1.3-5.1,2.1-7.9,2.3c-0.3,0.1-1,0.3-1,0.7c-0.1,0.7,1.5,0.8,1.8,0.8c1.4,0.1,2.8,0.1,4.3,0.1c1.2,0,2.4,0,3.5-0.5
					c5.1-2,9.4-5.3,13-9.5c5.3-6.2,8.7-14,9.7-22c0.2-1.8-2.8,0.8-2.7,0.8c-1.2,1.1-2.4,2.2-3.5,3.3
					C-26.1,594.9-26.7,595.6-27,596.4z"/>
				<path id="XMLID_246_" class="st4" d="M-26.3,600.3c-0.1,3.1-1,6-2.6,8.7c-0.8,1.5-1.7,2.8-2.9,4c-4.9,5.8-11.4,10-19.6,10.1
					c-0.6,0-1,0.6-0.8,1.2c0.2,0.6,1,0.7,1.6,0.7c3.3-0.1,6-0.6,9.1-1.9c2.9-1.3,5.5-2.9,7.9-5c3.3-2.7,6.1-5.9,8.1-9.7
					c1.7-3.2,2.5-6.1,2.9-9.6c0.1-1-1.1-0.7-1.6-0.5C-24.8,598.6-26.2,599.4-26.3,600.3z"/>
				<path id="XMLID_245_" class="st4" d="M-25.7,597.6c-0.1,3.1-0.9,5.9-2.4,8.5c-1.1,1.9-2.3,3.7-3.8,5.3
					c-4.5,5.1-10.4,8.6-17.5,9.3c-0.7,0.1-1.6,0.4-1.1,1.2c0.4,0.8,2.6,0.6,3.2,0.5c2.3-0.3,4.2-0.7,6.3-1.5
					c3.6-1.3,6.8-3.8,9.6-6.4c3-2.8,5.6-6.1,7.4-9.8c1.6-3.2,2.3-6.2,2.8-9.7c0.2-1.2-1.5-0.4-1.8-0.2
					C-23.8,595.4-25.6,596.4-25.7,597.6z"/>
				<path id="XMLID_244_" class="st4" d="M-32.2,594.4c0.1,2-0.4,3.9-1.3,5.7c-2.7,8.7-9.4,14.2-20.3,16.7c-0.6,0.1-2.4,0.2-2.6,1.1
					c-0.1,0.9,1,0.9,1.6,0.8c4.7-0.4,8.8-2,12.7-4.8c3.4-2.5,6.3-5.5,8.6-9c1.2-1.9,2-3.6,2.8-5.7c0.8-2.2,1-4.2,1.3-6.4
					c0.1-0.6-0.7-1-1.2-0.8C-31.4,592.3-32.2,593.7-32.2,594.4z"/>
				<path id="XMLID_243_" class="st4" d="M-31.2,596.7c-0.7,6.1-3.1,10.7-7.1,15c-4,4.2-8.2,6.7-14,8.5c1.3-0.2,2.6-0.5,3.8-0.7
					c-2.1,0.3-4.3,0.6-6.4,1c-0.3,0.1-1,0.3-1,0.7c-0.1,0.7,1.5,0.7,1.9,0.7c1.4,0.1,2.8,0.1,4.2,0c1.2-0.1,2.4-0.1,3.5-0.5
					c12.2-5.2,19.9-18.3,21.3-31.1c0.2-1.8-2.6,1.2-2.4,1c-1,1.1-1.9,2.3-2.7,3.4C-30.7,595.2-31.1,595.9-31.2,596.7z"/>
				<path id="XMLID_242_" class="st4" d="M-29.1,600.5c-0.1,1.1-0.2,2.2-0.4,3.2c-0.4,2-1.2,3.9-2.3,5.6c-1.5,2.8-3.3,5.3-5.7,7.5
					c-1.6,1.4-3.3,2.8-5.1,3.9c-3.4,2.2-6.9,3.1-10.9,3.4c-0.9,0.1-0.7,1-0.3,1.4c0.8,0.6,3.1,1,4.1,0.8c4.6-0.9,8.5-2.4,12.3-5.2
					c3-2.2,5.6-4.9,7.8-7.9c1.5-2.1,2.6-4.1,3.8-6.3c1.7-3.2,2.5-6.5,3-10.1c0.2-1.5-2,0-2.2,0.1c-1,0.7-1.9,1.4-2.8,2.1
					C-28.5,599.4-28.8,599.9-29.1,600.5z"/>
				<path id="XMLID_241_" class="st4" d="M-27.3,594.8c-0.5,5.4-1.8,9-5.9,13.5c-4.4,4.7-9.6,8.2-16.6,8.9c-0.6,0.1-2,0.1-1.9,1.1
					s1.4,0.7,2.1,0.7c5.1-0.3,10-2.5,14-5.8c2.6-2.1,4.8-4.4,6.7-7.1c1.1-1.5,1.9-3.1,2.7-4.8c1.1-2.4,1.5-4.6,1.7-7.3
					c0.1-0.6-0.5-1-1-1C-26.1,593-27.2,594.2-27.3,594.8z"/>
				<path id="XMLID_240_" class="st4" d="M-30.7,599.2c-0.1,1.1-0.2,2.2-0.4,3.2c-1.2,2.7-2.4,5.3-3.6,8c-1.5,2.2-3.4,4.2-5.4,6
					c-1.6,1.4-3.3,2.6-5.1,3.6c-3,1.7-5.7,2.5-9.3,2.9c-1.2,0.1-1.1,1-0.2,1.4c1,0.3,2.1,0.5,3.2,0.5c1.1,0.1,2.1,0.2,3.2,0.2
					c2.4-0.8,4.4-1.5,6.6-2.8c2-1.2,3.8-2.7,5.6-4.2c6.9-6.1,11.3-15.6,12.4-24.6c0.2-1.7-2.6,0.7-2.5,0.7c-1.1,1-2.1,2-3.1,3.1
					C-30,597.8-30.5,598.4-30.7,599.2z"/>
				<path id="XMLID_239_" class="st4" d="M-29,593.8c-0.1,1.1-0.2,2.1-0.4,3.2c-0.6,2.5-1.6,4.8-3.1,6.8c-1.3,2.1-3,3.9-5.2,5.2
					c-3.4,4.1-7.9,6.3-13.4,6.8c-0.6,0.1-2,0.1-2.3,0.8c-0.3,0.7,0.4,1.2,1,1.1c2.4-0.1,4.7-0.4,7-1.3c3-1.2,5.7-2.8,8.2-4.8
					c2.2-1.8,4.2-3.7,5.8-6c1.3-1.7,2.4-3.7,3.2-5.7c0.9-2.2,1.1-4.4,1.4-6.7c0.1-0.5-0.7-0.9-1.1-0.9
					C-28.4,592.5-29,593.3-29,593.8z"/>
				<path id="XMLID_238_" class="st4" d="M-32.9,595.4c-0.1,5-2,9.5-5.6,13.5c-5.4,5.2-11.4,8.5-18.3,9.9c-0.8,0.4-0.8,1.2,0.1,1.4
					c1,0.3,3,0,4.1-0.2c2.7-0.5,5.5-1.7,7.8-3.1c3-1.8,5.6-4.2,7.9-6.8c1.4-1.6,2.6-3.4,3.7-5.3c2.2-3.7,3.2-7.7,3.6-11.9
					c0.1-0.8-0.5-1.1-1.2-0.8C-31.6,592.5-32.8,594.6-32.9,595.4z"/>
			</g>
		</g>
	</g>
</g>
<g id="fun">
	<path id="XMLID_93_" class="st0" d="M-95.1,518l1.8,14.2c1.5,11.8,0.7,23.8-2.2,35.4l-0.2,0.8c-2.2,8.8-2.8,18-1.7,27l2.3,18.2
		l1.7,13.5c1.5,11.9,1.6,24,0.1,35.9l-1.8,15l-2.9,25.7c-0.7,6.5-0.6,13.1,0.5,19.6l2.4,15.3"/>
	<path id="XMLID_30_" class="st1" d="M-124.4,482.9c-1.3-17.9,11.2-34.6,27.4-34.6c1.1,0,1.9,0,3.5,0c1.7,0,2.7,0.2,3,0.2
		c14.5,1.4,25.4,17.2,24.2,34.4c-1,14.6-8.4,26.5-20.5,32.3c-2.4,1.2-5,1.8-7.6,1.8s-5.3-0.5-7.7-1.6
		C-115.3,509.6-123.3,497.7-124.4,482.9z"/>
	<path id="XMLID_27_" class="st1" d="M-94.9,514.9c0,1.1,1.1,4.1,1.3,4.6c0.1,0.3,0.4,0.8,0.2,1.1c-0.3,0.3-0.6,0.1-0.9-0.1
		c-0.3-0.2-0.5-0.4-0.9-0.4s-0.7,0.1-1.1,0.2c-0.4,0.1-0.8,0-0.9-0.3c-0.1-0.3,0-0.5,0.1-0.8c0.5-1.1,1.1-2.2,1.6-3.2
		c0.1,0,0.3-0.1,0.4-0.1"/>
	<g id="XMLID_83_" class="st2">
		<path d="M-102.7,476.2v1.1h1.7v1.1h-1.7v4.2h-1.3v-6.4c0-0.7,0.2-1.2,0.6-1.6c0.4-0.4,1-0.6,1.6-0.6s1.2,0.2,1.7,0.6l-0.6,1.1
			c-0.3-0.3-0.7-0.5-1.1-0.5C-102.4,475.3-102.7,475.6-102.7,476.2z"/>
		<path d="M-95.1,479.7v-3.5h1.3v6.4h-1.3v-1.2c-0.2,0.4-0.5,0.7-0.9,0.9c-0.4,0.2-0.8,0.3-1.2,0.3c-0.7,0-1.3-0.2-1.7-0.7
			c-0.4-0.4-0.7-1.1-0.7-1.9v-3.9h1.3v3.5c0,1.2,0.5,1.8,1.5,1.8c0.5,0,0.9-0.2,1.2-0.5C-95.3,480.8-95.1,480.3-95.1,479.7z"/>
		<path d="M-90.5,479.2v3.5h-1.3v-6.4h1.3v1.2c0.2-0.4,0.5-0.7,0.9-0.9c0.4-0.2,0.8-0.3,1.2-0.3c0.7,0,1.3,0.2,1.7,0.7
			c0.4,0.4,0.7,1.1,0.7,1.9v3.9h-1.3v-3.5c0-1.2-0.5-1.8-1.5-1.8c-0.5,0-0.9,0.2-1.2,0.5C-90.3,478.2-90.5,478.6-90.5,479.2z"/>
	</g>
	<g id="XMLID_10_" class="st3">
		<g id="XMLID_222_">
			<g id="XMLID_223_">
				<path id="XMLID_235_" class="st4" d="M-95.9,458.2c2.6-0.3,5.1,0,7.5,1c4.2,0.7,7.6,3.1,10.2,7c-0.8-1.1-1.6-2.2-2.4-3.2
					c1.3,1.9,2.6,3.8,4,5.7c-0.7-1.2-1.4-2.3-2.1-3.5c1.1,2,2.2,4,3.3,6.1c-0.6-1.2-1.2-2.5-1.7-3.7c0.9,2.1,1.8,4.2,2.6,6.3
					c-0.4-1.3-0.9-2.6-1.3-3.9c0.8,5.7,1.6,11.4,2.3,17.1c0.3-1.4,0.6-2.8,0.9-4.2c-0.4,1.8-0.9,3.6-1.3,5.4
					c-0.1,0.3-0.1,1.1,0.3,1.3c0.7,0.3,1.3-1.4,1.4-1.7c0.6-1.5,1.1-3,1.6-4.5c0.4-1.1,1-2.7,0.8-3.9c-1.1-6.4-4.1-12.7-8.4-17.5
					c-2.6-3-5.7-5.2-9.2-6.9c-1.2-0.6-2.3-1.1-3.6-1.5c-3.8-1.3-7.7-1.6-11.8-1.7c-1.8-0.1,1.2,2.6,1.1,2.5c1.2,1,2.4,1.9,3.6,2.8
					C-97.5,457.6-96.8,458-95.9,458.2z"/>
				<path id="XMLID_234_" class="st4" d="M-94.6,455.1c3.2-0.4,6.2,0.2,8.9,1.9c10.9,2.9,15.2,12,12.9,27.3c0.2-0.9,0.4-1.8,0.6-2.7
					c-0.3,0.9-0.5,1.9-0.8,2.8c-0.2,0.7-0.5,2.8,0.8,1.9c0.6-0.4,0.8-1.4,1.1-2c0.4-1.1,1-2.3,1.1-3.5c0.5-6.6-1.7-13.8-5.3-19.3
					c-2.5-3.8-5.8-6.8-9.9-8.9c-1.5-0.8-2.3-1.1-4-1.7c-3.3-1.1-6.4-1.4-9.9-1.5c-1.5-0.1,0.2,2.1,0.4,2.2c0.8,0.9,1.6,1.8,2.5,2.6
					C-95.8,454.6-95.3,455-94.6,455.1z"/>
				<path id="XMLID_233_" class="st4" d="M-94,457.5c1.5,0,2.9,0.1,4.4,0.1c2.3,0.1,4.5,0.8,6.4,2.1c1.5,0.5,2.7,1.2,3.8,2.3
					c4.1,3.3,6.6,7.7,7.5,13.4c0.8,4,1.2,7.9,0,11.9c-0.1,0.3-0.2,1.1,0.2,1.3c0.6,0.4,1.3-1.2,1.5-1.5c0.7-1.3,1.3-2.7,1.9-4.1
					c0.4-1,1.2-2.4,1.1-3.6c-0.7-6.8-3.7-13.4-8.1-18.6c-3-3.5-6.7-6.2-10.9-8.1c-2.2-1.1-4.6-1.9-7.1-2.4c-2.7-0.7-5.4-0.9-8.2-0.8
					c-1.9-0.1,1.3,2.9,1.2,2.8c1.3,1.3,2.6,2.5,4,3.7C-95.7,456.6-94.9,457.2-94,457.5z"/>
				<path id="XMLID_232_" class="st4" d="M-91.1,460.8c3.8-0.3,7.3,0.4,10.8,2.1c6.8,5.3,10.5,11.8,11,19.3c0.3,3.4,0.1,6.4-1.1,9.5
					c-0.3,0.8,0.7,1.1,1.2,0.8c0.9-0.4,2-2.4,2.2-3.4c1.7-7.8-0.7-17-5.6-23.2c-2.9-3.6-6.6-6.7-11-8.4c-1.3-0.5-2.6-0.9-3.9-1.2
					c-2.9-0.7-5.4-0.9-8.5-1c-1.6-0.1,0.5,2.1,0.6,2.2c0.9,0.8,1.8,1.6,2.7,2.3C-92.4,460.4-91.8,460.7-91.1,460.8z"/>
				<path id="XMLID_231_" class="st4" d="M-91.2,458c2.8-0.2,5.5,0.1,8.2,0.9c3,1,5.5,2.6,7.6,4.8c2,2.2,3.5,4.7,4.6,7.5
					c2.1,5.4,3,12,0.9,17.5c-0.4,1,0.7,1.1,1.2,0.7c0.5-0.6,1-1.2,1.4-1.9s0.8-1.4,1.1-2.1c1.4-8.7-1.7-18-7.4-24.6
					c-2-2.3-4.4-4.1-7-5.7c-1.2-0.8-2.6-1.4-4-2c-3.8-1.6-7.8-2-11.9-2.2c-1.7-0.1,0.4,2.4,0.6,2.5c0.9,1.1,1.9,2.1,2.9,3.2
					C-92.6,457.3-92,457.8-91.2,458z"/>
				<path id="XMLID_230_" class="st4" d="M-94.9,456.9c3.5-0.6,6.9-0.1,10.2,1.5c8.6,8.6,11.4,17.5,8.4,27c-0.2,0.6-0.6,1.5-0.1,2
					s1.1,0.2,1.4-0.3c1.8-3.6,1.8-8,1.4-11.9c-0.2-2.5-0.8-4.9-1.6-7.2c-1.2-3.5-3.1-6.7-5.8-9.2c-1.7-1.5-4.1-3-6.3-3.7
					c-2.6-0.8-4.9-0.4-7.5-0.1C-96,455.1-96.2,456.9-94.9,456.9z"/>
				<path id="XMLID_229_" class="st4" d="M-97.1,457.9c6.1-0.3,11.3,1.7,15.8,6c-0.6-0.6-1.2-1.2-1.8-1.8c6.2,8.4,8.6,17,7,25.9
					c-0.1,0.5,0.1,0.8,0.5,1c0.9,0.2,1.2-1.5,1.4-2c2-5.8,0.6-11.8-1.6-17.2c-1.4-3.5-3.5-6.8-6.2-9.3c-2.1-2-4.4-3.5-7.1-4.6
					c-4-1.6-7.9-1.9-12.2-2.1c-0.3,0.1-0.5,0.3-0.5,0.7c0.1,0.5,0.4,0.9,0.9,1.2C-99.9,456.6-98.5,457.9-97.1,457.9z"/>
				<path id="XMLID_228_" class="st4" d="M-94.4,461.6c5-0.3,9.5,1,13.5,3.9c-0.8-0.6-1.5-1.1-2.3-1.7c3.3,9,6.7,17.9,10,26.9
					c0.3-1,0.5-2,0.8-2.9c-0.3,1-0.6,1.9-0.9,2.9c-0.2,0.6-0.8,3,0.7,2c0.6-0.4,1-1.5,1.3-2.1c0.5-1,1.4-2.5,1.5-3.7
					c0.1-3.1-0.5-6.1-1.4-9.1c-1.3-4.3-3.5-8.6-6.6-11.9c-1.9-2.1-4-3.8-6.5-5.2c-2-1.1-4.2-1.9-6.4-2.4c-3.3-0.8-5.2-0.7-8.6-0.8
					c-0.4,0.1-0.5,0.4-0.4,0.7c0.2,0.6,0.6,1,1.2,1.2C-97.6,460.3-95.9,461.6-94.4,461.6z"/>
				<path id="XMLID_227_" class="st4" d="M-91.4,455.2c1.4,0,2.9,0.1,4.3,0.1c3,0.3,5.6,1.2,7.9,2.9c4.5,3,7.3,7.5,8.5,13.2
					c1.1,4.9,1.3,10.2-0.6,15c-0.2,0.6,0.1,1.3,0.8,1.3c0.8,0,1.2-1.2,1.4-1.8c2.1-5.8,1.3-12.5-0.6-18.2c-1.5-4.5-4.1-8.4-7.7-11.5
					c-2.4-2.1-5.2-3.5-8.2-4.5c-2.9-1-5.5-1.1-8.6-1.3c-1.2-0.1-0.4,1.5-0.2,1.9C-93.7,453-92.5,455.1-91.4,455.2z"/>
				<path id="XMLID_226_" class="st4" d="M-96.2,460.5c5-0.3,9.4,0.9,13.4,3.9c-0.7-0.5-1.5-1.1-2.2-1.6c3.5,8.3,6.9,16.7,10.4,25
					c0.1-1.1,0.2-2.3,0.3-3.4c-0.3,2.1-0.7,4.1-1.1,6.1c-0.1,0.5,0,0.8,0.4,1.1c1.2,0.4,2-3.6,2.2-4c0.8-2.4,1-3.8,0.6-6.4
					c-0.5-3-1.5-6.1-2.8-8.9c-1.6-3.5-3.6-6.4-6.3-9.1c-2.2-2.2-4.8-3.8-7.7-4.9c-3.9-1.5-7.8-1.7-11.9-1.8
					c-0.3,0.1-0.5,0.4-0.4,0.7c0.2,0.5,0.6,0.9,1.1,1.2C-99.2,459.3-97.7,460.5-96.2,460.5z"/>
				<path id="XMLID_225_" class="st4" d="M-92.2,454.9c2.7,0.1,5.4,0,8,0.8c1.1,0.5,2.2,1,3.3,1.5c4.5,2.4,6.8,6.2,7,11.5
					c1.8,2.8,2.6,5.7,2.5,8.8c0,0.8,0,1.5-0.1,2.3c-0.2,2-0.6,3.8-1.5,5.7c-0.3,0.6-0.1,1,0.5,1.3c0.7,0.3,0.9,0,1.2-0.6
					c1.3-2.7,1.7-5.6,1.7-8.5c0-3.2-0.3-6.5-1.2-9.6c-0.9-3.2-2.5-6.1-4.5-8.8c-1.6-2-3.4-3.5-5.7-4.7c-1.2-0.5-2.4-1-3.5-1.6
					c-2.6-0.7-5.2-1-7.9-0.8c-0.5,0-1.1,0.3-1.1,0.9C-93.6,453.6-92.7,454.9-92.2,454.9z"/>
				<path id="XMLID_224_" class="st4" d="M-96.1,458.3c2.5-0.5,4.9-0.2,7.1,0.8c5.7,1,9.5,5,11.1,11.8c1.4,4.6,2.4,10.2,0.7,14.9
					c-0.2,0.6-0.7,1.9-0.3,2.5c0.2,0.3,1,0.7,1.3,0.1c1.2-2.3,1.5-4.7,1.6-7.3c0.2-4.8-0.8-9.9-2.9-14.3c-1.2-2.6-2.9-4.9-5.1-6.8
					c-1.7-1.5-3.9-2.7-6.1-3.5c-2.5-0.9-5.2-0.5-7.7-0.4C-97.5,456.3-97.3,458.3-96.1,458.3z"/>
			</g>
		</g>
	</g>
	<g id="XMLID_9_" class="st3">
		<g id="XMLID_207_">
			<g id="XMLID_208_">
				<path id="XMLID_220_" class="st4" d="M-76.8,489.9c0,2.2-0.4,4.3-1.2,6.3c-2.1,4.8-5.1,8.8-9.1,12c-1.6,1.3-3.3,2.5-5.2,3.4
					c-2.5,1.3-5.1,2.1-7.9,2.3c-0.4,0-1.1,0.2-1.2,0.7c-0.1,0.7,1.7,0.8,2,0.8c1.6,0.2,3.1,0.2,4.7,0.2c1.2,0,2.8,0.2,3.9-0.4
					c6.2-2.9,11.4-7.4,15.1-13.2c3.7-5.9,6.3-12.4,7.1-19.4c0.2-1.9-3,1.2-2.9,1.1c-1.3,1.2-2.5,2.5-3.8,3.8
					C-75.8,488.2-76.4,489-76.8,489.9z"/>
				<path id="XMLID_219_" class="st4" d="M-76.1,486.8c-0.4,4.3-1.6,7.7-4,11.2c-3.7,5.3-8.1,8.6-14.4,11.5c1.1-0.4,2.2-0.8,3.2-1.2
					c-2,0.6-3.9,1.3-5.9,1.9c1.1-0.3,2.3-0.6,3.4-0.9c1.4-0.3-6.1,0.7-6.7,1.6c-0.4,0.7,0.2,1,0.8,1c1.5,0.2,3.2-0.2,4.6-0.4
					c3.2-0.4,6-1.8,8.7-3.6c4.9-3.3,9-8,11.7-13.3c2.1-4.2,3.3-8.3,3.8-13c0.2-1.6-2.2,0.7-2.2,0.6C-74,483.4-75.9,485.2-76.1,486.8
					z"/>
				<path id="XMLID_218_" class="st4" d="M-74.6,489.1c0,2.2-0.5,4.3-1.3,6.3c-2.1,4.9-5.1,8.9-9.1,12.2c-1.6,1.3-3.3,2.5-5.2,3.5
					c-2.5,1.3-5.1,2.1-7.9,2.3c-0.3,0.1-1,0.3-1,0.7c-0.1,0.7,1.5,0.8,1.8,0.8c1.4,0.1,2.8,0.1,4.3,0.1c1.2,0,2.4,0,3.5-0.5
					c5.1-2,9.4-5.3,13-9.5c5.3-6.2,8.7-14,9.7-22c0.2-1.8-2.8,0.8-2.7,0.8c-1.2,1.1-2.4,2.2-3.5,3.3
					C-73.7,487.6-74.3,488.3-74.6,489.1z"/>
				<path id="XMLID_217_" class="st4" d="M-73.9,493c-0.1,3.1-1,6-2.6,8.7c-0.8,1.5-1.7,2.8-2.9,4c-4.9,5.8-11.4,10-19.6,10.1
					c-0.6,0-1,0.6-0.8,1.2s1,0.7,1.6,0.7c3.3-0.1,6-0.6,9.1-1.9c2.9-1.3,5.5-2.9,7.9-5c3.3-2.7,6.1-5.9,8.1-9.7
					c1.7-3.2,2.5-6.1,2.9-9.6c0.1-1-1.1-0.7-1.6-0.5C-72.4,491.3-73.8,492-73.9,493z"/>
				<path id="XMLID_216_" class="st4" d="M-73.3,490.2c-0.1,3.1-0.9,5.9-2.4,8.5c-1.1,1.9-2.3,3.7-3.8,5.3
					c-4.5,5.1-10.4,8.6-17.5,9.3c-0.7,0.1-1.6,0.4-1.1,1.2c0.4,0.8,2.6,0.6,3.2,0.5c2.3-0.3,4.2-0.7,6.3-1.5
					c3.6-1.3,6.8-3.8,9.6-6.4c3-2.8,5.6-6.1,7.4-9.8c1.6-3.2,2.3-6.2,2.8-9.7c0.2-1.2-1.5-0.4-1.8-0.2
					C-71.4,488-73.2,489.1-73.3,490.2z"/>
				<path id="XMLID_215_" class="st4" d="M-79.9,487.1c0.1,2-0.4,3.9-1.3,5.7c-2.7,8.7-9.4,14.2-20.3,16.7c-0.6,0.1-2.4,0.2-2.6,1.1
					c-0.1,0.9,1,0.9,1.6,0.8c4.7-0.4,8.8-2,12.7-4.8c3.4-2.5,6.3-5.5,8.6-9c1.2-1.9,2-3.6,2.8-5.7c0.8-2.2,1-4.2,1.3-6.4
					c0.1-0.6-0.7-1-1.2-0.8C-79,485-79.8,486.4-79.9,487.1z"/>
				<path id="XMLID_214_" class="st4" d="M-78.8,489.4c-0.7,6.1-3.1,10.7-7.1,15c-4,4.2-8.2,6.7-14,8.5c1.3-0.2,2.6-0.5,3.8-0.7
					c-2.1,0.3-4.3,0.6-6.4,1c-0.3,0.1-1,0.3-1,0.7c-0.1,0.7,1.5,0.7,1.9,0.7c1.4,0.1,2.8,0.1,4.2,0c1.2-0.1,2.4-0.1,3.5-0.5
					c12.2-5.2,19.9-18.3,21.3-31.1c0.2-1.8-2.6,1.2-2.4,1c-1,1.1-1.9,2.3-2.7,3.4C-78.3,487.9-78.7,488.6-78.8,489.4z"/>
				<path id="XMLID_213_" class="st4" d="M-76.7,493.2c-0.1,1.1-0.2,2.2-0.4,3.2c-0.4,2-1.2,3.9-2.3,5.6c-1.5,2.8-3.3,5.3-5.7,7.5
					c-1.6,1.4-3.3,2.8-5.1,3.9c-3.4,2.2-6.9,3.1-10.9,3.4c-0.9,0.1-0.7,1-0.3,1.4c0.8,0.6,3.1,1,4.1,0.8c4.6-0.9,8.5-2.4,12.3-5.2
					c3-2.2,5.6-4.9,7.8-7.9c1.5-2.1,2.6-4.1,3.8-6.3c1.7-3.2,2.5-6.5,3-10.1c0.2-1.5-2,0-2.2,0.1c-1,0.7-1.9,1.4-2.8,2.1
					C-76.1,492.1-76.4,492.5-76.7,493.2z"/>
				<path id="XMLID_212_" class="st4" d="M-74.9,487.4c-0.5,5.4-1.8,9-5.9,13.5c-4.4,4.7-9.6,8.2-16.6,8.9c-0.6,0.1-2,0.1-1.9,1.1
					s1.4,0.7,2.1,0.7c5.1-0.3,10-2.5,14-5.8c2.6-2.1,4.8-4.4,6.7-7.1c1.1-1.5,1.9-3.1,2.7-4.8c1.1-2.4,1.5-4.6,1.7-7.3
					c0.1-0.6-0.5-1-1-1C-73.7,485.7-74.9,486.9-74.9,487.4z"/>
				<path id="XMLID_211_" class="st4" d="M-78.3,491.9c-0.1,1.1-0.2,2.2-0.4,3.2c-1.2,2.7-2.4,5.3-3.6,8c-1.5,2.2-3.4,4.2-5.4,6
					c-1.6,1.4-3.3,2.6-5.1,3.6c-3,1.7-5.7,2.5-9.3,2.9c-1.2,0.1-1.1,1-0.2,1.4c1,0.3,2.1,0.5,3.2,0.5c1.1,0.1,2.1,0.2,3.2,0.2
					c2.4-0.8,4.4-1.5,6.6-2.8c2-1.2,3.8-2.7,5.6-4.2c6.9-6.1,11.3-15.6,12.4-24.6c0.2-1.7-2.6,0.7-2.5,0.7c-1.1,1-2.1,2-3.1,3.1
					C-77.6,490.5-78.1,491.1-78.3,491.9z"/>
				<path id="XMLID_210_" class="st4" d="M-76.6,486.5c-0.1,1.1-0.2,2.1-0.4,3.2c-0.6,2.5-1.6,4.8-3.1,6.8c-1.3,2.1-3,3.9-5.2,5.2
					c-3.4,4.1-7.9,6.3-13.4,6.8c-0.6,0.1-2,0.1-2.3,0.8c-0.3,0.7,0.4,1.2,1,1.1c2.4-0.1,4.7-0.4,7-1.3c3-1.2,5.7-2.8,8.2-4.8
					c2.2-1.8,4.2-3.7,5.8-6c1.3-1.7,2.4-3.7,3.2-5.7c0.9-2.2,1.1-4.4,1.4-6.7c0.1-0.5-0.7-0.9-1.1-0.9
					C-76,485.1-76.6,486-76.6,486.5z"/>
				<path id="XMLID_209_" class="st4" d="M-80.5,488.1c-0.1,5-2,9.5-5.6,13.5c-5.4,5.2-11.4,8.5-18.3,9.9c-0.8,0.4-0.8,1.2,0.1,1.4
					c1,0.3,3,0,4.1-0.2c2.7-0.5,5.5-1.7,7.8-3.1c3-1.8,5.6-4.2,7.9-6.8c1.4-1.6,2.6-3.4,3.7-5.3c2.2-3.7,3.2-7.7,3.6-11.9
					c0.1-0.8-0.5-1.1-1.2-0.8C-79.2,485.2-80.4,487.2-80.5,488.1z"/>
			</g>
		</g>
	</g>
</g>
<g id="happy">
	<path id="XMLID_21_" class="st1" d="M-132.4,510.4c1.3-17.9-11.2-34.6-27.4-34.6c-1.1,0-1.9,0-3.5,0c-1.7,0-2.7,0.2-3,0.2
		c-14.5,1.4-25.4,17.2-24.2,34.4c1,14.6,8.4,26.5,20.5,32.3c2.4,1.2,5,1.8,7.6,1.8c2.6,0,5.3-0.5,7.7-1.6
		C-141.6,537.1-133.5,525.2-132.4,510.4z"/>
	<path id="XMLID_18_" class="st1" d="M-161.9,542.4c0,1.1-1.1,4.1-1.3,4.6c-0.1,0.3-0.4,0.8-0.2,1.1c0.3,0.3,0.6,0.1,0.9-0.1
		s0.5-0.4,0.9-0.4c0.4,0,0.7,0.1,1.1,0.2c0.4,0.1,0.8,0,0.9-0.3c0.1-0.3,0-0.5-0.1-0.8c-0.5-1.1-1.1-2.2-1.6-3.2
		c-0.1,0-0.3-0.1-0.4-0.1"/>
	<path id="XMLID_94_" class="st0" d="M-161.7,547.2l-1.8,13.9c-1.5,11.6-0.7,23.4,2.2,34.8l0.2,0.8c2.2,8.7,2.8,17.7,1.7,26.5
		l-2.3,17.9l-1.7,13.2c-1.6,11.8-1.6,23.7-0.2,35.5l1.8,14.7l2.9,25.3c0.7,6.4,0.6,12.9-0.5,19.3l-2.4,15"/>
	<rect id="XMLID_2_" x="-181.3" y="499.8" class="st5" width="47" height="18"/>
	<g id="XMLID_78_" class="st2">
		<path d="M-179,505.2v3.5h-1.3v-8.9h1.3v3.7c0.2-0.4,0.5-0.7,0.9-0.9c0.4-0.2,0.8-0.3,1.3-0.3c0.7,0,1.3,0.2,1.7,0.7
			c0.4,0.4,0.7,1.1,0.7,1.9v3.9h-1.3v-3.5c0-1.2-0.5-1.8-1.5-1.8c-0.5,0-0.9,0.2-1.2,0.5C-178.8,504.2-179,504.6-179,505.2z"/>
		<path d="M-172.1,507.9c-0.6-0.6-0.9-1.4-0.9-2.4s0.3-1.8,0.9-2.4c0.6-0.6,1.3-0.9,2.2-0.9c0.8,0,1.5,0.4,2.1,1.2v-1.1h1.3v6.4
			h-1.3v-1c-0.3,0.4-0.6,0.7-1,0.8c-0.4,0.2-0.8,0.3-1.2,0.3C-170.8,508.8-171.5,508.5-172.1,507.9z M-171.7,505.5
			c0,0.6,0.2,1.1,0.6,1.5c0.4,0.4,0.9,0.6,1.4,0.6s1-0.2,1.3-0.6c0.4-0.4,0.6-0.9,0.6-1.5c0-0.6-0.2-1.1-0.6-1.5
			c-0.4-0.4-0.8-0.6-1.4-0.6c-0.5,0-1,0.2-1.4,0.6C-171.5,504.4-171.7,504.9-171.7,505.5z"/>
		<path d="M-161.1,502.2c0.9,0,1.6,0.3,2.2,0.9s0.9,1.4,0.9,2.4c0,1-0.3,1.8-0.9,2.4c-0.6,0.6-1.3,0.9-2.1,0.9
			c-0.8,0-1.5-0.4-2.2-1.1v3.3h-1.3v-8.7h1.3v1.1C-162.7,502.6-162,502.2-161.1,502.2z M-163.2,505.5c0,0.6,0.2,1.1,0.6,1.5
			c0.4,0.4,0.8,0.6,1.3,0.6s1-0.2,1.4-0.6c0.4-0.4,0.6-0.9,0.6-1.5s-0.2-1.1-0.6-1.5c-0.4-0.4-0.8-0.6-1.4-0.6c-0.5,0-1,0.2-1.4,0.6
			C-163,504.4-163.2,504.9-163.2,505.5z"/>
		<path d="M-153.1,502.2c0.9,0,1.6,0.3,2.2,0.9s0.9,1.4,0.9,2.4c0,1-0.3,1.8-0.9,2.4c-0.6,0.6-1.3,0.9-2.1,0.9
			c-0.8,0-1.5-0.4-2.2-1.1v3.3h-1.3v-8.7h1.3v1.1C-154.6,502.6-153.9,502.2-153.1,502.2z M-155.2,505.5c0,0.6,0.2,1.1,0.6,1.5
			c0.4,0.4,0.8,0.6,1.3,0.6s1-0.2,1.4-0.6c0.4-0.4,0.6-0.9,0.6-1.5s-0.2-1.1-0.6-1.5c-0.4-0.4-0.8-0.6-1.4-0.6c-0.5,0-1,0.2-1.4,0.6
			C-155,504.4-155.2,504.9-155.2,505.5z"/>
		<path d="M-145.8,510c1.2,0,1.8-0.8,1.8-2.3v-0.4c-0.5,0.6-1.2,0.8-2.1,0.8c-1.7,0-2.5-0.9-2.5-2.7v-3.1h1.3v2.5
			c0,0.7,0.1,1.3,0.3,1.6s0.6,0.5,1.2,0.5c0.6,0,1-0.1,1.2-0.4s0.4-0.7,0.5-1.3v-2.9h1.3v5.5c0,1.1-0.3,2-0.9,2.6
			c-0.6,0.6-1.3,0.9-2.2,0.9c-0.7,0-1.3-0.2-1.9-0.5c-0.5-0.3-0.9-0.8-1.2-1.4l1.2-0.5C-147.3,509.6-146.7,510-145.8,510z"/>
	</g>
	<g id="XMLID_14_" class="st3">
		<g id="XMLID_192_">
			<g id="XMLID_193_">
				<path id="XMLID_205_" class="st4" d="M-162.4,485.6c2.6-0.3,5.1,0,7.5,1c4.2,0.7,7.6,3.1,10.2,7c-0.8-1.1-1.6-2.2-2.4-3.2
					c1.3,1.9,2.6,3.8,4,5.7c-0.7-1.2-1.4-2.3-2.1-3.5c1.1,2,2.2,4,3.3,6.1c-0.6-1.2-1.2-2.5-1.7-3.7c0.9,2.1,1.8,4.2,2.6,6.3
					c-0.4-1.3-0.9-2.6-1.3-3.9c0.8,5.7,1.6,11.4,2.3,17.1c0.3-1.4,0.6-2.8,0.9-4.2c-0.4,1.8-0.9,3.6-1.3,5.4
					c-0.1,0.3-0.1,1.1,0.3,1.3c0.7,0.3,1.3-1.4,1.4-1.7c0.6-1.5,1.1-3,1.6-4.5c0.4-1.1,1-2.7,0.8-3.9c-1.1-6.4-4.1-12.7-8.4-17.5
					c-2.6-3-5.7-5.2-9.2-6.9c-1.2-0.6-2.3-1.1-3.6-1.5c-3.8-1.3-7.7-1.6-11.8-1.7c-1.8-0.1,1.2,2.6,1.1,2.5c1.2,1,2.4,1.9,3.6,2.8
					C-163.9,485.1-163.2,485.4-162.4,485.6z"/>
				<path id="XMLID_204_" class="st4" d="M-161.1,482.6c3.2-0.4,6.2,0.2,8.9,1.9c10.9,2.9,15.2,12,12.9,27.3
					c0.2-0.9,0.4-1.8,0.6-2.7c-0.3,0.9-0.5,1.9-0.8,2.8c-0.2,0.7-0.5,2.8,0.8,1.9c0.6-0.4,0.8-1.4,1.1-2c0.4-1.1,1-2.3,1.1-3.5
					c0.5-6.6-1.7-13.8-5.3-19.3c-2.5-3.8-5.8-6.8-9.9-8.9c-1.5-0.8-2.3-1.1-4-1.7c-3.3-1.1-6.4-1.4-9.9-1.5
					c-1.5-0.1,0.2,2.1,0.4,2.2c0.8,0.9,1.6,1.8,2.5,2.6C-162.3,482.1-161.7,482.4-161.1,482.6z"/>
				<path id="XMLID_203_" class="st4" d="M-160.5,484.9c1.5,0,2.9,0.1,4.4,0.1c2.3,0.1,4.5,0.8,6.4,2.1c1.5,0.5,2.7,1.2,3.8,2.3
					c4.1,3.3,6.6,7.7,7.5,13.4c0.8,4,1.2,7.9,0,11.9c-0.1,0.3-0.2,1.1,0.2,1.3c0.6,0.4,1.3-1.2,1.5-1.5c0.7-1.3,1.3-2.7,1.9-4.1
					c0.4-1,1.2-2.4,1.1-3.6c-0.7-6.8-3.7-13.4-8.1-18.6c-3-3.5-6.7-6.2-10.9-8.1c-2.2-1.1-4.6-1.9-7.1-2.4c-2.7-0.7-5.4-0.9-8.2-0.8
					c-1.9-0.1,1.3,2.9,1.2,2.8c1.3,1.3,2.6,2.5,4,3.7C-162.2,484.1-161.4,484.6-160.5,484.9z"/>
				<path id="XMLID_202_" class="st4" d="M-157.6,488.2c3.8-0.3,7.3,0.4,10.8,2.1c6.8,5.3,10.5,11.8,11,19.3
					c0.3,3.4,0.1,6.4-1.1,9.5c-0.3,0.8,0.7,1.1,1.2,0.8c0.9-0.4,2-2.4,2.2-3.4c1.7-7.8-0.7-17-5.6-23.2c-2.9-3.6-6.6-6.7-11-8.4
					c-1.3-0.5-2.6-0.9-3.9-1.2c-2.9-0.7-5.4-0.9-8.5-1c-1.6-0.1,0.5,2.1,0.6,2.2c0.9,0.8,1.8,1.6,2.7,2.3
					C-158.8,487.8-158.3,488.1-157.6,488.2z"/>
				<path id="XMLID_201_" class="st4" d="M-157.7,485.5c2.8-0.2,5.5,0.1,8.2,0.9c3,1,5.5,2.6,7.6,4.8c2,2.2,3.5,4.7,4.6,7.5
					c2.1,5.4,3,12,0.9,17.5c-0.4,1,0.7,1.1,1.2,0.7c0.5-0.6,1-1.2,1.4-1.9s0.8-1.4,1.1-2.1c1.4-8.7-1.7-18-7.4-24.6
					c-2-2.3-4.4-4.1-7-5.7c-1.2-0.8-2.6-1.4-4-2c-3.8-1.6-7.8-2-11.9-2.2c-1.7-0.1,0.4,2.4,0.6,2.5c0.9,1.1,1.9,2.1,2.9,3.2
					C-159,484.8-158.4,485.2-157.7,485.5z"/>
				<path id="XMLID_200_" class="st4" d="M-161.4,484.3c3.5-0.6,6.9-0.1,10.2,1.5c8.6,8.6,11.4,17.5,8.4,27c-0.2,0.6-0.6,1.5-0.1,2
					s1.1,0.2,1.4-0.3c1.8-3.6,1.8-8,1.4-11.9c-0.2-2.5-0.8-4.9-1.6-7.2c-1.2-3.5-3.1-6.7-5.8-9.2c-1.7-1.5-4.1-3-6.3-3.7
					c-2.6-0.8-4.9-0.4-7.5-0.1C-162.4,482.5-162.6,484.4-161.4,484.3z"/>
				<path id="XMLID_199_" class="st4" d="M-163.6,485.4c6.1-0.3,11.3,1.7,15.8,6c-0.6-0.6-1.2-1.2-1.8-1.8c6.2,8.4,8.6,17,7,25.9
					c-0.1,0.5,0.1,0.8,0.5,1c0.9,0.2,1.2-1.5,1.4-2c2-5.8,0.6-11.8-1.6-17.2c-1.4-3.5-3.5-6.8-6.2-9.3c-2.1-2-4.4-3.5-7.1-4.6
					c-4-1.6-7.9-1.9-12.2-2.1c-0.3,0.1-0.5,0.3-0.5,0.7c0.1,0.5,0.4,0.9,0.9,1.2C-166.4,484-164.9,485.3-163.6,485.4z"/>
				<path id="XMLID_198_" class="st4" d="M-160.9,489.1c5-0.3,9.5,1,13.5,3.9c-0.8-0.6-1.5-1.1-2.3-1.7c3.3,9,6.7,17.9,10,26.9
					c0.3-1,0.5-2,0.8-2.9c-0.3,1-0.6,1.9-0.9,2.9c-0.2,0.6-0.8,3,0.7,2c0.6-0.4,1-1.5,1.3-2.1c0.5-1,1.4-2.5,1.5-3.7
					c0.1-3.1-0.5-6.1-1.4-9.1c-1.3-4.3-3.5-8.6-6.6-11.9c-1.9-2.1-4-3.8-6.5-5.2c-2-1.1-4.2-1.9-6.4-2.4c-3.3-0.8-5.2-0.7-8.6-0.8
					c-0.4,0.1-0.5,0.4-0.4,0.7c0.2,0.6,0.6,1,1.2,1.2C-164,487.8-162.4,489-160.9,489.1z"/>
				<path id="XMLID_197_" class="st4" d="M-157.9,482.6c1.4,0,2.9,0.1,4.3,0.1c3,0.3,5.6,1.2,7.9,2.9c4.5,3,7.3,7.5,8.5,13.2
					c1.1,4.9,1.3,10.2-0.6,15c-0.2,0.6,0.1,1.3,0.8,1.3c0.8,0,1.2-1.2,1.4-1.8c2.1-5.8,1.3-12.5-0.6-18.2c-1.5-4.5-4.1-8.4-7.7-11.5
					c-2.4-2.1-5.2-3.5-8.2-4.5c-2.9-1-5.5-1.1-8.6-1.3c-1.2-0.1-0.4,1.5-0.2,1.9C-160.2,480.5-159,482.6-157.9,482.6z"/>
				<path id="XMLID_196_" class="st4" d="M-162.7,488c5-0.3,9.4,0.9,13.4,3.9c-0.7-0.5-1.5-1.1-2.2-1.6c3.5,8.3,6.9,16.7,10.4,25
					c0.1-1.1,0.2-2.3,0.3-3.4c-0.3,2.1-0.7,4.1-1.1,6.1c-0.1,0.5,0,0.8,0.4,1.1c1.2,0.4,2-3.6,2.2-4c0.8-2.4,1-3.8,0.6-6.4
					c-0.5-3-1.5-6.1-2.8-8.9c-1.6-3.5-3.6-6.4-6.3-9.1c-2.2-2.2-4.8-3.8-7.7-4.9c-3.9-1.5-7.8-1.7-11.9-1.8
					c-0.3,0.1-0.5,0.4-0.4,0.7c0.2,0.5,0.6,0.9,1.1,1.2C-165.7,486.8-164.2,487.9-162.7,488z"/>
				<path id="XMLID_195_" class="st4" d="M-158.7,482.4c2.7,0.1,5.4,0,8,0.8c1.1,0.5,2.2,1,3.3,1.5c4.5,2.4,6.8,6.2,7,11.5
					c1.8,2.8,2.6,5.7,2.5,8.8c0,0.8,0,1.5-0.1,2.3c-0.2,2-0.6,3.8-1.5,5.7c-0.3,0.6-0.1,1,0.5,1.3c0.7,0.3,0.9,0,1.2-0.6
					c1.3-2.7,1.7-5.6,1.7-8.5c0-3.2-0.3-6.5-1.2-9.6c-0.9-3.2-2.5-6.1-4.5-8.8c-1.6-2-3.4-3.5-5.7-4.7c-1.2-0.5-2.4-1-3.5-1.6
					c-2.6-0.7-5.2-1-7.9-0.8c-0.5,0-1.1,0.3-1.1,0.9C-160.1,481.1-159.2,482.4-158.7,482.4z"/>
				<path id="XMLID_194_" class="st4" d="M-162.6,485.7c2.5-0.5,4.9-0.2,7.1,0.8c5.7,1,9.5,5,11.1,11.8c1.4,4.6,2.4,10.2,0.7,14.9
					c-0.2,0.6-0.7,1.9-0.3,2.5c0.2,0.3,1,0.7,1.3,0.1c1.2-2.3,1.5-4.7,1.6-7.3c0.2-4.8-0.8-9.9-2.9-14.3c-1.2-2.6-2.9-4.9-5.1-6.8
					c-1.7-1.5-3.9-2.7-6.1-3.5c-2.5-0.9-5.2-0.5-7.7-0.4C-164,483.8-163.8,485.7-162.6,485.7z"/>
			</g>
		</g>
	</g>
	<g id="XMLID_13_" class="st3">
		<g id="XMLID_177_">
			<g id="XMLID_178_">
				<path id="XMLID_190_" class="st4" d="M-143.2,517.3c0,2.2-0.4,4.3-1.2,6.3c-2.1,4.8-5.1,8.8-9.1,12c-1.6,1.3-3.3,2.5-5.2,3.4
					c-2.5,1.3-5.1,2.1-7.9,2.3c-0.4,0-1.1,0.2-1.2,0.7c-0.1,0.7,1.7,0.8,2,0.8c1.6,0.2,3.1,0.2,4.7,0.2c1.2,0,2.8,0.2,3.9-0.4
					c6.2-2.9,11.4-7.4,15.1-13.2c3.7-5.9,6.3-12.4,7.1-19.4c0.2-1.9-3,1.2-2.9,1.1c-1.3,1.2-2.5,2.5-3.8,3.8
					C-142.3,515.7-142.9,516.4-143.2,517.3z"/>
				<path id="XMLID_189_" class="st4" d="M-142.6,514.3c-0.4,4.3-1.6,7.7-4,11.2c-3.7,5.3-8.1,8.6-14.4,11.5
					c1.1-0.4,2.2-0.8,3.2-1.2c-2,0.6-3.9,1.3-5.9,1.9c1.1-0.3,2.3-0.6,3.4-0.9c1.4-0.3-6.1,0.7-6.7,1.6c-0.4,0.7,0.2,1,0.8,1
					c1.5,0.2,3.2-0.2,4.6-0.4c3.2-0.4,6-1.8,8.7-3.6c4.9-3.3,9-8,11.7-13.3c2.1-4.2,3.3-8.3,3.8-13c0.2-1.6-2.2,0.7-2.2,0.6
					C-140.4,510.9-142.4,512.7-142.6,514.3z"/>
				<path id="XMLID_188_" class="st4" d="M-141.1,516.5c0,2.2-0.5,4.3-1.3,6.3c-2.1,4.9-5.1,8.9-9.1,12.2c-1.6,1.3-3.3,2.5-5.2,3.5
					c-2.5,1.3-5.1,2.1-7.9,2.3c-0.3,0.1-1,0.3-1,0.7c-0.1,0.7,1.5,0.8,1.8,0.8c1.4,0.1,2.8,0.1,4.3,0.1c1.2,0,2.4,0,3.5-0.5
					c5.1-2,9.4-5.3,13-9.5c5.3-6.2,8.7-14,9.7-22c0.2-1.8-2.8,0.8-2.7,0.8c-1.2,1.1-2.4,2.2-3.5,3.3
					C-140.2,515-140.7,515.7-141.1,516.5z"/>
				<path id="XMLID_187_" class="st4" d="M-140.4,520.4c-0.1,3.1-1,6-2.6,8.7c-0.8,1.5-1.7,2.8-2.9,4c-4.9,5.8-11.4,10-19.6,10.1
					c-0.6,0-1,0.6-0.8,1.2c0.2,0.6,1,0.7,1.6,0.7c3.3-0.1,6-0.6,9.1-1.9c2.9-1.3,5.5-2.9,7.9-5c3.3-2.7,6.1-5.9,8.1-9.7
					c1.7-3.2,2.5-6.1,2.9-9.6c0.1-1-1.1-0.7-1.6-0.5C-138.9,518.8-140.3,519.5-140.4,520.4z"/>
				<path id="XMLID_186_" class="st4" d="M-139.7,517.7c-0.1,3.1-0.9,5.9-2.4,8.5c-1.1,1.9-2.3,3.7-3.8,5.3
					c-4.5,5.1-10.4,8.6-17.5,9.3c-0.7,0.1-1.6,0.4-1.1,1.2c0.4,0.8,2.6,0.6,3.2,0.5c2.3-0.3,4.2-0.7,6.3-1.5
					c3.6-1.3,6.8-3.8,9.6-6.4c3-2.8,5.6-6.1,7.4-9.8c1.6-3.2,2.3-6.2,2.8-9.7c0.2-1.2-1.5-0.4-1.8-0.2
					C-137.9,515.5-139.6,516.5-139.7,517.7z"/>
				<path id="XMLID_185_" class="st4" d="M-146.3,514.5c0.1,2-0.4,3.9-1.3,5.7c-2.7,8.7-9.4,14.2-20.3,16.7
					c-0.6,0.1-2.4,0.2-2.6,1.1c-0.1,0.9,1,0.9,1.6,0.8c4.7-0.4,8.8-2,12.7-4.8c3.4-2.5,6.3-5.5,8.6-9c1.2-1.9,2-3.6,2.8-5.7
					c0.8-2.2,1-4.2,1.3-6.4c0.1-0.6-0.7-1-1.2-0.8C-145.4,512.5-146.3,513.9-146.3,514.5z"/>
				<path id="XMLID_184_" class="st4" d="M-145.3,516.8c-0.7,6.1-3.1,10.7-7.1,15c-4,4.2-8.2,6.7-14,8.5c1.3-0.2,2.6-0.5,3.8-0.7
					c-2.1,0.3-4.3,0.6-6.4,1c-0.3,0.1-1,0.3-1,0.7c-0.1,0.7,1.5,0.7,1.9,0.7c1.4,0.1,2.8,0.1,4.2,0c1.2-0.1,2.4-0.1,3.5-0.5
					c12.2-5.2,19.9-18.3,21.3-31.1c0.2-1.8-2.6,1.2-2.4,1c-1,1.1-1.9,2.3-2.7,3.4C-144.8,515.4-145.1,516-145.3,516.8z"/>
				<path id="XMLID_183_" class="st4" d="M-143.1,520.6c-0.1,1.1-0.2,2.2-0.4,3.2c-0.4,2-1.2,3.9-2.3,5.6c-1.5,2.8-3.3,5.3-5.7,7.5
					c-1.6,1.4-3.3,2.8-5.1,3.9c-3.4,2.2-6.9,3.1-10.9,3.4c-0.9,0.1-0.7,1-0.3,1.4c0.8,0.6,3.1,1,4.1,0.8c4.6-0.9,8.5-2.4,12.3-5.2
					c3-2.2,5.6-4.9,7.8-7.9c1.5-2.1,2.6-4.1,3.8-6.3c1.7-3.2,2.5-6.5,3-10.1c0.2-1.5-2,0-2.2,0.1c-1,0.7-1.9,1.4-2.8,2.1
					C-142.5,519.5-142.9,520-143.1,520.6z"/>
				<path id="XMLID_182_" class="st4" d="M-141.4,514.9c-0.5,5.4-1.8,9-5.9,13.5c-4.4,4.7-9.6,8.2-16.6,8.9c-0.6,0.1-2,0.1-1.9,1.1
					s1.4,0.7,2.1,0.7c5.1-0.3,10-2.5,14-5.8c2.6-2.1,4.8-4.4,6.7-7.1c1.1-1.5,1.9-3.1,2.7-4.8c1.1-2.4,1.5-4.6,1.7-7.3
					c0.1-0.6-0.5-1-1-1C-140.2,513.1-141.3,514.4-141.4,514.9z"/>
				<path id="XMLID_181_" class="st4" d="M-144.8,519.3c-0.1,1.1-0.2,2.2-0.4,3.2c-1.2,2.7-2.4,5.3-3.6,8c-1.5,2.2-3.4,4.2-5.4,6
					c-1.6,1.4-3.3,2.6-5.1,3.6c-3,1.7-5.7,2.5-9.3,2.9c-1.2,0.1-1.1,1-0.2,1.4c1,0.3,2.1,0.5,3.2,0.5c1.1,0.1,2.1,0.2,3.2,0.2
					c2.4-0.8,4.4-1.5,6.6-2.8c2-1.2,3.8-2.7,5.6-4.2c6.9-6.1,11.3-15.6,12.4-24.6c0.2-1.7-2.6,0.7-2.5,0.7c-1.1,1-2.1,2-3.1,3.1
					C-144.1,517.9-144.5,518.5-144.8,519.3z"/>
				<path id="XMLID_180_" class="st4" d="M-143.1,513.9c-0.1,1.1-0.2,2.1-0.4,3.2c-0.6,2.5-1.6,4.8-3.1,6.8c-1.3,2.1-3,3.9-5.2,5.2
					c-3.4,4.1-7.9,6.3-13.4,6.8c-0.6,0.1-2,0.1-2.3,0.8s0.4,1.2,1,1.1c2.4-0.1,4.7-0.4,7-1.3c3-1.2,5.7-2.8,8.2-4.8
					c2.2-1.8,4.2-3.7,5.8-6c1.3-1.7,2.4-3.7,3.2-5.7c0.9-2.2,1.1-4.4,1.4-6.7c0.1-0.5-0.7-0.9-1.1-0.9
					C-142.4,512.6-143,513.4-143.1,513.9z"/>
				<path id="XMLID_179_" class="st4" d="M-147,515.5c-0.1,5-2,9.5-5.6,13.5c-5.4,5.2-11.4,8.5-18.3,9.9c-0.8,0.4-0.8,1.2,0.1,1.4
					c1,0.3,3,0,4.1-0.2c2.7-0.5,5.5-1.7,7.8-3.1c3-1.8,5.6-4.2,7.9-6.8c1.4-1.6,2.6-3.4,3.7-5.3c2.2-3.7,3.2-7.7,3.6-11.9
					c0.1-0.8-0.5-1.1-1.2-0.8C-145.6,512.6-146.9,514.7-147,515.5z"/>
			</g>
		</g>
	</g>
</g>
<g id="angry">
	<path id="XMLID_88_" class="st0" d="M-176.5,626.5l-1.8,13.9c-1.5,11.6-0.7,23.4,2.2,34.8l0.2,0.8c2.2,8.7,2.8,17.7,1.7,26.5
		l-2.3,17.9l-1.7,13.2c-1.5,11.7-1.6,23.6-0.1,35.4l1.8,14.7l2.9,25.3c0.7,6.4,0.6,12.9-0.5,19.3l-2.4,15"/>
	<path id="XMLID_75_" class="st1" d="M-205.5,589.4c-1.3-17.9,11.2-34.6,27.4-34.6c1.1,0,1.9,0,3.5,0c1.7,0,2.7,0.2,3,0.2
		c14.5,1.4,25.4,17.2,24.2,34.4c-1,14.6-8.4,26.5-20.5,32.3c-2.4,1.2-5,1.8-7.6,1.8c-2.6,0-5.3-0.5-7.7-1.6
		C-196.4,616.1-204.4,604.2-205.5,589.4z"/>
	<path id="XMLID_72_" class="st1" d="M-176.1,621.4c0,1.1,1.1,4.1,1.3,4.6c0.1,0.3,0.4,0.8,0.2,1.1c-0.3,0.3-0.6,0.1-0.9-0.1
		s-0.5-0.4-0.9-0.4c-0.4,0-0.7,0.1-1.1,0.2c-0.4,0.1-0.8,0-0.9-0.3c-0.1-0.3,0-0.5,0.1-0.8c0.5-1.1,1.1-2.2,1.6-3.2
		c0.1,0,0.3-0.1,0.4-0.1"/>
	<rect id="XMLID_80_" x="-195.3" y="578.2" class="st5" width="47" height="18"/>
	<g id="XMLID_79_" class="st2">
		<path d="M-193.9,586.3c-0.6-0.6-0.9-1.4-0.9-2.4s0.3-1.8,0.9-2.4c0.6-0.6,1.3-0.9,2.2-0.9c0.8,0,1.5,0.4,2.1,1.2v-1.1h1.3v6.4
			h-1.3v-1c-0.3,0.4-0.6,0.7-1,0.8c-0.4,0.2-0.8,0.3-1.2,0.3C-192.6,587.2-193.3,586.9-193.9,586.3z M-193.4,583.9
			c0,0.6,0.2,1.1,0.6,1.5c0.4,0.4,0.9,0.6,1.4,0.6s1-0.2,1.3-0.6c0.4-0.4,0.6-0.9,0.6-1.5c0-0.6-0.2-1.1-0.6-1.5
			c-0.4-0.4-0.8-0.6-1.4-0.6c-0.5,0-1,0.2-1.4,0.6C-193.2,582.8-193.4,583.3-193.4,583.9z"/>
		<path d="M-185,583.7v3.5h-1.3v-6.4h1.3v1.2c0.2-0.4,0.5-0.7,0.9-0.9c0.4-0.2,0.8-0.3,1.2-0.3c0.7,0,1.3,0.2,1.7,0.7
			c0.4,0.4,0.7,1.1,0.7,1.9v3.9h-1.3v-3.5c0-1.2-0.5-1.8-1.5-1.8c-0.5,0-0.9,0.2-1.2,0.5C-184.8,582.6-185,583.1-185,583.7z"/>
		<path d="M-175.8,588.5c1.2,0,1.8-0.8,1.8-2.3v-0.4c-0.2,0.3-0.5,0.5-0.8,0.7c-0.4,0.2-0.8,0.3-1.2,0.3c-0.8,0-1.5-0.3-2.1-0.9
			c-0.5-0.6-0.8-1.3-0.8-2.2s0.3-1.6,0.8-2.2c0.5-0.6,1.2-0.9,2.1-0.9c0.8,0,1.5,0.3,2.1,0.9v-0.8h1.3v5.5c0,1.1-0.3,2-0.9,2.6
			c-0.6,0.6-1.3,0.9-2.2,0.9c-0.7,0-1.3-0.2-1.9-0.5c-0.5-0.3-0.9-0.8-1.2-1.4l1.2-0.5C-177.3,588-176.7,588.5-175.8,588.5z
			 M-177.6,583.7c0,0.5,0.2,1,0.5,1.4c0.3,0.4,0.8,0.6,1.3,0.6s1-0.2,1.3-0.6c0.3-0.4,0.5-0.8,0.5-1.4c0-0.5-0.2-1-0.5-1.4
			c-0.3-0.4-0.8-0.6-1.3-0.6c-0.5,0-1,0.2-1.3,0.6C-177.5,582.7-177.6,583.1-177.6,583.7z"/>
		<path d="M-167.3,582c-0.7,0-1.2,0.2-1.5,0.6c-0.3,0.4-0.5,1-0.5,1.7v2.7h-1.3v-6.4h1.3v1.3c0.2-0.4,0.5-0.7,0.9-1
			c0.4-0.3,0.8-0.4,1.2-0.4L-167.3,582C-167.3,582-167.3,582-167.3,582z"/>
		<path d="M-163.3,588.4c1.2,0,1.8-0.8,1.8-2.3v-0.4c-0.5,0.6-1.2,0.8-2.1,0.8c-1.7,0-2.5-0.9-2.5-2.7v-3.1h1.3v2.5
			c0,0.7,0.1,1.3,0.3,1.6s0.6,0.5,1.2,0.5c0.6,0,1-0.1,1.2-0.4s0.4-0.7,0.5-1.3v-2.9h1.3v5.5c0,1.1-0.3,2-0.9,2.6
			c-0.6,0.6-1.3,0.9-2.2,0.9c-0.7,0-1.3-0.2-1.9-0.5c-0.5-0.3-0.9-0.8-1.2-1.4l1.2-0.5C-164.8,588-164.2,588.4-163.3,588.4z"/>
	</g>
	<g id="XMLID_98_" class="st3">
		<g id="XMLID_162_">
			<g id="XMLID_163_">
				<path id="XMLID_175_" class="st4" d="M-177.4,563.7c2.6-0.3,5.1,0,7.5,1c4.2,0.7,7.6,3.1,10.2,7c-0.8-1.1-1.6-2.2-2.4-3.2
					c1.3,1.9,2.6,3.8,4,5.7c-0.7-1.2-1.4-2.3-2.1-3.5c1.1,2,2.2,4,3.3,6.1c-0.6-1.2-1.2-2.5-1.7-3.7c0.9,2.1,1.8,4.2,2.6,6.3
					c-0.4-1.3-0.9-2.6-1.3-3.9c0.8,5.7,1.6,11.4,2.3,17.1c0.3-1.4,0.6-2.8,0.9-4.2c-0.4,1.8-0.9,3.6-1.3,5.4
					c-0.1,0.3-0.1,1.1,0.3,1.3c0.7,0.3,1.3-1.4,1.4-1.7c0.6-1.5,1.1-3,1.6-4.5c0.4-1.1,1-2.7,0.8-3.9c-1.1-6.4-4.1-12.7-8.4-17.5
					c-2.6-3-5.7-5.2-9.2-6.9c-1.2-0.6-2.3-1.1-3.6-1.5c-3.8-1.3-7.7-1.6-11.8-1.7c-1.8-0.1,1.2,2.6,1.1,2.5c1.2,1,2.4,1.9,3.6,2.8
					C-179,563.1-178.3,563.5-177.4,563.7z"/>
				<path id="XMLID_174_" class="st4" d="M-176.1,560.6c3.2-0.4,6.2,0.2,8.9,1.9c10.9,2.9,15.2,12,12.9,27.3
					c0.2-0.9,0.4-1.8,0.6-2.7c-0.3,0.9-0.5,1.9-0.8,2.8c-0.2,0.7-0.5,2.8,0.8,1.9c0.6-0.4,0.8-1.4,1.1-2c0.4-1.1,1-2.3,1.1-3.5
					c0.5-6.6-1.7-13.8-5.3-19.3c-2.5-3.8-5.8-6.8-9.9-8.9c-1.5-0.8-2.3-1.1-4-1.7c-3.3-1.1-6.4-1.4-9.9-1.5
					c-1.5-0.1,0.2,2.1,0.4,2.2c0.8,0.9,1.6,1.8,2.5,2.6C-177.3,560.1-176.8,560.5-176.1,560.6z"/>
				<path id="XMLID_173_" class="st4" d="M-175.5,563c1.5,0,2.9,0.1,4.4,0.1c2.3,0.1,4.5,0.8,6.4,2.1c1.5,0.5,2.7,1.2,3.8,2.3
					c4.1,3.3,6.6,7.7,7.5,13.4c0.8,4,1.2,7.9,0,11.9c-0.1,0.3-0.2,1.1,0.2,1.3c0.6,0.4,1.3-1.2,1.5-1.5c0.7-1.3,1.3-2.7,1.9-4.1
					c0.4-1,1.2-2.4,1.1-3.6c-0.7-6.8-3.7-13.4-8.1-18.6c-3-3.5-6.7-6.2-10.9-8.1c-2.2-1.1-4.6-1.9-7.1-2.4c-2.7-0.7-5.4-0.9-8.2-0.8
					c-1.9-0.1,1.3,2.9,1.2,2.8c1.3,1.3,2.6,2.5,4,3.7C-177.2,562.1-176.4,562.7-175.5,563z"/>
				<path id="XMLID_172_" class="st4" d="M-172.6,566.3c3.8-0.3,7.3,0.4,10.8,2.1c6.8,5.3,10.5,11.8,11,19.3
					c0.3,3.4,0.1,6.4-1.1,9.5c-0.3,0.8,0.7,1.1,1.2,0.8c0.9-0.4,2-2.4,2.2-3.4c1.7-7.8-0.7-17-5.6-23.2c-2.9-3.6-6.6-6.7-11-8.4
					c-1.3-0.5-2.6-0.9-3.9-1.2c-2.9-0.7-5.4-0.9-8.5-1c-1.6-0.1,0.5,2.1,0.6,2.2c0.9,0.8,1.8,1.6,2.7,2.3
					C-173.9,565.9-173.3,566.2-172.6,566.3z"/>
				<path id="XMLID_171_" class="st4" d="M-172.7,563.5c2.8-0.2,5.5,0.1,8.2,0.9c3,1,5.5,2.6,7.6,4.8c2,2.2,3.5,4.7,4.6,7.5
					c2.1,5.4,3,12,0.9,17.5c-0.4,1,0.7,1.1,1.2,0.7c0.5-0.6,1-1.2,1.4-1.9c0.4-0.7,0.8-1.4,1.1-2.1c1.4-8.7-1.7-18-7.4-24.6
					c-2-2.3-4.4-4.1-7-5.7c-1.2-0.8-2.6-1.4-4-2c-3.8-1.6-7.8-2-11.9-2.2c-1.7-0.1,0.4,2.4,0.6,2.5c0.9,1.1,1.9,2.1,2.9,3.2
					C-174.1,562.8-173.5,563.3-172.7,563.5z"/>
				<path id="XMLID_170_" class="st4" d="M-176.4,562.4c3.5-0.6,6.9-0.1,10.2,1.5c8.6,8.6,11.4,17.5,8.4,27c-0.2,0.6-0.6,1.5-0.1,2
					s1.1,0.2,1.4-0.3c1.8-3.6,1.8-8,1.4-11.9c-0.2-2.5-0.8-4.9-1.6-7.2c-1.2-3.5-3.1-6.7-5.8-9.2c-1.7-1.5-4.1-3-6.3-3.7
					c-2.6-0.8-4.9-0.4-7.5-0.1C-177.5,560.6-177.7,562.4-176.4,562.4z"/>
				<path id="XMLID_169_" class="st4" d="M-178.6,563.4c6.1-0.3,11.3,1.7,15.8,6c-0.6-0.6-1.2-1.2-1.8-1.8c6.2,8.4,8.6,17,7,25.9
					c-0.1,0.5,0.1,0.8,0.5,1c0.9,0.2,1.2-1.5,1.4-2c2-5.8,0.6-11.8-1.6-17.2c-1.4-3.5-3.5-6.8-6.2-9.3c-2.1-2-4.4-3.5-7.1-4.6
					c-4-1.6-7.9-1.9-12.2-2.1c-0.3,0.1-0.5,0.3-0.5,0.7c0.1,0.5,0.4,0.9,0.9,1.2C-181.4,562.1-180,563.4-178.6,563.4z"/>
				<path id="XMLID_168_" class="st4" d="M-175.9,567.1c5-0.3,9.5,1,13.5,3.9c-0.8-0.6-1.5-1.1-2.3-1.7c3.3,9,6.7,17.9,10,26.9
					c0.3-1,0.5-2,0.8-2.9c-0.3,1-0.6,1.9-0.9,2.9c-0.2,0.6-0.8,3,0.7,2c0.6-0.4,1-1.5,1.3-2.1c0.5-1,1.4-2.5,1.5-3.7
					c0.1-3.1-0.5-6.1-1.4-9.1c-1.3-4.3-3.5-8.6-6.6-11.9c-1.9-2.1-4-3.8-6.5-5.2c-2-1.1-4.2-1.9-6.4-2.4c-3.3-0.8-5.2-0.7-8.6-0.8
					c-0.4,0.1-0.5,0.4-0.4,0.7c0.2,0.6,0.6,1,1.2,1.2C-179.1,565.8-177.4,567.1-175.9,567.1z"/>
				<path id="XMLID_167_" class="st4" d="M-172.9,560.7c1.4,0,2.9,0.1,4.3,0.1c3,0.3,5.6,1.2,7.9,2.9c4.5,3,7.3,7.5,8.5,13.2
					c1.1,4.9,1.3,10.2-0.6,15c-0.2,0.6,0.1,1.3,0.8,1.3c0.8,0,1.2-1.2,1.4-1.8c2.1-5.8,1.3-12.5-0.6-18.2c-1.5-4.5-4.1-8.4-7.7-11.5
					c-2.4-2.1-5.2-3.5-8.2-4.5c-2.9-1-5.5-1.1-8.6-1.3c-1.2-0.1-0.4,1.5-0.2,1.9C-175.2,558.5-174,560.6-172.9,560.7z"/>
				<path id="XMLID_166_" class="st4" d="M-177.7,566c5-0.3,9.4,0.9,13.4,3.9c-0.7-0.5-1.5-1.1-2.2-1.6c3.5,8.3,6.9,16.7,10.4,25
					c0.1-1.1,0.2-2.3,0.3-3.4c-0.3,2.1-0.7,4.1-1.1,6.1c-0.1,0.5,0,0.8,0.4,1.1c1.2,0.4,2-3.6,2.2-4c0.8-2.4,1-3.8,0.6-6.4
					c-0.5-3-1.5-6.1-2.8-8.9c-1.6-3.5-3.6-6.4-6.3-9.1c-2.2-2.2-4.8-3.8-7.7-4.9c-3.9-1.5-7.8-1.7-11.9-1.8
					c-0.3,0.1-0.5,0.4-0.4,0.7c0.2,0.5,0.6,0.9,1.1,1.2C-180.7,564.8-179.2,566-177.7,566z"/>
				<path id="XMLID_165_" class="st4" d="M-173.7,560.4c2.7,0.1,5.4,0,8,0.8c1.1,0.5,2.2,1,3.3,1.5c4.5,2.4,6.8,6.2,7,11.5
					c1.8,2.8,2.6,5.7,2.5,8.8c0,0.8,0,1.5-0.1,2.3c-0.2,2-0.6,3.8-1.5,5.7c-0.3,0.6-0.1,1,0.5,1.3c0.7,0.3,0.9,0,1.2-0.6
					c1.3-2.7,1.7-5.6,1.7-8.5c0-3.2-0.3-6.5-1.2-9.6c-0.9-3.2-2.5-6.1-4.5-8.8c-1.6-2-3.4-3.5-5.7-4.7c-1.2-0.5-2.4-1-3.5-1.6
					c-2.6-0.7-5.2-1-7.9-0.8c-0.5,0-1.1,0.3-1.1,0.9C-175.1,559.1-174.2,560.4-173.7,560.4z"/>
				<path id="XMLID_164_" class="st4" d="M-177.6,563.8c2.5-0.5,4.9-0.2,7.1,0.8c5.7,1,9.5,5,11.1,11.8c1.4,4.6,2.4,10.2,0.7,14.9
					c-0.2,0.6-0.7,1.9-0.3,2.5c0.2,0.3,1,0.7,1.3,0.1c1.2-2.3,1.5-4.7,1.6-7.3c0.2-4.8-0.8-9.9-2.9-14.3c-1.2-2.6-2.9-4.9-5.1-6.8
					c-1.7-1.5-3.9-2.7-6.1-3.5c-2.5-0.9-5.2-0.5-7.7-0.4C-179,561.8-178.8,563.8-177.6,563.8z"/>
			</g>
		</g>
	</g>
	<g id="XMLID_97_" class="st3">
		<g id="XMLID_147_">
			<g id="XMLID_148_">
				<path id="XMLID_160_" class="st4" d="M-158.3,595.4c0,2.2-0.4,4.3-1.2,6.3c-2.1,4.8-5.1,8.8-9.1,12c-1.6,1.3-3.3,2.5-5.2,3.4
					c-2.5,1.3-5.1,2.1-7.9,2.3c-0.4,0-1.1,0.2-1.2,0.7c-0.1,0.7,1.7,0.8,2,0.8c1.6,0.2,3.1,0.2,4.7,0.2c1.2,0,2.8,0.2,3.9-0.4
					c6.2-2.9,11.4-7.4,15.1-13.2c3.7-5.9,6.3-12.4,7.1-19.4c0.2-1.9-3,1.2-2.9,1.1c-1.3,1.2-2.5,2.5-3.8,3.8
					C-157.4,593.7-157.9,594.5-158.3,595.4z"/>
				<path id="XMLID_159_" class="st4" d="M-157.6,592.3c-0.4,4.3-1.6,7.7-4,11.2c-3.7,5.3-8.1,8.6-14.4,11.5
					c1.1-0.4,2.2-0.8,3.2-1.2c-2,0.6-3.9,1.3-5.9,1.9c1.1-0.3,2.3-0.6,3.4-0.9c1.4-0.3-6.1,0.7-6.7,1.6c-0.4,0.7,0.2,1,0.8,1
					c1.5,0.2,3.2-0.2,4.6-0.4c3.2-0.4,6-1.8,8.7-3.6c4.9-3.3,9-8,11.7-13.3c2.1-4.2,3.3-8.3,3.8-13c0.2-1.6-2.2,0.7-2.2,0.6
					C-155.5,588.9-157.4,590.7-157.6,592.3z"/>
				<path id="XMLID_158_" class="st4" d="M-156.1,594.6c0,2.2-0.5,4.3-1.3,6.3c-2.1,4.9-5.1,8.9-9.1,12.2c-1.6,1.3-3.3,2.5-5.2,3.5
					c-2.5,1.3-5.1,2.1-7.9,2.3c-0.3,0.1-1,0.3-1,0.7c-0.1,0.7,1.5,0.8,1.8,0.8c1.4,0.1,2.8,0.1,4.3,0.1c1.2,0,2.4,0,3.5-0.5
					c5.1-2,9.4-5.3,13-9.5c5.3-6.2,8.7-14,9.7-22c0.2-1.8-2.8,0.8-2.7,0.8c-1.2,1.1-2.4,2.2-3.5,3.3
					C-155.2,593.1-155.8,593.8-156.1,594.6z"/>
				<path id="XMLID_157_" class="st4" d="M-155.4,598.5c-0.1,3.1-1,6-2.6,8.7c-0.8,1.5-1.7,2.8-2.9,4c-4.9,5.8-11.4,10-19.6,10.1
					c-0.6,0-1,0.6-0.8,1.2c0.2,0.6,1,0.7,1.6,0.7c3.3-0.1,6-0.6,9.1-1.9c2.9-1.3,5.5-2.9,7.9-5c3.3-2.7,6.1-5.9,8.1-9.7
					c1.7-3.2,2.5-6.1,2.9-9.6c0.1-1-1.1-0.7-1.6-0.5C-153.9,596.8-155.3,597.5-155.4,598.5z"/>
				<path id="XMLID_156_" class="st4" d="M-154.8,595.7c-0.1,3.1-0.9,5.9-2.4,8.5c-1.1,1.9-2.3,3.7-3.8,5.3
					c-4.5,5.1-10.4,8.6-17.5,9.3c-0.7,0.1-1.6,0.4-1.1,1.2c0.4,0.8,2.6,0.6,3.2,0.5c2.3-0.3,4.2-0.7,6.3-1.5
					c3.6-1.3,6.8-3.8,9.6-6.4c3-2.8,5.6-6.1,7.4-9.8c1.6-3.2,2.3-6.2,2.8-9.7c0.2-1.2-1.5-0.4-1.8-0.2
					C-152.9,593.5-154.7,594.6-154.8,595.7z"/>
				<path id="XMLID_155_" class="st4" d="M-161.4,592.6c0.1,2-0.4,3.9-1.3,5.7c-2.6,8.7-9.3,14.2-20.2,16.7
					c-0.6,0.1-2.4,0.2-2.6,1.1c-0.1,0.9,1,0.9,1.6,0.8c4.7-0.4,8.8-2,12.7-4.8c3.4-2.5,6.3-5.5,8.6-9c1.2-1.9,2-3.6,2.8-5.7
					c0.8-2.2,1-4.2,1.3-6.4c0.1-0.6-0.7-1-1.2-0.8C-160.5,590.5-161.3,591.9-161.4,592.6z"/>
				<path id="XMLID_154_" class="st4" d="M-160.3,594.9c-0.7,6.1-3.1,10.7-7.1,15c-4,4.2-8.2,6.7-14,8.5c1.3-0.2,2.6-0.5,3.8-0.7
					c-2.1,0.3-4.3,0.6-6.4,1c-0.3,0.1-1,0.3-1,0.7c-0.1,0.7,1.5,0.7,1.9,0.7c1.4,0.1,2.8,0.1,4.2,0c1.2-0.1,2.4-0.1,3.5-0.5
					c12.2-5.2,19.9-18.3,21.3-31.1c0.2-1.8-2.6,1.2-2.4,1c-1,1.1-1.9,2.3-2.7,3.4C-159.8,593.4-160.2,594.1-160.3,594.9z"/>
				<path id="XMLID_153_" class="st4" d="M-158.2,598.7c-0.1,1.1-0.2,2.2-0.4,3.2c-0.4,2-1.2,3.9-2.3,5.6c-1.5,2.8-3.3,5.3-5.7,7.5
					c-1.6,1.4-3.3,2.8-5.1,3.9c-3.4,2.2-6.9,3.1-10.9,3.4c-0.9,0.1-0.7,1-0.3,1.4c0.8,0.6,3.1,1,4.1,0.8c4.6-0.9,8.5-2.4,12.3-5.2
					c3-2.2,5.6-4.9,7.8-7.9c1.5-2.1,2.6-4.1,3.8-6.3c1.7-3.2,2.5-6.5,3-10.1c0.2-1.5-2,0-2.2,0.1c-1,0.7-1.9,1.4-2.8,2.1
					C-157.6,597.6-157.9,598-158.2,598.7z"/>
				<path id="XMLID_152_" class="st4" d="M-156.4,592.9c-0.5,5.4-1.8,9-5.9,13.5c-4.4,4.7-9.6,8.2-16.6,8.9c-0.6,0.1-2,0.1-1.9,1.1
					s1.4,0.7,2.1,0.7c5.1-0.3,10-2.5,14-5.8c2.6-2.1,4.8-4.4,6.7-7.1c1.1-1.5,1.9-3.1,2.7-4.8c1.1-2.4,1.5-4.6,1.7-7.3
					c0.1-0.6-0.5-1-1-1C-155.2,591.2-156.4,592.4-156.4,592.9z"/>
				<path id="XMLID_151_" class="st4" d="M-159.8,597.4c-0.1,1.1-0.2,2.2-0.4,3.2c-1.2,2.7-2.4,5.3-3.6,8c-1.5,2.2-3.4,4.2-5.4,6
					c-1.6,1.4-3.3,2.6-5.1,3.6c-3,1.7-5.7,2.5-9.3,2.9c-1.2,0.1-1.1,1-0.2,1.4c1,0.3,2.1,0.5,3.2,0.5c1.1,0.1,2.1,0.2,3.2,0.2
					c2.4-0.8,4.4-1.5,6.6-2.8c2-1.2,3.8-2.7,5.6-4.2c6.9-6.1,11.3-15.6,12.4-24.6c0.2-1.7-2.6,0.7-2.5,0.7c-1.1,1-2.1,2-3.1,3.1
					C-159.1,596-159.6,596.6-159.8,597.4z"/>
				<path id="XMLID_150_" class="st4" d="M-158.1,592c-0.1,1.1-0.2,2.1-0.4,3.2c-0.6,2.5-1.6,4.8-3.1,6.8c-1.3,2.1-3,3.9-5.2,5.2
					c-3.4,4.1-7.9,6.3-13.4,6.8c-0.6,0.1-2,0.1-2.3,0.8c-0.3,0.7,0.4,1.2,1,1.1c2.4-0.1,4.7-0.4,7-1.3c3-1.2,5.7-2.8,8.2-4.8
					c2.2-1.8,4.2-3.7,5.8-6c1.3-1.7,2.4-3.7,3.2-5.7c0.9-2.2,1.1-4.4,1.4-6.7c0.1-0.5-0.7-0.9-1.1-0.9
					C-157.5,590.6-158.1,591.5-158.1,592z"/>
				<path id="XMLID_149_" class="st4" d="M-162,593.6c-0.1,5-2,9.5-5.6,13.5c-5.4,5.2-11.4,8.5-18.3,9.9c-0.8,0.4-0.8,1.2,0.1,1.4
					c1,0.3,3,0,4.1-0.2c2.7-0.5,5.5-1.7,7.8-3.1c3-1.8,5.6-4.2,7.9-6.8c1.4-1.6,2.6-3.4,3.7-5.3c2.2-3.7,3.2-7.7,3.6-11.9
					c0.1-0.8-0.5-1.1-1.2-0.8C-160.7,590.7-161.9,592.7-162,593.6z"/>
			</g>
		</g>
	</g>
</g>
<g id="boring">
	<path id="XMLID_87_" class="st0" d="M-112.4,600.6l-1.8,13.9c-1.5,11.6-0.7,23.4,2.2,34.8l0.2,0.8c2.2,8.7,2.8,17.7,1.7,26.5
		l-2.3,17.9l-1.7,13.2c-1.5,11.7-1.6,23.6-0.1,35.4l1.8,14.7l2.9,25.3c0.7,6.4,0.6,12.9-0.5,19.3l-2.4,15"/>
	<path id="XMLID_39_" class="st1" d="M-83.1,563.8c1.3-17.9-11.2-34.6-27.4-34.6c-1.1,0-1.9,0-3.5,0c-1.7,0-2.7,0.2-3,0.2
		c-14.5,1.4-25.4,17.2-24.2,34.4c1,14.6,8.4,26.5,20.5,32.3c2.4,1.2,5,1.8,7.6,1.8s5.3-0.5,7.7-1.6
		C-92.2,590.5-84.2,578.6-83.1,563.8z"/>
	<path id="XMLID_36_" class="st1" d="M-112.5,595.8c0,1.1-1.1,4.1-1.3,4.6c-0.1,0.3-0.4,0.8-0.2,1.1c0.3,0.3,0.6,0.1,0.9-0.1
		c0.3-0.2,0.5-0.4,0.9-0.4s0.7,0.1,1.1,0.2s0.8,0,0.9-0.3s0-0.5-0.1-0.8c-0.5-1.1-1.1-2.2-1.6-3.2c-0.1,0-0.3-0.1-0.4-0.1"/>
	<g id="XMLID_85_" class="st2">
		<path d="M-127.3,555.8c0.9,0,1.6,0.3,2.2,0.9s0.9,1.4,0.9,2.4c0,1-0.3,1.8-0.9,2.4c-0.6,0.6-1.3,0.9-2.1,0.9
			c-0.8,0-1.5-0.4-2.2-1.1v1h-1.3v-8.9h1.3v3.6C-128.8,556.2-128.1,555.8-127.3,555.8z M-129.4,559.1c0,0.6,0.2,1.1,0.6,1.5
			c0.4,0.4,0.8,0.6,1.3,0.6s1-0.2,1.4-0.6c0.4-0.4,0.6-0.9,0.6-1.5s-0.2-1.1-0.6-1.5c-0.4-0.4-0.8-0.6-1.4-0.6c-0.5,0-1,0.2-1.4,0.6
			C-129.2,558-129.4,558.5-129.4,559.1z"/>
		<path d="M-117.3,561.4c-0.6,0.6-1.4,1-2.4,1s-1.8-0.3-2.4-1c-0.6-0.6-1-1.4-1-2.3c0-0.9,0.3-1.7,1-2.3c0.6-0.6,1.4-1,2.4-1
			s1.8,0.3,2.4,1c0.6,0.6,1,1.4,1,2.3C-116.3,560-116.7,560.8-117.3,561.4z M-121.1,560.6c0.4,0.4,0.9,0.6,1.4,0.6s1.1-0.2,1.4-0.6
			c0.4-0.4,0.6-0.9,0.6-1.5c0-0.6-0.2-1.1-0.6-1.5c-0.4-0.4-0.9-0.6-1.4-0.6s-1.1,0.2-1.4,0.6c-0.4,0.4-0.6,0.9-0.6,1.5
			C-121.7,559.7-121.5,560.2-121.1,560.6z"/>
		<path d="M-111.5,557.1c-0.7,0-1.2,0.2-1.5,0.6c-0.3,0.4-0.5,1-0.5,1.7v2.7h-1.3v-6.4h1.3v1.3c0.2-0.4,0.5-0.7,0.9-1
			c0.4-0.3,0.8-0.4,1.2-0.4L-111.5,557.1C-111.4,557.1-111.4,557.1-111.5,557.1z"/>
		<path d="M-110,554.6c-0.2-0.2-0.3-0.4-0.3-0.6s0.1-0.4,0.3-0.6s0.4-0.3,0.6-0.3s0.4,0.1,0.6,0.3s0.3,0.4,0.3,0.6s-0.1,0.4-0.3,0.6
			s-0.4,0.3-0.6,0.3S-109.8,554.8-110,554.6z M-108.7,562.2h-1.3v-6.4h1.3V562.2z"/>
		<path d="M-105.4,558.8v3.5h-1.3v-6.4h1.3v1.2c0.2-0.4,0.5-0.7,0.9-0.9c0.4-0.2,0.8-0.3,1.2-0.3c0.7,0,1.3,0.2,1.7,0.7
			c0.4,0.4,0.7,1.1,0.7,1.9v3.9h-1.3v-3.5c0-1.2-0.5-1.8-1.5-1.8c-0.5,0-0.9,0.2-1.2,0.5C-105.2,557.7-105.4,558.2-105.4,558.8z"/>
		<path d="M-96.2,563.6c1.2,0,1.8-0.8,1.8-2.3v-0.4c-0.2,0.3-0.5,0.5-0.8,0.7c-0.4,0.2-0.8,0.3-1.2,0.3c-0.8,0-1.5-0.3-2.1-0.9
			c-0.5-0.6-0.8-1.3-0.8-2.2s0.3-1.6,0.8-2.2c0.5-0.6,1.2-0.9,2.1-0.9c0.8,0,1.5,0.3,2.1,0.9v-0.8h1.3v5.5c0,1.1-0.3,2-0.9,2.6
			c-0.6,0.6-1.3,0.9-2.2,0.9c-0.7,0-1.3-0.2-1.9-0.5c-0.5-0.3-0.9-0.8-1.2-1.4l1.2-0.5C-97.7,563.2-97.1,563.6-96.2,563.6z
			 M-98.1,558.8c0,0.5,0.2,1,0.5,1.4c0.3,0.4,0.8,0.6,1.3,0.6s1-0.2,1.3-0.6c0.3-0.4,0.5-0.8,0.5-1.4c0-0.5-0.2-1-0.5-1.4
			c-0.3-0.4-0.8-0.6-1.3-0.6c-0.5,0-1,0.2-1.3,0.6C-97.9,557.8-98.1,558.3-98.1,558.8z"/>
	</g>
	<g id="XMLID_102_" class="st3">
		<g id="XMLID_132_">
			<g id="XMLID_133_">
				<path id="XMLID_145_" class="st4" d="M-112,539c2.6-0.3,5.1,0,7.5,1c4.2,0.7,7.6,3.1,10.2,7c-0.8-1.1-1.6-2.2-2.4-3.2
					c1.3,1.9,2.6,3.8,4,5.7c-0.7-1.2-1.4-2.3-2.1-3.5c1.1,2,2.2,4,3.3,6.1c-0.6-1.2-1.2-2.5-1.7-3.7c0.9,2.1,1.8,4.2,2.6,6.3
					c-0.4-1.3-0.9-2.6-1.3-3.9c0.8,5.7,1.6,11.4,2.3,17.1c0.3-1.4,0.6-2.8,0.9-4.2c-0.4,1.8-0.9,3.6-1.3,5.4
					c-0.1,0.3-0.1,1.1,0.3,1.3c0.7,0.3,1.3-1.4,1.4-1.7c0.6-1.5,1.1-3,1.6-4.5c0.4-1.1,1-2.7,0.8-3.9c-1.1-6.4-4.1-12.7-8.4-17.5
					c-2.6-3-5.7-5.2-9.2-6.9c-1.2-0.6-2.3-1.1-3.6-1.5c-3.8-1.3-7.7-1.6-11.8-1.7c-1.8-0.1,1.2,2.6,1.1,2.5c1.2,1,2.4,1.9,3.6,2.8
					C-113.5,538.5-112.8,538.9-112,539z"/>
				<path id="XMLID_144_" class="st4" d="M-110.7,536c3.2-0.4,6.2,0.2,8.9,1.9c10.9,2.9,15.2,12,12.9,27.3c0.2-0.9,0.4-1.8,0.6-2.7
					c-0.3,0.9-0.5,1.9-0.8,2.8c-0.2,0.7-0.5,2.8,0.8,1.9c0.6-0.4,0.8-1.4,1.1-2c0.4-1.1,1-2.3,1.1-3.5c0.5-6.6-1.7-13.8-5.3-19.3
					c-2.5-3.8-5.8-6.8-9.9-8.9c-1.5-0.8-2.3-1.1-4-1.7c-3.3-1.1-6.4-1.4-9.9-1.5c-1.5-0.1,0.2,2.1,0.4,2.2c0.8,0.9,1.6,1.8,2.5,2.6
					C-111.8,535.5-111.3,535.8-110.7,536z"/>
				<path id="XMLID_143_" class="st4" d="M-110,538.4c1.5,0,2.9,0.1,4.4,0.1c2.3,0.1,4.5,0.8,6.4,2.1c1.5,0.5,2.7,1.2,3.8,2.3
					c4.1,3.3,6.6,7.7,7.5,13.4c0.8,4,1.2,7.9,0,11.9c-0.1,0.3-0.2,1.1,0.2,1.3c0.6,0.4,1.3-1.2,1.5-1.5c0.7-1.3,1.3-2.7,1.9-4.1
					c0.4-1,1.2-2.4,1.1-3.6c-0.7-6.8-3.7-13.4-8.1-18.6c-3-3.5-6.7-6.2-10.9-8.1c-2.2-1.1-4.6-1.9-7.1-2.4c-2.7-0.7-5.4-0.9-8.2-0.8
					c-1.9-0.1,1.3,2.9,1.2,2.8c1.3,1.3,2.6,2.5,4,3.7C-111.7,537.5-110.9,538-110,538.4z"/>
				<path id="XMLID_142_" class="st4" d="M-107.2,541.6c3.8-0.3,7.3,0.4,10.8,2.1c6.8,5.3,10.5,11.8,11,19.3
					c0.3,3.4,0.1,6.4-1.1,9.5c-0.3,0.8,0.7,1.1,1.2,0.8c0.9-0.4,2-2.4,2.2-3.4c1.7-7.8-0.7-17-5.6-23.2c-2.9-3.6-6.6-6.7-11-8.4
					c-1.3-0.5-2.6-0.9-3.9-1.2c-2.9-0.7-5.4-0.9-8.5-1c-1.6-0.1,0.5,2.1,0.6,2.2c0.9,0.8,1.8,1.6,2.7,2.3
					C-108.4,541.2-107.8,541.5-107.2,541.6z"/>
				<path id="XMLID_141_" class="st4" d="M-107.3,538.9c2.8-0.2,5.5,0.1,8.2,0.9c3,1,5.5,2.6,7.6,4.8c2,2.2,3.5,4.7,4.6,7.5
					c2.1,5.4,3,12,0.9,17.5c-0.4,1,0.7,1.1,1.2,0.7c0.5-0.6,1-1.2,1.4-1.9c0.4-0.7,0.8-1.4,1.1-2.1c1.4-8.7-1.7-18-7.4-24.6
					c-2-2.3-4.4-4.1-7-5.7c-1.2-0.8-2.6-1.4-4-2c-3.8-1.6-7.8-2-11.9-2.2c-1.7-0.1,0.4,2.4,0.6,2.5c0.9,1.1,1.9,2.1,2.9,3.2
					C-108.6,538.2-108,538.6-107.3,538.9z"/>
				<path id="XMLID_140_" class="st4" d="M-111,537.8c3.5-0.6,6.9-0.1,10.2,1.5c8.6,8.6,11.4,17.5,8.4,27c-0.2,0.6-0.6,1.5-0.1,2
					s1.1,0.2,1.4-0.3c1.8-3.6,1.8-8,1.4-11.9c-0.2-2.5-0.8-4.9-1.6-7.2c-1.2-3.5-3.1-6.7-5.8-9.2c-1.7-1.5-4.1-3-6.3-3.7
					c-2.6-0.8-4.9-0.4-7.5-0.1C-112,535.9-112.2,537.8-111,537.8z"/>
				<path id="XMLID_139_" class="st4" d="M-113.2,538.8c6.1-0.3,11.3,1.7,15.8,6c-0.6-0.6-1.2-1.2-1.8-1.8c6.2,8.4,8.6,17,7,25.9
					c-0.1,0.5,0.1,0.8,0.5,1c0.9,0.2,1.2-1.5,1.4-2c2-5.8,0.6-11.8-1.6-17.2c-1.4-3.5-3.5-6.8-6.2-9.3c-2.1-2-4.4-3.5-7.1-4.6
					c-4-1.6-7.9-1.9-12.2-2.1c-0.3,0.1-0.5,0.3-0.5,0.7c0.1,0.5,0.4,0.9,0.9,1.2C-115.9,537.5-114.5,538.8-113.2,538.8z"/>
				<path id="XMLID_138_" class="st4" d="M-110.4,542.5c5-0.3,9.5,1,13.5,3.9c-0.8-0.6-1.5-1.1-2.3-1.7c3.3,9,6.7,17.9,10,26.9
					c0.3-1,0.5-2,0.8-2.9c-0.3,1-0.6,1.9-0.9,2.9c-0.2,0.6-0.8,3,0.7,2c0.6-0.4,1-1.5,1.3-2.1c0.5-1,1.4-2.5,1.5-3.7
					c0.1-3.1-0.5-6.1-1.4-9.1c-1.3-4.3-3.5-8.6-6.6-11.9c-1.9-2.1-4-3.8-6.5-5.2c-2-1.1-4.2-1.9-6.4-2.4c-3.3-0.8-5.2-0.7-8.6-0.8
					c-0.4,0.1-0.5,0.4-0.4,0.7c0.2,0.6,0.6,1,1.2,1.2C-113.6,541.2-111.9,542.5-110.4,542.5z"/>
				<path id="XMLID_137_" class="st4" d="M-107.5,536.1c1.4,0,2.9,0.1,4.3,0.1c3,0.3,5.6,1.2,7.9,2.9c4.5,3,7.3,7.5,8.5,13.2
					c1.1,4.9,1.3,10.2-0.6,15c-0.2,0.6,0.1,1.3,0.8,1.3c0.8,0,1.2-1.2,1.4-1.8c2.1-5.8,1.3-12.5-0.6-18.2c-1.5-4.5-4.1-8.4-7.7-11.5
					c-2.4-2.1-5.2-3.5-8.2-4.5c-2.9-1-5.5-1.1-8.6-1.3c-1.2-0.1-0.4,1.5-0.2,1.9C-109.8,533.9-108.6,536-107.5,536.1z"/>
				<path id="XMLID_136_" class="st4" d="M-112.3,541.4c5-0.3,9.4,0.9,13.4,3.9c-0.7-0.5-1.5-1.1-2.2-1.6c3.5,8.3,6.9,16.7,10.4,25
					c0.1-1.1,0.2-2.3,0.3-3.4c-0.3,2.1-0.7,4.1-1.1,6.1c-0.1,0.5,0,0.8,0.4,1.1c1.2,0.4,2-3.6,2.2-4c0.8-2.4,1-3.8,0.6-6.4
					c-0.5-3-1.5-6.1-2.8-8.9c-1.6-3.5-3.6-6.4-6.3-9.1c-2.2-2.2-4.8-3.8-7.7-4.9c-3.9-1.5-7.8-1.7-11.9-1.8
					c-0.3,0.1-0.5,0.4-0.4,0.7c0.2,0.5,0.6,0.9,1.1,1.2C-115.3,540.2-113.7,541.4-112.3,541.4z"/>
				<path id="XMLID_135_" class="st4" d="M-108.3,535.8c2.7,0.1,5.4,0,8,0.8c1.1,0.5,2.2,1,3.3,1.5c4.5,2.4,6.8,6.2,7,11.5
					c1.8,2.8,2.6,5.7,2.5,8.8c0,0.8,0,1.5-0.1,2.3c-0.2,2-0.6,3.8-1.5,5.7c-0.3,0.6-0.1,1,0.5,1.3c0.7,0.3,0.9,0,1.2-0.6
					c1.3-2.7,1.7-5.6,1.7-8.5c0-3.2-0.3-6.5-1.2-9.6c-0.9-3.2-2.5-6.1-4.5-8.8c-1.6-2-3.4-3.5-5.7-4.7c-1.2-0.5-2.4-1-3.5-1.6
					c-2.6-0.7-5.2-1-7.9-0.8c-0.5,0-1.1,0.3-1.1,0.9C-109.7,534.5-108.7,535.8-108.3,535.8z"/>
				<path id="XMLID_134_" class="st4" d="M-112.1,539.1c2.5-0.5,4.9-0.2,7.1,0.8c5.7,1,9.5,5,11.1,11.8c1.4,4.6,2.4,10.2,0.7,14.9
					c-0.2,0.6-0.7,1.9-0.3,2.5c0.2,0.3,1,0.7,1.3,0.1c1.2-2.3,1.5-4.7,1.6-7.3c0.2-4.8-0.8-9.9-2.9-14.3c-1.2-2.6-2.9-4.9-5.1-6.8
					c-1.7-1.5-3.9-2.7-6.1-3.5c-2.5-0.9-5.2-0.5-7.7-0.4C-113.6,537.2-113.4,539.2-112.1,539.1z"/>
			</g>
		</g>
	</g>
	<g id="XMLID_101_" class="st3">
		<g id="XMLID_117_">
			<g id="XMLID_118_">
				<path id="XMLID_130_" class="st4" d="M-92.8,570.7c0,2.2-0.4,4.3-1.2,6.3c-2.1,4.8-5.1,8.8-9.1,12c-1.6,1.3-3.3,2.5-5.2,3.4
					c-2.5,1.3-5.1,2.1-7.9,2.3c-0.4,0-1.1,0.2-1.2,0.7c-0.1,0.7,1.7,0.8,2,0.8c1.6,0.2,3.1,0.2,4.7,0.2c1.2,0,2.8,0.2,3.9-0.4
					c6.2-2.9,11.4-7.4,15.1-13.2c3.7-5.9,6.3-12.4,7.1-19.4c0.2-1.9-3,1.2-2.9,1.1c-1.3,1.2-2.5,2.5-3.8,3.8
					C-91.9,569.1-92.4,569.9-92.8,570.7z"/>
				<path id="XMLID_129_" class="st4" d="M-92.1,567.7c-0.4,4.3-1.6,7.7-4,11.2c-3.7,5.3-8.1,8.6-14.4,11.5c1.1-0.4,2.2-0.8,3.2-1.2
					c-2,0.6-3.9,1.3-5.9,1.9c1.1-0.3,2.3-0.6,3.4-0.9c1.4-0.3-6.1,0.7-6.7,1.6c-0.4,0.7,0.2,1,0.8,1c1.5,0.2,3.2-0.2,4.6-0.4
					c3.2-0.4,6-1.8,8.7-3.6c4.9-3.3,9-8,11.7-13.3c2.1-4.2,3.3-8.3,3.8-13c0.2-1.6-2.2,0.7-2.2,0.6C-90,564.3-92,566.1-92.1,567.7z"
					/>
				<path id="XMLID_128_" class="st4" d="M-90.6,570c0,2.2-0.5,4.3-1.3,6.3c-2.1,4.9-5.1,8.9-9.1,12.2c-1.6,1.3-3.3,2.5-5.2,3.5
					c-2.5,1.3-5.1,2.1-7.9,2.3c-0.3,0.1-1,0.3-1,0.7c-0.1,0.7,1.5,0.8,1.8,0.8c1.4,0.1,2.8,0.1,4.3,0.1c1.2,0,2.4,0,3.5-0.5
					c5.1-2,9.4-5.3,13-9.5c5.3-6.2,8.7-14,9.7-22c0.2-1.8-2.8,0.8-2.7,0.8c-1.2,1.1-2.4,2.2-3.5,3.3
					C-89.8,568.5-90.3,569.1-90.6,570z"/>
				<path id="XMLID_127_" class="st4" d="M-90,573.8c-0.1,3.1-1,6-2.6,8.7c-0.8,1.5-1.7,2.8-2.9,4c-4.9,5.8-11.4,10-19.6,10.1
					c-0.6,0-1,0.6-0.8,1.2c0.2,0.6,1,0.7,1.6,0.7c3.3-0.1,6-0.6,9.1-1.9c2.9-1.3,5.5-2.9,7.9-5c3.3-2.7,6.1-5.9,8.1-9.7
					c1.7-3.2,2.5-6.1,2.9-9.6c0.1-1-1.1-0.7-1.6-0.5C-88.4,572.2-89.8,572.9-90,573.8z"/>
				<path id="XMLID_126_" class="st4" d="M-89.3,571.1c-0.1,3.1-0.9,5.9-2.4,8.5c-1.1,1.9-2.3,3.7-3.8,5.3
					c-4.5,5.1-10.4,8.6-17.5,9.3c-0.7,0.1-1.6,0.4-1.1,1.2c0.4,0.8,2.6,0.6,3.2,0.5c2.3-0.3,4.2-0.7,6.3-1.5
					c3.6-1.3,6.8-3.8,9.6-6.4c3-2.8,5.6-6.1,7.4-9.8c1.6-3.2,2.3-6.2,2.8-9.7c0.2-1.2-1.5-0.4-1.8-0.2
					C-87.4,568.9-89.2,570-89.3,571.1z"/>
				<path id="XMLID_125_" class="st4" d="M-95.9,568c0.1,2-0.4,3.9-1.3,5.7c-2.7,8.7-9.4,14.2-20.3,16.7c-0.6,0.1-2.4,0.2-2.6,1.1
					c-0.1,0.9,1,0.9,1.6,0.8c4.7-0.4,8.8-2,12.7-4.8c3.4-2.5,6.3-5.5,8.6-9c1.2-1.9,2-3.6,2.8-5.7c0.8-2.2,1-4.2,1.3-6.4
					c0.1-0.6-0.7-1-1.2-0.8C-95,565.9-95.8,567.3-95.9,568z"/>
				<path id="XMLID_124_" class="st4" d="M-94.9,570.3c-0.7,6.1-3.1,10.7-7.1,15c-4,4.2-8.2,6.7-14,8.5c1.3-0.2,2.6-0.5,3.8-0.7
					c-2.1,0.3-4.3,0.6-6.4,1c-0.3,0.1-1,0.3-1,0.7c-0.1,0.7,1.5,0.7,1.9,0.7c1.4,0.1,2.8,0.1,4.2,0c1.2-0.1,2.4-0.1,3.5-0.5
					c12.2-5.2,19.9-18.3,21.3-31.1c0.2-1.8-2.6,1.2-2.4,1c-1,1.1-1.9,2.3-2.7,3.4C-94.3,568.8-94.7,569.5-94.9,570.3z"/>
				<path id="XMLID_123_" class="st4" d="M-92.7,574c-0.1,1.1-0.2,2.2-0.4,3.2c-0.4,2-1.2,3.9-2.3,5.6c-1.5,2.8-3.3,5.3-5.7,7.5
					c-1.6,1.4-3.3,2.8-5.1,3.9c-3.4,2.2-6.9,3.1-10.9,3.4c-0.9,0.1-0.7,1-0.3,1.4c0.8,0.6,3.1,1,4.1,0.8c4.6-0.9,8.5-2.4,12.3-5.2
					c3-2.2,5.6-4.9,7.8-7.9c1.5-2.1,2.6-4.1,3.8-6.3c1.7-3.2,2.5-6.5,3-10.1c0.2-1.5-2,0-2.2,0.1c-1,0.7-1.9,1.4-2.8,2.1
					C-92.1,572.9-92.5,573.4-92.7,574z"/>
				<path id="XMLID_122_" class="st4" d="M-90.9,568.3c-0.5,5.4-1.8,9-5.9,13.5c-4.4,4.7-9.6,8.2-16.6,8.9c-0.6,0.1-2,0.1-1.9,1.1
					s1.4,0.7,2.1,0.7c5.1-0.3,10-2.5,14-5.8c2.6-2.1,4.8-4.4,6.7-7.1c1.1-1.5,1.9-3.1,2.7-4.8c1.1-2.4,1.5-4.6,1.7-7.3
					c0.1-0.6-0.5-1-1-1C-89.7,566.5-90.9,567.8-90.9,568.3z"/>
				<path id="XMLID_121_" class="st4" d="M-94.3,572.7c-0.1,1.1-0.2,2.2-0.4,3.2c-1.2,2.7-2.4,5.3-3.6,8c-1.5,2.2-3.4,4.2-5.4,6
					c-1.6,1.4-3.3,2.6-5.1,3.6c-3,1.7-5.7,2.5-9.3,2.9c-1.2,0.1-1.1,1-0.2,1.4c1,0.3,2.1,0.5,3.2,0.5c1.1,0.1,2.1,0.2,3.2,0.2
					c2.4-0.8,4.4-1.5,6.6-2.8c2-1.2,3.8-2.7,5.6-4.2c6.9-6.1,11.3-15.6,12.4-24.6c0.2-1.7-2.6,0.7-2.5,0.7c-1.1,1-2.1,2-3.1,3.1
					C-93.7,571.3-94.1,572-94.3,572.7z"/>
				<path id="XMLID_120_" class="st4" d="M-92.6,567.3c-0.1,1.1-0.2,2.1-0.4,3.2c-0.6,2.5-1.6,4.8-3.1,6.8c-1.3,2.1-3,3.9-5.2,5.2
					c-3.4,4.1-7.9,6.3-13.4,6.8c-0.6,0.1-2,0.1-2.3,0.8c-0.3,0.7,0.4,1.2,1,1.1c2.4-0.1,4.7-0.4,7-1.3c3-1.2,5.7-2.8,8.2-4.8
					c2.2-1.8,4.2-3.7,5.8-6c1.3-1.7,2.4-3.7,3.2-5.7c0.9-2.2,1.1-4.4,1.4-6.7c0.1-0.5-0.7-0.9-1.1-0.9
					C-92,566-92.6,566.9-92.6,567.3z"/>
				<path id="XMLID_119_" class="st4" d="M-96.5,569c-0.1,5-2,9.5-5.6,13.5c-5.4,5.2-11.4,8.5-18.3,9.9c-0.8,0.4-0.8,1.2,0.1,1.4
					c1,0.3,3,0,4.1-0.2c2.7-0.5,5.5-1.7,7.8-3.1c3-1.8,5.6-4.2,7.9-6.8c1.4-1.6,2.6-3.4,3.7-5.3c2.2-3.7,3.2-7.7,3.6-11.9
					c0.1-0.8-0.5-1.1-1.2-0.8C-95.2,566.1-96.5,568.1-96.5,569z"/>
			</g>
		</g>
	</g>
</g>
</svg>
