<?xml version="1.0" encoding="utf-8"?>
<!-- Generator: Adobe Illustrator 19.0.0, SVG Export Plug-In . SVG Version: 6.00 Build 0)  -->
<svg version="1.1" id="Layer_1" xmlns="http://www.w3.org/2000/svg" xmlns:xlink="http://www.w3.org/1999/xlink" x="0px" y="0px"
	 viewBox="-100.1 195.9 339.8 458.9" style="enable-background:new -100.1 195.9 339.8 458.9;" xml:space="preserve">
<style type="text/css">
	.st0{fill:none;stroke:#FCF74C;stroke-miterlimit:10;}
	.st1{fill:#FCF74C;}
	.st2{fill:#E87325;}
	.st3{opacity:0.29;}
	.st4{opacity:0.1091;fill:#E87325;enable-background:new    ;}
</style>
<line class="st0" x1="9.4" y1="629.2" x2="-18" y2="635"/>
<path class="st1" d="M9.4,629.2c17.1-69.2,25.5-163.9,45.4-211c33.7-79.7,71.8-104.5,83.8-116.1c25.3-24.3,2.7-44.2,97.5-71.5
	l-16.3-26.6c-58.4,30.8-65.1,15.9-114.7,19.3c-4.2,0.4-186.7,28.8-180.2,276.8c1.3,46.8,18.2,95.1,57.1,134.7L9.4,629.2z"/>
<path class="st2" d="M-19.8,633.4c0.4,0.4,0.7,0.6,0.9,1c4.3,4.2,8.2,5.6,14.2,5.5c4.3-0.1,9.3-1.5,11.6-5.1
	c2.3-3.6,3.3-6.5,2.7-10.9c-5-3.4-11.6-4.3-17.3-2.4s-10.4,6.6-12.4,12.3"/>
<path class="st2" d="M219.9,204.1c0.5,3,9.8,21.5,13,26.6c1.1,1.8,6.7-1.1,6.8-4.1C239.8,224.3,231.7,193.9,219.9,204.1"/>
<g class="st3">
	<g>
		<g>
			<g>
				<path class="st4" d="M-87.6,517.5c0.6,8.3,1.3,16.5,2.8,24.6c1.2,6.9,3,13.7,5,20.5c3.8,12.5,8.8,24.7,15.2,36.1
					c3.9,6.9,8,13.6,12.5,20.1c6.7,9.6,14.5,18.1,22.5,26.5c0.6,1.1,1.2,1.3,2.1,0.4c1.2-2,2.1-4.1,2.4-6.5
					c0.9-4.3,1.8-8.5,2.4-12.8c0.6-2.3,0.7-4.6,0.2-6.9c-4.8-5.5-9.2-11.4-13.4-17.5c-1.9-3-3.8-6-5.8-9
					c-6.2-10.4-11.3-21.4-15.3-32.7c-3.4-9.4-6-19.1-7.9-29c-1.1-4.8-1.7-9.7-2.2-14.5c-0.2-6-0.4-12-0.4-18c0-4.6-7,2.9-7.1,3
					c-3.1,3.1-6.2,6.5-9.1,9.8C-85.5,513.4-86.8,515.3-87.6,517.5z"/>
				<path class="st4" d="M-87,509.7c0.4,6.5,1,12.9,1.9,19.3c0.7,3.4,1.2,6.8,1.9,10.2c2.5,12.4,6.6,24.3,11.6,36
					c4.5,10.5,9.9,20.5,16.3,30c3.1,5,6.6,9.8,10.3,14.4c5.1,6.4,10.5,12.5,16.3,18.3c2.4,2.5,3.6-2.6,3.8-3.7
					c0.6-2.7,1.1-5.5,1.3-8.2c0.4-1.6,0.3-3.1-0.4-4.5c-5.2-5.8-10.2-11.7-14.6-18c-2.1-3.1-4.2-6.3-6.3-9.3
					c-6.9-10.7-12.4-22.2-16.9-34.1c-3.7-9.8-6.6-19.8-8.7-30.1c-1.1-5-1.9-9.9-2.5-15c-0.5-6.2-0.8-12.4-0.7-18.6
					c-0.1-1-0.7-1.4-1.7-1.3c-1.6,0.6-2.9,1.7-3.8,3.1c-2,2.4-3.9,4.8-5.7,7.3C-86.1,506.5-86.8,508-87,509.7z"/>
				<path class="st4" d="M-82.4,514.9c0.3,6.5,0.9,13.1,1.6,19.6c1,6.9,2.5,13.7,4.4,20.4c3,10.9,6.8,21.6,11.9,31.8
					c3.4,6.9,6.8,13.2,10.9,19.8c4.1,6.6,8.6,13,13.5,19.1c5.1,6.4,10.5,12.4,16.2,18.1c1.3-0.2,2.1-0.9,2.4-2.2
					c0.9-2.3,1.7-4.7,2.3-7.1c0.9-2.9,1.6-6,2.3-9c0.7-2.1,0.9-4.3,0.5-6.5c-2.6-3.2-5.3-6.2-8-9.4c0.3,0.4,0.5,0.6,0.8,1
					c-2.5-3.2-4.9-6.4-7.4-9.7c0.3,0.4,0.5,0.6,0.7,1c-2.3-3.3-4.4-6.6-6.7-9.9c0.3,0.4,0.5,0.7,0.6,1c-1.8-3-3.5-6.1-5.4-9.1
					c-2.5-4.5-4.9-9.1-6.8-13.9c-3.5-7.7-6.6-15.7-8.8-23.8c-1.8-6.4-3.4-12.9-4.5-19.5c-1.7-9.3-1.8-18.3-1.9-27.7
					c-0.1-4.3-6.4,1.9-6.7,2.2c-3,2.7-5.8,5.5-8.5,8.5C-80.4,511.1-81.7,512.9-82.4,514.9z"/>
				<path class="st4" d="M-80,524.1c0.5,6.5,1.1,13,2.1,19.4c0.7,3.4,1.3,6.8,2,10.2c2.7,12.4,6.9,24.4,12.1,35.9
					c4.7,10.5,10.3,20.4,16.7,29.8c3.2,5,6.8,9.8,10.5,14.3c5.2,6.4,10.7,12.4,16.6,18.1c1.9,1.9,3.2,0.1,4.2-1.7
					c1-1.8,1.7-3.7,2.4-5.7c0.6-1.1,0.6-2.2,0.2-3.4c-5.6-5.3-10.8-10.8-15.8-16.7c-2.3-2.9-4.6-5.8-6.9-8.8
					c-7.6-10.2-14.1-21.2-19.4-32.7c-4.4-9.5-8-19.3-10.6-29.4c-1.4-4.9-2.4-9.9-3.2-14.9c-0.9-6-1.4-12.2-1.7-18.3
					c-0.1-0.8-0.5-1.3-1.2-1.7c-0.9-0.3-1.8-0.2-2.6,0.6c-1.4,0.8-2.7,1.7-3.9,2.7C-79.5,522.4-80,523.1-80,524.1z"/>
				<path class="st4" d="M-79.1,517.1c0.6,6.4,1.2,12.9,2,19.2c0.7,3.4,1.3,6.8,2,10.2c2.6,12.4,6.8,24.4,11.9,35.9
					c4.6,10.5,10.1,20.3,16.5,29.9c3.2,5,6.7,9.8,10.4,14.3c5.1,6.4,10.7,12.4,16.5,18.1c2,2.2,3.4-0.7,4.2-2.4
					c0.9-2.1,1.7-4.4,2.3-6.7c0.6-1.3,0.7-2.5,0.2-3.9c-5.5-5.3-10.7-11-15.4-17c-2.2-2.9-4.5-5.9-6.7-8.9
					c-7.4-10.2-13.6-21.4-18.7-32.9c-4.2-9.6-7.6-19.4-10-29.5c-1.3-4.9-2.3-9.9-3-14.9c-0.8-6-1.2-12.3-1.1-18.3
					c-0.1-0.8-0.6-1.3-1.4-1.6c-1.2,0-2.3,0.4-3.1,1.3c-1.6,1.2-3.3,2.7-4.8,4.2C-78.4,514.9-79,515.8-79.1,517.1z"/>
				<path class="st4" d="M-96.2,511c0.4,6.5,1,13.1,1.8,19.5c0.7,3.4,1.2,6.9,1.9,10.3c2.5,12.6,6.7,24.8,11.7,36.6
					c4.6,10.8,10.1,20.9,16.5,30.7c3.2,5.1,6.7,10.1,10.5,14.8c5.1,6.6,10.7,12.9,16.7,18.8c0.8,0.9,2.7,1.3,3.5,0.1
					c0.8-0.9,1.1-4.6,0.3-5.5c-5.9-6-11.2-12.3-16.3-19c-2.4-3.3-4.6-6.5-7-9.9c-7.6-11.2-13.7-23.3-18.7-35.7
					c-4.1-10.1-7.3-20.6-9.7-31.3c-1.2-5.1-2.2-10.3-2.9-15.5c-0.9-6.3-1.3-12.6-1.5-19c-0.1-1.6-1.7-2.6-3.1-1.8
					c-1,0.9-1.8,2-2.4,3.1C-95.3,508.6-95.9,509.7-96.2,511z"/>
				<path class="st4" d="M-93,516.9c0.3,6.6,0.9,13.2,1.7,19.6c0.7,3.4,1.2,6.8,1.9,10.2c2.5,12.4,6.7,24.3,11.7,36
					c4.5,10.5,10,20.4,16.3,30c3.2,5,6.6,9.8,10.3,14.3c5.1,6.4,10.5,12.5,16.3,18.3c2.7,2.9,3.5-4.3,3.6-5
					c0.4-3.4,0.6-6.6,0.7-10.1c0.3-1.9,0-3.6-0.7-5.3c-5-5.9-9.7-11.9-14-18.3c-1.9-3.2-4-6.3-5.9-9.5
					c-6.5-10.7-11.6-22.3-15.8-34.2c-3.4-9.7-6.1-19.7-8-29.9c-1-4.9-1.7-9.9-2.2-14.8c-0.3-6.1-0.4-12.2-0.4-18.3
					c0-1.1-0.6-1.5-1.7-1.3c-1.8,0.8-3.2,2.3-4.4,3.9c-2.3,2.8-4.7,5.9-6.8,8.9C-91.7,513.2-92.5,514.9-93,516.9z"/>
				<path class="st4" d="M-86.5,525.5c0.3,6.6,0.9,13.1,1.7,19.6c0.7,3.4,1.2,6.8,1.9,10.2c2.6,12.4,6.7,24.4,11.8,35.9
					c4.6,10.5,10.1,20.4,16.5,30c3.2,5,6.7,9.8,10.4,14.4c5.1,6.4,10.6,12.5,16.4,18.3c0.5,0.8,1.2,1.1,2,0.5c1.3-1.2,2-2.7,2.2-4.3
					c0.9-2.9,1.7-6,2.3-9c0.6-1.7,0.7-3.3,0.1-5c-5.1-5.5-9.9-11.2-14.3-17.1c-2.1-2.9-4.1-5.9-6.2-8.8
					c-6.9-10.2-12.5-21.1-17.2-32.5c-3.9-9.5-7-19-9.3-29c-1.3-4.8-2.1-9.7-2.8-14.7c-0.6-6-0.9-11.9-0.9-17.8
					c-0.1-3.4-4.4-0.4-5.4,0.2c-2.3,1.6-4.5,3.4-6.6,5.3C-85,522.8-86,524-86.5,525.5z"/>
				<path class="st4" d="M-84.3,510.5c1.2,10.1,2,20.3,4.4,30.3c2.1,8.8,4.6,17.4,7.8,25.9c4.7,12.5,10.7,24.4,17.7,35.6
					c4.2,6.7,9,13.2,13.9,19.4c5.2,6.5,10.8,12.5,16.7,18.2c0.6,0.4,1.3,0.6,2.1,0.5c0.9-0.2,1.3-0.8,1.6-1.6
					c0.7-1.5,1.7-4.5,0.4-5.9c-5.5-5.8-11.1-11.5-16.1-17.8c-6.1-7.6-11.4-15.5-16.2-23.8c-3.8-6.4-7.1-13.1-10.1-19.9
					c-1.6-3.3-2.9-6.7-4.1-10.1c-2-5-3.6-10.1-5-15.4c0,0.3,0.2,0.7,0.2,1c-0.9-3.7-1.8-7.4-2.7-11.1c0,0.3,0.2,0.7,0.2,1
					c-1.2-5-2-10-2.4-15.1c-0.5-4.5-1-9-1.3-13.5c-0.1-1.4-1.1-2.8-2.7-2.4c-1,0.5-1.8,1.3-2.5,2.2
					C-83.2,508.5-83.8,509.4-84.3,510.5z"/>
				<path class="st4" d="M-90.9,522.8c0.3,6.6,0.9,13.2,1.8,19.7c0.7,3.4,1.2,6.8,1.9,10.2c2.6,12.4,6.7,24.4,11.8,35.9
					c4.6,10.5,10,20.4,16.4,30c3.2,5,6.7,9.8,10.3,14.3c5.1,6.4,10.6,12.5,16.3,18.3c2.7,2.9,3.7-4,4-5.1c0.6-3.5,1.2-7,1.5-10.6
					c0.4-2,0.3-3.8-0.4-5.6c-4.9-5.7-9.4-11.5-13.7-17.7c-1.9-3.1-4-6.1-5.9-9.2c-6.5-10.4-11.6-21.6-15.9-33.1
					c-3.5-9.5-6.2-19.2-8.3-29.2c-1.1-4.8-1.8-9.6-2.3-14.6c-0.3-5.9-0.5-11.9-0.5-17.9c-0.1-4.1-6,1.5-6.2,1.7
					c-2.7,2.5-5.2,5-7.6,7.8C-89.2,519.3-90.3,520.9-90.9,522.8z"/>
				<path class="st4" d="M-88.7,508.6c0.1,6.7,0.8,13.4,2.2,20c1.1,7,2.7,13.9,4.6,20.7c3.2,10.7,7.1,21,11.9,31.1
					c5,10.4,11.2,20.6,17.9,30.1c4.7,6.6,9.9,12.9,15.4,18.9c2.9,3,5.8,6.1,8.8,9c0.8,0.8,2.3,1.6,3.5,0.9c0.7-0.5,1.8-3.3,1.1-4
					c-3-3.1-6.1-6.3-9.1-9.5c0.2,0.2,0.4,0.5,0.6,0.6c-4.1-4.4-8-9-11.6-13.9c-3.7-4.7-7-9.4-10.1-14.4c-6-9.5-11.4-19.6-15.6-30.1
					c-4-10-7.5-20.3-9.7-30.8c-0.7-3.4-1.3-6.8-1.9-10.2c-1.6-6.6-2.2-13.3-1.9-20.1c-0.1-1.2-1.7-2.4-2.9-2.1
					C-87,504.8-88.8,507.3-88.7,508.6z"/>
				<path class="st4" d="M-97.4,514c0.4,6.6,0.8,13.2,1.7,19.6c0.6,3.5,1.2,6.9,1.9,10.3c2.4,12.9,6.8,25.5,12,37.5
					c6.1,14.1,13.8,27.4,23,39.8c2.7,3.6,4.7,6.1,7.5,9.6c4.4,5.3,6.9,7.9,12.2,13.5c1.1,1.1,2.6,1.5,3.6-0.1
					c0.3-1.3,0.5-2.5,0.4-3.8c0-1.3-0.1-2.6-0.5-3.8c-3-3.4-6-6.8-8.9-10.2c0.2,0.3,0.5,0.5,0.7,0.8c-2.7-3.5-5.4-7-8.1-10.5
					c0.2,0.3,0.5,0.5,0.6,0.9c-2.4-3.6-4.9-7.2-7.3-10.8c0.2,0.3,0.4,0.7,0.6,0.9c-2.2-3.6-4.4-7.4-6.5-11c0.2,0.4,0.4,0.7,0.5,1
					c-1.9-3.8-3.9-7.4-5.9-11.2c0.2,0.4,0.3,0.7,0.5,1c-1.7-3.8-3.4-7.6-5.1-11.4c0.2,0.4,0.3,0.8,0.5,1.1c-1.4-3.8-3-7.7-4.4-11.5
					c0.2,0.4,0.3,0.8,0.4,1.2c-1.2-3.9-2.5-7.7-3.7-11.5c0.2,0.4,0.2,0.8,0.4,1.2c-1-3.9-2-7.7-3.1-11.6c0.1,0.4,0.2,0.8,0.3,1.2
					c-0.8-3.8-1.6-7.6-2.5-11.6c0.1,0.4,0.1,0.8,0.3,1.3c-1.1-5-1.8-10.1-2-15.2c-0.5-4.7-0.8-9.4-0.7-14c0.2-0.9-0.1-1.6-0.8-2.1
					c-0.8-0.4-1.6-0.3-2.3,0.3c-1.2,1.3-2.3,2.7-3.2,4.3C-96.1,510.7-96.8,512.3-97.4,514z"/>
			</g>
		</g>
	</g>
</g>
<g class="st3">
	<g>
		<g>
			<g>
				<path class="st4" d="M111.7,211.3c-9.6,1.3-19.2,2.9-28.5,5.5c-15.3,4.2-30.1,10-44.4,17c-31.4,15.3-58.5,39.1-78.8,67.5
					c-7.6,10.7-14.2,22.2-20,34c-6.6,13.2-11.4,27.2-15.7,41.2c-4.9,15.9-8,32.4-10.4,48.8c-1.3,9.1-2.2,18.3-2.9,27.4
					c-1.5,20.5-1.2,40.8-0.5,61.3c-0.2,1.1,0.2,1.7,1.4,1.5c2.2-0.8,4.3-2.1,5.8-3.8c3.4-2.9,6.7-5.8,9.9-8.9
					c1.9-1.5,3.4-3.3,4.4-5.4c0-14.7,0.4-29.3,1.4-44c1-12.9,2.7-26,5.2-38.7c4.1-21.8,10.1-43.5,19.1-63.8
					c7-15.5,15.4-30.2,25.7-43.7c9.7-12.8,20.8-24.3,33.3-34.4c10.1-8.1,20.9-15.3,32.5-21.2c5.4-2.8,10.9-4.7,16.4-6.8
					c5.6-2.1,10.9-4.4,16.6-6.3c9.4-3.2,19.1-6.1,28.8-7.7c2.9-0.5,5.7-0.8,8.7-0.9c3-0.1,5.9-0.5,8.9-0.7c4.3-0.4-2.4-6.2-2.6-6.5
					c-2.9-2.7-6-5.4-9-8C115.5,213,113.8,211.9,111.7,211.3z"/>
				<path class="st4" d="M112.2,202.4c-6.5,1-13.1,2-19.5,3.4c-10.2,2.3-20.3,5.4-30.1,9.1c-11.2,4.3-22.2,9.2-32.7,15.1
					C16.5,237.6,4,246.7-7.4,256.9c-27.2,24.4-47.4,55.5-60.5,89.6c-8.7,22.6-14.4,46.4-17.6,70.4c-1.6,11.5-2.6,23.1-3.3,34.8
					c-1,18-0.8,36-0.2,54.1c0,1,0.6,1.4,1.6,1.4c1.6-0.5,3-1.5,4.2-2.9c2.2-2.2,4.3-4.6,6.3-7c1.4-1.2,2.2-2.7,2.4-4.4
					c0-15.2,0.2-30.4,1.3-45.6c1-13.5,2.8-27,5.3-40.4c4.3-22.8,10.8-45.6,20.7-66.6c7.6-16.2,16.6-31.4,27.9-45.3
					c10.4-13.1,22.4-24.7,35.8-34.8c10.7-8.1,22.2-15.2,34.2-21c5.8-2.8,11.5-4.6,17.5-6.6c5.7-2,11.2-4.1,17.1-5.9
					c9.6-3,19.4-5.6,29.4-7.1c3.1-0.4,6-0.7,9.1-0.8c3-0.1,6.1-0.5,9.1-0.7c1.2-0.1,1.5-0.7,1.2-1.8c-1.3-1.8-2.9-3.3-4.9-4.4
					c-3.4-2.4-7-4.6-10.7-6.7C116.5,203.6,114.4,202.7,112.2,202.4z"/>
				<path class="st4" d="M116.6,209.3c-6.5,0.9-13.1,1.8-19.4,3.2c-10.2,2.2-20.3,5.4-30.1,9c-11.1,4.2-22.2,9.2-32.6,15
					C21.1,244,8.6,253-2.8,263.2c-27.3,24.3-47.5,55.4-60.6,89.4c-8.7,22.6-14.4,46.3-17.7,70.2c-1.6,11.5-2.6,23.1-3.3,34.7
					c-1,18-0.8,35.9-0.2,54c-0.2,1.1,0.2,1.7,1.3,1.6c2-0.6,3.9-1.6,5.4-3.2c3.1-2.4,6.2-5.1,9-7.8c1.7-1.2,3.1-2.9,4-4.9
					c-0.1-14.8,0-29.6,1.1-44.3c0.9-13.1,2.5-26.3,4.8-39.2c4-22.2,9.9-44.3,19-65c7-15.9,15.6-31,26-44.8c9.9-13,21.4-24.8,34.2-35
					c10.4-8.3,21.5-15.4,33.3-21.5c5.6-2.9,11.2-4.7,17-6.8c5.7-2.1,11.1-4.3,16.9-6.2c9.6-3.1,19.3-5.9,29.2-7.6
					c5.9-0.9,12-1.1,18-1.5c4.5-0.3-3.2-6.2-3.1-6.1c-3.1-2.4-6.3-4.8-9.5-7C120.6,210.7,118.7,209.7,116.6,209.3z"/>
				<path class="st4" d="M117.9,210.4c-3,0.3-6,0.5-8.9,1c-2.3,0.6-4.6,1.1-6.9,1.8c-2.2,0.5-4.3,1-6.5,1.5
					c-10.6,2.5-20.9,6-30.9,10c-21.3,8.6-41.5,20.3-59.3,34.9c-13.4,11-25.6,23.7-36,37.7c-12,15.9-21.6,33.6-29.3,52.1
					c-9.1,21.9-14.8,45.1-18.6,68.4c-2.6,15.9-4,31.9-4.6,48c-0.8,18.2-0.3,36.2,0.6,54.3c0.1,0.8,0.5,1.3,1.1,1.8
					c0.9,0.4,1.7,0.3,2.4-0.2c1.5-0.6,4.8-2.3,4.8-4.4c-1.1-20-1.8-40-0.6-60.1c0.7-13.3,1.9-26.5,3.9-39.7
					c3.7-24.4,9.9-48.6,19.5-71.3c8.1-19.1,18.7-36.9,31.8-53c5.5-6.7,11.3-12.9,17.5-18.9c7.6-7.4,16-14,24.5-20.2
					c-0.3,0.1-0.5,0.4-0.7,0.5c2.3-1.5,4.6-3.1,6.9-4.7c-0.3,0.1-0.5,0.3-0.7,0.5c2.3-1.4,4.6-2.9,6.9-4.4c-0.3,0.1-0.5,0.3-0.7,0.5
					c16.3-9.6,33.5-17.5,51.6-23.1c3.2-0.9,6.4-1.9,9.5-2.7c2.8-0.7,5.8-1.2,8.6-2c2.8-0.8,5.5-2,8.4-2.1c2.6-0.1,5.1-0.3,7.7-0.4
					c1.2-0.1,2.4-1.6,2.1-2.8C121.6,212.4,119.1,210.4,117.9,210.4z"/>
				<path class="st4" d="M119.3,206.3c-6.4,1-12.9,1.9-19.2,3.4c-10.3,2.4-20.4,5.5-30.3,9.2c-11.2,4.3-22.4,9.3-32.9,15.2
					c-13.6,7.8-26.2,16.9-37.8,27.3c-27.4,24.9-47.7,56.6-60.6,91.2c-8.5,22.8-14.1,46.9-17.1,71.1c-1.5,11.6-2.5,23.2-3.1,34.9
					c-0.9,18.1-0.5,36.2,0.3,54.3c0.1,0.8,0.5,1.3,1.3,1.6c1.1,0.2,2.2-0.2,3.1-1c1.7-1,3.1-2.2,4.6-3.6c1-0.6,1.6-1.5,1.6-2.7
					c-0.5-15.3-1-30.4-0.3-45.7c0.4-9.2,1-18.5,2-27.7c2.2-22.4,6.6-44.8,13.4-66.3c10.3-32.6,27-63.8,50.9-88.5
					c9.4-9.7,19.7-18.7,30.7-26.5c9.8-6.9,20.1-13.2,31.2-17.9c2.9-1.1,5.7-2.2,8.5-3.5c3-1.3,5.8-2.5,8.8-3.6
					c4.6-1.7,9.2-3.4,14-4.8c8.6-2.7,17.3-4.9,26.2-6.7c-0.4,0.1-0.8,0.1-1.3,0.2c3.7-0.5,7.2-0.9,10.8-1.3
					c-0.4,0.1-0.8,0.1-1.3,0.2c1.3-0.1,2.5-0.2,3.8-0.3c-0.4,0.1-0.8,0.1-1.3,0.1c1.2-0.1,2.3-0.2,3.5-0.3c0.8-0.3,1.1-1,1.1-1.8
					c-0.3-1.2-1-2.1-2.2-2.6c-1.7-1.2-3.3-2.3-5.2-3.2C121.5,206.3,120.4,206.1,119.3,206.3z"/>
				<path class="st4" d="M104.4,200.5c-6.6,0.9-13.3,1.9-19.7,3.4c-10.3,2.3-20.4,5.5-30.2,9.2c-27.1,10.3-52.5,25.5-73.6,45.5
					c-28.6,27.2-49.4,61.5-61.7,98.9c-7.2,22-12,44.5-14.7,67.4c-1.3,11.7-2.3,23.3-2.8,35c-0.7,15.6-0.2,31.1,0.3,46.8
					c0,1.6,1.2,2.9,2.9,2c1.1-1,2.1-2,2.9-3.2c0.9-1.1,1.6-2.4,2.1-3.8c-0.3-10.7-0.3-21.2-0.1-31.8c0.3-10.2,1-20.5,2-30.7
					c0,0.4-0.1,0.8-0.1,1.2c0.6-5,1.2-10,1.8-15.1c0,0.4-0.1,0.8-0.1,1.2c2.1-13.4,4.3-26.6,7.6-39.8c2.1-7.7,4.3-15.5,6.9-23.1
					c6.2-18.5,14.8-36.4,25.2-53c16.1-25.3,37.4-47.4,62.6-63.8c9.7-6.4,19.9-12.3,30.8-16.5c1.8-0.7,3.7-1.3,5.5-2
					c2.9-1.2,5.7-2.4,8.7-3.4c4.6-1.7,9.2-3.3,13.9-4.8c8.6-2.7,17.3-5,26.2-6.6c2.9-0.5,5.8-0.6,8.7-0.9c2.5-0.2,5-0.5,7.5-0.7
					c0.9-0.2,1.3-0.8,1.3-1.7c-0.5-1.4-1.5-2.6-2.8-3.4c-2.2-1.7-4.4-3.3-6.6-4.9C107.2,201,105.9,200.5,104.4,200.5z"/>
				<path class="st4" d="M106.1,209.2c-6.5,0.9-13.1,1.9-19.5,3.2c-10.2,2.3-20.4,5.4-30.2,9.1c-11.2,4.3-22.3,9.3-32.7,15.1
					c-13.4,7.6-26,16.6-37.4,27c-27.4,24.6-47.6,55.9-60.6,90.1c-8.6,22.7-14.4,46.6-17.5,70.6c-1.6,11.5-2.6,23.2-3.3,34.8
					c-1,18.1-0.7,36.1,0,54.2c0.2,4.3,6.1-1.9,6.4-2.2c2.7-2.7,5.3-5.6,7.7-8.4c1.5-1.4,2.6-3.2,3.2-5.1c0.1-14.9,0.5-29.8,1.7-44.7
					c1-13.2,3-26.3,5.5-39.3c4.3-22.1,10.5-44.1,19.9-64.6c7.2-15.6,15.8-30.5,26.2-44.1c9.9-12.8,21.1-24.3,33.7-34.5
					c10.1-8.1,21-15.4,32.5-21.4c5.4-2.8,10.8-4.7,16.3-6.8s10.9-4.5,16.5-6.4c9.3-3.3,18.9-6.2,28.7-7.8c2.9-0.5,5.6-0.8,8.7-0.9
					c2.9-0.1,5.8-0.5,8.7-0.7c4.1-0.4-1.4-5.8-1.8-6.2c-2.6-2.7-5.1-5.2-7.9-7.6C109.7,210.7,108,209.8,106.1,209.2z"/>
				<path class="st4" d="M111.2,215.8c-2.6,0.1-5.2,0.1-7.8,0.3c-2.7,0.2-5.4,0.8-8.1,1.4c-9.8,2-19.4,4.9-28.8,8.3
					c-26.4,9.5-51.3,23.6-72.3,42.4c-28.4,25.4-49.8,58-62.8,93.8c-7.6,20.9-12.8,42.4-16.1,64.3c-2.1,13.7-3.4,27.5-4.1,41.3
					c-0.9,18.2-0.6,36.2,0.2,54.3c0.1,3.3,3.9,1,5.3,0.2c2.3-1.4,4.5-2.9,6.6-4.6c1.4-0.8,2.3-1.8,2.8-3.3
					c-0.5-14.9-0.9-29.7-0.3-44.7c0.5-11.2,1.3-22.3,2.5-33.4c2.5-21.4,6.5-42.8,13.1-63.4c10.3-32.5,27-63.5,50.8-88.1
					c9-9.3,18.7-17.8,29.3-25.2c5.7-4.1,11.8-8.1,17.9-11.4c5.5-3,11.1-5.5,16.7-8.1c16.5-7.4,33.6-13.1,51.4-16.2
					c-0.3,0-0.7,0.1-1,0c2.9,0.1,6,0.3,8.9,0.5c0.7,0.1,1.4,0.1,2.1-0.5c0.8-0.8,0.7-1.8,0-2.7c-0.8-1.2-1.8-2.3-3-3.3
					C113.5,216.7,112.6,215.8,111.2,215.8z"/>
				<path class="st4" d="M116.8,198.9c-2.7,0.4-5.3,0.8-8,1.2c0.5-0.1,0.9-0.1,1.4-0.2c-20,3-39.4,9.3-57.8,17.6
					c-14.3,6.5-27.9,14.1-40.5,23.5c-13.6,10.2-26,21.7-37,34.7c-12.6,15-23.3,31.8-31.7,49.5c-10,20.9-17,43.3-21.8,65.9
					c-3.8,17.7-5.8,35.6-7.2,53.6c-1.5,20.3-1.1,40.7-0.2,61c0.1,1.4,0.9,2.8,2.6,2.5c1-0.5,2-1.2,2.6-2.1c0.8-0.8,1.5-1.7,2-2.7
					c-0.2-5.7-0.3-11.5-0.6-17.1c0,0.3,0,0.7,0,1c0-5.5-0.1-11,0-16.5c0,0.3,0,0.7,0,1c0.2-5.4,0.3-10.6,0.5-16
					c-0.1,0.3,0,0.7-0.1,1c0.3-5.2,0.6-10.3,0.9-15.5c-0.1,0.3,0,0.7-0.1,1c0.4-5,1-9.9,1.4-14.9c-0.1,0.3-0.1,0.7-0.2,1
					c0.7-4.8,1.2-9.7,1.9-14.4c-0.1,0.3-0.1,0.6-0.2,1c0.8-4.6,1.6-9.3,2.4-13.9c-0.1,0.3-0.1,0.6-0.2,1c0.9-4.5,1.8-9,2.8-13.5
					c-0.1,0.3-0.1,0.6-0.3,1c1-4.3,2.2-8.7,3.2-12.9c-0.1,0.3-0.2,0.6-0.3,1c1.2-4.2,2.4-8.3,3.7-12.5c-0.2,0.3-0.2,0.6-0.4,1
					c1.4-4,2.6-8,4-11.9c-0.2,0.3-0.2,0.6-0.4,1c1.5-3.8,2.9-7.7,4.4-11.5c-0.2,0.3-0.3,0.6-0.4,1c1.6-3.7,3.2-7.3,4.8-11
					c-0.2,0.3-0.3,0.6-0.5,1c1.8-3.5,3.4-7,5.1-10.5c-0.2,0.3-0.3,0.6-0.5,1c1.8-3.4,3.6-6.6,5.4-10c-0.2,0.3-0.4,0.7-0.6,1
					c1.9-3.2,3.8-6.4,5.8-9.6c-0.2,0.3-0.4,0.7-0.6,0.9c2-3,4-6.1,6-9.1c-0.3,0.3-0.4,0.6-0.7,0.9c2.1-2.9,4.2-5.7,6.3-8.6
					c-0.3,0.3-0.4,0.6-0.7,0.9c2.2-2.7,4.3-5.4,6.6-8.2c-0.3,0.3-0.5,0.6-0.8,0.9c2.3-2.5,4.5-5.1,6.7-7.7c-0.3,0.2-0.5,0.6-0.8,0.8
					c2.3-2.4,4.6-4.9,6.9-7.3c-0.3,0.2-0.5,0.6-0.8,0.8c2.3-2.2,4.7-4.6,7.1-6.8c-0.3,0.2-0.6,0.6-0.9,0.8c2.4-2.1,4.8-4.3,7.2-6.4
					c-0.3,0.2-0.6,0.5-0.9,0.7c2.4-2,4.9-4,7.4-6c-0.4,0.3-0.6,0.5-1,0.7c2.5-1.8,4.9-3.8,7.4-5.6c-0.4,0.3-0.6,0.5-1,0.7
					c2.5-1.7,5-3.5,7.5-5.2c-0.4,0.3-0.6,0.5-1,0.7c2.5-1.6,5-3.3,7.5-4.8c-0.4,0.3-0.8,0.4-1.1,0.7c2.5-1.6,5-3,7.6-4.6
					c-0.4,0.3-0.8,0.4-1.1,0.7c2.5-1.4,5.1-2.8,7.5-4.1c-0.4,0.3-0.8,0.4-1.1,0.7c2.6-1.3,5-2.6,7.6-3.8c-0.4,0.2-0.8,0.4-1.1,0.6
					c18.4-8.2,37.4-14.7,56.9-19.3c-0.5,0.1-0.9,0.2-1.4,0.3c4.6-0.9,9.1-1.8,13.9-2.3c3.2-0.3,6.3-0.6,9.5-0.9
					c0.8-0.1,1.8,0,2.2-0.9c0.6-1.3-0.7-2.4-1.7-3c-1.8-1.3-3.8-2.2-5.8-3.1C120.4,199.4,118.7,198.6,116.8,198.9z"/>
				<path class="st4" d="M107.3,214.2c-6.4,1.1-12.8,2-19.2,3.5c-10.3,2.3-20.4,5.5-30.1,9.2c-11.1,4.3-22.2,9.2-32.6,15.2
					C12,249.8-0.5,258.8-12,269.3c-27.3,24.6-47.4,56-60.4,90.2c-8.6,22.7-14.3,46.6-17.5,70.7c-1.6,11.6-2.6,23.2-3.2,34.8
					c-1,18.1-0.7,36.1,0.1,54.2c0.1,3.9,5.5-0.5,6.3-1.2c2.8-2.2,5.5-4.5,8.2-7c1.7-1.1,2.9-2.6,3.5-4.4c-0.2-14.8,0-29.5,0.9-44.2
					c0.8-13,2.3-26.1,4.4-39c3.7-22.1,9.1-44.2,17.6-65c6.5-16,14.4-31.3,24.3-45.5c9.3-13.5,20.1-25.7,32.4-36.5
					c9.9-8.8,20.7-16.5,32.2-23.2c5.3-3.1,10.7-5.5,16.3-7.9c5.5-2.4,10.9-4.9,16.6-7.1c9.4-3.6,19.2-6.7,29.1-8.8
					c5.8-1.2,11.7-1.7,17.6-2.3c3.3-0.2,0.3-4.2-0.4-5.1c-1.6-2-3.4-3.9-5.2-5.7C109.9,215.2,108.8,214.4,107.3,214.2z"/>
				<path class="st4" d="M112.2,196.2c-11.4,1.6-22.7,3.9-33.6,7.2C52.1,211.2,27,223.5,5,240.2c-31.3,23.7-55.2,55.7-70.9,91.6
					c-9.6,22.1-16,45.4-20.2,69.1c-2.5,13.8-3.8,27.6-4.8,41.4c-1.4,20.8-1,41.4-0.1,62.2c0.1,1.2,1.4,2.6,2.6,2.5
					c1.1-0.1,3.3-2.3,3.3-3.5c-0.9-20.6-1.2-41.1,0.3-61.7c1.4-18.1,3.9-36.3,7.8-54.1c6.9-30.8,18.7-60.9,36.2-87.2
					c13.2-20,29.6-37.7,48.7-52.2c8.2-6.3,16.9-11.9,25.9-16.9c4.1-2.3,8.4-4.6,12.7-6.5c5.3-2.3,10.7-4.4,16.1-6.6
					c-0.4,0.2-0.8,0.3-1.1,0.5c2.4-0.9,4.8-1.9,7.1-2.7c-0.4,0.2-0.8,0.3-1.2,0.5c11.2-3.9,22.4-7.4,34-9.7
					c6.9-1.4,13.9-2.2,20.9-2.9c0.8-0.1,1.7-0.1,2.1-1c0.6-1.3-0.7-2.3-1.6-2.9c-1.8-1.2-3.6-2-5.5-2.9c-0.9-0.4-1.7-0.8-2.7-1
					C113.9,195.8,113.1,195.8,112.2,196.2z"/>
				<path class="st4" d="M102.2,204.4c-6.6,0.9-13.2,1.9-19.7,3.4c-10.3,2.4-20.4,5.5-30.2,9.2c-11.2,4.3-22.3,9.4-32.8,15.4
					c-13.5,7.7-26.1,16.8-37.6,27.3c-27.2,24.9-47.5,56.5-60.6,90.9c-8.6,22.9-14.3,46.9-17.5,71.1c-1.5,11.6-2.6,23.3-3.1,35
					c-1,18.2-0.6,36.3,0,54.5c0.3,0.8,0.9,1.2,1.7,1.3c1.3-0.3,2.2-1,2.9-2.1c1.4-1.7,2.8-3.5,3.9-5.4c0.9-1,1.2-2.2,1.2-3.4
					c-0.1-15.5,0.1-30.9,1.1-46.4c1-13.8,2.7-27.5,5.2-41.1c4.2-23.2,10.5-46.2,20.2-67.8C-56,330-47.1,314.4-36.2,300
					c10.1-13.4,21.8-25.5,34.8-36.2c10.5-8.5,21.5-16,33.4-22.4c5.6-3,11.1-5.1,17-7.4c5.6-2.3,11.1-4.6,16.9-6.6
					c9.5-3.4,19.3-6.3,29.2-8.3c5.8-1.1,11.8-1.5,17.7-2.1c0.9-0.1,1.4-0.6,1.4-1.5c-0.3-1.5-1.1-2.7-2.3-3.6
					c-1.9-1.9-3.8-3.7-5.9-5.4C104.9,205.2,103.7,204.6,102.2,204.4z"/>
			</g>
		</g>
	</g>
</g>
</svg>
