<?xml version="1.0" encoding="utf-8"?>
<!-- Generator: Adobe Illustrator 19.0.0, SVG Export Plug-In . SVG Version: 6.00 Build 0)  -->
<svg version="1.1" id="bear" xmlns="http://www.w3.org/2000/svg" xmlns:xlink="http://www.w3.org/1999/xlink" x="0px" y="0px"
	 viewBox="-178 278.6 239 284.3" style="enable-background:new -178 278.6 239 284.3;" xml:space="preserve">
<style type="text/css">
	.st0{fill:#FCF74C;}
	.st1{opacity:0.44;fill:#FFCA06;enable-background:new    ;}
	.st2{fill:#FFC900;}
	.st3{fill:#E87426;}
	.st4{fill:#010101;}
	.st5{clip-path:url(#SVGID_2_);fill:#FFC900;}
	.st6{fill:none;stroke:#010101;stroke-width:4;stroke-linecap:round;stroke-linejoin:round;stroke-miterlimit:10;}
</style>
<g id="bear-body">
	<path id="XMLID_64_" class="st0" d="M-15.5,553.9l-43.6,1.6c-23,0-46-2.2-49.8-3.4c-24.4-8.3-17.9-0.5-27.7-4.8
		c-11.7-5.2-22.2,0.1-21.2-7.3c-9.2-76.8,53.3-114.9,103.9-114.9S55.1,467,48,545c1,7.4-7.6-2.9-19.3,2.2c-9.1,4-12.5-1.7-26.3,3.4
		c-5.3,2-9.2,2.4-16.4,3.2C-14.6,553.9-15,553.9-15.5,553.9z"/>
	<g id="XMLID_58_">
		<path id="XMLID_63_" class="st1" d="M-109.4,549.6h-57.9c-1.8,0-3.2-1.6-3.1-3.2c4.7-22.7,15.2-33.3,32-32.4
			c21.2,1.1,31.3,14.8,32,32.5C-106.1,548.1-107.5,549.6-109.4,549.6z"/>
		<path id="XMLID_62_" class="st2" d="M-109.4,556.9h-57.9c-1.8,0-3.2-1.6-3.1-3.2c1.4-20.9,15.2-38.2,32-37.2
			c21.3,1.3,31.1,16.5,32,37.3C-106.1,555.3-107.5,556.9-109.4,556.9z"/>
		<g id="XMLID_59_">
			<path id="XMLID_61_" class="st3" d="M-154.4,551.9c0,4.5-2.3,6.6-5.1,6.6s-5.1-2-5.1-6.6"/>
			<path id="XMLID_60_" class="st3" d="M-164.8,552.8c0-5.1,2.3-9.4,5.1-9.4s5.1,4.2,5.1,9.4"/>
		</g>
	</g>
	<g id="XMLID_55_">
		<path id="XMLID_57_" class="st1" d="M-4.1,554.2h57.9c1.8,0,3.2-1.6,3.1-3.2c-1.4-20.9-15.2-38.2-32-37.2
			c-21.3,1.3-31.1,16.5-32,37.3C-7.4,552.7-5.9,554.2-4.1,554.2z"/>
		<path id="XMLID_56_" class="st2" d="M-5,556.6h57.9c1.8,0,3.2-1.6,3.1-3.2c-1.4-20.9-15.2-38.2-32-37.2
			c-21.3,1.3-31.1,16.5-32,37.3C-8.2,555.1-6.7,556.6-5,556.6z"/>
	</g>
	<g id="XMLID_52_">
		<path id="XMLID_54_" class="st3" d="M-140.9,551.9c0,4.5-2.3,6.6-5.1,6.6s-5.1-2-5.1-6.6"/>
		<path id="XMLID_53_" class="st3" d="M-151.1,552.8c0-5.1,2.3-9.4,5.1-9.4s5.1,4.2,5.1,9.4"/>
	</g>
	<g id="XMLID_49_">
		<path id="XMLID_51_" class="st3" d="M-127.1,551.9c0,4.5-2.3,6.6-5.1,6.6s-5.1-2-5.1-6.6"/>
		<path id="XMLID_50_" class="st3" d="M-137.4,552.8c0-5.1,2.3-9.4,5.1-9.4s5.1,4.2,5.1,9.4"/>
	</g>
	<g id="XMLID_46_">
		<path id="XMLID_48_" class="st3" d="M-113.2,551.9c0,4.5-2.3,6.6-5.1,6.6s-5.1-2-5.1-6.6"/>
		<path id="XMLID_47_" class="st3" d="M-123.4,552.8c0-5.1,2.3-9.4,5.1-9.4s5.1,4.2,5.1,9.4"/>
	</g>
	<g id="XMLID_33_">
		<g id="XMLID_43_">
			<path id="XMLID_45_" class="st3" d="M8.6,552.2c0,4.5-2.3,6.6-5.1,6.6s-5.1-2-5.1-6.6"/>
			<path id="XMLID_44_" class="st3" d="M-1.6,552.9c0-5.1,2.3-9.4,5.1-9.4s5.1,4.2,5.1,9.4"/>
		</g>
		<g id="XMLID_40_">
			<path id="XMLID_42_" class="st3" d="M22.2,552.2c0,4.5-2.3,6.6-5.1,6.6s-5.1-2-5.1-6.6"/>
			<path id="XMLID_41_" class="st3" d="M12,552.9c0-5.1,2.3-9.4,5.1-9.4s5.1,4.2,5.1,9.4"/>
		</g>
		<g id="XMLID_37_">
			<path id="XMLID_39_" class="st3" d="M35.9,552.2c0,4.5-2.3,6.6-5.1,6.6s-5.1-2-5.1-6.6"/>
			<path id="XMLID_38_" class="st3" d="M25.7,552.9c0-5.1,2.3-9.4,5.1-9.4s5.1,4.2,5.1,9.4"/>
		</g>
		<g id="XMLID_34_">
			<path id="XMLID_36_" class="st3" d="M49.9,552.2c0,4.5-2.3,6.6-5.1,6.6s-5.1-2-5.1-6.6"/>
			<path id="XMLID_35_" class="st3" d="M39.7,552.9c0-5.1,2.3-9.4,5.1-9.4s5.1,4.2,5.1,9.4"/>
		</g>
	</g>
</g>
<g id="bear-head">
	<ellipse id="XMLID_32_" class="st1" cx="-59.5" cy="433.6" rx="103" ry="75.5"/>
	<path id="XMLID_31_" class="st2" d="M34.7,418.5l16.8-34.3c9.3-18.9,0.9-42-18.5-51.6c-19.5-9.5-42.9-1.9-52.2,17L-36,383.9
		L34.7,418.5z"/>
	<path id="XMLID_30_" class="st0" d="M20.3,422.2l16.8-34.4c9.9-19.3,12.8-36.6-8-47.4C9,330.1-4.1,341.3-14.5,362.6l-16.8,34.3
		L20.3,422.2z"/>
	<path id="XMLID_29_" class="st2" d="M-153.1,419.2l-16.8-34.3c-9.3-18.9-0.9-42,18.5-51.6c19.5-9.5,42.9-1.9,52.2,17l16.8,34.3
		L-153.1,419.2z"/>
	<path id="XMLID_28_" class="st0" d="M-138.9,423l-16.8-34.3c-9.9-19.3-12.8-36.6,8-47.4c20.1-10.3,33.3,1,43.6,22.2l16.8,34.3
		L-138.9,423z"/>
	<ellipse id="XMLID_27_" class="st0" cx="-59.5" cy="429.3" rx="103" ry="75.5"/>
	<circle id="XMLID_26_" class="st4" cx="-103.5" cy="429.3" r="4.3"/>
	<circle id="XMLID_25_" class="st4" cx="-18.9" cy="429.3" r="4.3"/>
	<g id="XMLID_18_">
		<g id="XMLID_19_">
			<g id="XMLID_20_">
				<g id="XMLID_21_">
					<g id="XMLID_22_">
						<g>
							<g>
								<g>
									<g>
										<g>
											<defs>
												<path id="SVGID_1_" d="M75,516.3C75,558-35.6,530-55.2,530c-74.3,0-138.7,28-138.7-13.7s60.1-75.5,134.4-75.5
													S75,474.6,75,516.3z"/>
											</defs>
											<clipPath id="SVGID_2_">
												<use xlink:href="#SVGID_1_"  style="overflow:visible;"/>
											</clipPath>
											<ellipse id="XMLID_23_" class="st5" cx="-59.5" cy="430.5" rx="103" ry="75.5"/>
										</g>
									</g>
								</g>
							</g>
						</g>
					</g>
				</g>
			</g>
		</g>
	</g>
	<ellipse id="XMLID_17_" class="st4" cx="-59.5" cy="460.5" rx="22.9" ry="12.6"/>
	<path id="XMLID_16_" class="st6" d="M-41.1,488.1c-10.6,8.9-18.4,0.1-18.4-5.5v-18.1v18.1"/>
	<path id="XMLID_15_" class="st6" d="M-77.8,488.1c10.6,8.9,18.4,0.1,18.4-5.5"/>
</g>
</svg>
