<?xml version="1.0" encoding="utf-8"?>
<!-- Generator: Adobe Illustrator 19.0.0, SVG Export Plug-In . SVG Version: 6.00 Build 0)  -->
<svg version="1.1" id="bear" xmlns="http://www.w3.org/2000/svg" xmlns:xlink="http://www.w3.org/1999/xlink" x="0px" y="0px"
	 viewBox="-178 278.6 239 284.3" style="enable-background:new -178 278.6 239 284.3;" xml:space="preserve">
<style type="text/css">
	.st0{fill:#E87325;}
	.st1{opacity:0.44;fill:#FFC900;enable-background:new    ;}
	.st2{fill:#FFC900;}
	.st3{clip-path:url(#SVGID_2_);fill:#FFC900;}
	.st4{fill:none;stroke:#000000;stroke-width:4;stroke-linecap:round;stroke-linejoin:round;stroke-miterlimit:10;}
</style>
<g id="bear-body">
	<path class="st0" d="M-17.7,555.1l-41.7,1.5c-22,0-44-2.1-47.6-3.3c-23.3-7.9-17.1-0.5-26.5-4.6c-11.2-4.9-21.3,0.2-20.3-6.9
		c-8.8-73.5,51-109.9,99.4-109.9s104.3,40,97.5,114.7c1,7.1-7.3-2.8-18.5,2.1c-8.7,3.8-12-1.6-25.2,3.3c-5.1,1.9-8.8,2.3-15.7,3.1
		C-16.8,555.1-17.2,555.1-17.7,555.1z"/>
	<g>
		<path class="st1" d="M-107.5,551h-55.4c-1.7,0-3.1-1.5-3-3.1c4.5-21.7,14.5-31.9,30.6-31c20.3,1.1,29.9,14.2,30.6,31.1
			C-104.4,549.5-105.7,551-107.5,551z"/>
		<path class="st2" d="M-107.5,557.9h-55.4c-1.7,0-3.1-1.5-3-3.1c1.3-20,14.5-36.5,30.6-35.6c20.4,1.2,29.8,15.8,30.6,35.7
			C-104.4,556.4-105.7,557.9-107.5,557.9z"/>
		<g>
			<path class="st0" d="M-150.6,553.2c0,4.3-2.2,6.3-4.9,6.3c-2.7,0-4.9-1.9-4.9-6.3"/>
			<path class="st0" d="M-160.4,554c0-4.9,2.2-9,4.9-9c2.7,0,4.9,4,4.9,9"/>
		</g>
	</g>
	<g>
		<path class="st1" d="M-6.8,555.4h55.4c1.7,0,3.1-1.5,3-3.1c-1.3-20-14.5-36.5-30.6-35.6c-20.4,1.2-29.8,15.8-30.6,35.7
			C-9.9,553.9-8.5,555.4-6.8,555.4z"/>
		<path class="st2" d="M-7.6,557.7h55.4c1.7,0,3.1-1.5,3-3.1c-1.3-20-14.5-36.5-30.6-35.6c-20.4,1.2-29.8,15.8-30.6,35.7
			C-10.7,556.2-9.3,557.7-7.6,557.7z"/>
	</g>
	<g>
		<path class="st0" d="M-137.6,553.2c0,4.3-2.2,6.3-4.9,6.3c-2.7,0-4.9-1.9-4.9-6.3"/>
		<path class="st0" d="M-147.4,554c0-4.9,2.2-9,4.9-9c2.7,0,4.9,4,4.9,9"/>
	</g>
	<g>
		<path class="st0" d="M-124.5,553.2c0,4.3-2.2,6.3-4.9,6.3c-2.7,0-4.9-1.9-4.9-6.3"/>
		<path class="st0" d="M-134.3,554c0-4.9,2.2-9,4.9-9c2.7,0,4.9,4,4.9,9"/>
	</g>
	<g>
		<path class="st0" d="M-111.1,553.2c0,4.3-2.2,6.3-4.9,6.3c-2.7,0-4.9-1.9-4.9-6.3"/>
		<path class="st0" d="M-120.9,554c0-4.9,2.2-9,4.9-9c2.7,0,4.9,4,4.9,9"/>
	</g>
	<g>
		<g>
			<path class="st0" d="M5.4,553.4c0,4.3-2.2,6.3-4.9,6.3s-4.9-1.9-4.9-6.3"/>
			<path class="st0" d="M-4.4,554.1c0-4.9,2.2-9,4.9-9s4.9,4,4.9,9"/>
		</g>
		<g>
			<path class="st0" d="M18.4,553.4c0,4.3-2.2,6.3-4.9,6.3s-4.9-1.9-4.9-6.3"/>
			<path class="st0" d="M8.6,554.1c0-4.9,2.2-9,4.9-9s4.9,4,4.9,9"/>
		</g>
		<g>
			<path class="st0" d="M31.5,553.4c0,4.3-2.2,6.3-4.9,6.3s-4.9-1.9-4.9-6.3"/>
			<path class="st0" d="M21.7,554.1c0-4.9,2.2-9,4.9-9s4.9,4,4.9,9"/>
		</g>
		<g>
			<path class="st0" d="M44.9,553.4c0,4.3-2.2,6.3-4.9,6.3s-4.9-1.9-4.9-6.3"/>
			<path class="st0" d="M35.1,554.1c0-4.9,2.2-9,4.9-9s4.9,4,4.9,9"/>
		</g>
	</g>
</g>
<g id="bear-head">
	<ellipse class="st1" cx="-59.8" cy="440" rx="98.5" ry="72.2"/>
	<path class="st2" d="M30.3,425.5l16.1-32.8c8.9-18.1,0.9-40.2-17.7-49.4c-18.7-9.1-41-1.8-49.9,16.3l-16.1,32.8L30.3,425.5z"/>
	<path class="st0" d="M16.6,429.1l16.1-32.9c9.5-18.5,12.2-35-7.7-45.3c-19.2-9.9-31.8,0.9-41.7,21.2l-16.1,32.8L16.6,429.1z"/>
	<path class="st2" d="M-149.4,426.2l-16.1-32.8c-8.9-18.1-0.9-40.2,17.7-49.4c18.7-9.1,41-1.8,49.9,16.3l16.1,32.8L-149.4,426.2z"/>
	<path class="st0" d="M-135.7,429.8l-16.1-32.8c-9.5-18.5-12.2-35,7.7-45.3c19.2-9.9,31.8,0.9,41.7,21.2l16.1,32.8L-135.7,429.8z"/>
	<ellipse class="st0" cx="-59.8" cy="435.9" rx="98.5" ry="72.2"/>
	<circle cx="-101.9" cy="435.9" r="4.1"/>
	<circle cx="-20.9" cy="435.9" r="4.1"/>
	<g>
		<g>
			<g>
				<defs>
					<path id="SVGID_1_" d="M68.9,519.1c0,39.9-105.8,13.1-124.6,13.1c-71.1,0-132.7,26.8-132.7-13.1s57.5-72.2,128.6-72.2
						S68.9,479.2,68.9,519.1z"/>
				</defs>
				<clipPath id="SVGID_2_">
					<use xlink:href="#SVGID_1_"  style="overflow:visible;"/>
				</clipPath>
				<ellipse class="st3" cx="-59.8" cy="437" rx="98.5" ry="72.2"/>
			</g>
		</g>
	</g>
	<ellipse cx="-59.8" cy="465.7" rx="21.9" ry="12.1"/>
	<path class="st4" d="M-42.2,492.1c-10.1,8.5-17.6,0.1-17.6-5.3v-17.3v17.3"/>
	<path class="st4" d="M-77.3,492.1c10.1,8.5,17.6,0.1,17.6-5.3"/>
</g>
</svg>
