<?xml version="1.0" encoding="utf-8"?>
<!-- Generator: Adobe Illustrator 19.0.0, SVG Export Plug-In . SVG Version: 6.00 Build 0)  -->
<svg version="1.1" id="bear" xmlns="http://www.w3.org/2000/svg" xmlns:xlink="http://www.w3.org/1999/xlink" x="0px" y="0px"
	 viewBox="-361.1 575.6 257.3 220.3" style="enable-background:new -361.1 575.6 257.3 220.3;" xml:space="preserve">
<style type="text/css">
	.st0{fill:#E87325;}
	.st1{opacity:0.44;fill:#FFC900;enable-background:new    ;}
	.st2{fill:#FFC900;}
	.st3{clip-path:url(#SVGID_2_);fill:#FFC900;}
	.st4{fill:none;stroke:#000000;stroke-width:4;stroke-linecap:round;stroke-linejoin:round;stroke-miterlimit:10;}
</style>
<g id="bear-body">
	<path class="st0" d="M-191.8,791.3l-41.7,1.5c-22,0-44-2.1-47.6-3.3c-23.3-7.9-17.1-0.5-26.5-4.6c-11.2-4.9-21.3,0.2-20.3-6.9
		c-8.8-73.5,51-109.9,99.4-109.9s104.3,40,97.5,114.7c1,7.1-7.3-2.8-18.5,2.1c-8.7,3.8-12-1.6-25.2,3.3c-5.1,1.9-8.8,2.3-15.7,3.1
		C-190.9,791.3-191.3,791.3-191.8,791.3z"/>
	<g>
		<path class="st1" d="M-281.6,787.2H-337c-1.7,0-3.1-1.5-3-3.1c4.5-21.7,14.5-31.9,30.6-31c20.3,1.1,29.9,14.2,30.6,31.1
			C-278.5,785.7-279.8,787.2-281.6,787.2z"/>
		<path class="st2" d="M-281.6,794.1H-337c-1.7,0-3.1-1.5-3-3.1c1.3-20,14.5-36.5,30.6-35.6c20.4,1.2,29.8,15.8,30.6,35.7
			C-278.5,792.6-279.8,794.1-281.6,794.1z"/>
		<g>
			<path class="st0" d="M-324.7,789.4c0,4.3-2.2,6.3-4.9,6.3c-2.7,0-4.9-1.9-4.9-6.3"/>
			<path class="st0" d="M-334.5,790.2c0-4.9,2.2-9,4.9-9c2.7,0,4.9,4,4.9,9"/>
		</g>
	</g>
	<g>
		<path class="st1" d="M-180.9,791.6h55.4c1.7,0,3.1-1.5,3-3.1c-1.3-20-14.5-36.5-30.6-35.6c-20.4,1.2-29.8,15.8-30.6,35.7
			C-184,790.1-182.6,791.6-180.9,791.6z"/>
		<path class="st2" d="M-181.7,793.9h55.4c1.7,0,3.1-1.5,3-3.1c-1.3-20-14.5-36.5-30.6-35.6c-20.4,1.2-29.8,15.8-30.6,35.7
			C-184.8,792.4-183.4,793.9-181.7,793.9z"/>
	</g>
	<g>
		<path class="st0" d="M-311.7,789.4c0,4.3-2.2,6.3-4.9,6.3c-2.7,0-4.9-1.9-4.9-6.3"/>
		<path class="st0" d="M-321.5,790.2c0-4.9,2.2-9,4.9-9c2.7,0,4.9,4,4.9,9"/>
	</g>
	<g>
		<path class="st0" d="M-298.6,789.4c0,4.3-2.2,6.3-4.9,6.3c-2.7,0-4.9-1.9-4.9-6.3"/>
		<path class="st0" d="M-308.4,790.2c0-4.9,2.2-9,4.9-9c2.7,0,4.9,4,4.9,9"/>
	</g>
	<g>
		<path class="st0" d="M-285.2,789.4c0,4.3-2.2,6.3-4.9,6.3c-2.7,0-4.9-1.9-4.9-6.3"/>
		<path class="st0" d="M-295,790.2c0-4.9,2.2-9,4.9-9c2.7,0,4.9,4,4.9,9"/>
	</g>
	<g>
		<g>
			<path class="st0" d="M-168.7,789.6c0,4.3-2.2,6.3-4.9,6.3s-4.9-1.9-4.9-6.3"/>
			<path class="st0" d="M-178.5,790.3c0-4.9,2.2-9,4.9-9s4.9,4,4.9,9"/>
		</g>
		<g>
			<path class="st0" d="M-155.7,789.6c0,4.3-2.2,6.3-4.9,6.3s-4.9-1.9-4.9-6.3"/>
			<path class="st0" d="M-165.5,790.3c0-4.9,2.2-9,4.9-9s4.9,4,4.9,9"/>
		</g>
		<g>
			<path class="st0" d="M-142.6,789.6c0,4.3-2.2,6.3-4.9,6.3s-4.9-1.9-4.9-6.3"/>
			<path class="st0" d="M-152.4,790.3c0-4.9,2.2-9,4.9-9s4.9,4,4.9,9"/>
		</g>
		<g>
			<path class="st0" d="M-129.2,789.6c0,4.3-2.2,6.3-4.9,6.3s-4.9-1.9-4.9-6.3"/>
			<path class="st0" d="M-139,790.3c0-4.9,2.2-9,4.9-9s4.9,4,4.9,9"/>
		</g>
	</g>
</g>
<g id="bear-head">
	<ellipse class="st1" cx="-233.9" cy="676.2" rx="98.5" ry="72.2"/>
	<path class="st2" d="M-143.8,661.7l16.1-32.8c8.9-18.1,0.9-40.2-17.7-49.4c-18.7-9.1-41-1.8-49.9,16.3l-16.1,32.8L-143.8,661.7z"/>
	<path class="st0" d="M-157.5,665.3l16.1-32.9c9.5-18.5,12.2-35-7.7-45.3c-19.2-9.9-31.8,0.9-41.7,21.2l-16.1,32.8L-157.5,665.3z"/>
	<path class="st2" d="M-323.5,662.4l-16.1-32.8c-8.9-18.1-0.9-40.2,17.7-49.4c18.7-9.1,41-1.8,49.9,16.3l16.1,32.8L-323.5,662.4z"/>
	<path class="st0" d="M-309.8,666l-16.1-32.8c-9.5-18.5-12.2-35,7.7-45.3c19.2-9.9,31.8,0.9,41.7,21.2l16.1,32.8L-309.8,666z"/>
	<ellipse class="st0" cx="-233.9" cy="672.1" rx="98.5" ry="72.2"/>
	<circle cx="-276" cy="672.1" r="4.1"/>
	<circle cx="-195" cy="672.1" r="4.1"/>
	<g>
		<g>
			<defs>
				<path id="SVGID_1_" d="M-105.2,755.3c0,39.9-105.8,13.1-124.6,13.1c-71.1,0-132.7,26.8-132.7-13.1s57.5-72.2,128.6-72.2
					S-105.2,715.4-105.2,755.3z"/>
			</defs>
			<clipPath id="SVGID_2_">
				<use xlink:href="#SVGID_1_"  style="overflow:visible;"/>
			</clipPath>
			<ellipse class="st3" cx="-233.9" cy="673.2" rx="98.5" ry="72.2"/>
		</g>
	</g>
	<ellipse cx="-233.9" cy="701.9" rx="21.9" ry="12.1"/>
	<path class="st4" d="M-216.3,728.3c-10.1,8.5-17.6,0.1-17.6-5.3v-17.3V723"/>
	<path class="st4" d="M-251.4,728.3c10.1,8.5,17.6,0.1,17.6-5.3"/>
</g>
</svg>
