<?xml version="1.0" encoding="utf-8"?>
<!-- Generator: Adobe Illustrator 19.0.0, SVG Export Plug-In . SVG Version: 6.00 Build 0)  -->
<svg version="1.1" id="bear" xmlns="http://www.w3.org/2000/svg" xmlns:xlink="http://www.w3.org/1999/xlink" x="0px" y="0px"
	 viewBox="-178 278.6 239 284.3" style="enable-background:new -178 278.6 239 284.3;" xml:space="preserve">
<style type="text/css">
	.st0{fill:#E87426;}
	.st1{opacity:0.44;fill:#FFCA06;enable-background:new    ;}
	.st2{fill:#FCF74C;}
	.st3{fill:#010101;}
	.st4{clip-path:url(#SVGID_2_);fill:#FCF74C;}
	.st5{fill:none;stroke:#010101;stroke-width:4;stroke-linecap:round;stroke-linejoin:round;stroke-miterlimit:10;}
</style>
<g id="bear-body">
	<path id="XMLID_64_" class="st0" d="M-16.7,553.7l-43.6,1.6c-23,0-46-2.2-49.8-3.4c-24.4-8.3-17.9-0.5-27.7-4.8
		c-11.7-5.2-22.2,0.1-21.2-7.3c-9.2-76.8,53.3-114.9,103.9-114.9s109,41.9,101.9,119.9c1,7.4-7.6-2.9-19.3,2.2
		c-9.1,4-12.5-1.7-26.3,3.4c-5.3,2-9.2,2.4-16.4,3.2C-15.8,553.7-16.2,553.7-16.7,553.7z"/>
	<g id="XMLID_58_">
		<path id="XMLID_63_" class="st1" d="M-110.6,549.4h-57.9c-1.8,0-3.2-1.6-3.1-3.2c4.7-22.7,15.2-33.3,32-32.4
			c21.2,1.1,31.3,14.8,32,32.5C-107.3,547.9-108.7,549.4-110.6,549.4z"/>
		<path id="XMLID_62_" class="st2" d="M-110.6,556.7h-57.9c-1.8,0-3.2-1.6-3.1-3.2c1.4-20.9,15.2-38.2,32-37.2
			c21.3,1.3,31.1,16.5,32,37.3C-107.3,555.1-108.7,556.7-110.6,556.7z"/>
		<g id="XMLID_59_">
			<path id="XMLID_61_" class="st0" d="M-155.6,551.7c0,4.5-2.3,6.6-5.1,6.6s-5.1-2-5.1-6.6"/>
			<path id="XMLID_60_" class="st0" d="M-165.9,552.6c0-5.1,2.3-9.4,5.1-9.4s5.1,4.2,5.1,9.4"/>
		</g>
	</g>
	<g id="XMLID_55_">
		<path id="XMLID_57_" class="st1" d="M-5.3,554h57.9c1.8,0,3.2-1.6,3.1-3.2c-1.4-20.9-15.2-38.2-32-37.2
			c-21.3,1.3-31.1,16.5-32,37.3C-8.6,552.5-7.1,554-5.3,554z"/>
		<path id="XMLID_56_" class="st2" d="M-6.2,556.4h57.9c1.8,0,3.2-1.6,3.1-3.2c-1.4-20.9-15.2-38.2-32-37.2
			c-21.3,1.3-31.1,16.5-32,37.3C-9.4,554.9-7.9,556.4-6.2,556.4z"/>
	</g>
	<g id="XMLID_52_">
		<path id="XMLID_54_" class="st0" d="M-142.1,551.7c0,4.5-2.3,6.6-5.1,6.6s-5.1-2-5.1-6.6"/>
		<path id="XMLID_53_" class="st0" d="M-152.3,552.6c0-5.1,2.3-9.4,5.1-9.4s5.1,4.2,5.1,9.4"/>
	</g>
	<g id="XMLID_49_">
		<path id="XMLID_51_" class="st0" d="M-128.4,551.7c0,4.5-2.3,6.6-5.1,6.6s-5.1-2-5.1-6.6"/>
		<path id="XMLID_50_" class="st0" d="M-138.6,552.6c0-5.1,2.3-9.4,5.1-9.4s5.1,4.2,5.1,9.4"/>
	</g>
	<g id="XMLID_46_">
		<path id="XMLID_48_" class="st0" d="M-114.4,551.7c0,4.5-2.3,6.6-5.1,6.6s-5.1-2-5.1-6.6"/>
		<path id="XMLID_47_" class="st0" d="M-124.6,552.6c0-5.1,2.3-9.4,5.1-9.4s5.1,4.2,5.1,9.4"/>
	</g>
	<g id="XMLID_33_">
		<g id="XMLID_43_">
			<path id="XMLID_45_" class="st0" d="M7.4,552c0,4.5-2.3,6.6-5.1,6.6s-5.1-2-5.1-6.6"/>
			<path id="XMLID_44_" class="st0" d="M-2.8,552.7c0-5.1,2.3-9.4,5.1-9.4s5.1,4.2,5.1,9.4"/>
		</g>
		<g id="XMLID_40_">
			<path id="XMLID_42_" class="st0" d="M21,552c0,4.5-2.3,6.6-5.1,6.6s-5.1-2-5.1-6.6"/>
			<path id="XMLID_41_" class="st0" d="M10.8,552.7c0-5.1,2.3-9.4,5.1-9.4s5.1,4.2,5.1,9.4"/>
		</g>
		<g id="XMLID_37_">
			<path id="XMLID_39_" class="st0" d="M34.7,552c0,4.5-2.3,6.6-5.1,6.6s-5.1-2-5.1-6.6"/>
			<path id="XMLID_38_" class="st0" d="M24.5,552.7c0-5.1,2.3-9.4,5.1-9.4s5.1,4.2,5.1,9.4"/>
		</g>
		<g id="XMLID_34_">
			<path id="XMLID_36_" class="st0" d="M48.7,552c0,4.5-2.3,6.6-5.1,6.6s-5.1-2-5.1-6.6"/>
			<path id="XMLID_35_" class="st0" d="M38.5,552.7c0-5.1,2.3-9.4,5.1-9.4s5.1,4.2,5.1,9.4"/>
		</g>
	</g>
</g>
<g id="bear-head">
	<ellipse id="XMLID_32_" class="st1" cx="-60.7" cy="433.4" rx="103" ry="75.5"/>
	<path id="XMLID_31_" class="st2" d="M33.5,418.3L50.3,384c9.3-18.9,0.9-42-18.5-51.6c-19.5-9.5-42.9-1.9-52.2,17l-16.8,34.3
		L33.5,418.3z"/>
	<path id="XMLID_30_" class="st0" d="M19.1,422l16.8-34.4c9.9-19.3,12.8-36.6-8-47.4c-20.1-10.3-33.2,0.9-43.6,22.2l-16.8,34.3
		L19.1,422z"/>
	<path id="XMLID_29_" class="st2" d="M-154.4,419l-16.8-34.3c-9.3-18.9-0.9-42,18.5-51.6c19.5-9.5,42.9-1.9,52.2,17l16.8,34.3
		L-154.4,419z"/>
	<path id="XMLID_28_" class="st0" d="M-140.1,422.8l-16.8-34.3c-9.9-19.3-12.8-36.6,8-47.4c20.1-10.3,33.3,1,43.6,22.2l16.8,34.3
		L-140.1,422.8z"/>
	<ellipse id="XMLID_27_" class="st0" cx="-60.7" cy="429.1" rx="103" ry="75.5"/>
	<circle id="XMLID_26_" class="st3" cx="-104.7" cy="429.1" r="4.3"/>
	<circle id="XMLID_25_" class="st3" cx="-20.1" cy="429.1" r="4.3"/>
	<g id="XMLID_18_">
		<g id="XMLID_19_">
			<g id="XMLID_20_">
				<g id="XMLID_21_">
					<g id="XMLID_22_">
						<g>
							<g>
								<g>
									<defs>
										<path id="SVGID_1_" d="M73.8,516.1c0,41.7-110.6,13.7-130.2,13.7c-74.3,0-138.7,28-138.7-13.7s60.1-75.5,134.4-75.5
											S73.8,474.4,73.8,516.1z"/>
									</defs>
									<clipPath id="SVGID_2_">
										<use xlink:href="#SVGID_1_"  style="overflow:visible;"/>
									</clipPath>
									<ellipse id="XMLID_23_" class="st4" cx="-60.7" cy="430.3" rx="103" ry="75.5"/>
								</g>
							</g>
						</g>
					</g>
				</g>
			</g>
		</g>
	</g>
	<ellipse id="XMLID_17_" class="st3" cx="-60.7" cy="460.3" rx="22.9" ry="12.6"/>
	<path id="XMLID_16_" class="st5" d="M-42.3,487.9c-10.6,8.9-18.4,0.1-18.4-5.5v-18.1v18.1"/>
	<path id="XMLID_15_" class="st5" d="M-79,487.9c10.6,8.9,18.4,0.1,18.4-5.5"/>
</g>
</svg>
