<?xml version="1.0" encoding="utf-8"?>
<!-- Generator: Adobe Illustrator 19.0.0, SVG Export Plug-In . SVG Version: 6.00 Build 0)  -->
<svg version="1.1" id="Layer_1" xmlns="http://www.w3.org/2000/svg" xmlns:xlink="http://www.w3.org/1999/xlink" x="0px" y="0px"
	 viewBox="-34 370.3 525.1 100.6" style="enable-background:new -34 370.3 525.1 100.6;" xml:space="preserve">
<style type="text/css">
	.st0{fill:#FFCA07;}
	.st1{opacity:0.7;}
	.st2{opacity:0.1091;fill:#FFFFFF;enable-background:new    ;}
	.st3{fill:#FFFFFF;}
	.st4{fill:none;stroke:#000000;stroke-width:3;stroke-linecap:round;stroke-miterlimit:10;}
	.st5{fill:none;stroke:#E87325;stroke-width:3;stroke-linecap:round;stroke-miterlimit:10;}
</style>
<circle id="XMLID_1_" class="st0" cx="435.8" cy="421" r="49.8"/>
<g id="XMLID_4_" class="st1">
	<g id="XMLID_46_">
		<g id="XMLID_47_">
			<path id="XMLID_59_" class="st2" d="M437.8,380.8c3.3,0,6.5,0.5,9.7,1.3c5.7,1.5,10.9,4.2,15.3,7.9c3.4,2.9,6.3,6.1,8.8,9.8
				c2.4,3.7,4.3,7.9,5.4,12.1c1.7,6.1,1.8,12,1.3,18.2c0,0.4-0.1,1.1,0.4,1.3c0.7,0.3,1.2-1.4,1.3-1.7c0.5-1.5,1-3,1.4-4.5
				c0.3-1.3,0.8-2.6,0.6-3.9c-0.6-5.7-1.6-10.9-3.8-16.2c-2.1-4.9-4.9-9.5-8.4-13.5c-3.1-3.5-6.7-6.5-10.6-9.1
				c-8.2-5.6-18.2-7.9-27.9-8.6c-1.8-0.1,1.1,2.7,1,2.6c1.1,1.1,2.3,2.1,3.5,3.1C436.3,380.2,437,380.6,437.8,380.8z"/>
			<path id="XMLID_58_" class="st2" d="M439.1,377.8c3.2,0,6.4,0.4,9.6,1.2c4,1.8,7.9,3.6,11.9,5.4c4.4,2.7,8,6.7,11,10.9
				c2.6,3.7,4.5,7.6,5.9,11.9c0.7,2.1,1.3,4.3,1.6,6.5c0.7,4.6,0.7,9.2,0,13.9c-0.1,1.1,0.9,1.1,1.4,0.4c0.4-0.8,0.7-1.7,1-2.6
				s0.5-1.8,0.6-2.7c0-4.1-0.1-8-0.9-12c-0.6-3.1-1.5-6.1-2.7-9c-3-7.3-7.8-13.7-13.9-18.7c-3.1-2.6-6.5-4.5-10.1-6.4
				c-6-3.1-12.7-4.2-19.3-4.7c-1.5-0.1,0.1,2,0.2,2.2c0.7,0.9,1.5,1.8,2.3,2.7C438,377.2,438.5,377.6,439.1,377.8z"/>
			<path id="XMLID_57_" class="st2" d="M439.8,380.2c4.9,0.3,9.5,0.8,14.1,2.7c9.9,4.1,18.4,12.2,22.8,21.9c1.5,3.4,2.8,7,3.4,10.6
				c0.8,4.7,0.7,9.2,0.3,13.9c0,0.4-0.1,1,0.3,1.3c0.6,0.4,1.3-1.2,1.4-1.5c0.6-1.4,1.2-2.8,1.7-4.2c0.4-1.1,1-2.4,0.9-3.7
				c-0.1-3.5-0.6-6.9-1.4-10.2c-0.8-3.3-1.9-6.4-3.3-9.4c-2.8-5.9-6.8-11.3-11.6-15.7c-4.9-4.4-10.5-7.8-16.6-10.2
				c-3-1.2-6.2-2.2-9.4-2.8c-3.2-0.8-6.4-1.2-9.6-1.3c-1.9-0.2,1,2.9,1,2.9c1.2,1.3,2.4,2.7,3.7,3.9
				C438.1,379.2,438.9,379.8,439.8,380.2z"/>
			<path id="XMLID_56_" class="st2" d="M442.6,383.5c3.3,0,6.5,0.5,9.7,1.3c5.7,1.6,10.8,4.3,15.3,8.1c3.3,2.9,6.2,6.2,8.5,10
				s4.1,8,5.2,12.3c1.6,6.2,1.4,12.2,0.7,18.5c-0.1,0.8,0.6,1.1,1.2,0.7c0.8-0.5,2-2.6,2-3.5c0.2-4.4,0.4-8.7-0.3-13.1
				c-0.6-3.4-1.4-6.6-2.6-9.8c-3.1-7.8-7.9-14.3-14.4-19.5c-3.2-2.6-6.6-4.6-10.3-6.3c-6.1-2.9-12.7-4.1-19.4-4.6
				c-1.5-0.1,0.3,2.1,0.4,2.2c0.8,0.9,1.6,1.7,2.5,2.5C441.4,383,441.9,383.3,442.6,383.5z"/>
			<path id="XMLID_55_" class="st2" d="M442.5,380.7c4.9,0.4,9.4,0.9,14.1,2.7c4.9,1.7,8.8,4.8,11.9,9.2c4.5,2.8,7.8,6.5,9.9,11.2
				c1.9,4.1,3.4,8.4,4,12.9c0.6,4.8,0.4,9.3-0.1,14.1c-0.1,0.9,0.6,1.1,1.3,0.7c0.5-0.6,0.9-1.3,1.3-2s0.7-1.4,0.9-2.2
				c0.2-4.4,0.2-8.6-0.5-13c-0.7-4.1-1.8-8.3-3.7-12.1c-1.6-3.3-3.3-6.2-5.5-9.1c-3.5-4.6-7.9-8.6-12.8-11.6
				c-3.5-2.2-7.2-4-11.2-5.3c-4.7-1.6-9.4-2.3-14.3-2.7c-1.6-0.1,0.2,2.3,0.4,2.5c0.8,1.1,1.7,2.2,2.6,3.3
				C441.2,379.9,441.8,380.4,442.5,380.7z"/>
			<path id="XMLID_54_" class="st2" d="M438.7,379.7c8.1,0,13.3,0.6,20.7,6.2c2.9,2.2,5.5,4.7,7.8,7.6c2.4,2.7,3.9,5.8,4.8,9.4
				c2.4,3.7,3.8,7.7,4.2,12.1c0.5,4.5,0.2,8.8-0.4,13.3c-0.2,1.6,1.6,1.9,1.8,0.3c0.6-4.6,1-9.1,0.4-13.7c-0.4-3-1-6-2-8.9
				c-1.2-3.7-3-7.2-5.1-10.5c-3.7-5.7-8.6-10.6-14.6-13.8c-1.4-0.8-2.8-1.5-4.3-2s-2.9-1-4.4-1.5c-2.9-0.5-5.8-0.6-8.7-0.3
				C437.8,377.9,437.5,379.7,438.7,379.7z"/>
			<path id="XMLID_53_" class="st2" d="M436.6,380.7c6.1,0.5,12.2,1.5,17.6,4.5c13,7.1,20.2,18.4,22.4,35.7c-0.1-1-0.1-2.1-0.2-3.1
				c0.1,2.6,0.2,5.1,0.2,7.7c0-1.1,0.1-2.1,0.1-3.2c-0.2,2.6-0.4,5.2-0.6,7.8c-0.1,1.3,1,1.1,1.4,0.3c0.3-1,0.6-2.1,0.8-3.2
				s0.4-2.1,0.4-3.2c-0.2-6.2-1-12.2-3.3-18c-2.4-6.2-6.2-11.8-11-16.5c-4.3-4.2-9.4-7.5-15.1-9.7c-5.5-2.2-11-3-16.8-3.5
				c-0.3,0.1-0.5,0.3-0.5,0.6c0.1,0.5,0.4,1,0.9,1.3C433.9,379.2,435.3,380.6,436.6,380.7z"/>
			<path id="XMLID_52_" class="st2" d="M439.3,384.3c3,0.4,6,0.8,9,1.2c1.5,0.5,2.9,0.9,4.4,1.4c3.5,1.3,6.7,3.2,9.7,5.5
				c4.8,3.3,7.8,8.1,9,14.5c4.7,4.5,7.2,9.6,7.5,15.4c0.4,3.9,0.2,7.6-0.2,11.5c-0.1,1.1,0.7,1.3,1.3,0.5c0.5-0.9,0.9-1.8,1.2-2.7
				c0.4-0.9,0.7-1.9,0.9-2.9c-0.1-3.4-0.2-6.7-0.8-10.1c-0.6-3.1-1.5-6.3-2.7-9.3c-2.6-6.4-6.7-12.2-11.8-16.9
				c-4.5-4.2-9.8-7.3-15.5-9.5c-5.5-2.1-11.1-2.9-16.9-3.3c-1.5-0.1,0.7,2.1,0.6,2C436.1,382.8,437.8,384.2,439.3,384.3z"/>
			<path id="XMLID_51_" class="st2" d="M442.3,377.9c6.3,0.5,12,1.3,17.7,4.6c3.3,1.9,6.3,4.1,9,6.8c2.6,2.6,5,5.5,6.9,8.8
				c5.3,9.4,6.7,18.6,5.2,30.4c-0.1,0.6,0.2,1.4,1.1,1.1c0.8-0.3,1.1-1.7,1.1-2.4c0.4-3.3,0.5-4.3,0.5-7.1c0-2.4-0.2-4.6-0.4-7
				c-0.7-6.3-3.2-13.2-6.7-18.5c-4-6.2-9.1-11.3-15.4-15c-2.3-1.4-4.5-2.5-7-3.4c-1.6-0.5-3.1-1-4.7-1.5c-3.1-0.9-6.3-1.4-9.5-1.5
				c-1.2-0.1-0.5,1.4-0.3,1.8C440.2,375.7,441.2,377.8,442.3,377.9z"/>
			<path id="XMLID_50_" class="st2" d="M437.4,383.2c5.4,0.3,10.6,1.3,15.4,3.5c16.3,7.4,25.9,23.1,24,45.9
				c-0.1,1.3,0.9,1.2,1.4,0.3c0.4-1.1,0.8-2.2,1-3.3c0.3-1.1,0.5-2.2,0.6-3.4c-0.2-3.2-0.4-6.4-1-9.6c-0.6-3-1.6-6-2.8-8.8
				c-2.6-6.2-6.5-11.7-11.4-16.3c-4.4-4.1-9.5-7.2-15.2-9.4c-5.5-2.1-10.9-2.8-16.7-3.2c-0.4,0.1-0.5,0.3-0.5,0.7
				c0.2,0.6,0.5,1,1.1,1.3C434.4,381.8,436,383.1,437.4,383.2z"/>
			<path id="XMLID_49_" class="st2" d="M441.5,377.8c3.2,0,6.4,0.4,9.5,1.1c1.5,0.5,3,1,4.4,1.5c2.8,1.1,5.4,2.6,7.9,4.4
				c3,2,5.5,4.6,7.4,7.8c2.6,2.6,4.5,5.5,5.9,8.9c0.9,2,1.6,4.1,2.1,6.2c1.8,6.9,1.7,13.2,0.6,20.3c-0.1,0.5,0.6,0.9,1.1,0.8
				c0.6-0.1,0.8-0.6,0.8-1.2c0.8-5.5,1.1-10.9,0.1-16.5c-1.1-6.7-3.7-13.4-7.9-18.9c-2.8-3.7-6-7.1-9.8-9.8
				c-2.6-1.8-5.3-3.3-8.2-4.6c-4.6-2-9.1-2.4-14-2.7c-0.5,0-1.1,0.2-1.2,0.8C440.2,376.5,441,377.8,441.5,377.8z"/>
			<path id="XMLID_48_" class="st2" d="M437.5,381.1c6.4,0.1,11.2,0.6,17.1,4c1.2,0.8,2.5,1.6,3.7,2.4c3.5,2.4,6.3,5.5,8.2,9.5
				c2.6,2.5,4.5,5.4,5.6,8.6c0.9,1.9,1.5,3.9,2,6c1.3,5.8,1.3,11.3,0.7,17.3c-0.1,0.7-0.2,1.7,0.7,1.8s1-0.9,1.1-1.6
				c0.4-3.5,0.7-5.6,0.5-9.2c-0.2-3-0.6-5.9-1.2-8.8c-1.3-5.7-3.9-11.3-7.4-16c-3.2-4.3-7-7.9-11.5-10.8c-2-1.3-4.1-2.4-6.4-3.3
				c-1.4-0.5-2.9-1-4.3-1.5c-3-0.6-5.9-0.8-8.9-0.6C436.1,379,436.3,381,437.5,381.1z"/>
		</g>
	</g>
</g>
<g id="XMLID_2_" class="st1">
	<g id="XMLID_31_">
		<g id="XMLID_32_">
			<path id="XMLID_44_" class="st2" d="M474.1,429.7c0,2.3-0.2,4.6-0.9,6.8c-1.2,6-4.2,11.2-9,15.7c-3,3-6.8,5.6-10.6,7.4
				c-4.1,1.9-8.4,3.4-12.9,4.1c-4.8,0.7-9.5,0.7-14.4,0.2c-0.4,0-1.1-0.1-1.3,0.3c-0.4,0.6,1.3,1.3,1.6,1.4c1.4,0.7,2.8,1.2,4.2,1.7
				c1.2,0.4,2.4,1,3.7,0.9c1.8-0.1,3.5-0.2,5.3-0.3c3.5-0.5,6.9-1.3,10.2-2.5c6.3-2.2,12.1-5.7,17-10.1c4.7-4.3,8.3-9.5,11-15.3
				c1.3-2.8,2.3-5.7,3-8.7c0.8-2.9,1.3-5.9,1.3-9c0.2-1.9-3,1.2-2.9,1.1c-1.3,1.2-2.5,2.5-3.8,3.8C475,428,474.5,428.8,474.1,429.7z
				"/>
			<path id="XMLID_43_" class="st2" d="M474.8,426.7c-0.1,1.5-0.2,3-0.4,4.5c-0.5,3.4-1.6,6.6-3.4,9.5
				c-8.1,14.7-23.8,21.1-44.1,19.7c-1.4-0.1-1.3,0.9-0.3,1.4c1.2,0.4,2.4,0.7,3.7,1c1.2,0.3,2.5,0.5,3.8,0.6
				c6.5-0.4,12.6-1.3,18.7-3.8c5.5-2.3,10.7-5.6,15-9.8c4.2-4.1,7.5-9.1,9.6-14.6c1.7-4.4,2.4-9,2.8-13.7c0.1-1.6-2.2,0.6-2.2,0.6
				C476.9,423.2,474.9,425.1,474.8,426.7z"/>
			<path id="XMLID_42_" class="st2" d="M476.3,428.9c0,3-0.5,6-1.4,8.9c-0.5,1.3-1,2.7-1.6,4c-3.1,7-9.1,12.4-15.7,16.1
				c-4,2.2-8.2,3.7-12.6,4.7c-5.6,1.2-10.9,1.2-16.6,0.7c-1.3-0.1-1.5,0.7-0.4,1.4c1.2,0.5,2.4,1,3.6,1.4s2.5,0.8,3.8,1
				c5.4-0.2,10.7-0.7,15.9-2.5c4.5-1.5,8.8-3.6,12.8-6.3c4-2.7,7.8-6.1,10.7-10c2.7-3.7,5.2-7.8,6.7-12.2c0.5-1.5,0.9-3,1.4-4.4
				c0.8-2.9,1.3-5.9,1.4-8.9c0.2-1.8-2.7,0.8-2.7,0.8c-1.2,1.1-2.4,2.2-3.5,3.3C477.1,427.4,476.6,428.1,476.3,428.9z"/>
			<path id="XMLID_41_" class="st2" d="M477,432.8c0,2.2-0.2,4.4-0.8,6.5c-0.4,2.1-1.1,4.1-2.1,6c-1.9,3.8-4.7,7.5-7.9,10.2
				c-6.8,5.7-15.4,9.3-24.2,10.1c-4.8,0.4-9.5,0-14.3-0.5c-0.5-0.1-1,0.3-1,0.9s0.7,1,1.2,1.1c4.2,0.5,8.3,0.8,12.5,0.6
				c2.5-0.2,5-0.5,7.4-0.9c4.1-0.8,7.9-2.2,11.6-4.1c6.3-3.1,12.1-7.8,16-13.7c1.7-2.5,3-5.5,4-8.3c1.1-3.3,1.2-5.7,1.6-9.1
				C481,429.5,477.1,431.6,477,432.8z"/>
			<path id="XMLID_40_" class="st2" d="M477.6,430c0,4.3-0.9,8.4-2.8,12.3c-1.2,2.6-2.8,5-4.7,7.1c-10,11.6-25.7,14.9-41.2,13.3
				c-0.8-0.1-0.8,1-0.4,1.4c0.7,0.7,2.5,1,3.5,1.1c4.7,0.3,9.2,0.2,13.9-0.4c4.8-0.7,10-2.3,14.2-4.6c6.2-3.2,11.5-7.6,15.6-13.4
				c2.2-3.1,3.8-6.5,5-10.2c1-3.1,1.3-5.9,1.6-9.2c0.1-1.2-1.5-0.4-1.8-0.2C479.5,427.8,477.7,428.9,477.6,430z"/>
			<path id="XMLID_39_" class="st2" d="M471,426.9c0.2,3.6-0.7,6.9-2.5,10.1c-5,17.1-19.8,24.7-44.4,22.6c-0.7-0.1-2.5,0-1.5,1.1
				c0.4,0.5,1.3,0.6,1.9,0.7c1,0.2,2.1,0.5,3.1,0.5c5.9,0.1,11.3-0.4,17.1-2c4.4-1.2,8.7-3.3,12.5-5.8c3.6-2.4,6.6-5.2,9.3-8.5
				c1.7-2,3.2-4.7,4.3-7.2c1.9-4.3,2.5-8.5,2.9-13.1c0-0.6-0.7-1-1.2-0.8C471.9,424.8,471.1,426.2,471,426.9z"/>
			<path id="XMLID_38_" class="st2" d="M472.1,429.2c0,4.2-0.9,8.3-2.7,12.2c-1.2,2.6-2.7,4.9-4.5,7.1c-2.8,3.3-6,6-9.7,8.3
				s-8,4-12.2,5.1c-6.3,1.6-12.4,1.6-18.8,1c-0.4,0-1-0.1-1.2,0.3c-0.3,0.6,1.1,1.2,1.4,1.4c1.2,0.6,2.5,1.1,3.8,1.5
				c1.1,0.4,2.2,0.8,3.4,0.8c5.3-0.2,10.3-0.9,15.3-2.7c5.3-1.9,10.1-4.5,14.5-8c4.9-3.8,8.7-8.5,11.6-13.9c1-2,2-4,2.8-6.1
				c1.6-4.4,2.3-8.9,2.7-13.6c0.2-1.8-2.6,1.2-2.4,1c-1,1.1-1.9,2.3-2.7,3.4C472.6,427.7,472.2,428.4,472.1,429.2z"/>
			<path id="XMLID_37_" class="st2" d="M474.2,433c0,3-0.5,6-1.4,8.9c-2,3.5-4,7.1-6,10.6c-3.1,4-7.5,7-11.9,9.3
				c-4.1,2.1-8.4,3.5-12.9,4.3c-5.7,1-11.1,0.8-16.8,0c-0.7-0.1-1,0.8-0.7,1.3c0.4,0.7,2.2,1.5,3.1,1.6c3.5,0.3,6.9,0.6,10.5,0.4
				c4.3-0.2,8.5-1.2,12.7-2.6c3.2-1.1,6.2-2.5,9.1-4.2c3.4-2,7-4.6,9.6-7.6c2.1-2.5,3.9-5,5.6-7.7c1.4-2.2,2.3-4.5,3.1-7
				c0.6-1.4,1-2.9,1.3-4.4c0.6-2.2,1-4.4,1-6.7c0.1-1.5-2-0.1-2.2,0.1c-1,0.7-1.9,1.4-2.8,2.1C474.8,431.9,474.4,432.4,474.2,433z"
				/>
			<path id="XMLID_36_" class="st2" d="M476,427.3c-0.3,4.4-0.8,8.6-2.9,12.6c-2.4,3.2-4.8,6.3-7.3,9.5
				c-9.8,8.7-22.2,12.1-37.1,10.2c-0.7-0.1-1.6,0.1-1.3,1.1c0.3,0.9,2.4,0.9,3.1,1c4.7,0.3,9.3,0.4,14-0.4c4.3-0.7,8.5-2,12.5-3.8
				c5.4-2.5,10.7-6.3,14.4-11c1.8-2.3,3.4-4.6,4.6-7.3c0.5-1.4,1-2.7,1.6-4.1c0.8-2.8,1.2-5.6,1.2-8.4
				C478.9,424.5,476.1,426.1,476,427.3z"/>
			<path id="XMLID_35_" class="st2" d="M472.6,431.7c0,3.1-0.5,6-1.4,8.9c-1.9,3.5-3.9,7-5.8,10.4c-3,4-7.3,7-11.7,9.3
				c-4,2.2-8.2,3.6-12.7,4.5c-2.3,0.5-4.6,0.8-7,0.9c-3.3,0.2-6.5,0-9.8-0.5c-1-0.1-1.3,0.5-0.6,1.3c0.8,0.6,1.6,1,2.5,1.5
				s1.7,0.8,2.7,1.1c3.7,0.1,7,0.3,10.7-0.3c2-0.3,4-0.7,5.9-1.2c4.9-1.4,9.7-3.4,13.9-6.3c4.1-2.7,7.7-6,10.8-9.8
				c2.5-3,4.3-6.6,5.9-10.1c1-2.1,1.8-4.3,2.3-6.5c0.9-2.9,1.3-5.9,1.4-8.9c0.2-1.7-2.5,0.7-2.5,0.7c-1.1,1-2.1,2-3.1,3.1
				C473.3,430.3,472.8,430.9,472.6,431.7z"/>
			<path id="XMLID_34_" class="st2" d="M474.3,426.3c0,4.3-1,8.5-2.9,12.4c-1.7,3.8-4.4,6.7-8.1,8.9c-2.6,3.2-5.8,5.6-9.6,7.1
				c-8.1,3.5-16.7,4.6-25.8,3.5c-0.6-0.1-2-0.4-2.2,0.6c-0.1,1,1.3,1.1,1.9,1.2c4.7,0.4,9.3,0.5,14,0c6.5-0.8,12.9-3.2,18.4-6.7
				c3.1-2,6-4.3,8.5-7.1c2.8-3.2,5.2-7,6.5-11.1c1.1-3.2,1.2-5.9,1.5-9.3c0-0.5-0.7-1-1.1-0.9C474.9,424.9,474.3,425.8,474.3,426.3z
				"/>
			<path id="XMLID_33_" class="st2" d="M470.4,427.9c0.1,2.3-0.2,4.5-0.9,6.7c-3.7,18.2-19.5,27-47.3,26.4c-1-0.1-1,0.9-0.4,1.4
				c0.8,0.4,1.6,0.7,2.4,0.9c0.8,0.3,1.7,0.5,2.5,0.6c5.1,0,9.8-0.2,14.7-1.5c2.8-0.7,5.2-1.6,7.8-2.7c3.6-1.6,6.8-3.6,9.9-6
				c2.9-2.3,5.6-5,7.7-8c1.6-2.3,3.1-4.9,4.1-7.4c0.4-1.4,0.9-2.7,1.3-4.1c0.8-2.8,1.2-5.8,1.3-8.7c0.1-0.8-0.5-1.1-1.2-0.8
				C471.7,425,470.4,427.1,470.4,427.9z"/>
		</g>
	</g>
</g>
<circle id="XMLID_3_" class="st3" cx="416" cy="409.2" r="8.7"/>
<circle id="XMLID_6_" cx="415.2" cy="409.4" r="2.7"/>
<path id="XMLID_9_" class="st4" d="M452.5,433.5c-2.4,7.3-9.1,12.6-17.2,12.8c-8.6,0.2-16-5.6-18.2-13.5"/>
<path id="XMLID_8_" class="st5" d="M432,418.7c1,3.4-1.9,7.8,0.6,10.3c1.6,1.6,4.8,0.9,5.5-1.2"/>
<circle id="XMLID_7_" class="st3" cx="455.8" cy="409.2" r="8.7"/>
<circle id="XMLID_5_" cx="455" cy="409.4" r="2.7"/>
<circle id="XMLID_20_" class="st0" cx="16.2" cy="420.7" r="49.8"/>
<g id="XMLID_19_" class="st1">
	<g id="XMLID_85_">
		<g id="XMLID_86_">
			<path id="XMLID_98_" class="st2" d="M18.2,380.5c3.3,0,6.5,0.5,9.7,1.3c5.7,1.5,10.9,4.2,15.3,7.9c3.4,2.9,6.3,6.1,8.8,9.8
				c2.4,3.7,4.3,7.9,5.4,12.1c1.7,6.1,1.8,12,1.3,18.2c0,0.4-0.1,1.1,0.4,1.3c0.7,0.3,1.2-1.4,1.3-1.7c0.5-1.5,1-3,1.4-4.5
				c0.3-1.3,0.8-2.6,0.6-3.9c-0.6-5.7-1.6-10.9-3.8-16.2c-2.1-4.9-4.9-9.5-8.4-13.5c-3.1-3.5-6.7-6.5-10.6-9.1
				c-8.2-5.5-18.2-7.8-27.9-8.6c-1.8-0.1,1.1,2.7,1,2.6c1.1,1.1,2.3,2.1,3.5,3.1C16.7,379.8,17.4,380.3,18.2,380.5z"/>
			<path id="XMLID_97_" class="st2" d="M19.5,377.5c3.2,0,6.4,0.4,9.6,1.2c4,1.8,7.9,3.6,11.9,5.4c4.4,2.7,8,6.7,11,10.9
				c2.6,3.7,4.5,7.6,5.9,11.9c0.7,2.1,1.3,4.3,1.6,6.5c0.7,4.6,0.7,9.2,0,13.9c-0.1,1.1,0.9,1.1,1.4,0.4c0.4-0.8,0.7-1.7,1-2.6
				s0.5-1.8,0.6-2.7c0-4.1-0.1-8-0.9-12c-0.6-3.1-1.5-6.1-2.7-9c-3-7.3-7.8-13.7-13.9-18.7c-3.1-2.6-6.5-4.5-10.1-6.4
				c-6-3.1-12.7-4.2-19.3-4.7c-1.5-0.1,0.1,2,0.2,2.2c0.6,0.8,1.4,1.7,2.2,2.6C18.4,376.9,18.9,377.3,19.5,377.5z"/>
			<path id="XMLID_96_" class="st2" d="M20.2,379.8c4.9,0.3,9.5,0.8,14.1,2.7c9.9,4.1,18.4,12.2,22.8,21.9c1.5,3.4,2.8,7,3.4,10.6
				c0.8,4.7,0.7,9.2,0.3,13.9c0,0.4-0.1,1,0.3,1.3c0.6,0.4,1.3-1.2,1.4-1.5c0.6-1.4,1.2-2.8,1.7-4.2c0.4-1.1,1-2.4,0.9-3.7
				c-0.1-3.5-0.6-6.9-1.4-10.2c-0.8-3.3-1.9-6.4-3.3-9.4c-2.8-5.9-6.8-11.3-11.6-15.7c-4.8-4.4-10.5-7.7-16.6-10.1
				c-3-1.2-6.2-2.2-9.4-2.8c-3.2-0.8-6.4-1.2-9.6-1.3c-1.9-0.2,1,2.9,1,2.9c1.2,1.3,2.4,2.7,3.7,3.9
				C18.6,378.9,19.3,379.4,20.2,379.8z"/>
			<path id="XMLID_95_" class="st2" d="M23,383.1c3.3,0,6.5,0.5,9.7,1.3c5.7,1.6,10.8,4.3,15.3,8.1c3.3,2.9,6.2,6.2,8.5,10
				s4.1,8,5.2,12.3c1.6,6.2,1.4,12.2,0.7,18.5c-0.1,0.8,0.6,1.1,1.2,0.7c0.8-0.5,2-2.6,2-3.5c0.2-4.4,0.4-8.7-0.3-13.1
				c-0.6-3.4-1.4-6.6-2.6-9.8c-3.1-7.8-7.9-14.3-14.4-19.5c-3.2-2.6-6.6-4.6-10.3-6.3c-6.2-2.7-12.8-3.9-19.5-4.4
				c-1.5-0.1,0.3,2.1,0.4,2.2c0.8,0.9,1.6,1.7,2.5,2.5C21.8,382.7,22.3,383,23,383.1z"/>
			<path id="XMLID_94_" class="st2" d="M22.9,380.4c4.9,0.4,9.4,0.9,14.1,2.7c4.9,1.7,8.8,4.8,11.9,9.2c4.5,2.8,7.8,6.5,9.9,11.2
				c1.9,4.1,3.4,8.4,4,12.9c0.6,4.8,0.4,9.3-0.1,14.1c-0.1,0.9,0.6,1.1,1.3,0.7c0.5-0.6,0.9-1.3,1.3-2s0.7-1.4,0.9-2.2
				c0.2-4.4,0.2-8.6-0.5-13c-0.7-4.1-1.8-8.3-3.7-12.1c-1.6-3.3-3.3-6.2-5.5-9.1c-3.5-4.6-7.9-8.6-12.8-11.6
				c-3.5-2.2-7.2-4-11.2-5.3c-4.7-1.6-9.4-2.3-14.3-2.7c-1.6-0.1,0.2,2.3,0.4,2.5c0.8,1.1,1.7,2.2,2.6,3.3
				C21.6,379.6,22.2,380.1,22.9,380.4z"/>
			<path id="XMLID_93_" class="st2" d="M19.1,379.4c8.1,0,13.3,0.6,20.7,6.2c2.9,2.2,5.5,4.7,7.8,7.6c2.4,2.7,3.9,5.8,4.8,9.4
				c2.4,3.7,3.8,7.7,4.2,12.1c0.5,4.5,0.2,8.8-0.4,13.3c-0.2,1.6,1.6,1.9,1.8,0.3c0.6-4.6,1-9.1,0.4-13.7c-0.4-3-1-6-2-8.9
				c-1.2-3.7-3-7.2-5.1-10.5c-3.7-5.7-8.6-10.6-14.6-13.8c-1.4-0.8-2.8-1.5-4.3-2s-2.9-1-4.4-1.5c-2.9-0.5-5.8-0.6-8.7-0.3
				C18.2,377.5,17.9,379.4,19.1,379.4z"/>
			<path id="XMLID_92_" class="st2" d="M17.1,380.4c6.1,0.5,12.2,1.5,17.6,4.5c13,7.1,20.2,18.4,22.4,35.7c-0.1-1-0.1-2.1-0.2-3.1
				c0.1,2.6,0.2,5.1,0.2,7.7c0-1.1,0.1-2.1,0.1-3.2c-0.2,2.6-0.4,5.2-0.6,7.8c-0.1,1.3,1,1.1,1.4,0.3c0.3-1,0.6-2.1,0.8-3.2
				s0.4-2.1,0.4-3.2c-0.2-6.2-1-12.2-3.3-18c-2.4-6.2-6.2-11.8-11-16.5c-4.3-4.2-9.4-7.5-15.1-9.7c-5.5-2.2-11-3-16.8-3.5
				c-0.3,0.1-0.5,0.3-0.5,0.6c0.1,0.5,0.4,1,0.9,1.3C14.3,378.8,15.7,380.3,17.1,380.4z"/>
			<path id="XMLID_91_" class="st2" d="M19.7,384c3,0.4,6,0.8,9,1.2c1.5,0.5,2.9,0.9,4.4,1.4c3.5,1.3,6.7,3.2,9.7,5.5
				c4.8,3.3,7.8,8.1,9,14.5c4.7,4.5,7.2,9.6,7.5,15.4c0.4,3.9,0.2,7.6-0.2,11.5c-0.1,1.1,0.7,1.3,1.3,0.5c0.5-0.9,0.9-1.8,1.2-2.7
				c0.4-0.9,0.7-1.9,0.9-2.9c-0.1-3.4-0.2-6.7-0.8-10.1c-0.6-3.1-1.5-6.3-2.7-9.3c-2.6-6.4-6.7-12.2-11.8-16.9
				c-4.5-4.2-9.8-7.3-15.5-9.5c-5.5-2.1-11.1-2.9-16.9-3.3c-1.5-0.1,0.7,2.1,0.6,2C16.6,382.4,18.2,383.9,19.7,384z"/>
			<path id="XMLID_90_" class="st2" d="M22.7,377.6c6.3,0.5,12,1.3,17.7,4.6c3.3,1.9,6.3,4.1,9,6.8c2.6,2.6,5,5.5,6.9,8.8
				c5.3,9.4,6.7,18.6,5.2,30.4c-0.1,0.6,0.2,1.4,1.1,1.1c0.8-0.3,1.1-1.7,1.1-2.4c0.4-3.3,0.5-4.3,0.5-7.1c0-2.4-0.2-4.6-0.4-7
				c-0.7-6.3-3.2-13.2-6.7-18.5c-4-6.2-9.1-11.3-15.4-15c-2.3-1.4-4.5-2.5-7-3.4c-1.6-0.5-3.1-1-4.7-1.5c-3.1-0.9-6.3-1.4-9.5-1.5
				c-1.2-0.1-0.5,1.4-0.3,1.8C20.6,375.3,21.6,377.5,22.7,377.6z"/>
			<path id="XMLID_89_" class="st2" d="M17.9,382.9c5.4,0.3,10.6,1.3,15.4,3.5c16.3,7.4,25.9,23,24,45.9c-0.1,1.3,0.9,1.2,1.4,0.3
				c0.4-1.1,0.8-2.2,1-3.3c0.3-1.1,0.5-2.2,0.6-3.4c-0.2-3.2-0.4-6.4-1-9.6c-0.6-3-1.6-6-2.8-8.8c-2.6-6.2-6.5-11.7-11.4-16.3
				c-4.4-4.1-9.5-7.2-15.2-9.4c-5.5-2.1-10.9-2.8-16.7-3.2c-0.4,0.1-0.5,0.3-0.5,0.7c0.2,0.6,0.5,1,1.1,1.3
				C14.8,381.4,16.4,382.8,17.9,382.9z"/>
			<path id="XMLID_88_" class="st2" d="M21.9,377.5c3.2,0,6.4,0.4,9.5,1.1c1.5,0.5,3,1,4.4,1.5c2.8,1.1,5.4,2.6,7.9,4.4
				c3,2,5.5,4.6,7.4,7.8c2.6,2.6,4.5,5.5,5.9,8.9c0.9,2,1.6,4.1,2.1,6.2c1.8,6.9,1.7,13.2,0.6,20.3c-0.1,0.5,0.6,0.9,1.1,0.8
				c0.6-0.1,0.8-0.6,0.8-1.2c0.8-5.5,1.1-10.9,0.1-16.5c-1.1-6.7-3.7-13.4-7.9-18.9c-2.8-3.7-6-7.1-9.8-9.8
				c-2.6-1.8-5.3-3.3-8.2-4.6c-4.6-2-9.1-2.4-14-2.7c-0.5,0-1.1,0.2-1.2,0.8C20.7,376.1,21.5,377.4,21.9,377.5z"/>
			<path id="XMLID_87_" class="st2" d="M17.9,380.7c6.4,0.1,11.2,0.6,17.1,4c1.2,0.8,2.5,1.6,3.7,2.4c3.5,2.4,6.3,5.5,8.2,9.5
				c2.6,2.5,4.5,5.4,5.6,8.6c0.9,1.9,1.5,3.9,2,6c1.3,5.8,1.3,11.3,0.7,17.3c-0.1,0.7-0.2,1.7,0.7,1.8c0.9,0.1,1-0.9,1.1-1.6
				c0.4-3.5,0.7-5.6,0.5-9.2c-0.2-3-0.6-5.9-1.2-8.8c-1.3-5.7-3.9-11.3-7.4-16c-3.2-4.3-7-7.9-11.5-10.8c-2-1.3-4.1-2.4-6.4-3.3
				c-1.4-0.5-2.9-1-4.3-1.5c-3-0.6-5.9-0.8-8.9-0.6C16.5,378.7,16.7,380.7,17.9,380.7z"/>
		</g>
	</g>
</g>
<g id="XMLID_18_" class="st1">
	<g id="XMLID_70_">
		<g id="XMLID_71_">
			<path id="XMLID_83_" class="st2" d="M54.6,429.3c0,2.3-0.2,4.6-0.9,6.8c-1.2,6-4.2,11.2-9,15.7c-3,3-6.8,5.6-10.6,7.4
				c-4.1,1.9-8.4,3.4-12.9,4.1c-4.8,0.7-9.5,0.7-14.4,0.2c-0.4,0-1.1-0.1-1.3,0.3c-0.4,0.6,1.3,1.3,1.6,1.4c1.4,0.7,2.8,1.2,4.2,1.7
				c1.2,0.4,2.4,1,3.7,0.9c1.8-0.1,3.5-0.2,5.3-0.3c3.5-0.5,6.9-1.3,10.2-2.5c6.3-2.2,12.1-5.7,17-10.1c4.7-4.3,8.3-9.5,11-15.3
				c1.3-2.8,2.3-5.7,3-8.7c0.8-2.9,1.3-5.9,1.3-9c0.2-1.9-3,1.2-2.9,1.1c-1.3,1.2-2.5,2.5-3.8,3.8C55.5,427.7,54.9,428.4,54.6,429.3
				z"/>
			<path id="XMLID_82_" class="st2" d="M55.2,426.3c-0.1,1.5-0.2,3-0.4,4.5c-0.5,3.4-1.6,6.6-3.4,9.5C43.3,455,27.6,461.4,7.3,460
				c-1.4-0.1-1.3,0.9-0.3,1.4c1.2,0.4,2.4,0.7,3.7,1c1.2,0.3,2.5,0.5,3.8,0.6c6.5-0.4,12.6-1.3,18.7-3.8c5.5-2.3,10.7-5.6,15-9.8
				c4.2-4,7.5-9,9.6-14.5c1.7-4.4,2.4-9,2.8-13.7c0.1-1.6-2.2,0.6-2.2,0.6C57.4,422.9,55.3,424.7,55.2,426.3z"/>
			<path id="XMLID_81_" class="st2" d="M56.7,428.5c0,3-0.5,6-1.4,8.9c-0.5,1.3-1,2.7-1.6,4c-3.1,7.1-9.1,12.4-15.7,16.1
				c-4,2.2-8.2,3.7-12.6,4.7c-5.6,1.2-10.9,1.2-16.6,0.7c-1.3-0.1-1.5,0.7-0.4,1.4c1.2,0.5,2.4,1,3.6,1.4s2.5,0.8,3.8,1
				c5.4-0.2,10.7-0.7,15.9-2.5c4.5-1.5,8.8-3.6,12.8-6.3c4-2.7,7.8-6.1,10.7-10c2.7-3.7,5.2-7.8,6.7-12.2c0.5-1.5,0.9-3,1.4-4.4
				c0.8-2.9,1.3-5.9,1.4-8.9c0.2-1.8-2.7,0.8-2.7,0.8c-1.2,1.1-2.4,2.2-3.5,3.3C57.6,427.1,57.1,427.7,56.7,428.5z"/>
			<path id="XMLID_80_" class="st2" d="M57.4,432.4c0,2.2-0.2,4.4-0.8,6.5c-0.4,2.1-1.1,4.1-2.1,6c-1.9,3.8-4.7,7.5-7.9,10.2
				c-6.8,5.7-15.4,9.3-24.2,10.1c-4.8,0.4-9.5,0-14.3-0.5c-0.5-0.1-1,0.3-1,0.9s0.7,1,1.2,1.1c4.2,0.5,8.3,0.8,12.5,0.6
				c2.5-0.2,5-0.5,7.4-0.9c4.1-0.8,7.9-2.2,11.6-4.1c6.3-3.1,12.1-7.8,16-13.7c1.7-2.5,3-5.5,4-8.3c1.1-3.3,1.2-5.7,1.6-9.1
				C61.4,429.2,57.5,431.3,57.4,432.4z"/>
			<path id="XMLID_79_" class="st2" d="M58,429.7c0,4.3-0.9,8.4-2.8,12.3c-1.2,2.6-2.8,5-4.7,7.1c-10,11.6-25.7,14.9-41.3,13.3
				c-0.8-0.1-0.8,1-0.4,1.4c0.7,0.7,2.5,1,3.5,1.1c4.7,0.3,9.2,0.2,13.9-0.4c4.8-0.7,10-2.3,14.2-4.6c6.2-3.2,11.5-7.6,15.6-13.4
				c2.2-3.1,3.8-6.5,5-10.2c1-3.1,1.3-5.9,1.6-9.2c0.1-1.2-1.5-0.4-1.8-0.2C59.9,427.5,58.1,428.6,58,429.7z"/>
			<path id="XMLID_78_" class="st2" d="M51.5,426.6c0.2,3.6-0.7,6.9-2.5,10.1c-5,17.1-19.8,24.7-44.4,22.6c-0.7-0.1-2.5,0-1.5,1.1
				c0.4,0.5,1.3,0.6,1.9,0.7c1,0.2,2.1,0.5,3.1,0.5c5.9,0.1,11.3-0.4,17.1-2c4.4-1.2,8.7-3.3,12.5-5.8c3.6-2.4,6.6-5.2,9.3-8.5
				c1.7-2,3.2-4.7,4.3-7.2c1.9-4.3,2.5-8.5,2.9-13.1c0-0.6-0.7-1-1.2-0.8C52.3,424.5,51.5,425.9,51.5,426.6z"/>
			<path id="XMLID_77_" class="st2" d="M52.5,428.9c0,4.2-0.9,8.3-2.7,12.2c-1.2,2.6-2.7,4.9-4.5,7.1c-2.8,3.3-6,6-9.7,8.3
				s-8,4-12.2,5.1c-6.3,1.6-12.4,1.6-18.8,1c-0.4,0-1-0.1-1.2,0.3c-0.3,0.6,1.1,1.2,1.4,1.4c1.2,0.6,2.5,1.1,3.8,1.5
				c1.1,0.4,2.2,0.8,3.4,0.8c5.3-0.2,10.3-0.9,15.3-2.7c5.3-1.9,10.1-4.5,14.5-8c4.9-3.8,8.7-8.5,11.6-13.9c1-2,2-4,2.8-6.1
				c1.6-4.4,2.3-8.9,2.7-13.6c0.2-1.8-2.6,1.2-2.4,1c-1,1.1-1.9,2.3-2.7,3.4C53,427.4,52.6,428.1,52.5,428.9z"/>
			<path id="XMLID_76_" class="st2" d="M54.6,432.6c0,3-0.5,6-1.4,8.9c-2,3.5-4,7.1-6,10.6c-3.1,4-7.5,7-11.9,9.3
				c-4.1,2.1-8.4,3.5-12.9,4.3c-5.7,1-11.1,0.8-16.8,0c-0.7-0.1-1,0.8-0.7,1.3c0.4,0.7,2.2,1.5,3.1,1.6c3.5,0.3,6.9,0.6,10.5,0.4
				c4.3-0.2,8.5-1.2,12.7-2.6c3.2-1.1,6.2-2.5,9.1-4.2c3.4-2,7-4.6,9.6-7.6c2.1-2.5,3.9-5,5.6-7.7c1.4-2.2,2.3-4.5,3.1-7
				c0.6-1.4,1-2.9,1.3-4.4c0.6-2.2,1-4.4,1-6.7c0.1-1.5-2-0.1-2.2,0.1c-1,0.7-1.9,1.4-2.8,2.1C55.3,431.5,54.9,432,54.6,432.6z"/>
			<path id="XMLID_75_" class="st2" d="M56.4,426.9c-0.3,4.4-0.8,8.6-2.9,12.6c-2.4,3.2-4.8,6.3-7.3,9.5c-9.8,8.6-22.2,12-37.1,10.1
				c-0.7-0.1-1.6,0.1-1.3,1.1c0.3,0.9,2.4,0.9,3.1,1c4.7,0.3,9.3,0.4,14-0.4c4.3-0.7,8.5-2,12.5-3.8c5.4-2.5,10.7-6.3,14.4-11
				c1.8-2.3,3.4-4.6,4.6-7.3c0.5-1.4,1-2.7,1.6-4.1c0.8-2.8,1.2-5.6,1.2-8.4C59.3,424.1,56.5,425.8,56.4,426.9z"/>
			<path id="XMLID_74_" class="st2" d="M53,431.3c0,3.1-0.5,6-1.4,8.9c-1.9,3.5-3.9,7-5.8,10.4c-3,4-7.3,7-11.7,9.3
				c-4,2.2-8.2,3.6-12.7,4.5c-2.3,0.5-4.6,0.8-7,0.9c-3.3,0.2-6.5,0-9.8-0.5c-1-0.1-1.3,0.5-0.6,1.3c0.8,0.6,1.6,1,2.5,1.5
				s1.7,0.8,2.7,1.1c3.7,0.1,7,0.3,10.7-0.3c2-0.3,4-0.7,5.9-1.2c4.9-1.4,9.7-3.4,13.9-6.3c4.1-2.7,7.7-6,10.8-9.8
				c2.5-3,4.3-6.6,5.9-10.1c1-2.1,1.8-4.3,2.3-6.5c0.9-2.9,1.3-5.9,1.4-8.9c0.2-1.7-2.5,0.7-2.5,0.7c-1.1,1-2.1,2-3.1,3.1
				C53.7,429.9,53.2,430.6,53,431.3z"/>
			<path id="XMLID_73_" class="st2" d="M54.7,425.9c0,4.3-1,8.5-2.9,12.4c-1.7,3.8-4.4,6.7-8.1,8.9c-2.6,3.2-5.8,5.6-9.6,7.1
				c-8.1,3.5-16.7,4.6-25.8,3.5c-0.6-0.1-2-0.4-2.2,0.6c-0.1,1,1.3,1.1,1.9,1.2c4.7,0.4,9.3,0.5,14,0c6.5-0.8,12.9-3.2,18.4-6.7
				c3.1-2,6-4.3,8.5-7.1c2.8-3.2,5.2-7,6.5-11.1c1.1-3.2,1.2-5.9,1.5-9.3c0-0.5-0.7-1-1.1-0.9C55.3,424.6,54.7,425.5,54.7,425.9z"/>
			<path id="XMLID_72_" class="st2" d="M50.8,427.6c0.1,2.3-0.2,4.5-0.9,6.7c-3.7,18.1-19.5,26.9-47.2,26.4c-1-0.1-1,0.9-0.4,1.4
				c0.8,0.4,1.6,0.7,2.4,0.9c0.8,0.3,1.7,0.5,2.5,0.6c5.1,0,9.8-0.2,14.7-1.5c2.8-0.7,5.2-1.6,7.8-2.7c3.6-1.6,6.8-3.6,9.9-6
				c2.9-2.3,5.6-5,7.7-8c1.6-2.3,3.1-4.9,4.1-7.4c0.4-1.4,0.9-2.7,1.3-4.1c0.8-2.8,1.2-5.8,1.3-8.7c0.1-0.8-0.5-1.1-1.2-0.8
				C52.2,424.7,50.9,426.7,50.8,427.6z"/>
		</g>
	</g>
</g>
<circle id="XMLID_15_" class="st3" cx="-3.6" cy="408.9" r="8.7"/>
<circle id="XMLID_14_" cx="-3.4" cy="413.1" r="2.7"/>
<path id="XMLID_13_" class="st4" d="M3,449.8c3.3-5.4,8.3-8.9,14-9.1c6-0.1,11.4,3.5,14.9,9.3"/>
<path id="XMLID_12_" class="st5" d="M12.4,418.3c1,3.4-1.9,7.8,0.6,10.3c1.6,1.6,4.8,0.9,5.5-1.2"/>
<circle id="XMLID_11_" class="st3" cx="36.2" cy="408.9" r="8.7"/>
<circle id="XMLID_10_" cx="36.4" cy="413.1" r="2.7"/>
<circle id="XMLID_45_" class="st0" cx="226" cy="420.7" r="49.8"/>
<g id="XMLID_30_" class="st1">
	<g id="XMLID_124_">
		<g id="XMLID_125_">
			<path id="XMLID_137_" class="st2" d="M228,380.6c3.3,0,6.5,0.5,9.7,1.3c5.7,1.5,10.9,4.2,15.3,7.9c3.4,2.9,6.3,6.1,8.8,9.8
				c2.4,3.7,4.3,7.9,5.4,12.1c1.7,6.1,1.8,12,1.3,18.2c0,0.4-0.1,1.1,0.4,1.3c0.7,0.3,1.2-1.4,1.3-1.7c0.5-1.5,1-3,1.4-4.5
				c0.3-1.3,0.8-2.6,0.6-3.9c-0.6-5.7-1.6-10.9-3.8-16.2c-2.1-4.9-4.9-9.5-8.4-13.5c-3.1-3.5-6.7-6.5-10.6-9.1
				c-8.2-5.6-18.2-7.9-27.9-8.6c-1.8-0.1,1.1,2.7,1,2.6c1.1,1.1,2.3,2.1,3.5,3.1C226.5,379.9,227.2,380.3,228,380.6z"/>
			<path id="XMLID_136_" class="st2" d="M229.3,377.5c3.2,0,6.4,0.4,9.6,1.2c4,1.8,7.9,3.6,11.9,5.4c4.4,2.7,8,6.7,11,10.9
				c2.6,3.7,4.5,7.6,5.9,11.9c0.7,2.1,1.3,4.3,1.6,6.5c0.7,4.6,0.7,9.2,0,13.9c-0.1,1.1,0.9,1.1,1.4,0.4c0.4-0.8,0.7-1.7,1-2.6
				s0.5-1.8,0.6-2.7c0-4.1-0.1-8-0.9-12c-0.6-3.1-1.5-6.1-2.7-9c-3-7.3-7.8-13.7-13.9-18.7c-3.1-2.6-6.5-4.5-10.1-6.4
				c-6-3.1-12.7-4.2-19.3-4.7c-1.5-0.1,0.1,2,0.2,2.2c0.7,0.9,1.5,1.8,2.3,2.7C228.2,377,228.7,377.3,229.3,377.5z"/>
			<path id="XMLID_135_" class="st2" d="M229.9,379.9c4.9,0.3,9.5,0.8,14.1,2.7c9.9,4.1,18.4,12.2,22.8,21.9c1.5,3.4,2.8,7,3.4,10.6
				c0.8,4.7,0.7,9.2,0.3,13.9c0,0.4-0.1,1,0.3,1.3c0.6,0.4,1.3-1.2,1.4-1.5c0.6-1.4,1.2-2.8,1.7-4.2c0.4-1.1,1-2.4,0.9-3.7
				c-0.1-3.5-0.6-6.9-1.4-10.2s-1.9-6.4-3.3-9.4c-2.8-5.9-6.8-11.3-11.6-15.7c-4.9-4.4-10.5-7.8-16.6-10.2c-3-1.2-6.2-2.2-9.4-2.8
				c-3.2-0.8-6.4-1.2-9.6-1.3c-1.9-0.2,1,2.9,1,2.9c1.2,1.3,2.4,2.7,3.7,3.9C228.3,378.9,229.1,379.5,229.9,379.9z"/>
			<path id="XMLID_134_" class="st2" d="M232.7,383.2c3.3,0,6.5,0.5,9.7,1.3c5.7,1.6,10.8,4.3,15.3,8.1c3.3,2.9,6.2,6.2,8.5,10
				s4.1,8,5.2,12.3c1.6,6.2,1.4,12.2,0.7,18.5c-0.1,0.8,0.6,1.1,1.2,0.7c0.8-0.5,2-2.6,2-3.5c0.2-4.4,0.4-8.7-0.3-13.1
				c-0.6-3.4-1.4-6.6-2.6-9.8c-3.1-7.8-7.9-14.3-14.4-19.5c-3.2-2.6-6.6-4.6-10.3-6.3c-6.1-2.9-12.7-4.1-19.4-4.6
				c-1.5-0.1,0.3,2.1,0.4,2.2c0.8,0.9,1.6,1.7,2.5,2.5C231.6,382.7,232.1,383.1,232.7,383.2z"/>
			<path id="XMLID_133_" class="st2" d="M232.7,380.5c4.9,0.4,9.4,0.9,14.1,2.7c4.9,1.7,8.8,4.8,11.9,9.2c4.5,2.8,7.8,6.5,9.9,11.2
				c1.9,4.1,3.4,8.4,4,12.9c0.6,4.8,0.4,9.3-0.1,14.1c-0.1,0.9,0.6,1.1,1.3,0.7c0.5-0.6,0.9-1.3,1.3-2s0.7-1.4,0.9-2.2
				c0.2-4.4,0.2-8.6-0.5-13c-0.7-4.1-1.8-8.3-3.7-12.1c-1.6-3.3-3.3-6.2-5.5-9.1c-3.5-4.6-7.9-8.6-12.8-11.6
				c-3.5-2.2-7.2-4-11.2-5.3c-4.7-1.6-9.4-2.3-14.3-2.7c-1.6-0.1,0.2,2.3,0.4,2.5c0.8,1.1,1.7,2.2,2.6,3.3
				C231.4,379.7,232,380.2,232.7,380.5z"/>
			<path id="XMLID_132_" class="st2" d="M228.9,379.5c8.1,0,13.3,0.6,20.7,6.2c2.9,2.2,5.5,4.7,7.8,7.6c2.4,2.7,3.9,5.8,4.8,9.4
				c2.4,3.7,3.8,7.7,4.2,12.1c0.5,4.5,0.2,8.8-0.4,13.3c-0.2,1.6,1.6,1.9,1.8,0.3c0.6-4.6,1-9.1,0.4-13.7c-0.4-3-1-6-2-8.9
				c-1.2-3.7-3-7.2-5.1-10.5c-3.7-5.7-8.6-10.6-14.6-13.8c-1.4-0.8-2.8-1.5-4.3-2s-2.9-1-4.4-1.5c-2.9-0.5-5.8-0.6-8.7-0.3
				C228,377.6,227.6,379.5,228.9,379.5z"/>
			<path id="XMLID_131_" class="st2" d="M226.8,380.4c6.1,0.5,12.2,1.5,17.6,4.5c13,7.1,20.2,18.4,22.4,35.7c-0.1-1-0.1-2.1-0.2-3.1
				c0.1,2.6,0.2,5.1,0.2,7.7c0-1.1,0.1-2.1,0.1-3.2c-0.2,2.6-0.4,5.2-0.6,7.8c-0.1,1.3,1,1.1,1.4,0.3c0.3-1,0.6-2.1,0.8-3.2
				c0.2-1.1,0.4-2.1,0.4-3.2c-0.2-6.2-1-12.2-3.3-18c-2.4-6.2-6.2-11.8-11-16.5c-4.3-4.2-9.4-7.5-15.1-9.7c-5.5-2.2-11-3-16.8-3.5
				c-0.3,0.1-0.5,0.3-0.5,0.6c0.1,0.5,0.4,1,0.9,1.3C224.1,378.9,225.5,380.3,226.8,380.4z"/>
			<path id="XMLID_130_" class="st2" d="M229.5,384.1c3,0.4,6,0.8,9,1.2c1.5,0.5,2.9,0.9,4.4,1.4c3.5,1.3,6.7,3.2,9.7,5.5
				c4.8,3.3,7.8,8.1,9,14.5c4.7,4.5,7.2,9.6,7.5,15.4c0.4,3.9,0.2,7.6-0.2,11.5c-0.1,1.1,0.7,1.3,1.3,0.5c0.5-0.9,0.9-1.8,1.2-2.7
				c0.4-0.9,0.7-1.9,0.9-2.9c-0.1-3.4-0.2-6.7-0.8-10.1c-0.6-3.1-1.5-6.3-2.7-9.3c-2.6-6.4-6.7-12.2-11.8-16.9
				c-4.5-4.2-9.8-7.3-15.5-9.5c-5.5-2.1-11.1-2.9-16.9-3.3c-1.5-0.1,0.7,2.1,0.6,2C226.3,382.5,228,384,229.5,384.1z"/>
			<path id="XMLID_129_" class="st2" d="M232.5,377.6c6.3,0.5,12,1.3,17.7,4.6c3.3,1.9,6.3,4.1,9,6.8c2.6,2.6,5,5.5,6.9,8.8
				c5.3,9.4,6.7,18.6,5.2,30.4c-0.1,0.6,0.2,1.4,1.1,1.1c0.8-0.3,1.1-1.7,1.1-2.4c0.4-3.3,0.5-4.3,0.5-7.1c0-2.4-0.2-4.6-0.4-7
				c-0.7-6.3-3.2-13.2-6.7-18.5c-4-6.2-9.1-11.3-15.4-15c-2.3-1.4-4.5-2.5-7-3.4c-1.6-0.5-3.1-1-4.7-1.5c-3.1-0.9-6.3-1.4-9.5-1.5
				c-1.2-0.1-0.5,1.4-0.3,1.8C230.3,375.4,231.4,377.6,232.5,377.6z"/>
			<path id="XMLID_128_" class="st2" d="M227.6,382.9c5.4,0.3,10.6,1.3,15.4,3.5c16.3,7.4,25.9,23,24,45.9c-0.1,1.3,0.9,1.2,1.4,0.3
				c0.4-1.1,0.8-2.2,1-3.3c0.3-1.1,0.5-2.2,0.6-3.4c-0.2-3.2-0.4-6.4-1-9.6c-0.6-3-1.6-6-2.8-8.8c-2.6-6.2-6.5-11.7-11.4-16.3
				c-4.4-4.1-9.5-7.2-15.2-9.4c-5.5-2.1-10.9-2.8-16.7-3.2c-0.4,0.1-0.5,0.3-0.5,0.7c0.2,0.6,0.5,1,1.1,1.3
				C224.6,381.5,226.1,382.9,227.6,382.9z"/>
			<path id="XMLID_127_" class="st2" d="M231.7,377.5c3.2,0,6.4,0.4,9.5,1.1c1.5,0.5,3,1,4.4,1.5c2.8,1.1,5.4,2.6,7.9,4.4
				c3,2,5.5,4.6,7.4,7.8c2.6,2.6,4.5,5.5,5.9,8.9c0.9,2,1.6,4.1,2.1,6.2c1.8,6.9,1.7,13.2,0.6,20.3c-0.1,0.5,0.6,0.9,1.1,0.8
				c0.6-0.1,0.8-0.6,0.8-1.2c0.8-5.5,1.1-10.9,0.1-16.5c-1.1-6.7-3.7-13.4-7.9-18.9c-2.8-3.7-6-7.1-9.8-9.8
				c-2.6-1.8-5.3-3.3-8.2-4.6c-4.6-2-9.1-2.4-14-2.7c-0.5,0-1.1,0.2-1.2,0.8C230.4,376.2,231.2,377.5,231.7,377.5z"/>
			<path id="XMLID_126_" class="st2" d="M227.7,380.8c6.4,0.1,11.2,0.6,17.1,4c1.2,0.8,2.5,1.6,3.7,2.4c3.5,2.4,6.3,5.5,8.2,9.5
				c2.6,2.5,4.5,5.4,5.6,8.6c0.9,1.9,1.5,3.9,2,6c1.3,5.8,1.3,11.3,0.7,17.3c-0.1,0.7-0.2,1.7,0.7,1.8c0.9,0.1,1-0.9,1.1-1.6
				c0.4-3.5,0.7-5.6,0.5-9.2c-0.2-3-0.6-5.9-1.2-8.8c-1.3-5.7-3.9-11.3-7.4-16c-3.2-4.3-7-7.9-11.5-10.8c-2-1.3-4.1-2.4-6.4-3.3
				c-1.4-0.5-2.9-1-4.3-1.5c-3-0.6-5.9-0.8-8.9-0.6C226.3,378.8,226.4,380.8,227.7,380.8z"/>
		</g>
	</g>
</g>
<g id="XMLID_29_" class="st1">
	<g id="XMLID_109_">
		<g id="XMLID_110_">
			<path id="XMLID_122_" class="st2" d="M264.3,429.4c0,2.3-0.2,4.6-0.9,6.8c-1.2,6-4.2,11.2-9,15.7c-3,3-6.8,5.6-10.6,7.4
				c-4.1,1.9-8.4,3.4-12.9,4.1c-4.8,0.7-9.5,0.7-14.4,0.2c-0.4,0-1.1-0.1-1.3,0.3c-0.4,0.6,1.3,1.3,1.6,1.4c1.4,0.7,2.8,1.2,4.2,1.7
				c1.2,0.4,2.4,1,3.7,0.9c1.8-0.1,3.5-0.2,5.3-0.3c3.5-0.5,6.9-1.3,10.2-2.5c6.3-2.2,12.1-5.7,17-10.1c4.7-4.3,8.3-9.5,11-15.3
				c1.3-2.8,2.3-5.7,3-8.7c0.8-2.9,1.3-5.9,1.3-9c0.2-1.9-3,1.2-2.9,1.1c-1.3,1.2-2.5,2.5-3.8,3.8
				C265.2,427.8,264.7,428.5,264.3,429.4z"/>
			<path id="XMLID_121_" class="st2" d="M265,426.4c-0.1,1.5-0.2,3-0.4,4.5c-0.5,3.4-1.6,6.6-3.4,9.5c-8.1,14.7-23.8,21.1-44.1,19.7
				c-1.4-0.1-1.3,0.9-0.3,1.4c1.2,0.4,2.4,0.7,3.7,1c1.2,0.3,2.5,0.5,3.8,0.6c6.5-0.4,12.6-1.3,18.7-3.8c5.5-2.3,10.7-5.6,15-9.8
				c4.2-4.1,7.5-9.1,9.6-14.6c1.7-4.4,2.4-9,2.8-13.7c0.1-1.6-2.2,0.6-2.2,0.6C267.1,423,265.1,424.8,265,426.4z"/>
			<path id="XMLID_120_" class="st2" d="M266.5,428.6c0,3-0.5,6-1.4,8.9c-0.5,1.3-1,2.7-1.6,4c-3.1,7.1-9.1,12.4-15.7,16.1
				c-4,2.2-8.2,3.7-12.6,4.7c-5.6,1.2-10.9,1.2-16.6,0.7c-1.3-0.1-1.5,0.7-0.4,1.4c1.2,0.5,2.4,1,3.6,1.4c1.2,0.4,2.5,0.8,3.8,1
				c5.4-0.2,10.7-0.7,15.9-2.5c4.5-1.5,8.8-3.6,12.8-6.3c4-2.7,7.8-6.1,10.7-10c2.7-3.7,5.2-7.8,6.7-12.2c0.5-1.5,0.9-3,1.4-4.4
				c0.8-2.9,1.3-5.9,1.4-8.9c0.2-1.8-2.7,0.8-2.7,0.8c-1.2,1.1-2.4,2.2-3.5,3.3C267.3,427.1,266.8,427.8,266.5,428.6z"/>
			<path id="XMLID_119_" class="st2" d="M267.2,432.5c0,2.2-0.2,4.4-0.8,6.5c-0.4,2.1-1.1,4.1-2.1,6c-1.9,3.8-4.7,7.5-7.9,10.2
				c-6.8,5.7-15.4,9.3-24.2,10.1c-4.8,0.4-9.5,0-14.3-0.5c-0.5-0.1-1,0.3-1,0.9s0.7,1,1.2,1.1c4.2,0.5,8.3,0.8,12.5,0.6
				c2.5-0.2,5-0.5,7.4-0.9c4.1-0.8,7.9-2.2,11.6-4.1c6.3-3.1,12.1-7.8,16-13.7c1.7-2.5,3-5.5,4-8.3c1.1-3.3,1.2-5.7,1.6-9.1
				C271.1,429.3,267.2,431.4,267.2,432.5z"/>
			<path id="XMLID_118_" class="st2" d="M267.8,429.8c0,4.3-0.9,8.4-2.8,12.3c-1.2,2.6-2.8,5-4.7,7.1c-10,11.6-25.7,14.9-41.2,13.3
				c-0.8-0.1-0.8,1-0.4,1.4c0.7,0.7,2.5,1,3.5,1.1c4.7,0.3,9.2,0.2,13.9-0.4c4.8-0.7,10-2.3,14.2-4.6c6.2-3.2,11.5-7.6,15.6-13.4
				c2.2-3.1,3.8-6.5,5-10.2c1-3.1,1.3-5.9,1.6-9.2c0.1-1.2-1.5-0.4-1.8-0.2C269.7,427.6,267.9,428.7,267.8,429.8z"/>
			<path id="XMLID_117_" class="st2" d="M261.2,426.6c0.2,3.6-0.7,6.9-2.5,10.1c-5,17.1-19.8,24.7-44.4,22.6c-0.7-0.1-2.5,0-1.5,1.1
				c0.4,0.5,1.3,0.6,1.9,0.7c1,0.2,2.1,0.5,3.1,0.5c5.9,0.1,11.3-0.4,17.1-2c4.4-1.2,8.7-3.3,12.5-5.8c3.6-2.4,6.6-5.2,9.3-8.5
				c1.7-2,3.2-4.7,4.3-7.2c1.9-4.3,2.5-8.5,2.9-13.1c0-0.6-0.7-1-1.2-0.8C262.1,424.6,261.3,426,261.2,426.6z"/>
			<path id="XMLID_116_" class="st2" d="M262.2,428.9c0,4.2-0.9,8.3-2.7,12.2c-1.2,2.6-2.7,4.9-4.5,7.1c-2.8,3.3-6,6-9.7,8.3
				s-8,4-12.2,5.1c-6.3,1.6-12.4,1.6-18.8,1c-0.4,0-1-0.1-1.2,0.3c-0.3,0.6,1.1,1.2,1.4,1.4c1.2,0.6,2.5,1.1,3.8,1.5
				c1.1,0.4,2.2,0.8,3.4,0.8c5.3-0.2,10.3-0.9,15.3-2.7c5.3-1.9,10.1-4.5,14.5-8c4.9-3.8,8.7-8.5,11.6-13.9c1-2,2-4,2.8-6.1
				c1.6-4.4,2.3-8.9,2.7-13.6c0.2-1.8-2.6,1.2-2.4,1c-1,1.1-1.9,2.3-2.7,3.4C262.8,427.5,262.4,428.1,262.2,428.9z"/>
			<path id="XMLID_115_" class="st2" d="M264.4,432.7c0,3-0.5,6-1.4,8.9c-2,3.5-4,7.1-6,10.6c-3.1,4-7.5,7-11.9,9.3
				c-4.1,2.1-8.4,3.5-12.9,4.3c-5.7,1-11.1,0.8-16.8,0c-0.7-0.1-1,0.8-0.7,1.3c0.4,0.7,2.2,1.5,3.1,1.6c3.5,0.3,6.9,0.6,10.5,0.4
				c4.3-0.2,8.5-1.2,12.7-2.6c3.2-1.1,6.2-2.5,9.1-4.2c3.4-2,7-4.6,9.6-7.6c2.1-2.5,3.9-5,5.6-7.7c1.4-2.2,2.3-4.5,3.1-7
				c0.6-1.4,1-2.9,1.3-4.4c0.6-2.2,1-4.4,1-6.7c0.1-1.5-2-0.1-2.2,0.1c-1,0.7-1.9,1.4-2.8,2.1C265,431.6,264.6,432.1,264.4,432.7z"
				/>
			<path id="XMLID_114_" class="st2" d="M266.2,427c-0.3,4.4-0.8,8.6-2.9,12.6c-2.4,3.2-4.8,6.3-7.3,9.5
				c-9.8,8.7-22.2,12.1-37.1,10.2c-0.7-0.1-1.6,0.1-1.3,1.1c0.3,0.9,2.4,0.9,3.1,1c4.7,0.3,9.3,0.4,14-0.4c4.3-0.7,8.5-2,12.5-3.8
				c5.4-2.5,10.7-6.3,14.4-11c1.8-2.3,3.4-4.6,4.6-7.3c0.5-1.4,1-2.7,1.6-4.1c0.8-2.8,1.2-5.6,1.2-8.4
				C269.1,424.2,266.3,425.8,266.2,427z"/>
			<path id="XMLID_113_" class="st2" d="M262.8,431.4c0,3.1-0.5,6-1.4,8.9c-1.9,3.5-3.9,7-5.8,10.4c-3,4-7.3,7-11.7,9.3
				c-4,2.2-8.2,3.6-12.7,4.5c-2.3,0.5-4.6,0.8-7,0.9c-3.3,0.2-6.5,0-9.8-0.5c-1-0.1-1.3,0.5-0.6,1.3c0.8,0.6,1.6,1,2.5,1.5
				s1.7,0.8,2.7,1.1c3.7,0.1,7,0.3,10.7-0.3c2-0.3,4-0.7,5.9-1.2c4.9-1.4,9.7-3.4,13.9-6.3c4.1-2.7,7.7-6,10.8-9.8
				c2.5-3,4.3-6.6,5.9-10.1c1-2.1,1.8-4.3,2.3-6.5c0.9-2.9,1.3-5.9,1.4-8.9c0.2-1.7-2.5,0.7-2.5,0.7c-1.1,1-2.1,2-3.1,3.1
				C263.4,430,263,430.6,262.8,431.4z"/>
			<path id="XMLID_112_" class="st2" d="M264.5,426c0,4.3-1,8.5-2.9,12.4c-1.7,3.8-4.4,6.7-8.1,8.9c-2.6,3.2-5.8,5.6-9.6,7.1
				c-8.1,3.5-16.7,4.6-25.8,3.5c-0.6-0.1-2-0.4-2.2,0.6c-0.1,1,1.3,1.1,1.9,1.2c4.7,0.4,9.3,0.5,14,0c6.5-0.8,12.9-3.2,18.4-6.7
				c3.1-2,6-4.3,8.5-7.1c2.8-3.2,5.2-7,6.5-11.1c1.1-3.2,1.2-5.9,1.5-9.3c0-0.5-0.7-1-1.1-0.9C265.1,424.7,264.5,425.6,264.5,426z"
				/>
			<path id="XMLID_111_" class="st2" d="M260.6,427.7c0.1,2.3-0.2,4.5-0.9,6.7c-3.7,18.2-19.5,27-47.3,26.4c-1-0.1-1,0.9-0.4,1.4
				c0.8,0.4,1.6,0.7,2.4,0.9c0.8,0.3,1.7,0.5,2.5,0.6c5.1,0,9.8-0.2,14.7-1.5c2.8-0.7,5.2-1.6,7.8-2.7c3.6-1.6,6.8-3.6,9.9-6
				c2.9-2.3,5.6-5,7.7-8c1.6-2.3,3.1-4.9,4.1-7.4c0.4-1.4,0.9-2.7,1.3-4.1c0.8-2.8,1.2-5.8,1.3-8.7c0.1-0.8-0.5-1.1-1.2-0.8
				C261.9,424.7,260.6,426.8,260.6,427.7z"/>
		</g>
	</g>
</g>
<circle id="XMLID_26_" class="st3" cx="206.1" cy="409" r="8.7"/>
<circle id="XMLID_25_" cx="203.4" cy="410.2" r="2.7"/>
<path id="XMLID_23_" class="st5" d="M223.2,418.4c1,3.4-1.9,7.8,0.6,10.3c1.6,1.6,4.8,0.9,5.5-1.2"/>
<circle id="XMLID_22_" class="st3" cx="246" cy="409" r="8.7"/>
<circle id="XMLID_21_" cx="243.2" cy="410.2" r="2.7"/>
<line id="XMLID_24_" class="st4" x1="210.2" y1="443.1" x2="242.5" y2="443.1"/>
<circle id="XMLID_84_" class="st0" cx="121.1" cy="420.7" r="49.8"/>
<g id="XMLID_69_" class="st1">
	<g id="XMLID_163_">
		<g id="XMLID_164_">
			<path id="XMLID_176_" class="st2" d="M123.1,380.5c3.3,0,6.5,0.5,9.7,1.3c5.7,1.5,10.9,4.2,15.3,7.9c3.4,2.9,6.3,6.1,8.8,9.8
				c2.4,3.7,4.3,7.9,5.4,12.1c1.7,6.1,1.8,12,1.3,18.2c0,0.4-0.1,1.1,0.4,1.3c0.7,0.3,1.2-1.4,1.3-1.7c0.5-1.5,1-3,1.4-4.5
				c0.3-1.3,0.8-2.6,0.6-3.9c-0.6-5.7-1.6-10.9-3.8-16.2c-2.1-4.9-4.9-9.5-8.4-13.5c-3.1-3.5-6.7-6.5-10.6-9.1
				c-8.2-5.6-18.2-7.9-27.9-8.6c-1.8-0.1,1.1,2.7,1,2.6c1.1,1.1,2.3,2.1,3.5,3.1C121.6,379.8,122.3,380.3,123.1,380.5z"/>
			<path id="XMLID_175_" class="st2" d="M124.4,377.5c3.2,0,6.4,0.4,9.6,1.2c4,1.8,7.9,3.6,11.9,5.4c4.4,2.7,8,6.7,11,10.9
				c2.6,3.7,4.5,7.6,5.9,11.9c0.7,2.1,1.3,4.3,1.6,6.5c0.7,4.6,0.7,9.2,0,13.9c-0.1,1.1,0.9,1.1,1.4,0.4c0.4-0.8,0.7-1.7,1-2.6
				c0.3-0.9,0.5-1.8,0.6-2.7c0-4.1-0.1-8-0.9-12c-0.6-3.1-1.5-6.1-2.7-9c-3-7.3-7.8-13.7-13.9-18.7c-3.1-2.6-6.5-4.5-10.1-6.4
				c-6-3.1-12.7-4.2-19.3-4.7c-1.5-0.1,0.1,2,0.2,2.2c0.7,0.9,1.5,1.8,2.3,2.7C123.2,376.9,123.7,377.3,124.4,377.5z"/>
			<path id="XMLID_174_" class="st2" d="M125,379.8c4.9,0.3,9.5,0.8,14.1,2.7c9.9,4.1,18.4,12.2,22.8,21.9c1.5,3.4,2.8,7,3.4,10.6
				c0.8,4.7,0.7,9.2,0.3,13.9c0,0.4-0.1,1,0.3,1.3c0.6,0.4,1.3-1.2,1.4-1.5c0.6-1.4,1.2-2.8,1.7-4.2c0.4-1.1,1-2.4,0.9-3.7
				c-0.1-3.5-0.6-6.9-1.4-10.2c-0.8-3.3-1.9-6.4-3.3-9.4c-2.8-5.9-6.8-11.3-11.6-15.7c-4.9-4.4-10.5-7.8-16.6-10.2
				c-3-1.2-6.2-2.2-9.4-2.8c-3.2-0.8-6.4-1.2-9.6-1.3c-1.9-0.2,1,2.9,1,2.9c1.2,1.3,2.4,2.7,3.7,3.9
				C123.4,378.9,124.1,379.4,125,379.8z"/>
			<path id="XMLID_173_" class="st2" d="M127.8,383.1c3.3,0,6.5,0.5,9.7,1.3c5.7,1.6,10.8,4.3,15.3,8.1c3.3,2.9,6.2,6.2,8.5,10
				c2.3,3.8,4.1,8,5.2,12.3c1.6,6.2,1.4,12.2,0.7,18.5c-0.1,0.8,0.6,1.1,1.2,0.7c0.8-0.5,2-2.6,2-3.5c0.2-4.4,0.4-8.7-0.3-13.1
				c-0.6-3.4-1.4-6.6-2.6-9.8c-3.1-7.8-7.9-14.3-14.4-19.5c-3.2-2.6-6.6-4.6-10.3-6.3c-6.1-2.9-12.7-4.1-19.4-4.6
				c-1.5-0.1,0.3,2.1,0.4,2.2c0.8,0.9,1.6,1.7,2.5,2.5C126.6,382.7,127.2,383,127.8,383.1z"/>
			<path id="XMLID_172_" class="st2" d="M127.7,380.4c4.9,0.4,9.4,0.9,14.1,2.7c4.9,1.7,8.8,4.8,11.9,9.2c4.5,2.8,7.8,6.5,9.9,11.2
				c1.9,4.1,3.4,8.4,4,12.9c0.6,4.8,0.4,9.3-0.1,14.1c-0.1,0.9,0.6,1.1,1.3,0.7c0.5-0.6,0.9-1.3,1.3-2s0.7-1.4,0.9-2.2
				c0.2-4.4,0.2-8.6-0.5-13c-0.7-4.1-1.8-8.3-3.7-12.1c-1.6-3.3-3.3-6.2-5.5-9.1c-3.5-4.6-7.9-8.6-12.8-11.6
				c-3.5-2.2-7.2-4-11.2-5.3c-4.7-1.6-9.4-2.3-14.3-2.7c-1.6-0.2,0.3,2.2,0.4,2.4c0.8,1.1,1.7,2.2,2.6,3.3
				C126.5,379.6,127,380.1,127.7,380.4z"/>
			<path id="XMLID_171_" class="st2" d="M123.9,379.4c8.1,0,13.3,0.6,20.7,6.2c2.9,2.2,5.5,4.7,7.8,7.6c2.4,2.7,3.9,5.8,4.8,9.4
				c2.4,3.7,3.8,7.7,4.2,12.1c0.5,4.5,0.2,8.8-0.4,13.3c-0.2,1.6,1.6,1.9,1.8,0.3c0.6-4.6,1-9.1,0.4-13.7c-0.4-3-1-6-2-8.9
				c-1.2-3.7-3-7.2-5.1-10.5c-3.7-5.7-8.6-10.6-14.6-13.8c-1.4-0.8-2.8-1.5-4.3-2s-2.9-1-4.4-1.5c-2.9-0.5-5.8-0.6-8.7-0.3
				C123,377.5,122.7,379.4,123.9,379.4z"/>
			<path id="XMLID_170_" class="st2" d="M121.9,380.4c6.1,0.5,12.2,1.5,17.6,4.5c13,7.1,20.2,18.4,22.4,35.7c-0.1-1-0.1-2.1-0.2-3.1
				c0.1,2.6,0.2,5.1,0.2,7.7c0-1.1,0.1-2.1,0.1-3.2c-0.2,2.6-0.4,5.2-0.6,7.8c-0.1,1.3,1,1.1,1.4,0.3c0.3-1,0.6-2.1,0.8-3.2
				c0.2-1.1,0.4-2.1,0.4-3.2c-0.2-6.2-1-12.2-3.3-18c-2.4-6.2-6.2-11.8-11-16.5c-4.3-4.2-9.4-7.5-15.1-9.7c-5.5-2.2-11-3-16.8-3.5
				c-0.3,0.1-0.5,0.3-0.5,0.6c0.1,0.5,0.4,1,0.9,1.3C119.1,378.8,120.5,380.3,121.9,380.4z"/>
			<path id="XMLID_169_" class="st2" d="M124.6,384c3,0.4,6,0.8,9,1.2c1.5,0.5,2.9,0.9,4.4,1.4c3.5,1.3,6.7,3.2,9.7,5.5
				c4.8,3.3,7.8,8.1,9,14.5c4.7,4.5,7.2,9.6,7.5,15.4c0.4,3.9,0.2,7.6-0.2,11.5c-0.1,1.1,0.7,1.3,1.3,0.5c0.5-0.9,0.9-1.8,1.2-2.7
				c0.4-0.9,0.7-1.9,0.9-2.9c-0.1-3.4-0.2-6.7-0.8-10.1c-0.6-3.1-1.5-6.3-2.7-9.3c-2.6-6.4-6.7-12.2-11.8-16.9
				c-4.5-4.2-9.8-7.3-15.5-9.5c-5.5-2.1-11.1-2.9-16.9-3.3c-1.5-0.1,0.7,2.1,0.6,2C121.4,382.4,123,383.9,124.6,384z"/>
			<path id="XMLID_168_" class="st2" d="M127.5,377.6c6.3,0.5,12,1.3,17.7,4.6c3.3,1.9,6.3,4.1,9,6.8c2.6,2.6,5,5.5,6.9,8.8
				c5.3,9.4,6.7,18.6,5.2,30.4c-0.1,0.6,0.2,1.4,1.1,1.1c0.8-0.3,1.1-1.7,1.1-2.4c0.4-3.3,0.5-4.3,0.5-7.1c0-2.4-0.2-4.6-0.4-7
				c-0.7-6.3-3.2-13.2-6.7-18.5c-4-6.2-9.1-11.3-15.4-15c-2.3-1.4-4.5-2.5-7-3.4c-1.6-0.5-3.1-1-4.7-1.5c-3.1-0.9-6.3-1.4-9.5-1.5
				c-1.2-0.1-0.5,1.4-0.3,1.8C125.4,375.3,126.5,377.5,127.5,377.6z"/>
			<path id="XMLID_167_" class="st2" d="M122.7,382.9c5.4,0.3,10.6,1.3,15.4,3.5c16.3,7.4,25.9,23.1,24,45.9
				c-0.1,1.3,0.9,1.2,1.4,0.3c0.4-1.1,0.8-2.2,1-3.3c0.3-1.1,0.5-2.2,0.6-3.4c-0.2-3.2-0.4-6.4-1-9.6c-0.6-3-1.6-6-2.8-8.8
				c-2.6-6.2-6.5-11.7-11.4-16.3c-4.4-4.1-9.5-7.2-15.2-9.4c-5.5-2.1-10.9-2.8-16.7-3.2c-0.4,0.1-0.5,0.3-0.5,0.7
				c0.2,0.6,0.5,1,1.1,1.3C119.7,381.4,121.2,382.8,122.7,382.9z"/>
			<path id="XMLID_166_" class="st2" d="M126.7,377.5c3.2,0,6.4,0.4,9.5,1.1c1.5,0.5,3,1,4.4,1.5c2.8,1.1,5.4,2.6,7.9,4.4
				c3,2,5.5,4.6,7.4,7.8c2.6,2.6,4.5,5.5,5.9,8.9c0.9,2,1.6,4.1,2.1,6.2c1.8,6.9,1.7,13.2,0.6,20.3c-0.1,0.5,0.6,0.9,1.1,0.8
				c0.6-0.1,0.8-0.6,0.8-1.2c0.8-5.5,1.1-10.9,0.1-16.5c-1.1-6.7-3.7-13.4-7.9-18.9c-2.8-3.7-6-7.1-9.8-9.8
				c-2.6-1.8-5.3-3.3-8.2-4.6c-4.6-2-9.1-2.4-14-2.7c-0.5,0-1.1,0.2-1.2,0.8C125.5,376.1,126.3,377.4,126.7,377.5z"/>
			<path id="XMLID_165_" class="st2" d="M122.7,380.7c6.4,0.1,11.2,0.6,17.1,4c1.2,0.8,2.5,1.6,3.7,2.4c3.5,2.4,6.3,5.5,8.2,9.5
				c2.6,2.5,4.5,5.4,5.6,8.6c0.9,1.9,1.5,3.9,2,6c1.3,5.8,1.3,11.3,0.7,17.3c-0.1,0.7-0.2,1.7,0.7,1.8s1-0.9,1.1-1.6
				c0.4-3.5,0.7-5.6,0.5-9.2c-0.2-3-0.6-5.9-1.2-8.8c-1.3-5.7-3.9-11.3-7.4-16c-3.2-4.3-7-7.9-11.5-10.8c-2-1.3-4.1-2.4-6.4-3.3
				c-1.4-0.5-2.9-1-4.3-1.5c-3-0.6-5.9-0.8-8.9-0.6C121.4,378.7,121.5,380.7,122.7,380.7z"/>
		</g>
	</g>
</g>
<g id="XMLID_68_" class="st1">
	<g id="XMLID_148_">
		<g id="XMLID_149_">
			<path id="XMLID_161_" class="st2" d="M159.4,429.3c0,2.3-0.2,4.6-0.9,6.8c-1.2,6-4.2,11.2-9,15.7c-3,3-6.8,5.6-10.6,7.4
				c-4.1,1.9-8.4,3.4-12.9,4.1c-4.8,0.7-9.5,0.7-14.4,0.2c-0.4,0-1.1-0.1-1.3,0.3c-0.4,0.6,1.3,1.3,1.6,1.4c1.4,0.7,2.8,1.2,4.2,1.7
				c1.2,0.4,2.4,1,3.7,0.9c1.8-0.1,3.5-0.2,5.3-0.3c3.5-0.5,6.9-1.3,10.2-2.5c6.3-2.2,12.1-5.7,17-10.1c4.7-4.3,8.3-9.5,11-15.3
				c1.3-2.8,2.3-5.7,3-8.7c0.8-2.9,1.3-5.9,1.3-9c0.2-1.9-3,1.2-2.9,1.1c-1.3,1.2-2.5,2.5-3.8,3.8
				C160.3,427.7,159.7,428.4,159.4,429.3z"/>
			<path id="XMLID_160_" class="st2" d="M160,426.3c-0.1,1.5-0.2,3-0.4,4.5c-0.5,3.4-1.6,6.6-3.4,9.5c-8.1,14.7-23.8,21.1-44.1,19.7
				c-1.4-0.1-1.3,0.9-0.3,1.4c1.2,0.4,2.4,0.7,3.7,1c1.2,0.3,2.5,0.5,3.8,0.6c6.5-0.4,12.6-1.3,18.7-3.8c5.5-2.3,10.7-5.6,15-9.8
				c4.2-4.1,7.5-9.1,9.6-14.6c1.7-4.4,2.4-9,2.8-13.7c0.1-1.6-2.2,0.6-2.2,0.6C162.2,422.9,160.2,424.7,160,426.3z"/>
			<path id="XMLID_159_" class="st2" d="M161.5,428.5c0,3-0.5,6-1.4,8.9c-0.5,1.3-1,2.7-1.6,4c-3.1,7-9.1,12.4-15.7,16.1
				c-4,2.2-8.2,3.7-12.6,4.7c-5.6,1.2-10.9,1.2-16.6,0.7c-1.3-0.1-1.5,0.7-0.4,1.4c1.2,0.5,2.4,1,3.6,1.4s2.5,0.8,3.8,1
				c5.4-0.2,10.7-0.7,15.9-2.5c4.5-1.5,8.8-3.6,12.8-6.3c4-2.7,7.8-6.1,10.7-10c2.7-3.7,5.2-7.8,6.7-12.2c0.5-1.5,0.9-3,1.4-4.4
				c0.8-2.9,1.3-5.9,1.4-8.9c0.2-1.8-2.7,0.8-2.7,0.8c-1.2,1.1-2.4,2.2-3.5,3.3C162.4,427.1,161.9,427.7,161.5,428.5z"/>
			<path id="XMLID_158_" class="st2" d="M162.2,432.4c0,2.2-0.2,4.4-0.8,6.5c-0.4,2.1-1.1,4.1-2.1,6c-1.9,3.8-4.7,7.5-7.9,10.2
				c-6.8,5.7-15.4,9.3-24.2,10.1c-4.8,0.4-9.5,0-14.3-0.5c-0.5-0.1-1,0.3-1,0.9s0.7,1,1.2,1.1c4.2,0.5,8.3,0.8,12.5,0.6
				c2.5-0.2,5-0.5,7.4-0.9c4.1-0.8,7.9-2.2,11.6-4.1c6.3-3.1,12.1-7.8,16-13.7c1.7-2.5,3-5.5,4-8.3c1.1-3.3,1.2-5.7,1.6-9.1
				C166.2,429.2,162.3,431.3,162.2,432.4z"/>
			<path id="XMLID_157_" class="st2" d="M162.9,429.7c0,4.3-0.9,8.4-2.8,12.3c-1.2,2.6-2.8,5-4.7,7.1c-10,11.6-25.7,14.9-41.2,13.3
				c-0.8-0.1-0.8,1-0.4,1.4c0.7,0.7,2.5,1,3.5,1.1c4.7,0.3,9.2,0.2,13.9-0.4c4.8-0.7,10-2.3,14.2-4.6c6.2-3.2,11.5-7.6,15.6-13.4
				c2.2-3.1,3.8-6.5,5-10.2c1-3.1,1.3-5.9,1.6-9.2c0.1-1.2-1.5-0.4-1.8-0.2C164.8,427.5,162.9,428.6,162.9,429.7z"/>
			<path id="XMLID_156_" class="st2" d="M156.3,426.6c0.2,3.6-0.7,6.9-2.5,10.1c-5,17.1-19.8,24.7-44.4,22.6c-0.7-0.1-2.5,0-1.5,1.1
				c0.4,0.5,1.3,0.6,1.9,0.7c1,0.2,2.1,0.5,3.1,0.5c5.9,0.1,11.3-0.4,17.1-2c4.4-1.2,8.7-3.3,12.5-5.8c3.6-2.4,6.6-5.2,9.3-8.5
				c1.7-2,3.2-4.7,4.3-7.2c1.9-4.3,2.5-8.5,2.9-13.1c0-0.6-0.7-1-1.2-0.8C157.2,424.5,156.3,425.9,156.3,426.6z"/>
			<path id="XMLID_155_" class="st2" d="M157.3,428.9c0,4.2-0.9,8.3-2.7,12.2c-1.2,2.6-2.7,4.9-4.5,7.1c-2.8,3.3-6,6-9.7,8.3
				c-3.7,2.3-8,4-12.2,5.1c-6.3,1.6-12.4,1.6-18.8,1c-0.4,0-1-0.1-1.2,0.3c-0.3,0.6,1.1,1.2,1.4,1.4c1.2,0.6,2.5,1.1,3.8,1.5
				c1.1,0.4,2.2,0.8,3.4,0.8c5.3-0.2,10.3-0.9,15.3-2.7c5.3-1.9,10.1-4.5,14.5-8c4.9-3.8,8.7-8.5,11.6-13.9c1-2,2-4,2.8-6.1
				c1.6-4.4,2.3-8.9,2.7-13.6c0.2-1.8-2.6,1.2-2.4,1c-1,1.1-1.9,2.3-2.7,3.4C157.8,427.4,157.5,428.1,157.3,428.9z"/>
			<path id="XMLID_154_" class="st2" d="M159.5,432.6c0,3-0.5,6-1.4,8.9c-2,3.5-4,7.1-6,10.6c-3.1,4-7.5,7-11.9,9.3
				c-4.1,2.1-8.4,3.5-12.9,4.3c-5.7,1-11.1,0.8-16.8,0c-0.7-0.1-1,0.8-0.7,1.3c0.4,0.7,2.2,1.5,3.1,1.6c3.5,0.3,6.9,0.6,10.5,0.4
				c4.3-0.2,8.5-1.2,12.7-2.6c3.2-1.1,6.2-2.5,9.1-4.2c3.4-2,7-4.6,9.6-7.6c2.1-2.5,3.9-5,5.6-7.7c1.4-2.2,2.3-4.5,3.1-7
				c0.6-1.4,1-2.9,1.3-4.4c0.6-2.2,1-4.4,1-6.7c0.1-1.5-2-0.1-2.2,0.1c-1,0.7-1.9,1.4-2.8,2.1C160.1,431.5,159.7,432,159.5,432.6z"
				/>
			<path id="XMLID_153_" class="st2" d="M161.2,426.9c-0.3,4.4-0.8,8.6-2.9,12.6c-2.4,3.2-4.8,6.3-7.3,9.5
				c-9.8,8.7-22.2,12.1-37.1,10.2c-0.7-0.1-1.6,0.1-1.3,1.1c0.3,0.9,2.4,0.9,3.1,1c4.7,0.3,9.3,0.4,14-0.4c4.3-0.7,8.5-2,12.5-3.8
				c5.4-2.5,10.7-6.3,14.4-11c1.8-2.3,3.4-4.6,4.6-7.3c0.5-1.4,1-2.7,1.6-4.1c0.8-2.8,1.2-5.6,1.2-8.4
				C164.2,424.1,161.3,425.8,161.2,426.9z"/>
			<path id="XMLID_152_" class="st2" d="M157.8,431.3c0,3.1-0.5,6-1.4,8.9c-1.9,3.5-3.9,7-5.8,10.4c-3,4-7.3,7-11.7,9.3
				c-4,2.2-8.2,3.6-12.7,4.5c-2.3,0.5-4.6,0.8-7,0.9c-3.3,0.2-6.5,0-9.8-0.5c-1-0.1-1.3,0.5-0.6,1.3c0.8,0.6,1.6,1,2.5,1.5
				s1.7,0.8,2.7,1.1c3.7,0.1,7,0.3,10.7-0.3c2-0.3,4-0.7,5.9-1.2c4.9-1.4,9.7-3.4,13.9-6.3c4.1-2.7,7.7-6,10.8-9.8
				c2.5-3,4.3-6.6,5.9-10.1c1-2.1,1.8-4.3,2.3-6.5c0.9-2.9,1.3-5.9,1.4-8.9c0.2-1.7-2.5,0.7-2.5,0.7c-1.1,1-2.1,2-3.1,3.1
				C158.5,429.9,158.1,430.6,157.8,431.3z"/>
			<path id="XMLID_151_" class="st2" d="M159.5,425.9c0,4.3-1,8.5-2.9,12.4c-1.7,3.8-4.4,6.7-8.1,8.9c-2.6,3.2-5.8,5.6-9.6,7.1
				c-8.1,3.5-16.7,4.6-25.8,3.5c-0.6-0.1-2-0.4-2.2,0.6c-0.1,1,1.3,1.1,1.9,1.2c4.7,0.4,9.3,0.5,14,0c6.5-0.8,12.9-3.2,18.4-6.7
				c3.1-2,6-4.3,8.5-7.1c2.8-3.2,5.2-7,6.5-11.1c1.1-3.2,1.2-5.9,1.5-9.3c0-0.5-0.7-1-1.1-0.9S159.6,425.5,159.5,425.9z"/>
			<path id="XMLID_150_" class="st2" d="M155.6,427.6c0.1,2.3-0.2,4.5-0.9,6.7c-3.7,18.2-19.5,27-47.3,26.4c-1-0.1-1,0.9-0.4,1.4
				c0.8,0.4,1.6,0.7,2.4,0.9c0.8,0.3,1.7,0.5,2.5,0.6c5.1,0,9.8-0.2,14.7-1.5c2.8-0.7,5.2-1.6,7.8-2.7c3.6-1.6,6.8-3.6,9.9-6
				c2.9-2.3,5.6-5,7.7-8c1.6-2.3,3.1-4.9,4.1-7.4c0.4-1.4,0.9-2.7,1.3-4.1c0.8-2.8,1.2-5.8,1.3-8.7c0.1-0.8-0.5-1.1-1.2-0.8
				C157,424.7,155.7,426.7,155.6,427.6z"/>
		</g>
	</g>
</g>
<circle id="XMLID_65_" class="st3" cx="101.2" cy="408.9" r="8.7"/>
<circle id="XMLID_64_" cx="101.4" cy="410.1" r="2.7"/>
<path id="XMLID_63_" class="st4" d="M105.8,448.4c3.4-1.5,8.4-2.5,14.1-2.6c6-0.1,11.3,0.7,14.8,2.2"/>
<path id="XMLID_62_" class="st5" d="M117.3,418.3c1,3.4-1.9,7.8,0.6,10.3c1.6,1.6,4.8,0.9,5.5-1.2"/>
<circle id="XMLID_61_" class="st3" cx="141" cy="408.9" r="8.7"/>
<circle id="XMLID_60_" cx="141.3" cy="410.1" r="2.7"/>
<circle id="XMLID_138_" class="st0" cx="330.9" cy="420.9" r="49.8"/>
<g id="XMLID_123_" class="st1">
	<g id="XMLID_203_">
		<g id="XMLID_204_">
			<path id="XMLID_216_" class="st2" d="M332.9,380.7c3.3,0,6.5,0.5,9.7,1.3c5.7,1.5,10.9,4.2,15.3,7.9c3.4,2.9,6.3,6.1,8.8,9.8
				c2.4,3.7,4.3,7.9,5.4,12.1c1.7,6.1,1.8,12,1.3,18.2c0,0.4-0.1,1.1,0.4,1.3c0.7,0.3,1.2-1.4,1.3-1.7c0.5-1.5,1-3,1.4-4.5
				c0.3-1.3,0.8-2.6,0.6-3.9c-0.6-5.7-1.6-10.9-3.8-16.2c-2.1-4.9-4.9-9.5-8.4-13.5c-3.1-3.5-6.7-6.5-10.6-9.1
				c-8.2-5.6-18.2-7.9-27.9-8.6c-1.8-0.1,1.1,2.7,1,2.6c1.1,1.1,2.3,2.1,3.5,3.1C331.4,380.1,332.1,380.5,332.9,380.7z"/>
			<path id="XMLID_215_" class="st2" d="M334.2,377.7c3.2,0,6.4,0.4,9.6,1.2c4,1.8,7.9,3.6,11.9,5.4c4.4,2.7,8,6.7,11,10.9
				c2.6,3.7,4.5,7.6,5.9,11.9c0.7,2.1,1.3,4.3,1.6,6.5c0.7,4.6,0.7,9.2,0,13.9c-0.1,1.1,0.9,1.1,1.4,0.4c0.4-0.8,0.7-1.7,1-2.6
				s0.5-1.8,0.6-2.7c0-4.1-0.1-8-0.9-12c-0.6-3.1-1.5-6.1-2.7-9c-3-7.3-7.8-13.7-13.9-18.7c-3.1-2.6-6.5-4.5-10.1-6.4
				c-6-3.1-12.7-4.2-19.3-4.7c-1.5-0.1,0.1,2,0.2,2.2c0.7,0.9,1.5,1.8,2.3,2.7C333.1,377.1,333.6,377.5,334.2,377.7z"/>
			<path id="XMLID_214_" class="st2" d="M334.9,380.1c4.9,0.3,9.5,0.8,14.1,2.7c9.9,4.1,18.4,12.2,22.8,21.9c1.5,3.4,2.8,7,3.4,10.6
				c0.8,4.7,0.7,9.2,0.3,13.9c0,0.4-0.1,1,0.3,1.3c0.6,0.4,1.3-1.2,1.4-1.5c0.6-1.4,1.2-2.8,1.7-4.2c0.4-1.1,1-2.4,0.9-3.7
				c-0.1-3.5-0.6-6.9-1.4-10.2c-0.8-3.3-1.9-6.4-3.3-9.4c-2.8-5.9-6.8-11.3-11.6-15.7c-4.9-4.4-10.5-7.8-16.6-10.2
				c-3-1.2-6.2-2.2-9.4-2.8c-3.2-0.8-6.4-1.2-9.6-1.3c-1.9-0.2,1,2.9,1,2.9c1.2,1.3,2.4,2.7,3.7,3.9
				C333.2,379.1,334,379.7,334.9,380.1z"/>
			<path id="XMLID_213_" class="st2" d="M337.7,383.4c3.3,0,6.5,0.5,9.7,1.3c5.7,1.6,10.8,4.3,15.3,8.1c3.3,2.9,6.2,6.2,8.5,10
				s4.1,8,5.2,12.3c1.6,6.2,1.4,12.2,0.7,18.5c-0.1,0.8,0.6,1.1,1.2,0.7c0.8-0.5,2-2.6,2-3.5c0.2-4.4,0.4-8.7-0.3-13.1
				c-0.6-3.4-1.4-6.6-2.6-9.8c-3.1-7.8-7.9-14.3-14.4-19.5c-3.2-2.6-6.6-4.6-10.3-6.3c-6.1-2.9-12.7-4.1-19.4-4.6
				c-1.5-0.1,0.3,2.1,0.4,2.2c0.8,0.9,1.6,1.7,2.5,2.5C336.5,382.9,337,383.2,337.7,383.4z"/>
			<path id="XMLID_212_" class="st2" d="M337.6,380.6c4.9,0.4,9.4,0.9,14.1,2.7c4.9,1.7,8.8,4.8,11.9,9.2c4.5,2.8,7.8,6.5,9.9,11.2
				c1.9,4.1,3.4,8.4,4,12.9c0.6,4.8,0.4,9.3-0.1,14.1c-0.1,0.9,0.6,1.1,1.3,0.7c0.5-0.6,0.9-1.3,1.3-2s0.7-1.4,0.9-2.2
				c0.2-4.4,0.2-8.6-0.5-13c-0.7-4.1-1.8-8.3-3.7-12.1c-1.6-3.3-3.3-6.2-5.5-9.1c-3.5-4.6-7.9-8.6-12.8-11.6
				c-3.5-2.2-7.2-4-11.2-5.3c-4.7-1.6-9.4-2.3-14.3-2.7c-1.6-0.1,0.2,2.3,0.4,2.5c0.8,1.1,1.7,2.2,2.6,3.3
				C336.3,379.8,336.9,380.3,337.6,380.6z"/>
			<path id="XMLID_211_" class="st2" d="M333.8,379.6c8.1,0,13.3,0.6,20.7,6.2c2.9,2.2,5.5,4.7,7.8,7.6c2.4,2.7,3.9,5.8,4.8,9.4
				c2.4,3.7,3.8,7.7,4.2,12.1c0.5,4.5,0.2,8.8-0.4,13.3c-0.2,1.6,1.6,1.9,1.8,0.3c0.6-4.6,1-9.1,0.4-13.7c-0.4-3-1-6-2-8.9
				c-1.2-3.7-3-7.2-5.1-10.5c-3.7-5.7-8.6-10.6-14.6-13.8c-1.4-0.8-2.8-1.5-4.3-2s-2.9-1-4.4-1.5c-2.9-0.5-5.8-0.6-8.7-0.3
				C332.9,377.8,332.6,379.6,333.8,379.6z"/>
			<path id="XMLID_210_" class="st2" d="M331.8,380.6c6.1,0.5,12.2,1.5,17.6,4.5c13,7.1,20.2,18.4,22.4,35.7c-0.1-1-0.1-2.1-0.2-3.1
				c0.1,2.6,0.2,5.1,0.2,7.7c0-1.1,0.1-2.1,0.1-3.2c-0.2,2.6-0.4,5.2-0.6,7.8c-0.1,1.3,1,1.1,1.4,0.3c0.3-1,0.6-2.1,0.8-3.2
				c0.2-1.1,0.4-2.1,0.4-3.2c-0.2-6.2-1-12.2-3.3-18c-2.4-6.2-6.2-11.8-11-16.5c-4.3-4.2-9.4-7.5-15.1-9.7c-5.5-2.2-11-3-16.8-3.5
				c-0.3,0.1-0.5,0.3-0.5,0.6c0.1,0.5,0.4,1,0.9,1.3C329,379.1,330.4,380.5,331.8,380.6z"/>
			<path id="XMLID_209_" class="st2" d="M334.4,384.2c3,0.4,6,0.8,9,1.2c1.5,0.5,2.9,0.9,4.4,1.4c3.5,1.3,6.7,3.2,9.7,5.5
				c4.8,3.3,7.8,8.1,9,14.5c4.7,4.5,7.2,9.6,7.5,15.4c0.4,3.9,0.2,7.6-0.2,11.5c-0.1,1.1,0.7,1.3,1.3,0.5c0.5-0.9,0.9-1.8,1.2-2.7
				c0.4-0.9,0.7-1.9,0.9-2.9c-0.1-3.4-0.2-6.7-0.8-10.1c-0.6-3.1-1.5-6.3-2.7-9.3c-2.6-6.4-6.7-12.2-11.8-16.9
				c-4.5-4.2-9.8-7.3-15.5-9.5c-5.5-2.1-11.1-2.9-16.9-3.3c-1.5-0.1,0.7,2.1,0.6,2C331.3,382.7,332.9,384.1,334.4,384.2z"/>
			<path id="XMLID_208_" class="st2" d="M337.4,377.8c6.3,0.5,12,1.3,17.7,4.6c3.3,1.9,6.3,4.1,9,6.8c2.6,2.6,5,5.5,6.9,8.8
				c5.3,9.4,6.7,18.6,5.2,30.4c-0.1,0.6,0.2,1.4,1.1,1.1c0.8-0.3,1.1-1.7,1.1-2.4c0.4-3.3,0.5-4.3,0.5-7.1c0-2.4-0.2-4.6-0.4-7
				c-0.7-6.3-3.2-13.2-6.7-18.5c-4-6.2-9.1-11.3-15.4-15c-2.3-1.4-4.5-2.5-7-3.4c-1.6-0.5-3.1-1-4.7-1.5c-3.1-0.9-6.3-1.4-9.5-1.5
				c-1.2-0.1-0.5,1.4-0.3,1.8C335.3,375.6,336.3,377.7,337.4,377.8z"/>
			<path id="XMLID_207_" class="st2" d="M332.5,383.1c5.4,0.3,10.6,1.3,15.4,3.5c16.3,7.4,25.9,23,24,45.9c-0.1,1.3,0.9,1.2,1.4,0.3
				c0.4-1.1,0.8-2.2,1-3.3c0.3-1.1,0.5-2.2,0.6-3.4c-0.2-3.2-0.4-6.4-1-9.6c-0.6-3-1.6-6-2.8-8.8c-2.6-6.2-6.5-11.7-11.4-16.3
				c-4.4-4.1-9.5-7.2-15.2-9.4c-5.5-2.1-10.9-2.8-16.7-3.2c-0.4,0.1-0.5,0.3-0.5,0.7c0.2,0.6,0.5,1,1.1,1.3
				C329.5,381.7,331.1,383,332.5,383.1z"/>
			<path id="XMLID_206_" class="st2" d="M336.6,377.7c3.2,0,6.4,0.4,9.5,1.1c1.5,0.5,3,1,4.4,1.5c2.8,1.1,5.4,2.6,7.9,4.4
				c3,2,5.5,4.6,7.4,7.8c2.6,2.6,4.5,5.5,5.9,8.9c0.9,2,1.6,4.1,2.1,6.2c1.8,6.9,1.7,13.2,0.6,20.3c-0.1,0.5,0.6,0.9,1.1,0.8
				c0.6-0.1,0.8-0.6,0.8-1.2c0.8-5.5,1.1-10.9,0.1-16.5c-1.1-6.7-3.7-13.4-7.9-18.9c-2.8-3.7-6-7.1-9.8-9.8
				c-2.6-1.8-5.3-3.3-8.2-4.6c-4.6-2-9.1-2.4-14-2.7c-0.5,0-1.1,0.2-1.2,0.8C335.4,376.4,336.2,377.7,336.6,377.7z"/>
			<path id="XMLID_205_" class="st2" d="M332.6,381c6.4,0.1,11.2,0.6,17.1,4c1.2,0.8,2.5,1.6,3.7,2.4c3.5,2.4,6.3,5.5,8.2,9.5
				c2.6,2.5,4.5,5.4,5.6,8.6c0.9,1.9,1.5,3.9,2,6c1.3,5.8,1.3,11.3,0.7,17.3c-0.1,0.7-0.2,1.7,0.7,1.8c0.9,0.1,1-0.9,1.1-1.6
				c0.4-3.5,0.7-5.6,0.5-9.2c-0.2-3-0.6-5.9-1.2-8.8c-1.3-5.7-3.9-11.3-7.4-16c-3.2-4.3-7-7.9-11.5-10.8c-2-1.3-4.1-2.4-6.4-3.3
				c-1.4-0.5-2.9-1-4.3-1.5c-3-0.6-5.9-0.8-8.9-0.6C331.2,378.9,331.4,380.9,332.6,381z"/>
		</g>
	</g>
</g>
<g id="XMLID_108_" class="st1">
	<g id="XMLID_188_">
		<g id="XMLID_189_">
			<path id="XMLID_201_" class="st2" d="M369.2,429.6c0,2.3-0.2,4.6-0.9,6.8c-1.2,6-4.2,11.2-9,15.7c-3,3-6.8,5.6-10.6,7.4
				c-4.1,1.9-8.4,3.4-12.9,4.1c-4.8,0.7-9.5,0.7-14.4,0.2c-0.4,0-1.1-0.1-1.3,0.3c-0.4,0.6,1.3,1.3,1.6,1.4c1.4,0.7,2.8,1.2,4.2,1.7
				c1.2,0.4,2.4,1,3.7,0.9c1.8-0.1,3.5-0.2,5.3-0.3c3.5-0.5,6.9-1.3,10.2-2.5c6.3-2.2,12.1-5.7,17-10.1c4.7-4.3,8.3-9.5,11-15.3
				c1.3-2.8,2.3-5.7,3-8.7c0.8-2.9,1.3-5.9,1.3-9c0.2-1.9-3,1.2-2.9,1.1c-1.3,1.2-2.5,2.5-3.8,3.8
				C370.2,427.9,369.6,428.7,369.2,429.6z"/>
			<path id="XMLID_200_" class="st2" d="M369.9,426.6c-0.1,1.5-0.2,3-0.4,4.5c-0.5,3.4-1.6,6.6-3.4,9.5
				c-8.1,14.7-23.8,21.1-44.1,19.7c-1.4-0.1-1.3,0.9-0.3,1.4c1.2,0.4,2.4,0.7,3.7,1c1.2,0.3,2.5,0.5,3.8,0.6
				c6.5-0.4,12.6-1.3,18.7-3.8c5.5-2.3,10.7-5.6,15-9.8c4.2-4.1,7.5-9.1,9.6-14.6c1.7-4.4,2.4-9,2.8-13.7c0.1-1.6-2.2,0.6-2.2,0.6
				C372.1,423.1,370,425,369.9,426.6z"/>
			<path id="XMLID_199_" class="st2" d="M371.4,428.8c0,3-0.5,6-1.4,8.9c-0.5,1.3-1,2.7-1.6,4c-3.1,7.1-9.1,12.4-15.7,16.1
				c-4,2.2-8.2,3.7-12.6,4.7c-5.6,1.2-10.9,1.2-16.6,0.7c-1.3-0.1-1.5,0.7-0.4,1.4c1.2,0.5,2.4,1,3.6,1.4s2.5,0.8,3.8,1
				c5.4-0.2,10.7-0.7,15.9-2.5c4.5-1.5,8.8-3.6,12.8-6.3c4-2.7,7.8-6.1,10.7-10c2.7-3.7,5.2-7.8,6.7-12.2c0.5-1.5,0.9-3,1.4-4.4
				c0.8-2.9,1.3-5.9,1.4-8.9c0.2-1.8-2.7,0.8-2.7,0.8c-1.2,1.1-2.4,2.2-3.5,3.3C372.3,427.3,371.7,428,371.4,428.8z"/>
			<path id="XMLID_198_" class="st2" d="M372.1,432.7c0,2.2-0.2,4.4-0.8,6.5c-0.4,2.1-1.1,4.1-2.1,6c-1.9,3.8-4.7,7.5-7.9,10.2
				c-6.8,5.7-15.4,9.3-24.2,10.1c-4.8,0.4-9.5,0-14.3-0.5c-0.5-0.1-1,0.3-1,0.9s0.7,1,1.2,1.1c4.2,0.5,8.3,0.8,12.5,0.6
				c2.5-0.2,5-0.5,7.4-0.9c4.1-0.8,7.9-2.2,11.6-4.1c6.3-3.1,12.1-7.8,16-13.7c1.7-2.5,3-5.5,4-8.3c1.1-3.3,1.2-5.7,1.6-9.1
				C376.1,429.4,372.2,431.5,372.1,432.7z"/>
			<path id="XMLID_197_" class="st2" d="M372.7,429.9c0,4.3-0.9,8.4-2.8,12.3c-1.2,2.6-2.8,5-4.7,7.1c-10,11.6-25.7,14.9-41.2,13.3
				c-0.8-0.1-0.8,1-0.4,1.4c0.7,0.7,2.5,1,3.5,1.1c4.7,0.3,9.2,0.2,13.9-0.4c4.8-0.7,10-2.3,14.2-4.6c6.2-3.2,11.5-7.6,15.6-13.4
				c2.2-3.1,3.8-6.5,5-10.2c1-3.1,1.3-5.9,1.6-9.2c0.1-1.2-1.5-0.4-1.8-0.2C374.6,427.7,372.8,428.8,372.7,429.9z"/>
			<path id="XMLID_196_" class="st2" d="M366.1,426.8c0.2,3.6-0.7,6.9-2.5,10.1c-5,17.1-19.8,24.7-44.4,22.6c-0.7-0.1-2.5,0-1.5,1.1
				c0.4,0.5,1.3,0.6,1.9,0.7c1,0.2,2.1,0.5,3.1,0.5c5.9,0.1,11.3-0.4,17.1-2c4.4-1.2,8.7-3.3,12.5-5.8c3.6-2.4,6.6-5.2,9.3-8.5
				c1.7-2,3.2-4.7,4.3-7.2c1.9-4.3,2.5-8.5,2.9-13.1c0-0.6-0.7-1-1.2-0.8C367,424.7,366.2,426.1,366.1,426.8z"/>
			<path id="XMLID_195_" class="st2" d="M367.2,429.1c0,4.2-0.9,8.3-2.7,12.2c-1.2,2.6-2.7,4.9-4.5,7.1c-2.8,3.3-6,6-9.7,8.3
				s-8,4-12.2,5.1c-6.3,1.6-12.4,1.6-18.8,1c-0.4,0-1-0.1-1.2,0.3c-0.3,0.6,1.1,1.2,1.4,1.4c1.2,0.6,2.5,1.1,3.8,1.5
				c1.1,0.4,2.2,0.8,3.4,0.8c5.3-0.2,10.3-0.9,15.3-2.7c5.3-1.9,10.1-4.5,14.5-8c4.9-3.8,8.7-8.5,11.6-13.9c1-2,2-4,2.8-6.1
				c1.6-4.4,2.3-8.9,2.7-13.6c0.2-1.8-2.6,1.2-2.4,1c-1,1.1-1.9,2.3-2.7,3.4C367.7,427.6,367.3,428.3,367.2,429.1z"/>
			<path id="XMLID_194_" class="st2" d="M369.3,432.9c0,3-0.5,6-1.4,8.9c-2,3.5-4,7.1-6,10.6c-3.1,4-7.5,7-11.9,9.3
				c-4.1,2.1-8.4,3.5-12.9,4.3c-5.7,1-11.1,0.8-16.8,0c-0.7-0.1-1,0.8-0.7,1.3c0.4,0.7,2.2,1.5,3.1,1.6c3.5,0.3,6.9,0.6,10.5,0.4
				c4.3-0.2,8.5-1.2,12.7-2.6c3.2-1.1,6.2-2.5,9.1-4.2c3.4-2,7-4.6,9.6-7.6c2.1-2.5,3.9-5,5.6-7.7c1.4-2.2,2.3-4.5,3.1-7
				c0.6-1.4,1-2.9,1.3-4.4c0.6-2.2,1-4.4,1-6.7c0.1-1.5-2-0.1-2.2,0.1c-1,0.7-1.9,1.4-2.8,2.1C369.9,431.8,369.6,432.3,369.3,432.9z
				"/>
			<path id="XMLID_193_" class="st2" d="M371.1,427.2c-0.3,4.4-0.8,8.6-2.9,12.6c-2.4,3.2-4.8,6.3-7.3,9.5
				c-9.8,8.7-22.2,12.1-37.1,10.2c-0.7-0.1-1.6,0.1-1.3,1.1c0.3,0.9,2.4,0.9,3.1,1c4.7,0.3,9.3,0.4,14-0.4c4.3-0.7,8.5-2,12.5-3.8
				c5.4-2.5,10.7-6.3,14.4-11c1.8-2.3,3.4-4.6,4.6-7.3c0.5-1.4,1-2.7,1.6-4.1c0.8-2.8,1.2-5.6,1.2-8.4
				C374,424.4,371.2,426,371.1,427.2z"/>
			<path id="XMLID_192_" class="st2" d="M367.7,431.6c0,3.1-0.5,6-1.4,8.9c-1.9,3.5-3.9,7-5.8,10.4c-3,4-7.3,7-11.7,9.3
				c-4,2.2-8.2,3.6-12.7,4.5c-2.3,0.5-4.6,0.8-7,0.9c-3.3,0.2-6.5,0-9.8-0.5c-1-0.1-1.3,0.5-0.6,1.3c0.8,0.6,1.6,1,2.5,1.5
				s1.7,0.8,2.7,1.1c3.7,0.1,7,0.3,10.7-0.3c2-0.3,4-0.7,5.9-1.2c4.9-1.4,9.7-3.4,13.9-6.3c4.1-2.7,7.7-6,10.8-9.8
				c2.5-3,4.3-6.6,5.9-10.1c1-2.1,1.8-4.3,2.3-6.5c0.9-2.9,1.3-5.9,1.4-8.9c0.2-1.7-2.5,0.7-2.5,0.7c-1.1,1-2.1,2-3.1,3.1
				C368.4,430.2,367.9,430.8,367.7,431.6z"/>
			<path id="XMLID_191_" class="st2" d="M369.4,426.2c0,4.3-1,8.5-2.9,12.4c-1.7,3.8-4.4,6.7-8.1,8.9c-2.6,3.2-5.8,5.6-9.6,7.1
				c-8.1,3.5-16.7,4.6-25.8,3.5c-0.6-0.1-2-0.4-2.2,0.6c-0.1,1,1.3,1.1,1.9,1.2c4.7,0.4,9.3,0.5,14,0c6.5-0.8,12.9-3.2,18.4-6.7
				c3.1-2,6-4.3,8.5-7.1c2.8-3.2,5.2-7,6.5-11.1c1.1-3.2,1.2-5.9,1.5-9.3c0-0.5-0.7-1-1.1-0.9C370,424.8,369.4,425.7,369.4,426.2z"
				/>
			<path id="XMLID_190_" class="st2" d="M365.5,427.8c0.1,2.3-0.2,4.5-0.9,6.7c-3.7,18.2-19.5,27-47.3,26.4c-1-0.1-1,0.9-0.4,1.4
				c0.8,0.4,1.6,0.7,2.4,0.9c0.8,0.3,1.7,0.5,2.5,0.6c5.1,0,9.8-0.2,14.7-1.5c2.8-0.7,5.2-1.6,7.8-2.7c3.6-1.6,6.8-3.6,9.9-6
				c2.9-2.3,5.6-5,7.7-8c1.6-2.3,3.1-4.9,4.1-7.4c0.4-1.4,0.9-2.7,1.3-4.1c0.8-2.8,1.2-5.8,1.3-8.7c0.1-0.8-0.5-1.1-1.2-0.8
				C366.9,424.9,365.6,427,365.5,427.8z"/>
		</g>
	</g>
</g>
<circle id="XMLID_107_" class="st3" cx="311.1" cy="409.1" r="8.7"/>
<circle id="XMLID_104_" cx="310.3" cy="409.3" r="2.7"/>
<path id="XMLID_102_" class="st5" d="M327.1,418.6c1,3.4-1.9,7.8,0.6,10.3c1.6,1.6,4.8,0.9,5.5-1.2"/>
<circle id="XMLID_101_" class="st3" cx="350.9" cy="409.1" r="8.7"/>
<circle id="XMLID_100_" cx="350.1" cy="409.3" r="2.7"/>
<path id="XMLID_99_" class="st4" d="M345.4,443.3c-3.4,1.5-8.4,2.5-14.1,2.6c-6,0.1-11.3-0.7-14.8-2.2"/>
</svg>
