<?xml version="1.0" encoding="utf-8"?>
<!-- Generator: Adobe Illustrator 19.0.0, SVG Export Plug-In . SVG Version: 6.00 Build 0)  -->
<svg version="1.1" id="Layer_1" xmlns="http://www.w3.org/2000/svg" xmlns:xlink="http://www.w3.org/1999/xlink" x="0px" y="0px"
	 viewBox="-34 370.3 525.1 100.6" style="enable-background:new -34 370.3 525.1 100.6;" xml:space="preserve">
<style type="text/css">
	.st0{fill:#FFCA07;}
	.st1{opacity:0.7;}
	.st2{opacity:0.1091;fill:#FFFFFF;enable-background:new    ;}
	.st3{fill:#FFFFFF;}
	.st4{fill:none;stroke:#000000;stroke-width:3;stroke-linecap:round;stroke-miterlimit:10;}
	.st5{fill:none;stroke:#E87325;stroke-width:3;stroke-linecap:round;stroke-miterlimit:10;}
</style>
<circle id="XMLID_1_" class="st0" cx="435.9" cy="420.4" r="49.8"/>
<g id="XMLID_4_" class="st1">
	<g id="XMLID_46_">
		<g id="XMLID_47_">
			<path id="XMLID_59_" class="st2" d="M437.9,380.2c3.3,0,6.5,0.5,9.7,1.3c5.7,1.5,10.9,4.2,15.3,7.9c3.4,2.9,6.3,6.1,8.8,9.8
				c2.4,3.7,4.3,7.9,5.4,12.1c1.7,6.1,1.8,12,1.3,18.2c0,0.4-0.1,1.1,0.4,1.3c0.7,0.3,1.2-1.4,1.3-1.7c0.5-1.5,1-3,1.4-4.5
				c0.3-1.3,0.8-2.6,0.6-3.9c-0.6-5.7-1.6-10.9-3.8-16.2c-2.1-4.9-4.9-9.5-8.4-13.5c-3.1-3.5-6.7-6.5-10.6-9.1
				c-8.2-5.6-18.2-7.9-27.9-8.6c-1.8-0.1,1.1,2.7,1,2.6c1.1,1.1,2.3,2.1,3.5,3.1C436.4,379.6,437.1,380,437.9,380.2z"/>
			<path id="XMLID_58_" class="st2" d="M439.2,377.2c3.2,0,6.4,0.4,9.6,1.2c4,1.8,7.9,3.6,11.9,5.4c4.4,2.7,8,6.7,11,10.9
				c2.6,3.7,4.5,7.6,5.9,11.9c0.7,2.1,1.3,4.3,1.6,6.5c0.7,4.6,0.7,9.2,0,13.9c-0.1,1.1,0.9,1.1,1.4,0.4c0.4-0.8,0.7-1.7,1-2.6
				s0.5-1.8,0.6-2.7c0-4.1-0.1-8-0.9-12c-0.6-3.1-1.5-6.1-2.7-9c-3-7.3-7.8-13.7-13.9-18.7c-3.1-2.6-6.5-4.5-10.1-6.4
				c-6-3.1-12.7-4.2-19.3-4.7c-1.5-0.1,0.1,2,0.2,2.2c0.7,0.9,1.5,1.8,2.3,2.7C438.1,376.6,438.6,377,439.2,377.2z"/>
			<path id="XMLID_57_" class="st2" d="M439.9,379.6c4.9,0.3,9.5,0.8,14.1,2.7c9.9,4.1,18.4,12.2,22.8,21.9c1.5,3.4,2.8,7,3.4,10.6
				c0.8,4.7,0.7,9.2,0.3,13.9c0,0.4-0.1,1,0.3,1.3c0.6,0.4,1.3-1.2,1.4-1.5c0.6-1.4,1.2-2.8,1.7-4.2c0.4-1.1,1-2.4,0.9-3.7
				c-0.1-3.5-0.6-6.9-1.4-10.2c-0.8-3.3-1.9-6.4-3.3-9.4c-2.8-5.9-6.8-11.3-11.6-15.7c-4.9-4.4-10.5-7.8-16.6-10.2
				c-3-1.2-6.2-2.2-9.4-2.8c-3.2-0.8-6.4-1.2-9.6-1.3c-1.9-0.2,1,2.9,1,2.9c1.2,1.3,2.4,2.7,3.7,3.9
				C438.2,378.6,439,379.2,439.9,379.6z"/>
			<path id="XMLID_56_" class="st2" d="M442.7,382.9c3.3,0,6.5,0.5,9.7,1.3c5.7,1.6,10.8,4.3,15.3,8.1c3.3,2.9,6.2,6.2,8.5,10
				s4.1,8,5.2,12.3c1.6,6.2,1.4,12.2,0.7,18.5c-0.1,0.8,0.6,1.1,1.2,0.7c0.8-0.5,2-2.6,2-3.5c0.2-4.4,0.4-8.7-0.3-13.1
				c-0.6-3.4-1.4-6.6-2.6-9.8c-3.1-7.8-7.9-14.3-14.4-19.5c-3.2-2.6-6.6-4.6-10.3-6.3c-6.1-2.9-12.7-4.1-19.4-4.6
				c-1.5-0.1,0.3,2.1,0.4,2.2c0.8,0.9,1.6,1.7,2.5,2.5C441.5,382.4,442,382.7,442.7,382.9z"/>
			<path id="XMLID_55_" class="st2" d="M442.6,380.1c4.9,0.4,9.4,0.9,14.1,2.7c4.9,1.7,8.8,4.8,11.9,9.2c4.5,2.8,7.8,6.5,9.9,11.2
				c1.9,4.1,3.4,8.4,4,12.9c0.6,4.8,0.4,9.3-0.1,14.1c-0.1,0.9,0.6,1.1,1.3,0.7c0.5-0.6,0.9-1.3,1.3-2s0.7-1.4,0.9-2.2
				c0.2-4.4,0.2-8.6-0.5-13c-0.7-4.1-1.8-8.3-3.7-12.1c-1.6-3.3-3.3-6.2-5.5-9.1c-3.5-4.6-7.9-8.6-12.8-11.6
				c-3.5-2.2-7.2-4-11.2-5.3c-4.7-1.6-9.4-2.3-14.3-2.7c-1.6-0.1,0.2,2.3,0.4,2.5c0.8,1.1,1.7,2.2,2.6,3.3
				C441.3,379.3,441.9,379.8,442.6,380.1z"/>
			<path id="XMLID_54_" class="st2" d="M438.8,379.1c8.1,0,13.3,0.6,20.7,6.2c2.9,2.2,5.5,4.7,7.8,7.6c2.4,2.7,3.9,5.8,4.8,9.4
				c2.4,3.7,3.8,7.7,4.2,12.1c0.5,4.5,0.2,8.8-0.4,13.3c-0.2,1.6,1.6,1.9,1.8,0.3c0.6-4.6,1-9.1,0.4-13.7c-0.4-3-1-6-2-8.9
				c-1.2-3.7-3-7.2-5.1-10.5c-3.7-5.7-8.6-10.6-14.6-13.8c-1.4-0.8-2.8-1.5-4.3-2s-2.9-1-4.4-1.5c-2.9-0.5-5.8-0.6-8.7-0.3
				C437.9,377.3,437.6,379.1,438.8,379.1z"/>
			<path id="XMLID_53_" class="st2" d="M436.7,380.1c6.1,0.5,12.2,1.5,17.6,4.5c13,7.1,20.2,18.4,22.4,35.7c-0.1-1-0.1-2.1-0.2-3.1
				c0.1,2.6,0.2,5.1,0.2,7.7c0-1.1,0.1-2.1,0.1-3.2c-0.2,2.6-0.4,5.2-0.6,7.8c-0.1,1.3,1,1.1,1.4,0.3c0.3-1,0.6-2.1,0.8-3.2
				s0.4-2.1,0.4-3.2c-0.2-6.2-1-12.2-3.3-18c-2.4-6.2-6.2-11.8-11-16.5c-4.3-4.2-9.4-7.5-15.1-9.7c-5.5-2.2-11-3-16.8-3.5
				c-0.3,0.1-0.5,0.3-0.5,0.6c0.1,0.5,0.4,1,0.9,1.3C434,378.6,435.4,380,436.7,380.1z"/>
			<path id="XMLID_52_" class="st2" d="M439.4,383.7c3,0.4,6,0.8,9,1.2c1.5,0.5,2.9,0.9,4.4,1.4c3.5,1.3,6.7,3.2,9.7,5.5
				c4.8,3.3,7.8,8.1,9,14.5c4.7,4.5,7.2,9.6,7.5,15.4c0.4,3.9,0.2,7.6-0.2,11.5c-0.1,1.1,0.7,1.3,1.3,0.5c0.5-0.9,0.9-1.8,1.2-2.7
				c0.4-0.9,0.7-1.9,0.9-2.9c-0.1-3.4-0.2-6.7-0.8-10.1c-0.6-3.1-1.5-6.3-2.7-9.3c-2.6-6.4-6.7-12.2-11.8-16.9
				c-4.5-4.2-9.8-7.3-15.5-9.5c-5.5-2.1-11.1-2.9-16.9-3.3c-1.5-0.1,0.7,2.1,0.6,2C436.2,382.2,437.9,383.6,439.4,383.7z"/>
			<path id="XMLID_51_" class="st2" d="M442.4,377.3c6.3,0.5,12,1.3,17.7,4.6c3.3,1.9,6.3,4.1,9,6.8c2.6,2.6,5,5.5,6.9,8.8
				c5.3,9.4,6.7,18.6,5.2,30.4c-0.1,0.6,0.2,1.4,1.1,1.1c0.8-0.3,1.1-1.7,1.1-2.4c0.4-3.3,0.5-4.3,0.5-7.1c0-2.4-0.2-4.6-0.4-7
				c-0.7-6.3-3.2-13.2-6.7-18.5c-4-6.2-9.1-11.3-15.4-15c-2.3-1.4-4.5-2.5-7-3.4c-1.6-0.5-3.1-1-4.7-1.5c-3.1-0.9-6.3-1.4-9.5-1.5
				c-1.2-0.1-0.5,1.4-0.3,1.8C440.3,375.1,441.3,377.2,442.4,377.3z"/>
			<path id="XMLID_50_" class="st2" d="M437.5,382.6c5.4,0.3,10.6,1.3,15.4,3.5c16.3,7.4,25.9,23.1,24,45.9
				c-0.1,1.3,0.9,1.2,1.4,0.3c0.4-1.1,0.8-2.2,1-3.3c0.3-1.1,0.5-2.2,0.6-3.4c-0.2-3.2-0.4-6.4-1-9.6c-0.6-3-1.6-6-2.8-8.8
				c-2.6-6.2-6.5-11.7-11.4-16.3c-4.4-4.1-9.5-7.2-15.2-9.4c-5.5-2.1-10.9-2.8-16.7-3.2c-0.4,0.1-0.5,0.3-0.5,0.7
				c0.2,0.6,0.5,1,1.1,1.3C434.5,381.2,436.1,382.5,437.5,382.6z"/>
			<path id="XMLID_49_" class="st2" d="M441.6,377.2c3.2,0,6.4,0.4,9.5,1.1c1.5,0.5,3,1,4.4,1.5c2.8,1.1,5.4,2.6,7.9,4.4
				c3,2,5.5,4.6,7.4,7.8c2.6,2.6,4.5,5.5,5.9,8.9c0.9,2,1.6,4.1,2.1,6.2c1.8,6.9,1.7,13.2,0.6,20.3c-0.1,0.5,0.6,0.9,1.1,0.8
				c0.6-0.1,0.8-0.6,0.8-1.2c0.8-5.5,1.1-10.9,0.1-16.5c-1.1-6.7-3.7-13.4-7.9-18.9c-2.8-3.7-6-7.1-9.8-9.8
				c-2.6-1.8-5.3-3.3-8.2-4.6c-4.6-2-9.1-2.4-14-2.7c-0.5,0-1.1,0.2-1.2,0.8C440.3,375.9,441.1,377.2,441.6,377.2z"/>
			<path id="XMLID_48_" class="st2" d="M437.6,380.5c6.4,0.1,11.2,0.6,17.1,4c1.2,0.8,2.5,1.6,3.7,2.4c3.5,2.4,6.3,5.5,8.2,9.5
				c2.6,2.5,4.5,5.4,5.6,8.6c0.9,1.9,1.5,3.9,2,6c1.3,5.8,1.3,11.3,0.7,17.3c-0.1,0.7-0.2,1.7,0.7,1.8s1-0.9,1.1-1.6
				c0.4-3.5,0.7-5.6,0.5-9.2c-0.2-3-0.6-5.9-1.2-8.8c-1.3-5.7-3.9-11.3-7.4-16c-3.2-4.3-7-7.9-11.5-10.8c-2-1.3-4.1-2.4-6.4-3.3
				c-1.4-0.5-2.9-1-4.3-1.5c-3-0.6-5.9-0.8-8.9-0.6C436.2,378.4,436.4,380.4,437.6,380.5z"/>
		</g>
	</g>
</g>
<g id="XMLID_2_" class="st1">
	<g id="XMLID_31_">
		<g id="XMLID_32_">
			<path id="XMLID_44_" class="st2" d="M474.2,429.1c0,2.3-0.2,4.6-0.9,6.8c-1.2,6-4.2,11.2-9,15.7c-3,3-6.8,5.6-10.6,7.4
				c-4.1,1.9-8.4,3.4-12.9,4.1c-4.8,0.7-9.5,0.7-14.4,0.2c-0.4,0-1.1-0.1-1.3,0.3c-0.4,0.6,1.3,1.3,1.6,1.4c1.4,0.7,2.8,1.2,4.2,1.7
				c1.2,0.4,2.4,1,3.7,0.9c1.8-0.1,3.5-0.2,5.3-0.3c3.5-0.5,6.9-1.3,10.2-2.5c6.3-2.2,12.1-5.7,17-10.1c4.7-4.3,8.3-9.5,11-15.3
				c1.3-2.8,2.3-5.7,3-8.7c0.8-2.9,1.3-5.9,1.3-9c0.2-1.9-3,1.2-2.9,1.1c-1.3,1.2-2.5,2.5-3.8,3.8
				C475.1,427.4,474.6,428.2,474.2,429.1z"/>
			<path id="XMLID_43_" class="st2" d="M474.9,426.1c-0.1,1.5-0.2,3-0.4,4.5c-0.5,3.4-1.6,6.6-3.4,9.5
				c-8.1,14.7-23.8,21.1-44.1,19.7c-1.4-0.1-1.3,0.9-0.3,1.4c1.2,0.4,2.4,0.7,3.7,1c1.2,0.3,2.5,0.5,3.8,0.6
				c6.5-0.4,12.6-1.3,18.7-3.8c5.5-2.3,10.7-5.6,15-9.8c4.2-4.1,7.5-9.1,9.6-14.6c1.7-4.4,2.4-9,2.8-13.7c0.1-1.6-2.2,0.6-2.2,0.6
				C477,422.6,475,424.5,474.9,426.1z"/>
			<path id="XMLID_42_" class="st2" d="M476.4,428.3c0,3-0.5,6-1.4,8.9c-0.5,1.3-1,2.7-1.6,4c-3.1,7-9.1,12.4-15.7,16.1
				c-4,2.2-8.2,3.7-12.6,4.7c-5.6,1.2-10.9,1.2-16.6,0.7c-1.3-0.1-1.5,0.7-0.4,1.4c1.2,0.5,2.4,1,3.6,1.4s2.5,0.8,3.8,1
				c5.4-0.2,10.7-0.7,15.9-2.5c4.5-1.5,8.8-3.6,12.8-6.3c4-2.7,7.8-6.1,10.7-10c2.7-3.7,5.2-7.8,6.7-12.2c0.5-1.5,0.9-3,1.4-4.4
				c0.8-2.9,1.3-5.9,1.4-8.9c0.2-1.8-2.7,0.8-2.7,0.8c-1.2,1.1-2.4,2.2-3.5,3.3C477.2,426.8,476.7,427.5,476.4,428.3z"/>
			<path id="XMLID_41_" class="st2" d="M477.1,432.2c0,2.2-0.2,4.4-0.8,6.5c-0.4,2.1-1.1,4.1-2.1,6c-1.9,3.8-4.7,7.5-7.9,10.2
				c-6.8,5.7-15.4,9.3-24.2,10.1c-4.8,0.4-9.5,0-14.3-0.5c-0.5-0.1-1,0.3-1,0.9s0.7,1,1.2,1.1c4.2,0.5,8.3,0.8,12.5,0.6
				c2.5-0.2,5-0.5,7.4-0.9c4.1-0.8,7.9-2.2,11.6-4.1c6.3-3.1,12.1-7.8,16-13.7c1.7-2.5,3-5.5,4-8.3c1.1-3.3,1.2-5.7,1.6-9.1
				C481.1,428.9,477.2,431,477.1,432.2z"/>
			<path id="XMLID_40_" class="st2" d="M477.7,429.4c0,4.3-0.9,8.4-2.8,12.3c-1.2,2.6-2.8,5-4.7,7.1c-10,11.6-25.7,14.9-41.2,13.3
				c-0.8-0.1-0.8,1-0.4,1.4c0.7,0.7,2.5,1,3.5,1.1c4.7,0.3,9.2,0.2,13.9-0.4c4.8-0.7,10-2.3,14.2-4.6c6.2-3.2,11.5-7.6,15.6-13.4
				c2.2-3.1,3.8-6.5,5-10.2c1-3.1,1.3-5.9,1.6-9.2c0.1-1.2-1.5-0.4-1.8-0.2C479.6,427.2,477.8,428.3,477.7,429.4z"/>
			<path id="XMLID_39_" class="st2" d="M471.1,426.3c0.2,3.6-0.7,6.9-2.5,10.1c-5,17.1-19.8,24.7-44.4,22.6c-0.7-0.1-2.5,0-1.5,1.1
				c0.4,0.5,1.3,0.6,1.9,0.7c1,0.2,2.1,0.5,3.1,0.5c5.9,0.1,11.3-0.4,17.1-2c4.4-1.2,8.7-3.3,12.5-5.8c3.6-2.4,6.6-5.2,9.3-8.5
				c1.7-2,3.2-4.7,4.3-7.2c1.9-4.3,2.5-8.5,2.9-13.1c0-0.6-0.7-1-1.2-0.8C472,424.2,471.2,425.6,471.1,426.3z"/>
			<path id="XMLID_38_" class="st2" d="M472.2,428.6c0,4.2-0.9,8.3-2.7,12.2c-1.2,2.6-2.7,4.9-4.5,7.1c-2.8,3.3-6,6-9.7,8.3
				s-8,4-12.2,5.1c-6.3,1.6-12.4,1.6-18.8,1c-0.4,0-1-0.1-1.2,0.3c-0.3,0.6,1.1,1.2,1.4,1.4c1.2,0.6,2.5,1.1,3.8,1.5
				c1.1,0.4,2.2,0.8,3.4,0.8c5.3-0.2,10.3-0.9,15.3-2.7c5.3-1.9,10.1-4.5,14.5-8c4.9-3.8,8.7-8.5,11.6-13.9c1-2,2-4,2.8-6.1
				c1.6-4.4,2.3-8.9,2.7-13.6c0.2-1.8-2.6,1.2-2.4,1c-1,1.1-1.9,2.3-2.7,3.4C472.7,427.1,472.3,427.8,472.2,428.6z"/>
			<path id="XMLID_37_" class="st2" d="M474.3,432.4c0,3-0.5,6-1.4,8.9c-2,3.5-4,7.1-6,10.6c-3.1,4-7.5,7-11.9,9.3
				c-4.1,2.1-8.4,3.5-12.9,4.3c-5.7,1-11.1,0.8-16.8,0c-0.7-0.1-1,0.8-0.7,1.3c0.4,0.7,2.2,1.5,3.1,1.6c3.5,0.3,6.9,0.6,10.5,0.4
				c4.3-0.2,8.5-1.2,12.7-2.6c3.2-1.1,6.2-2.5,9.1-4.2c3.4-2,7-4.6,9.6-7.6c2.1-2.5,3.9-5,5.6-7.7c1.4-2.2,2.3-4.5,3.1-7
				c0.6-1.4,1-2.9,1.3-4.4c0.6-2.2,1-4.4,1-6.7c0.1-1.5-2-0.1-2.2,0.1c-1,0.7-1.9,1.4-2.8,2.1C474.9,431.3,474.5,431.8,474.3,432.4z
				"/>
			<path id="XMLID_36_" class="st2" d="M476.1,426.7c-0.3,4.4-0.8,8.6-2.9,12.6c-2.4,3.2-4.8,6.3-7.3,9.5
				c-9.8,8.7-22.2,12.1-37.1,10.2c-0.7-0.1-1.6,0.1-1.3,1.1c0.3,0.9,2.4,0.9,3.1,1c4.7,0.3,9.3,0.4,14-0.4c4.3-0.7,8.5-2,12.5-3.8
				c5.4-2.5,10.7-6.3,14.4-11c1.8-2.3,3.4-4.6,4.6-7.3c0.5-1.4,1-2.7,1.6-4.1c0.8-2.8,1.2-5.6,1.2-8.4
				C479,423.9,476.2,425.5,476.1,426.7z"/>
			<path id="XMLID_35_" class="st2" d="M472.7,431.1c0,3.1-0.5,6-1.4,8.9c-1.9,3.5-3.9,7-5.8,10.4c-3,4-7.3,7-11.7,9.3
				c-4,2.2-8.2,3.6-12.7,4.5c-2.3,0.5-4.6,0.8-7,0.9c-3.3,0.2-6.5,0-9.8-0.5c-1-0.1-1.3,0.5-0.6,1.3c0.8,0.6,1.6,1,2.5,1.5
				s1.7,0.8,2.7,1.1c3.7,0.1,7,0.3,10.7-0.3c2-0.3,4-0.7,5.9-1.2c4.9-1.4,9.7-3.4,13.9-6.3c4.1-2.7,7.7-6,10.8-9.8
				c2.5-3,4.3-6.6,5.9-10.1c1-2.1,1.8-4.3,2.3-6.5c0.9-2.9,1.3-5.9,1.4-8.9c0.2-1.7-2.5,0.7-2.5,0.7c-1.1,1-2.1,2-3.1,3.1
				C473.4,429.7,472.9,430.3,472.7,431.1z"/>
			<path id="XMLID_34_" class="st2" d="M474.4,425.7c0,4.3-1,8.5-2.9,12.4c-1.7,3.8-4.4,6.7-8.1,8.9c-2.6,3.2-5.8,5.6-9.6,7.1
				c-8.1,3.5-16.7,4.6-25.8,3.5c-0.6-0.1-2-0.4-2.2,0.6c-0.1,1,1.3,1.1,1.9,1.2c4.7,0.4,9.3,0.5,14,0c6.5-0.8,12.9-3.2,18.4-6.7
				c3.1-2,6-4.3,8.5-7.1c2.8-3.2,5.2-7,6.5-11.1c1.1-3.2,1.2-5.9,1.5-9.3c0-0.5-0.7-1-1.1-0.9C475,424.3,474.4,425.2,474.4,425.7z"
				/>
			<path id="XMLID_33_" class="st2" d="M470.5,427.3c0.1,2.3-0.2,4.5-0.9,6.7c-3.7,18.2-19.5,27-47.3,26.4c-1-0.1-1,0.9-0.4,1.4
				c0.8,0.4,1.6,0.7,2.4,0.9c0.8,0.3,1.7,0.5,2.5,0.6c5.1,0,9.8-0.2,14.7-1.5c2.8-0.7,5.2-1.6,7.8-2.7c3.6-1.6,6.8-3.6,9.9-6
				c2.9-2.3,5.6-5,7.7-8c1.6-2.3,3.1-4.9,4.1-7.4c0.4-1.4,0.9-2.7,1.3-4.1c0.8-2.8,1.2-5.8,1.3-8.7c0.1-0.8-0.5-1.1-1.2-0.8
				C471.8,424.4,470.5,426.5,470.5,427.3z"/>
		</g>
	</g>
</g>
<circle id="XMLID_3_" class="st3" cx="416.1" cy="408.6" r="8.7"/>
<circle id="XMLID_6_" cx="415.3" cy="408.8" r="2.7"/>
<path id="XMLID_9_" class="st4" d="M452.6,432.9c-2.4,7.3-9.1,12.6-17.2,12.8c-8.6,0.2-16-5.6-18.2-13.5"/>
<path id="XMLID_8_" class="st5" d="M432.1,418.1c1,3.4-1.9,7.8,0.6,10.3c1.6,1.6,4.8,0.9,5.5-1.2"/>
<circle id="XMLID_7_" class="st3" cx="455.9" cy="408.6" r="8.7"/>
<circle id="XMLID_5_" cx="455.1" cy="408.8" r="2.7"/>
<circle id="XMLID_20_" class="st0" cx="16.3" cy="420.1" r="49.8"/>
<g id="XMLID_19_" class="st1">
	<g id="XMLID_85_">
		<g id="XMLID_86_">
			<path id="XMLID_98_" class="st2" d="M18.3,379.9c3.3,0,6.5,0.5,9.7,1.3c5.7,1.5,10.9,4.2,15.3,7.9c3.4,2.9,6.3,6.1,8.8,9.8
				c2.4,3.7,4.3,7.9,5.4,12.1c1.7,6.1,1.8,12,1.3,18.2c0,0.4-0.1,1.1,0.4,1.3c0.7,0.3,1.2-1.4,1.3-1.7c0.5-1.5,1-3,1.4-4.5
				c0.3-1.3,0.8-2.6,0.6-3.9c-0.6-5.7-1.6-10.9-3.8-16.2c-2.1-4.9-4.9-9.5-8.4-13.5c-3.1-3.5-6.7-6.5-10.6-9.1
				c-8.2-5.5-18.2-7.8-27.9-8.6c-1.8-0.1,1.1,2.7,1,2.6c1.1,1.1,2.3,2.1,3.5,3.1C16.8,379.2,17.5,379.7,18.3,379.9z"/>
			<path id="XMLID_97_" class="st2" d="M19.6,376.9c3.2,0,6.4,0.4,9.6,1.2c4,1.8,7.9,3.6,11.9,5.4c4.4,2.7,8,6.7,11,10.9
				c2.6,3.7,4.5,7.6,5.9,11.9c0.7,2.1,1.3,4.3,1.6,6.5c0.7,4.6,0.7,9.2,0,13.9c-0.1,1.1,0.9,1.1,1.4,0.4c0.4-0.8,0.7-1.7,1-2.6
				s0.5-1.8,0.6-2.7c0-4.1-0.1-8-0.9-12c-0.6-3.1-1.5-6.1-2.7-9c-3-7.3-7.8-13.7-13.9-18.7c-3.1-2.6-6.5-4.5-10.1-6.4
				c-6-3.1-12.7-4.2-19.3-4.7c-1.5-0.1,0.1,2,0.2,2.2c0.6,0.8,1.4,1.7,2.2,2.6C18.5,376.3,19,376.7,19.6,376.9z"/>
			<path id="XMLID_96_" class="st2" d="M20.3,379.2c4.9,0.3,9.5,0.8,14.1,2.7c9.9,4.1,18.4,12.2,22.8,21.9c1.5,3.4,2.8,7,3.4,10.6
				c0.8,4.7,0.7,9.2,0.3,13.9c0,0.4-0.1,1,0.3,1.3c0.6,0.4,1.3-1.2,1.4-1.5c0.6-1.4,1.2-2.8,1.7-4.2c0.4-1.1,1-2.4,0.9-3.7
				c-0.1-3.5-0.6-6.9-1.4-10.2c-0.8-3.3-1.9-6.4-3.3-9.4c-2.8-5.9-6.8-11.3-11.6-15.7c-4.8-4.4-10.5-7.7-16.6-10.1
				c-3-1.2-6.2-2.2-9.4-2.8c-3.2-0.8-6.4-1.2-9.6-1.3c-1.9-0.2,1,2.9,1,2.9c1.2,1.3,2.4,2.7,3.7,3.9
				C18.7,378.3,19.4,378.8,20.3,379.2z"/>
			<path id="XMLID_95_" class="st2" d="M23.1,382.5c3.3,0,6.5,0.5,9.7,1.3c5.7,1.6,10.8,4.3,15.3,8.1c3.3,2.9,6.2,6.2,8.5,10
				s4.1,8,5.2,12.3c1.6,6.2,1.4,12.2,0.7,18.5c-0.1,0.8,0.6,1.1,1.2,0.7c0.8-0.5,2-2.6,2-3.5c0.2-4.4,0.4-8.7-0.3-13.1
				c-0.6-3.4-1.4-6.6-2.6-9.8c-3.1-7.8-7.9-14.3-14.4-19.5c-3.2-2.6-6.6-4.6-10.3-6.3c-6.2-2.7-12.8-3.9-19.5-4.4
				c-1.5-0.1,0.3,2.1,0.4,2.2c0.8,0.9,1.6,1.7,2.5,2.5C21.9,382.1,22.4,382.4,23.1,382.5z"/>
			<path id="XMLID_94_" class="st2" d="M23,379.8c4.9,0.4,9.4,0.9,14.1,2.7c4.9,1.7,8.8,4.8,11.9,9.2c4.5,2.8,7.8,6.5,9.9,11.2
				c1.9,4.1,3.4,8.4,4,12.9c0.6,4.8,0.4,9.3-0.1,14.1c-0.1,0.9,0.6,1.1,1.3,0.7c0.5-0.6,0.9-1.3,1.3-2s0.7-1.4,0.9-2.2
				c0.2-4.4,0.2-8.6-0.5-13c-0.7-4.1-1.8-8.3-3.7-12.1c-1.6-3.3-3.3-6.2-5.5-9.1c-3.5-4.6-7.9-8.6-12.8-11.6
				c-3.5-2.2-7.2-4-11.2-5.3c-4.7-1.6-9.4-2.3-14.3-2.7c-1.6-0.1,0.2,2.3,0.4,2.5c0.8,1.1,1.7,2.2,2.6,3.3
				C21.7,379,22.3,379.5,23,379.8z"/>
			<path id="XMLID_93_" class="st2" d="M19.2,378.8c8.1,0,13.3,0.6,20.7,6.2c2.9,2.2,5.5,4.7,7.8,7.6c2.4,2.7,3.9,5.8,4.8,9.4
				c2.4,3.7,3.8,7.7,4.2,12.1c0.5,4.5,0.2,8.8-0.4,13.3c-0.2,1.6,1.6,1.9,1.8,0.3c0.6-4.6,1-9.1,0.4-13.7c-0.4-3-1-6-2-8.9
				c-1.2-3.7-3-7.2-5.1-10.5c-3.7-5.7-8.6-10.6-14.6-13.8c-1.4-0.8-2.8-1.5-4.3-2s-2.9-1-4.4-1.5c-2.9-0.5-5.8-0.6-8.7-0.3
				C18.3,376.9,18,378.8,19.2,378.8z"/>
			<path id="XMLID_92_" class="st2" d="M17.2,379.8c6.1,0.5,12.2,1.5,17.6,4.5c13,7.1,20.2,18.4,22.4,35.7c-0.1-1-0.1-2.1-0.2-3.1
				c0.1,2.6,0.2,5.1,0.2,7.7c0-1.1,0.1-2.1,0.1-3.2c-0.2,2.6-0.4,5.2-0.6,7.8c-0.1,1.3,1,1.1,1.4,0.3c0.3-1,0.6-2.1,0.8-3.2
				s0.4-2.1,0.4-3.2c-0.2-6.2-1-12.2-3.3-18c-2.4-6.2-6.2-11.8-11-16.5c-4.3-4.2-9.4-7.5-15.1-9.7c-5.5-2.2-11-3-16.8-3.5
				c-0.3,0.1-0.5,0.3-0.5,0.6c0.1,0.5,0.4,1,0.9,1.3C14.4,378.2,15.8,379.7,17.2,379.8z"/>
			<path id="XMLID_91_" class="st2" d="M19.8,383.4c3,0.4,6,0.8,9,1.2c1.5,0.5,2.9,0.9,4.4,1.4c3.5,1.3,6.7,3.2,9.7,5.5
				c4.8,3.3,7.8,8.1,9,14.5c4.7,4.5,7.2,9.6,7.5,15.4c0.4,3.9,0.2,7.6-0.2,11.5c-0.1,1.1,0.7,1.3,1.3,0.5c0.5-0.9,0.9-1.8,1.2-2.7
				c0.4-0.9,0.7-1.9,0.9-2.9c-0.1-3.4-0.2-6.7-0.8-10.1c-0.6-3.1-1.5-6.3-2.7-9.3c-2.6-6.4-6.7-12.2-11.8-16.9
				c-4.5-4.2-9.8-7.3-15.5-9.5c-5.5-2.1-11.1-2.9-16.9-3.3c-1.5-0.1,0.7,2.1,0.6,2C16.7,381.8,18.3,383.3,19.8,383.4z"/>
			<path id="XMLID_90_" class="st2" d="M22.8,377c6.3,0.5,12,1.3,17.7,4.6c3.3,1.9,6.3,4.1,9,6.8c2.6,2.6,5,5.5,6.9,8.8
				c5.3,9.4,6.7,18.6,5.2,30.4c-0.1,0.6,0.2,1.4,1.1,1.1c0.8-0.3,1.1-1.7,1.1-2.4c0.4-3.3,0.5-4.3,0.5-7.1c0-2.4-0.2-4.6-0.4-7
				c-0.7-6.3-3.2-13.2-6.7-18.5c-4-6.2-9.1-11.3-15.4-15c-2.3-1.4-4.5-2.5-7-3.4c-1.6-0.5-3.1-1-4.7-1.5c-3.1-0.9-6.3-1.4-9.5-1.5
				c-1.2-0.1-0.5,1.4-0.3,1.8C20.7,374.7,21.7,376.9,22.8,377z"/>
			<path id="XMLID_89_" class="st2" d="M18,382.3c5.4,0.3,10.6,1.3,15.4,3.5c16.3,7.4,25.9,23,24,45.9c-0.1,1.3,0.9,1.2,1.4,0.3
				c0.4-1.1,0.8-2.2,1-3.3c0.3-1.1,0.5-2.2,0.6-3.4c-0.2-3.2-0.4-6.4-1-9.6c-0.6-3-1.6-6-2.8-8.8c-2.6-6.2-6.5-11.7-11.4-16.3
				c-4.4-4.1-9.5-7.2-15.2-9.4c-5.5-2.1-10.9-2.8-16.7-3.2c-0.4,0.1-0.5,0.3-0.5,0.7c0.2,0.6,0.5,1,1.1,1.3
				C14.9,380.8,16.5,382.2,18,382.3z"/>
			<path id="XMLID_88_" class="st2" d="M22,376.9c3.2,0,6.4,0.4,9.5,1.1c1.5,0.5,3,1,4.4,1.5c2.8,1.1,5.4,2.6,7.9,4.4
				c3,2,5.5,4.6,7.4,7.8c2.6,2.6,4.5,5.5,5.9,8.9c0.9,2,1.6,4.1,2.1,6.2c1.8,6.9,1.7,13.2,0.6,20.3c-0.1,0.5,0.6,0.9,1.1,0.8
				c0.6-0.1,0.8-0.6,0.8-1.2c0.8-5.5,1.1-10.9,0.1-16.5c-1.1-6.7-3.7-13.4-7.9-18.9c-2.8-3.7-6-7.1-9.8-9.8
				c-2.6-1.8-5.3-3.3-8.2-4.6c-4.6-2-9.1-2.4-14-2.7c-0.5,0-1.1,0.2-1.2,0.8C20.8,375.5,21.6,376.8,22,376.9z"/>
			<path id="XMLID_87_" class="st2" d="M18,380.1c6.4,0.1,11.2,0.6,17.1,4c1.2,0.8,2.5,1.6,3.7,2.4c3.5,2.4,6.3,5.5,8.2,9.5
				c2.6,2.5,4.5,5.4,5.6,8.6c0.9,1.9,1.5,3.9,2,6c1.3,5.8,1.3,11.3,0.7,17.3c-0.1,0.7-0.2,1.7,0.7,1.8c0.9,0.1,1-0.9,1.1-1.6
				c0.4-3.5,0.7-5.6,0.5-9.2c-0.2-3-0.6-5.9-1.2-8.8c-1.3-5.7-3.9-11.3-7.4-16c-3.2-4.3-7-7.9-11.5-10.8c-2-1.3-4.1-2.4-6.4-3.3
				c-1.4-0.5-2.9-1-4.3-1.5c-3-0.6-5.9-0.8-8.9-0.6C16.6,378.1,16.8,380.1,18,380.1z"/>
		</g>
	</g>
</g>
<g id="XMLID_18_" class="st1">
	<g id="XMLID_70_">
		<g id="XMLID_71_">
			<path id="XMLID_83_" class="st2" d="M54.7,428.7c0,2.3-0.2,4.6-0.9,6.8c-1.2,6-4.2,11.2-9,15.7c-3,3-6.8,5.6-10.6,7.4
				c-4.1,1.9-8.4,3.4-12.9,4.1c-4.8,0.7-9.5,0.7-14.4,0.2c-0.4,0-1.1-0.1-1.3,0.3c-0.4,0.6,1.3,1.3,1.6,1.4c1.4,0.7,2.8,1.2,4.2,1.7
				c1.2,0.4,2.4,1,3.7,0.9c1.8-0.1,3.5-0.2,5.3-0.3c3.5-0.5,6.9-1.3,10.2-2.5c6.3-2.2,12.1-5.7,17-10.1c4.7-4.3,8.3-9.5,11-15.3
				c1.3-2.8,2.3-5.7,3-8.7c0.8-2.9,1.3-5.9,1.3-9c0.2-1.9-3,1.2-2.9,1.1c-1.3,1.2-2.5,2.5-3.8,3.8C55.6,427.1,55,427.8,54.7,428.7z"
				/>
			<path id="XMLID_82_" class="st2" d="M55.3,425.7c-0.1,1.5-0.2,3-0.4,4.5c-0.5,3.4-1.6,6.6-3.4,9.5c-8.1,14.7-23.8,21.1-44.1,19.7
				c-1.4-0.1-1.3,0.9-0.3,1.4c1.2,0.4,2.4,0.7,3.7,1c1.2,0.3,2.5,0.5,3.8,0.6c6.5-0.4,12.6-1.3,18.7-3.8c5.5-2.3,10.7-5.6,15-9.8
				c4.2-4,7.5-9,9.6-14.5c1.7-4.4,2.4-9,2.8-13.7c0.1-1.6-2.2,0.6-2.2,0.6C57.5,422.3,55.4,424.1,55.3,425.7z"/>
			<path id="XMLID_81_" class="st2" d="M56.8,427.9c0,3-0.5,6-1.4,8.9c-0.5,1.3-1,2.7-1.6,4c-3.1,7.1-9.1,12.4-15.7,16.1
				c-4,2.2-8.2,3.7-12.6,4.7c-5.6,1.2-10.9,1.2-16.6,0.7c-1.3-0.1-1.5,0.7-0.4,1.4c1.2,0.5,2.4,1,3.6,1.4s2.5,0.8,3.8,1
				c5.4-0.2,10.7-0.7,15.9-2.5c4.5-1.5,8.8-3.6,12.8-6.3c4-2.7,7.8-6.1,10.7-10c2.7-3.7,5.2-7.8,6.7-12.2c0.5-1.5,0.9-3,1.4-4.4
				c0.8-2.9,1.3-5.9,1.4-8.9c0.2-1.8-2.7,0.8-2.7,0.8c-1.2,1.1-2.4,2.2-3.5,3.3C57.7,426.5,57.2,427.1,56.8,427.9z"/>
			<path id="XMLID_80_" class="st2" d="M57.5,431.8c0,2.2-0.2,4.4-0.8,6.5c-0.4,2.1-1.1,4.1-2.1,6c-1.9,3.8-4.7,7.5-7.9,10.2
				c-6.8,5.7-15.4,9.3-24.2,10.1c-4.8,0.4-9.5,0-14.3-0.5c-0.5-0.1-1,0.3-1,0.9s0.7,1,1.2,1.1c4.2,0.5,8.3,0.8,12.5,0.6
				c2.5-0.2,5-0.5,7.4-0.9c4.1-0.8,7.9-2.2,11.6-4.1c6.3-3.1,12.1-7.8,16-13.7c1.7-2.5,3-5.5,4-8.3c1.1-3.3,1.2-5.7,1.6-9.1
				C61.5,428.6,57.6,430.7,57.5,431.8z"/>
			<path id="XMLID_79_" class="st2" d="M58.1,429.1c0,4.3-0.9,8.4-2.8,12.3c-1.2,2.6-2.8,5-4.7,7.1c-10,11.6-25.7,14.9-41.3,13.3
				c-0.8-0.1-0.8,1-0.4,1.4c0.7,0.7,2.5,1,3.5,1.1c4.7,0.3,9.2,0.2,13.9-0.4c4.8-0.7,10-2.3,14.2-4.6c6.2-3.2,11.5-7.6,15.6-13.4
				c2.2-3.1,3.8-6.5,5-10.2c1-3.1,1.3-5.9,1.6-9.2c0.1-1.2-1.5-0.4-1.8-0.2C60,426.9,58.2,428,58.1,429.1z"/>
			<path id="XMLID_78_" class="st2" d="M51.6,426c0.2,3.6-0.7,6.9-2.5,10.1c-5,17.1-19.8,24.7-44.4,22.6c-0.7-0.1-2.5,0-1.5,1.1
				c0.4,0.5,1.3,0.6,1.9,0.7c1,0.2,2.1,0.5,3.1,0.5c5.9,0.1,11.3-0.4,17.1-2c4.4-1.2,8.7-3.3,12.5-5.8c3.6-2.4,6.6-5.2,9.3-8.5
				c1.7-2,3.2-4.7,4.3-7.2c1.9-4.3,2.5-8.5,2.9-13.1c0-0.6-0.7-1-1.2-0.8C52.4,423.9,51.6,425.3,51.6,426z"/>
			<path id="XMLID_77_" class="st2" d="M52.6,428.3c0,4.2-0.9,8.3-2.7,12.2c-1.2,2.6-2.7,4.9-4.5,7.1c-2.8,3.3-6,6-9.7,8.3
				s-8,4-12.2,5.1c-6.3,1.6-12.4,1.6-18.8,1c-0.4,0-1-0.1-1.2,0.3c-0.3,0.6,1.1,1.2,1.4,1.4c1.2,0.6,2.5,1.1,3.8,1.5
				c1.1,0.4,2.2,0.8,3.4,0.8c5.3-0.2,10.3-0.9,15.3-2.7c5.3-1.9,10.1-4.5,14.5-8c4.9-3.8,8.7-8.5,11.6-13.9c1-2,2-4,2.8-6.1
				c1.6-4.4,2.3-8.9,2.7-13.6c0.2-1.8-2.6,1.2-2.4,1c-1,1.1-1.9,2.3-2.7,3.4C53.1,426.8,52.7,427.5,52.6,428.3z"/>
			<path id="XMLID_76_" class="st2" d="M54.7,432c0,3-0.5,6-1.4,8.9c-2,3.5-4,7.1-6,10.6c-3.1,4-7.5,7-11.9,9.3
				c-4.1,2.1-8.4,3.5-12.9,4.3c-5.7,1-11.1,0.8-16.8,0c-0.7-0.1-1,0.8-0.7,1.3c0.4,0.7,2.2,1.5,3.1,1.6c3.5,0.3,6.9,0.6,10.5,0.4
				c4.3-0.2,8.5-1.2,12.7-2.6c3.2-1.1,6.2-2.5,9.1-4.2c3.4-2,7-4.6,9.6-7.6c2.1-2.5,3.9-5,5.6-7.7c1.4-2.2,2.3-4.5,3.1-7
				c0.6-1.4,1-2.9,1.3-4.4c0.6-2.2,1-4.4,1-6.7c0.1-1.5-2-0.1-2.2,0.1c-1,0.7-1.9,1.4-2.8,2.1C55.4,430.9,55,431.4,54.7,432z"/>
			<path id="XMLID_75_" class="st2" d="M56.5,426.3c-0.3,4.4-0.8,8.6-2.9,12.6c-2.4,3.2-4.8,6.3-7.3,9.5c-9.8,8.6-22.2,12-37.1,10.1
				c-0.7-0.1-1.6,0.1-1.3,1.1c0.3,0.9,2.4,0.9,3.1,1c4.7,0.3,9.3,0.4,14-0.4c4.3-0.7,8.5-2,12.5-3.8c5.4-2.5,10.7-6.3,14.4-11
				c1.8-2.3,3.4-4.6,4.6-7.3c0.5-1.4,1-2.7,1.6-4.1c0.8-2.8,1.2-5.6,1.2-8.4C59.4,423.5,56.6,425.2,56.5,426.3z"/>
			<path id="XMLID_74_" class="st2" d="M53.1,430.7c0,3.1-0.5,6-1.4,8.9c-1.9,3.5-3.9,7-5.8,10.4c-3,4-7.3,7-11.7,9.3
				c-4,2.2-8.2,3.6-12.7,4.5c-2.3,0.5-4.6,0.8-7,0.9c-3.3,0.2-6.5,0-9.8-0.5c-1-0.1-1.3,0.5-0.6,1.3c0.8,0.6,1.6,1,2.5,1.5
				s1.7,0.8,2.7,1.1c3.7,0.1,7,0.3,10.7-0.3c2-0.3,4-0.7,5.9-1.2c4.9-1.4,9.7-3.4,13.9-6.3c4.1-2.7,7.7-6,10.8-9.8
				c2.5-3,4.3-6.6,5.9-10.1c1-2.1,1.8-4.3,2.3-6.5c0.9-2.9,1.3-5.9,1.4-8.9c0.2-1.7-2.5,0.7-2.5,0.7c-1.1,1-2.1,2-3.1,3.1
				C53.8,429.3,53.3,430,53.1,430.7z"/>
			<path id="XMLID_73_" class="st2" d="M54.8,425.3c0,4.3-1,8.5-2.9,12.4c-1.7,3.8-4.4,6.7-8.1,8.9c-2.6,3.2-5.8,5.6-9.6,7.1
				c-8.1,3.5-16.7,4.6-25.8,3.5c-0.6-0.1-2-0.4-2.2,0.6c-0.1,1,1.3,1.1,1.9,1.2c4.7,0.4,9.3,0.5,14,0c6.5-0.8,12.9-3.2,18.4-6.7
				c3.1-2,6-4.3,8.5-7.1c2.8-3.2,5.2-7,6.5-11.1c1.1-3.2,1.2-5.9,1.5-9.3c0-0.5-0.7-1-1.1-0.9C55.4,424,54.8,424.9,54.8,425.3z"/>
			<path id="XMLID_72_" class="st2" d="M50.9,427c0.1,2.3-0.2,4.5-0.9,6.7c-3.7,18.1-19.5,26.9-47.2,26.4c-1-0.1-1,0.9-0.4,1.4
				c0.8,0.4,1.6,0.7,2.4,0.9c0.8,0.3,1.7,0.5,2.5,0.6c5.1,0,9.8-0.2,14.7-1.5c2.8-0.7,5.2-1.6,7.8-2.7c3.6-1.6,6.8-3.6,9.9-6
				c2.9-2.3,5.6-5,7.7-8c1.6-2.3,3.1-4.9,4.1-7.4c0.4-1.4,0.9-2.7,1.3-4.1c0.8-2.8,1.2-5.8,1.3-8.7c0.1-0.8-0.5-1.1-1.2-0.8
				C52.3,424.1,51,426.1,50.9,427z"/>
		</g>
	</g>
</g>
<circle id="XMLID_15_" class="st3" cx="-3.5" cy="408.3" r="8.7"/>
<circle id="XMLID_14_" cx="-3.3" cy="412.5" r="2.7"/>
<path id="XMLID_13_" class="st4" d="M3.1,449.2c3.3-5.4,8.3-8.9,14-9.1c6-0.1,11.4,3.5,14.9,9.3"/>
<path id="XMLID_12_" class="st5" d="M12.5,417.7c1,3.4-1.9,7.8,0.6,10.3c1.6,1.6,4.8,0.9,5.5-1.2"/>
<circle id="XMLID_11_" class="st3" cx="36.3" cy="408.3" r="8.7"/>
<circle id="XMLID_10_" cx="36.5" cy="412.5" r="2.7"/>
<circle id="XMLID_45_" class="st0" cx="226.1" cy="420.1" r="49.8"/>
<g id="XMLID_30_" class="st1">
	<g id="XMLID_124_">
		<g id="XMLID_125_">
			<path id="XMLID_137_" class="st2" d="M228.1,380c3.3,0,6.5,0.5,9.7,1.3c5.7,1.5,10.9,4.2,15.3,7.9c3.4,2.9,6.3,6.1,8.8,9.8
				c2.4,3.7,4.3,7.9,5.4,12.1c1.7,6.1,1.8,12,1.3,18.2c0,0.4-0.1,1.1,0.4,1.3c0.7,0.3,1.2-1.4,1.3-1.7c0.5-1.5,1-3,1.4-4.5
				c0.3-1.3,0.8-2.6,0.6-3.9c-0.6-5.7-1.6-10.9-3.8-16.2c-2.1-4.9-4.9-9.5-8.4-13.5c-3.1-3.5-6.7-6.5-10.6-9.1
				c-8.2-5.6-18.2-7.9-27.9-8.6c-1.8-0.1,1.1,2.7,1,2.6c1.1,1.1,2.3,2.1,3.5,3.1C226.6,379.3,227.3,379.7,228.1,380z"/>
			<path id="XMLID_136_" class="st2" d="M229.4,376.9c3.2,0,6.4,0.4,9.6,1.2c4,1.8,7.9,3.6,11.9,5.4c4.4,2.7,8,6.7,11,10.9
				c2.6,3.7,4.5,7.6,5.9,11.9c0.7,2.1,1.3,4.3,1.6,6.5c0.7,4.6,0.7,9.2,0,13.9c-0.1,1.1,0.9,1.1,1.4,0.4c0.4-0.8,0.7-1.7,1-2.6
				s0.5-1.8,0.6-2.7c0-4.1-0.1-8-0.9-12c-0.6-3.1-1.5-6.1-2.7-9c-3-7.3-7.8-13.7-13.9-18.7c-3.1-2.6-6.5-4.5-10.1-6.4
				c-6-3.1-12.7-4.2-19.3-4.7c-1.5-0.1,0.1,2,0.2,2.2c0.7,0.9,1.5,1.8,2.3,2.7C228.3,376.4,228.8,376.7,229.4,376.9z"/>
			<path id="XMLID_135_" class="st2" d="M230,379.3c4.9,0.3,9.5,0.8,14.1,2.7c9.9,4.1,18.4,12.2,22.8,21.9c1.5,3.4,2.8,7,3.4,10.6
				c0.8,4.7,0.7,9.2,0.3,13.9c0,0.4-0.1,1,0.3,1.3c0.6,0.4,1.3-1.2,1.4-1.5c0.6-1.4,1.2-2.8,1.7-4.2c0.4-1.1,1-2.4,0.9-3.7
				c-0.1-3.5-0.6-6.9-1.4-10.2s-1.9-6.4-3.3-9.4c-2.8-5.9-6.8-11.3-11.6-15.7c-4.9-4.4-10.5-7.8-16.6-10.2c-3-1.2-6.2-2.2-9.4-2.8
				c-3.2-0.8-6.4-1.2-9.6-1.3c-1.9-0.2,1,2.9,1,2.9c1.2,1.3,2.4,2.7,3.7,3.9C228.4,378.3,229.2,378.9,230,379.3z"/>
			<path id="XMLID_134_" class="st2" d="M232.8,382.6c3.3,0,6.5,0.5,9.7,1.3c5.7,1.6,10.8,4.3,15.3,8.1c3.3,2.9,6.2,6.2,8.5,10
				s4.1,8,5.2,12.3c1.6,6.2,1.4,12.2,0.7,18.5c-0.1,0.8,0.6,1.1,1.2,0.7c0.8-0.5,2-2.6,2-3.5c0.2-4.4,0.4-8.7-0.3-13.1
				c-0.6-3.4-1.4-6.6-2.6-9.8c-3.1-7.8-7.9-14.3-14.4-19.5c-3.2-2.6-6.6-4.6-10.3-6.3c-6.1-2.9-12.7-4.1-19.4-4.6
				c-1.5-0.1,0.3,2.1,0.4,2.2c0.8,0.9,1.6,1.7,2.5,2.5C231.7,382.1,232.2,382.5,232.8,382.6z"/>
			<path id="XMLID_133_" class="st2" d="M232.8,379.9c4.9,0.4,9.4,0.9,14.1,2.7c4.9,1.7,8.8,4.8,11.9,9.2c4.5,2.8,7.8,6.5,9.9,11.2
				c1.9,4.1,3.4,8.4,4,12.9c0.6,4.8,0.4,9.3-0.1,14.1c-0.1,0.9,0.6,1.1,1.3,0.7c0.5-0.6,0.9-1.3,1.3-2s0.7-1.4,0.9-2.2
				c0.2-4.4,0.2-8.6-0.5-13c-0.7-4.1-1.8-8.3-3.7-12.1c-1.6-3.3-3.3-6.2-5.5-9.1c-3.5-4.6-7.9-8.6-12.8-11.6
				c-3.5-2.2-7.2-4-11.2-5.3c-4.7-1.6-9.4-2.3-14.3-2.7c-1.6-0.1,0.2,2.3,0.4,2.5c0.8,1.1,1.7,2.2,2.6,3.3
				C231.5,379.1,232.1,379.6,232.8,379.9z"/>
			<path id="XMLID_132_" class="st2" d="M229,378.9c8.1,0,13.3,0.6,20.7,6.2c2.9,2.2,5.5,4.7,7.8,7.6c2.4,2.7,3.9,5.8,4.8,9.4
				c2.4,3.7,3.8,7.7,4.2,12.1c0.5,4.5,0.2,8.8-0.4,13.3c-0.2,1.6,1.6,1.9,1.8,0.3c0.6-4.6,1-9.1,0.4-13.7c-0.4-3-1-6-2-8.9
				c-1.2-3.7-3-7.2-5.1-10.5c-3.7-5.7-8.6-10.6-14.6-13.8c-1.4-0.8-2.8-1.5-4.3-2s-2.9-1-4.4-1.5c-2.9-0.5-5.8-0.6-8.7-0.3
				C228.1,377,227.7,378.9,229,378.9z"/>
			<path id="XMLID_131_" class="st2" d="M226.9,379.8c6.1,0.5,12.2,1.5,17.6,4.5c13,7.1,20.2,18.4,22.4,35.7c-0.1-1-0.1-2.1-0.2-3.1
				c0.1,2.6,0.2,5.1,0.2,7.7c0-1.1,0.1-2.1,0.1-3.2c-0.2,2.6-0.4,5.2-0.6,7.8c-0.1,1.3,1,1.1,1.4,0.3c0.3-1,0.6-2.1,0.8-3.2
				c0.2-1.1,0.4-2.1,0.4-3.2c-0.2-6.2-1-12.2-3.3-18c-2.4-6.2-6.2-11.8-11-16.5c-4.3-4.2-9.4-7.5-15.1-9.7c-5.5-2.2-11-3-16.8-3.5
				c-0.3,0.1-0.5,0.3-0.5,0.6c0.1,0.5,0.4,1,0.9,1.3C224.2,378.3,225.6,379.7,226.9,379.8z"/>
			<path id="XMLID_130_" class="st2" d="M229.6,383.5c3,0.4,6,0.8,9,1.2c1.5,0.5,2.9,0.9,4.4,1.4c3.5,1.3,6.7,3.2,9.7,5.5
				c4.8,3.3,7.8,8.1,9,14.5c4.7,4.5,7.2,9.6,7.5,15.4c0.4,3.9,0.2,7.6-0.2,11.5c-0.1,1.1,0.7,1.3,1.3,0.5c0.5-0.9,0.9-1.8,1.2-2.7
				c0.4-0.9,0.7-1.9,0.9-2.9c-0.1-3.4-0.2-6.7-0.8-10.1c-0.6-3.1-1.5-6.3-2.7-9.3c-2.6-6.4-6.7-12.2-11.8-16.9
				c-4.5-4.2-9.8-7.3-15.5-9.5c-5.5-2.1-11.1-2.9-16.9-3.3c-1.5-0.1,0.7,2.1,0.6,2C226.4,381.9,228.1,383.4,229.6,383.5z"/>
			<path id="XMLID_129_" class="st2" d="M232.6,377c6.3,0.5,12,1.3,17.7,4.6c3.3,1.9,6.3,4.1,9,6.8c2.6,2.6,5,5.5,6.9,8.8
				c5.3,9.4,6.7,18.6,5.2,30.4c-0.1,0.6,0.2,1.4,1.1,1.1c0.8-0.3,1.1-1.7,1.1-2.4c0.4-3.3,0.5-4.3,0.5-7.1c0-2.4-0.2-4.6-0.4-7
				c-0.7-6.3-3.2-13.2-6.7-18.5c-4-6.2-9.1-11.3-15.4-15c-2.3-1.4-4.5-2.5-7-3.4c-1.6-0.5-3.1-1-4.7-1.5c-3.1-0.9-6.3-1.4-9.5-1.5
				c-1.2-0.1-0.5,1.4-0.3,1.8C230.4,374.8,231.5,377,232.6,377z"/>
			<path id="XMLID_128_" class="st2" d="M227.7,382.3c5.4,0.3,10.6,1.3,15.4,3.5c16.3,7.4,25.9,23,24,45.9c-0.1,1.3,0.9,1.2,1.4,0.3
				c0.4-1.1,0.8-2.2,1-3.3c0.3-1.1,0.5-2.2,0.6-3.4c-0.2-3.2-0.4-6.4-1-9.6c-0.6-3-1.6-6-2.8-8.8c-2.6-6.2-6.5-11.7-11.4-16.3
				c-4.4-4.1-9.5-7.2-15.2-9.4c-5.5-2.1-10.9-2.8-16.7-3.2c-0.4,0.1-0.5,0.3-0.5,0.7c0.2,0.6,0.5,1,1.1,1.3
				C224.7,380.9,226.2,382.3,227.7,382.3z"/>
			<path id="XMLID_127_" class="st2" d="M231.8,376.9c3.2,0,6.4,0.4,9.5,1.1c1.5,0.5,3,1,4.4,1.5c2.8,1.1,5.4,2.6,7.9,4.4
				c3,2,5.5,4.6,7.4,7.8c2.6,2.6,4.5,5.5,5.9,8.9c0.9,2,1.6,4.1,2.1,6.2c1.8,6.9,1.7,13.2,0.6,20.3c-0.1,0.5,0.6,0.9,1.1,0.8
				c0.6-0.1,0.8-0.6,0.8-1.2c0.8-5.5,1.1-10.9,0.1-16.5c-1.1-6.7-3.7-13.4-7.9-18.9c-2.8-3.7-6-7.1-9.8-9.8
				c-2.6-1.8-5.3-3.3-8.2-4.6c-4.6-2-9.1-2.4-14-2.7c-0.5,0-1.1,0.2-1.2,0.8C230.5,375.6,231.3,376.9,231.8,376.9z"/>
			<path id="XMLID_126_" class="st2" d="M227.8,380.2c6.4,0.1,11.2,0.6,17.1,4c1.2,0.8,2.5,1.6,3.7,2.4c3.5,2.4,6.3,5.5,8.2,9.5
				c2.6,2.5,4.5,5.4,5.6,8.6c0.9,1.9,1.5,3.9,2,6c1.3,5.8,1.3,11.3,0.7,17.3c-0.1,0.7-0.2,1.7,0.7,1.8c0.9,0.1,1-0.9,1.1-1.6
				c0.4-3.5,0.7-5.6,0.5-9.2c-0.2-3-0.6-5.9-1.2-8.8c-1.3-5.7-3.9-11.3-7.4-16c-3.2-4.3-7-7.9-11.5-10.8c-2-1.3-4.1-2.4-6.4-3.3
				c-1.4-0.5-2.9-1-4.3-1.5c-3-0.6-5.9-0.8-8.9-0.6C226.4,378.2,226.5,380.2,227.8,380.2z"/>
		</g>
	</g>
</g>
<g id="XMLID_29_" class="st1">
	<g id="XMLID_109_">
		<g id="XMLID_110_">
			<path id="XMLID_122_" class="st2" d="M264.4,428.8c0,2.3-0.2,4.6-0.9,6.8c-1.2,6-4.2,11.2-9,15.7c-3,3-6.8,5.6-10.6,7.4
				c-4.1,1.9-8.4,3.4-12.9,4.1c-4.8,0.7-9.5,0.7-14.4,0.2c-0.4,0-1.1-0.1-1.3,0.3c-0.4,0.6,1.3,1.3,1.6,1.4c1.4,0.7,2.8,1.2,4.2,1.7
				c1.2,0.4,2.4,1,3.7,0.9c1.8-0.1,3.5-0.2,5.3-0.3c3.5-0.5,6.9-1.3,10.2-2.5c6.3-2.2,12.1-5.7,17-10.1c4.7-4.3,8.3-9.5,11-15.3
				c1.3-2.8,2.3-5.7,3-8.7c0.8-2.9,1.3-5.9,1.3-9c0.2-1.9-3,1.2-2.9,1.1c-1.3,1.2-2.5,2.5-3.8,3.8
				C265.3,427.2,264.8,427.9,264.4,428.8z"/>
			<path id="XMLID_121_" class="st2" d="M265.1,425.8c-0.1,1.5-0.2,3-0.4,4.5c-0.5,3.4-1.6,6.6-3.4,9.5
				c-8.1,14.7-23.8,21.1-44.1,19.7c-1.4-0.1-1.3,0.9-0.3,1.4c1.2,0.4,2.4,0.7,3.7,1c1.2,0.3,2.5,0.5,3.8,0.6
				c6.5-0.4,12.6-1.3,18.7-3.8c5.5-2.3,10.7-5.6,15-9.8c4.2-4.1,7.5-9.1,9.6-14.6c1.7-4.4,2.4-9,2.8-13.7c0.1-1.6-2.2,0.6-2.2,0.6
				C267.2,422.4,265.2,424.2,265.1,425.8z"/>
			<path id="XMLID_120_" class="st2" d="M266.6,428c0,3-0.5,6-1.4,8.9c-0.5,1.3-1,2.7-1.6,4c-3.1,7.1-9.1,12.4-15.7,16.1
				c-4,2.2-8.2,3.7-12.6,4.7c-5.6,1.2-10.9,1.2-16.6,0.7c-1.3-0.1-1.5,0.7-0.4,1.4c1.2,0.5,2.4,1,3.6,1.4c1.2,0.4,2.5,0.8,3.8,1
				c5.4-0.2,10.7-0.7,15.9-2.5c4.5-1.5,8.8-3.6,12.8-6.3c4-2.7,7.8-6.1,10.7-10c2.7-3.7,5.2-7.8,6.7-12.2c0.5-1.5,0.9-3,1.4-4.4
				c0.8-2.9,1.3-5.9,1.4-8.9c0.2-1.8-2.7,0.8-2.7,0.8c-1.2,1.1-2.4,2.2-3.5,3.3C267.4,426.5,266.9,427.2,266.6,428z"/>
			<path id="XMLID_119_" class="st2" d="M267.3,431.9c0,2.2-0.2,4.4-0.8,6.5c-0.4,2.1-1.1,4.1-2.1,6c-1.9,3.8-4.7,7.5-7.9,10.2
				c-6.8,5.7-15.4,9.3-24.2,10.1c-4.8,0.4-9.5,0-14.3-0.5c-0.5-0.1-1,0.3-1,0.9s0.7,1,1.2,1.1c4.2,0.5,8.3,0.8,12.5,0.6
				c2.5-0.2,5-0.5,7.4-0.9c4.1-0.8,7.9-2.2,11.6-4.1c6.3-3.1,12.1-7.8,16-13.7c1.7-2.5,3-5.5,4-8.3c1.1-3.3,1.2-5.7,1.6-9.1
				C271.2,428.7,267.3,430.8,267.3,431.9z"/>
			<path id="XMLID_118_" class="st2" d="M267.9,429.2c0,4.3-0.9,8.4-2.8,12.3c-1.2,2.6-2.8,5-4.7,7.1c-10,11.6-25.7,14.9-41.2,13.3
				c-0.8-0.1-0.8,1-0.4,1.4c0.7,0.7,2.5,1,3.5,1.1c4.7,0.3,9.2,0.2,13.9-0.4c4.8-0.7,10-2.3,14.2-4.6c6.2-3.2,11.5-7.6,15.6-13.4
				c2.2-3.1,3.8-6.5,5-10.2c1-3.1,1.3-5.9,1.6-9.2c0.1-1.2-1.5-0.4-1.8-0.2C269.8,427,268,428.1,267.9,429.2z"/>
			<path id="XMLID_117_" class="st2" d="M261.3,426c0.2,3.6-0.7,6.9-2.5,10.1c-5,17.1-19.8,24.7-44.4,22.6c-0.7-0.1-2.5,0-1.5,1.1
				c0.4,0.5,1.3,0.6,1.9,0.7c1,0.2,2.1,0.5,3.1,0.5c5.9,0.1,11.3-0.4,17.1-2c4.4-1.2,8.7-3.3,12.5-5.8c3.6-2.4,6.6-5.2,9.3-8.5
				c1.7-2,3.2-4.7,4.3-7.2c1.9-4.3,2.5-8.5,2.9-13.1c0-0.6-0.7-1-1.2-0.8C262.2,424,261.4,425.4,261.3,426z"/>
			<path id="XMLID_116_" class="st2" d="M262.3,428.3c0,4.2-0.9,8.3-2.7,12.2c-1.2,2.6-2.7,4.9-4.5,7.1c-2.8,3.3-6,6-9.7,8.3
				s-8,4-12.2,5.1c-6.3,1.6-12.4,1.6-18.8,1c-0.4,0-1-0.1-1.2,0.3c-0.3,0.6,1.1,1.2,1.4,1.4c1.2,0.6,2.5,1.1,3.8,1.5
				c1.1,0.4,2.2,0.8,3.4,0.8c5.3-0.2,10.3-0.9,15.3-2.7c5.3-1.9,10.1-4.5,14.5-8c4.9-3.8,8.7-8.5,11.6-13.9c1-2,2-4,2.8-6.1
				c1.6-4.4,2.3-8.9,2.7-13.6c0.2-1.8-2.6,1.2-2.4,1c-1,1.1-1.9,2.3-2.7,3.4C262.9,426.9,262.5,427.5,262.3,428.3z"/>
			<path id="XMLID_115_" class="st2" d="M264.5,432.1c0,3-0.5,6-1.4,8.9c-2,3.5-4,7.1-6,10.6c-3.1,4-7.5,7-11.9,9.3
				c-4.1,2.1-8.4,3.5-12.9,4.3c-5.7,1-11.1,0.8-16.8,0c-0.7-0.1-1,0.8-0.7,1.3c0.4,0.7,2.2,1.5,3.1,1.6c3.5,0.3,6.9,0.6,10.5,0.4
				c4.3-0.2,8.5-1.2,12.7-2.6c3.2-1.1,6.2-2.5,9.1-4.2c3.4-2,7-4.6,9.6-7.6c2.1-2.5,3.9-5,5.6-7.7c1.4-2.2,2.3-4.5,3.1-7
				c0.6-1.4,1-2.9,1.3-4.4c0.6-2.2,1-4.4,1-6.7c0.1-1.5-2-0.1-2.2,0.1c-1,0.7-1.9,1.4-2.8,2.1C265.1,431,264.7,431.5,264.5,432.1z"
				/>
			<path id="XMLID_114_" class="st2" d="M266.3,426.4c-0.3,4.4-0.8,8.6-2.9,12.6c-2.4,3.2-4.8,6.3-7.3,9.5
				c-9.8,8.7-22.2,12.1-37.1,10.2c-0.7-0.1-1.6,0.1-1.3,1.1c0.3,0.9,2.4,0.9,3.1,1c4.7,0.3,9.3,0.4,14-0.4c4.3-0.7,8.5-2,12.5-3.8
				c5.4-2.5,10.7-6.3,14.4-11c1.8-2.3,3.4-4.6,4.6-7.3c0.5-1.4,1-2.7,1.6-4.1c0.8-2.8,1.2-5.6,1.2-8.4
				C269.2,423.6,266.4,425.2,266.3,426.4z"/>
			<path id="XMLID_113_" class="st2" d="M262.9,430.8c0,3.1-0.5,6-1.4,8.9c-1.9,3.5-3.9,7-5.8,10.4c-3,4-7.3,7-11.7,9.3
				c-4,2.2-8.2,3.6-12.7,4.5c-2.3,0.5-4.6,0.8-7,0.9c-3.3,0.2-6.5,0-9.8-0.5c-1-0.1-1.3,0.5-0.6,1.3c0.8,0.6,1.6,1,2.5,1.5
				s1.7,0.8,2.7,1.1c3.7,0.1,7,0.3,10.7-0.3c2-0.3,4-0.7,5.9-1.2c4.9-1.4,9.7-3.4,13.9-6.3c4.1-2.7,7.7-6,10.8-9.8
				c2.5-3,4.3-6.6,5.9-10.1c1-2.1,1.8-4.3,2.3-6.5c0.9-2.9,1.3-5.9,1.4-8.9c0.2-1.7-2.5,0.7-2.5,0.7c-1.1,1-2.1,2-3.1,3.1
				C263.5,429.4,263.1,430,262.9,430.8z"/>
			<path id="XMLID_112_" class="st2" d="M264.6,425.4c0,4.3-1,8.5-2.9,12.4c-1.7,3.8-4.4,6.7-8.1,8.9c-2.6,3.2-5.8,5.6-9.6,7.1
				c-8.1,3.5-16.7,4.6-25.8,3.5c-0.6-0.1-2-0.4-2.2,0.6c-0.1,1,1.3,1.1,1.9,1.2c4.7,0.4,9.3,0.5,14,0c6.5-0.8,12.9-3.2,18.4-6.7
				c3.1-2,6-4.3,8.5-7.1c2.8-3.2,5.2-7,6.5-11.1c1.1-3.2,1.2-5.9,1.5-9.3c0-0.5-0.7-1-1.1-0.9C265.2,424.1,264.6,425,264.6,425.4z"
				/>
			<path id="XMLID_111_" class="st2" d="M260.7,427.1c0.1,2.3-0.2,4.5-0.9,6.7c-3.7,18.2-19.5,27-47.3,26.4c-1-0.1-1,0.9-0.4,1.4
				c0.8,0.4,1.6,0.7,2.4,0.9c0.8,0.3,1.7,0.5,2.5,0.6c5.1,0,9.8-0.2,14.7-1.5c2.8-0.7,5.2-1.6,7.8-2.7c3.6-1.6,6.8-3.6,9.9-6
				c2.9-2.3,5.6-5,7.7-8c1.6-2.3,3.1-4.9,4.1-7.4c0.4-1.4,0.9-2.7,1.3-4.1c0.8-2.8,1.2-5.8,1.3-8.7c0.1-0.8-0.5-1.1-1.2-0.8
				C262,424.1,260.7,426.2,260.7,427.1z"/>
		</g>
	</g>
</g>
<circle id="XMLID_26_" class="st3" cx="206.2" cy="408.4" r="8.7"/>
<circle id="XMLID_25_" cx="203.5" cy="409.6" r="2.7"/>
<circle id="XMLID_22_" class="st3" cx="246.1" cy="408.4" r="8.7"/>
<circle id="XMLID_21_" cx="243.3" cy="409.6" r="2.7"/>
<line id="XMLID_24_" class="st4" x1="210.3" y1="442.5" x2="242.6" y2="442.5"/>
<circle id="XMLID_84_" class="st0" cx="121.2" cy="420.1" r="49.8"/>
<g id="XMLID_69_" class="st1">
	<g id="XMLID_163_">
		<g id="XMLID_164_">
			<path id="XMLID_176_" class="st2" d="M123.2,379.9c3.3,0,6.5,0.5,9.7,1.3c5.7,1.5,10.9,4.2,15.3,7.9c3.4,2.9,6.3,6.1,8.8,9.8
				c2.4,3.7,4.3,7.9,5.4,12.1c1.7,6.1,1.8,12,1.3,18.2c0,0.4-0.1,1.1,0.4,1.3c0.7,0.3,1.2-1.4,1.3-1.7c0.5-1.5,1-3,1.4-4.5
				c0.3-1.3,0.8-2.6,0.6-3.9c-0.6-5.7-1.6-10.9-3.8-16.2c-2.1-4.9-4.9-9.5-8.4-13.5c-3.1-3.5-6.7-6.5-10.6-9.1
				c-8.2-5.6-18.2-7.9-27.9-8.6c-1.8-0.1,1.1,2.7,1,2.6c1.1,1.1,2.3,2.1,3.5,3.1C121.7,379.2,122.4,379.7,123.2,379.9z"/>
			<path id="XMLID_175_" class="st2" d="M124.5,376.9c3.2,0,6.4,0.4,9.6,1.2c4,1.8,7.9,3.6,11.9,5.4c4.4,2.7,8,6.7,11,10.9
				c2.6,3.7,4.5,7.6,5.9,11.9c0.7,2.1,1.3,4.3,1.6,6.5c0.7,4.6,0.7,9.2,0,13.9c-0.1,1.1,0.9,1.1,1.4,0.4c0.4-0.8,0.7-1.7,1-2.6
				s0.5-1.8,0.6-2.7c0-4.1-0.1-8-0.9-12c-0.6-3.1-1.5-6.1-2.7-9c-3-7.3-7.8-13.7-13.9-18.7c-3.1-2.6-6.5-4.5-10.1-6.4
				c-6-3.1-12.7-4.2-19.3-4.7c-1.5-0.1,0.1,2,0.2,2.2c0.7,0.9,1.5,1.8,2.3,2.7C123.3,376.3,123.8,376.7,124.5,376.9z"/>
			<path id="XMLID_174_" class="st2" d="M125.1,379.2c4.9,0.3,9.5,0.8,14.1,2.7c9.9,4.1,18.4,12.2,22.8,21.9c1.5,3.4,2.8,7,3.4,10.6
				c0.8,4.7,0.7,9.2,0.3,13.9c0,0.4-0.1,1,0.3,1.3c0.6,0.4,1.3-1.2,1.4-1.5c0.6-1.4,1.2-2.8,1.7-4.2c0.4-1.1,1-2.4,0.9-3.7
				c-0.1-3.5-0.6-6.9-1.4-10.2c-0.8-3.3-1.9-6.4-3.3-9.4c-2.8-5.9-6.8-11.3-11.6-15.7c-4.9-4.4-10.5-7.8-16.6-10.2
				c-3-1.2-6.2-2.2-9.4-2.8c-3.2-0.8-6.4-1.2-9.6-1.3c-1.9-0.2,1,2.9,1,2.9c1.2,1.3,2.4,2.7,3.7,3.9
				C123.5,378.3,124.2,378.8,125.1,379.2z"/>
			<path id="XMLID_173_" class="st2" d="M127.9,382.5c3.3,0,6.5,0.5,9.7,1.3c5.7,1.6,10.8,4.3,15.3,8.1c3.3,2.9,6.2,6.2,8.5,10
				s4.1,8,5.2,12.3c1.6,6.2,1.4,12.2,0.7,18.5c-0.1,0.8,0.6,1.1,1.2,0.7c0.8-0.5,2-2.6,2-3.5c0.2-4.4,0.4-8.7-0.3-13.1
				c-0.6-3.4-1.4-6.6-2.6-9.8c-3.1-7.8-7.9-14.3-14.4-19.5c-3.2-2.6-6.6-4.6-10.3-6.3c-6.1-2.9-12.7-4.1-19.4-4.6
				c-1.5-0.1,0.3,2.1,0.4,2.2c0.8,0.9,1.6,1.7,2.5,2.5C126.7,382.1,127.3,382.4,127.9,382.5z"/>
			<path id="XMLID_172_" class="st2" d="M127.8,379.8c4.9,0.4,9.4,0.9,14.1,2.7c4.9,1.7,8.8,4.8,11.9,9.2c4.5,2.8,7.8,6.5,9.9,11.2
				c1.9,4.1,3.4,8.4,4,12.9c0.6,4.8,0.4,9.3-0.1,14.1c-0.1,0.9,0.6,1.1,1.3,0.7c0.5-0.6,0.9-1.3,1.3-2s0.7-1.4,0.9-2.2
				c0.2-4.4,0.2-8.6-0.5-13c-0.7-4.1-1.8-8.3-3.7-12.1c-1.6-3.3-3.3-6.2-5.5-9.1c-3.5-4.6-7.9-8.6-12.8-11.6
				c-3.5-2.2-7.2-4-11.2-5.3c-4.7-1.6-9.4-2.3-14.3-2.7c-1.6-0.2,0.3,2.2,0.4,2.4c0.8,1.1,1.7,2.2,2.6,3.3
				C126.6,379,127.1,379.5,127.8,379.8z"/>
			<path id="XMLID_171_" class="st2" d="M124,378.8c8.1,0,13.3,0.6,20.7,6.2c2.9,2.2,5.5,4.7,7.8,7.6c2.4,2.7,3.9,5.8,4.8,9.4
				c2.4,3.7,3.8,7.7,4.2,12.1c0.5,4.5,0.2,8.8-0.4,13.3c-0.2,1.6,1.6,1.9,1.8,0.3c0.6-4.6,1-9.1,0.4-13.7c-0.4-3-1-6-2-8.9
				c-1.2-3.7-3-7.2-5.1-10.5c-3.7-5.7-8.6-10.6-14.6-13.8c-1.4-0.8-2.8-1.5-4.3-2s-2.9-1-4.4-1.5c-2.9-0.5-5.8-0.6-8.7-0.3
				C123.1,376.9,122.8,378.8,124,378.8z"/>
			<path id="XMLID_170_" class="st2" d="M122,379.8c6.1,0.5,12.2,1.5,17.6,4.5c13,7.1,20.2,18.4,22.4,35.7c-0.1-1-0.1-2.1-0.2-3.1
				c0.1,2.6,0.2,5.1,0.2,7.7c0-1.1,0.1-2.1,0.1-3.2c-0.2,2.6-0.4,5.2-0.6,7.8c-0.1,1.3,1,1.1,1.4,0.3c0.3-1,0.6-2.1,0.8-3.2
				s0.4-2.1,0.4-3.2c-0.2-6.2-1-12.2-3.3-18c-2.4-6.2-6.2-11.8-11-16.5c-4.3-4.2-9.4-7.5-15.1-9.7c-5.5-2.2-11-3-16.8-3.5
				c-0.3,0.1-0.5,0.3-0.5,0.6c0.1,0.5,0.4,1,0.9,1.3C119.2,378.2,120.6,379.7,122,379.8z"/>
			<path id="XMLID_169_" class="st2" d="M124.7,383.4c3,0.4,6,0.8,9,1.2c1.5,0.5,2.9,0.9,4.4,1.4c3.5,1.3,6.7,3.2,9.7,5.5
				c4.8,3.3,7.8,8.1,9,14.5c4.7,4.5,7.2,9.6,7.5,15.4c0.4,3.9,0.2,7.6-0.2,11.5c-0.1,1.1,0.7,1.3,1.3,0.5c0.5-0.9,0.9-1.8,1.2-2.7
				c0.4-0.9,0.7-1.9,0.9-2.9c-0.1-3.4-0.2-6.7-0.8-10.1c-0.6-3.1-1.5-6.3-2.7-9.3c-2.6-6.4-6.7-12.2-11.8-16.9
				c-4.5-4.2-9.8-7.3-15.5-9.5c-5.5-2.1-11.1-2.9-16.9-3.3c-1.5-0.1,0.7,2.1,0.6,2C121.5,381.8,123.1,383.3,124.7,383.4z"/>
			<path id="XMLID_168_" class="st2" d="M127.6,377c6.3,0.5,12,1.3,17.7,4.6c3.3,1.9,6.3,4.1,9,6.8c2.6,2.6,5,5.5,6.9,8.8
				c5.3,9.4,6.7,18.6,5.2,30.4c-0.1,0.6,0.2,1.4,1.1,1.1c0.8-0.3,1.1-1.7,1.1-2.4c0.4-3.3,0.5-4.3,0.5-7.1c0-2.4-0.2-4.6-0.4-7
				c-0.7-6.3-3.2-13.2-6.7-18.5c-4-6.2-9.1-11.3-15.4-15c-2.3-1.4-4.5-2.5-7-3.4c-1.6-0.5-3.1-1-4.7-1.5c-3.1-0.9-6.3-1.4-9.5-1.5
				c-1.2-0.1-0.5,1.4-0.3,1.8C125.5,374.7,126.6,376.9,127.6,377z"/>
			<path id="XMLID_167_" class="st2" d="M122.8,382.3c5.4,0.3,10.6,1.3,15.4,3.5c16.3,7.4,25.9,23.1,24,45.9
				c-0.1,1.3,0.9,1.2,1.4,0.3c0.4-1.1,0.8-2.2,1-3.3c0.3-1.1,0.5-2.2,0.6-3.4c-0.2-3.2-0.4-6.4-1-9.6c-0.6-3-1.6-6-2.8-8.8
				c-2.6-6.2-6.5-11.7-11.4-16.3c-4.4-4.1-9.5-7.2-15.2-9.4c-5.5-2.1-10.9-2.8-16.7-3.2c-0.4,0.1-0.5,0.3-0.5,0.7
				c0.2,0.6,0.5,1,1.1,1.3C119.8,380.8,121.3,382.2,122.8,382.3z"/>
			<path id="XMLID_166_" class="st2" d="M126.8,376.9c3.2,0,6.4,0.4,9.5,1.1c1.5,0.5,3,1,4.4,1.5c2.8,1.1,5.4,2.6,7.9,4.4
				c3,2,5.5,4.6,7.4,7.8c2.6,2.6,4.5,5.5,5.9,8.9c0.9,2,1.6,4.1,2.1,6.2c1.8,6.9,1.7,13.2,0.6,20.3c-0.1,0.5,0.6,0.9,1.1,0.8
				c0.6-0.1,0.8-0.6,0.8-1.2c0.8-5.5,1.1-10.9,0.1-16.5c-1.1-6.7-3.7-13.4-7.9-18.9c-2.8-3.7-6-7.1-9.8-9.8
				c-2.6-1.8-5.3-3.3-8.2-4.6c-4.6-2-9.1-2.4-14-2.7c-0.5,0-1.1,0.2-1.2,0.8C125.6,375.5,126.4,376.8,126.8,376.9z"/>
			<path id="XMLID_165_" class="st2" d="M122.8,380.1c6.4,0.1,11.2,0.6,17.1,4c1.2,0.8,2.5,1.6,3.7,2.4c3.5,2.4,6.3,5.5,8.2,9.5
				c2.6,2.5,4.5,5.4,5.6,8.6c0.9,1.9,1.5,3.9,2,6c1.3,5.8,1.3,11.3,0.7,17.3c-0.1,0.7-0.2,1.7,0.7,1.8s1-0.9,1.1-1.6
				c0.4-3.5,0.7-5.6,0.5-9.2c-0.2-3-0.6-5.9-1.2-8.8c-1.3-5.7-3.9-11.3-7.4-16c-3.2-4.3-7-7.9-11.5-10.8c-2-1.3-4.1-2.4-6.4-3.3
				c-1.4-0.5-2.9-1-4.3-1.5c-3-0.6-5.9-0.8-8.9-0.6C121.5,378.1,121.6,380.1,122.8,380.1z"/>
		</g>
	</g>
</g>
<g id="XMLID_68_" class="st1">
	<g id="XMLID_148_">
		<g id="XMLID_149_">
			<path id="XMLID_161_" class="st2" d="M159.5,428.7c0,2.3-0.2,4.6-0.9,6.8c-1.2,6-4.2,11.2-9,15.7c-3,3-6.8,5.6-10.6,7.4
				c-4.1,1.9-8.4,3.4-12.9,4.1c-4.8,0.7-9.5,0.7-14.4,0.2c-0.4,0-1.1-0.1-1.3,0.3c-0.4,0.6,1.3,1.3,1.6,1.4c1.4,0.7,2.8,1.2,4.2,1.7
				c1.2,0.4,2.4,1,3.7,0.9c1.8-0.1,3.5-0.2,5.3-0.3c3.5-0.5,6.9-1.3,10.2-2.5c6.3-2.2,12.1-5.7,17-10.1c4.7-4.3,8.3-9.5,11-15.3
				c1.3-2.8,2.3-5.7,3-8.7c0.8-2.9,1.3-5.9,1.3-9c0.2-1.9-3,1.2-2.9,1.1c-1.3,1.2-2.5,2.5-3.8,3.8
				C160.4,427.1,159.8,427.8,159.5,428.7z"/>
			<path id="XMLID_160_" class="st2" d="M160.1,425.7c-0.1,1.5-0.2,3-0.4,4.5c-0.5,3.4-1.6,6.6-3.4,9.5
				c-8.1,14.7-23.8,21.1-44.1,19.7c-1.4-0.1-1.3,0.9-0.3,1.4c1.2,0.4,2.4,0.7,3.7,1c1.2,0.3,2.5,0.5,3.8,0.6
				c6.5-0.4,12.6-1.3,18.7-3.8c5.5-2.3,10.7-5.6,15-9.8c4.2-4.1,7.5-9.1,9.6-14.6c1.7-4.4,2.4-9,2.8-13.7c0.1-1.6-2.2,0.6-2.2,0.6
				C162.3,422.3,160.3,424.1,160.1,425.7z"/>
			<path id="XMLID_159_" class="st2" d="M161.6,427.9c0,3-0.5,6-1.4,8.9c-0.5,1.3-1,2.7-1.6,4c-3.1,7-9.1,12.4-15.7,16.1
				c-4,2.2-8.2,3.7-12.6,4.7c-5.6,1.2-10.9,1.2-16.6,0.7c-1.3-0.1-1.5,0.7-0.4,1.4c1.2,0.5,2.4,1,3.6,1.4s2.5,0.8,3.8,1
				c5.4-0.2,10.7-0.7,15.9-2.5c4.5-1.5,8.8-3.6,12.8-6.3c4-2.7,7.8-6.1,10.7-10c2.7-3.7,5.2-7.8,6.7-12.2c0.5-1.5,0.9-3,1.4-4.4
				c0.8-2.9,1.3-5.9,1.4-8.9c0.2-1.8-2.7,0.8-2.7,0.8c-1.2,1.1-2.4,2.2-3.5,3.3C162.5,426.5,162,427.1,161.6,427.9z"/>
			<path id="XMLID_158_" class="st2" d="M162.3,431.8c0,2.2-0.2,4.4-0.8,6.5c-0.4,2.1-1.1,4.1-2.1,6c-1.9,3.8-4.7,7.5-7.9,10.2
				c-6.8,5.7-15.4,9.3-24.2,10.1c-4.8,0.4-9.5,0-14.3-0.5c-0.5-0.1-1,0.3-1,0.9s0.7,1,1.2,1.1c4.2,0.5,8.3,0.8,12.5,0.6
				c2.5-0.2,5-0.5,7.4-0.9c4.1-0.8,7.9-2.2,11.6-4.1c6.3-3.1,12.1-7.8,16-13.7c1.7-2.5,3-5.5,4-8.3c1.1-3.3,1.2-5.7,1.6-9.1
				C166.3,428.6,162.4,430.7,162.3,431.8z"/>
			<path id="XMLID_157_" class="st2" d="M163,429.1c0,4.3-0.9,8.4-2.8,12.3c-1.2,2.6-2.8,5-4.7,7.1c-10,11.6-25.7,14.9-41.2,13.3
				c-0.8-0.1-0.8,1-0.4,1.4c0.7,0.7,2.5,1,3.5,1.1c4.7,0.3,9.2,0.2,13.9-0.4c4.8-0.7,10-2.3,14.2-4.6c6.2-3.2,11.5-7.6,15.6-13.4
				c2.2-3.1,3.8-6.5,5-10.2c1-3.1,1.3-5.9,1.6-9.2c0.1-1.2-1.5-0.4-1.8-0.2C164.9,426.9,163,428,163,429.1z"/>
			<path id="XMLID_156_" class="st2" d="M156.4,426c0.2,3.6-0.7,6.9-2.5,10.1c-5,17.1-19.8,24.7-44.4,22.6c-0.7-0.1-2.5,0-1.5,1.1
				c0.4,0.5,1.3,0.6,1.9,0.7c1,0.2,2.1,0.5,3.1,0.5c5.9,0.1,11.3-0.4,17.1-2c4.4-1.2,8.7-3.3,12.5-5.8c3.6-2.4,6.6-5.2,9.3-8.5
				c1.7-2,3.2-4.7,4.3-7.2c1.9-4.3,2.5-8.5,2.9-13.1c0-0.6-0.7-1-1.2-0.8C157.3,423.9,156.4,425.3,156.4,426z"/>
			<path id="XMLID_155_" class="st2" d="M157.4,428.3c0,4.2-0.9,8.3-2.7,12.2c-1.2,2.6-2.7,4.9-4.5,7.1c-2.8,3.3-6,6-9.7,8.3
				s-8,4-12.2,5.1c-6.3,1.6-12.4,1.6-18.8,1c-0.4,0-1-0.1-1.2,0.3c-0.3,0.6,1.1,1.2,1.4,1.4c1.2,0.6,2.5,1.1,3.8,1.5
				c1.1,0.4,2.2,0.8,3.4,0.8c5.3-0.2,10.3-0.9,15.3-2.7c5.3-1.9,10.1-4.5,14.5-8c4.9-3.8,8.7-8.5,11.6-13.9c1-2,2-4,2.8-6.1
				c1.6-4.4,2.3-8.9,2.7-13.6c0.2-1.8-2.6,1.2-2.4,1c-1,1.1-1.9,2.3-2.7,3.4C157.9,426.8,157.6,427.5,157.4,428.3z"/>
			<path id="XMLID_154_" class="st2" d="M159.6,432c0,3-0.5,6-1.4,8.9c-2,3.5-4,7.1-6,10.6c-3.1,4-7.5,7-11.9,9.3
				c-4.1,2.1-8.4,3.5-12.9,4.3c-5.7,1-11.1,0.8-16.8,0c-0.7-0.1-1,0.8-0.7,1.3c0.4,0.7,2.2,1.5,3.1,1.6c3.5,0.3,6.9,0.6,10.5,0.4
				c4.3-0.2,8.5-1.2,12.7-2.6c3.2-1.1,6.2-2.5,9.1-4.2c3.4-2,7-4.6,9.6-7.6c2.1-2.5,3.9-5,5.6-7.7c1.4-2.2,2.3-4.5,3.1-7
				c0.6-1.4,1-2.9,1.3-4.4c0.6-2.2,1-4.4,1-6.7c0.1-1.5-2-0.1-2.2,0.1c-1,0.7-1.9,1.4-2.8,2.1C160.2,430.9,159.8,431.4,159.6,432z"
				/>
			<path id="XMLID_153_" class="st2" d="M161.3,426.3c-0.3,4.4-0.8,8.6-2.9,12.6c-2.4,3.2-4.8,6.3-7.3,9.5
				c-9.8,8.7-22.2,12.1-37.1,10.2c-0.7-0.1-1.6,0.1-1.3,1.1c0.3,0.9,2.4,0.9,3.1,1c4.7,0.3,9.3,0.4,14-0.4c4.3-0.7,8.5-2,12.5-3.8
				c5.4-2.5,10.7-6.3,14.4-11c1.8-2.3,3.4-4.6,4.6-7.3c0.5-1.4,1-2.7,1.6-4.1c0.8-2.8,1.2-5.6,1.2-8.4
				C164.3,423.5,161.4,425.2,161.3,426.3z"/>
			<path id="XMLID_152_" class="st2" d="M157.9,430.7c0,3.1-0.5,6-1.4,8.9c-1.9,3.5-3.9,7-5.8,10.4c-3,4-7.3,7-11.7,9.3
				c-4,2.2-8.2,3.6-12.7,4.5c-2.3,0.5-4.6,0.8-7,0.9c-3.3,0.2-6.5,0-9.8-0.5c-1-0.1-1.3,0.5-0.6,1.3c0.8,0.6,1.6,1,2.5,1.5
				s1.7,0.8,2.7,1.1c3.7,0.1,7,0.3,10.7-0.3c2-0.3,4-0.7,5.9-1.2c4.9-1.4,9.7-3.4,13.9-6.3c4.1-2.7,7.7-6,10.8-9.8
				c2.5-3,4.3-6.6,5.9-10.1c1-2.1,1.8-4.3,2.3-6.5c0.9-2.9,1.3-5.9,1.4-8.9c0.2-1.7-2.5,0.7-2.5,0.7c-1.1,1-2.1,2-3.1,3.1
				C158.6,429.3,158.2,430,157.9,430.7z"/>
			<path id="XMLID_151_" class="st2" d="M159.6,425.3c0,4.3-1,8.5-2.9,12.4c-1.7,3.8-4.4,6.7-8.1,8.9c-2.6,3.2-5.8,5.6-9.6,7.1
				c-8.1,3.5-16.7,4.6-25.8,3.5c-0.6-0.1-2-0.4-2.2,0.6c-0.1,1,1.3,1.1,1.9,1.2c4.7,0.4,9.3,0.5,14,0c6.5-0.8,12.9-3.2,18.4-6.7
				c3.1-2,6-4.3,8.5-7.1c2.8-3.2,5.2-7,6.5-11.1c1.1-3.2,1.2-5.9,1.5-9.3c0-0.5-0.7-1-1.1-0.9S159.7,424.9,159.6,425.3z"/>
			<path id="XMLID_150_" class="st2" d="M155.7,427c0.1,2.3-0.2,4.5-0.9,6.7c-3.7,18.2-19.5,27-47.3,26.4c-1-0.1-1,0.9-0.4,1.4
				c0.8,0.4,1.6,0.7,2.4,0.9c0.8,0.3,1.7,0.5,2.5,0.6c5.1,0,9.8-0.2,14.7-1.5c2.8-0.7,5.2-1.6,7.8-2.7c3.6-1.6,6.8-3.6,9.9-6
				c2.9-2.3,5.6-5,7.7-8c1.6-2.3,3.1-4.9,4.1-7.4c0.4-1.4,0.9-2.7,1.3-4.1c0.8-2.8,1.2-5.8,1.3-8.7c0.1-0.8-0.5-1.1-1.2-0.8
				C157.1,424.1,155.8,426.1,155.7,427z"/>
		</g>
	</g>
</g>
<circle id="XMLID_65_" class="st3" cx="101.3" cy="408.3" r="8.7"/>
<circle id="XMLID_64_" cx="101.5" cy="409.5" r="2.7"/>
<path id="XMLID_63_" class="st4" d="M105.9,447.8c3.4-1.5,8.4-2.5,14.1-2.6c6-0.1,11.3,0.7,14.8,2.2"/>
<path id="XMLID_62_" class="st5" d="M117.4,417.7c1,3.4-1.9,7.8,0.6,10.3c1.6,1.6,4.8,0.9,5.5-1.2"/>
<circle id="XMLID_61_" class="st3" cx="141.1" cy="408.3" r="8.7"/>
<circle id="XMLID_60_" cx="141.4" cy="409.5" r="2.7"/>
<circle id="XMLID_138_" class="st0" cx="331" cy="420.3" r="49.8"/>
<g id="XMLID_123_" class="st1">
	<g id="XMLID_203_">
		<g id="XMLID_204_">
			<path id="XMLID_216_" class="st2" d="M333,380.1c3.3,0,6.5,0.5,9.7,1.3c5.7,1.5,10.9,4.2,15.3,7.9c3.4,2.9,6.3,6.1,8.8,9.8
				c2.4,3.7,4.3,7.9,5.4,12.1c1.7,6.1,1.8,12,1.3,18.2c0,0.4-0.1,1.1,0.4,1.3c0.7,0.3,1.2-1.4,1.3-1.7c0.5-1.5,1-3,1.4-4.5
				c0.3-1.3,0.8-2.6,0.6-3.9c-0.6-5.7-1.6-10.9-3.8-16.2c-2.1-4.9-4.9-9.5-8.4-13.5c-3.1-3.5-6.7-6.5-10.6-9.1
				c-8.2-5.6-18.2-7.9-27.9-8.6c-1.8-0.1,1.1,2.7,1,2.6c1.1,1.1,2.3,2.1,3.5,3.1C331.5,379.5,332.2,379.9,333,380.1z"/>
			<path id="XMLID_215_" class="st2" d="M334.3,377.1c3.2,0,6.4,0.4,9.6,1.2c4,1.8,7.9,3.6,11.9,5.4c4.4,2.7,8,6.7,11,10.9
				c2.6,3.7,4.5,7.6,5.9,11.9c0.7,2.1,1.3,4.3,1.6,6.5c0.7,4.6,0.7,9.2,0,13.9c-0.1,1.1,0.9,1.1,1.4,0.4c0.4-0.8,0.7-1.7,1-2.6
				s0.5-1.8,0.6-2.7c0-4.1-0.1-8-0.9-12c-0.6-3.1-1.5-6.1-2.7-9c-3-7.3-7.8-13.7-13.9-18.7c-3.1-2.6-6.5-4.5-10.1-6.4
				c-6-3.1-12.7-4.2-19.3-4.7c-1.5-0.1,0.1,2,0.2,2.2c0.7,0.9,1.5,1.8,2.3,2.7C333.2,376.5,333.7,376.9,334.3,377.1z"/>
			<path id="XMLID_214_" class="st2" d="M335,379.5c4.9,0.3,9.5,0.8,14.1,2.7c9.9,4.1,18.4,12.2,22.8,21.9c1.5,3.4,2.8,7,3.4,10.6
				c0.8,4.7,0.7,9.2,0.3,13.9c0,0.4-0.1,1,0.3,1.3c0.6,0.4,1.3-1.2,1.4-1.5c0.6-1.4,1.2-2.8,1.7-4.2c0.4-1.1,1-2.4,0.9-3.7
				c-0.1-3.5-0.6-6.9-1.4-10.2c-0.8-3.3-1.9-6.4-3.3-9.4c-2.8-5.9-6.8-11.3-11.6-15.7c-4.9-4.4-10.5-7.8-16.6-10.2
				c-3-1.2-6.2-2.2-9.4-2.8c-3.2-0.8-6.4-1.2-9.6-1.3c-1.9-0.2,1,2.9,1,2.9c1.2,1.3,2.4,2.7,3.7,3.9
				C333.3,378.5,334.1,379.1,335,379.5z"/>
			<path id="XMLID_213_" class="st2" d="M337.8,382.8c3.3,0,6.5,0.5,9.7,1.3c5.7,1.6,10.8,4.3,15.3,8.1c3.3,2.9,6.2,6.2,8.5,10
				s4.1,8,5.2,12.3c1.6,6.2,1.4,12.2,0.7,18.5c-0.1,0.8,0.6,1.1,1.2,0.7c0.8-0.5,2-2.6,2-3.5c0.2-4.4,0.4-8.7-0.3-13.1
				c-0.6-3.4-1.4-6.6-2.6-9.8c-3.1-7.8-7.9-14.3-14.4-19.5c-3.2-2.6-6.6-4.6-10.3-6.3c-6.1-2.9-12.7-4.1-19.4-4.6
				c-1.5-0.1,0.3,2.1,0.4,2.2c0.8,0.9,1.6,1.7,2.5,2.5C336.6,382.3,337.1,382.6,337.8,382.8z"/>
			<path id="XMLID_212_" class="st2" d="M337.7,380c4.9,0.4,9.4,0.9,14.1,2.7c4.9,1.7,8.8,4.8,11.9,9.2c4.5,2.8,7.8,6.5,9.9,11.2
				c1.9,4.1,3.4,8.4,4,12.9c0.6,4.8,0.4,9.3-0.1,14.1c-0.1,0.9,0.6,1.1,1.3,0.7c0.5-0.6,0.9-1.3,1.3-2s0.7-1.4,0.9-2.2
				c0.2-4.4,0.2-8.6-0.5-13c-0.7-4.1-1.8-8.3-3.7-12.1c-1.6-3.3-3.3-6.2-5.5-9.1c-3.5-4.6-7.9-8.6-12.8-11.6
				c-3.5-2.2-7.2-4-11.2-5.3c-4.7-1.6-9.4-2.3-14.3-2.7c-1.6-0.1,0.2,2.3,0.4,2.5c0.8,1.1,1.7,2.2,2.6,3.3
				C336.4,379.2,337,379.7,337.7,380z"/>
			<path id="XMLID_211_" class="st2" d="M333.9,379c8.1,0,13.3,0.6,20.7,6.2c2.9,2.2,5.5,4.7,7.8,7.6c2.4,2.7,3.9,5.8,4.8,9.4
				c2.4,3.7,3.8,7.7,4.2,12.1c0.5,4.5,0.2,8.8-0.4,13.3c-0.2,1.6,1.6,1.9,1.8,0.3c0.6-4.6,1-9.1,0.4-13.7c-0.4-3-1-6-2-8.9
				c-1.2-3.7-3-7.2-5.1-10.5c-3.7-5.7-8.6-10.6-14.6-13.8c-1.4-0.8-2.8-1.5-4.3-2s-2.9-1-4.4-1.5c-2.9-0.5-5.8-0.6-8.7-0.3
				C333,377.2,332.7,379,333.9,379z"/>
			<path id="XMLID_210_" class="st2" d="M331.9,380c6.1,0.5,12.2,1.5,17.6,4.5c13,7.1,20.2,18.4,22.4,35.7c-0.1-1-0.1-2.1-0.2-3.1
				c0.1,2.6,0.2,5.1,0.2,7.7c0-1.1,0.1-2.1,0.1-3.2c-0.2,2.6-0.4,5.2-0.6,7.8c-0.1,1.3,1,1.1,1.4,0.3c0.3-1,0.6-2.1,0.8-3.2
				c0.2-1.1,0.4-2.1,0.4-3.2c-0.2-6.2-1-12.2-3.3-18c-2.4-6.2-6.2-11.8-11-16.5c-4.3-4.2-9.4-7.5-15.1-9.7c-5.5-2.2-11-3-16.8-3.5
				c-0.3,0.1-0.5,0.3-0.5,0.6c0.1,0.5,0.4,1,0.9,1.3C329.1,378.5,330.5,379.9,331.9,380z"/>
			<path id="XMLID_209_" class="st2" d="M334.5,383.6c3,0.4,6,0.8,9,1.2c1.5,0.5,2.9,0.9,4.4,1.4c3.5,1.3,6.7,3.2,9.7,5.5
				c4.8,3.3,7.8,8.1,9,14.5c4.7,4.5,7.2,9.6,7.5,15.4c0.4,3.9,0.2,7.6-0.2,11.5c-0.1,1.1,0.7,1.3,1.3,0.5c0.5-0.9,0.9-1.8,1.2-2.7
				c0.4-0.9,0.7-1.9,0.9-2.9c-0.1-3.4-0.2-6.7-0.8-10.1c-0.6-3.1-1.5-6.3-2.7-9.3c-2.6-6.4-6.7-12.2-11.8-16.9
				c-4.5-4.2-9.8-7.3-15.5-9.5c-5.5-2.1-11.1-2.9-16.9-3.3c-1.5-0.1,0.7,2.1,0.6,2C331.4,382.1,333,383.5,334.5,383.6z"/>
			<path id="XMLID_208_" class="st2" d="M337.5,377.2c6.3,0.5,12,1.3,17.7,4.6c3.3,1.9,6.3,4.1,9,6.8c2.6,2.6,5,5.5,6.9,8.8
				c5.3,9.4,6.7,18.6,5.2,30.4c-0.1,0.6,0.2,1.4,1.1,1.1c0.8-0.3,1.1-1.7,1.1-2.4c0.4-3.3,0.5-4.3,0.5-7.1c0-2.4-0.2-4.6-0.4-7
				c-0.7-6.3-3.2-13.2-6.7-18.5c-4-6.2-9.1-11.3-15.4-15c-2.3-1.4-4.5-2.5-7-3.4c-1.6-0.5-3.1-1-4.7-1.5c-3.1-0.9-6.3-1.4-9.5-1.5
				c-1.2-0.1-0.5,1.4-0.3,1.8C335.4,375,336.4,377.1,337.5,377.2z"/>
			<path id="XMLID_207_" class="st2" d="M332.6,382.5c5.4,0.3,10.6,1.3,15.4,3.5c16.3,7.4,25.9,23,24,45.9c-0.1,1.3,0.9,1.2,1.4,0.3
				c0.4-1.1,0.8-2.2,1-3.3c0.3-1.1,0.5-2.2,0.6-3.4c-0.2-3.2-0.4-6.4-1-9.6c-0.6-3-1.6-6-2.8-8.8c-2.6-6.2-6.5-11.7-11.4-16.3
				c-4.4-4.1-9.5-7.2-15.2-9.4c-5.5-2.1-10.9-2.8-16.7-3.2c-0.4,0.1-0.5,0.3-0.5,0.7c0.2,0.6,0.5,1,1.1,1.3
				C329.6,381.1,331.2,382.4,332.6,382.5z"/>
			<path id="XMLID_206_" class="st2" d="M336.7,377.1c3.2,0,6.4,0.4,9.5,1.1c1.5,0.5,3,1,4.4,1.5c2.8,1.1,5.4,2.6,7.9,4.4
				c3,2,5.5,4.6,7.4,7.8c2.6,2.6,4.5,5.5,5.9,8.9c0.9,2,1.6,4.1,2.1,6.2c1.8,6.9,1.7,13.2,0.6,20.3c-0.1,0.5,0.6,0.9,1.1,0.8
				c0.6-0.1,0.8-0.6,0.8-1.2c0.8-5.5,1.1-10.9,0.1-16.5c-1.1-6.7-3.7-13.4-7.9-18.9c-2.8-3.7-6-7.1-9.8-9.8
				c-2.6-1.8-5.3-3.3-8.2-4.6c-4.6-2-9.1-2.4-14-2.7c-0.5,0-1.1,0.2-1.2,0.8C335.5,375.8,336.3,377.1,336.7,377.1z"/>
			<path id="XMLID_205_" class="st2" d="M332.7,380.4c6.4,0.1,11.2,0.6,17.1,4c1.2,0.8,2.5,1.6,3.7,2.4c3.5,2.4,6.3,5.5,8.2,9.5
				c2.6,2.5,4.5,5.4,5.6,8.6c0.9,1.9,1.5,3.9,2,6c1.3,5.8,1.3,11.3,0.7,17.3c-0.1,0.7-0.2,1.7,0.7,1.8c0.9,0.1,1-0.9,1.1-1.6
				c0.4-3.5,0.7-5.6,0.5-9.2c-0.2-3-0.6-5.9-1.2-8.8c-1.3-5.7-3.9-11.3-7.4-16c-3.2-4.3-7-7.9-11.5-10.8c-2-1.3-4.1-2.4-6.4-3.3
				c-1.4-0.5-2.9-1-4.3-1.5c-3-0.6-5.9-0.8-8.9-0.6C331.3,378.3,331.5,380.3,332.7,380.4z"/>
		</g>
	</g>
</g>
<g id="XMLID_108_" class="st1">
	<g id="XMLID_188_">
		<g id="XMLID_189_">
			<path id="XMLID_201_" class="st2" d="M369.3,429c0,2.3-0.2,4.6-0.9,6.8c-1.2,6-4.2,11.2-9,15.7c-3,3-6.8,5.6-10.6,7.4
				c-4.1,1.9-8.4,3.4-12.9,4.1c-4.8,0.7-9.5,0.7-14.4,0.2c-0.4,0-1.1-0.1-1.3,0.3c-0.4,0.6,1.3,1.3,1.6,1.4c1.4,0.7,2.8,1.2,4.2,1.7
				c1.2,0.4,2.4,1,3.7,0.9c1.8-0.1,3.5-0.2,5.3-0.3c3.5-0.5,6.9-1.3,10.2-2.5c6.3-2.2,12.1-5.7,17-10.1c4.7-4.3,8.3-9.5,11-15.3
				c1.3-2.8,2.3-5.7,3-8.7c0.8-2.9,1.3-5.9,1.3-9c0.2-1.9-3,1.2-2.9,1.1c-1.3,1.2-2.5,2.5-3.8,3.8
				C370.3,427.3,369.7,428.1,369.3,429z"/>
			<path id="XMLID_200_" class="st2" d="M370,426c-0.1,1.5-0.2,3-0.4,4.5c-0.5,3.4-1.6,6.6-3.4,9.5c-8.1,14.7-23.8,21.1-44.1,19.7
				c-1.4-0.1-1.3,0.9-0.3,1.4c1.2,0.4,2.4,0.7,3.7,1c1.2,0.3,2.5,0.5,3.8,0.6c6.5-0.4,12.6-1.3,18.7-3.8c5.5-2.3,10.7-5.6,15-9.8
				c4.2-4.1,7.5-9.1,9.6-14.6c1.7-4.4,2.4-9,2.8-13.7c0.1-1.6-2.2,0.6-2.2,0.6C372.2,422.5,370.1,424.4,370,426z"/>
			<path id="XMLID_199_" class="st2" d="M371.5,428.2c0,3-0.5,6-1.4,8.9c-0.5,1.3-1,2.7-1.6,4c-3.1,7.1-9.1,12.4-15.7,16.1
				c-4,2.2-8.2,3.7-12.6,4.7c-5.6,1.2-10.9,1.2-16.6,0.7c-1.3-0.1-1.5,0.7-0.4,1.4c1.2,0.5,2.4,1,3.6,1.4s2.5,0.8,3.8,1
				c5.4-0.2,10.7-0.7,15.9-2.5c4.5-1.5,8.8-3.6,12.8-6.3c4-2.7,7.8-6.1,10.7-10c2.7-3.7,5.2-7.8,6.7-12.2c0.5-1.5,0.9-3,1.4-4.4
				c0.8-2.9,1.3-5.9,1.4-8.9c0.2-1.8-2.7,0.8-2.7,0.8c-1.2,1.1-2.4,2.2-3.5,3.3C372.4,426.7,371.8,427.4,371.5,428.2z"/>
			<path id="XMLID_198_" class="st2" d="M372.2,432.1c0,2.2-0.2,4.4-0.8,6.5c-0.4,2.1-1.1,4.1-2.1,6c-1.9,3.8-4.7,7.5-7.9,10.2
				c-6.8,5.7-15.4,9.3-24.2,10.1c-4.8,0.4-9.5,0-14.3-0.5c-0.5-0.1-1,0.3-1,0.9s0.7,1,1.2,1.1c4.2,0.5,8.3,0.8,12.5,0.6
				c2.5-0.2,5-0.5,7.4-0.9c4.1-0.8,7.9-2.2,11.6-4.1c6.3-3.1,12.1-7.8,16-13.7c1.7-2.5,3-5.5,4-8.3c1.1-3.3,1.2-5.7,1.6-9.1
				C376.2,428.8,372.3,430.9,372.2,432.1z"/>
			<path id="XMLID_197_" class="st2" d="M372.8,429.3c0,4.3-0.9,8.4-2.8,12.3c-1.2,2.6-2.8,5-4.7,7.1c-10,11.6-25.7,14.9-41.2,13.3
				c-0.8-0.1-0.8,1-0.4,1.4c0.7,0.7,2.5,1,3.5,1.1c4.7,0.3,9.2,0.2,13.9-0.4c4.8-0.7,10-2.3,14.2-4.6c6.2-3.2,11.5-7.6,15.6-13.4
				c2.2-3.1,3.8-6.5,5-10.2c1-3.1,1.3-5.9,1.6-9.2c0.1-1.2-1.5-0.4-1.8-0.2C374.7,427.1,372.9,428.2,372.8,429.3z"/>
			<path id="XMLID_196_" class="st2" d="M366.2,426.2c0.2,3.6-0.7,6.9-2.5,10.1c-5,17.1-19.8,24.7-44.4,22.6c-0.7-0.1-2.5,0-1.5,1.1
				c0.4,0.5,1.3,0.6,1.9,0.7c1,0.2,2.1,0.5,3.1,0.5c5.9,0.1,11.3-0.4,17.1-2c4.4-1.2,8.7-3.3,12.5-5.8c3.6-2.4,6.6-5.2,9.3-8.5
				c1.7-2,3.2-4.7,4.3-7.2c1.9-4.3,2.5-8.5,2.9-13.1c0-0.6-0.7-1-1.2-0.8C367.1,424.1,366.3,425.5,366.2,426.2z"/>
			<path id="XMLID_195_" class="st2" d="M367.3,428.5c0,4.2-0.9,8.3-2.7,12.2c-1.2,2.6-2.7,4.9-4.5,7.1c-2.8,3.3-6,6-9.7,8.3
				s-8,4-12.2,5.1c-6.3,1.6-12.4,1.6-18.8,1c-0.4,0-1-0.1-1.2,0.3c-0.3,0.6,1.1,1.2,1.4,1.4c1.2,0.6,2.5,1.1,3.8,1.5
				c1.1,0.4,2.2,0.8,3.4,0.8c5.3-0.2,10.3-0.9,15.3-2.7c5.3-1.9,10.1-4.5,14.5-8c4.9-3.8,8.7-8.5,11.6-13.9c1-2,2-4,2.8-6.1
				c1.6-4.4,2.3-8.9,2.7-13.6c0.2-1.8-2.6,1.2-2.4,1c-1,1.1-1.9,2.3-2.7,3.4C367.8,427,367.4,427.7,367.3,428.5z"/>
			<path id="XMLID_194_" class="st2" d="M369.4,432.3c0,3-0.5,6-1.4,8.9c-2,3.5-4,7.1-6,10.6c-3.1,4-7.5,7-11.9,9.3
				c-4.1,2.1-8.4,3.5-12.9,4.3c-5.7,1-11.1,0.8-16.8,0c-0.7-0.1-1,0.8-0.7,1.3c0.4,0.7,2.2,1.5,3.1,1.6c3.5,0.3,6.9,0.6,10.5,0.4
				c4.3-0.2,8.5-1.2,12.7-2.6c3.2-1.1,6.2-2.5,9.1-4.2c3.4-2,7-4.6,9.6-7.6c2.1-2.5,3.9-5,5.6-7.7c1.4-2.2,2.3-4.5,3.1-7
				c0.6-1.4,1-2.9,1.3-4.4c0.6-2.2,1-4.4,1-6.7c0.1-1.5-2-0.1-2.2,0.1c-1,0.7-1.9,1.4-2.8,2.1C370,431.2,369.7,431.7,369.4,432.3z"
				/>
			<path id="XMLID_193_" class="st2" d="M371.2,426.6c-0.3,4.4-0.8,8.6-2.9,12.6c-2.4,3.2-4.8,6.3-7.3,9.5
				c-9.8,8.7-22.2,12.1-37.1,10.2c-0.7-0.1-1.6,0.1-1.3,1.1c0.3,0.9,2.4,0.9,3.1,1c4.7,0.3,9.3,0.4,14-0.4c4.3-0.7,8.5-2,12.5-3.8
				c5.4-2.5,10.7-6.3,14.4-11c1.8-2.3,3.4-4.6,4.6-7.3c0.5-1.4,1-2.7,1.6-4.1c0.8-2.8,1.2-5.6,1.2-8.4
				C374.1,423.8,371.3,425.4,371.2,426.6z"/>
			<path id="XMLID_192_" class="st2" d="M367.8,431c0,3.1-0.5,6-1.4,8.9c-1.9,3.5-3.9,7-5.8,10.4c-3,4-7.3,7-11.7,9.3
				c-4,2.2-8.2,3.6-12.7,4.5c-2.3,0.5-4.6,0.8-7,0.9c-3.3,0.2-6.5,0-9.8-0.5c-1-0.1-1.3,0.5-0.6,1.3c0.8,0.6,1.6,1,2.5,1.5
				s1.7,0.8,2.7,1.1c3.7,0.1,7,0.3,10.7-0.3c2-0.3,4-0.7,5.9-1.2c4.9-1.4,9.7-3.4,13.9-6.3c4.1-2.7,7.7-6,10.8-9.8
				c2.5-3,4.3-6.6,5.9-10.1c1-2.1,1.8-4.3,2.3-6.5c0.9-2.9,1.3-5.9,1.4-8.9c0.2-1.7-2.5,0.7-2.5,0.7c-1.1,1-2.1,2-3.1,3.1
				C368.5,429.6,368,430.2,367.8,431z"/>
			<path id="XMLID_191_" class="st2" d="M369.5,425.6c0,4.3-1,8.5-2.9,12.4c-1.7,3.8-4.4,6.7-8.1,8.9c-2.6,3.2-5.8,5.6-9.6,7.1
				c-8.1,3.5-16.7,4.6-25.8,3.5c-0.6-0.1-2-0.4-2.2,0.6c-0.1,1,1.3,1.1,1.9,1.2c4.7,0.4,9.3,0.5,14,0c6.5-0.8,12.9-3.2,18.4-6.7
				c3.1-2,6-4.3,8.5-7.1c2.8-3.2,5.2-7,6.5-11.1c1.1-3.2,1.2-5.9,1.5-9.3c0-0.5-0.7-1-1.1-0.9C370.1,424.2,369.5,425.1,369.5,425.6z
				"/>
			<path id="XMLID_190_" class="st2" d="M365.6,427.2c0.1,2.3-0.2,4.5-0.9,6.7c-3.7,18.2-19.5,27-47.3,26.4c-1-0.1-1,0.9-0.4,1.4
				c0.8,0.4,1.6,0.7,2.4,0.9c0.8,0.3,1.7,0.5,2.5,0.6c5.1,0,9.8-0.2,14.7-1.5c2.8-0.7,5.2-1.6,7.8-2.7c3.6-1.6,6.8-3.6,9.9-6
				c2.9-2.3,5.6-5,7.7-8c1.6-2.3,3.1-4.9,4.1-7.4c0.4-1.4,0.9-2.7,1.3-4.1c0.8-2.8,1.2-5.8,1.3-8.7c0.1-0.8-0.5-1.1-1.2-0.8
				C367,424.3,365.7,426.4,365.6,427.2z"/>
		</g>
	</g>
</g>
<circle id="XMLID_107_" class="st3" cx="311.2" cy="408.5" r="8.7"/>
<circle id="XMLID_104_" cx="310.4" cy="408.7" r="2.7"/>
<path id="XMLID_102_" class="st5" d="M327.2,418c1,3.4-1.9,7.8,0.6,10.3c1.6,1.6,4.8,0.9,5.5-1.2"/>
<circle id="XMLID_101_" class="st3" cx="351" cy="408.5" r="8.7"/>
<circle id="XMLID_100_" cx="350.2" cy="408.7" r="2.7"/>
<path id="XMLID_99_" class="st4" d="M345.5,442.7c-3.4,1.5-8.4,2.5-14.1,2.6c-6,0.1-11.3-0.7-14.8-2.2"/>
<path id="XMLID_17_" class="st5" d="M222.3,418.2c1,3.4-1.9,7.8,0.6,10.3c1.6,1.6,4.8,0.9,5.5-1.2"/>
</svg>
