<?xml version="1.0" encoding="utf-8"?>
<!-- Generator: Adobe Illustrator 19.0.0, SVG Export Plug-In . SVG Version: 6.00 Build 0)  -->
<svg version="1.1" id="Layer_1" xmlns="http://www.w3.org/2000/svg" xmlns:xlink="http://www.w3.org/1999/xlink" x="0px" y="0px"
	 viewBox="-494 742.4 99.9 99.6" style="enable-background:new -494 742.4 99.9 99.6;" xml:space="preserve">
<style type="text/css">
	.st0{fill:#FFCA07;}
	.st1{opacity:0.7;}
	.st2{opacity:0.1091;fill:#FFFFFF;enable-background:new    ;}
	.st3{fill:#FFFFFF;}
	.st4{fill:none;stroke:#E87325;stroke-width:3;stroke-linecap:round;stroke-miterlimit:10;}
	.st5{fill:none;stroke:#000000;stroke-width:3;stroke-linecap:round;stroke-miterlimit:10;}
	.st6{fill:none;stroke:#000000;stroke-width:2.7;stroke-linecap:round;stroke-miterlimit:10;}
</style>
<circle id="XMLID_1_" class="st0" cx="-444.2" cy="792.2" r="49.8"/>
<g id="XMLID_4_" class="st1">
	<g id="XMLID_46_">
		<g id="XMLID_47_">
			<path id="XMLID_59_" class="st2" d="M-442.1,752.1c3.3,0,6.5,0.5,9.7,1.3c5.7,1.5,10.9,4.2,15.3,7.9c3.4,2.9,6.3,6.1,8.8,9.8
				c2.4,3.7,4.3,7.9,5.4,12.1c1.7,6.1,1.8,12,1.3,18.2c0,0.4-0.1,1.1,0.4,1.3c0.7,0.3,1.2-1.4,1.3-1.7c0.5-1.5,1-3,1.4-4.5
				c0.3-1.3,0.8-2.6,0.6-3.9c-0.6-5.7-1.6-10.9-3.8-16.2c-2.1-4.9-4.9-9.5-8.4-13.5c-3.1-3.5-6.7-6.5-10.6-9.1
				c-8.3-5.6-18.3-7.9-28-8.6c-1.8-0.1,1.1,2.7,1,2.6c1.1,1.1,2.3,2.1,3.5,3.1C-443.7,751.4-443,751.8-442.1,752.1z"/>
			<path id="XMLID_58_" class="st2" d="M-440.9,749c3.2,0,6.4,0.4,9.6,1.2c4,1.8,7.9,3.6,11.9,5.4c4.4,2.7,8,6.7,11,10.9
				c2.6,3.7,4.5,7.6,5.9,11.9c0.7,2.1,1.3,4.3,1.6,6.5c0.7,4.6,0.7,9.2,0,13.9c-0.1,1.1,0.9,1.1,1.4,0.4c0.4-0.8,0.7-1.7,1-2.6
				s0.5-1.8,0.6-2.7c0-4.1-0.1-8-0.9-12c-0.6-3.1-1.5-6.1-2.7-9c-3-7.3-7.8-13.7-13.9-18.7c-3.2-2.6-6.6-4.6-10.2-6.4
				c-6-3.1-12.7-4.2-19.3-4.7c-1.5-0.1,0.1,2,0.2,2.2c0.7,0.9,1.5,1.8,2.3,2.7C-442,748.5-441.5,748.8-440.9,749z"/>
			<path id="XMLID_57_" class="st2" d="M-440.2,751.4c4.9,0.3,9.5,0.8,14.1,2.7c9.9,4.1,18.4,12.2,22.8,21.9c1.5,3.4,2.8,7,3.4,10.6
				c0.8,4.7,0.7,9.2,0.3,13.9c0,0.4-0.1,1,0.3,1.3c0.6,0.4,1.3-1.2,1.4-1.5c0.6-1.4,1.2-2.8,1.7-4.2c0.4-1.1,1-2.4,0.9-3.7
				c-0.1-3.5-0.6-6.9-1.4-10.2c-0.8-3.3-1.9-6.4-3.3-9.4c-2.8-5.9-6.8-11.3-11.6-15.7s-10.5-7.7-16.6-10.1c-3-1.2-6.2-2.2-9.4-2.8
				c-3.1-0.8-6.4-1.3-9.6-1.3c-1.9-0.2,1,2.9,1,2.9c1.2,1.3,2.4,2.6,3.7,3.9C-441.8,750.4-441.1,751-440.2,751.4z"/>
			<path id="XMLID_56_" class="st2" d="M-437.4,754.7c3.3,0,6.5,0.5,9.7,1.3c5.7,1.6,10.8,4.3,15.3,8.1c3.3,2.9,6.2,6.2,8.5,10
				c2.3,3.8,4.1,8,5.2,12.3c1.6,6.2,1.4,12.2,0.7,18.5c-0.1,0.8,0.6,1.1,1.2,0.7c0.8-0.5,2-2.6,2-3.5c0.2-4.4,0.4-8.7-0.3-13.1
				c-0.6-3.4-1.4-6.6-2.6-9.8c-3.1-7.8-7.9-14.3-14.4-19.5c-3.2-2.6-6.6-4.6-10.3-6.3c-6.1-2.9-12.7-4.1-19.4-4.6
				c-1.5-0.1,0.3,2.1,0.4,2.2c0.8,0.9,1.6,1.7,2.5,2.5C-438.6,754.2-438,754.6-437.4,754.7z"/>
			<path id="XMLID_55_" class="st2" d="M-437.5,752c4.9,0.4,9.4,0.9,14.1,2.7c4.9,1.7,8.8,4.8,11.9,9.2c4.5,2.8,7.8,6.5,9.9,11.2
				c1.9,4.1,3.4,8.4,4,12.9c0.6,4.8,0.4,9.3-0.1,14.1c-0.1,0.9,0.6,1.1,1.3,0.7c0.5-0.6,0.9-1.3,1.3-2s0.7-1.4,0.9-2.2
				c0.2-4.4,0.2-8.6-0.5-13c-0.7-4.1-1.8-8.3-3.7-12.1c-1.6-3.3-3.3-6.2-5.5-9.1c-3.5-4.6-7.9-8.6-12.8-11.6
				c-3.5-2.2-7.2-4-11.2-5.3c-4.7-1.6-9.4-2.3-14.3-2.7c-1.6-0.1,0.2,2.3,0.4,2.5c0.8,1.1,1.7,2.2,2.6,3.2
				C-438.7,751.2-438.2,751.7-437.5,752z"/>
			<path id="XMLID_54_" class="st2" d="M-441.3,751c8.1,0,13.3,0.6,20.7,6.2c2.9,2.2,5.5,4.7,7.8,7.6c2.4,2.7,3.9,5.8,4.8,9.4
				c2.4,3.7,3.8,7.7,4.2,12.1c0.5,4.5,0.2,8.8-0.4,13.3c-0.2,1.6,1.6,1.9,1.8,0.3c0.6-4.6,1-9.1,0.4-13.7c-0.4-3-1-6-2-8.9
				c-1.2-3.7-3-7.2-5.1-10.5c-3.7-5.7-8.6-10.6-14.6-13.8c-1.4-0.8-2.8-1.5-4.3-2s-2.9-1-4.4-1.5c-2.9-0.5-5.8-0.6-8.7-0.3
				C-442.2,749.1-442.5,751-441.3,751z"/>
			<path id="XMLID_53_" class="st2" d="M-443.3,751.9c6.1,0.5,12.2,1.5,17.6,4.5c13,7.1,20.2,18.4,22.4,35.7c-0.1-1-0.1-2.1-0.2-3.1
				c0.1,2.6,0.2,5.1,0.2,7.7c0-1.1,0.1-2.1,0.1-3.2c-0.2,2.6-0.4,5.2-0.6,7.8c-0.1,1.3,1,1.1,1.4,0.3c0.3-1,0.6-2.1,0.8-3.2
				c0.2-1.1,0.4-2.1,0.4-3.2c-0.2-6.2-1-12.2-3.3-18c-2.4-6.2-6.2-11.8-11-16.5c-4.3-4.2-9.4-7.5-15.1-9.7c-5.5-2.2-11-3-16.8-3.5
				c-0.3,0.1-0.5,0.3-0.5,0.6c0.1,0.5,0.4,1,0.9,1.3C-446.1,750.4-444.7,751.8-443.3,751.9z"/>
			<path id="XMLID_52_" class="st2" d="M-440.7,755.6c3,0.4,6,0.8,9,1.2c1.5,0.5,2.9,0.9,4.4,1.4c3.5,1.3,6.7,3.2,9.7,5.5
				c4.8,3.3,7.8,8.1,9,14.5c4.7,4.5,7.2,9.6,7.5,15.4c0.4,3.9,0.2,7.6-0.2,11.5c-0.1,1.1,0.7,1.3,1.3,0.5c0.5-0.9,0.9-1.8,1.2-2.7
				c0.4-0.9,0.7-1.9,0.9-2.9c-0.1-3.4-0.2-6.7-0.8-10.1c-0.6-3.1-1.5-6.3-2.7-9.3c-2.6-6.4-6.7-12.2-11.8-16.9
				c-4.5-4.2-9.8-7.3-15.5-9.5c-5.5-2-11-2.8-16.9-3.2c-1.5-0.1,0.7,2.1,0.6,2C-443.8,754-442.2,755.5-440.7,755.6z"/>
			<path id="XMLID_51_" class="st2" d="M-437.7,749.1c6.3,0.5,12,1.3,17.7,4.6c3.3,1.9,6.3,4.1,9,6.8c2.6,2.6,5,5.5,6.9,8.8
				c5.3,9.4,6.7,18.6,5.2,30.4c-0.1,0.6,0.2,1.4,1.1,1.1c0.8-0.3,1.1-1.7,1.1-2.4c0.4-3.3,0.5-4.3,0.5-7.1c0-2.4-0.2-4.6-0.4-7
				c-0.7-6.3-3.2-13.2-6.7-18.5c-4-6.2-9.1-11.3-15.4-15c-2.3-1.4-4.5-2.5-7-3.4c-1.6-0.5-3.1-1-4.7-1.5c-3.1-0.9-6.3-1.4-9.5-1.5
				c-1.2-0.1-0.5,1.4-0.3,1.8C-439.8,746.9-438.7,749.1-437.7,749.1z"/>
			<path id="XMLID_50_" class="st2" d="M-442.5,754.4c5.4,0.3,10.6,1.3,15.4,3.5c16.3,7.4,25.9,23.1,24,45.9
				c-0.1,1.3,0.9,1.2,1.4,0.3c0.4-1.1,0.8-2.2,1-3.3c0.3-1.1,0.5-2.2,0.6-3.4c-0.2-3.2-0.4-6.4-1-9.6c-0.6-3-1.6-6-2.8-8.8
				c-2.6-6.2-6.5-11.7-11.4-16.3c-4.4-4.1-9.5-7.2-15.2-9.4c-5.5-2.1-10.9-2.8-16.7-3.2c-0.4,0.1-0.5,0.3-0.5,0.7
				c0.2,0.6,0.5,1,1.1,1.3C-445.6,753-444,754.4-442.5,754.4z"/>
			<path id="XMLID_49_" class="st2" d="M-438.5,749c3.2,0,6.4,0.4,9.5,1.1c1.5,0.5,3,1,4.4,1.5c2.8,1.1,5.4,2.6,7.9,4.4
				c3,2,5.5,4.6,7.4,7.8c2.6,2.6,4.5,5.5,5.9,8.9c0.9,2,1.6,4.1,2.1,6.2c1.8,6.9,1.7,13.2,0.6,20.3c-0.1,0.5,0.6,0.9,1.1,0.8
				c0.6-0.1,0.8-0.6,0.8-1.2c0.8-5.5,1.1-10.9,0.1-16.5c-1.1-6.7-3.7-13.4-7.9-18.9c-2.8-3.7-6-7.1-9.8-9.8
				c-2.6-1.8-5.3-3.3-8.2-4.6c-4.6-2-9.1-2.4-14-2.7c-0.5,0-1.1,0.2-1.2,0.8C-439.7,747.7-438.9,749-438.5,749z"/>
			<path id="XMLID_48_" class="st2" d="M-442.5,752.3c6.4,0.1,11.2,0.6,17.1,4c1.2,0.8,2.5,1.6,3.7,2.4c3.5,2.4,6.3,5.5,8.2,9.5
				c2.6,2.5,4.5,5.4,5.6,8.6c0.9,1.9,1.5,3.9,2,6c1.3,5.8,1.3,11.3,0.7,17.3c-0.1,0.7-0.2,1.7,0.7,1.8s1-0.9,1.1-1.6
				c0.4-3.5,0.7-5.6,0.5-9.2c-0.2-3-0.6-5.9-1.2-8.8c-1.3-5.7-3.9-11.3-7.4-16c-3.2-4.3-7-7.9-11.5-10.8c-2-1.3-4.1-2.4-6.4-3.3
				c-1.4-0.5-2.9-1-4.3-1.5c-3-0.6-5.9-0.8-8.9-0.6C-443.9,750.3-443.7,752.3-442.5,752.3z"/>
		</g>
	</g>
</g>
<g id="XMLID_2_" class="st1">
	<g id="XMLID_31_">
		<g id="XMLID_32_">
			<path id="XMLID_44_" class="st2" d="M-405.8,800.9c0,2.3-0.2,4.6-0.9,6.8c-1.2,6-4.2,11.2-9,15.7c-3,3-6.8,5.6-10.6,7.4
				c-4.1,1.9-8.4,3.4-12.9,4.1c-4.8,0.7-9.5,0.7-14.4,0.2c-0.4,0-1.1-0.1-1.3,0.3c-0.4,0.6,1.3,1.3,1.6,1.4c1.4,0.7,2.8,1.2,4.2,1.7
				c1.2,0.4,2.4,1,3.7,0.9c1.8-0.1,3.5-0.2,5.3-0.3c3.5-0.5,6.9-1.3,10.2-2.5c6.3-2.2,12.1-5.7,17-10.1c4.7-4.3,8.3-9.5,11-15.3
				c1.3-2.8,2.3-5.7,3-8.7c0.8-2.9,1.3-5.9,1.3-9c0.2-1.9-3,1.2-2.9,1.1c-1.3,1.2-2.5,2.5-3.8,3.8
				C-404.9,799.3-405.5,800-405.8,800.9z"/>
			<path id="XMLID_43_" class="st2" d="M-405.2,797.9c-0.1,1.5-0.2,3-0.4,4.5c-0.5,3.4-1.6,6.6-3.4,9.5
				c-8.1,14.7-23.8,21.1-44.1,19.7c-1.4-0.1-1.3,0.9-0.3,1.4c1.2,0.4,2.4,0.7,3.7,1c1.2,0.3,2.5,0.5,3.8,0.6
				c6.5-0.4,12.6-1.3,18.7-3.8c5.5-2.3,10.7-5.6,15-9.8c4.2-4.1,7.5-9.1,9.6-14.6c1.7-4.4,2.4-9,2.8-13.7c0.1-1.5-2.2,0.7-2.2,0.7
				C-403,794.5-405.1,796.3-405.2,797.9z"/>
			<path id="XMLID_42_" class="st2" d="M-403.7,800.1c0,3-0.5,6-1.4,8.9c-0.5,1.3-1,2.7-1.6,4c-3.1,7-9.1,12.4-15.7,16.1
				c-4,2.2-8.2,3.7-12.6,4.7c-5.6,1.2-10.9,1.2-16.6,0.7c-1.3-0.1-1.5,0.7-0.4,1.4c1.2,0.5,2.4,1,3.6,1.4c1.2,0.4,2.5,0.8,3.8,1
				c5.4-0.2,10.7-0.7,15.9-2.5c4.5-1.5,8.8-3.6,12.8-6.3c4-2.7,7.8-6.1,10.7-10c2.7-3.7,5.2-7.8,6.7-12.2c0.5-1.5,0.9-3,1.4-4.4
				c0.8-2.9,1.3-5.9,1.4-8.9c0.2-1.8-2.7,0.8-2.7,0.8c-1.2,1.1-2.4,2.2-3.5,3.3C-402.8,798.6-403.3,799.3-403.7,800.1z"/>
			<path id="XMLID_41_" class="st2" d="M-403,804c0,2.2-0.2,4.4-0.8,6.5c-0.4,2.1-1.1,4.1-2.1,6c-1.9,3.8-4.7,7.5-7.9,10.2
				c-6.8,5.7-15.4,9.3-24.2,10.1c-4.8,0.4-9.5,0-14.3-0.5c-0.5-0.1-1,0.3-1,0.9s0.7,1,1.2,1.1c4.2,0.5,8.3,0.8,12.5,0.6
				c2.5-0.2,5-0.5,7.4-0.9c4.1-0.8,7.9-2.2,11.6-4.1c6.3-3.1,12.1-7.8,16-13.7c1.7-2.5,3-5.5,4-8.3c1.1-3.3,1.2-5.7,1.6-9.1
				C-399,800.8-402.9,802.9-403,804z"/>
			<path id="XMLID_40_" class="st2" d="M-402.4,801.3c0,4.3-0.9,8.4-2.8,12.3c-1.2,2.6-2.8,5-4.7,7.1c-10,11.6-25.7,14.9-41.2,13.3
				c-0.8-0.1-0.8,1-0.4,1.4c0.7,0.7,2.5,1,3.5,1.1c4.7,0.3,9.2,0.2,13.9-0.4c4.8-0.7,10-2.3,14.2-4.6c6.2-3.2,11.5-7.6,15.6-13.4
				c2.2-3.1,3.8-6.5,5-10.2c1-3.1,1.3-5.9,1.6-9.2c0.1-1.2-1.5-0.4-1.8-0.2C-400.5,799.1-402.3,800.2-402.4,801.3z"/>
			<path id="XMLID_39_" class="st2" d="M-408.9,798.1c0.2,3.6-0.7,6.9-2.5,10.1c-5,17.1-19.8,24.7-44.4,22.6c-0.7-0.1-2.5,0-1.5,1.1
				c0.4,0.5,1.3,0.6,1.9,0.7c1,0.2,2.1,0.5,3.1,0.5c5.9,0.1,11.3-0.4,17.1-2c4.4-1.2,8.7-3.3,12.5-5.8c3.6-2.4,6.6-5.2,9.3-8.5
				c1.7-2,3.2-4.7,4.3-7.2c1.9-4.3,2.5-8.5,2.9-13.1c0-0.6-0.7-1-1.2-0.8C-408,796.1-408.9,797.5-408.9,798.1z"/>
			<path id="XMLID_38_" class="st2" d="M-407.9,800.4c0,4.2-0.9,8.3-2.7,12.2c-1.2,2.6-2.7,4.9-4.5,7.1c-2.8,3.3-6,6-9.7,8.3
				c-3.7,2.3-8,4-12.2,5.1c-6.3,1.6-12.4,1.6-18.8,1c-0.4,0-1-0.1-1.2,0.3c-0.3,0.6,1.1,1.2,1.4,1.4c1.2,0.6,2.5,1.1,3.8,1.5
				c1.1,0.4,2.2,0.8,3.4,0.8c5.3-0.2,10.3-0.9,15.3-2.7c5.3-1.9,10.1-4.5,14.5-8c4.9-3.8,8.7-8.5,11.6-13.9c1-2,2-4,2.8-6.1
				c1.6-4.4,2.3-8.9,2.7-13.6c0.2-1.8-2.6,1.2-2.4,1c-1,1.1-1.9,2.3-2.7,3.4C-407.4,799-407.8,799.6-407.9,800.4z"/>
			<path id="XMLID_37_" class="st2" d="M-405.7,804.2c0,3-0.5,6-1.4,8.9c-2,3.5-4,7.1-6,10.6c-3.1,4-7.5,7-11.9,9.3
				c-4.1,2.1-8.4,3.5-12.9,4.3c-5.7,1-11.1,0.8-16.8,0c-0.7-0.1-1,0.8-0.7,1.3c0.4,0.7,2.2,1.5,3.1,1.6c3.5,0.3,6.9,0.6,10.5,0.4
				c4.3-0.2,8.5-1.2,12.7-2.6c3.2-1.1,6.2-2.5,9.1-4.2c3.4-2,7-4.6,9.6-7.6c2.1-2.5,3.9-5,5.6-7.7c1.4-2.2,2.3-4.5,3.1-7
				c0.6-1.4,1-2.9,1.3-4.4c0.6-2.2,1-4.4,1-6.7c0.1-1.5-2-0.1-2.2,0.1c-1,0.7-1.9,1.4-2.8,2.1C-405.1,803.1-405.5,803.6-405.7,804.2
				z"/>
			<path id="XMLID_36_" class="st2" d="M-404,798.5c-0.3,4.4-0.8,8.6-2.9,12.6c-2.4,3.2-4.8,6.3-7.3,9.5c-9.8,8.6-22.2,12-37.1,10.1
				c-0.7-0.1-1.6,0.1-1.3,1.1c0.3,0.9,2.4,0.9,3.1,1c4.7,0.3,9.3,0.4,14-0.4c4.3-0.7,8.5-2,12.5-3.8c5.4-2.5,10.7-6.3,14.4-11
				c1.8-2.3,3.4-4.6,4.6-7.3c0.5-1.4,1-2.7,1.6-4.1c0.8-2.8,1.2-5.6,1.2-8.4C-401.1,795.7-403.9,797.3-404,798.5z"/>
			<path id="XMLID_35_" class="st2" d="M-407.4,802.9c0,3.1-0.5,6-1.4,8.9c-1.9,3.5-3.9,7-5.8,10.4c-3,4-7.3,7-11.7,9.3
				c-4,2.2-8.2,3.6-12.7,4.5c-2.3,0.5-4.6,0.8-7,0.9c-3.3,0.2-6.5,0-9.8-0.5c-1-0.1-1.3,0.5-0.6,1.3c0.8,0.6,1.6,1,2.5,1.5
				s1.7,0.8,2.7,1.1c3.7,0.1,7,0.3,10.7-0.3c2-0.3,4-0.7,5.9-1.2c4.9-1.4,9.6-3.4,13.9-6.2c4.1-2.7,7.7-6,10.8-9.8
				c2.5-3,4.3-6.6,5.9-10.1c1-2.1,1.8-4.3,2.3-6.5c0.9-2.9,1.3-5.9,1.4-8.9c0.2-1.7-2.5,0.7-2.5,0.7c-1.1,1-2.1,2-3.1,3.1
				C-406.7,801.5-407.1,802.1-407.4,802.9z"/>
			<path id="XMLID_34_" class="st2" d="M-405.7,797.5c0,4.3-1,8.5-2.9,12.4c-1.7,3.8-4.4,6.7-8.1,8.9c-2.6,3.2-5.8,5.6-9.6,7.1
				c-8.1,3.5-16.7,4.7-25.8,3.5c-0.6-0.1-2-0.4-2.2,0.6c-0.1,1,1.3,1.1,1.9,1.2c4.7,0.4,9.3,0.5,14,0c6.5-0.8,12.9-3.2,18.4-6.7
				c3.1-2,6-4.3,8.5-7.1c2.8-3.2,5.2-7,6.5-11.1c1.1-3.2,1.2-5.9,1.5-9.3c0-0.5-0.7-1-1.1-0.9C-405.1,796.2-405.7,797.1-405.7,797.5
				z"/>
			<path id="XMLID_33_" class="st2" d="M-409.6,799.2c0.1,2.3-0.2,4.5-0.9,6.7c-3.7,18.2-19.5,27-47.3,26.4c-1-0.1-1,0.9-0.4,1.4
				c0.8,0.4,1.6,0.7,2.4,0.9c0.8,0.3,1.7,0.5,2.5,0.6c5.1,0,9.8-0.2,14.7-1.5c2.8-0.7,5.2-1.6,7.8-2.7c3.6-1.6,6.8-3.6,9.9-6
				c2.9-2.3,5.6-5,7.7-8c1.6-2.3,3.1-4.9,4.1-7.4c0.4-1.4,0.9-2.7,1.3-4.1c0.8-2.8,1.2-5.8,1.3-8.7c0.1-0.8-0.5-1.1-1.2-0.8
				C-408.2,796.2-409.5,798.3-409.6,799.2z"/>
		</g>
	</g>
</g>
<circle id="XMLID_3_" class="st3" cx="-464" cy="780.5" r="8.7"/>
<circle id="XMLID_6_" cx="-464.8" cy="780.7" r="2.7"/>
<path id="XMLID_8_" class="st4" d="M-448,789.9c1,3.4-1.9,7.8,0.6,10.3c1.6,1.6,4.8,0.9,5.5-1.2"/>
<circle id="XMLID_7_" class="st3" cx="-424.2" cy="780.5" r="8.7"/>
<circle id="XMLID_5_" cx="-425" cy="780.7" r="2.7"/>
<path class="st5" d="M-460.7,815.5c0.8-1.2,1.6-2.3,3.1-2.3c3.1,0,3.1,4.6,6.2,4.6c3.1,0,3.1-4.6,6.2-4.6c3.1,0,3.1,4.6,6.2,4.6
	c3.1,0,3.1-4.6,6.2-4.6c1.6,0,2.3,1.1,3.1,2.3"/>
<path class="st6" d="M-471.7,765.4c2.8-1.7,6.2-2.6,9.5-2.3"/>
<path class="st6" d="M-420.3,765.2c-2.8-1.7-6.2-2.6-9.5-2.3"/>
</svg>
