<?xml version="1.0" encoding="utf-8"?>
<!-- Generator: Adobe Illustrator 19.0.0, SVG Export Plug-In . SVG Version: 6.00 Build 0)  -->
<svg version="1.1" id="feelings-illustration" xmlns="http://www.w3.org/2000/svg" xmlns:xlink="http://www.w3.org/1999/xlink"
	 x="0px" y="0px" viewBox="180.6 74.2 576.9 651.6" style="enable-background:new 180.6 74.2 576.9 651.6;" xml:space="preserve">
<style type="text/css">
	.st0{fill:#FFCA07;}
	.st1{opacity:0.7;}
	.st2{opacity:0.1091;fill:#FFFFFF;enable-background:new    ;}
	.st3{fill:#FFFFFF;}
	.st4{fill:none;stroke:#000000;stroke-width:5;stroke-linecap:round;stroke-miterlimit:10;}
	.st5{fill:none;stroke:#E87325;stroke-width:5;stroke-linecap:round;stroke-miterlimit:10;}
	.st6{fill:none;stroke:#FFCA07;stroke-width:2;stroke-miterlimit:10;}
</style>
<g class="happy-emoji">
	<g id="XMLID_211_">
		<circle id="XMLID_208_" class="st0" cx="663.3" cy="278" r="86"/>
		<g id="XMLID_193_" class="st1">
			<g id="XMLID_194_">
				<g id="XMLID_195_">
					<path id="XMLID_207_" class="st2" d="M666.9,208.8c5.7,0,11.2,0.9,16.7,2.2c9.8,2.6,18.8,7.2,26.4,13.6
						c5.9,5,10.9,10.5,15.2,16.9c4.1,6.4,7.4,13.6,9.3,20.9c2.9,10.5,3.1,20.7,2.2,31.4c0,0.7-0.2,1.9,0.7,2.2
						c1.2,0.5,2.1-2.4,2.2-2.9c0.9-2.6,1.7-5.2,2.4-7.8c0.5-2.2,1.4-4.5,1-6.7c-1-9.8-2.8-18.8-6.6-28c-3.6-8.5-8.5-16.4-14.5-23.3
						c-5.4-6-11.6-11.2-18.3-15.7c-14.3-9.7-31.6-13.6-48.3-14.8c-3.1-0.2,1.9,4.7,1.7,4.5c1.9,1.9,4,3.6,6,5.4
						C664.2,207.6,665.4,208.2,666.9,208.8z"/>
					<path id="XMLID_206_" class="st2" d="M669,203.4c5.5,0,11,0.7,16.6,2.1c6.9,3.1,13.6,6.2,20.5,9.3c7.6,4.7,13.8,11.6,19,18.8
						c4.5,6.4,7.8,13.1,10.2,20.5c1.2,3.6,2.2,7.4,2.8,11.2c1.2,7.9,1.2,15.9,0,24c-0.2,1.9,1.6,1.9,2.4,0.7
						c0.7-1.4,1.2-2.9,1.7-4.5c0.5-1.6,0.9-3.1,1-4.7c0-7.1-0.2-13.8-1.6-20.7c-1-5.4-2.6-10.5-4.7-15.5
						c-5.2-12.6-13.5-23.6-24-32.3c-5.5-4.5-11.4-7.9-17.6-11c-10.4-5.4-21.9-7.2-33.3-8.1c-2.6-0.2,0.2,3.5,0.3,3.8
						c1.2,1.6,2.6,3.1,4,4.7C667.1,202.5,668,203.1,669,203.4z"/>
					<path id="XMLID_205_" class="st2" d="M670.2,207.6c8.5,0.5,16.4,1.4,24.3,4.7c17.1,7.1,31.8,21.1,39.4,37.8
						c2.6,5.9,4.8,12.1,5.9,18.3c1.4,8.1,1.2,15.9,0.5,24c0,0.7-0.2,1.7,0.5,2.2c1,0.7,2.2-2.1,2.4-2.6c1-2.4,2.1-4.8,2.9-7.2
						c0.7-1.9,1.7-4.1,1.6-6.4c-0.2-6-1-11.9-2.4-17.6c-1.4-5.7-3.3-11-5.7-16.2c-4.8-10.2-11.7-19.5-20-27.1s-18.1-13.3-28.7-17.4
						c-5.2-2.1-10.7-3.8-16.2-4.8c-5.4-1.4-11-2.2-16.6-2.2c-3.3-0.3,1.7,5,1.7,5c2.1,2.2,4.1,4.5,6.4,6.7
						C667.5,205.8,668.7,206.9,670.2,207.6z"/>
					<path id="XMLID_204_" class="st2" d="M675.1,213.3c5.7,0,11.2,0.9,16.7,2.2c9.8,2.8,18.6,7.4,26.4,14
						c5.7,5,10.7,10.7,14.7,17.3c4,6.6,7.1,13.8,9,21.2c2.8,10.7,2.4,21.1,1.2,31.9c-0.2,1.4,1,1.9,2.1,1.2c1.4-0.9,3.5-4.5,3.5-6
						c0.3-7.6,0.7-15-0.5-22.6c-1-5.9-2.4-11.4-4.5-16.9c-5.4-13.5-13.6-24.7-24.9-33.7c-5.5-4.5-11.4-7.9-17.8-10.9
						c-10.5-5-21.9-7.1-33.5-7.9c-2.6-0.2,0.5,3.6,0.7,3.8c1.4,1.6,2.8,2.9,4.3,4.3C673,212.4,674,213.1,675.1,213.3z"/>
					<path id="XMLID_203_" class="st2" d="M674.9,208.6c8.5,0.7,16.2,1.6,24.3,4.7c8.5,2.9,15.2,8.3,20.5,15.9
						c7.8,4.8,13.5,11.2,17.1,19.3c3.3,7.1,5.9,14.5,6.9,22.3c1,8.3,0.7,16.1-0.2,24.3c-0.2,1.6,1,1.9,2.2,1.2
						c0.9-1,1.6-2.2,2.2-3.5c0.7-1.2,1.2-2.4,1.6-3.8c0.3-7.6,0.3-14.8-0.9-22.4c-1.2-7.1-3.1-14.3-6.4-20.9
						c-2.8-5.7-5.7-10.7-9.5-15.7c-6-7.9-13.6-14.8-22.1-20c-6-3.8-12.4-6.9-19.3-9.1c-8.1-2.8-16.2-4-24.7-4.7
						c-2.8-0.2,0.3,4,0.7,4.3c1.4,1.9,2.9,3.8,4.5,5.5C672.8,207.2,673.7,208.1,674.9,208.6z"/>
					<path id="XMLID_202_" class="st2" d="M668.3,206.9c14,0,23,1,35.7,10.7c5,3.8,9.5,8.1,13.5,13.1c4.1,4.7,6.7,10,8.3,16.2
						c4.1,6.4,6.6,13.3,7.2,20.9c0.9,7.8,0.3,15.2-0.7,23c-0.3,2.8,2.8,3.3,3.1,0.5c1-7.9,1.7-15.7,0.7-23.6
						c-0.7-5.2-1.7-10.4-3.5-15.4c-2.1-6.4-5.2-12.4-8.8-18.1c-6.4-9.8-14.8-18.3-25.2-23.8c-2.4-1.4-4.8-2.6-7.4-3.5
						s-5-1.7-7.6-2.6c-5-0.9-10-1-15-0.5C666.8,203.6,666.3,206.9,668.3,206.9z"/>
					<path id="XMLID_201_" class="st2" d="M664.9,208.4c10.5,0.9,21.1,2.6,30.4,7.8c22.4,12.3,34.9,31.8,38.7,61.6
						c-0.2-1.7-0.2-3.6-0.3-5.4c0.2,4.5,0.3,8.8,0.3,13.3c0-1.9,0.2-3.6,0.2-5.5c-0.3,4.5-0.7,9-1,13.5c-0.2,2.2,1.7,1.9,2.4,0.5
						c0.5-1.7,1-3.6,1.4-5.5c0.3-1.9,0.7-3.6,0.7-5.5c-0.3-10.7-1.7-21.1-5.7-31.1c-4.1-10.7-10.7-20.4-19-28.5
						c-7.4-7.2-16.2-12.9-26.1-16.7c-9.5-3.8-19-5.2-29-6c-0.5,0.2-0.9,0.5-0.9,1c0.2,0.9,0.7,1.7,1.6,2.2
						C660,205.8,662.5,208.2,664.9,208.4z"/>
					<path id="XMLID_200_" class="st2" d="M669.4,214.8c5.2,0.7,10.4,1.4,15.5,2.1c2.6,0.9,5,1.6,7.6,2.4c6,2.2,11.6,5.5,16.7,9.5
						c8.3,5.7,13.5,14,15.5,25c8.1,7.8,12.4,16.6,12.9,26.6c0.7,6.7,0.3,13.1-0.3,19.8c-0.2,1.9,1.2,2.2,2.2,0.9
						c0.9-1.6,1.6-3.1,2.1-4.7c0.7-1.6,1.2-3.3,1.6-5c-0.2-5.9-0.3-11.6-1.4-17.4c-1-5.4-2.6-10.9-4.7-16.1
						c-4.5-11-11.6-21.1-20.4-29.2c-7.8-7.2-16.9-12.6-26.8-16.4c-9.5-3.5-19-4.8-29.2-5.5c-2.6-0.2,1.2,3.6,1,3.5
						C664,212,666.8,214.6,669.4,214.8z"/>
					<path id="XMLID_199_" class="st2" d="M674.5,203.6c10.9,0.9,20.7,2.2,30.5,7.9c5.7,3.3,10.9,7.1,15.5,11.7
						c4.5,4.5,8.6,9.5,11.9,15.2c9.1,16.2,11.6,32.1,9,52.5c-0.2,1,0.3,2.4,1.9,1.9c1.4-0.5,1.9-2.9,1.9-4.1
						c0.7-5.7,0.9-7.4,0.9-12.3c0-4.1-0.3-7.9-0.7-12.1c-1.2-10.9-5.5-22.8-11.6-31.9c-6.9-10.7-15.7-19.5-26.6-25.9
						c-4-2.4-7.8-4.3-12.1-5.9c-2.8-0.9-5.4-1.7-8.1-2.6c-5.4-1.6-10.9-2.4-16.4-2.6c-2.1-0.2-0.9,2.4-0.5,3.1
						C670.9,199.8,672.8,203.6,674.5,203.6z"/>
					<path id="XMLID_198_" class="st2" d="M666.3,212.7c9.3,0.5,18.3,2.2,26.6,6c28.1,12.8,44.7,39.9,41.4,79.2
						c-0.2,2.2,1.6,2.1,2.4,0.5c0.7-1.9,1.4-3.8,1.7-5.7c0.5-1.9,0.9-3.8,1-5.9c-0.3-5.5-0.7-11-1.7-16.6c-1-5.2-2.8-10.4-4.8-15.2
						c-4.5-10.7-11.2-20.2-19.7-28.1c-7.6-7.1-16.4-12.4-26.2-16.2c-9.5-3.6-18.8-4.8-28.8-5.5c-0.7,0.2-0.9,0.5-0.9,1.2
						c0.3,1,0.9,1.7,1.9,2.2C660.9,210.3,663.7,212.7,666.3,212.7z"/>
					<path id="XMLID_197_" class="st2" d="M673.2,203.4c5.5,0,11,0.7,16.4,1.9c2.6,0.9,5.2,1.7,7.6,2.6c4.8,1.9,9.3,4.5,13.6,7.6
						c5.2,3.5,9.5,7.9,12.8,13.5c4.5,4.5,7.8,9.5,10.2,15.4c1.6,3.5,2.8,7.1,3.6,10.7c3.1,11.9,2.9,22.8,1,35
						c-0.2,0.9,1,1.6,1.9,1.4c1-0.2,1.4-1,1.4-2.1c1.4-9.5,1.9-18.8,0.2-28.5c-1.9-11.6-6.4-23.1-13.6-32.6
						c-4.8-6.4-10.4-12.3-16.9-16.9c-4.5-3.1-9.1-5.7-14.2-7.9c-7.9-3.5-15.7-4.1-24.2-4.7c-0.9,0-1.9,0.3-2.1,1.4
						C671.1,201.2,672.5,203.4,673.2,203.4z"/>
					<path id="XMLID_196_" class="st2" d="M666.3,209.1c11,0.2,19.3,1,29.5,6.9c2.1,1.4,4.3,2.8,6.4,4.1c6,4.1,10.9,9.5,14.2,16.4
						c4.5,4.3,7.8,9.3,9.7,14.8c1.6,3.3,2.6,6.7,3.5,10.4c2.2,10,2.2,19.5,1.2,29.9c-0.2,1.2-0.3,2.9,1.2,3.1
						c1.6,0.2,1.7-1.6,1.9-2.8c0.7-6,1.2-9.7,0.9-15.9c-0.3-5.2-1-10.2-2.1-15.2c-2.2-9.8-6.7-19.5-12.8-27.6
						c-5.5-7.4-12.1-13.6-19.8-18.6c-3.5-2.2-7.1-4.1-11-5.7c-2.4-0.9-5-1.7-7.4-2.6c-5.2-1-10.2-1.4-15.4-1
						C663.8,205.7,664.2,209.1,666.3,209.1z"/>
				</g>
			</g>
		</g>
		<g id="XMLID_178_" class="st1">
			<g id="XMLID_179_">
				<g id="XMLID_180_">
					<path id="XMLID_192_" class="st2" d="M729.6,293c0,4-0.3,7.9-1.6,11.7c-2.1,10.4-7.2,19.3-15.5,27.1
						c-5.2,5.2-11.7,9.7-18.3,12.8c-7.1,3.3-14.5,5.9-22.3,7.1c-8.3,1.2-16.4,1.2-24.9,0.3c-0.7,0-1.9-0.2-2.2,0.5
						c-0.7,1,2.2,2.2,2.8,2.4c2.4,1.2,4.8,2.1,7.2,2.9c2.1,0.7,4.1,1.7,6.4,1.6c3.1-0.2,6-0.3,9.1-0.5c6-0.9,11.9-2.2,17.6-4.3
						c10.9-3.8,20.9-9.8,29.3-17.4c8.1-7.4,14.3-16.4,19-26.4c2.2-4.8,4-9.8,5.2-15c1.4-5,2.2-10.2,2.2-15.5c0.3-3.3-5.2,2.1-5,1.9
						c-2.2,2.1-4.3,4.3-6.6,6.6C731.2,290.2,730.1,291.4,729.6,293z"/>
					<path id="XMLID_191_" class="st2" d="M730.6,287.8c-0.2,2.6-0.3,5.2-0.7,7.8c-0.9,5.9-2.8,11.4-5.9,16.4
						c-14,25.4-41.1,36.4-76.1,34c-2.4-0.2-2.2,1.6-0.5,2.4c2.1,0.7,4.1,1.2,6.4,1.7c2.1,0.5,4.3,0.9,6.6,1
						c11.2-0.7,21.7-2.2,32.3-6.6c9.5-4,18.5-9.7,25.9-16.9c7.2-7.1,12.9-15.7,16.6-25.2c2.9-7.6,4.1-15.5,4.8-23.6
						c0.2-2.6-3.8,1.2-3.8,1.2C734.4,281.9,730.8,285,730.6,287.8z"/>
					<path id="XMLID_190_" class="st2" d="M733.2,291.6c0,5.2-0.9,10.4-2.4,15.4c-0.9,2.2-1.7,4.7-2.8,6.9
						c-5.4,12.1-15.7,21.4-27.1,27.8c-6.9,3.8-14.2,6.4-21.7,8.1c-9.7,2.1-18.8,2.1-28.7,1.2c-2.2-0.2-2.6,1.2-0.7,2.4
						c2.1,0.9,4.1,1.7,6.2,2.4c2.1,0.7,4.3,1.4,6.6,1.7c9.3-0.3,18.5-1.2,27.4-4.3c7.8-2.6,15.2-6.2,22.1-10.9
						c6.9-4.7,13.5-10.5,18.5-17.3c4.7-6.4,9-13.5,11.6-21.1c0.9-2.6,1.6-5.2,2.4-7.6c1.4-5,2.2-10.2,2.4-15.4
						c0.3-3.1-4.7,1.4-4.7,1.4c-2.1,1.9-4.1,3.8-6,5.7C734.8,289,733.9,290.2,733.2,291.6z"/>
					<path id="XMLID_189_" class="st2" d="M734.4,298.3c0,3.8-0.3,7.6-1.4,11.2c-0.7,3.6-1.9,7.1-3.6,10.4
						c-3.3,6.6-8.1,12.9-13.6,17.6c-11.7,9.8-26.6,16.1-41.8,17.4c-8.3,0.7-16.4,0-24.7-0.9c-0.9-0.2-1.7,0.5-1.7,1.6
						c0,1.1,1.2,1.7,2.1,1.9c7.2,0.9,14.3,1.4,21.6,1c4.3-0.3,8.6-0.9,12.8-1.6c7.1-1.4,13.6-3.8,20-7.1
						c10.9-5.4,20.9-13.5,27.6-23.6c2.9-4.3,5.2-9.5,6.9-14.3c1.9-5.7,2.1-9.8,2.8-15.7C741.3,292.8,734.6,296.4,734.4,298.3z"/>
					<path id="XMLID_188_" class="st2" d="M735.5,293.7c0,7.4-1.6,14.5-4.8,21.2c-2.1,4.5-4.8,8.6-8.1,12.3
						c-17.3,20-44.4,25.7-71.1,23c-1.4-0.2-1.4,1.7-0.7,2.4c1.2,1.2,4.3,1.7,6,1.9c8.1,0.5,15.9,0.3,24-0.7c8.3-1.2,17.3-4,24.5-7.9
						c10.7-5.5,19.8-13.1,26.9-23.1c3.8-5.4,6.6-11.2,8.6-17.6c1.7-5.4,2.2-10.2,2.8-15.9c0.2-2.1-2.6-0.7-3.1-0.3
						C738.7,289.9,735.6,291.8,735.5,293.7z"/>
					<path id="XMLID_187_" class="st2" d="M724.2,288.2c0.3,6.2-1.2,11.9-4.3,17.4c-8.6,29.5-34.2,42.6-76.6,39
						c-1.2-0.2-4.3,0-2.6,1.9c0.7,0.9,2.2,1,3.3,1.2c1.7,0.3,3.6,0.9,5.4,0.9c10.2,0.2,19.5-0.7,29.5-3.5c7.6-2.1,15-5.7,21.6-10
						c6.2-4.1,11.4-9,16.1-14.7c2.9-3.5,5.5-8.1,7.4-12.4c3.3-7.4,4.3-14.7,5-22.6c0-1-1.2-1.7-2.1-1.4
						C725.8,284.7,724.2,287.1,724.2,288.2z"/>
					<path id="XMLID_186_" class="st2" d="M726,292.1c0,7.2-1.6,14.3-4.7,21.1c-2.1,4.5-4.7,8.5-7.8,12.3
						c-4.8,5.7-10.4,10.4-16.7,14.3c-6.4,4-13.8,6.9-21.1,8.8c-10.9,2.8-21.4,2.8-32.4,1.7c-0.7,0-1.7-0.2-2.1,0.5
						c-0.5,1,1.9,2.1,2.4,2.4c2.1,1,4.3,1.9,6.6,2.6c1.9,0.7,3.8,1.4,5.9,1.4c9.1-0.3,17.8-1.6,26.4-4.7c9.1-3.3,17.4-7.8,25-13.8
						c8.5-6.6,15-14.7,20-24c1.7-3.5,3.5-6.9,4.8-10.5c2.8-7.6,4-15.4,4.7-23.5c0.3-3.1-4.5,2.1-4.1,1.7c-1.7,1.9-3.3,4-4.7,5.9
						C726.8,289.7,726.1,290.7,726,292.1z"/>
					<path id="XMLID_185_" class="st2" d="M729.8,298.7c0,5.2-0.9,10.4-2.4,15.4c-3.5,6-6.9,12.3-10.4,18.3
						c-5.4,6.9-12.9,12.1-20.5,16.1c-7.1,3.6-14.5,6-22.3,7.4c-9.8,1.7-19.2,1.4-29,0c-1.2-0.2-1.7,1.4-1.2,2.2
						c0.7,1.2,3.8,2.6,5.4,2.8c6,0.5,11.9,1,18.1,0.7c7.4-0.3,14.7-2.1,21.9-4.5c5.5-1.9,10.7-4.3,15.7-7.2
						c5.9-3.5,12.1-7.9,16.6-13.1c3.6-4.3,6.7-8.6,9.7-13.3c2.4-3.8,4-7.8,5.4-12.1c1-2.4,1.7-5,2.2-7.6c1-3.8,1.7-7.6,1.7-11.6
						c0.2-2.6-3.5-0.2-3.8,0.2c-1.7,1.2-3.3,2.4-4.8,3.6C730.8,296.8,730.1,297.6,729.8,298.7z"/>
					<path id="XMLID_184_" class="st2" d="M732.7,288.8c-0.5,7.6-1.4,14.8-5,21.7c-4.1,5.5-8.3,10.9-12.6,16.4
						c-16.9,14.8-38.3,20.7-64,17.4c-1.2-0.2-2.8,0.2-2.2,1.9c0.5,1.6,4.1,1.6,5.4,1.7c8.1,0.5,16.1,0.7,24.2-0.7
						c7.4-1.2,14.7-3.5,21.6-6.6c9.3-4.3,18.5-10.9,24.9-19c3.1-4,5.9-7.9,7.9-12.6c0.9-2.4,1.7-4.7,2.8-7.1
						c1.4-4.8,2.1-9.7,2.1-14.5C737.7,284,732.9,286.8,732.7,288.8z"/>
					<path id="XMLID_183_" class="st2" d="M726.8,296.4c0,5.4-0.9,10.4-2.4,15.4c-3.3,6-6.7,12.1-10,17.9
						c-5.2,6.9-12.6,12.1-20.2,16.1c-6.9,3.8-14.2,6.2-21.9,7.8c-4,0.9-7.9,1.4-12.1,1.6c-5.7,0.3-11.2,0-16.9-0.9
						c-1.7-0.2-2.2,0.9-1,2.2c1.4,1,2.8,1.7,4.3,2.6c1.6,0.9,2.9,1.4,4.7,1.9c6.4,0.2,12.1,0.5,18.5-0.5c3.5-0.5,6.9-1.2,10.2-2.1
						c8.5-2.4,16.6-5.9,24-10.7c7.1-4.7,13.3-10.4,18.6-16.9c4.3-5.2,7.4-11.4,10.2-17.4c1.7-3.6,3.1-7.4,4-11.2
						c1.6-5,2.2-10.2,2.4-15.4c0.3-2.9-4.3,1.2-4.3,1.2c-1.9,1.7-3.6,3.5-5.4,5.4C728,294,727.4,295.1,726.8,296.4z"/>
					<path id="XMLID_182_" class="st2" d="M729.8,287.1c0,7.4-1.7,14.7-5,21.4c-2.9,6.6-7.6,11.6-14,15.4c-4.5,5.5-10,9.7-16.6,12.3
						c-14,6-28.8,8.1-44.5,6c-1-0.2-3.5-0.7-3.8,1c-0.2,1.7,2.2,1.9,3.3,2.1c8.1,0.7,16.1,0.9,24.2,0c11.2-1.4,22.3-5.5,31.8-11.6
						c5.4-3.5,10.4-7.4,14.7-12.3c4.8-5.5,9-12.1,11.2-19.2c1.9-5.5,2.1-10.2,2.6-16.1c0-0.9-1.2-1.7-1.9-1.6
						C730.8,284.9,729.8,286.4,729.8,287.1z"/>
					<path id="XMLID_181_" class="st2" d="M723,290.1c0.2,4-0.3,7.8-1.6,11.6c-6.4,31.4-33.7,46.6-81.6,45.6
						c-1.7-0.2-1.7,1.6-0.7,2.4c1.4,0.7,2.8,1.2,4.1,1.6c1.4,0.5,2.9,0.9,4.3,1c8.8,0,16.9-0.3,25.4-2.6c4.8-1.2,9-2.8,13.5-4.7
						c6.2-2.8,11.7-6.2,17.1-10.4c5-4,9.7-8.6,13.3-13.8c2.8-4,5.4-8.5,7.1-12.8c0.7-2.4,1.6-4.7,2.2-7.1c1.4-4.8,2.1-10,2.2-15
						c0.2-1.4-0.9-1.9-2.1-1.4C725.5,284.9,723.2,288.5,723,290.1z"/>
				</g>
			</g>
		</g>
		<circle id="XMLID_177_" class="st3" cx="629.1" cy="257.8" r="15"/>
		<circle id="XMLID_176_" cx="627.8" cy="258.1" r="4.7"/>
		<path id="XMLID_175_" class="st4" d="M692.3,299.7c-4.1,12.6-15.7,21.7-29.7,22.1c-14.8,0.3-27.6-9.7-31.4-23.3"/>
		<path id="XMLID_174_" class="st5" d="M656.8,274c1.7,5.9-3.3,13.5,1,17.8c2.8,2.8,8.3,1.6,9.5-2.1"/>
		<circle id="XMLID_173_" class="st3" cx="697.8" cy="257.8" r="15"/>
		<circle id="XMLID_130_" cx="696.5" cy="258.1" r="4.7"/>
	</g>
	<g id="XMLID_212_">
		<path id="XMLID_278_" d="M612.9,401.5v-22.4h3.8v9.7h11.1v-9.7h3.8v22.4h-3.8v-9.2h-11.1v9.2H612.9z"/>
		<path id="XMLID_280_" d="M638.6,399.3c-1.6-1.6-2.4-3.8-2.4-6.4c0-2.6,0.8-4.8,2.5-6.3c1.6-1.6,3.6-2.4,5.8-2.4s4.1,1.1,5.5,3.2
			v-2.9h3.6v17H650v-2.8c-0.7,1-1.6,1.7-2.6,2.3c-1.1,0.5-2.1,0.8-3.2,0.8C642.1,401.7,640.2,400.9,638.6,399.3z M639.8,393
			c0,1.6,0.5,3,1.6,4c1,1,2.3,1.5,3.7,1.5s2.6-0.5,3.6-1.6c1-1.1,1.5-2.4,1.5-4c0-1.6-0.5-3-1.5-4.1c-1-1.1-2.2-1.6-3.6-1.6
			s-2.7,0.5-3.7,1.6C640.3,390,639.8,391.4,639.8,393z"/>
		<path id="XMLID_283_" d="M667.9,384.2c2.3,0,4.2,0.8,5.9,2.4c1.6,1.6,2.4,3.7,2.4,6.3s-0.8,4.8-2.4,6.4c-1.6,1.6-3.5,2.5-5.6,2.5
			s-4.1-0.9-5.8-2.8v8.8h-3.6v-23.2h3.6v3C663.8,385.3,665.6,384.2,667.9,384.2z M662.3,393c0,1.6,0.5,2.9,1.5,4
			c1,1,2.2,1.6,3.6,1.6s2.6-0.5,3.7-1.5s1.6-2.4,1.6-4c0-1.6-0.5-3-1.5-4.1c-1-1.1-2.3-1.6-3.7-1.6s-2.6,0.5-3.6,1.6
			C662.9,390.1,662.3,391.4,662.3,393z"/>
		<path id="XMLID_286_" d="M689.4,384.2c2.3,0,4.2,0.8,5.9,2.4c1.6,1.6,2.4,3.7,2.4,6.3s-0.8,4.8-2.4,6.4c-1.6,1.6-3.5,2.5-5.6,2.5
			s-4.1-0.9-5.8-2.8v8.8h-3.6v-23.2h3.6v3C685.3,385.3,687.1,384.2,689.4,384.2z M683.8,393c0,1.6,0.5,2.9,1.5,4
			c1,1,2.2,1.6,3.6,1.6s2.6-0.5,3.7-1.5s1.6-2.4,1.6-4c0-1.6-0.5-3-1.5-4.1c-1-1.1-2.3-1.6-3.7-1.6s-2.6,0.5-3.6,1.6
			C684.4,390.1,683.8,391.4,683.8,393z"/>
		<path id="XMLID_290_" d="M708.8,405c3.2,0,4.7-2,4.7-6v-1.1c-1.4,1.5-3.3,2.2-5.5,2.2c-4.4,0-6.6-2.4-6.6-7.3v-8.4h3.6v6.8
			c0,2,0.3,3.4,0.9,4.2c0.6,0.8,1.7,1.2,3.1,1.2c1.5,0,2.6-0.4,3.2-1.1s1.1-1.9,1.2-3.4v-7.7h3.6V399c0,3-0.8,5.2-2.3,6.8
			s-3.5,2.4-6,2.4c-1.9,0-3.5-0.4-4.9-1.3c-1.4-0.9-2.4-2.2-3.1-3.8l3.2-1.4C704.9,403.9,706.5,405,708.8,405z"/>
	</g>
	<g id="halo_5_">
		<circle id="XMLID_267_" class="st6" cx="663.6" cy="278.5" r="92.9"/>
	</g>
</g>
<g class="nervous-emoji">
	<g id="nervous">
		<circle id="XMLID_21_" class="st0" cx="450.4" cy="168.2" r="86"/>
		<g id="XMLID_11_" class="st1">
			<g id="XMLID_46_">
				<g id="XMLID_47_">
					<path id="XMLID_59_" class="st2" d="M454,99c5.7,0,11.2,0.9,16.7,2.2c9.8,2.6,18.8,7.2,26.4,13.6c5.9,5,10.9,10.5,15.2,16.9
						c4.1,6.4,7.4,13.6,9.3,20.9c2.9,10.5,3.1,20.7,2.2,31.4c0,0.7-0.2,1.9,0.7,2.2c1.2,0.5,2.1-2.4,2.2-2.9
						c0.9-2.6,1.7-5.2,2.4-7.8c0.5-2.2,1.4-4.5,1-6.7c-1-9.8-2.8-18.8-6.6-28c-3.6-8.5-8.5-16.4-14.5-23.3
						c-5.4-6-11.6-11.2-18.3-15.7c-14.3-9.7-31.6-13.6-48.3-14.8c-3.1-0.2,1.9,4.7,1.7,4.5c1.9,1.9,4,3.6,6,5.4
						C451.3,97.8,452.5,98.4,454,99z"/>
					<path id="XMLID_20_" class="st2" d="M456.1,93.6c5.5,0,11,0.7,16.6,2.1c6.9,3.1,13.6,6.2,20.5,9.3c7.6,4.7,13.8,11.6,19,18.8
						c4.5,6.4,7.8,13.1,10.2,20.5c1.2,3.6,2.2,7.4,2.8,11.2c1.2,7.9,1.2,15.9,0,24c-0.2,1.9,1.6,1.9,2.4,0.7
						c0.7-1.4,1.2-2.9,1.7-4.5s0.9-3.1,1-4.7c0-7.1-0.2-13.8-1.6-20.7c-1-5.4-2.6-10.5-4.7-15.5c-5.2-12.6-13.5-23.6-24-32.3
						c-5.5-4.5-11.4-7.9-17.6-11c-10.4-5.4-21.9-7.2-33.3-8.1c-2.6-0.2,0.2,3.5,0.3,3.8c1.2,1.6,2.6,3.1,4,4.7
						C454.2,92.7,455.1,93.3,456.1,93.6z"/>
					<path id="XMLID_19_" class="st2" d="M457.3,97.8c8.5,0.5,16.4,1.4,24.3,4.7c17.1,7.1,31.8,21.1,39.4,37.8
						c2.6,5.9,4.8,12.1,5.9,18.3c1.4,8.1,1.2,15.9,0.5,24c0,0.7-0.2,1.7,0.5,2.2c1,0.7,2.2-2.1,2.4-2.6c1-2.4,2.1-4.8,2.9-7.2
						c0.7-1.9,1.7-4.1,1.6-6.4c-0.2-6-1-11.9-2.4-17.6c-1.4-5.7-3.3-11-5.7-16.2c-4.8-10.2-11.7-19.5-20-27.1S488.6,94.4,478,90.3
						c-5.2-2.1-10.7-3.8-16.2-4.8c-5.4-1.4-11-2.2-16.6-2.2c-3.3-0.3,1.7,5,1.7,5c2.1,2.2,4.1,4.5,6.4,6.7
						C454.6,96,455.8,97.1,457.3,97.8z"/>
					<path id="XMLID_17_" class="st2" d="M462.2,103.4c5.7,0,11.2,0.9,16.7,2.2c9.8,2.8,18.6,7.4,26.4,14c5.7,5,10.7,10.7,14.7,17.3
						s7.1,13.8,9,21.2c2.8,10.7,2.4,21.1,1.2,31.9c-0.2,1.4,1,1.9,2.1,1.2c1.4-0.9,3.5-4.5,3.5-6c0.3-7.6,0.7-15-0.5-22.6
						c-1-5.9-2.4-11.4-4.5-16.9c-5.4-13.5-13.6-24.7-24.9-33.7c-5.5-4.5-11.4-7.9-17.8-10.9c-10.5-5-21.9-7.1-33.5-7.9
						c-2.6-0.2,0.5,3.6,0.7,3.8c1.4,1.6,2.8,2.9,4.3,4.3C460.1,102.6,461.1,103.3,462.2,103.4z"/>
					<path id="XMLID_15_" class="st2" d="M462,98.8c8.5,0.7,16.2,1.6,24.3,4.7c8.5,2.9,15.2,8.3,20.5,15.9
						c7.8,4.8,13.5,11.2,17.1,19.3c3.3,7.1,5.9,14.5,6.9,22.3c1,8.3,0.7,16.1-0.2,24.3c-0.2,1.6,1,1.9,2.2,1.2
						c0.9-1,1.6-2.2,2.2-3.5c0.6-1.3,1.2-2.4,1.6-3.8c0.3-7.6,0.3-14.8-0.9-22.4c-1.2-7.1-3.1-14.3-6.4-20.9
						c-2.8-5.7-5.7-10.7-9.5-15.7c-6-7.9-13.6-14.8-22.1-20c-6-3.8-12.4-6.9-19.3-9.1c-8.1-2.8-16.2-4-24.7-4.7
						c-2.8-0.2,0.3,4,0.7,4.3c1.4,1.9,2.9,3.8,4.5,5.5C459.9,97.4,460.8,98.3,462,98.8z"/>
					<path id="XMLID_54_" class="st2" d="M455.4,97.1c14,0,23,1,35.7,10.7c5,3.8,9.5,8.1,13.5,13.1c4.1,4.7,6.7,10,8.3,16.2
						c4.1,6.4,6.6,13.3,7.2,20.9c0.9,7.8,0.3,15.2-0.7,23c-0.3,2.8,2.8,3.3,3.1,0.5c1-7.9,1.7-15.7,0.7-23.6
						c-0.7-5.2-1.7-10.4-3.5-15.4c-2.1-6.4-5.2-12.4-8.8-18.1c-6.4-9.8-14.8-18.3-25.2-23.8c-2.4-1.4-4.8-2.6-7.4-3.5
						s-5-1.7-7.6-2.6c-5-0.9-10-1-15-0.5C453.9,93.8,453.4,97.1,455.4,97.1z"/>
					<path id="XMLID_53_" class="st2" d="M452,98.6c10.5,0.9,21.1,2.6,30.4,7.8c22.4,12.3,34.9,31.8,38.7,61.6
						c-0.2-1.7-0.2-3.6-0.3-5.4c0.2,4.5,0.3,8.8,0.3,13.3c0-1.9,0.2-3.6,0.2-5.5c-0.3,4.5-0.7,9-1,13.5c-0.2,2.2,1.7,1.9,2.4,0.5
						c0.5-1.7,1-3.6,1.4-5.5c0.3-1.9,0.7-3.6,0.7-5.5c-0.3-10.7-1.7-21.1-5.7-31.1c-4.1-10.7-10.7-20.4-19-28.5
						c-7.4-7.2-16.2-12.9-26.1-16.7c-9.5-3.8-19-5.2-29-6c-0.5,0.2-0.9,0.5-0.9,1c0.2,0.9,0.7,1.7,1.6,2.2
						C447.1,96,449.6,98.4,452,98.6z"/>
					<path id="XMLID_52_" class="st2" d="M456.5,105c5.2,0.7,10.4,1.4,15.5,2.1c2.6,0.9,5,1.6,7.6,2.4c6,2.2,11.6,5.5,16.7,9.5
						c8.3,5.7,13.5,14,15.5,25c8.1,7.8,12.4,16.6,12.9,26.6c0.7,6.7,0.3,13.1-0.3,19.8c-0.2,1.9,1.2,2.2,2.2,0.9
						c0.9-1.6,1.6-3.1,2.1-4.7c0.7-1.6,1.2-3.3,1.6-5c-0.2-5.9-0.3-11.6-1.4-17.4c-1-5.4-2.6-10.9-4.7-16.1
						c-4.5-11-11.6-21.1-20.4-29.2c-7.8-7.2-16.9-12.6-26.8-16.4c-9.5-3.5-19-4.8-29.2-5.5c-2.6-0.2,1.2,3.6,1,3.5
						C451.1,102.2,453.9,104.8,456.5,105z"/>
					<path id="XMLID_51_" class="st2" d="M461.6,93.8c10.9,0.9,20.7,2.2,30.5,7.9c5.7,3.3,10.9,7.1,15.5,11.7
						c4.5,4.5,8.6,9.5,11.9,15.2c9.1,16.2,11.6,32.1,9,52.5c-0.2,1,0.3,2.4,1.9,1.9c1.4-0.5,1.9-2.9,1.9-4.1
						c0.7-5.7,0.9-7.4,0.9-12.3c0-4.1-0.3-7.9-0.7-12.1c-1.2-10.9-5.5-22.8-11.6-31.9c-6.9-10.7-15.7-19.5-26.6-25.9
						c-4-2.4-7.8-4.3-12.1-5.9c-2.8-0.9-5.4-1.7-8.1-2.6c-5.4-1.6-10.9-2.4-16.4-2.6c-2.1-0.2-0.9,2.4-0.5,3.1
						C458,90,459.9,93.8,461.6,93.8z"/>
					<path id="XMLID_14_" class="st2" d="M453.4,102.9c9.3,0.5,18.3,2.2,26.6,6c28.1,12.8,44.7,39.9,41.4,79.2
						c-0.2,2.2,1.6,2.1,2.4,0.5c0.7-1.9,1.4-3.8,1.7-5.7c0.5-1.9,0.9-3.8,1-5.9c-0.3-5.5-0.7-11-1.7-16.6c-1-5.2-2.8-10.4-4.8-15.2
						c-4.5-10.7-11.2-20.2-19.7-28.1c-7.6-7.1-16.4-12.4-26.2-16.2c-9.5-3.6-18.8-4.8-28.8-5.5c-0.7,0.2-0.9,0.5-0.9,1.2
						c0.3,1,0.9,1.7,1.9,2.2C448,100.5,450.8,102.9,453.4,102.9z"/>
					<path id="XMLID_13_" class="st2" d="M460.3,93.6c5.5,0,11,0.7,16.4,1.9c2.6,0.9,5.2,1.7,7.6,2.6c4.8,1.9,9.3,4.5,13.6,7.6
						c5.2,3.5,9.5,7.9,12.8,13.5c4.5,4.5,7.8,9.5,10.2,15.4c1.6,3.5,2.8,7.1,3.6,10.7c3.1,11.9,2.9,22.8,1,35
						c-0.2,0.9,1,1.6,1.9,1.4c1-0.2,1.4-1,1.4-2.1c1.4-9.5,1.9-18.8,0.2-28.5c-1.9-11.6-6.4-23.1-13.6-32.6
						c-4.8-6.4-10.4-12.3-16.9-16.9c-4.5-3.1-9.1-5.7-14.2-7.9c-7.9-3.5-15.7-4.1-24.2-4.7c-0.9,0-1.9,0.3-2.1,1.4
						C458.2,91.4,459.6,93.6,460.3,93.6z"/>
					<path id="XMLID_12_" class="st2" d="M453.4,99.3c11,0.2,19.3,1,29.5,6.9c2.1,1.4,4.3,2.8,6.4,4.1c6,4.1,10.9,9.5,14.2,16.4
						c4.5,4.3,7.8,9.3,9.7,14.8c1.6,3.3,2.6,6.7,3.5,10.4c2.2,10,2.2,19.5,1.2,29.9c-0.2,1.2-0.3,2.9,1.2,3.1
						c1.6,0.2,1.7-1.6,1.9-2.8c0.7-6,1.2-9.7,0.9-15.9c-0.3-5.2-1-10.2-2.1-15.2c-2.2-9.8-6.7-19.5-12.8-27.6
						c-5.5-7.4-12.1-13.6-19.8-18.6c-3.5-2.2-7.1-4.1-11-5.7c-2.4-0.9-5-1.7-7.4-2.6c-5.2-1-10.2-1.4-15.4-1
						C450.9,95.9,451.3,99.3,453.4,99.3z"/>
				</g>
			</g>
		</g>
		<g id="XMLID_3_" class="st1">
			<g id="XMLID_31_">
				<g id="XMLID_32_">
					<path id="XMLID_10_" class="st2" d="M516.7,183.2c0,4-0.3,7.9-1.6,11.7c-2.1,10.4-7.2,19.3-15.5,27.1
						c-5.2,5.2-11.7,9.7-18.3,12.8c-7.1,3.3-14.5,5.9-22.3,7.1c-8.3,1.2-16.4,1.2-24.9,0.3c-0.7,0-1.9-0.2-2.2,0.5
						c-0.7,1,2.2,2.2,2.8,2.4c2.4,1.2,4.8,2.1,7.2,2.9c2.1,0.7,4.1,1.7,6.4,1.6c3.1-0.2,6-0.3,9.1-0.5c6-0.9,11.9-2.2,17.6-4.3
						c10.9-3.8,20.9-9.8,29.3-17.4c8.1-7.4,14.3-16.4,19-26.4c2.2-4.8,4-9.8,5.2-15c1.4-5,2.2-10.2,2.2-15.5c0.3-3.3-5.2,2.1-5,1.9
						c-2.2,2.1-4.3,4.3-6.6,6.6C518.3,180.4,517.2,181.6,516.7,183.2z"/>
					<path id="XMLID_43_" class="st2" d="M517.7,178c-0.2,2.6-0.3,5.2-0.7,7.8c-0.9,5.9-2.8,11.4-5.9,16.4
						c-14,25.4-41.1,36.4-76.1,34c-2.4-0.2-2.2,1.6-0.5,2.4c2.1,0.7,4.1,1.2,6.4,1.7c2.1,0.5,4.3,0.9,6.6,1
						c11.2-0.7,21.7-2.2,32.3-6.6c9.5-4,18.5-9.7,25.9-16.9c7.2-7.1,12.9-15.7,16.6-25.2c2.9-7.6,4.1-15.5,4.8-23.6
						c0.2-2.6-3.8,1.2-3.8,1.2C521.5,172.1,517.9,175.2,517.7,178z"/>
					<path id="XMLID_42_" class="st2" d="M520.3,181.8c0,5.2-0.9,10.4-2.4,15.4c-0.9,2.2-1.7,4.7-2.8,6.9
						c-5.4,12.1-15.7,21.4-27.1,27.8c-6.9,3.8-14.2,6.4-21.7,8.1c-9.7,2.1-18.8,2.1-28.7,1.2c-2.2-0.2-2.6,1.2-0.7,2.4
						c2.1,0.9,4.1,1.7,6.2,2.4s4.3,1.4,6.6,1.7c9.3-0.3,18.5-1.2,27.4-4.3c7.8-2.6,15.2-6.2,22.1-10.9c6.9-4.7,13.5-10.5,18.5-17.3
						c4.7-6.4,9-13.5,11.6-21.1c0.9-2.6,1.6-5.2,2.4-7.6c1.4-5,2.2-10.2,2.4-15.4c0.3-3.1-4.7,1.4-4.7,1.4c-2.1,1.9-4.1,3.8-6,5.7
						C521.9,179.2,521,180.4,520.3,181.8z"/>
					<path id="XMLID_41_" class="st2" d="M521.5,188.5c0,3.8-0.3,7.6-1.4,11.2c-0.7,3.6-1.9,7.1-3.6,10.4
						c-3.3,6.6-8.1,12.9-13.6,17.6c-11.7,9.8-26.6,16.1-41.8,17.4c-8.3,0.7-16.4,0-24.7-0.9c-0.9-0.2-1.7,0.5-1.7,1.6
						s1.2,1.7,2.1,1.9c7.2,0.9,14.3,1.4,21.6,1c4.3-0.3,8.6-0.9,12.8-1.6c7.1-1.4,13.6-3.8,20-7.1c10.9-5.4,20.9-13.5,27.6-23.6
						c2.9-4.3,5.2-9.5,6.9-14.3c1.9-5.7,2.1-9.8,2.8-15.7C528.4,183,521.7,186.6,521.5,188.5z"/>
					<path id="XMLID_40_" class="st2" d="M522.6,183.9c0,7.4-1.6,14.5-4.8,21.2c-2.1,4.5-4.8,8.6-8.1,12.3
						c-17.3,20-44.4,25.7-71.1,23c-1.4-0.2-1.4,1.7-0.7,2.4c1.2,1.2,4.3,1.7,6,1.9c8.1,0.5,15.9,0.3,24-0.7c8.3-1.2,17.3-4,24.5-7.9
						c10.7-5.5,19.8-13.1,26.9-23.1c3.8-5.4,6.6-11.2,8.6-17.6c1.7-5.4,2.2-10.2,2.8-15.9c0.2-2.1-2.6-0.7-3.1-0.3
						C525.8,180.1,522.7,182,522.6,183.9z"/>
					<path id="XMLID_39_" class="st2" d="M511.4,178.4c0.3,6.2-1.2,11.9-4.3,17.4c-8.6,29.5-34.2,42.6-76.6,39
						c-1.2-0.2-4.3,0-2.6,1.9c0.7,0.9,2.2,1,3.3,1.2c1.7,0.3,3.6,0.9,5.4,0.9c10.2,0.2,19.5-0.7,29.5-3.5c7.6-2.1,15-5.7,21.6-10
						c6.2-4.1,11.4-9,16.1-14.7c2.9-3.5,5.5-8.1,7.4-12.4c3.3-7.4,4.3-14.7,5-22.6c0-1-1.2-1.7-2.1-1.4
						C512.9,174.9,511.4,177.3,511.4,178.4z"/>
					<path id="XMLID_38_" class="st2" d="M513.1,182.3c0,7.2-1.6,14.3-4.7,21.1c-2.1,4.5-4.7,8.5-7.8,12.3
						c-4.8,5.7-10.4,10.4-16.7,14.3c-6.4,4-13.8,6.9-21.1,8.8c-10.9,2.8-21.4,2.8-32.4,1.7c-0.7,0-1.7-0.2-2.1,0.5
						c-0.5,1,1.9,2.1,2.4,2.4c2.1,1,4.3,1.9,6.6,2.6c1.9,0.7,3.8,1.4,5.9,1.4c9.1-0.3,17.8-1.6,26.4-4.7c9.1-3.3,17.4-7.8,25-13.8
						c8.5-6.6,15-14.7,20-24c1.7-3.5,3.5-6.9,4.8-10.5c2.8-7.6,4-15.4,4.7-23.5c0.3-3.1-4.5,2.1-4.1,1.7c-1.7,1.9-3.3,4-4.7,5.9
						C513.9,179.9,513.2,180.9,513.1,182.3z"/>
					<path id="XMLID_37_" class="st2" d="M516.9,188.9c0,5.2-0.9,10.4-2.4,15.4c-3.5,6-6.9,12.3-10.4,18.3
						c-5.4,6.9-12.9,12.1-20.5,16.1c-7.1,3.6-14.5,6-22.3,7.4c-9.8,1.7-19.2,1.4-29,0c-1.2-0.2-1.7,1.4-1.2,2.2
						c0.7,1.2,3.8,2.6,5.4,2.8c6,0.5,11.9,1,18.1,0.7c7.4-0.3,14.7-2.1,21.9-4.5c5.5-1.9,10.7-4.3,15.7-7.2
						c5.9-3.5,12.1-7.9,16.6-13.1c3.6-4.3,6.7-8.6,9.7-13.3c2.4-3.8,4-7.8,5.4-12.1c1-2.4,1.7-5,2.2-7.6c1-3.8,1.7-7.6,1.7-11.6
						c0.2-2.6-3.5-0.2-3.8,0.2c-1.7,1.2-3.3,2.4-4.8,3.6C517.9,187,517.2,187.8,516.9,188.9z"/>
					<path id="XMLID_36_" class="st2" d="M519.8,179c-0.5,7.6-1.4,14.8-5,21.7c-4.1,5.5-8.3,10.9-12.6,16.4
						c-16.9,14.8-38.3,20.7-64,17.4c-1.2-0.2-2.8,0.2-2.2,1.9c0.5,1.6,4.1,1.6,5.4,1.7c8.1,0.5,16.1,0.7,24.2-0.7
						c7.4-1.2,14.7-3.5,21.6-6.6c9.3-4.3,18.5-10.9,24.9-19c3.1-4,5.9-7.9,7.9-12.6c0.9-2.4,1.7-4.7,2.8-7.1
						c1.4-4.8,2.1-9.7,2.1-14.5C524.8,174.2,520,177,519.8,179z"/>
					<path id="XMLID_9_" class="st2" d="M513.9,186.6c0,5.4-0.9,10.4-2.4,15.4c-3.3,6-6.7,12.1-10,17.9
						c-5.2,6.9-12.6,12.1-20.2,16.1c-6.9,3.8-14.2,6.2-21.9,7.8c-4,0.9-7.9,1.4-12.1,1.6c-5.7,0.3-11.2,0-16.9-0.9
						c-1.7-0.2-2.2,0.9-1,2.2c1.4,1,2.8,1.7,4.3,2.6s2.9,1.4,4.7,1.9c6.4,0.2,12.1,0.5,18.5-0.5c3.5-0.5,6.9-1.2,10.2-2.1
						c8.5-2.4,16.6-5.9,24-10.7c7.1-4.7,13.3-10.4,18.6-16.9c4.3-5.2,7.4-11.4,10.2-17.4c1.7-3.6,3.1-7.4,4-11.2
						c1.6-5,2.2-10.2,2.4-15.4c0.3-2.9-4.3,1.2-4.3,1.2c-1.9,1.7-3.6,3.5-5.4,5.4C515.1,184.2,514.5,185.3,513.9,186.6z"/>
					<path id="XMLID_6_" class="st2" d="M516.9,177.3c0,7.4-1.7,14.7-5,21.4c-2.9,6.6-7.6,11.6-14,15.4c-4.5,5.5-10,9.7-16.6,12.3
						c-14,6-28.8,8.1-44.5,6c-1-0.2-3.5-0.7-3.8,1c-0.2,1.7,2.2,1.9,3.3,2.1c8.1,0.7,16.1,0.9,24.2,0c11.2-1.4,22.3-5.5,31.8-11.6
						c5.4-3.5,10.4-7.4,14.7-12.3c4.8-5.5,9-12.1,11.2-19.2c1.9-5.5,2.1-10.2,2.6-16.1c0-0.9-1.2-1.7-1.9-1.6
						C517.9,175.1,516.9,176.6,516.9,177.3z"/>
					<path id="XMLID_7_" class="st2" d="M510.1,180.3c0.2,4-0.3,7.8-1.6,11.6c-6.4,31.4-33.7,46.6-81.6,45.6
						c-1.7-0.2-1.7,1.6-0.7,2.4c1.4,0.7,2.8,1.2,4.1,1.6c1.4,0.5,2.9,0.9,4.3,1c8.8,0,16.9-0.3,25.4-2.6c4.8-1.2,9-2.8,13.5-4.7
						c6.2-2.8,11.7-6.2,17.1-10.4c5-4,9.7-8.6,13.3-13.8c2.8-4,5.4-8.5,7.1-12.8c0.7-2.4,1.6-4.7,2.2-7.1c1.4-4.8,2.1-10,2.2-15
						c0.2-1.4-0.9-1.9-2.1-1.4C512.6,175.1,510.3,178.7,510.1,180.3z"/>
				</g>
			</g>
		</g>
		<circle id="XMLID_4_" class="st3" cx="416.3" cy="148" r="15"/>
		<circle id="XMLID_5_" cx="414.9" cy="148.3" r="4.7"/>
		<path id="XMLID_8_" class="st5" d="M443.9,164.2c1.7,5.9-3.3,13.5,1,17.8c2.8,2.8,8.3,1.6,9.5-2.1"/>
		<circle id="XMLID_22_" class="st3" cx="484.9" cy="148" r="15"/>
		<circle id="XMLID_25_" cx="483.6" cy="148.3" r="4.7"/>
		<path id="XMLID_29_" class="st4" d="M421.9,208.4c1.4-2.1,2.8-4,5.4-4c5.4,0,5.4,7.9,10.7,7.9s5.4-7.9,10.7-7.9s5.4,7.9,10.7,7.9
			c5.4,0,5.4-7.9,10.7-7.9c2.8,0,4,1.9,5.4,4"/>
		<path id="XMLID_26_" class="st4" d="M403,121.9c4.8-2.9,10.7-4.5,16.4-4"/>
		<path id="XMLID_45_" class="st4" d="M491.7,121.6c-4.8-2.9-10.7-4.5-16.4-4"/>
	</g>
	<g id="XMLID_252_">
		<path id="XMLID_257_" d="M399.6,273.3c-0.9-1.2-2.3-1.8-4-1.8c-1.8,0-3.2,0.6-4.3,1.8c-1.1,1.2-1.7,2.8-1.7,4.8v12.8h-3.8v-22.4
			h3.8v2.1c0.9-0.9,1.9-1.5,3.1-2c1.2-0.4,2.3-0.7,3.4-0.7c2.5,0,4.5,0.9,6.2,2.6s2.5,4.1,2.5,7.1v13.3H401v-12.7
			C401,276.1,400.6,274.5,399.6,273.3z"/>
		<path id="XMLID_259_" d="M418,273.6c2.3,0,4.3,0.6,5.8,1.9s2.3,3,2.3,5v0.1l-12.4,5.2c1.1,1.4,2.6,2,4.5,2s3.5-0.7,4.7-2.2
			l2.1,2.3c-2,2.1-4.4,3.1-7.2,3.1c-2.4,0-4.5-0.8-6.2-2.4c-1.7-1.6-2.6-3.7-2.6-6.3c0-1.8,0.4-3.4,1.3-4.8c0.9-1.4,2-2.4,3.3-3
			C415.1,273.9,416.5,273.6,418,273.6z M412.6,282.5c0,0.3,0,0.5,0,0.6l9.4-4.1c-0.7-1.4-2-2.1-3.9-2.1c-1.4,0-2.7,0.5-3.9,1.5
			C413.2,279.4,412.6,280.7,412.6,282.5z"/>
		<path id="XMLID_262_" d="M438.8,277.2c-1.8,0-3.1,0.6-4,1.7c-0.9,1.2-1.3,2.7-1.3,4.6v7.3h-3.6v-17h3.6v3.4
			c0.6-1.1,1.4-1.9,2.4-2.6s2-1,3.2-1.1v3.6C438.9,277.2,438.8,277.2,438.8,277.2z"/>
		<path id="XMLID_264_" d="M447.1,290.9l-6.8-17h3.7l5.2,12.9l5.2-12.9h3.7l-6.8,17H447.1z"/>
		<path id="XMLID_266_" d="M475.1,288.6c-1.7,1.7-3.8,2.5-6.4,2.5s-4.7-0.8-6.4-2.5c-1.7-1.7-2.6-3.8-2.6-6.2c0-2.5,0.9-4.5,2.6-6.2
			s3.8-2.5,6.4-2.5s4.7,0.8,6.4,2.5c1.7,1.7,2.6,3.8,2.6,6.2C477.6,284.8,476.8,286.9,475.1,288.6z M464.8,286.4
			c1,1,2.3,1.6,3.9,1.6s2.8-0.5,3.9-1.6c1-1,1.5-2.4,1.5-4c0-1.6-0.5-3-1.5-4s-2.3-1.6-3.9-1.6s-2.8,0.5-3.9,1.6c-1,1-1.5,2.4-1.5,4
			C463.3,284,463.8,285.4,464.8,286.4z"/>
		<path id="XMLID_272_" d="M493.6,283.1v-9.2h3.6v17h-3.6v-3.1c-0.6,1-1.4,1.9-2.4,2.5c-1,0.6-2.1,0.9-3.3,0.9
			c-1.9,0-3.5-0.6-4.7-1.8c-1.2-1.2-1.8-2.9-1.8-5.1v-10.4h3.6v9.3c0,3.1,1.3,4.7,3.9,4.7c1.2,0,2.3-0.4,3.2-1.2
			C493.2,285.9,493.6,284.7,493.6,283.1z"/>
		<path id="XMLID_274_" d="M514.5,285.8c0,1.6-0.6,2.9-1.8,3.9s-2.7,1.5-4.5,1.5c-1.2,0-2.5-0.2-3.9-0.7c-1.3-0.4-2.5-1.1-3.5-1.9
			l1.7-2.8c2,1.5,3.9,2.2,5.8,2.2c0.8,0,1.5-0.2,1.9-0.6c0.5-0.4,0.7-0.8,0.7-1.4c0-0.9-1.1-1.6-3.4-2.3c-0.2-0.1-0.3-0.1-0.4-0.1
			c-3.5-1-5.3-2.6-5.3-4.8c0-1.6,0.6-2.8,1.8-3.8s2.8-1.4,4.8-1.4s3.8,0.6,5.6,1.7l-1.3,2.7c-1.4-0.9-2.9-1.4-4.5-1.4
			c-0.9,0-1.5,0.2-2.1,0.5c-0.5,0.3-0.8,0.8-0.8,1.4c0,0.6,0.3,1,0.8,1.2c0.4,0.2,0.9,0.4,1.6,0.5c0.7,0.2,1.3,0.3,1.8,0.5
			s1,0.4,1.6,0.6c0.5,0.2,1,0.5,1.6,0.9C513.9,283,514.5,284.2,514.5,285.8z"/>
	</g>
	<g id="halo_4_">
		<circle id="XMLID_269_" class="st6" cx="450.4" cy="168.1" r="92.9"/>
	</g>
</g>
<g class="scared-emoji">
	<g id="scared">
		<circle id="XMLID_129_" class="st0" cx="274.3" cy="352.2" r="86"/>
		<g id="XMLID_114_" class="st1">
			<g id="XMLID_115_">
				<g id="XMLID_116_">
					<path id="XMLID_128_" class="st2" d="M277.9,282.9c5.7,0,11.2,0.9,16.7,2.2c9.8,2.6,18.8,7.2,26.4,13.6
						c5.9,5,10.9,10.5,15.2,16.9c4.1,6.4,7.4,13.6,9.3,20.9c2.9,10.5,3.1,20.7,2.2,31.4c0,0.7-0.2,1.9,0.7,2.2
						c1.2,0.5,2.1-2.4,2.2-2.9c0.9-2.6,1.7-5.2,2.4-7.8c0.5-2.2,1.4-4.5,1-6.7c-1-9.8-2.8-18.8-6.6-28c-3.6-8.5-8.5-16.4-14.5-23.3
						c-5.4-6-11.6-11.2-18.3-15.7c-14.3-9.7-31.6-13.6-48.3-14.8c-3.1-0.2,1.9,4.7,1.7,4.5c1.9,1.9,4,3.6,6,5.4
						C275.2,281.7,276.4,282.4,277.9,282.9z"/>
					<path id="XMLID_127_" class="st2" d="M280,277.6c5.5,0,11,0.7,16.6,2.1c6.9,3.1,13.6,6.2,20.5,9.3c7.6,4.7,13.8,11.6,19,18.8
						c4.5,6.4,7.8,13.1,10.2,20.5c1.2,3.6,2.2,7.4,2.8,11.2c1.2,7.9,1.2,15.9,0,24c-0.2,1.9,1.6,1.9,2.4,0.7
						c0.7-1.4,1.2-2.9,1.7-4.5c0.5-1.6,0.9-3.1,1-4.7c0-7.1-0.2-13.8-1.6-20.7c-1-5.4-2.6-10.5-4.7-15.5
						c-5.2-12.6-13.5-23.6-24-32.3c-5.5-4.5-11.4-7.9-17.6-11c-10.4-5.4-21.9-7.2-33.3-8.1c-2.6-0.2,0.2,3.5,0.3,3.8
						c1.2,1.6,2.6,3.1,4,4.7C278.1,276.7,279,277.2,280,277.6z"/>
					<path id="XMLID_126_" class="st2" d="M281.2,281.7c8.5,0.5,16.4,1.4,24.3,4.7c17.1,7.1,31.8,21.1,39.4,37.8
						c2.6,5.9,4.8,12.1,5.9,18.3c1.4,8.1,1.2,15.9,0.5,24c0,0.7-0.2,1.7,0.5,2.2c1,0.7,2.2-2.1,2.4-2.6c1-2.4,2.1-4.8,2.9-7.2
						c0.7-1.9,1.7-4.1,1.6-6.4c-0.2-6-1-11.9-2.4-17.6s-3.3-11-5.7-16.2c-4.8-10.2-11.7-19.5-20-27.1c-8.3-7.6-18.1-13.3-28.7-17.4
						c-5.2-2.1-10.7-3.8-16.2-4.8c-5.4-1.4-11-2.2-16.6-2.2c-3.3-0.3,1.7,5,1.7,5c2.1,2.2,4.1,4.5,6.4,6.7
						C278.4,280,279.6,281,281.2,281.7z"/>
					<path id="XMLID_125_" class="st2" d="M286,287.4c5.7,0,11.2,0.9,16.7,2.2c9.8,2.8,18.6,7.4,26.4,14c5.7,5,10.7,10.7,14.7,17.3
						s7.1,13.8,9,21.2c2.8,10.7,2.4,21.1,1.2,31.9c-0.2,1.4,1,1.9,2.1,1.2c1.4-0.9,3.5-4.5,3.5-6c0.3-7.6,0.7-15-0.5-22.6
						c-1-5.9-2.4-11.4-4.5-16.9c-5.4-13.5-13.6-24.7-24.9-33.7c-5.5-4.5-11.4-7.9-17.8-10.9c-10.5-5-21.9-7.1-33.5-7.9
						c-2.6-0.2,0.5,3.6,0.7,3.8c1.4,1.6,2.8,2.9,4.3,4.3C284,286.6,285,287.3,286,287.4z"/>
					<path id="XMLID_124_" class="st2" d="M285.9,282.8c8.5,0.7,16.2,1.6,24.3,4.7c8.5,2.9,15.2,8.3,20.5,15.9
						c7.8,4.8,13.5,11.2,17.1,19.3c3.3,7.1,5.9,14.5,6.9,22.3c1,8.3,0.7,16.1-0.2,24.3c-0.2,1.6,1,1.9,2.2,1.2
						c0.9-1,1.6-2.2,2.2-3.5c0.7-1.2,1.2-2.4,1.6-3.8c0.3-7.6,0.3-14.8-0.9-22.4c-1.2-7.1-3.1-14.3-6.4-20.9
						c-2.8-5.7-5.7-10.7-9.5-15.7c-6-7.9-13.6-14.8-22.1-20c-6-3.8-12.4-6.9-19.3-9.1c-8.1-2.8-16.2-4-24.7-4.7
						c-2.8-0.2,0.3,4,0.7,4.3c1.4,1.9,2.9,3.8,4.5,5.5C283.8,281.4,284.6,282.3,285.9,282.8z"/>
					<path id="XMLID_123_" class="st2" d="M279.3,281c14,0,23,1,35.7,10.7c5,3.8,9.5,8.1,13.5,13.1c4.1,4.7,6.7,10,8.3,16.2
						c4.1,6.4,6.6,13.3,7.2,20.9c0.9,7.8,0.3,15.2-0.7,23c-0.3,2.8,2.8,3.3,3.1,0.5c1-7.9,1.7-15.7,0.7-23.6
						c-0.7-5.2-1.7-10.4-3.5-15.4c-2.1-6.4-5.2-12.4-8.8-18.1c-6.4-9.8-14.8-18.3-25.2-23.8c-2.4-1.4-4.8-2.6-7.4-3.5
						c-2.6-0.9-5-1.7-7.6-2.6c-5-0.9-10-1-15-0.5C277.7,277.8,277.2,281,279.3,281z"/>
					<path id="XMLID_122_" class="st2" d="M275.8,282.6c10.5,0.9,21.1,2.6,30.4,7.8c22.4,12.3,34.9,31.8,38.7,61.6
						c-0.2-1.7-0.2-3.6-0.3-5.4c0.2,4.5,0.3,8.8,0.3,13.3c0-1.9,0.2-3.6,0.2-5.5c-0.3,4.5-0.7,9-1,13.5c-0.2,2.2,1.7,1.9,2.4,0.5
						c0.5-1.7,1-3.6,1.4-5.5c0.4-1.9,0.7-3.6,0.7-5.5c-0.3-10.7-1.7-21.1-5.7-31.1c-4.1-10.7-10.7-20.4-19-28.5
						c-7.4-7.2-16.2-12.9-26.1-16.7c-9.5-3.8-19-5.2-29-6c-0.5,0.2-0.9,0.5-0.9,1c0.2,0.9,0.7,1.7,1.6,2.2
						C271,280,273.4,282.4,275.8,282.6z"/>
					<path id="XMLID_121_" class="st2" d="M280.3,289c5.2,0.7,10.4,1.4,15.5,2.1c2.6,0.9,5,1.6,7.6,2.4c6,2.2,11.6,5.5,16.7,9.5
						c8.3,5.7,13.5,14,15.5,25c8.1,7.8,12.4,16.6,12.9,26.6c0.7,6.7,0.3,13.1-0.3,19.8c-0.2,1.9,1.2,2.2,2.2,0.9
						c0.9-1.6,1.6-3.1,2.1-4.7c0.7-1.6,1.2-3.3,1.6-5c-0.2-5.9-0.3-11.6-1.4-17.4c-1-5.4-2.6-10.9-4.7-16.1
						c-4.5-11-11.6-21.1-20.4-29.2c-7.8-7.2-16.9-12.6-26.8-16.4c-9.5-3.5-19-4.8-29.2-5.5c-2.6-0.2,1.2,3.6,1,3.5
						C275,286.2,277.7,288.8,280.3,289z"/>
					<path id="XMLID_120_" class="st2" d="M285.5,277.8c10.9,0.9,20.7,2.2,30.5,7.9c5.7,3.3,10.9,7.1,15.5,11.7
						c4.5,4.5,8.6,9.5,11.9,15.2c9.1,16.2,11.6,32.1,9,52.5c-0.2,1,0.3,2.4,1.9,1.9c1.4-0.5,1.9-2.9,1.9-4.1
						c0.7-5.7,0.9-7.4,0.9-12.3c0-4.1-0.3-7.9-0.7-12.1c-1.2-10.9-5.5-22.8-11.6-31.9c-6.9-10.7-15.7-19.5-26.6-25.9
						c-4-2.4-7.8-4.3-12.1-5.9c-2.8-0.9-5.4-1.7-8.1-2.6c-5.4-1.6-10.9-2.4-16.4-2.6c-2.1-0.2-0.9,2.4-0.5,3.1
						C281.9,274,283.8,277.8,285.5,277.8z"/>
					<path id="XMLID_119_" class="st2" d="M277.2,286.9c9.3,0.5,18.3,2.2,26.6,6c28.1,12.8,44.7,39.9,41.4,79.2
						c-0.2,2.2,1.6,2.1,2.4,0.5c0.7-1.9,1.4-3.8,1.7-5.7c0.5-1.9,0.9-3.8,1-5.9c-0.3-5.5-0.7-11-1.7-16.6c-1-5.2-2.8-10.4-4.8-15.2
						c-4.5-10.7-11.2-20.2-19.7-28.1c-7.6-7.1-16.4-12.4-26.2-16.2c-9.5-3.6-18.8-4.8-28.8-5.5c-0.7,0.2-0.9,0.5-0.9,1.2
						c0.3,1,0.9,1.7,1.9,2.2C271.9,284.5,274.6,286.9,277.2,286.9z"/>
					<path id="XMLID_118_" class="st2" d="M284.1,277.6c5.5,0,11,0.7,16.4,1.9c2.6,0.9,5.2,1.7,7.6,2.6c4.8,1.9,9.3,4.5,13.6,7.6
						c5.2,3.5,9.5,7.9,12.8,13.5c4.5,4.5,7.8,9.5,10.2,15.4c1.6,3.5,2.8,7.1,3.6,10.7c3.1,11.9,2.9,22.8,1,35
						c-0.2,0.9,1,1.6,1.9,1.4c1-0.2,1.4-1,1.4-2.1c1.4-9.5,1.9-18.8,0.2-28.5c-1.9-11.6-6.4-23.1-13.6-32.6
						c-4.8-6.4-10.4-12.3-16.9-16.9c-4.5-3.1-9.1-5.7-14.2-7.9c-7.9-3.5-15.7-4.1-24.2-4.7c-0.9,0-1.9,0.3-2.1,1.4
						C282.1,275.4,283.4,277.6,284.1,277.6z"/>
					<path id="XMLID_117_" class="st2" d="M277.2,283.3c11,0.2,19.3,1,29.5,6.9c2.1,1.4,4.3,2.8,6.4,4.1c6,4.1,10.9,9.5,14.2,16.4
						c4.5,4.3,7.8,9.3,9.7,14.8c1.6,3.3,2.6,6.7,3.5,10.4c2.2,10,2.2,19.5,1.2,29.9c-0.2,1.2-0.3,2.9,1.2,3.1
						c1.6,0.2,1.7-1.6,1.9-2.8c0.7-6,1.2-9.7,0.9-15.9c-0.3-5.2-1-10.2-2.1-15.2c-2.2-9.8-6.7-19.5-12.8-27.6
						c-5.5-7.4-12.1-13.6-19.8-18.6c-3.5-2.2-7.1-4.1-11-5.7c-2.4-0.9-5-1.7-7.4-2.6c-5.2-1-10.2-1.4-15.4-1
						C274.8,279.8,275.2,283.3,277.2,283.3z"/>
				</g>
			</g>
		</g>
		<g id="XMLID_99_" class="st1">
			<g id="XMLID_100_">
				<g id="XMLID_101_">
					<path id="XMLID_113_" class="st2" d="M340.6,367.2c0,4-0.3,7.9-1.6,11.7c-2.1,10.4-7.2,19.3-15.5,27.1
						c-5.2,5.2-11.7,9.7-18.3,12.8c-7.1,3.3-14.5,5.9-22.3,7.1c-8.3,1.2-16.4,1.2-24.9,0.3c-0.7,0-1.9-0.2-2.2,0.5
						c-0.7,1,2.2,2.2,2.8,2.4c2.4,1.2,4.8,2.1,7.2,2.9c2.1,0.7,4.1,1.7,6.4,1.6c3.1-0.2,6-0.3,9.1-0.5c6-0.9,11.9-2.2,17.6-4.3
						c10.9-3.8,20.9-9.8,29.3-17.4c8.1-7.4,14.3-16.4,19-26.4c2.2-4.8,4-9.8,5.2-15c1.4-5,2.2-10.2,2.2-15.5c0.3-3.3-5.2,2.1-5,1.9
						c-2.2,2.1-4.3,4.3-6.6,6.6C342.1,364.4,341.1,365.6,340.6,367.2z"/>
					<path id="XMLID_112_" class="st2" d="M341.6,362c-0.2,2.6-0.3,5.2-0.7,7.8c-0.9,5.9-2.8,11.4-5.9,16.4
						c-14,25.4-41.1,36.4-76.1,34c-2.4-0.2-2.2,1.6-0.5,2.4c2.1,0.7,4.1,1.2,6.4,1.7c2.1,0.5,4.3,0.9,6.6,1
						c11.2-0.7,21.7-2.2,32.3-6.6c9.5-4,18.5-9.7,25.9-16.9c7.2-7.1,12.9-15.7,16.6-25.2c2.9-7.6,4.1-15.5,4.8-23.6
						c0.2-2.6-3.8,1.2-3.8,1.2C345.4,356.1,341.8,359.2,341.6,362z"/>
					<path id="XMLID_111_" class="st2" d="M344.2,365.8c0,5.2-0.9,10.4-2.4,15.4c-0.9,2.2-1.7,4.7-2.8,6.9
						c-5.4,12.1-15.7,21.4-27.1,27.8c-6.9,3.8-14.2,6.4-21.7,8.1c-9.7,2.1-18.8,2.1-28.7,1.2c-2.2-0.2-2.6,1.2-0.7,2.4
						c2.1,0.9,4.1,1.7,6.2,2.4c2.1,0.7,4.3,1.4,6.6,1.7c9.3-0.3,18.5-1.2,27.4-4.3c7.8-2.6,15.2-6.2,22.1-10.9
						c6.9-4.7,13.5-10.5,18.5-17.3c4.7-6.4,9-13.5,11.6-21.1c0.9-2.6,1.6-5.2,2.4-7.6c1.4-5,2.2-10.2,2.4-15.4
						c0.3-3.1-4.7,1.4-4.7,1.4c-2.1,1.9-4.1,3.8-6,5.7C345.7,363.2,344.9,364.4,344.2,365.8z"/>
					<path id="XMLID_110_" class="st2" d="M345.4,372.5c0,3.8-0.3,7.6-1.4,11.2c-0.7,3.6-1.9,7.1-3.6,10.4
						c-3.3,6.6-8.1,12.9-13.6,17.6c-11.7,9.8-26.6,16.1-41.8,17.4c-8.3,0.7-16.4,0-24.7-0.9c-0.9-0.2-1.7,0.5-1.7,1.6
						c0,1,1.2,1.7,2.1,1.9c7.2,0.9,14.3,1.4,21.6,1c4.3-0.3,8.6-0.9,12.8-1.6c7.1-1.4,13.6-3.8,20-7.1c10.9-5.4,20.9-13.5,27.6-23.6
						c2.9-4.3,5.2-9.5,6.9-14.3c1.9-5.7,2.1-9.8,2.8-15.7C352.3,367,345.6,370.6,345.4,372.5z"/>
					<path id="XMLID_109_" class="st2" d="M346.4,367.9c0,7.4-1.6,14.5-4.8,21.2c-2.1,4.5-4.8,8.6-8.1,12.3
						c-17.3,20-44.4,25.7-71.1,23c-1.4-0.2-1.4,1.7-0.7,2.4c1.2,1.2,4.3,1.7,6,1.9c8.1,0.5,15.9,0.3,24-0.7c8.3-1.2,17.3-4,24.5-7.9
						c10.7-5.5,19.8-13.1,26.9-23.1c3.8-5.4,6.6-11.2,8.6-17.6c1.7-5.4,2.2-10.2,2.8-15.9c0.2-2.1-2.6-0.7-3.1-0.3
						C349.7,364.1,346.6,366,346.4,367.9z"/>
					<path id="XMLID_108_" class="st2" d="M335.2,362.3c0.3,6.2-1.2,11.9-4.3,17.4c-8.6,29.5-34.2,42.6-76.6,39
						c-1.2-0.2-4.3,0-2.6,1.9c0.7,0.9,2.2,1,3.3,1.2c1.7,0.3,3.6,0.9,5.4,0.9c10.2,0.2,19.5-0.7,29.5-3.5c7.6-2.1,15-5.7,21.6-10
						c6.2-4.1,11.4-9,16.1-14.7c2.9-3.5,5.5-8.1,7.4-12.4c3.3-7.4,4.3-14.7,5-22.6c0-1-1.2-1.7-2.1-1.4
						C336.8,358.9,335.2,361.3,335.2,362.3z"/>
					<path id="XMLID_107_" class="st2" d="M336.9,366.3c0,7.2-1.6,14.3-4.7,21.1c-2.1,4.5-4.7,8.5-7.8,12.3
						c-4.8,5.7-10.4,10.4-16.7,14.3c-6.3,3.9-13.8,6.9-21.1,8.8c-10.9,2.8-21.4,2.8-32.4,1.7c-0.7,0-1.7-0.2-2.1,0.5
						c-0.5,1,1.9,2.1,2.4,2.4c2.1,1,4.3,1.9,6.6,2.6c1.9,0.7,3.8,1.4,5.9,1.4c9.1-0.3,17.8-1.6,26.4-4.7c9.1-3.3,17.4-7.8,25-13.8
						c8.5-6.6,15-14.7,20-24c1.7-3.5,3.5-6.9,4.8-10.5c2.8-7.6,4-15.4,4.7-23.5c0.3-3.1-4.5,2.1-4.1,1.7c-1.7,1.9-3.3,4-4.7,5.9
						C337.8,363.9,337.1,364.9,336.9,366.3z"/>
					<path id="XMLID_106_" class="st2" d="M340.7,372.9c0,5.2-0.9,10.4-2.4,15.4c-3.5,6-6.9,12.3-10.4,18.3
						c-5.4,6.9-12.9,12.1-20.5,16.1c-7.1,3.6-14.5,6-22.3,7.4c-9.8,1.7-19.2,1.4-29,0c-1.2-0.2-1.7,1.4-1.2,2.2
						c0.7,1.2,3.8,2.6,5.4,2.8c6,0.5,11.9,1,18.1,0.7c7.4-0.3,14.7-2.1,21.9-4.5c5.5-1.9,10.7-4.3,15.7-7.2
						c5.9-3.5,12.1-7.9,16.6-13.1c3.6-4.3,6.7-8.6,9.7-13.3c2.4-3.8,4-7.8,5.4-12.1c1-2.4,1.7-5,2.2-7.6c1-3.8,1.7-7.6,1.7-11.6
						c0.2-2.6-3.5-0.2-3.8,0.2c-1.7,1.2-3.3,2.4-4.8,3.6C341.8,371,341.1,371.8,340.7,372.9z"/>
					<path id="XMLID_105_" class="st2" d="M343.7,363c-0.5,7.6-1.4,14.8-5,21.7c-4.1,5.5-8.3,10.9-12.6,16.4
						c-16.9,14.8-38.3,20.7-64,17.4c-1.2-0.2-2.8,0.2-2.2,1.9c0.5,1.6,4.1,1.6,5.4,1.7c8.1,0.5,16.1,0.7,24.2-0.7
						c7.4-1.2,14.7-3.5,21.6-6.6c9.3-4.3,18.5-10.9,24.9-19c3.1-4,5.9-7.9,7.9-12.6c0.9-2.4,1.7-4.7,2.8-7.1
						c1.4-4.8,2.1-9.7,2.1-14.5C348.7,358.2,343.8,361,343.7,363z"/>
					<path id="XMLID_104_" class="st2" d="M337.8,370.6c0,5.4-0.9,10.4-2.4,15.4c-3.3,6-6.7,12.1-10,17.9
						c-5.2,6.9-12.6,12.1-20.2,16.1c-6.9,3.8-14.2,6.2-21.9,7.8c-4,0.9-7.9,1.4-12.1,1.6c-5.7,0.3-11.2,0-16.9-0.9
						c-1.7-0.2-2.2,0.9-1,2.2c1.4,1,2.8,1.7,4.3,2.6c1.6,0.9,2.9,1.4,4.7,1.9c6.4,0.2,12.1,0.5,18.5-0.5c3.5-0.5,6.9-1.2,10.2-2.1
						c8.5-2.4,16.6-5.9,24-10.7c7.1-4.7,13.3-10.4,18.6-16.9c4.3-5.2,7.4-11.4,10.2-17.4c1.7-3.6,3.1-7.4,4-11.2
						c1.6-5,2.2-10.2,2.4-15.4c0.3-2.9-4.3,1.2-4.3,1.2c-1.9,1.7-3.6,3.5-5.4,5.4C339,368.2,338.3,369.2,337.8,370.6z"/>
					<path id="XMLID_103_" class="st2" d="M340.7,361.3c0,7.4-1.7,14.7-5,21.4c-2.9,6.6-7.6,11.6-14,15.4c-4.5,5.5-10,9.7-16.6,12.3
						c-14,6-28.8,8.1-44.5,6c-1-0.2-3.5-0.7-3.8,1c-0.2,1.7,2.2,1.9,3.3,2.1c8.1,0.7,16.1,0.9,24.2,0c11.2-1.4,22.3-5.5,31.8-11.6
						c5.4-3.5,10.4-7.4,14.7-12.3c4.8-5.5,9-12.1,11.2-19.2c1.9-5.5,2.1-10.2,2.6-16.1c0-0.9-1.2-1.7-1.9-1.6
						C341.8,359.1,340.7,360.6,340.7,361.3z"/>
					<path id="XMLID_102_" class="st2" d="M334,364.2c0.2,4-0.3,7.8-1.6,11.6c-6.4,31.4-33.7,46.6-81.6,45.6
						c-1.7-0.2-1.7,1.6-0.7,2.4c1.4,0.7,2.8,1.2,4.1,1.6c1.4,0.5,2.9,0.9,4.3,1c8.8,0,16.9-0.3,25.4-2.6c4.8-1.2,9-2.8,13.5-4.7
						c6.2-2.8,11.7-6.2,17.1-10.4c5-4,9.7-8.6,13.3-13.8c2.8-4,5.4-8.5,7.1-12.8c0.7-2.4,1.6-4.7,2.2-7.1c1.4-4.8,2.1-10,2.2-15
						c0.2-1.4-0.9-1.9-2.1-1.4C336.4,359.1,334.2,362.7,334,364.2z"/>
				</g>
			</g>
		</g>
		<circle id="XMLID_98_" class="st3" cx="240.1" cy="332" r="15"/>
		<circle id="XMLID_97_" cx="238.7" cy="332.3" r="4.7"/>
		<path id="XMLID_96_" class="st5" d="M267.7,351.6c1.7,5.9-3.3,13.5,1,17.8c2.8,2.8,8.3,1.6,9.5-2.1"/>
		<circle id="XMLID_95_" class="st3" cx="308.8" cy="332" r="15"/>
		<circle id="XMLID_94_" cx="307.4" cy="332.3" r="4.7"/>
		<path id="XMLID_133_" class="st4" d="M294.1,400.5c0,7.2-9,0-19.8,0c-10.8,0-19.8,7.2-19.8,0s9-13.1,19.8-13.1
			C285.1,387.4,294.1,393.2,294.1,400.5z"/>
		<path id="XMLID_132_" class="st4" d="M215.6,316.3c13.8-1.9,20.9-8.5,25-14.8"/>
		<path id="XMLID_131_" class="st4" d="M332.8,315.9c-13.8-1.9-20.9-8.5-25-14.8"/>
	</g>
	<g id="XMLID_255_">
		<path id="XMLID_292_" d="M224,455c-1.1,0-2,0.2-2.7,0.7c-0.7,0.4-1.1,1.1-1.1,2s0.4,1.6,1.1,2.1c0.7,0.5,2.2,1,4.5,1.6
			c2.3,0.6,4,1.3,5.2,2.3c1.2,1,1.7,2.5,1.7,4.4s-0.7,3.5-2.2,4.8c-1.5,1.2-3.4,1.8-5.8,1.8c-3.5,0-6.6-1.2-9.3-3.6l2.4-2.8
			c2.3,2,4.6,2.9,7,2.9c1.2,0,2.2-0.3,2.9-0.8c0.7-0.5,1.1-1.2,1.1-2.1c0-0.9-0.3-1.5-1-2c-0.7-0.5-1.8-0.9-3.5-1.3
			c-1.7-0.4-2.9-0.8-3.7-1.1c-0.8-0.3-1.6-0.8-2.3-1.3c-1.3-1-2-2.5-2-4.6s0.8-3.7,2.3-4.8s3.4-1.7,5.6-1.7c1.4,0,2.8,0.2,4.3,0.7
			c1.4,0.5,2.6,1.1,3.6,2l-2,2.8c-0.7-0.6-1.6-1.1-2.7-1.5C226.2,455.2,225.1,455,224,455z"/>
		<path id="XMLID_294_" d="M244.4,474.6c-2.4,0-4.4-0.8-6.1-2.4c-1.7-1.6-2.6-3.7-2.6-6.3s0.9-4.7,2.7-6.4c1.8-1.7,4-2.4,6.5-2.4
			c2.6,0,4.7,0.9,6.5,2.7l-2.1,2.6c-1.5-1.3-3-1.9-4.4-1.9s-2.8,0.5-3.9,1.5c-1.1,1-1.6,2.3-1.6,3.8c0,1.6,0.5,2.9,1.6,4
			s2.4,1.6,4,1.6s3.1-0.7,4.5-2.2l2.1,2.3C249.5,473.6,247.2,474.6,244.4,474.6z"/>
		<path id="XMLID_296_" d="M256.6,472.2c-1.6-1.6-2.4-3.8-2.4-6.4s0.8-4.8,2.5-6.3c1.7-1.5,3.6-2.4,5.8-2.4c2.2,0,4.1,1.1,5.5,3.2
			v-2.9h3.6v17H268v-2.8c-0.7,1-1.6,1.7-2.6,2.3c-1.1,0.5-2.1,0.8-3.2,0.8C260.1,474.6,258.2,473.8,256.6,472.2z M257.8,466
			c0,1.6,0.5,3,1.6,4c1,1,2.3,1.5,3.7,1.5s2.6-0.5,3.6-1.6c1-1,1.5-2.4,1.5-4s-0.5-3-1.5-4.1s-2.2-1.6-3.6-1.6
			c-1.4,0-2.7,0.5-3.7,1.6C258.3,463,257.8,464.3,257.8,466z"/>
		<path id="XMLID_299_" d="M285.8,460.7c-1.8,0-3.1,0.6-4,1.7c-0.9,1.2-1.3,2.7-1.3,4.6v7.3h-3.6v-17h3.6v3.4
			c0.6-1.1,1.4-1.9,2.4-2.6c1-0.7,2-1,3.2-1.1v3.6C285.9,460.7,285.8,460.7,285.8,460.7z"/>
		<path id="XMLID_301_" d="M297.3,457.1c2.3,0,4.3,0.6,5.8,1.9c1.5,1.3,2.3,3,2.3,5v0.1l-12.4,5.2c1.1,1.4,2.6,2,4.5,2
			s3.5-0.7,4.7-2.2l2.1,2.3c-2,2.1-4.4,3.1-7.2,3.1c-2.4,0-4.5-0.8-6.2-2.4c-1.7-1.6-2.6-3.7-2.6-6.3c0-1.8,0.4-3.4,1.3-4.8
			c0.9-1.4,2-2.4,3.3-3C294.4,457.4,295.8,457.1,297.3,457.1z M291.9,466c0,0.3,0,0.5,0,0.6l9.4-4.1c-0.7-1.4-2-2.1-3.9-2.1
			c-1.4,0-2.7,0.5-3.9,1.5C292.4,462.9,291.9,464.2,291.9,466z"/>
		<path id="XMLID_304_" d="M310.4,472.2c-1.6-1.6-2.4-3.8-2.4-6.4s0.8-4.8,2.5-6.3c1.7-1.5,3.6-2.4,5.9-2.4c2.3,0,4.1,1,5.5,2.9
			v-9.3h3.6v23.7h-3.6v-2.6c-1.3,1.9-3.3,2.8-5.8,2.8C313.9,474.6,312,473.8,310.4,472.2z M311.6,466c0,1.6,0.5,3,1.6,4
			c1,1,2.3,1.5,3.7,1.5s2.6-0.5,3.6-1.6c1-1,1.5-2.4,1.5-4s-0.5-3-1.5-4.1s-2.2-1.6-3.6-1.6c-1.4,0-2.7,0.5-3.7,1.6
			C312.1,463,311.6,464.3,311.6,466z"/>
	</g>
	<g id="halo_3_">
		<path id="XMLID_271_" class="st6" d="M274.5,445.8c-51.3,0-92.9-44.3-92.9-92.9c0-54,41.6-92.9,92.9-92.9s92.9,38.9,92.9,92.9
			C367.4,401.5,325.8,445.8,274.5,445.8z"/>
	</g>
</g>
<g class="sad-emoji">
	<g id="XMLID_135_">
		<circle id="XMLID_172_" class="st0" cx="478" cy="439" r="86"/>
		<g id="XMLID_157_" class="st1">
			<g id="XMLID_158_">
				<g id="XMLID_159_">
					<path id="XMLID_171_" class="st2" d="M481.6,369.8c5.7,0,11.2,0.9,16.7,2.2c9.8,2.6,18.8,7.2,26.4,13.6
						c5.9,5,10.9,10.5,15.2,16.9c4.1,6.4,7.4,13.6,9.3,20.9c2.9,10.5,3.1,20.7,2.2,31.4c0,0.7-0.2,1.9,0.7,2.2
						c1.2,0.5,2.1-2.4,2.2-2.9c0.9-2.6,1.7-5.2,2.4-7.8c0.5-2.2,1.4-4.5,1-6.7c-1-9.8-2.8-18.8-6.6-28c-3.6-8.5-8.5-16.4-14.5-23.3
						c-5.4-6-11.6-11.2-18.3-15.7c-14.3-9.7-31.6-13.6-48.3-14.8c-3.1-0.2,1.9,4.7,1.7,4.5c1.9,1.9,4,3.6,6,5.4
						C478.9,368.6,480.1,369.3,481.6,369.8z"/>
					<path id="XMLID_170_" class="st2" d="M483.7,364.5c5.5,0,11,0.7,16.6,2.1c6.9,3.1,13.6,6.2,20.5,9.3c7.6,4.7,13.8,11.6,19,18.8
						c4.5,6.4,7.8,13.1,10.2,20.5c1.2,3.6,2.2,7.4,2.8,11.2c1.2,7.9,1.2,15.9,0,24c-0.2,1.9,1.6,1.9,2.4,0.7
						c0.7-1.4,1.2-2.9,1.7-4.5s0.9-3.1,1-4.7c0-7.1-0.2-13.8-1.6-20.7c-1-5.4-2.6-10.5-4.7-15.5c-5.2-12.6-13.5-23.6-24-32.3
						c-5.5-4.5-11.4-7.9-17.6-11c-10.4-5.4-21.9-7.2-33.3-8.1c-2.6-0.2,0.2,3.5,0.3,3.8c1.2,1.6,2.6,3.1,4,4.7
						C481.8,363.6,482.7,364.1,483.7,364.5z"/>
					<path id="XMLID_169_" class="st2" d="M484.9,368.6c8.5,0.5,16.4,1.4,24.3,4.7c17.1,7.1,31.8,21.1,39.4,37.8
						c2.6,5.9,4.8,12.1,5.9,18.3c1.4,8.1,1.2,15.9,0.5,24c0,0.7-0.2,1.7,0.5,2.2c1,0.7,2.2-2.1,2.4-2.6c1-2.4,2.1-4.8,2.9-7.2
						c0.7-1.9,1.7-4.1,1.6-6.4c-0.2-6-1-11.9-2.4-17.6c-1.4-5.7-3.3-11-5.7-16.2c-4.8-10.2-11.7-19.5-20-27.1
						c-8.3-7.6-18.1-13.3-28.7-17.4c-5.2-2.1-10.7-3.8-16.2-4.8c-5.4-1.4-11-2.2-16.6-2.2c-3.3-0.3,1.7,5,1.7,5
						c2.1,2.2,4.1,4.5,6.4,6.7C482.1,366.9,483.4,367.9,484.9,368.6z"/>
					<path id="XMLID_168_" class="st2" d="M489.7,374.3c5.7,0,11.2,0.9,16.7,2.2c9.8,2.8,18.6,7.4,26.4,14
						c5.7,5,10.7,10.7,14.7,17.3s7.1,13.8,9,21.2c2.8,10.7,2.4,21.1,1.2,31.9c-0.2,1.4,1,1.9,2.1,1.2c1.4-0.9,3.5-4.5,3.5-6
						c0.3-7.6,0.7-15-0.5-22.6c-1-5.9-2.4-11.4-4.5-16.9c-5.4-13.5-13.6-24.7-24.9-33.7c-5.5-4.5-11.4-7.9-17.8-10.9
						c-10.5-5-21.9-7.1-33.5-7.9c-2.6-0.2,0.5,3.6,0.7,3.8c1.4,1.6,2.8,2.9,4.3,4.3C487.7,373.4,488.7,374.1,489.7,374.3z"/>
					<path id="XMLID_167_" class="st2" d="M489.6,369.6c8.5,0.7,16.2,1.6,24.3,4.7c8.5,2.9,15.2,8.3,20.5,15.9
						c7.8,4.8,13.5,11.2,17.1,19.3c3.3,7.1,5.9,14.5,6.9,22.3c1,8.3,0.7,16.1-0.2,24.3c-0.2,1.6,1,1.9,2.2,1.2
						c0.9-1,1.6-2.2,2.2-3.5c0.7-1.2,1.2-2.4,1.6-3.8c0.3-7.6,0.3-14.8-0.9-22.4c-1.2-7.1-3.1-14.3-6.4-20.9
						c-2.8-5.7-5.7-10.7-9.5-15.7c-6-7.9-13.6-14.8-22.1-20c-6-3.8-12.4-6.9-19.3-9.1c-8.1-2.8-16.2-4-24.7-4.7
						c-2.8-0.2,0.3,4,0.7,4.3c1.4,1.9,2.9,3.8,4.5,5.5C487.5,368.3,488.4,369.1,489.6,369.6z"/>
					<path id="XMLID_166_" class="st2" d="M483,367.9c14,0,23,1,35.7,10.7c5,3.8,9.5,8.1,13.5,13.1c4.1,4.7,6.7,10,8.3,16.2
						c4.1,6.4,6.6,13.3,7.2,20.9c0.9,7.8,0.3,15.2-0.7,23c-0.3,2.8,2.8,3.3,3.1,0.5c1-7.9,1.7-15.7,0.7-23.6
						c-0.7-5.2-1.7-10.4-3.5-15.4c-2.1-6.4-5.2-12.4-8.8-18.1c-6.4-9.8-14.8-18.3-25.2-23.8c-2.4-1.4-4.8-2.6-7.4-3.5
						c-2.6-0.9-5-1.7-7.6-2.6c-5-0.9-10-1-15-0.5C481.5,364.6,480.9,367.9,483,367.9z"/>
					<path id="XMLID_165_" class="st2" d="M479.6,369.5c10.5,0.9,21.1,2.6,30.4,7.8c22.4,12.3,34.9,31.8,38.7,61.6
						c-0.2-1.7-0.2-3.6-0.3-5.4c0.2,4.5,0.3,8.8,0.3,13.3c0-1.9,0.2-3.6,0.2-5.5c-0.3,4.5-0.7,9-1,13.5c-0.2,2.2,1.7,1.9,2.4,0.5
						c0.5-1.7,1-3.6,1.4-5.5c0.3-1.9,0.7-3.6,0.7-5.5c-0.3-10.7-1.7-21.1-5.7-31.1c-4.1-10.7-10.7-20.4-19-28.5
						c-7.4-7.2-16.2-12.9-26.1-16.7c-9.5-3.8-19-5.2-29-6c-0.5,0.2-0.9,0.5-0.9,1c0.2,0.9,0.7,1.7,1.6,2.2
						C474.7,366.9,477.1,369.3,479.6,369.5z"/>
					<path id="XMLID_164_" class="st2" d="M484,375.8c5.2,0.7,10.4,1.4,15.5,2.1c2.6,0.9,5,1.6,7.6,2.4c6,2.2,11.6,5.5,16.7,9.5
						c8.3,5.7,13.5,14,15.5,25c8.1,7.8,12.4,16.6,12.9,26.6c0.7,6.7,0.3,13.1-0.3,19.8c-0.2,1.9,1.2,2.2,2.2,0.9
						c0.9-1.6,1.6-3.1,2.1-4.7c0.7-1.6,1.2-3.3,1.6-5c-0.2-5.9-0.3-11.6-1.4-17.4c-1-5.4-2.6-10.9-4.7-16.1
						c-4.5-11-11.6-21.1-20.4-29.2c-7.8-7.2-16.9-12.6-26.8-16.4c-9.5-3.5-19-4.8-29.2-5.5c-2.6-0.2,1.2,3.6,1,3.5
						C478.7,373.1,481.5,375.7,484,375.8z"/>
					<path id="XMLID_163_" class="st2" d="M489.2,364.6c10.9,0.9,20.7,2.2,30.5,7.9c5.7,3.3,10.9,7.1,15.5,11.7
						c4.5,4.5,8.6,9.5,11.9,15.2c9.1,16.2,11.6,32.1,9,52.5c-0.2,1,0.3,2.4,1.9,1.9c1.4-0.5,1.9-2.9,1.9-4.1
						c0.7-5.7,0.9-7.4,0.9-12.3c0-4.1-0.3-7.9-0.7-12.1c-1.2-10.9-5.5-22.8-11.6-31.9c-6.9-10.7-15.7-19.5-26.6-25.9
						c-4-2.4-7.8-4.3-12.1-5.9c-2.8-0.9-5.4-1.7-8.1-2.6c-5.4-1.6-10.9-2.4-16.4-2.6c-2.1-0.2-0.9,2.4-0.5,3.1
						C485.6,360.8,487.5,364.6,489.2,364.6z"/>
					<path id="XMLID_162_" class="st2" d="M480.9,373.8c9.3,0.5,18.3,2.2,26.6,6c28.1,12.8,44.7,39.9,41.4,79.2
						c-0.2,2.2,1.6,2.1,2.4,0.5c0.7-1.9,1.4-3.8,1.7-5.7c0.5-1.9,0.9-3.8,1-5.9c-0.3-5.5-0.7-11-1.7-16.6c-1-5.2-2.8-10.4-4.8-15.2
						c-4.5-10.7-11.2-20.2-19.7-28.1c-7.6-7.1-16.4-12.4-26.2-16.2c-9.5-3.6-18.8-4.8-28.8-5.5c-0.7,0.2-0.9,0.5-0.9,1.2
						c0.3,1,0.9,1.7,1.9,2.2C475.6,371.4,478.4,373.8,480.9,373.8z"/>
					<path id="XMLID_161_" class="st2" d="M487.8,364.5c5.5,0,11,0.7,16.4,1.9c2.6,0.9,5.2,1.7,7.6,2.6c4.8,1.9,9.3,4.5,13.6,7.6
						c5.2,3.5,9.5,7.9,12.8,13.5c4.5,4.5,7.8,9.5,10.2,15.4c1.6,3.5,2.8,7.1,3.6,10.7c3.1,11.9,2.9,22.8,1,35
						c-0.2,0.9,1,1.6,1.9,1.4c1-0.2,1.4-1,1.4-2.1c1.4-9.5,1.9-18.8,0.2-28.5c-1.9-11.6-6.4-23.1-13.6-32.6
						c-4.8-6.4-10.4-12.3-16.9-16.9c-4.5-3.1-9.1-5.7-14.2-7.9c-7.9-3.5-15.7-4.1-24.2-4.7c-0.9,0-1.9,0.3-2.1,1.4
						C485.8,362.2,487.2,364.5,487.8,364.5z"/>
					<path id="XMLID_160_" class="st2" d="M480.9,370.1c11,0.2,19.3,1,29.5,6.9c2.1,1.4,4.3,2.8,6.4,4.1c6,4.1,10.9,9.5,14.2,16.4
						c4.5,4.3,7.8,9.3,9.7,14.8c1.6,3.3,2.6,6.7,3.5,10.4c2.2,10,2.2,19.5,1.2,29.9c-0.2,1.2-0.3,2.9,1.2,3.1s1.7-1.6,1.9-2.8
						c0.7-6,1.2-9.7,0.9-15.9c-0.3-5.2-1-10.2-2.1-15.2c-2.2-9.8-6.7-19.5-12.8-27.6c-5.5-7.4-12.1-13.6-19.8-18.6
						c-3.5-2.2-7.1-4.1-11-5.7c-2.4-0.9-5-1.7-7.4-2.6c-5.2-1-10.2-1.4-15.4-1C478.5,366.7,478.9,370.1,480.9,370.1z"/>
				</g>
			</g>
		</g>
		<g id="XMLID_142_" class="st1">
			<g id="XMLID_143_">
				<g id="XMLID_144_">
					<path id="XMLID_156_" class="st2" d="M544.3,454c0,4-0.3,7.9-1.6,11.7c-2.1,10.4-7.2,19.3-15.5,27.1
						c-5.2,5.2-11.7,9.7-18.3,12.8c-7.1,3.3-14.5,5.9-22.3,7.1c-8.3,1.2-16.4,1.2-24.9,0.3c-0.7,0-1.9-0.2-2.2,0.5
						c-0.7,1,2.2,2.2,2.8,2.4c2.4,1.2,4.8,2.1,7.2,2.9c2.1,0.7,4.1,1.7,6.4,1.6c3.1-0.2,6-0.3,9.1-0.5c6-0.9,11.9-2.2,17.6-4.3
						c10.9-3.8,20.9-9.8,29.3-17.4c8.1-7.4,14.3-16.4,19-26.4c2.2-4.8,4-9.8,5.2-15c1.4-5,2.2-10.2,2.2-15.5c0.3-3.3-5.2,2.1-5,1.9
						c-2.2,2.1-4.3,4.3-6.6,6.6C545.8,451.3,544.8,452.5,544.3,454z"/>
					<path id="XMLID_155_" class="st2" d="M545.3,448.9c-0.2,2.6-0.3,5.2-0.7,7.8c-0.9,5.9-2.8,11.4-5.9,16.4
						c-14,25.4-41.1,36.4-76.1,34c-2.4-0.2-2.2,1.6-0.5,2.4c2.1,0.7,4.1,1.2,6.4,1.7c2.1,0.5,4.3,0.9,6.6,1
						c11.2-0.7,21.7-2.2,32.3-6.6c9.5-4,18.5-9.7,25.9-16.9c7.2-7.1,12.9-15.7,16.6-25.2c2.9-7.6,4.1-15.5,4.8-23.6
						c0.2-2.6-3.8,1.2-3.8,1.2C549.1,443,545.5,446.1,545.3,448.9z"/>
					<path id="XMLID_154_" class="st2" d="M547.9,452.6c0,5.2-0.9,10.4-2.4,15.4c-0.9,2.2-1.7,4.7-2.8,6.9
						c-5.4,12.1-15.7,21.4-27.1,27.8c-6.9,3.8-14.2,6.4-21.7,8.1c-9.7,2.1-18.8,2.1-28.7,1.2c-2.2-0.2-2.6,1.2-0.7,2.4
						c2.1,0.9,4.1,1.7,6.2,2.4s4.3,1.4,6.6,1.7c9.3-0.3,18.5-1.2,27.4-4.3c7.8-2.6,15.2-6.2,22.1-10.9c6.9-4.7,13.5-10.5,18.5-17.3
						c4.7-6.4,9-13.5,11.6-21.1c0.9-2.6,1.6-5.2,2.4-7.6c1.4-5,2.2-10.2,2.4-15.4c0.3-3.1-4.7,1.4-4.7,1.4c-2.1,1.9-4.1,3.8-6,5.7
						C549.5,450.1,548.6,451.3,547.9,452.6z"/>
					<path id="XMLID_153_" class="st2" d="M549.1,459.4c0,3.8-0.3,7.6-1.4,11.2c-0.7,3.6-1.9,7.1-3.6,10.4
						c-3.3,6.6-8.1,12.9-13.6,17.6c-11.7,9.8-26.6,16.1-41.8,17.4c-8.3,0.7-16.4,0-24.7-0.9c-0.9-0.2-1.7,0.5-1.7,1.6
						c0,1,1.2,1.7,2.1,1.9c7.2,0.9,14.3,1.4,21.6,1c4.3-0.3,8.6-0.9,12.8-1.6c7.1-1.4,13.6-3.8,20-7.1c10.9-5.4,20.9-13.5,27.6-23.6
						c2.9-4.3,5.2-9.5,6.9-14.3c1.9-5.7,2.1-9.8,2.8-15.7C556,453.9,549.3,457.5,549.1,459.4z"/>
					<path id="XMLID_152_" class="st2" d="M550.2,454.7c0,7.4-1.6,14.5-4.8,21.2c-2.1,4.5-4.8,8.6-8.1,12.3
						c-17.3,20-44.4,25.7-71.1,23c-1.4-0.2-1.4,1.7-0.7,2.4c1.2,1.2,4.3,1.7,6,1.9c8.1,0.5,15.9,0.3,24-0.7c8.3-1.2,17.3-4,24.5-7.9
						c10.7-5.5,19.8-13.1,26.9-23.1c3.8-5.4,6.6-11.2,8.6-17.6c1.7-5.4,2.2-10.2,2.8-15.9c0.2-2.1-2.6-0.7-3.1-0.3
						C553.4,450.9,550.3,452.8,550.2,454.7z"/>
					<path id="XMLID_151_" class="st2" d="M538.9,449.2c0.3,6.2-1.2,11.9-4.3,17.4c-8.6,29.5-34.2,42.6-76.6,39
						c-1.2-0.2-4.3,0-2.6,1.9c0.7,0.9,2.2,1,3.3,1.2c1.7,0.3,3.6,0.9,5.4,0.9c10.2,0.2,19.5-0.7,29.5-3.5c7.6-2.1,15-5.7,21.6-10
						c6.2-4.1,11.4-9,16.1-14.7c2.9-3.5,5.5-8.1,7.4-12.4c3.3-7.4,4.3-14.7,5-22.6c0-1-1.2-1.7-2.1-1.4
						C540.5,445.7,538.9,448.2,538.9,449.2z"/>
					<path id="XMLID_150_" class="st2" d="M540.7,453.2c0,7.2-1.6,14.3-4.7,21.1c-2.1,4.5-4.7,8.5-7.8,12.3
						c-4.8,5.7-10.4,10.4-16.7,14.3c-6.4,4-13.8,6.9-21.1,8.8c-10.9,2.8-21.4,2.8-32.4,1.7c-0.7,0-1.7-0.2-2.1,0.5
						c-0.5,1,1.9,2.1,2.4,2.4c2.1,1,4.3,1.9,6.6,2.6c1.9,0.7,3.8,1.4,5.9,1.4c9.1-0.3,17.8-1.6,26.4-4.7c9.1-3.3,17.4-7.8,25-13.8
						c8.5-6.6,15-14.7,20-24c1.7-3.5,3.5-6.9,4.8-10.5c2.8-7.6,4-15.4,4.7-23.5c0.3-3.1-4.5,2.1-4.1,1.7c-1.7,1.9-3.3,4-4.7,5.9
						C541.5,450.8,540.8,451.8,540.7,453.2z"/>
					<path id="XMLID_149_" class="st2" d="M544.5,459.7c0,5.2-0.9,10.4-2.4,15.4c-3.5,6-6.9,12.3-10.4,18.3
						c-5.4,6.9-12.9,12.1-20.5,16.1c-7.1,3.6-14.5,6-22.3,7.4c-9.8,1.7-19.2,1.4-29,0c-1.2-0.2-1.7,1.4-1.2,2.2
						c0.7,1.2,3.8,2.6,5.4,2.8c6,0.5,11.9,1,18.1,0.7c7.4-0.3,14.7-2.1,21.9-4.5c5.5-1.9,10.7-4.3,15.7-7.2
						c5.9-3.5,12.1-7.9,16.6-13.1c3.6-4.3,6.7-8.6,9.7-13.3c2.4-3.8,4-7.8,5.4-12.1c1-2.4,1.7-5,2.2-7.6c1-3.8,1.7-7.6,1.7-11.6
						c0.2-2.6-3.5-0.2-3.8,0.2c-1.7,1.2-3.3,2.4-4.8,3.6C545.5,457.8,544.8,458.7,544.5,459.7z"/>
					<path id="XMLID_148_" class="st2" d="M547.4,449.9c-0.5,7.6-1.4,14.8-5,21.7c-4.1,5.5-8.3,10.9-12.6,16.4
						c-16.9,14.8-38.3,20.7-64,17.4c-1.2-0.2-2.8,0.2-2.2,1.9c0.5,1.6,4.1,1.6,5.4,1.7c8.1,0.5,16.1,0.7,24.2-0.7
						c7.4-1.2,14.7-3.5,21.6-6.6c9.3-4.3,18.5-10.9,24.9-19c3.1-4,5.9-7.9,7.9-12.6c0.9-2.4,1.7-4.7,2.8-7.1
						c1.4-4.8,2.1-9.7,2.1-14.5C552.4,445.1,547.6,447.8,547.4,449.9z"/>
					<path id="XMLID_147_" class="st2" d="M541.5,457.5c0,5.4-0.9,10.4-2.4,15.4c-3.3,6-6.7,12.1-10,17.9
						c-5.2,6.9-12.6,12.1-20.2,16.1c-6.9,3.8-14.2,6.2-21.9,7.8c-4,0.9-7.9,1.4-12.1,1.6c-5.7,0.3-11.2,0-16.9-0.9
						c-1.7-0.2-2.2,0.9-1,2.2c1.4,1,2.8,1.7,4.3,2.6c1.6,0.9,2.9,1.4,4.7,1.9c6.4,0.2,12.1,0.5,18.5-0.5c3.5-0.5,6.9-1.2,10.2-2.1
						c8.5-2.4,16.6-5.9,24-10.7c7.1-4.7,13.3-10.4,18.6-16.9c4.3-5.2,7.4-11.4,10.2-17.4c1.7-3.6,3.1-7.4,4-11.2
						c1.6-5,2.2-10.2,2.4-15.4c0.3-2.9-4.3,1.2-4.3,1.2c-1.9,1.7-3.6,3.5-5.4,5.4C542.7,455.1,542,456.1,541.5,457.5z"/>
					<path id="XMLID_146_" class="st2" d="M544.5,448.2c0,7.4-1.7,14.7-5,21.4c-2.9,6.6-7.6,11.6-14,15.4c-4.5,5.5-10,9.7-16.6,12.3
						c-14,6-28.8,8.1-44.5,6c-1-0.2-3.5-0.7-3.8,1c-0.2,1.7,2.2,1.9,3.3,2.1c8.1,0.7,16.1,0.9,24.2,0c11.2-1.4,22.3-5.5,31.8-11.6
						c5.4-3.5,10.4-7.4,14.7-12.3c4.8-5.5,9-12.1,11.2-19.2c1.9-5.5,2.1-10.2,2.6-16.1c0-0.9-1.2-1.7-1.9-1.6
						C545.5,445.9,544.5,447.5,544.5,448.2z"/>
					<path id="XMLID_145_" class="st2" d="M537.7,451.1c0.2,4-0.3,7.8-1.6,11.6c-6.4,31.4-33.7,46.6-81.6,45.6
						c-1.7-0.2-1.7,1.6-0.7,2.4c1.4,0.7,2.8,1.2,4.1,1.6c1.4,0.5,2.9,0.9,4.3,1c8.8,0,16.9-0.3,25.4-2.6c4.8-1.2,9-2.8,13.5-4.7
						c6.2-2.8,11.7-6.2,17.1-10.4c5-4,9.7-8.6,13.3-13.8c2.8-4,5.4-8.5,7.1-12.8c0.7-2.4,1.6-4.7,2.2-7.1c1.4-4.8,2.1-10,2.2-15
						c0.2-1.4-0.9-1.9-2.1-1.4C540.1,445.9,537.9,449.5,537.7,451.1z"/>
				</g>
			</g>
		</g>
		<circle id="XMLID_141_" class="st3" cx="443.8" cy="418.8" r="15"/>
		<circle id="XMLID_140_" cx="447.6" cy="420.9" r="4.7"/>
		<path id="XMLID_139_" class="st4" d="M451.8,486.3c5.7-7.1,14.3-11.7,24.2-11.9c10.4-0.2,19.7,4.5,25.7,11.9"/>
		<path id="XMLID_138_" class="st5" d="M471.4,435c1.7,5.9-3.3,13.5,1,17.8c2.8,2.8,8.3,1.6,9.5-2.1"/>
		<circle id="XMLID_137_" class="st3" cx="512.5" cy="418.8" r="15"/>
		<circle id="XMLID_136_" cx="516.3" cy="420.9" r="4.7"/>
	</g>
	<g id="XMLID_254_">
		<path id="XMLID_307_" d="M455.5,547.4c-1.1,0-2,0.2-2.7,0.7s-1.1,1.1-1.1,2s0.4,1.6,1.1,2.1s2.2,1,4.5,1.6s4,1.3,5.2,2.3
			s1.7,2.5,1.7,4.4c0,2-0.7,3.5-2.2,4.8c-1.5,1.2-3.4,1.8-5.8,1.8c-3.5,0-6.6-1.2-9.3-3.6l2.4-2.8c2.3,2,4.6,2.9,7,2.9
			c1.2,0,2.2-0.3,2.9-0.8c0.7-0.5,1.1-1.2,1.1-2.1s-0.3-1.5-1-2s-1.8-0.9-3.5-1.3c-1.6-0.4-2.9-0.8-3.7-1.1
			c-0.9-0.3-1.6-0.8-2.3-1.3c-1.3-1-2-2.5-2-4.6s0.8-3.7,2.3-4.8s3.4-1.7,5.6-1.7c1.4,0,2.8,0.2,4.3,0.7c1.4,0.5,2.6,1.1,3.6,2
			l-2,2.8c-0.7-0.6-1.6-1.1-2.7-1.5S456.6,547.4,455.5,547.4z"/>
		<path id="XMLID_309_" d="M469.7,564.7c-1.6-1.6-2.4-3.8-2.4-6.4c0-2.6,0.8-4.8,2.5-6.3c1.6-1.6,3.6-2.4,5.8-2.4s4.1,1.1,5.5,3.2
			v-2.9h3.6v17h-3.6v-2.8c-0.7,1-1.6,1.7-2.6,2.3c-1.1,0.5-2.1,0.8-3.2,0.8C473.2,567.1,471.3,566.3,469.7,564.7z M470.9,558.4
			c0,1.6,0.5,3,1.6,4c1,1,2.3,1.5,3.7,1.5s2.6-0.5,3.6-1.6c1-1,1.5-2.4,1.5-4s-0.5-3-1.5-4.1s-2.2-1.6-3.6-1.6s-2.7,0.5-3.7,1.6
			S470.9,556.8,470.9,558.4z"/>
		<path id="XMLID_312_" d="M491.2,564.7c-1.6-1.6-2.4-3.8-2.4-6.4c0-2.6,0.8-4.8,2.5-6.3c1.6-1.6,3.6-2.4,5.9-2.4s4.1,1,5.5,2.9
			v-9.3h3.6v23.7h-3.6v-2.6c-1.3,1.9-3.3,2.8-5.8,2.8C494.7,567.1,492.8,566.3,491.2,564.7z M492.4,558.4c0,1.6,0.5,3,1.6,4
			c1,1,2.3,1.5,3.7,1.5s2.6-0.5,3.6-1.6c1-1,1.5-2.4,1.5-4s-0.5-3-1.5-4.1s-2.2-1.6-3.6-1.6s-2.7,0.5-3.7,1.6
			S492.4,556.8,492.4,558.4z"/>
	</g>
	<g id="halo_2_">
		<path id="XMLID_275_" class="st6" d="M477.9,532.7c-51.3,0-92.9-44.3-92.9-92.9c0-54,41.6-92.9,92.9-92.9s92.9,38.9,92.9,92.9
			C570.8,488.4,529.2,532.7,477.9,532.7z"/>
	</g>
</g>
<g class="shocked-emoji">
	<g id="shocked">
		<circle id="XMLID_93_" class="st0" cx="643" cy="596.7" r="86"/>
		<g id="XMLID_78_" class="st1">
			<g id="XMLID_79_">
				<g id="XMLID_80_">
					<path id="XMLID_92_" class="st2" d="M646.6,527.5c5.7,0,11.2,0.9,16.7,2.2c9.8,2.6,18.8,7.2,26.4,13.6
						c5.9,5,10.9,10.5,15.2,16.9c4.1,6.4,7.4,13.6,9.3,20.9c2.9,10.5,3.1,20.7,2.2,31.4c0,0.7-0.2,1.9,0.7,2.2
						c1.2,0.5,2.1-2.4,2.2-2.9c0.9-2.6,1.7-5.2,2.4-7.8c0.5-2.2,1.4-4.5,1-6.7c-1-9.8-2.8-18.8-6.6-28c-3.6-8.5-8.5-16.4-14.5-23.3
						c-5.4-6-11.6-11.2-18.3-15.7c-14.3-9.7-31.6-13.6-48.3-14.8c-3.1-0.2,1.9,4.7,1.7,4.5c1.9,1.9,4,3.6,6,5.4
						C643.8,526.3,645.1,527,646.6,527.5z"/>
					<path id="XMLID_91_" class="st2" d="M648.7,522.2c5.5,0,11,0.7,16.6,2.1c6.9,3.1,13.6,6.2,20.5,9.3c7.6,4.7,13.8,11.6,19,18.8
						c4.5,6.4,7.8,13.1,10.2,20.5c1.2,3.6,2.2,7.4,2.8,11.2c1.2,7.9,1.2,15.9,0,24c-0.2,1.9,1.6,1.9,2.4,0.7
						c0.7-1.4,1.2-2.9,1.7-4.5s0.9-3.1,1-4.7c0-7.1-0.2-13.8-1.6-20.7c-1-5.4-2.6-10.5-4.7-15.5c-5.2-12.6-13.5-23.6-24-32.3
						c-5.5-4.5-11.4-7.9-17.6-11c-10.4-5.4-21.9-7.2-33.3-8.1c-2.6-0.2,0.2,3.5,0.3,3.8c1.2,1.6,2.6,3.1,4,4.7
						C646.8,521.3,647.6,521.8,648.7,522.2z"/>
					<path id="XMLID_90_" class="st2" d="M649.9,526.3c8.5,0.5,16.4,1.4,24.3,4.7c17.1,7.1,31.8,21.1,39.4,37.8
						c2.6,5.9,4.8,12.1,5.9,18.3c1.4,8.1,1.2,15.9,0.5,24c0,0.7-0.2,1.7,0.5,2.2c1,0.7,2.2-2.1,2.4-2.6c1-2.4,2.1-4.8,2.9-7.2
						c0.7-1.9,1.7-4.1,1.6-6.4c-0.2-6-1-11.9-2.4-17.6c-1.4-5.7-3.3-11-5.7-16.2c-4.8-10.2-11.7-19.5-20-27.1s-18.1-13.3-28.7-17.4
						c-5.2-2.1-10.7-3.8-16.2-4.8c-5.4-1.4-11-2.2-16.6-2.2c-3.3-0.3,1.7,5,1.7,5c2.1,2.2,4.1,4.5,6.4,6.7
						C647.1,524.6,648.3,525.6,649.9,526.3z"/>
					<path id="XMLID_89_" class="st2" d="M654.7,532c5.7,0,11.2,0.9,16.7,2.2c9.8,2.8,18.6,7.4,26.4,14c5.7,5,10.7,10.7,14.7,17.3
						s7.1,13.8,9,21.2c2.8,10.7,2.4,21.1,1.2,31.9c-0.2,1.4,1,1.9,2.1,1.2c1.4-0.9,3.5-4.5,3.5-6c0.3-7.6,0.7-15-0.5-22.6
						c-1-5.9-2.4-11.4-4.5-16.9c-5.4-13.5-13.6-24.7-24.9-33.7c-5.5-4.5-11.4-7.9-17.8-10.9c-10.5-5-21.9-7.1-33.5-7.9
						c-2.6-0.2,0.5,3.6,0.7,3.8c1.4,1.6,2.8,2.9,4.3,4.3C652.6,531.2,653.7,531.8,654.7,532z"/>
					<path id="XMLID_88_" class="st2" d="M654.5,527.4c8.5,0.7,16.2,1.6,24.3,4.7c8.5,2.9,15.2,8.3,20.5,15.9
						c7.8,4.8,13.5,11.2,17.1,19.3c3.3,7.1,5.9,14.5,6.9,22.3c1,8.3,0.7,16.1-0.2,24.3c-0.2,1.6,1,1.9,2.2,1.2
						c0.9-1,1.6-2.2,2.2-3.5s1.2-2.4,1.6-3.8c0.3-7.6,0.3-14.8-0.9-22.4c-1.2-7.1-3.1-14.3-6.4-20.9c-2.8-5.7-5.7-10.7-9.5-15.7
						c-6-7.9-13.6-14.8-22.1-20c-6-3.8-12.4-6.9-19.3-9.1c-8.1-2.8-16.2-4-24.7-4.7c-2.8-0.2,0.3,4,0.7,4.3c1.4,1.9,2.9,3.8,4.5,5.5
						C652.5,526,653.3,526.8,654.5,527.4z"/>
					<path id="XMLID_87_" class="st2" d="M648,525.6c14,0,23,1,35.7,10.7c5,3.8,9.5,8.1,13.5,13.1c4.1,4.7,6.7,10,8.3,16.2
						c4.1,6.4,6.6,13.3,7.2,20.9c0.9,7.8,0.3,15.2-0.7,23c-0.3,2.8,2.8,3.3,3.1,0.5c1-7.9,1.7-15.7,0.7-23.6
						c-0.7-5.2-1.7-10.4-3.5-15.4c-2.1-6.4-5.2-12.4-8.8-18.1c-6.4-9.8-14.8-18.3-25.2-23.8c-2.4-1.4-4.8-2.6-7.4-3.5
						s-5-1.7-7.6-2.6c-5-0.9-10-1-15-0.5C646.4,522.4,645.9,525.6,648,525.6z"/>
					<path id="XMLID_86_" class="st2" d="M644.5,527.2c10.5,0.9,21.1,2.6,30.4,7.8c22.4,12.3,34.9,31.8,38.7,61.6
						c-0.2-1.7-0.2-3.6-0.3-5.4c0.2,4.5,0.3,8.8,0.3,13.3c0-1.9,0.2-3.6,0.2-5.5c-0.3,4.5-0.7,9-1,13.5c-0.2,2.2,1.7,1.9,2.4,0.5
						c0.5-1.7,1-3.6,1.4-5.5s0.7-3.6,0.7-5.5c-0.3-10.7-1.7-21.1-5.7-31.1c-4.1-10.7-10.7-20.4-19-28.5
						c-7.4-7.2-16.2-12.9-26.1-16.7c-9.5-3.8-19-5.2-29-6c-0.5,0.2-0.9,0.5-0.9,1c0.2,0.9,0.7,1.7,1.6,2.2
						C639.7,524.6,642.1,527,644.5,527.2z"/>
					<path id="XMLID_85_" class="st2" d="M649,533.6c5.2,0.7,10.4,1.4,15.5,2.1c2.6,0.9,5,1.6,7.6,2.4c6,2.2,11.6,5.5,16.7,9.5
						c8.3,5.7,13.5,14,15.5,25c8.1,7.8,12.4,16.6,12.9,26.6c0.7,6.7,0.3,13.1-0.3,19.8c-0.2,1.9,1.2,2.2,2.2,0.9
						c0.9-1.6,1.6-3.1,2.1-4.7c0.7-1.6,1.2-3.3,1.6-5c-0.2-5.9-0.3-11.6-1.4-17.4c-1-5.4-2.6-10.9-4.7-16.1
						c-4.5-11-11.6-21.1-20.4-29.2c-7.8-7.2-16.9-12.6-26.8-16.4c-9.5-3.5-19-4.8-29.2-5.5c-2.6-0.2,1.2,3.6,1,3.5
						C643.7,530.8,646.4,533.4,649,533.6z"/>
					<path id="XMLID_84_" class="st2" d="M654.2,522.4c10.9,0.9,20.7,2.2,30.5,7.9c5.7,3.3,10.9,7.1,15.5,11.7
						c4.5,4.5,8.6,9.5,11.9,15.2c9.1,16.2,11.6,32.1,9,52.5c-0.2,1,0.3,2.4,1.9,1.9c1.4-0.5,1.9-2.9,1.9-4.1
						c0.7-5.7,0.9-7.4,0.9-12.3c0-4.1-0.3-7.9-0.7-12.1c-1.2-10.9-5.5-22.8-11.6-31.9c-6.9-10.7-15.7-19.5-26.6-25.9
						c-4-2.4-7.8-4.3-12.1-5.9c-2.8-0.9-5.4-1.7-8.1-2.6c-5.4-1.6-10.9-2.4-16.4-2.6c-2.1-0.2-0.9,2.4-0.5,3.1
						C650.6,518.6,652.5,522.4,654.2,522.4z"/>
					<path id="XMLID_83_" class="st2" d="M645.9,531.5c9.3,0.5,18.3,2.2,26.6,6c28.1,12.8,44.7,39.9,41.4,79.2
						c-0.2,2.2,1.6,2.1,2.4,0.5c0.7-1.9,1.4-3.8,1.7-5.7c0.5-1.9,0.9-3.8,1-5.9c-0.3-5.5-0.7-11-1.7-16.6c-1-5.2-2.8-10.4-4.8-15.2
						c-4.5-10.7-11.2-20.2-19.7-28.1c-7.6-7.1-16.4-12.4-26.2-16.2c-9.5-3.6-18.8-4.8-28.8-5.5c-0.7,0.2-0.9,0.5-0.9,1.2
						c0.3,1,0.9,1.7,1.9,2.2C640.6,529.1,643.3,531.5,645.9,531.5z"/>
					<path id="XMLID_82_" class="st2" d="M652.8,522.2c5.5,0,11,0.7,16.4,1.9c2.6,0.9,5.2,1.7,7.6,2.6c4.8,1.9,9.3,4.5,13.6,7.6
						c5.2,3.5,9.5,7.9,12.8,13.5c4.5,4.5,7.8,9.5,10.2,15.4c1.6,3.5,2.8,7.1,3.6,10.7c3.1,11.9,2.9,22.8,1,35
						c-0.2,0.9,1,1.6,1.9,1.4c1-0.2,1.4-1,1.4-2.1c1.4-9.5,1.9-18.8,0.2-28.5c-1.9-11.6-6.4-23.1-13.6-32.6
						c-4.8-6.4-10.4-12.3-16.9-16.9c-4.5-3.1-9.1-5.7-14.2-7.9c-7.9-3.5-15.7-4.1-24.2-4.7c-0.9,0-1.9,0.3-2.1,1.4
						C650.8,519.9,652.1,522.2,652.8,522.2z"/>
					<path id="XMLID_81_" class="st2" d="M645.9,527.9c11,0.2,19.3,1,29.5,6.9c2.1,1.4,4.3,2.8,6.4,4.1c6,4.1,10.9,9.5,14.2,16.4
						c4.5,4.3,7.8,9.3,9.7,14.8c1.6,3.3,2.6,6.7,3.5,10.4c2.2,10,2.2,19.5,1.2,29.9c-0.2,1.2-0.3,2.9,1.2,3.1
						c1.6,0.2,1.7-1.6,1.9-2.8c0.7-6,1.2-9.7,0.9-15.9c-0.3-5.2-1-10.2-2.1-15.2c-2.2-9.8-6.7-19.5-12.8-27.6
						c-5.5-7.4-12.1-13.6-19.8-18.6c-3.5-2.2-7.1-4.1-11-5.7c-2.4-0.9-5-1.7-7.4-2.6c-5.2-1-10.2-1.4-15.4-1
						C643.5,524.4,643.8,527.9,645.9,527.9z"/>
				</g>
			</g>
		</g>
		<g id="XMLID_63_" class="st1">
			<g id="XMLID_64_">
				<g id="XMLID_65_">
					<path id="XMLID_77_" class="st2" d="M709.3,611.8c0,4-0.3,7.9-1.6,11.7c-2.1,10.4-7.2,19.3-15.5,27.1
						c-5.2,5.2-11.7,9.7-18.3,12.8c-7.1,3.3-14.5,5.9-22.3,7.1c-8.3,1.2-16.4,1.2-24.9,0.3c-0.7,0-1.9-0.2-2.2,0.5
						c-0.7,1,2.2,2.2,2.8,2.4c2.4,1.2,4.8,2.1,7.2,2.9c2.1,0.7,4.1,1.7,6.4,1.6c3.1-0.2,6-0.3,9.1-0.5c6-0.9,11.9-2.2,17.6-4.3
						c10.9-3.8,20.9-9.8,29.3-17.4c8.1-7.4,14.3-16.4,19-26.4c2.2-4.8,4-9.8,5.2-15c1.4-5,2.2-10.2,2.2-15.5c0.3-3.3-5.2,2.1-5,1.9
						c-2.2,2.1-4.3,4.3-6.6,6.6C710.8,609,709.8,610.2,709.3,611.8z"/>
					<path id="XMLID_76_" class="st2" d="M710.3,606.6c-0.2,2.6-0.3,5.2-0.7,7.8c-0.9,5.9-2.8,11.4-5.9,16.4
						c-14,25.4-41.1,36.4-76.1,34c-2.4-0.2-2.2,1.6-0.5,2.4c2.1,0.7,4.1,1.2,6.4,1.7c2.1,0.5,4.3,0.9,6.6,1
						c11.2-0.7,21.7-2.2,32.3-6.6c9.5-4,18.5-9.7,25.9-16.9c7.2-7.1,12.9-15.7,16.6-25.2c2.9-7.6,4.1-15.5,4.8-23.6
						c0.2-2.6-3.8,1.2-3.8,1.2C714.1,600.7,710.5,603.8,710.3,606.6z"/>
					<path id="XMLID_75_" class="st2" d="M712.9,610.4c0,5.2-0.9,10.4-2.4,15.4c-0.9,2.2-1.7,4.7-2.8,6.9
						c-5.4,12.1-15.7,21.4-27.1,27.8c-6.9,3.8-14.2,6.4-21.7,8.1c-9.7,2.1-18.8,2.1-28.7,1.2c-2.2-0.2-2.6,1.2-0.7,2.4
						c2.1,0.9,4.1,1.7,6.2,2.4c2.1,0.7,4.3,1.4,6.6,1.7c9.3-0.3,18.5-1.2,27.4-4.3c7.8-2.6,15.2-6.2,22.1-10.9
						c6.9-4.7,13.5-10.5,18.5-17.3c4.7-6.4,9-13.5,11.6-21.1c0.9-2.6,1.6-5.2,2.4-7.6c1.4-5,2.2-10.2,2.4-15.4
						c0.3-3.1-4.7,1.4-4.7,1.4c-2.1,1.9-4.1,3.8-6,5.7C714.4,607.8,713.6,609,712.9,610.4z"/>
					<path id="XMLID_74_" class="st2" d="M714.1,617.1c0,3.8-0.3,7.6-1.4,11.2c-0.7,3.6-1.9,7.1-3.6,10.4
						c-3.3,6.6-8.1,12.9-13.6,17.6c-11.7,9.8-26.6,16.1-41.8,17.4c-8.3,0.7-16.4,0-24.7-0.9c-0.9-0.2-1.7,0.5-1.7,1.6
						c0,1,1.2,1.7,2.1,1.9c7.2,0.9,14.3,1.4,21.6,1c4.3-0.3,8.6-0.9,12.8-1.6c7.1-1.4,13.6-3.8,20-7.1c10.9-5.4,20.9-13.5,27.6-23.6
						c2.9-4.3,5.2-9.5,6.9-14.3c1.9-5.7,2.1-9.8,2.8-15.7C721,611.6,714.3,615.2,714.1,617.1z"/>
					<path id="XMLID_73_" class="st2" d="M715.1,612.4c0,7.4-1.6,14.5-4.8,21.2c-2.1,4.5-4.8,8.6-8.1,12.3
						c-17.3,20-44.4,25.7-71.1,23c-1.4-0.2-1.4,1.7-0.7,2.4c1.2,1.2,4.3,1.7,6,1.9c8.1,0.5,15.9,0.3,24-0.7c8.3-1.2,17.3-4,24.5-7.9
						c10.7-5.5,19.8-13.1,26.9-23.1c3.8-5.4,6.6-11.2,8.6-17.6c1.7-5.4,2.2-10.2,2.8-15.9c0.2-2.1-2.6-0.7-3.1-0.3
						C718.4,608.6,715.3,610.5,715.1,612.4z"/>
					<path id="XMLID_72_" class="st2" d="M703.9,606.9c0.3,6.2-1.2,11.9-4.3,17.4c-8.6,29.5-34.2,42.6-76.6,39
						c-1.2-0.2-4.3,0-2.6,1.9c0.7,0.9,2.2,1,3.3,1.2c1.7,0.3,3.6,0.9,5.4,0.9c10.2,0.2,19.5-0.7,29.5-3.5c7.6-2.1,15-5.7,21.6-10
						c6.2-4.1,11.4-9,16.1-14.7c2.9-3.5,5.5-8.1,7.4-12.4c3.3-7.4,4.3-14.7,5-22.6c0-1-1.2-1.7-2.1-1.4
						C705.5,603.5,703.9,605.9,703.9,606.9z"/>
					<path id="XMLID_71_" class="st2" d="M705.6,610.9c0,7.2-1.6,14.3-4.7,21.1c-2.1,4.5-4.7,8.5-7.8,12.3
						c-4.8,5.7-10.4,10.4-16.7,14.3c-6.4,4-13.8,6.9-21.1,8.8c-10.9,2.8-21.4,2.8-32.4,1.7c-0.7,0-1.7-0.2-2.1,0.5
						c-0.5,1,1.9,2.1,2.4,2.4c2.1,1,4.3,1.9,6.6,2.6c1.9,0.7,3.8,1.4,5.9,1.4c9.1-0.3,17.8-1.6,26.4-4.7c9.1-3.3,17.4-7.8,25-13.8
						c8.5-6.6,15-14.7,20-24c1.7-3.5,3.5-6.9,4.8-10.5c2.8-7.6,4-15.4,4.7-23.5c0.3-3.1-4.5,2.1-4.1,1.7c-1.7,1.9-3.3,4-4.7,5.9
						C706.5,608.5,705.8,609.5,705.6,610.9z"/>
					<path id="XMLID_70_" class="st2" d="M709.4,617.5c0,5.2-0.9,10.4-2.4,15.4c-3.5,6-6.9,12.3-10.4,18.3
						c-5.4,6.9-12.9,12.1-20.5,16.1c-7.1,3.6-14.5,6-22.3,7.4c-9.8,1.7-19.2,1.4-29,0c-1.2-0.2-1.7,1.4-1.2,2.2
						c0.7,1.2,3.8,2.6,5.4,2.8c6,0.5,11.9,1,18.1,0.7c7.4-0.3,14.7-2.1,21.9-4.5c5.5-1.9,10.7-4.3,15.7-7.2
						c5.9-3.5,12.1-7.9,16.6-13.1c3.6-4.3,6.7-8.6,9.7-13.3c2.4-3.8,4-7.8,5.4-12.1c1-2.4,1.7-5,2.2-7.6c1-3.8,1.7-7.6,1.7-11.6
						c0.2-2.6-3.5-0.2-3.8,0.2c-1.7,1.2-3.3,2.4-4.8,3.6C710.5,615.6,709.8,616.4,709.4,617.5z"/>
					<path id="XMLID_69_" class="st2" d="M712.4,607.6c-0.5,7.6-1.4,14.8-5,21.7c-4.1,5.5-8.3,10.9-12.6,16.4
						c-16.9,14.8-38.3,20.7-64,17.4c-1.2-0.2-2.8,0.2-2.2,1.9c0.5,1.6,4.1,1.6,5.4,1.7c8.1,0.5,16.1,0.7,24.2-0.7
						c7.4-1.2,14.7-3.5,21.6-6.6c9.3-4.3,18.5-10.9,24.9-19c3.1-4,5.9-7.9,7.9-12.6c0.9-2.4,1.7-4.7,2.8-7.1
						c1.4-4.8,2.1-9.7,2.1-14.5C717.4,602.8,712.5,605.5,712.4,607.6z"/>
					<path id="XMLID_68_" class="st2" d="M706.5,615.2c0,5.4-0.9,10.4-2.4,15.4c-3.3,6-6.7,12.1-10,17.9
						c-5.2,6.9-12.6,12.1-20.2,16.1c-6.9,3.8-14.2,6.2-21.9,7.8c-4,0.9-7.9,1.4-12.1,1.6c-5.7,0.3-11.2,0-16.9-0.9
						c-1.7-0.2-2.2,0.9-1,2.2c1.4,1,2.8,1.7,4.3,2.6c1.6,0.9,2.9,1.4,4.7,1.9c6.4,0.2,12.1,0.5,18.5-0.5c3.5-0.5,6.9-1.2,10.2-2.1
						c8.5-2.4,16.6-5.9,24-10.7c7.1-4.7,13.3-10.4,18.6-16.9c4.3-5.2,7.4-11.4,10.2-17.4c1.7-3.6,3.1-7.4,4-11.2
						c1.6-5,2.2-10.2,2.4-15.4c0.3-2.9-4.3,1.2-4.3,1.2c-1.9,1.7-3.6,3.5-5.4,5.4C707.7,612.8,707,613.8,706.5,615.2z"/>
					<path id="XMLID_67_" class="st2" d="M709.4,605.9c0,7.4-1.7,14.7-5,21.4c-2.9,6.6-7.6,11.6-14,15.4c-4.5,5.5-10,9.7-16.6,12.3
						c-14,6-28.8,8.1-44.5,6c-1-0.2-3.5-0.7-3.8,1c-0.2,1.7,2.2,1.9,3.3,2.1c8.1,0.7,16.1,0.9,24.2,0c11.2-1.4,22.3-5.5,31.8-11.6
						c5.4-3.5,10.4-7.4,14.7-12.3c4.8-5.5,9-12.1,11.2-19.2c1.9-5.5,2.1-10.2,2.6-16.1c0-0.9-1.2-1.7-1.9-1.6
						C710.5,603.6,709.4,605.2,709.4,605.9z"/>
					<path id="XMLID_66_" class="st2" d="M702.7,608.8c0.2,4-0.3,7.8-1.6,11.6c-6.4,31.4-33.7,46.6-81.6,45.6
						c-1.7-0.2-1.7,1.6-0.7,2.4c1.4,0.7,2.8,1.2,4.1,1.6c1.4,0.5,2.9,0.9,4.3,1c8.8,0,16.9-0.3,25.4-2.6c4.8-1.2,9-2.8,13.5-4.7
						c6.2-2.8,11.7-6.2,17.1-10.4c5-4,9.7-8.6,13.3-13.8c2.8-4,5.4-8.5,7.1-12.8c0.7-2.4,1.6-4.7,2.2-7.1c1.4-4.8,2.1-10,2.2-15
						c0.2-1.4-0.9-1.9-2.1-1.4C705.1,603.6,702.9,607.3,702.7,608.8z"/>
				</g>
			</g>
		</g>
		<circle id="XMLID_62_" class="st3" cx="608.8" cy="576.5" r="15"/>
		<circle id="XMLID_61_" cx="607.4" cy="578.6" r="4.7"/>
		<path id="XMLID_60_" class="st5" d="M636.4,592.8c1.7,5.9-3.3,13.5,1,17.8c2.8,2.8,8.3,1.6,9.5-2.1"/>
		<circle id="XMLID_134_" class="st3" cx="677.5" cy="576.5" r="15"/>
		<circle id="XMLID_209_" cx="676.1" cy="578.6" r="4.7"/>
		<ellipse id="XMLID_210_" class="st4" cx="642.5" cy="640.4" rx="11.2" ry="13.1"/>
		<path id="XMLID_213_" class="st4" d="M586.9,554.6c8.3,0.7,16.6-1.9,23.1-6.9"/>
		<path id="XMLID_214_" class="st4" d="M692.5,552.9c-8.3,0.7-16.6-1.9-23.1-6.9"/>
	</g>
	<g id="XMLID_253_">
		<path id="XMLID_315_" d="M586.2,702.1c-1.1,0-2,0.2-2.7,0.7s-1.1,1.1-1.1,2s0.4,1.6,1.1,2.1s2.2,1,4.5,1.6s4,1.3,5.2,2.3
			s1.7,2.5,1.7,4.4c0,2-0.7,3.5-2.2,4.8c-1.5,1.2-3.4,1.8-5.8,1.8c-3.5,0-6.6-1.2-9.3-3.6l2.4-2.8c2.3,2,4.6,2.9,7,2.9
			c1.2,0,2.2-0.3,2.9-0.8c0.7-0.5,1.1-1.2,1.1-2.1s-0.3-1.5-1-2s-1.8-0.9-3.5-1.3c-1.6-0.4-2.9-0.8-3.7-1.1
			c-0.9-0.3-1.6-0.8-2.3-1.3c-1.3-1-2-2.5-2-4.6s0.8-3.7,2.3-4.8s3.4-1.7,5.6-1.7c1.4,0,2.8,0.2,4.3,0.7c1.4,0.5,2.6,1.1,3.6,2
			l-2,2.8c-0.7-0.6-1.6-1.1-2.7-1.5C588.5,702.2,587.3,702.1,586.2,702.1z"/>
		<path id="XMLID_317_" d="M602.7,712.3v9.2h-3.6v-23.7h3.6v9.8c0.5-1,1.3-1.9,2.3-2.5s2.1-0.9,3.3-0.9c1.9,0,3.5,0.6,4.7,1.8
			s1.8,2.9,1.8,5.1v10.4h-3.6v-9.3c0-3.1-1.3-4.7-3.9-4.7c-1.2,0-2.3,0.4-3.2,1.2S602.7,710.7,602.7,712.3z"/>
		<path id="XMLID_319_" d="M634,719.3c-1.7,1.7-3.8,2.5-6.4,2.5c-2.6,0-4.7-0.8-6.4-2.5s-2.6-3.8-2.6-6.2s0.9-4.5,2.6-6.2
			c1.7-1.7,3.8-2.5,6.4-2.5c2.6,0,4.7,0.8,6.4,2.5s2.6,3.8,2.6,6.2S635.7,717.6,634,719.3z M623.8,717c1,1,2.3,1.6,3.9,1.6
			s2.8-0.5,3.9-1.6c1-1,1.5-2.4,1.5-4s-0.5-3-1.5-4s-2.3-1.6-3.9-1.6s-2.8,0.5-3.9,1.6c-1,1-1.5,2.4-1.5,4S622.8,716,623.8,717z"/>
		<path id="XMLID_322_" d="M648.2,721.8c-2.4,0-4.4-0.8-6.1-2.4c-1.7-1.6-2.6-3.7-2.6-6.3s0.9-4.7,2.7-6.4s4-2.4,6.5-2.4
			c2.6,0,4.7,0.9,6.5,2.7l-2.1,2.6c-1.5-1.3-3-1.9-4.4-1.9s-2.8,0.5-3.9,1.5s-1.6,2.3-1.6,3.8c0,1.6,0.5,2.9,1.6,4s2.4,1.6,4,1.6
			s3.1-0.7,4.5-2.2l2.1,2.3C653.3,720.8,650.9,721.8,648.2,721.8z"/>
		<path id="XMLID_324_" d="M662.7,721.5h-3.6v-23.7h3.6v14l6.9-7.2h4.6l-6.5,6.8l6.9,10.3h-4.4l-5.1-7.5l-2.6,2.6v4.7H662.7z"/>
		<path id="XMLID_326_" d="M685.4,704.3c2.3,0,4.3,0.6,5.8,1.9c1.5,1.3,2.3,3,2.3,5v0.1l-12.4,5.2c1.1,1.4,2.6,2,4.5,2
			s3.5-0.7,4.7-2.2l2.1,2.3c-2,2.1-4.4,3.1-7.2,3.1c-2.4,0-4.5-0.8-6.2-2.4c-1.7-1.6-2.6-3.7-2.6-6.3c0-1.8,0.4-3.4,1.3-4.8
			c0.9-1.4,2-2.4,3.3-3C682.6,704.6,684,704.3,685.4,704.3z M680,713.1c0,0.3,0,0.5,0,0.6l9.4-4.1c-0.7-1.4-2-2.1-3.9-2.1
			c-1.4,0-2.7,0.5-3.9,1.5S680,711.4,680,713.1z"/>
		<path id="XMLID_329_" d="M698.6,719.4c-1.6-1.6-2.4-3.8-2.4-6.4c0-2.6,0.8-4.8,2.5-6.3c1.6-1.6,3.6-2.4,5.9-2.4
			c2.3,0,4.1,1,5.5,2.9v-9.3h3.6v23.7H710V719c-1.3,1.9-3.3,2.8-5.8,2.8C702.1,721.8,700.2,721,698.6,719.4z M699.8,713.1
			c0,1.6,0.5,3,1.6,4c1,1,2.3,1.5,3.7,1.5s2.6-0.5,3.6-1.6c1-1,1.5-2.4,1.5-4s-0.5-3-1.5-4.1s-2.2-1.6-3.6-1.6s-2.7,0.5-3.7,1.6
			S699.8,711.5,699.8,713.1z"/>
	</g>
	<g id="halo_1_">
		<circle id="XMLID_277_" class="st6" cx="642.6" cy="596.5" r="92.9"/>
	</g>
</g>
<g class="indifferent-emoji">
	<g id="XMLID_215_">
		<circle id="XMLID_250_" class="st0" cx="305.4" cy="598.6" r="86"/>
		<g id="XMLID_235_" class="st1">
			<g id="XMLID_236_">
				<g id="XMLID_237_">
					<path id="XMLID_249_" class="st2" d="M309.1,529.4c5.7,0,11.2,0.9,16.7,2.2c9.8,2.6,18.8,7.2,26.4,13.6
						c5.9,5,10.9,10.5,15.2,16.9c4.1,6.4,7.4,13.6,9.3,20.9c2.9,10.5,3.1,20.7,2.2,31.4c0,0.7-0.2,1.9,0.7,2.2
						c1.2,0.5,2.1-2.4,2.2-2.9c0.9-2.6,1.7-5.2,2.4-7.8c0.5-2.2,1.4-4.5,1-6.7c-1-9.8-2.8-18.8-6.6-28c-3.6-8.5-8.5-16.4-14.5-23.3
						c-5.4-6-11.6-11.2-18.3-15.7c-14.3-9.7-31.6-13.6-48.3-14.8c-3.1-0.2,1.9,4.7,1.7,4.5c1.9,1.9,4,3.6,6,5.4
						C306.3,528.2,307.5,528.9,309.1,529.4z"/>
					<path id="XMLID_248_" class="st2" d="M311.1,524c5.5,0,11,0.7,16.6,2.1c6.9,3.1,13.6,6.2,20.5,9.3c7.6,4.7,13.8,11.6,19,18.8
						c4.5,6.4,7.8,13.1,10.2,20.5c1.2,3.6,2.2,7.4,2.8,11.2c1.2,7.9,1.2,15.9,0,24c-0.2,1.9,1.6,1.9,2.4,0.7
						c0.7-1.4,1.2-2.9,1.7-4.5s0.9-3.1,1-4.7c0-7.1-0.2-13.8-1.6-20.7c-1-5.4-2.6-10.5-4.7-15.5c-5.2-12.6-13.5-23.6-24-32.3
						c-5.5-4.5-11.4-7.9-17.6-11c-10.4-5.4-21.9-7.2-33.3-8.1c-2.6-0.2,0.2,3.5,0.3,3.8c1.2,1.6,2.6,3.1,4,4.7
						C309.2,523.2,310.1,523.7,311.1,524z"/>
					<path id="XMLID_247_" class="st2" d="M312.3,528.2c8.5,0.5,16.4,1.4,24.3,4.7c17.1,7.1,31.8,21.1,39.4,37.8
						c2.6,5.9,4.8,12.1,5.9,18.3c1.4,8.1,1.2,15.9,0.5,24c0,0.7-0.2,1.7,0.5,2.2c1,0.7,2.2-2.1,2.4-2.6c1-2.4,2.1-4.8,2.9-7.2
						c0.7-1.9,1.7-4.1,1.6-6.4c-0.2-6-1-11.9-2.4-17.6c-1.4-5.7-3.3-11-5.7-16.2c-4.8-10.2-11.7-19.5-20-27.1s-18.1-13.3-28.7-17.4
						c-5.2-2.1-10.7-3.8-16.2-4.8c-5.4-1.4-11-2.2-16.6-2.2c-3.3-0.3,1.7,5,1.7,5c2.1,2.2,4.1,4.5,6.4,6.7
						C309.6,526.5,310.8,527.5,312.3,528.2z"/>
					<path id="XMLID_246_" class="st2" d="M317.2,533.9c5.7,0,11.2,0.9,16.7,2.2c9.8,2.8,18.6,7.4,26.4,14
						c5.7,5,10.7,10.7,14.7,17.3s7.1,13.8,9,21.2c2.8,10.7,2.4,21.1,1.2,31.9c-0.2,1.4,1,1.9,2.1,1.2c1.4-0.9,3.5-4.5,3.5-6
						c0.3-7.6,0.7-15-0.5-22.6c-1-5.9-2.4-11.4-4.5-16.9c-5.4-13.5-13.6-24.7-24.9-33.7c-5.5-4.5-11.4-7.9-17.8-10.9
						c-10.5-5-21.9-7.1-33.5-7.9c-2.6-0.2,0.5,3.6,0.7,3.8c1.4,1.6,2.8,2.9,4.3,4.3C315.1,533,316.1,533.7,317.2,533.9z"/>
					<path id="XMLID_245_" class="st2" d="M317,529.2c8.5,0.7,16.2,1.6,24.3,4.7c8.5,2.9,15.2,8.3,20.5,15.9
						c7.8,4.8,13.5,11.2,17.1,19.3c3.3,7.1,5.9,14.5,6.9,22.3c1,8.3,0.7,16.1-0.2,24.3c-0.2,1.6,1,1.9,2.2,1.2
						c0.9-1,1.6-2.2,2.2-3.5c0.7-1.2,1.2-2.4,1.6-3.8c0.3-7.6,0.3-14.8-0.9-22.4c-1.2-7.1-3.1-14.3-6.4-20.9
						c-2.8-5.7-5.7-10.7-9.5-15.7c-6-7.9-13.6-14.8-22.1-20c-6-3.8-12.4-6.9-19.3-9.1c-8.1-2.8-16.2-4-24.7-4.7
						c-2.8-0.2,0.3,4,0.7,4.3c1.4,1.9,2.9,3.8,4.5,5.5C314.9,527.8,315.8,528.7,317,529.2z"/>
					<path id="XMLID_244_" class="st2" d="M310.4,527.5c14,0,23,1,35.7,10.7c5,3.8,9.5,8.1,13.5,13.1c4.1,4.7,6.7,10,8.3,16.2
						c4.1,6.4,6.6,13.3,7.2,20.9c0.9,7.8,0.3,15.2-0.7,23c-0.3,2.8,2.8,3.3,3.1,0.5c1-7.9,1.7-15.7,0.7-23.6
						c-0.7-5.2-1.7-10.4-3.5-15.4c-2.1-6.4-5.2-12.4-8.8-18.1c-6.4-9.8-14.8-18.3-25.2-23.8c-2.4-1.4-4.8-2.6-7.4-3.5
						c-2.6-0.9-5-1.7-7.6-2.6c-5-0.9-10-1-15-0.5C308.9,524.2,308.4,527.5,310.4,527.5z"/>
					<path id="XMLID_243_" class="st2" d="M307,529c10.5,0.9,21.1,2.6,30.4,7.8c22.4,12.3,34.9,31.8,38.7,61.6
						c-0.2-1.7-0.2-3.6-0.3-5.4c0.2,4.5,0.3,8.8,0.3,13.3c0-1.9,0.2-3.6,0.2-5.5c-0.3,4.5-0.7,9-1,13.5c-0.2,2.2,1.7,1.9,2.4,0.5
						c0.5-1.7,1-3.6,1.4-5.5s0.7-3.6,0.7-5.5c-0.3-10.7-1.7-21.1-5.7-31.1c-4.1-10.7-10.7-20.4-19-28.5
						c-7.4-7.2-16.2-12.9-26.1-16.7c-9.5-3.8-19-5.2-29-6c-0.5,0.2-0.9,0.5-0.9,1c0.2,0.9,0.7,1.7,1.6,2.2
						C302.2,526.5,304.6,528.9,307,529z"/>
					<path id="XMLID_242_" class="st2" d="M311.5,535.4c5.2,0.7,10.4,1.4,15.5,2.1c2.6,0.9,5,1.6,7.6,2.4c6,2.2,11.6,5.5,16.7,9.5
						c8.3,5.7,13.5,14,15.5,25c8.1,7.8,12.4,16.6,12.9,26.6c0.7,6.7,0.3,13.1-0.3,19.8c-0.2,1.9,1.2,2.2,2.2,0.9
						c0.9-1.6,1.6-3.1,2.1-4.7c0.7-1.6,1.2-3.3,1.6-5c-0.2-5.9-0.3-11.6-1.4-17.4c-1-5.4-2.6-10.9-4.7-16.1
						c-4.5-11-11.6-21.1-20.4-29.2c-7.8-7.2-16.9-12.6-26.8-16.4c-9.5-3.5-19-4.8-29.2-5.5c-2.6-0.2,1.2,3.6,1,3.5
						C306.1,532.7,308.9,535.3,311.5,535.4z"/>
					<path id="XMLID_241_" class="st2" d="M316.7,524.2c10.9,0.9,20.7,2.2,30.5,7.9c5.7,3.3,10.9,7.1,15.5,11.7
						c4.5,4.5,8.6,9.5,11.9,15.2c9.1,16.2,11.6,32.1,9,52.5c-0.2,1,0.3,2.4,1.9,1.9c1.4-0.5,1.9-2.9,1.9-4.1
						c0.7-5.7,0.9-7.4,0.9-12.3c0-4.1-0.3-7.9-0.7-12.1c-1.2-10.9-5.5-22.8-11.6-31.9c-6.9-10.7-15.7-19.5-26.6-25.9
						c-4-2.4-7.8-4.3-12.1-5.9c-2.8-0.9-5.4-1.7-8.1-2.6c-5.4-1.6-10.9-2.4-16.4-2.6c-2.1-0.2-0.9,2.4-0.5,3.1
						C313,520.4,314.9,524.2,316.7,524.2z"/>
					<path id="XMLID_240_" class="st2" d="M308.4,533.4c9.3,0.5,18.3,2.2,26.6,6c28.1,12.8,44.7,39.9,41.4,79.2
						c-0.2,2.2,1.6,2.1,2.4,0.5c0.7-1.9,1.4-3.8,1.7-5.7c0.5-1.9,0.9-3.8,1-5.9c-0.3-5.5-0.7-11-1.7-16.6c-1-5.2-2.8-10.4-4.8-15.2
						c-4.5-10.7-11.2-20.2-19.7-28.1c-7.6-7.1-16.4-12.4-26.2-16.2c-9.5-3.6-18.8-4.8-28.8-5.5c-0.7,0.2-0.9,0.5-0.9,1.2
						c0.3,1,0.9,1.7,1.9,2.2C303,530.9,305.8,533.4,308.4,533.4z"/>
					<path id="XMLID_239_" class="st2" d="M315.3,524c5.5,0,11,0.7,16.4,1.9c2.6,0.9,5.2,1.7,7.6,2.6c4.8,1.9,9.3,4.5,13.6,7.6
						c5.2,3.5,9.5,7.9,12.8,13.5c4.5,4.5,7.8,9.5,10.2,15.4c1.6,3.5,2.8,7.1,3.6,10.7c3.1,11.9,2.9,22.8,1,35
						c-0.2,0.9,1,1.6,1.9,1.4c1-0.2,1.4-1,1.4-2.1c1.4-9.5,1.9-18.8,0.2-28.5c-1.9-11.6-6.4-23.1-13.6-32.6
						c-4.8-6.4-10.4-12.3-16.9-16.9c-4.5-3.1-9.1-5.7-14.2-7.9c-7.9-3.5-15.7-4.1-24.2-4.7c-0.9,0-1.9,0.3-2.1,1.4
						C313.2,521.8,314.6,524,315.3,524z"/>
					<path id="XMLID_238_" class="st2" d="M308.4,529.7c11,0.2,19.3,1,29.5,6.9c2.1,1.4,4.3,2.8,6.4,4.1c6,4.1,10.9,9.5,14.2,16.4
						c4.5,4.3,7.8,9.3,9.7,14.8c1.6,3.3,2.6,6.7,3.5,10.4c2.2,10,2.2,19.5,1.2,29.9c-0.2,1.2-0.3,2.9,1.2,3.1
						c1.6,0.2,1.7-1.6,1.9-2.8c0.7-6,1.2-9.7,0.9-15.9c-0.3-5.2-1-10.2-2.1-15.2c-2.2-9.8-6.7-19.5-12.8-27.6
						c-5.5-7.4-12.1-13.6-19.8-18.6c-3.5-2.2-7.1-4.1-11-5.7c-2.4-0.9-5-1.7-7.4-2.6c-5.2-1-10.2-1.4-15.4-1
						C306,526.3,306.3,529.7,308.4,529.7z"/>
				</g>
			</g>
		</g>
		<g id="XMLID_220_" class="st1">
			<g id="XMLID_221_">
				<g id="XMLID_222_">
					<path id="XMLID_234_" class="st2" d="M371.7,613.6c0,4-0.3,7.9-1.6,11.7c-2.1,10.4-7.2,19.3-15.5,27.1
						c-5.2,5.2-11.7,9.7-18.3,12.8c-7.1,3.3-14.5,5.9-22.3,7.1c-8.3,1.2-16.4,1.2-24.9,0.3c-0.7,0-1.9-0.2-2.2,0.5
						c-0.7,1,2.2,2.2,2.8,2.4c2.4,1.2,4.8,2.1,7.2,2.9c2.1,0.7,4.1,1.7,6.4,1.6c3.1-0.2,6-0.3,9.1-0.5c6-0.9,11.9-2.2,17.6-4.3
						c10.9-3.8,20.9-9.8,29.3-17.4c8.1-7.4,14.3-16.4,19-26.4c2.2-4.8,4-9.8,5.2-15c1.4-5,2.2-10.2,2.2-15.5c0.3-3.3-5.2,2.1-5,1.9
						c-2.2,2.1-4.3,4.3-6.6,6.6C373.3,610.9,372.2,612.1,371.7,613.6z"/>
					<path id="XMLID_233_" class="st2" d="M372.7,608.4c-0.2,2.6-0.3,5.2-0.7,7.8c-0.9,5.9-2.8,11.4-5.9,16.4
						c-14,25.4-41.1,36.4-76.1,34c-2.4-0.2-2.2,1.6-0.5,2.4c2.1,0.7,4.1,1.2,6.4,1.7c2.1,0.5,4.3,0.9,6.6,1
						c11.2-0.7,21.7-2.2,32.3-6.6c9.5-4,18.5-9.7,25.9-16.9c7.2-7.1,12.9-15.7,16.6-25.2c2.9-7.6,4.1-15.5,4.8-23.6
						c0.2-2.6-3.8,1.2-3.8,1.2C376.5,602.6,372.9,605.7,372.7,608.4z"/>
					<path id="XMLID_232_" class="st2" d="M375.3,612.2c0,5.2-0.9,10.4-2.4,15.4c-0.9,2.2-1.7,4.7-2.8,6.9
						c-5.4,12.1-15.7,21.4-27.1,27.8c-6.9,3.8-14.2,6.4-21.7,8.1c-9.7,2.1-18.8,2.1-28.7,1.2c-2.2-0.2-2.6,1.2-0.7,2.4
						c2.1,0.9,4.1,1.7,6.2,2.4c2.1,0.7,4.3,1.4,6.6,1.7c9.3-0.3,18.5-1.2,27.4-4.3c7.8-2.6,15.2-6.2,22.1-10.9s13.5-10.5,18.5-17.3
						c4.7-6.4,9-13.5,11.6-21.1c0.9-2.6,1.6-5.2,2.4-7.6c1.4-5,2.2-10.2,2.4-15.4c0.3-3.1-4.7,1.4-4.7,1.4c-2.1,1.9-4.1,3.8-6,5.7
						C376.9,609.6,376,610.9,375.3,612.2z"/>
					<path id="XMLID_231_" class="st2" d="M376.5,619c0,3.8-0.3,7.6-1.4,11.2c-0.7,3.6-1.9,7.1-3.6,10.4
						c-3.3,6.6-8.1,12.9-13.6,17.6c-11.7,9.8-26.6,16.1-41.8,17.4c-8.3,0.7-16.4,0-24.7-0.9c-0.9-0.2-1.7,0.5-1.7,1.6
						c0,1,1.2,1.7,2.1,1.9c7.2,0.9,14.3,1.4,21.6,1c4.3-0.3,8.6-0.9,12.8-1.6c7.1-1.4,13.6-3.8,20-7.1c10.9-5.4,20.9-13.5,27.6-23.6
						c2.9-4.3,5.2-9.5,6.9-14.3c1.9-5.7,2.1-9.8,2.8-15.7C383.4,613.4,376.7,617.1,376.5,619z"/>
					<path id="XMLID_230_" class="st2" d="M377.6,614.3c0,7.4-1.6,14.5-4.8,21.2c-2.1,4.5-4.8,8.6-8.1,12.3
						c-17.3,20-44.4,25.7-71.1,23c-1.4-0.2-1.4,1.7-0.7,2.4c1.2,1.2,4.3,1.7,6,1.9c8.1,0.5,15.9,0.3,24-0.7c8.3-1.2,17.3-4,24.5-7.9
						c10.7-5.5,19.8-13.1,26.9-23.1c3.8-5.4,6.6-11.2,8.6-17.6c1.7-5.4,2.2-10.2,2.8-15.9c0.2-2.1-2.6-0.7-3.1-0.3
						C380.9,610.5,377.8,612.4,377.6,614.3z"/>
					<path id="XMLID_229_" class="st2" d="M366.4,608.8c0.3,6.2-1.2,11.9-4.3,17.4c-8.6,29.5-34.2,42.6-76.6,39
						c-1.2-0.2-4.3,0-2.6,1.9c0.7,0.9,2.2,1,3.3,1.2c1.7,0.3,3.6,0.9,5.4,0.9c10.2,0.2,19.5-0.7,29.5-3.5c7.6-2.1,15-5.7,21.6-10
						c6.2-4.1,11.4-9,16.1-14.7c2.9-3.5,5.5-8.1,7.4-12.4c3.3-7.4,4.3-14.7,5-22.6c0-1-1.2-1.7-2.1-1.4
						C367.9,605.3,366.4,607.7,366.4,608.8z"/>
					<path id="XMLID_228_" class="st2" d="M368.1,612.8c0,7.2-1.6,14.3-4.7,21.1c-2.1,4.5-4.7,8.5-7.8,12.3
						c-4.8,5.7-10.4,10.4-16.7,14.3c-6.4,4-13.8,6.9-21.1,8.8c-10.9,2.8-21.4,2.8-32.4,1.7c-0.7,0-1.7-0.2-2.1,0.5
						c-0.5,1,1.9,2.1,2.4,2.4c2.1,1,4.3,1.9,6.6,2.6c1.9,0.7,3.8,1.4,5.9,1.4c9.1-0.3,17.8-1.6,26.4-4.7c9.1-3.3,17.4-7.8,25-13.8
						c8.5-6.6,15-14.7,20-24c1.7-3.5,3.5-6.9,4.8-10.5c2.8-7.6,4-15.4,4.7-23.5c0.3-3.1-4.5,2.1-4.1,1.7c-1.7,1.9-3.3,4-4.7,5.9
						C369,610.3,368.3,611.4,368.1,612.8z"/>
					<path id="XMLID_227_" class="st2" d="M371.9,619.3c0,5.2-0.9,10.4-2.4,15.4c-3.5,6-6.9,12.3-10.4,18.3
						c-5.4,6.9-12.9,12.1-20.5,16.1c-7.1,3.6-14.5,6-22.3,7.4c-9.8,1.7-19.2,1.4-29,0c-1.2-0.2-1.7,1.4-1.2,2.2
						c0.7,1.2,3.8,2.6,5.4,2.8c6,0.5,11.9,1,18.1,0.7c7.4-0.3,14.7-2.1,21.9-4.5c5.5-1.9,10.7-4.3,15.7-7.2
						c5.9-3.5,12.1-7.9,16.6-13.1c3.6-4.3,6.7-8.6,9.7-13.3c2.4-3.8,4-7.8,5.4-12.1c1-2.4,1.7-5,2.2-7.6c1-3.8,1.7-7.6,1.7-11.6
						c0.2-2.6-3.5-0.2-3.8,0.2c-1.7,1.2-3.3,2.4-4.8,3.6C372.9,617.4,372.2,618.3,371.9,619.3z"/>
					<path id="XMLID_226_" class="st2" d="M374.8,609.5c-0.5,7.6-1.4,14.8-5,21.7c-4.1,5.5-8.3,10.9-12.6,16.4
						c-16.9,14.8-38.3,20.7-64,17.4c-1.2-0.2-2.8,0.2-2.2,1.9c0.5,1.6,4.1,1.6,5.4,1.7c8.1,0.5,16.1,0.7,24.2-0.7
						c7.4-1.2,14.7-3.5,21.6-6.6c9.3-4.3,18.5-10.9,24.9-19c3.1-4,5.9-7.9,7.9-12.6c0.9-2.4,1.7-4.7,2.8-7.1
						c1.4-4.8,2.1-9.7,2.1-14.5C379.8,604.6,375,607.4,374.8,609.5z"/>
					<path id="XMLID_225_" class="st2" d="M369,617.1c0,5.4-0.9,10.4-2.4,15.4c-3.3,6-6.7,12.1-10,17.9
						c-5.2,6.9-12.6,12.1-20.2,16.1c-6.9,3.8-14.2,6.2-21.9,7.8c-4,0.9-7.9,1.4-12.1,1.6c-5.7,0.3-11.2,0-16.9-0.9
						c-1.7-0.2-2.2,0.9-1,2.2c1.4,1,2.8,1.7,4.3,2.6s2.9,1.4,4.7,1.9c6.4,0.2,12.1,0.5,18.5-0.5c3.5-0.5,6.9-1.2,10.2-2.1
						c8.5-2.4,16.6-5.9,24-10.7c7.1-4.7,13.3-10.4,18.6-16.9c4.3-5.2,7.4-11.4,10.2-17.4c1.7-3.6,3.1-7.4,4-11.2
						c1.6-5,2.2-10.2,2.4-15.4c0.3-2.9-4.3,1.2-4.3,1.2c-1.9,1.7-3.6,3.5-5.4,5.4C370.2,614.7,369.5,615.7,369,617.1z"/>
					<path id="XMLID_224_" class="st2" d="M371.9,607.7c0,7.4-1.7,14.7-5,21.4c-2.9,6.6-7.6,11.6-14,15.4c-4.5,5.5-10,9.7-16.6,12.3
						c-14,6-28.8,8.1-44.5,6c-1-0.2-3.5-0.7-3.8,1c-0.2,1.7,2.2,1.9,3.3,2.1c8.1,0.7,16.1,0.9,24.2,0c11.2-1.4,22.3-5.5,31.8-11.6
						c5.4-3.5,10.4-7.4,14.7-12.3c4.8-5.5,9-12.1,11.2-19.2c1.9-5.5,2.1-10.2,2.6-16.1c0-0.9-1.2-1.7-1.9-1.6
						C372.9,605.5,371.9,607.1,371.9,607.7z"/>
					<path id="XMLID_223_" class="st2" d="M365.2,610.7c0.2,4-0.3,7.8-1.6,11.6c-6.4,31.4-33.7,46.6-81.6,45.6
						c-1.7-0.2-1.7,1.6-0.7,2.4c1.4,0.7,2.8,1.2,4.1,1.6c1.4,0.5,2.9,0.9,4.3,1c8.8,0,16.9-0.3,25.4-2.6c4.8-1.2,9-2.8,13.5-4.7
						c6.2-2.8,11.7-6.2,17.1-10.4c5-4,9.7-8.6,13.3-13.8c2.8-4,5.4-8.5,7.1-12.8c0.7-2.4,1.6-4.7,2.2-7.1c1.4-4.8,2.1-10,2.2-15
						c0.2-1.4-0.9-1.9-2.1-1.4C367.6,605.5,365.3,609.1,365.2,610.7z"/>
				</g>
			</g>
		</g>
		<circle id="XMLID_219_" class="st3" cx="271.3" cy="578.4" r="15"/>
		<circle id="XMLID_218_" cx="266.4" cy="580.5" r="4.7"/>
		<path id="XMLID_217_" class="st5" d="M300.6,594.6c1.7,5.9-3.3,13.5,1,17.8c2.8,2.8,8.3,1.6,9.5-2.1"/>
		<circle id="XMLID_216_" class="st3" cx="340" cy="578.4" r="15"/>
		<circle id="XMLID_251_" cx="335.1" cy="580.5" r="4.7"/>
		<line id="XMLID_256_" class="st4" x1="278.3" y1="637.3" x2="334.1" y2="637.3"/>
	</g>
	<g id="XMLID_2_">
		<path id="XMLID_332_" d="M302.4,722.5c-2.3,2.2-5.1,3.3-8.4,3.3s-6.1-1.1-8.4-3.3s-3.4-5-3.4-8.3s1.1-6,3.4-8.3
			c2.3-2.2,5.1-3.3,8.4-3.3c3.3,0,6.1,1.1,8.4,3.3c2.3,2.2,3.4,5,3.4,8.3C305.7,717.5,304.6,720.2,302.4,722.5z M299.6,708.5
			c-1.5-1.6-3.4-2.4-5.6-2.4c-2.2,0-4.1,0.8-5.6,2.4c-1.5,1.6-2.3,3.5-2.3,5.7c0,2.3,0.8,4.2,2.3,5.7c1.5,1.6,3.4,2.4,5.6,2.4
			s4.1-0.8,5.6-2.4c1.5-1.6,2.3-3.5,2.3-5.7C301.9,711.9,301.1,710,299.6,708.5z"/>
		<path id="XMLID_335_" d="M310.5,703.2h3.8v10.9l10.2-10.9h4.8l-9,9.8l9.1,12.6H325l-7.4-9.8l-3.3,3.5v6.3h-3.8V703.2z"/>
	</g>
	<g id="halo_6_">
		<path id="XMLID_287_" class="st6" d="M306,692.2c-54,0-92.9-44.3-92.9-92.9c0-54,38.9-92.9,92.9-92.9c48.6,0,92.9,38.9,92.9,92.9
			C398.9,648,354.7,692.2,306,692.2z"/>
	</g>
</g>
</svg>
