<?xml version="1.0" encoding="utf-8"?>
<!-- Generator: Adobe Illustrator 19.0.0, SVG Export Plug-In . SVG Version: 6.00 Build 0)  -->
<svg version="1.1" id="hobbies-illustrations" xmlns="http://www.w3.org/2000/svg" xmlns:xlink="http://www.w3.org/1999/xlink"
	 x="0px" y="0px" viewBox="86 -92.1 768 1024" style="enable-background:new 86 -92.1 768 1024;" xml:space="preserve">
<style type="text/css">
	.st0{fill:none;stroke:#FFFFFF;stroke-miterlimit:10;}
	.st1{fill:#DFE3E5;}
	.st2{fill:#F9CA47;}
	.st3{fill:#FFFFFF;}
	.st4{fill:none;}
	.st5{fill:none;stroke:#000000;stroke-miterlimit:10;}
	.st6{fill:#FCBF04;}
	.st7{opacity:0.1091;fill:#E87325;enable-background:new    ;}
	.st8{fill:#067987;}
	.st9{fill:none;stroke:#FCBF04;stroke-miterlimit:10;}
	.st10{opacity:0.8;}
	.st11{fill:#10656B;}
	.st12{opacity:0.5;}
	.st13{fill:#DBA91F;}
	.st14{opacity:0.53;fill:none;stroke:#10656B;stroke-miterlimit:10;enable-background:new    ;}
	.st15{fill:none;stroke:#DBA91F;stroke-miterlimit:10;}
</style>
<path id="XMLID_37_" class="st0" d="M890.4,138.9"/>
<path id="XMLID_68_" class="st1" d="M436.3,280.5c-6.6,0.1-12.9,1.3-18.6,3.4c-5-19-25.1-32.9-49-32.6c-12.1,0.2-23.2,4-31.8,10.3
	c-8.7-6.1-19.9-9.6-32-9.4c-21.3,0.3-39.3,11.9-46.1,27.9c-1,0-2.1-0.1-3.1,0c-30.5,0.4-54.9,20.8-54.6,45.3s25.4,44.2,55.9,43.7
	c3.2,0,6.5-0.4,9.5-0.8c1.4,22.3,23.3,39.8,50.1,39.4c15.8-0.2,29.7-6.6,38.6-16.4c8.9,6.3,20.3,10.1,32.8,9.9
	c25.2-0.4,45.8-16.5,48.6-37.1c0.3,0,0.5,0,0.8,0c27.4-0.4,49.3-19.5,49-42.5S463.7,280.1,436.3,280.5z"/>
<path id="XMLID_65_" class="st1" d="M68.2-75.5c4.9,0.1,9.6-0.7,14-2.1c3.3,14.2,18.1,25,35.9,25.2c9.1,0.1,17.4-2.6,23.8-7
	c6.4,4.6,14.6,7.5,23.7,7.6c15.8,0.2,29.4-8.1,34.8-19.9c0.8,0,1.5,0.1,2.3,0.1c22.7,0.3,41.3-14.4,41.5-32.7s-18-33.4-40.7-33.6
	c-2.4,0-4.8,0.1-7.1,0.4c-0.6-16.6-16.6-30.1-36.5-30.3c-11.9-0.2-22.3,4.3-29.2,11.4c-6.4-4.9-14.9-7.9-24.3-8
	C87.6-164.7,72-153,69.5-137.7c-0.2,0-0.4,0-0.6,0C48.5-138,31.8-124.2,31.6-107C31.4-89.8,47.8-75.7,68.2-75.5z"/>
<circle id="XMLID_70_" class="st2" cx="855.8" cy="-34.7" r="57.4"/>
<path id="XMLID_74_" class="st3" d="M436.2,274c-6.6,0.1-12.9,1.2-18.6,3.2c-5-17.8-25.1-30.9-49-30.6c-12.1,0.2-23.2,3.8-31.8,9.7
	c-8.7-5.7-19.9-9-32-8.8c-21.3,0.3-39.3,11.2-46.1,26.2c-1,0-2.1-0.1-3.1,0c-30.5,0.4-54.9,19.5-54.6,42.5
	c0.4,23.1,25.4,41.5,55.9,41c3.2,0,6.5-0.4,9.5-0.8c1.4,20.9,23.3,37.4,50.1,37c15.8-0.2,29.7-6.2,38.6-15.4
	c8.9,5.9,20.3,9.5,32.8,9.3c25.2-0.4,45.8-15.5,48.6-34.8c0.3,0,0.5,0,0.8,0c27.4-0.4,49.3-18.3,49-39.9
	C485.9,291,463.5,273.6,436.2,274z"/>
<path id="XMLID_69_" class="st3" d="M68.2-83.5c4.9,0.1,9.6-0.7,14-2.1c3.3,14.2,18.1,25,35.9,25.2c9.1,0.1,17.4-2.6,23.8-7
	c6.4,4.6,14.6,7.5,23.7,7.6c15.8,0.2,29.4-8.1,34.8-19.9c0.8,0,1.5,0.1,2.3,0.1c22.7,0.3,41.3-14.4,41.5-32.7s-18-33.4-40.7-33.6
	c-2.4,0-4.8,0.1-7.1,0.4c-0.6-16.6-16.6-30.1-36.5-30.3c-11.9-0.2-22.3,4.3-29.2,11.4c-6.4-4.9-14.9-7.9-24.3-8
	C87.6-172.7,72-161,69.5-145.7c-0.2,0-0.4,0-0.6,0C48.5-146,31.8-132.2,31.6-115C31.4-97.8,47.8-83.7,68.2-83.5z"/>
<path id="XMLID_67_" class="st1" d="M825,144.4c-4.4,0.5-8.6,1.8-12.3,3.7c-4.6-13.8-19.2-23-35-21.2c-8.1,0.9-15.2,4.5-20.6,9.6
	c-6.3-3.9-14-5.9-22.1-5c-14.2,1.5-25.4,11.3-28.8,23.5c-0.8,0-1.3,0.1-2.1,0.1c-20.4,2.2-35.2,18.8-33.3,37.1
	c2,18.3,20.1,31.4,40.4,29.2c2.2-0.2,4.3-0.6,6.3-1.2c2.5,16.6,18.4,28.2,36.4,26.3c10.5-1.1,19.4-6.8,24.7-14.5
	c6.4,4.2,14.3,6.2,22.7,5.3c16.8-1.8,29.5-15.1,29.9-30.6c0.2,0,0.4,0,0.6,0c18.3-2,31.6-17.4,29.7-34.6
	C859.6,154.7,843.3,142.4,825,144.4z"/>
<path id="XMLID_66_" class="st3" d="M843.2,133.5c-4.9,0.5-9.5,1.8-13.6,3.7c-5-13.8-21.1-22.9-38.7-21c-9,0.9-16.8,4.6-22.8,9.7
	c-6.9-3.9-15.5-5.8-24.4-4.9c-15.7,1.6-28.2,11.4-32,23.7c-0.8,0-1.5,0.1-2.3,0.1c-22.6,2.3-39.1,19-37.1,37.3
	c2.1,18.3,22.1,31.3,44.5,28.9c2.4-0.2,4.8-0.6,6.9-1.2c2.7,16.6,20.2,28.1,40.1,26.1c11.7-1.2,21.5-6.9,27.4-14.7
	c7,4.2,15.8,6.2,25.1,5.2c18.6-1.9,32.7-15.2,33.2-30.8c0.2,0,0.4,0,0.6,0c20.3-2.1,35.1-17.6,33.1-34.8
	C881.3,143.7,863.4,131.5,843.2,133.5z"/>
<g id="XMLID_373_">
	<line id="XMLID_291_" class="st4" x1="807.4" y1="276.5" x2="756.5" y2="296.1"/>
	<path id="XMLID_289_" class="st5" d="M747.2,249.7"/>
	<g id="XMLID_286_">
		<path id="XMLID_31_" class="st6" d="M880.2,632C851.5,508.7,804.6,359.3,743,257.9c-3.2-5.3,2-12.2,8-13.8l7.7-2.1
			c6-1.7,10.5,2.6,14,7.7C835.9,342.2,883,475.1,917,602.1"/>
	</g>
	<g id="XMLID_292_">
		<g>
			<g>
				<g>
					<path class="st7" d="M764,298c15.1,6.6,30.3,13.1,45.4,19.7c0.2,0.1-0.1-0.6-0.2-0.7c-15.1-6.6-30.3-13.1-45.4-19.7
						C763.6,297.2,763.9,297.9,764,298z"/>
					<path class="st7" d="M764.1,297.3c15.1,6.6,30.3,13.1,45.4,19.7c0.2,0.1,0.2-0.3,0.1-0.3c-15.1-6.6-30.3-13.1-45.4-19.7
						C763.9,296.9,763.9,297.2,764.1,297.3z"/>
					<path class="st7" d="M764.3,297.9c15.1,6.6,30.3,13.1,45.4,19.7c0.2,0.1,0-0.7-0.2-0.8c-15.1-6.6-30.2-13.1-45.4-19.7
						C763.9,297,764.1,297.8,764.3,297.9z"/>
					<path class="st7" d="M764.6,298.4c15.1,6.6,30.3,13.1,45.4,19.7c0.2,0.1,0.1-0.4,0-0.5c-15.1-6.6-30.3-13.1-45.4-19.7
						C764.4,297.8,764.5,298.3,764.6,298.4z"/>
					<path class="st7" d="M764.7,297.9c15.1,6.6,30.3,13.1,45.4,19.7c0.2,0.1,0.1-0.5,0-0.6c-15.1-6.6-30.3-13.1-45.4-19.7
						C764.4,297.3,764.5,297.9,764.7,297.9z"/>
					<path class="st7" d="M763.7,297.8c15.1,6.6,30.3,13.1,45.4,19.7c0.2,0.1,0.1-0.3,0-0.4c-15.1-6.6-30.3-13.1-45.4-19.7
						C763.4,297.3,763.5,297.7,763.7,297.8z"/>
					<path class="st7" d="M764.1,298.4c15.1,6.6,30.3,13.1,45.4,19.7c0.3,0.1,0.1-0.4,0-0.5c-15.1-6.6-30.3-13.1-45.4-19.7
						C763.8,297.9,764,298.4,764.1,298.4z"/>
					<path class="st7" d="M764.5,297.2c15.1,6.6,30.3,13.1,45.4,19.7c0.1,0,0.3-0.1,0.2-0.1c-15.1-6.6-30.3-13.1-45.4-19.7
						C764.6,297.1,764.4,297.2,764.5,297.2z"/>
					<path class="st7" d="M763.8,298.2c15.1,6.6,30.3,13.1,45.4,19.7c0.3,0.1,0.1-0.4-0.1-0.5c-15.1-6.6-30.3-13.1-45.4-19.7
						C763.5,297.7,763.7,298.2,763.8,298.2z"/>
				</g>
			</g>
		</g>
	</g>
	<g id="XMLID_441_">
		<g>
			<g>
				<g>
					<path class="st7" d="M785.6,329.5c4-14.7,8-29.5,11.9-44.2c0.1-0.2-0.5,0.1-0.6,0.2c-4,14.7-8,29.5-11.9,44.2
						C785,329.9,785.6,329.7,785.6,329.5z"/>
					<path class="st7" d="M785.8,329c4-14.7,8-29.5,11.9-44.2c0.1-0.2-0.6,0-0.7,0.2c-4,14.7-8,29.5-11.9,44.2
						C785.1,329.4,785.8,329.2,785.8,329z"/>
					<path class="st7" d="M785.9,329.4c4-14.7,8-29.5,11.9-44.2c0.1-0.2-0.7,0.2-0.7,0.3c-4,14.7-8,29.5-11.9,44.2
						C785.1,329.9,785.9,329.6,785.9,329.4z"/>
					<path class="st7" d="M786.3,329.8c4-14.7,8-29.5,11.9-44.2c0.1-0.2-0.3-0.1-0.3,0c-4,14.7-8,29.5-11.9,44.2
						C785.9,330,786.3,329.9,786.3,329.8z"/>
					<path class="st7" d="M786.4,329.3c4-14.7,8-29.5,11.9-44.2c0-0.2-0.5,0.1-0.6,0.3c-4,14.7-8,29.5-11.9,44.2
						C785.7,329.8,786.3,329.5,786.4,329.3z"/>
					<path class="st7" d="M785.3,328.9c4-14.7,8-29.5,11.9-44.2c0,0-0.1-0.3-0.1-0.2c-4,14.7-8,29.5-11.9,44.2
						C785.2,328.8,785.3,329,785.3,328.9z"/>
					<path class="st7" d="M785.2,329.5c4-14.7,8-29.5,11.9-44.2c0-0.2-0.2-0.2-0.3-0.1c-4,14.7-8,29.5-11.9,44.2
						C784.9,329.6,785.2,329.6,785.2,329.5z"/>
					<path class="st7" d="M785.7,330.1c4-14.7,8-29.5,11.9-44.2c0-0.1-0.1-0.2-0.1-0.2c-4,14.7-8,29.5-11.9,44.2
						C785.5,330,785.7,330.1,785.7,330.1z"/>
					<path class="st7" d="M786.3,328.9c4-14.7,8-29.5,11.9-44.2c0.1-0.2-0.5,0-0.6,0.2c-4,14.7-8,29.5-11.9,44.2
						C785.7,329.3,786.2,329,786.3,328.9z"/>
					<path class="st7" d="M785.3,329.9c4-14.7,8-29.5,11.9-44.2l-0.1-0.2c-4,14.7-8,29.5-11.9,44.2
						C785.1,329.8,785.3,329.9,785.3,329.9z"/>
					<path class="st7" d="M786.1,328.7c4-14.7,8-29.5,11.9-44.2c0.1-0.2-0.4-0.1-0.4,0c-4,14.7-8,29.5-11.9,44.2
						C785.6,329,786,328.8,786.1,328.7z"/>
				</g>
			</g>
		</g>
	</g>
	<line id="XMLID_285_" class="st0" x1="738.6" y1="245.9" x2="790.5" y2="275.9"/>
	<line id="XMLID_281_" class="st0" x1="772.2" y1="233" x2="753.8" y2="290"/>
	<path id="XMLID_280_" class="st8" d="M850.4,254c48.7-8.2,75.5-30.5,82.9-46.9c2.5-5.5-44.9-25.4-93.6-17.2
		c-48.7,8.2-82.5,42.4-82.9,46.9C756.4,241.9,801.7,262.2,850.4,254z"/>
	<path id="XMLID_277_" class="st9" d="M841.6,204.8c-36.2,6.1-64.2,26.6-76.3,38.5"/>
	<path id="XMLID_273_" class="st9" d="M928.5,215.8c-14.6-7.5-50.4-17.2-86.9-11"/>
	<path id="XMLID_272_" class="st8" d="M713.2,316.3c-40.6,28.2-75.3,30.8-92,24.3c-5.6-2.2,14.4-49.5,55-77.7s88.7-27.3,92-24.3
		C772,241.9,753.9,288.2,713.2,316.3z"/>
	<path id="XMLID_271_" class="st9" d="M685.1,274.9c30.2-20.9,64.5-25.8,81.5-25.7"/>
	<path id="XMLID_270_" class="st9" d="M630.6,343.5c5.2-15.6,24-47.5,54.5-68.6"/>
	<line id="XMLID_269_" class="st9" x1="654.7" y1="303.2" x2="655.5" y2="342"/>
	<line id="XMLID_268_" class="st9" x1="685.1" y1="274.9" x2="688.2" y2="331"/>
	<line id="XMLID_267_" class="st9" x1="716.2" y1="258.8" x2="720.7" y2="310.7"/>
	<line id="XMLID_266_" class="st9" x1="747.3" y1="250.7" x2="749.8" y2="279.8"/>
	<line id="XMLID_265_" class="st9" x1="883.1" y1="203.7" x2="909.7" y2="232.1"/>
	<line id="XMLID_264_" class="st9" x1="841.6" y1="204.8" x2="878.6" y2="247"/>
	<g id="XMLID_260_" class="st10">
		<g id="XMLID_262_">
			<path id="XMLID_263_" class="st11" d="M681.9,334l9.2-4.3l6-11.3l0,0l58.2-63.1c-4.4-0.9-46.5,22.3-67.7,67L681.9,334z"/>
		</g>
	</g>
	<g id="XMLID_253_" class="st12">
		<g id="XMLID_254_">
			<g id="XMLID_258_">
				<path id="XMLID_259_" class="st13" d="M775.4,263.4l-5.8,1.6l-1,36.6l4.1,10.7C777.3,289.7,777.6,281.4,775.4,263.4"/>
			</g>
		</g>
	</g>
	<line id="XMLID_252_" class="st9" x1="808.2" y1="214.9" x2="841.1" y2="255.3"/>
	<path id="XMLID_251_" class="st8" d="M756.1,342.5c-23.1,43.7-52.7,62-70.6,63.9c-6,0.6-10-50.6,13.1-94.3s66.2-65,70.6-63.9
		C774.1,249.4,779.2,298.8,756.1,342.5z"/>
	<path id="XMLID_250_" class="st9" d="M712.1,318.7c17.2-32.5,45.4-52.6,60.6-60.3"/>
	<path id="XMLID_249_" class="st9" d="M695.2,404.6c-2.6-16.2-0.5-53.2,16.8-86"/>
	<line id="XMLID_248_" class="st9" x1="698.1" y1="357.7" x2="716.6" y2="391.9"/>
	<line id="XMLID_247_" class="st9" x1="712.1" y1="318.7" x2="740.6" y2="367.1"/>
	<line id="XMLID_246_" class="st9" x1="729" y1="293.5" x2="758.1" y2="338.5"/>
	<line id="XMLID_245_" class="st9" x1="753.6" y1="270.5" x2="771.2" y2="296.9"/>
	<line id="XMLID_244_" class="st9" x1="780.2" y1="230.9" x2="798.7" y2="253.4"/>
	<path id="XMLID_243_" class="st14" d="M932.7,300"/>
	<path id="XMLID_242_" class="st14" d="M837.6,303.6"/>
	<g id="XMLID_240_" class="st10">
		<path id="XMLID_241_" class="st11" d="M874.5,248.4c-5.4-2.5-11.1-4.8-16.9-6.7c-47-15.1-92.8-0.3-95.1,3.5l96.3,7.1L874.5,248.4"
			/>
	</g>
	<g id="XMLID_228_" class="st12">
		<g id="XMLID_235_">
			<g id="XMLID_236_">
				<path id="XMLID_239_" class="st15" d="M763.4,264.2"/>
				<path id="XMLID_238_" class="st15" d="M763.4,264.2"/>
				<path id="XMLID_237_" class="st13" d="M774.4,265.8l21.5,19.9l4.5,10.6c-11-7.1-20.7-14.9-28.1-22.2"/>
			</g>
		</g>
	</g>
	<path id="XMLID_227_" class="st9" d="M743,252.5"/>
	<g id="XMLID_186_">
		<path id="XMLID_193_" class="st8" d="M832.3,305.4c47,15.1,81,7.6,95.1-3.5c4.7-3.7-28.2-43.2-75.2-58.3s-92.8-0.3-95.1,3.5
			C754.4,251.3,785.3,290.2,832.3,305.4z"/>
		<path id="XMLID_192_" class="st9" d="M847.2,257.6c-35-11.3-69.2-5.9-85.5-0.9"/>
		<path id="XMLID_191_" class="st9" d="M919.3,307.4c-9.5-13.4-36.8-38.4-72.1-49.8"/>
		<line id="XMLID_190_" class="st9" x1="884.5" y1="275.8" x2="895.1" y2="313.2"/>
		<line id="XMLID_189_" class="st9" x1="847.2" y1="257.6" x2="860.6" y2="312.2"/>
		<line id="XMLID_188_" class="st9" x1="812.8" y1="251.2" x2="823.5" y2="302.2"/>
		<line id="XMLID_187_" class="st9" x1="780.7" y1="252.5" x2="786.7" y2="281.1"/>
	</g>
	<path id="XMLID_178_" class="st14" d="M707.3,307.7"/>
	<path id="XMLID_177_" class="st14" d="M758.9,227.6"/>
	<path id="XMLID_175_" class="st14" d="M770.7,322.1"/>
	<path id="XMLID_174_" class="st13" d="M773.5,265.3"/>
	<path id="XMLID_172_" class="st13" d="M773.4,273.9"/>
	<line id="XMLID_171_" class="st4" x1="773.5" y1="265.3" x2="775.4" y2="265.6"/>
	<g id="XMLID_293_">
		<g>
			<g>
				<g>
					<path class="st7" d="M809,317.2c-3.6,17.4-7.3,34.9-10.9,52.3c0,0.2,0.7-0.2,0.7-0.4c3.6-17.4,7.3-34.8,10.9-52.3
						C809.7,316.7,809,317,809,317.2z"/>
					<path class="st7" d="M809.1,316.7c-3.6,17.4-7.3,34.9-10.9,52.3c0,0.2,0.5-0.1,0.5-0.3c3.6-17.4,7.3-34.9,10.9-52.3
						C809.7,316.2,809.2,316.6,809.1,316.7z"/>
					<path class="st7" d="M809.3,317.1c-3.6,17.4-7.3,34.9-10.9,52.3c0,0.2,0.7-0.2,0.7-0.3c3.6-17.4,7.3-34.8,10.9-52.3
						C810,316.6,809.3,316.9,809.3,317.1z"/>
					<path class="st7" d="M809.7,317.5c-3.6,17.4-7.3,34.9-10.9,52.3c0,0.1,0.1,0.3,0.2,0.1c3.6-17.4,7.3-34.9,10.9-52.3
						C809.8,317.5,809.7,317.3,809.7,317.5z"/>
					<path class="st7" d="M809.8,317c-3.6,17.4-7.3,34.9-10.9,52.3c0,0.1,0.2,0.2,0.2,0.1c3.6-17.4,7.3-34.9,10.9-52.3
						C810,317,809.8,316.9,809.8,317z"/>
					<path class="st7" d="M808.7,316.6c-3.6,17.4-7.3,34.9-10.9,52.3c0,0.2,0.2,0.1,0.3,0c3.6-17.4,7.3-34.9,10.9-52.3
						C809,316.4,808.7,316.5,808.7,316.6z"/>
					<path class="st7" d="M808.7,317.2c-3.6,17.4-7.3,34.9-10.9,52.3c0,0.2,0.6-0.2,0.6-0.4c3.6-17.4,7.3-34.8,10.9-52.3
						C809.3,316.6,808.7,317,808.7,317.2z"/>
					<path class="st7" d="M809,317.7c-3.7,17.4-7.3,34.9-10.9,52.3c0,0.2,0.5,0,0.5-0.1c3.6-17.4,7.3-34.9,10.9-52.3
						C809.5,317.3,809,317.5,809,317.7z"/>
					<path class="st7" d="M808.7,317.5c-3.6,17.4-7.3,34.9-10.9,52.3c0,0.2,0.6-0.1,0.6-0.3c3.6-17.4,7.3-34.8,10.9-52.3
						C809.4,317,808.7,317.3,808.7,317.5z"/>
					<path class="st7" d="M808.5,316.9c-3.6,17.4-7.3,34.9-10.9,52.3c-0.1,0.2,0.3,0,0.4-0.1c3.6-17.4,7.3-34.9,10.9-52.3
						C808.9,316.5,808.5,316.7,808.5,316.9z"/>
				</g>
			</g>
		</g>
	</g>
	<g id="XMLID_295_">
		<g>
			<g>
				<g>
					<path class="st7" d="M798.9,369.8c15.6,7.8,31.2,15.7,46.8,23.5c0.2,0.1,0-0.6-0.2-0.7c-15.6-7.9-31.2-15.7-46.8-23.5
						C798.6,369.1,798.8,369.8,798.9,369.8z"/>
					<path class="st7" d="M799,369.2c15.6,7.8,31.2,15.7,46.9,23.5c0.2,0.1,0.2-0.3,0.1-0.3c-15.6-7.8-31.2-15.7-46.9-23.5
						C798.8,368.7,798.8,369.1,799,369.2z"/>
					<path class="st7" d="M799.2,369.7c15.6,7.8,31.2,15.6,46.8,23.5c0.2,0.1,0-0.7-0.1-0.8c-15.6-7.9-31.2-15.7-46.8-23.5
						C798.9,368.9,799,369.7,799.2,369.7z"/>
					<path class="st7" d="M799.5,370.3c15.6,7.8,31.2,15.7,46.9,23.5c0.2,0.1,0.1-0.4,0-0.5c-15.6-7.8-31.2-15.7-46.9-23.5
						C799.3,369.7,799.4,370.2,799.5,370.3z"/>
					<path class="st7" d="M799.6,369.8c15.6,7.8,31.2,15.7,46.9,23.5c0.2,0.1,0.1-0.5,0-0.5c-15.6-7.8-31.2-15.7-46.9-23.5
						C799.4,369.2,799.4,369.8,799.6,369.8z"/>
					<path class="st7" d="M798.6,369.7c15.6,7.8,31.2,15.7,46.9,23.5c0.2,0.1,0.1-0.3,0-0.4c-15.6-7.8-31.2-15.7-46.9-23.5
						C798.4,369.2,798.4,369.6,798.6,369.7z"/>
					<path class="st7" d="M799,370.3c15.6,7.8,31.2,15.7,46.9,23.5c0.3,0.1,0.1-0.4,0-0.5c-15.6-7.8-31.2-15.7-46.9-23.5
						C798.7,369.8,798.9,370.3,799,370.3z"/>
					<path class="st7" d="M799.4,369.1c15.6,7.8,31.2,15.7,46.9,23.5c0,0,0.2,0,0.2-0.1c-15.6-7.8-31.2-15.7-46.9-23.5
						C799.5,369,799.3,369.1,799.4,369.1z"/>
					<path class="st7" d="M798.7,370.1c15.6,7.8,31.2,15.7,46.9,23.5c0.3,0.1,0.1-0.4,0-0.5c-15.6-7.8-31.2-15.7-46.9-23.5
						C798.4,369.5,798.6,370.1,798.7,370.1z"/>
				</g>
			</g>
		</g>
	</g>
	<g id="XMLID_170_">
		<g id="XMLID_297_">
			<g>
				<g>
					<g>
						<path class="st7" d="M875.7,467.6c-8.8-4.5-17.6-9.1-26.4-13.6c-4.9-2.5-9.8-5.1-14.8-7.6c-0.9-0.5-1.8-0.9-2.7-1.4
							c-0.6-0.3-1.1-0.6-1.7-0.9c-0.3-0.5,0.7-2.4,0.9-2.7l-0.2-0.1c-0.3,0.9-0.7,1.8-1.2,2.7c0,0,0,0.2,0,0.3
							c15.3,7.9,30.7,15.8,46,23.7C875.7,468,875.8,467.7,875.7,467.6z"/>
						<path class="st7" d="M875.4,466.8c-15.3-7.9-30.7-15.8-46-23.7c0,0.1,0.1,0.3,0.1,0.4c0.5-0.9,0.8-1.9,1.2-2.8
							c0-0.1-0.2-0.2-0.2-0.1c-0.3,0.9-0.7,1.8-1.2,2.6c-0.1,0.1,0,0.4,0.1,0.4c15.3,7.9,30.7,15.8,46,23.7
							C875.5,467.3,875.5,466.9,875.4,466.8z"/>
						<path class="st7" d="M832.2,436.3l-0.1-0.2C832.1,436.1,832.1,436.3,832.2,436.3z"/>
						<path class="st7" d="M875.8,467.3c-15.3-7.9-30.7-15.8-46-23.6c0.1,0.2,0.1,0.5,0.2,0.7c0.8-2.6,1.7-5.1,2.6-7.7
							c2-6.1,3.9-12.3,5.7-18.4c2.6-8.6,5.2-17.2,7.9-25.9c0.1-0.2-0.5,0.1-0.6,0.2c-2.1,6.8-4.1,13.6-6.2,20.4
							c-1.8,6-3.6,11.9-5.4,17.9c-0.7,2.4-1.5,4.8-2.2,7.2c-0.5,1.5-1,4.5-2.1,5.6c-0.1,0.1,0.1,0.7,0.2,0.7
							c15.3,7.9,30.6,15.8,46,23.6C876.1,468.1,875.9,467.4,875.8,467.3z"/>
						<path class="st7" d="M875.9,466.7c-15.3-7.9-30.7-15.7-46-23.6c0.1,0.3,0.2,0.5,0.3,0.8c1-3.6,2.3-7.1,3.4-10.6
							c1.9-5.8,3.6-11.6,5.4-17.4c2.5-8,4.8-16,7.3-24c0.1-0.2-0.6,0-0.7,0.2c-2.2,7.4-4.5,14.8-6.7,22.2
							c-1.6,5.4-3.2,10.7-4.9,16.1c-0.6,2-1.2,4-1.8,6c-0.4,1.4-0.8,2.7-1.3,4.1c-0.2,1-0.6,1.9-1.2,2.7c-0.2,0.1,0.1,0.7,0.3,0.8
							c15.3,7.9,30.6,15.8,45.9,23.6C876.3,467.6,876.1,466.8,875.9,466.7z"/>
						<path class="st7" d="M876.1,467.2c-15.3-7.9-30.7-15.7-46-23.6c0.1,0.2,0.2,0.5,0.3,0.7c0.7-2.6,1.6-5.2,2.5-7.8
							c2-6.1,3.9-12.3,5.8-18.4c2.6-8.6,5.2-17.2,7.9-25.8c0.1-0.2-0.7,0.1-0.7,0.3c-2.4,8-4.8,16-7.2,24
							c-1.6,5.3-3.2,10.5-4.8,15.8c-0.7,2.3-1.4,4.5-2.1,6.8c-0.4,1.4-0.7,3.3-1.7,4.4c-0.1,0.1,0.2,0.7,0.3,0.7
							c15.3,7.9,30.6,15.8,45.9,23.6C876.4,468.1,876.2,467.3,876.1,467.2z"/>
						<path class="st7" d="M832.4,439.4c5.4-15.4,9.7-31.2,14.5-46.7c0.1-0.2-0.3-0.1-0.3,0c-1.9,6.2-3.7,12.4-5.6,18.6
							c-2.8,9.4-5.5,18.8-8.8,28.1C832.2,439.3,832.4,439.4,832.4,439.4z"/>
						<path class="st7" d="M876.5,467.2c-15.3-7.9-30.7-15.8-46-23.7c0,0.1,0.1,0.2,0.1,0.3c0.5-0.8,0.8-1.9,1.1-2.8
							c0.5-1.5,1.1-3.1,1.6-4.6c2.1-6.1,3.9-12.3,5.8-18.4c2.7-8.6,5.2-17.3,7.9-25.9c0.1-0.2-0.5,0.1-0.6,0.3
							c-2.6,8.6-5.2,17.2-7.8,25.8c-1.7,5.7-3.4,11.3-5.2,17c-0.6,1.9-1.2,3.8-1.9,5.7c-0.3,0.9-0.6,1.9-1.2,2.7
							c-0.1,0.1,0,0.3,0.1,0.3c15.3,7.9,30.7,15.8,46,23.7C876.7,467.7,876.6,467.3,876.5,467.2z"/>
						<path class="st7" d="M875.5,466.6c-15.3-7.9-30.7-15.8-46-23.7c0,0.1,0.1,0.3,0.1,0.4c1-1.9,1.6-4.1,2.3-6.1
							c1.9-5.9,3.7-11.8,5.6-17.8c2.8-9.2,5.6-18.4,8.4-27.6c0-0.1-0.1-0.2-0.1-0.2c-2.7,8.6-5.2,17.2-7.9,25.9
							c-1.7,5.7-3.5,11.3-5.3,17c-0.6,2-1.3,4-2,5.9c-0.3,0.8-0.5,2-1.2,2.5c-0.1,0.1,0,0.4,0.1,0.5c15.3,7.9,30.7,15.8,46,23.7
							C875.7,467.2,875.7,466.6,875.5,466.6z"/>
						<path class="st7" d="M875.5,467.1c-15.3-7.9-30.7-15.8-46-23.7c0,0.2,0.1,0.4,0.1,0.6c3.2-8.5,5.7-17.2,8.3-25.9
							c2.6-8.6,5.2-17.2,7.8-25.8c0.1-0.2-0.2-0.2-0.3-0.1c-2.4,8-4.9,16-7.3,24c-1.6,5.3-3.2,10.6-4.9,15.9
							c-0.7,2.3-1.4,4.6-2.2,6.8c-0.4,1.3-0.7,3.6-1.8,4.5c-0.1,0.1,0,0.6,0.1,0.6c15.3,7.9,30.7,15.8,46,23.6
							C875.7,467.8,875.7,467.2,875.5,467.1z"/>
						<path class="st7" d="M839,416.9c2.4-8,4.8-16,7.3-24l-0.1-0.2c-2.5,8-4.9,16-7.3,24C838.8,416.8,839,416.9,839,416.9z"/>
						<path class="st7" d="M876.3,466.6c-15.3-7.9-30.7-15.8-46-23.7c0.1,0.2,0.1,0.3,0.2,0.5c1.1-2.4,1.8-5,2.7-7.5
							c2.1-6.1,3.9-12.2,5.8-18.4c2.7-8.6,5.2-17.2,7.9-25.8c0.1-0.2-0.5,0-0.6,0.2c-2.4,8-4.8,16-7.3,24
							c-1.6,5.3-3.2,10.5-4.8,15.8c-0.7,2.3-1.4,4.5-2.2,6.8c-0.5,1.3-0.8,3.5-1.9,4.5c-0.1,0.1,0.1,0.5,0.2,0.5
							c15.3,7.9,30.7,15.8,46,23.7C876.7,467.3,876.4,466.7,876.3,466.6z"/>
						<path class="st7" d="M832.4,437c4.6-14.7,9-29.5,13.5-44.2l-0.1-0.2c-4.5,14.8-8.9,29.5-13.6,44.2
							C832.2,436.9,832.4,437,832.4,437z"/>
						<path class="st7" d="M876.1,466.4c-15.3-7.9-30.7-15.8-46-23.7c0.1,0.1,0.1,0.3,0.2,0.4c1-1.9,1.6-4.2,2.3-6.2
							c2-5.9,3.8-11.8,5.6-17.7c2.8-9.2,5.6-18.5,8.5-27.7c0.1-0.2-0.4-0.1-0.4,0c-2.3,7.4-4.5,14.8-6.7,22.2
							c-1.6,5.4-3.3,10.7-4.9,16.1c-0.6,2-1.2,4-1.9,6c-0.4,1.4-0.9,2.8-1.4,4.1c-0.2,1-0.7,2-1.3,2.8c-0.1,0.1,0,0.4,0.1,0.5
							c15.3,7.9,30.7,15.8,46,23.7C876.4,467,876.2,466.5,876.1,466.4z"/>
					</g>
				</g>
			</g>
		</g>
	</g>
	<g id="XMLID_299_">
		<g id="XMLID_296_">
			<g id="XMLID_304_">
				<g>
					<g>
						<g>
							<path class="st7" d="M870.3,590.5c8-18.1,16-36.2,24.1-54.3c0-0.1-0.1-0.3-0.1-0.2c-8,18.1-16,36.2-24.1,54.3
								C870.1,590.4,870.3,590.6,870.3,590.5z"/>
							<path class="st7" d="M871,590.2c8-18.1,16-36.2,24.1-54.3c0,0,0-0.1-0.1-0.1c-0.5-0.2-1.1-0.4-1.6-0.7c-0.1,0-0.2,0-0.1,0
								c1.1,0.4,1.5,0.9,1,1.6c-0.3,0.7-0.6,1.3-0.9,2c-0.9,1.9-1.7,3.8-2.6,5.8c-2.8,6.2-5.5,12.4-8.3,18.6c-4,9-8,18.1-12,27.1
								C870.5,590.5,870.9,590.4,871,590.2z"/>
							<path class="st7" d="M869.9,590.3c8-18.1,16-36.2,24.1-54.3l-0.1-0.2c-0.5-0.2-1-0.5-1.5-0.8c0.1,0,0.1,0.1,0.2,0.1
								c1.2,0.7,1.3,0.6,0.7,1.9c-0.9,2-1.7,3.9-2.6,5.9c-2.7,6.1-5.4,12.1-8.1,18.2c-4.3,9.7-8.6,19.3-12.9,29
								C869.8,590.2,869.9,590.4,869.9,590.3z"/>
							<path class="st7" d="M889.1,533.3c-9-5.3-18.1-10.2-27.2-15.3c-3.2-1.8-6.5-3.6-9.7-5.4c-0.4-0.2-2.3-1-2.4-1.4
								c-0.1-0.4,0.5-0.8,0.6-1l-0.2-0.1c-0.3,0.3-0.5,0.7-0.8,1c0,0-0.1,0.2,0,0.3c13.2,7.3,26.3,14.8,39.6,21.9
								C889,533.3,889.2,533.3,889.1,533.3z"/>
							<path class="st7" d="M888.9,532.5c-13.1-7.6-26.4-14.8-39.6-22.2c0,0.1,0,0.3,0.1,0.4c0.4-0.5,0.3-0.4,0.9-1.2
								c0-0.1-0.1-0.2-0.2-0.1c-0.3,0.3-0.6,0.6-0.9,1c-0.1,0.1-0.1,0.4,0,0.4C862.4,518,875.5,525.5,888.9,532.5
								C889,532.6,888.9,532.5,888.9,532.5z"/>
							<path class="st7" d="M869.9,589.4c8.2-18,16.1-36.2,24.1-54.3v-0.2c-8.2-4.3-16.1-9-24.2-13.5c-6.8-3.8-13.6-7.6-20.4-11.4
								c0,0.2,0.1,0.3,0.1,0.5c1.6-2.1,2.9-4.5,4.1-6.8c3.3-6.1,6.6-12.2,9.8-18.4c0-0.1-0.1-0.2,0-0.2c-2.8,5.3-5.6,10.6-8.5,15.8
								c-0.9,1.6-1.8,3.3-2.7,4.9c-0.1,0.1-1.7,3.6-2.9,4.2c-0.1,0.1,0,0.4,0.1,0.5c7.3,4.1,14.6,8.1,22,12.2
								c5.1,2.8,10.1,5.7,15.3,8.4c2.2,1.2,4.4,2.3,6.5,3.5c0.9,0.5,0.8,0.5,0.3,1.6c-7.9,17.6-15.9,35.3-23.5,53
								C869.9,589.2,870,589.3,869.9,589.4z"/>
							<path class="st7" d="M870.3,590c8-18.1,16-36.2,24.1-54.3v-0.1c-2.5-1.2-4.9-2.7-7.3-4.1c-5.1-2.9-10.2-5.7-15.3-8.5
								c-7.3-4.1-14.7-8.2-22-12.3c0.1,0.2,0.1,0.5,0.2,0.7c1.2-2.4,2.7-4.8,4-7.1c2.8-5,5.4-10,8.1-15.1
								c3.9-7.4,7.8-14.7,11.7-22.1c0.1-0.2-0.5,0-0.6,0.1c-3.6,6.8-7.1,13.6-10.7,20.4c-2.5,4.7-5,9.4-7.5,14.2
								c-0.9,1.6-1.7,3.2-2.6,4.9c-0.5,1-1.5,3.4-2.6,4.1c-0.1,0.1,0,0.7,0.1,0.8c7.9,4.4,15.7,8.7,23.6,13.1c4.5,2.5,9,5,13.5,7.5
								c1.4,0.8,2.9,1.5,4.3,2.3c0.5,0.3,2.4,1,2.5,1.8c-0.1,0.3-0.3,0.6-0.4,0.9c-0.4,0.8-0.7,1.7-1.1,2.5
								c-0.9,2.1-1.8,4.1-2.7,6.2c-2.5,5.7-5.1,11.5-7.6,17.2c-4,9-8,18.1-12,27.1C869.5,590.3,870.2,590.1,870.3,590z"/>
							<path class="st7" d="M870.5,589.5c8-18.1,16-36.2,24.1-54.3v-0.1c-7.7-3.9-15.2-8.4-22.7-12.6c-7.3-4.1-14.7-8.1-22-12.3
								c0.1,0.3,0.2,0.5,0.3,0.8c1.2-2.5,2.6-4.8,3.9-7.2c2.8-5,5.5-10.1,8.2-15.1c3.9-7.3,7.7-14.7,11.7-22c0.1-0.2-0.6-0.1-0.7,0
								c-3.6,6.8-7.1,13.6-10.7,20.4c-2.5,4.7-5,9.4-7.5,14.1c-1.2,2.2-2.3,4.5-3.5,6.7c-0.4,0.7-0.9,1.8-1.7,2.2
								c-0.2,0.1,0.1,0.8,0.2,0.8c7.3,4.1,14.6,8.1,21.9,12.2c5,2.8,10,5.6,15.1,8.3c1.9,1,3.9,2.1,5.8,3.2c0.8,0.5,1,0.5,0.8,1.4
								c-0.3,1.2-1.3,2.8-1.7,3.9c-1,2.2-2,4.5-3,6.7c-2.6,5.8-5.2,11.7-7.8,17.5c-3.7,8.4-7.5,16.8-11.2,25.3
								C869.7,589.7,870.4,589.6,870.5,589.5z"/>
							<path class="st7" d="M870.6,589.8c8-18.1,16-36.2,24.1-54.2v-0.1c-2.6-1.1-4.9-2.7-7.4-4.1c-5.1-2.9-10.2-5.7-15.3-8.5
								c-7.3-4.1-14.7-8.1-22-12.2c0.1,0.3,0.2,0.5,0.3,0.8c1.1-2.5,2.6-4.8,3.9-7.2c2.8-5,5.5-10.1,8.1-15.1
								c3.9-7.3,7.7-14.7,11.7-22c0.1-0.2-0.7,0-0.8,0.2c-3.9,7.3-7.7,14.7-11.5,22c-2.4,4.6-4.8,9.2-7.2,13.8
								c-0.9,1.7-1.8,3.5-2.8,5.2c-0.5,0.8-0.9,1.8-1.7,2.3c-0.2,0.1,0.1,0.7,0.2,0.8c7.3,4.1,14.6,8.1,21.9,12.2
								c5,2.8,10,5.6,15.1,8.4c1.7,0.9,3.3,1.8,4.9,2.8c0.5,0.2,0.9,0.5,1.2,0.9c0.7,0.3,0.7,0.8,0.1,1.4
								c-7.9,17.6-15.7,35.3-23.5,53C869.7,590.2,870.5,590,870.6,589.8z"/>
							<path class="st7" d="M853.2,506.9c7.5-12.9,14.1-26.3,21.1-39.4c0.1-0.2-0.3-0.1-0.4,0c-6.9,13.1-13.5,26.5-21,39.4
								C852.9,506.8,853.1,506.9,853.2,506.9z"/>
							<path class="st7" d="M871,589.8c8-18.1,16-36.2,24.1-54.2v-0.1c-2.6-1.1-5-2.7-7.4-4.1c-5.1-2.9-10.2-5.7-15.2-8.5
								c-7.3-4.1-14.7-8.2-22-12.2c0,0.1,0.1,0.2,0.1,0.3c0.5-0.6,0.8-1.2,1.2-1.9c1-1.6,1.9-3.3,2.8-4.9c2.8-5,5.5-10.1,8.2-15.1
								c3.9-7.4,7.7-14.7,11.7-22.1c0.1-0.2-0.6,0-0.6,0.2c-3.6,6.8-7.1,13.6-10.7,20.3c-2.5,4.7-5,9.5-7.5,14.2
								c-0.8,1.6-1.7,3.2-2.6,4.7c-0.7,1.2-1.6,3.3-2.8,4.3c-0.1,0.1,0,0.3,0.1,0.3c7.3,4.1,14.7,8.1,22,12.2
								c5.1,2.8,10.1,5.7,15.2,8.5c1.9,1.1,3.9,2.1,5.8,3.3c0.8,0.5,1.1,0.6,0.8,1.5c-0.3,1.2-1.3,2.9-1.7,3.9c-1,2.2-2,4.5-3,6.7
								c-2.6,5.8-5.2,11.7-7.8,17.5c-3.7,8.4-7.5,16.9-11.2,25.3C870.3,590.2,871,590,871,589.8z"/>
							<path class="st7" d="M869.8,589.9c8-18.1,16-36.2,24.1-54.3c0,0,0-0.1-0.1-0.2c-14.9-8.2-29.7-16.6-44.5-24.9
								c0,0.2,0.1,0.4,0.1,0.6c8.6-14.3,15.9-29.4,23.7-44.1c0.1-0.1-0.2-0.3-0.2-0.1c-3.6,6.8-7.2,13.6-10.8,20.4
								c-2.5,4.7-5,9.5-7.5,14.2c-0.9,1.6-1.8,3.3-2.7,4.9c-0.5,0.9-1.6,3.5-2.7,4.1c-0.1,0.1,0,0.6,0.1,0.6
								c7.3,4.1,14.6,8.1,22,12.2c5.1,2.8,10.1,5.6,15.2,8.4c2,1.1,3.9,2.1,5.9,3.2c0.3,0.2,0.7,0.4,1,0.6c0.2,0.3,0.2,0.6,0,0.8
								c-0.2,1.2-1.3,2.9-1.7,3.9c-1,2.2-2,4.5-3,6.7c-2.6,5.8-5.2,11.7-7.8,17.5c-3.7,8.4-7.5,16.9-11.2,25.3
								C869.5,590,869.8,590.1,869.8,589.9z"/>
							<path class="st7" d="M856.9,499.4c5.6-10.5,11.2-21.1,16.8-31.7c0-0.1-0.1-0.3-0.2-0.2c-5.6,10.5-11.1,21.1-16.8,31.7
								C856.7,499.2,856.9,499.3,856.9,499.4z"/>
							<path class="st7" d="M870.9,589.4c8-18.1,16-36.2,24.1-54.3V535c-2.6-1.2-5-2.7-7.5-4.1c-5.1-2.9-10.2-5.7-15.3-8.5
								c-7.4-4.1-14.7-8.2-22.1-12.3c0.1,0.2,0.1,0.3,0.2,0.5c1.5-2.2,2.8-4.6,4.1-6.9c2.8-5,5.5-10,8.2-15.1
								c3.9-7.3,7.7-14.7,11.7-22c0.1-0.2-0.5-0.1-0.6,0c-3.3,6.3-6.6,12.5-9.8,18.8c-2.3,4.3-4.5,8.6-6.8,12.9
								c-1.2,2.2-2.3,4.4-3.6,6.6c-0.5,0.9-1,1.8-1.6,2.7c-0.4,1-1.1,1.8-1.9,2.6c-0.1,0.1,0.1,0.5,0.1,0.5
								c7.3,4.1,14.7,8.1,22,12.2c5.1,2.8,10.1,5.6,15.2,8.4c1.9,1.1,3.9,2.1,5.8,3.2c0.9,0.5,1.1,0.5,0.9,1.5
								c-0.3,1.2-1.3,2.9-1.7,3.9c-1,2.2-2,4.5-3,6.7c-2.6,5.8-5.2,11.7-7.8,17.5c-3.7,8.4-7.5,16.9-11.2,25.3
								C870.3,589.6,870.9,589.5,870.9,589.4z"/>
							<path class="st7" d="M853.5,504.7c6.7-12.3,13.1-24.8,19.7-37.1c0,0-0.1-0.3-0.1-0.2c-6.6,12.4-13,24.9-19.7,37.2
								L853.5,504.7z"/>
							<path class="st7" d="M870.7,589.2c8-18.1,16-36.2,24.1-54.3c0,0,0-0.1-0.1-0.1c-7.7-3.9-15.2-8.4-22.8-12.6
								c-7.4-4.1-14.7-8.2-22.1-12.3c0,0.1,0.1,0.3,0.1,0.4c1.6-2.1,2.8-4.5,4.1-6.8c2.8-5,5.5-10,8.1-15.1
								c3.9-7.3,7.8-14.7,11.7-22.1c0.1-0.2-0.3-0.2-0.4-0.1c-3.6,6.8-7.1,13.6-10.7,20.4c-2.5,4.7-5,9.5-7.5,14.2
								c-0.9,1.6-1.8,3.2-2.7,4.9c-0.5,0.9-1.7,3.6-2.9,4.2c-0.1,0.1,0,0.4,0.1,0.5c7.3,4.1,14.7,8.1,22,12.2
								c5.1,2.8,10.1,5.7,15.2,8.4c1.7,0.9,3.5,1.8,5.2,2.8c0.5,0.2,1,0.5,1.4,0.9c0.7,0.3,0.8,0.8,0.2,1.4
								c-7.8,17.7-15.7,35.3-23.5,53C870.2,589.3,870.7,589.3,870.7,589.2z"/>
						</g>
					</g>
				</g>
			</g>
		</g>
	</g>
	<g id="XMLID_309_">
		<g id="XMLID_306_">
			<g id="XMLID_300_">
				<g id="XMLID_303_">
					<g id="XMLID_302_">
						<g id="XMLID_301_">
							<g id="XMLID_298_">
								<g id="XMLID_284_">
									<g id="XMLID_283_">
										<g id="XMLID_282_">
											<g id="XMLID_169_">
												<g id="XMLID_166_">
													<g id="XMLID_15_">
														<g>
															<g>
																<g>
																	<path class="st7" d="M829.1,352.9c-6.1,16.3-12.3,32.6-18.4,48.9c0,0,0,0.1,0.1,0.1c0.5,0.2,1,0.4,1.5,0.7l0.2,0.1
																		c-1.3-0.9-1.5-0.8-0.9-2.3c0.5-1.2,0.9-2.5,1.4-3.7c2.2-5.8,4.4-11.7,6.6-17.5c3.3-8.8,6.6-17.5,9.9-26.3
																		C829.5,352.7,829.1,352.8,829.1,352.9z"/>
																	<path class="st7" d="M828.9,353.2c-6.1,16.3-12.3,32.6-18.4,48.9c0,0,0,0.1,0.1,0.1c1.1,0.5,2.1,1.1,3.1,1.7
																		c0,0,0.3,0,0.2,0c-0.4-0.3-2.8-1.3-2.8-2.2c0.1-0.3,0.3-0.7,0.4-1c0.3-0.9,0.7-1.8,1-2.7
																		c2.1-5.6,4.2-11.2,6.3-16.8c3.5-9.4,7.1-18.7,10.6-28.1C829.4,352.9,828.9,353,828.9,353.2z"/>
																	<path class="st7" d="M818,406.5h0.2H818z"/>
																	<path class="st7" d="M845.4,422.2c5.3,3.2,10.7,6.5,16,9.7c0.1,0,0.2,0,0.2,0c-5.3-3.2-10.7-6.5-16-9.7
																		C845.6,422.1,845.4,422.2,845.4,422.2z"/>
																	<path class="st7" d="M830.1,353.7c-6.1,16.3-12.3,32.6-18.4,48.9c0,0,0,0.2,0.1,0.2c16.7,10,33.2,20.2,49.8,30.2
																		c0-0.1,0-0.3-0.1-0.4c-2.8,3.7-4.8,8.1-7,12.1c-4.4,8.2-8.7,16.3-13,24.5c0,0.1,0.1,0.2,0,0.2
																		c3.8-7.2,7.6-14.4,11.5-21.5c1.5-2.9,3.1-5.7,4.7-8.5c0.8-1.4,1.5-2.8,2.4-4.1c0.4-0.9,1-1.7,1.7-2.4
																		c0.1-0.1,0-0.4,0-0.4c-7.6-4.6-15.2-9.2-22.8-13.8c-5.5-3.4-11.1-6.7-16.7-10c-2.1-1.3-4.2-2.5-6.3-3.7
																		c-0.6-0.4-1.2-0.7-1.8-1.1s-1.2-0.7-1.8-1.1c-0.3-0.6-0.1-0.8,0.1-1.4c0.8-2.1,1.6-4.2,2.4-6.3
																		c1.9-5,3.8-10,5.6-15c3.3-8.8,6.6-17.5,9.9-26.3C830.2,353.9,830.1,353.7,830.1,353.7z"/>
																	<path class="st7" d="M856.4,438.4c-6.7,12.2-13.1,24.6-19.7,36.9c0,0.1,0,0.1,0.1,0.2c0.5,0.2,1,0.5,1.5,0.7
																		c0,0,0.2,0.1,0.1,0c-1.3-0.5-1.6-1.2-0.7-2.1c0.6-1.1,1.2-2.2,1.8-3.3c1.6-3.1,3.3-6.2,4.9-9.3
																		c4.1-7.7,8.1-15.3,12.3-22.9C856.7,438.5,856.5,438.4,856.4,438.4z"/>
																	<path class="st7" d="M858.6,434.7c-7.9,13.4-14.8,27.3-22.2,40.9v0.1c1.1,0.4,2.1,0.9,3.1,1.6c0,0,0.3,0,0.2,0
																		c-0.5-0.3-1-0.6-1.6-0.9c-0.4-0.4-0.8-0.7-1.2-1.1c0.3-0.5,0.6-1.1,0.9-1.6c0.3-0.6,0.6-1.1,0.9-1.7
																		c2.1-3.9,4.2-7.9,6.2-11.8c4.5-8.5,9-17.1,13.8-25.5C858.9,434.7,858.7,434.6,858.6,434.7z"/>
																	<path class="st7" d="M843.9,479.7h0.2H843.9z"/>
																	<path class="st7" d="M860.5,488.1c8.6,4.8,17.1,9.6,25.7,14.4h0.2c-8.6-4.8-17.1-9.6-25.7-14.4
																		C860.7,488,860.5,488.1,860.5,488.1z"/>
																	<path class="st7" d="M838.2,476.6c16.1,8.9,32.1,18,48.1,27c0-0.1,0-0.3-0.1-0.4c-2.3,2.9-4,6.2-5.9,9.4
																		c-3.6,6.3-7.2,12.6-10.8,18.9c0,0.1,0.1,0.2,0,0.2c3.6-6.3,7.2-12.7,10.9-19c1.3-2.3,2.6-4.6,4.1-6.8
																		c0.5-0.8,1-1.9,1.9-2.4c0.1-0.1,0-0.4-0.1-0.4c-6.9-3.8-13.7-7.7-20.6-11.5c-9.2-5.1-18.5-10.1-27.7-15.3
																		C838.1,476.4,838.2,476.6,838.2,476.6z"/>
																	<path class="st7" d="M829.4,353.5c-6.1,16.3-12.3,32.6-18.4,48.8v0.1c2.6,1.3,5.1,3,7.5,4.5
																		c5.9,3.6,11.8,7.2,17.7,10.7c8.2,5,16.4,10,24.6,15c-0.1-0.2-0.1-0.5-0.2-0.7c-1.3,2.9-3.1,5.6-4.6,8.4
																		c-2.8,5.1-5.5,10.2-8.3,15.3c-3.6,6.7-7.1,13.5-10.7,20.2v0.1c2.5,1.2,4.9,2.7,7.4,4.1c5.7,3.3,11.5,6.5,17.3,9.7
																		c8,4.5,16,9,24,13.4c-0.1-0.2-0.2-0.4-0.2-0.7c-1.2,2.5-2.8,4.8-4.2,7.1c-3,5-5.8,10-8.7,15.1
																		c-4.2,7.3-8.3,14.7-12.5,22c-0.1,0.2,0.7,0,0.8-0.1c4.1-7.3,8.2-14.7,12.3-22c2.6-4.6,5.2-9.2,7.7-13.8
																		c1-1.7,1.9-3.5,3-5.2c0.5-0.8,1-1.8,1.8-2.4c0.2-0.1-0.1-0.6-0.2-0.7c-6.8-3.8-13.7-7.7-20.5-11.5
																		c-5-2.8-9.9-5.6-14.9-8.4c-2.6-1.4-5.1-2.9-7.7-4.3c-1-0.5-1.9-1-2.8-1.6c-0.5-0.3-1.1-0.6-1.6-1
																		c-0.2-0.5,0.2-0.9,0.4-1.3c0.8-1.5,1.6-3,2.4-4.5c2.3-4.3,4.5-8.6,6.8-12.9c2.7-5.2,5.5-10.5,8.2-15.7
																		c0.8-1.6,1.7-3.2,2.5-4.8c0.4-0.8,1.5-3.2,2.6-4.1c0.1-0.1-0.1-0.6-0.2-0.7c-7.6-4.6-15.2-9.2-22.8-13.8
																		c-5.5-3.4-11-6.7-16.6-10.1c-2-1.2-4.1-2.4-6.1-3.7c-0.6-0.4-1.2-0.7-1.7-1.1c-0.5-0.3-1.1-0.7-1.6-1.1
																		c-0.3-0.5,0-1,0.2-1.5c0.8-2.1,1.6-4.2,2.4-6.3c1.9-5,3.8-10,5.6-15c3.3-8.7,6.6-17.5,9.9-26.2
																		C830.2,353.1,829.4,353.3,829.4,353.5z"/>
																	<path class="st7" d="M829.5,353c-6.1,16.3-12.3,32.6-18.4,48.9c0,0,0,0.1,0.1,0.1c3.6,1.7,6.9,4,10.3,6
																		c5.6,3.4,11.1,6.7,16.7,10.1c4.8,2.9,9.6,5.8,14.5,8.8c1.9,1.1,3.8,2.3,5.7,3.4c0.4,0.2,2.4,1.2,2.4,1.6
																		c0,0.5-1.3,2.4-1.4,2.5c-0.8,1.4-1.6,2.8-2.4,4.2c-2.8,4.9-5.4,10-8.1,15c-3.9,7.3-7.7,14.6-11.6,21.9v0.1
																		c2.6,1.1,5,2.6,7.4,4c5.2,2.9,10.4,5.8,15.5,8.7c5.4,3,10.8,6,16.2,9c2,1.1,3.9,2.2,5.9,3.3
																		c0.4,0.2,3.2,1.5,3.3,1.8c0.1,0.4-0.4,0.8-0.6,1.1c-1.2,1.9-2.3,3.7-3.5,5.6c-2.6,4.5-5.2,9-7.8,13.5
																		c-4.5,7.9-8.9,15.8-13.4,23.7c-0.1,0.2,0.5,0,0.6-0.1c3.8-6.8,7.6-13.6,11.4-20.3c2.7-4.7,5.3-9.4,8-14.1
																		c0.9-1.6,1.8-3.2,2.8-4.7c0.8-1.4,1.7-3.2,2.9-4.4c0.1-0.1,0-0.3,0-0.3c-7.4-4.1-14.8-8.3-22.3-12.4
																		c-4.9-2.8-9.9-5.5-14.8-8.3c-2.2-1.2-4.3-2.4-6.5-3.6c-1.3-0.7-2.9-1.4-4-2.5c-0.6-0.2-0.7-0.6-0.3-1
																		c0.3-0.6,0.6-1.2,1-1.8c0.7-1.4,1.5-2.8,2.2-4.2c2.6-5,5.3-10,7.9-15.1c2.6-5,5.2-10,8-15c1.2-2.1,2.3-4.7,3.9-6.5
																		c0-0.1,0-0.3,0-0.3c-7.6-4.6-15.2-9.2-22.8-13.9c-5.6-3.4-11.1-6.7-16.7-10.1c-2-1.2-4.1-2.4-6.1-3.7
																		c-0.6-0.4-1.2-0.7-1.8-1.1s-1.1-0.7-1.7-1.1c-0.3-0.5,0-1,0.2-1.5c0.8-2.1,1.6-4.2,2.4-6.3c1.9-5,3.8-10,5.6-15
																		c3.3-8.8,6.6-17.5,9.9-26.3C830.2,352.6,829.6,352.9,829.5,353z"/>
																	<path class="st7" d="M829.7,353.4c-6.1,16.3-12.3,32.6-18.4,48.9v0.1c2.6,1.4,5,2.9,7.5,4.5
																		c5.9,3.6,11.8,7.2,17.7,10.8c8.2,5,16.4,10,24.6,15c-0.1-0.2-0.1-0.5-0.2-0.7c-1.1,2.5-2.6,4.8-4,7.2
																		c-2.8,5-5.4,10-8.1,15c-3.9,7.3-7.7,14.6-11.6,21.9v0.1c8.3,4.3,16.4,9.2,24.6,13.8c8,4.5,16,9,24,13.4
																		c-0.1-0.2-0.1-0.5-0.2-0.7c-1.1,2.5-2.8,4.8-4.2,7.2c-3,5-5.8,10-8.7,15.1c-4.2,7.3-8.3,14.7-12.5,22
																		c-0.1,0.2,0.6,0.1,0.7-0.1c3.8-6.8,7.6-13.6,11.4-20.4c2.6-4.7,5.3-9.4,7.9-14.1c0.9-1.6,1.8-3.2,2.7-4.8
																		c0.6-1.1,1.6-3.3,2.7-4.1c0.1-0.1,0-0.7-0.1-0.8c-7.4-4.1-14.8-8.3-22.2-12.4c-4.9-2.7-9.8-5.5-14.7-8.2
																		c-2.2-1.2-4.3-2.4-6.5-3.6c-1.2-0.7-2.7-1.3-3.8-2.2c-0.8-0.6-0.6-0.5-0.1-1.6c0.6-1.1,1.2-2.2,1.8-3.3
																		c2.5-4.7,4.9-9.4,7.4-14.1c2.8-5.2,5.5-10.4,8.3-15.7c0.9-1.6,1.7-3.3,2.6-4.9c0.6-1.1,1.5-3.2,2.5-4
																		c0.1-0.1-0.1-0.7-0.2-0.7c-7.6-4.6-15.2-9.2-22.8-13.8c-5-3-10-6.1-15.1-9.1c-2.2-1.3-4.4-2.7-6.6-4
																		c-1.3-0.8-2.8-1.5-4-2.6c-0.6-0.2-0.7-0.6-0.3-1c0.3-0.7,0.5-1.4,0.8-2.1c0.6-1.6,1.2-3.1,1.8-4.7
																		c2.1-5.6,4.2-11.2,6.3-16.8c3.1-8.1,6.1-16.3,9.2-24.4C830.5,353,829.8,353.2,829.7,353.4z"/>
																	<path class="st7" d="M830.2,353.3c-6.1,16.3-12.3,32.6-18.4,48.9c0,0,0,0.1,0.1,0.2c16.5,10.2,33.1,20.2,49.7,30.2
																		c0-0.1,0-0.3-0.1-0.4c-4.5,6.9-8.2,14.5-12,21.8c-3.9,7.3-7.7,14.6-11.6,21.9v0.2c16,9.4,32.3,18.2,48.5,27.3
																		c0-0.2-0.1-0.3-0.1-0.5c-4.1,5.9-7.5,12.3-11,18.6c-4.8,8.4-9.5,16.9-14.3,25.3c0,0.1,0.1,0.3,0.1,0.2
																		c3.5-6.2,7-12.5,10.6-18.7c2.4-4.3,4.9-8.6,7.3-12.9c1.3-2.2,2.5-4.4,3.8-6.6c0.6-1.1,1.3-2.1,2-3.2
																		c0.3-1,0.8-1.7,1.6-2.2c0.1-0.1,0-0.4-0.1-0.5c-6.9-3.8-13.7-7.7-20.5-11.5c-5-2.8-10-5.6-15-8.3
																		c-2.3-1.3-4.6-2.5-6.9-3.8c-0.7-0.4-1.5-0.8-2.2-1.2c-1.2-0.6-2.3-1.3-3.5-2c-0.1-0.1-0.1-0.2-0.2-0.4
																		c0.2-0.3,0.3-0.6,0.5-0.9c0.8-1.5,1.6-3,2.4-4.5c2.3-4.3,4.6-8.6,6.8-12.9c2.8-5.2,5.6-10.5,8.4-15.7
																		c0.9-1.6,1.8-3.2,2.7-4.8c0.6-1.1,1.6-3.4,2.7-4.2c0.1-0.1,0.1-0.4,0-0.5c-7.6-4.6-15.2-9.2-22.8-13.8
																		c-5.5-3.4-11.1-6.7-16.6-10c-2.1-1.2-4.2-2.5-6.2-3.7c-0.6-0.4-1.2-0.7-1.8-1.1s-1.2-0.7-1.8-1.1
																		c-0.3-0.5,0-0.9,0.2-1.4c0.8-2.1,1.6-4.2,2.4-6.3c1.9-5,3.8-10,5.6-15c3.3-8.8,6.6-17.5,9.9-26.3
																		C830.4,353.3,830.3,353.2,830.2,353.3z"/>
																	<path class="st7" d="M881,509.1c-7.2,12.3-14.1,24.7-21.2,37.1c-0.1,0.2,0.2,0.2,0.3,0c7-12.3,13.9-24.8,21-37
																		C881.2,509.1,881,509,881,509.1z"/>
																	<path class="st7" d="M829,353.4c-6.1,16.3-12.3,32.6-18.4,48.8c0,0,0,0.1,0.1,0.1c3.6,1.6,7,4.1,10.3,6.1
																		c5.6,3.4,11.1,6.7,16.7,10.1c7.6,4.6,15.2,9.3,22.9,13.9c0-0.1-0.1-0.2-0.1-0.4c-1.6,2.1-2.7,4.6-4,6.8
																		c-2.8,4.9-5.5,10-8.1,15c-3.9,7.3-7.7,14.6-11.6,21.9v0.1c3.5,1.6,6.8,3.7,10.1,5.6c5.4,3,10.8,6.1,16.3,9.1
																		c7.4,4.2,14.9,8.3,22.3,12.5c0-0.1-0.1-0.2-0.1-0.4c-1.7,2.1-2.9,4.6-4.3,6.8c-3,5-5.8,10-8.7,15.1
																		c-4.2,7.3-8.3,14.7-12.5,22c-0.1,0.2,0.6,0,0.7-0.2c3.8-6.7,7.6-13.5,11.4-20.3c2.7-4.7,5.3-9.4,8-14.1
																		c0.9-1.6,1.8-3.2,2.8-4.7c0.8-1.3,1.7-3.2,2.9-4.3c0.1-0.1,0-0.3-0.1-0.4c-6.9-3.8-13.7-7.7-20.6-11.5
																		c-5-2.8-10-5.6-15-8.4c-2.3-1.3-4.5-2.5-6.8-3.8c-1.4-0.8-3.4-1.6-4.6-2.6c-0.3-0.3-0.7-0.7-1-1
																		c0.2-0.3,0.3-0.6,0.5-0.9c0.8-1.5,1.6-3,2.4-4.5c2.3-4.3,4.5-8.6,6.8-12.9c2.8-5.2,5.5-10.5,8.3-15.7
																		c0.8-1.6,1.7-3.1,2.6-4.7c0.7-1.3,1.6-3.2,2.7-4.3c0.1-0.1,0-0.3-0.1-0.4c-7.6-4.6-15.2-9.2-22.8-13.9
																		c-5.6-3.4-11.1-6.7-16.7-10.1c-2-1.2-4.1-2.5-6.1-3.7c-0.6-0.4-1.2-0.7-1.7-1.1c-0.6-0.4-1.1-0.7-1.7-1.1
																		c-0.3-0.5,0-1,0.2-1.5c0.8-2.1,1.6-4.2,2.4-6.3c1.9-5,3.8-10,5.6-15c3.3-8.7,6.6-17.5,9.9-26.2
																		C829.8,353,829.1,353.3,829,353.4z"/>
																	<path class="st7" d="M829.4,353.9c-6.1,16.3-12.3,32.6-18.4,48.9v0.1c8.6,4.8,17,10.2,25.4,15.3
																		c8.2,5,16.4,10,24.7,15c-0.1-0.2-0.1-0.3-0.2-0.5c-1.5,2.2-2.8,4.5-4.1,6.8c-2.8,4.9-5.4,9.9-8.1,14.9
																		c-3.9,7.3-7.7,14.6-11.6,21.9c0,0,0,0.1,0.1,0.1c8.4,4.4,16.5,9.2,24.8,13.8c8,4.5,16,9,24,13.4
																		c0-0.1-0.1-0.3-0.1-0.4c-1.6,2.2-3,4.5-4.4,6.9c-3,5-5.8,10-8.7,15c-4.2,7.3-8.3,14.7-12.5,22
																		c-0.1,0.2,0.4,0.2,0.4,0.1c3.8-6.8,7.6-13.6,11.5-20.3c2.7-4.7,5.3-9.4,8-14.1c0.9-1.6,1.9-3.2,2.8-4.8
																		c0.6-1,1.8-3.5,3-4.2c0.1-0.1,0-0.4-0.1-0.5c-6.3-3.5-12.6-7-18.9-10.6c-9.1-5.1-18.4-10-27.4-15.2
																		c-0.5-0.2-0.9-0.5-1.3-0.9c-0.6-0.2-0.7-0.5-0.3-0.9c0.2-0.4,0.4-0.8,0.6-1.2c0.5-0.9,0.9-1.7,1.4-2.6
																		c2.2-4.2,4.4-8.3,6.6-12.5c2.5-4.8,5.1-9.6,7.7-14.4c1-1.8,2-3.7,3-5.5c0.7-1.3,1.4-2.6,2.2-3.8
																		c0.4-1,1.1-1.8,1.8-2.6c0.1-0.1,0-0.4-0.1-0.5c-7.6-4.6-15.2-9.2-22.8-13.8c-5.5-3.4-11.1-6.7-16.6-10.1
																		c-2.1-1.2-4.1-2.4-6.2-3.7c-0.6-0.4-1.2-0.7-1.8-1.1s-1.2-0.7-1.7-1.1c-0.3-0.6,0-0.9,0.2-1.5
																		c0.8-2.1,1.6-4.2,2.4-6.3c1.9-5,3.8-10,5.6-15c3.3-8.8,6.6-17.5,9.9-26.3C830,353.7,829.4,353.8,829.4,353.9z"/>
																	<path class="st7" d="M829.1,353.8c-6.1,16.3-12.3,32.6-18.4,48.8v0.1c2.6,1.3,5.1,3,7.6,4.5
																		c5.9,3.6,11.8,7.2,17.7,10.8c8.2,5,16.4,10,24.6,14.9c0-0.2-0.1-0.3-0.1-0.5c-1.5,2.2-2.7,4.6-4.1,6.9
																		c-2.8,4.9-5.5,10-8.1,15c-3.9,7.3-7.7,14.6-11.6,21.8v0.1c2.5,1.3,5,2.7,7.5,4.2c5.7,3.3,11.5,6.4,17.3,9.7
																		c8,4.5,16,9,24,13.4c-0.1-0.1-0.1-0.3-0.2-0.4c-1.6,2.2-2.9,4.6-4.3,6.9c-3,5-5.8,10-8.7,15
																		c-4.2,7.3-8.3,14.7-12.5,22c-0.1,0.2,0.6,0.1,0.6,0c3.8-6.8,7.6-13.6,11.4-20.4c2.6-4.7,5.3-9.4,8-14.1
																		c0.9-1.6,1.9-3.2,2.8-4.8c0.7-1.1,1.7-3.4,2.9-4.2c0.1-0.1,0-0.4-0.1-0.5c-6.9-3.8-13.7-7.7-20.6-11.5
																		c-5-2.8-10-5.6-15-8.4c-3.8-2.1-7.7-4.1-11.4-6.4c-0.4-0.3-1-0.4-1.1-1c0.3-0.5,0.6-1.1,0.8-1.6
																		c0.3-0.6,0.6-1.1,0.9-1.7c2.1-3.9,4.1-7.9,6.2-11.8c2.8-5.3,5.6-10.7,8.5-16c1-1.8,1.9-3.7,2.9-5.5
																		c0.7-1.3,1.4-2.5,2.1-3.7c0.5-1,1.1-1.8,1.8-2.6c0.1-0.1,0-0.4-0.1-0.5c-7.6-4.6-15.2-9.2-22.8-13.9
																		c-5.1-3.1-10.1-6.1-15.2-9.2c-2.2-1.3-4.4-2.7-6.6-4c-1.4-0.8-2.9-1.6-4.1-2.7c-0.6-0.3-0.7-0.6-0.4-1.1
																		c0.3-0.7,0.5-1.4,0.8-2.1c0.6-1.6,1.2-3.1,1.8-4.7c2.1-5.6,4.2-11.2,6.3-16.8c3.1-8.1,6.1-16.3,9.2-24.4
																		C829.8,353.4,829.2,353.6,829.1,353.8z"/>
																	<path class="st7" d="M883.4,505.3c-8.4,13.4-15.9,27.4-23.7,41.1c-0.1,0.2,0.3,0.1,0.4,0
																		c7.8-13.7,15.2-27.7,23.6-41.1C883.6,505.3,883.4,505.2,883.4,505.3z"/>
																</g>
															</g>
														</g>
													</g>
												</g>
											</g>
										</g>
									</g>
								</g>
							</g>
						</g>
					</g>
				</g>
			</g>
		</g>
	</g>
	<g id="XMLID_440_">
		<g>
			<g>
				<g>
					<path class="st7" d="M829.9,352.5c-15-7.8-30.1-15.6-45.1-23.4c-0.2-0.1-0.1,0.7,0.1,0.8c15,7.8,30.1,15.6,45.1,23.4
						C830.2,353.3,830.1,352.6,829.9,352.5z"/>
					<path class="st7" d="M830,351.9c-15-7.8-30.1-15.6-45.1-23.4c-0.2-0.1,0,0.7,0.2,0.8c15,7.9,30,15.6,45,23.4
						C830.4,352.8,830.2,352,830,351.9z"/>
					<path class="st7" d="M830.2,352.4c-15-7.8-30.1-15.6-45.1-23.4c-0.2-0.1,0,0.7,0.2,0.8c15,7.8,30,15.6,45.1,23.4
						C830.5,353.3,830.4,352.5,830.2,352.4z"/>
					<path class="st7" d="M830.6,352.4c-15-7.8-30.1-15.6-45.1-23.4c-0.2-0.1-0.2,0.3,0,0.4c15,7.8,30.1,15.6,45.1,23.4
						C830.8,352.9,830.7,352.5,830.6,352.4z"/>
					<path class="st7" d="M829.7,351.7c-15-7.8-30.1-15.6-45.1-23.4c-0.2-0.1-0.1,0.4,0,0.5c15,7.8,30.1,15.6,45.1,23.4
						C829.8,352.4,829.8,351.8,829.7,351.7z"/>
					<path class="st7" d="M829.6,352.3c-15-7.8-30.1-15.6-45.1-23.4c-0.2-0.1-0.1,0.6,0,0.7c15,7.8,30.1,15.6,45.1,23.4
						C829.8,353,829.8,352.4,829.6,352.3z"/>
					<path class="st7" d="M830.4,351.8c-15-7.8-30.1-15.6-45.1-23.4c-0.3-0.1-0.1,0.4,0.1,0.5c15,7.8,30.1,15.6,45.1,23.4
						C830.8,352.5,830.6,351.9,830.4,351.8z"/>
					<path class="st7" d="M829.8,352.8c-15-7.8-30.1-15.6-45.1-23.4c-0.2-0.1-0.3,0.2-0.1,0.3c15,7.8,30.1,15.6,45.1,23.4
						C829.8,353.2,829.9,352.9,829.8,352.8z"/>
					<path class="st7" d="M830.2,351.6c-15-7.8-30.1-15.6-45.1-23.4c-0.3-0.1-0.1,0.4,0,0.5c15,7.8,30.1,15.6,45.1,23.4
						C830.5,352.2,830.3,351.7,830.2,351.6z"/>
					<path class="st7" d="M829.5,352c-15-7.8-30.1-15.6-45.1-23.4c-0.2-0.1-0.2,0.4,0,0.5c15,7.8,30.1,15.6,45.1,23.4
						C829.7,352.5,829.6,352.1,829.5,352z"/>
				</g>
			</g>
		</g>
	</g>
</g>
<g id="XMLID_1_">
	<g>
		<g>
			<g>
				<path class="st7" d="M37.6,508.9c17-4.7,34-9.5,51-14.3c0.2-0.1-0.4-0.5-0.6-0.4c-17,4.7-34,9.5-51,14.3
					C36.8,508.6,37.4,509,37.6,508.9z"/>
				<path class="st7" d="M37.7,508.4c17-4.8,34-9.5,51-14.3c0.2-0.1-0.3-0.5-0.4-0.4c-17,4.8-34,9.5-51,14.3
					C37,508.1,37.5,508.5,37.7,508.4z"/>
				<path class="st7" d="M37.8,508.8c17-4.7,34-9.5,51-14.3c0.2-0.1-0.5-0.6-0.7-0.5c-17,4.7-34,9.5-50.9,14.2
					C37,508.4,37.7,508.9,37.8,508.8z"/>
				<path class="st7" d="M38.3,509.3c17-4.8,34-9.5,51-14.3c0.2-0.1-0.3-0.4-0.4-0.3c-17,4.7-34,9.5-51,14.3
					C37.7,509,38.1,509.3,38.3,509.3z"/>
				<path class="st7" d="M38.3,508.9c17-4.8,34-9.5,51-14.3c0.2-0.1-0.4-0.5-0.5-0.5c-17,4.7-34,9.5-50.9,14.2
					C37.5,508.5,38.1,509,38.3,508.9z"/>
				<path class="st7" d="M37.1,508.8c17-4.8,34-9.5,51-14.3c0.2-0.1,0-0.3-0.1-0.3c-17,4.8-34,9.5-51,14.3
					C36.8,508.6,37,508.8,37.1,508.8z"/>
				<path class="st7" d="M37.7,509.4c17-4.8,34-9.5,51-14.3c0.3-0.1-0.2-0.3-0.3-0.3c-17,4.8-34,9.5-51,14.3
					C37.1,509.2,37.6,509.4,37.7,509.4z"/>
				<path class="st7" d="M38.1,508.4c17-4.8,34-9.5,51-14.3c0.2-0.1-0.1-0.4-0.3-0.4c-17,4.8-34,9.5-51,14.3
					C37.6,508.1,38,508.4,38.1,508.4z"/>
				<path class="st7" d="M37.3,509.2c17-4.8,34-9.5,51-14.3c0.2-0.1-0.1-0.3-0.2-0.3c-17,4.8-34,9.5-51,14.3
					C36.8,509,37.2,509.2,37.3,509.2z"/>
				<path class="st7" d="M37.8,508.1c17-4.8,34-9.5,51-14.3c0.1,0,0.2-0.2,0.1-0.2c-17,4.8-34,9.5-51,14.3
					C37.8,508,37.7,508.2,37.8,508.1z"/>
			</g>
		</g>
	</g>
</g>
<g id="XMLID_10_">
	<g>
		<g>
			<g>
				<path class="st7" d="M16.4,550.2c17-4.7,34-9.5,51-14.3c0.2-0.1-0.4-0.5-0.6-0.4c-17,4.7-34,9.5-51,14.3
					C15.6,549.8,16.3,550.2,16.4,550.2z"/>
				<path class="st7" d="M16.5,549.7c17-4.8,34-9.5,51-14.3c0.2-0.1-0.3-0.5-0.4-0.4c-17,4.8-34,9.5-51,14.3
					C15.9,549.3,16.4,549.7,16.5,549.7z"/>
				<path class="st7" d="M16.7,550.1c17-4.8,34-9.5,51-14.3c0.2-0.1-0.5-0.6-0.7-0.5c-17,4.7-34,9.5-50.9,14.2
					C15.8,549.6,16.5,550.2,16.7,550.1z"/>
				<path class="st7" d="M17.2,550.5c17-4.8,34-9.5,51-14.3c0.2-0.1-0.3-0.4-0.4-0.3c-17,4.7-34,9.5-51,14.3
					C16.5,550.3,17,550.6,17.2,550.5z"/>
				<path class="st7" d="M17.1,550.2c17-4.8,34-9.5,51-14.3c0.2-0.1-0.4-0.5-0.5-0.5c-17,4.7-34,9.5-50.9,14.2
					C16.4,549.8,17,550.2,17.1,550.2z"/>
				<path class="st7" d="M16,550c17-4.8,34-9.5,51-14.3c0.2-0.1,0-0.3-0.1-0.3c-17,4.8-34,9.5-51,14.3C15.6,549.8,15.8,550.1,16,550
					z"/>
				<path class="st7" d="M16.6,550.7c17-4.8,34-9.5,51-14.3c0.3-0.1-0.2-0.3-0.3-0.3c-17,4.8-34,9.5-51,14.3
					C16,550.4,16.4,550.7,16.6,550.7z"/>
				<path class="st7" d="M17,549.7c17-4.8,34-9.5,51-14.3c0.2-0.1-0.1-0.4-0.3-0.4c-17,4.8-34,9.5-51,14.3
					C16.5,549.4,16.9,549.7,17,549.7z"/>
				<path class="st7" d="M16.2,550.5c17-4.8,34-9.5,51-14.3c0.2-0.1-0.1-0.3-0.2-0.3c-17,4.8-34,9.5-51,14.3
					C15.7,550.2,16,550.5,16.2,550.5z"/>
				<path class="st7" d="M16.7,549.4c17-4.8,34-9.5,51-14.3c0.1,0,0.2-0.2,0.1-0.2c-17,4.8-34,9.5-51,14.3
					C16.7,549.2,16.5,549.4,16.7,549.4z"/>
			</g>
		</g>
	</g>
</g>
<g>
	<path class="st6" d="M86.4,950.9l-47.5,15.4c0,0-129.7-518.7,150.8-778.5c23.6-21.9,40-1.6,40-1.6
		C-38.3,427.4,86.4,950.9,86.4,950.9z"/>
	<g id="XMLID_3_">
		<line id="XMLID_1920_" class="st4" x1="182" y1="177.8" x2="221.5" y2="210.3"/>
		<path id="XMLID_1919_" class="st5" d="M243.5,171.7"/>
		<g id="XMLID_1916_">
			<g>
				<g>
					<g>
						<path class="st7" d="M213.9,208.6c-15.4,1.4-30.8,2.8-46.3,4.1c-0.2,0,0.3,0.6,0.5,0.6c15.4-1.4,30.8-2.8,46.3-4.1
							C214.6,209.2,214,208.6,213.9,208.6z"/>
						<path class="st7" d="M214,208.1c-15.4,1.4-30.8,2.8-46.3,4.1c-0.2,0,0.4,0.5,0.6,0.5c15.4-1.4,30.8-2.8,46.3-4.1
							C214.7,208.6,214.1,208.1,214,208.1z"/>
						<path class="st7" d="M214.2,208.6c-15.4,1.4-30.9,2.8-46.3,4.1c-0.2,0,0.3,0.6,0.5,0.5c15.4-1.4,30.8-2.8,46.3-4.1
							C214.9,209.1,214.4,208.5,214.2,208.6z"/>
						<path class="st7" d="M214.7,208.6c-15.4,1.4-30.9,2.8-46.3,4.1c-0.1,0-0.1,0.2,0,0.2c15.4-1.4,30.9-2.8,46.3-4.1
							C214.8,208.8,214.8,208.6,214.7,208.6z"/>
						<path class="st7" d="M213.6,207.9c-15.4,1.4-30.9,2.8-46.3,4.1c-0.3,0,0.1,0.4,0.2,0.4c15.4-1.4,30.9-2.8,46.3-4.1
							C214.1,208.3,213.7,207.9,213.6,207.9z"/>
						<path class="st7" d="M213.6,208.4c-15.4,1.4-30.8,2.8-46.3,4.1c-0.2,0,0.3,0.6,0.4,0.6c15.4-1.4,30.8-2.8,46.3-4.1
							C214.2,209,213.7,208.4,213.6,208.4z"/>
						<path class="st7" d="M214.1,209.2c-15.4,1.4-30.9,2.8-46.3,4.1c-0.1,0-0.2,0.2-0.1,0.2c15.4-1.4,30.9-2.8,46.3-4.1
							C214,209.3,214.2,209.1,214.1,209.2z"/>
						<path class="st7" d="M214.4,208c-15.4,1.4-30.9,2.8-46.3,4.1c-0.2,0,0,0.3,0.2,0.3c15.4-1.4,30.9-2.8,46.3-4.1
							C214.8,208.3,214.6,208,214.4,208z"/>
						<path class="st7" d="M213.7,208.9c-15.4,1.4-30.9,2.8-46.3,4.1c-0.2,0,0.1,0.4,0.2,0.4c15.4-1.4,30.9-2.8,46.3-4.1
							C214.1,209.2,213.8,208.8,213.7,208.9z"/>
						<path class="st7" d="M214.1,207.8c-15.4,1.4-30.9,2.8-46.3,4.1c-0.2,0,0,0.3,0.2,0.3c15.4-1.4,30.9-2.8,46.3-4.1
							C214.6,208.1,214.3,207.8,214.1,207.8z"/>
						<path class="st7" d="M213.4,208.2c-15.4,1.4-30.9,2.8-46.3,4.1c-0.2,0,0.1,0.4,0.3,0.4c15.4-1.4,30.9-2.8,46.3-4.1
							C213.9,208.5,213.5,208.2,213.4,208.2z"/>
					</g>
				</g>
			</g>
		</g>
		<g id="XMLID_1915_">
			<g>
				<g>
					<g>
						<path class="st7" d="M186.5,231.5c0.8-14.3,1.6-28.6,2.4-42.9c0-0.2-0.5,0.2-0.5,0.3c-0.8,14.3-1.6,28.6-2.4,42.9
							C185.9,232,186.5,231.6,186.5,231.5z"/>
						<path class="st7" d="M186.7,231c0.8-14.3,1.6-28.6,2.4-42.9c0-0.2-0.6,0.2-0.6,0.4c-0.8,14.3-1.6,28.6-2.4,42.9
							C186,231.5,186.7,231.1,186.7,231z"/>
						<path class="st7" d="M186.8,231.4c0.8-14.3,1.6-28.6,2.4-42.9c0-0.2-0.6,0.3-0.6,0.5c-0.9,14.3-1.6,28.6-2.4,42.9
							C186.1,232,186.8,231.5,186.8,231.4z"/>
						<path class="st7" d="M187.2,231.8c0.8-14.3,1.6-28.6,2.4-42.9c0-0.2-0.3-0.1-0.3,0.1c-0.8,14.3-1.6,28.6-2.4,42.9
							C186.9,232,187.1,231.9,187.2,231.8z"/>
						<path class="st7" d="M187.2,231.3c0.8-14.3,1.6-28.6,2.4-42.9c0-0.2-0.5,0.2-0.5,0.4c-0.8,14.3-1.6,28.6-2.4,42.9
							C186.7,231.9,187.2,231.5,187.2,231.3z"/>
						<path class="st7" d="M186.3,230.9c0.8-14.3,1.6-28.6,2.4-42.9c0-0.1-0.2-0.2-0.2-0.1c-0.8,14.3-1.6,28.6-2.4,42.9
							C186,230.9,186.2,231,186.3,230.9z"/>
						<path class="st7" d="M186.1,231.5c0.8-14.3,1.6-28.6,2.4-42.9c0-0.2-0.3-0.1-0.3,0c-0.8,14.3-1.6,28.6-2.4,42.9
							C185.8,231.7,186.1,231.6,186.1,231.5z"/>
						<path class="st7" d="M187.1,230.8c0.8-14.3,1.6-28.6,2.4-42.9c0-0.2-0.5,0.2-0.5,0.3c-0.8,14.3-1.6,28.6-2.4,42.9
							C186.6,231.3,187.1,231,187.1,230.8z"/>
						<path class="st7" d="M186.2,231.9c0.8-14.3,1.6-28.6,2.4-42.9c0-0.1-0.2-0.1-0.2-0.2c-0.8,14.3-1.6,28.6-2.4,42.9
							C186,231.8,186.2,231.9,186.2,231.9z"/>
						<path class="st7" d="M186.9,230.6c0.8-14.3,1.6-28.6,2.4-42.9c0-0.2-0.4,0-0.4,0.2c-0.8,14.3-1.6,28.6-2.4,42.9
							C186.5,231,186.9,230.8,186.9,230.6z"/>
					</g>
				</g>
			</g>
		</g>
		<line id="XMLID_1914_" class="st0" x1="252.3" y1="170.9" x2="197.2" y2="182.3"/>
		<line id="XMLID_1913_" class="st0" x1="226.2" y1="149.5" x2="225.8" y2="205.7"/>
		<path id="XMLID_1912_" class="st8" d="M150.2,145.1c-41-21.7-58.2-49.5-60-66.2c-0.6-5.6,47.5-9.4,88.5,12.3s61,62.1,60,66.2
			C237.6,162,191.3,166.8,150.2,145.1z"/>
		<path id="XMLID_1911_" class="st9" d="M172.6,103.8c30.5,16.1,49.4,42.6,56.6,56.8"/>
		<path id="XMLID_1910_" class="st9" d="M91.9,88c15.2-2.4,49.9-0.5,80.7,15.8"/>
		<path id="XMLID_1909_" class="st8" d="M254.1,241.1c27.9,37.1,58,49.7,74.8,48.8c5.6-0.3,1.8-48.4-26.1-85.5s-71-50.5-74.8-48.8
			C223.7,157.4,226.2,204,254.1,241.1z"/>
		<path id="XMLID_1908_" class="st9" d="M291.4,212.5c-20.7-27.6-49.8-42-65-47"/>
		<path id="XMLID_1907_" class="st9" d="M319.7,289.7c0-15.4-7.4-49.4-28.3-77.2"/>
		<line id="XMLID_1906_" class="st9" x1="310.1" y1="246.6" x2="298" y2="281.1"/>
		<line id="XMLID_1905_" class="st9" x1="291.4" y1="212.5" x2="272.1" y2="261.6"/>
		<line id="XMLID_1904_" class="st9" x1="268.5" y1="189" x2="249.1" y2="233.9"/>
		<line id="XMLID_1903_" class="st9" x1="243.1" y1="172.6" x2="232.3" y2="197.7"/>
		<line id="XMLID_1902_" class="st9" x1="136" y1="90.6" x2="103.9" y2="108"/>
		<line id="XMLID_1901_" class="st9" x1="172.6" y1="103.8" x2="127.2" y2="130.5"/>
		<g id="XMLID_1898_" class="st10">
			<g id="XMLID_1899_">
				<path id="XMLID_1900_" class="st11" d="M276.8,266.1l-6.8-6.6l-1.9-11.9l0,0l-33.3-73.4c4.2,0.5,34.8,33.6,40.5,79.7
					L276.8,266.1z"/>
			</g>
		</g>
		<g id="XMLID_1894_" class="st12">
			<g id="XMLID_1895_">
				<g id="XMLID_1896_">
					<path id="XMLID_1897_" class="st13" d="M213.5,170.2l4.7,3.1l-9.9,32.9l-6.8,8.3C204,193.1,206.3,185.7,213.5,170.2"/>
				</g>
			</g>
		</g>
		<line id="XMLID_1893_" class="st9" x1="199.4" y1="122.7" x2="158.2" y2="148.9"/>
		<path id="XMLID_1892_" class="st8" d="M208.2,251.8c7.7,45.7,28.7,70.8,44,77.8c5.1,2.3,23.8-42.1,16.1-87.9
			c-7.7-45.7-39.8-77.4-44-77.8C219.6,163.5,200.5,206,208.2,251.8z"/>
		<path id="XMLID_1891_" class="st9" d="M254.4,243.5c-5.7-34-24.9-60.3-36.2-71.6"/>
		<path id="XMLID_1890_" class="st9" d="M244.1,325.1c7.1-13.7,16.1-47.3,10.4-81.6"/>
		<line id="XMLID_1889_" class="st9" x1="255.4" y1="282.5" x2="228.8" y2="307.4"/>
		<line id="XMLID_1888_" class="st9" x1="254.4" y1="243.5" x2="214.7" y2="278.3"/>
		<line id="XMLID_1887_" class="st9" x1="246.8" y1="216.1" x2="207.5" y2="247.6"/>
		<line id="XMLID_1886_" class="st9" x1="231.7" y1="188.3" x2="208.2" y2="206.7"/>
		<line id="XMLID_1885_" class="st9" x1="219.6" y1="145.2" x2="196.5" y2="159.8"/>
		<path id="XMLID_1884_" class="st14" d="M63.3,161.8"/>
		<path id="XMLID_1883_" class="st14" d="M147.1,193"/>
		<g id="XMLID_1881_" class="st10">
			<path id="XMLID_1882_" class="st11" d="M130.5,133c5.6-0.7,11.3-1,17.1-1c46.4,0.4,82.7,27.1,83.7,31.2l-87.9-22L130.5,133"/>
		</g>
		<g id="XMLID_1875_" class="st12">
			<g id="XMLID_1876_">
				<g id="XMLID_1877_">
					<path id="XMLID_1880_" class="st15" d="M224.8,179.8"/>
					<path id="XMLID_1879_" class="st15" d="M224.8,179.9"/>
					<path id="XMLID_1878_" class="st13" d="M213.4,177.5l-25.1,11.4l-7.2,8.1c11.9-3,22.8-7.2,31.6-11.5"/>
				</g>
			</g>
		</g>
		<path id="XMLID_1874_" class="st9" d="M246.4,175.4"/>
		<g id="XMLID_1866_">
			<path id="XMLID_1873_" class="st8" d="M151.2,196.2c-46.4-0.4-74.5-17.2-83.7-31.2c-3.1-4.7,37.9-30.2,84.3-29.8
				s82.7,27.1,83.7,31.2C236.6,171,197.6,196.6,151.2,196.2z"/>
			<path id="XMLID_1872_" class="st9" d="M152.1,149.2c34.5,0.3,63.4,15.1,76.4,24.4"/>
			<path id="XMLID_1871_" class="st9" d="M73.1,172.3c12.4-9.1,44.1-23.4,78.9-23.1"/>
			<line id="XMLID_1870_" class="st9" x1="113.5" y1="154.4" x2="93" y2="184.6"/>
			<line id="XMLID_1869_" class="st9" x1="152.1" y1="149.2" x2="124" y2="193.9"/>
			<line id="XMLID_1868_" class="st9" x1="184.6" y1="153.7" x2="160" y2="196"/>
			<line id="XMLID_1867_" class="st9" x1="212.8" y1="164.3" x2="199" y2="188"/>
		</g>
		<path id="XMLID_1865_" class="st14" d="M261.9,235.1"/>
		<path id="XMLID_1864_" class="st14" d="M239.5,148.6"/>
		<path id="XMLID_1863_" class="st14" d="M201.2,229.3"/>
		<path id="XMLID_1862_" class="st13" d="M215.5,177.8"/>
		<path id="XMLID_1861_" class="st13" d="M213.1,185.5"/>
		<line id="XMLID_1860_" class="st4" x1="215.5" y1="177.8" x2="213.7" y2="177.5"/>
		<g id="XMLID_1859_">
			<g>
				<g>
					<g>
						<path class="st7" d="M167.1,213.5c-1.9,16.6-3.8,33.2-5.7,49.8c0,0.2,0.7-0.3,0.7-0.5c2-16.6,3.8-33.2,5.7-49.8
							C167.9,212.9,167.1,213.3,167.1,213.5z"/>
						<path class="st7" d="M167.3,213c-1.9,16.6-3.8,33.2-5.7,49.8c0,0.2,0.5-0.2,0.5-0.3c1.9-16.6,3.8-33.2,5.7-49.8
							C167.8,212.5,167.3,212.8,167.3,213z"/>
						<path class="st7" d="M167.4,213.4c-1.9,16.6-3.8,33.2-5.7,49.8c0,0.2,0.7-0.2,0.7-0.4c1.9-16.6,3.8-33.2,5.7-49.8
							C168.1,212.8,167.5,213.2,167.4,213.4z"/>
						<path class="st7" d="M167.8,213.7c-1.9,16.6-3.8,33.2-5.7,49.8c0,0.1,0.2,0.2,0.2,0.1c1.9-16.6,3.8-33.2,5.7-49.8
							C168,213.7,167.8,213.6,167.8,213.7z"/>
						<path class="st7" d="M167.9,213.3c-1.9,16.6-3.8,33.2-5.7,49.8c0,0.2,0.3,0.2,0.3,0c1.9-16.6,3.8-33.2,5.7-49.8
							C168.2,213.2,167.9,213.2,167.9,213.3z"/>
						<path class="st7" d="M166.9,212.9c-1.9,16.6-3.8,33.2-5.7,49.8c0,0.1,0.2,0.1,0.3,0c1.9-16.6,3.8-33.2,5.7-49.8
							C167.1,212.7,166.9,212.7,166.9,212.9z"/>
						<path class="st7" d="M166.8,213.4c-1.9,16.6-3.8,33.2-5.7,49.8c0,0.2,0.6-0.3,0.6-0.4c1.9-16.6,3.8-33.2,5.7-49.8
							C167.4,212.8,166.8,213.3,166.8,213.4z"/>
						<path class="st7" d="M167.1,214c-1.9,16.6-3.8,33.2-5.7,49.8c0,0.2,0.5,0,0.5-0.2c1.9-16.6,3.8-33.2,5.7-49.8
							C167.7,213.6,167.2,213.8,167.1,214z"/>
						<path class="st7" d="M166.9,213.8c-1.9,16.6-3.8,33.2-5.7,49.8c0,0.2,0.6-0.2,0.6-0.4c1.9-16.6,3.8-33.2,5.7-49.8
							C167.5,213.3,166.9,213.6,166.9,213.8z"/>
						<path class="st7" d="M166.7,213.2c-1.9,16.6-3.8,33.2-5.7,49.8c0,0.2,0.3,0,0.3-0.1c1.9-16.6,3.8-33.2,5.7-49.8
							C167,212.8,166.7,213,166.7,213.2z"/>
					</g>
				</g>
			</g>
		</g>
		<g id="XMLID_933_">
			<g>
				<g>
					<g>
						<path class="st7" d="M139.5,244.1c15.7-3.9,31.3-7.8,47-11.7c0.2,0-0.4-0.5-0.6-0.4c-15.7,3.9-31.3,7.8-47,11.7
							C138.8,243.7,139.4,244.1,139.5,244.1z"/>
						<path class="st7" d="M139.7,243.6c15.7-3.9,31.3-7.8,47-11.7c0.2-0.1-0.3-0.5-0.4-0.4c-15.7,3.9-31.3,7.8-47,11.7
							C139,243.2,139.5,243.6,139.7,243.6z"/>
						<path class="st7" d="M139.8,244c15.7-3.9,31.3-7.9,47-11.7c0.2,0-0.5-0.6-0.7-0.5c-15.7,3.8-31.3,7.8-46.9,11.7
							C139,243.5,139.7,244,139.8,244z"/>
						<path class="st7" d="M140.3,244.4c15.7-3.9,31.3-7.8,47-11.7c0.2,0-0.3-0.4-0.4-0.3c-15.7,3.9-31.3,7.8-47,11.7
							C139.7,244.1,140.1,244.5,140.3,244.4z"/>
						<path class="st7" d="M140.3,244.1c15.7-3.9,31.3-7.8,47-11.7c0.2-0.1-0.4-0.5-0.5-0.5c-15.7,3.9-31.3,7.8-46.9,11.7
							C139.5,243.6,140.1,244.1,140.3,244.1z"/>
						<path class="st7" d="M139.1,243.9c15.7-3.9,31.3-7.8,47-11.7c0.2-0.1,0-0.3-0.2-0.3c-15.7,3.9-31.3,7.8-47,11.7
							C138.8,243.7,139,244,139.1,243.9z"/>
						<path class="st7" d="M139.7,244.6c15.7-3.9,31.3-7.8,47-11.7c0.3-0.1-0.2-0.3-0.3-0.3c-15.7,3.9-31.3,7.8-47,11.7
							C139.1,244.3,139.6,244.6,139.7,244.6z"/>
						<path class="st7" d="M140.1,243.6c15.7-3.9,31.3-7.8,47-11.7c0.2-0.1-0.1-0.4-0.3-0.4c-15.7,3.9-31.3,7.8-47,11.7
							C139.6,243.2,140,243.6,140.1,243.6z"/>
						<path class="st7" d="M139.3,244.4c15.7-3.9,31.3-7.8,47-11.7c0.2-0.1-0.1-0.3-0.2-0.3c-15.7,3.9-31.3,7.8-47,11.7
							C138.8,244.1,139.2,244.4,139.3,244.4z"/>
						<path class="st7" d="M139.8,243.3c15.7-3.9,31.3-7.8,47-11.7c0.1,0,0.2-0.2,0.1-0.2c-15.7,3.9-31.3,7.8-47,11.7
							C139.8,243.1,139.7,243.3,139.8,243.3z"/>
					</g>
				</g>
			</g>
		</g>
	</g>
</g>
<g>
	<g>
		<g>
			<path class="st7" d="M138.3,248.2c0.4,18.5,0.9,37,1.3,55.6c0,0.2,0.6-0.4,0.6-0.6c-0.4-18.5-0.9-37-1.3-55.5
				C139,247.4,138.3,248,138.3,248.2z"/>
			<path class="st7" d="M138.5,247.6c0.4,18.5,0.9,37,1.3,55.6c0,0.2,0.4-0.2,0.4-0.3c-0.4-18.5-0.9-37-1.3-55.6
				C138.9,247.1,138.5,247.5,138.5,247.6z"/>
			<path class="st7" d="M138.6,248.1c0.4,18.5,0.9,37,1.3,55.5c0,0.2,0.6-0.3,0.6-0.5c-0.4-18.5-0.9-37-1.3-55.5
				C139.3,247.4,138.6,247.9,138.6,248.1z"/>
			<path class="st7" d="M139,248.4c0.4,18.5,0.9,37,1.3,55.6c0,0.2,0.3,0.2,0.3,0c-0.4-18.5-0.9-37-1.3-55.6
				C139.2,248.3,138.9,248.3,139,248.4z"/>
			<path class="st7" d="M139.1,248c0.4,18.5,0.9,37,1.3,55.6c0,0.2,0.3,0.1,0.3,0c-0.4-18.5-0.9-37-1.3-55.6
				C139.4,247.8,139.1,247.8,139.1,248z"/>
			<path class="st7" d="M138.1,247.5c0.4,18.5,0.9,37.1,1.3,55.6c0,0.1,0.2,0.1,0.2,0c-0.4-18.5-0.9-37-1.3-55.5
				C138.3,247.4,138.1,247.3,138.1,247.5z"/>
			<path class="st7" d="M138,248.1c0.4,18.5,0.9,37,1.3,55.5c0,0.2,0.5-0.3,0.5-0.5c-0.4-18.5-0.9-37-1.3-55.5
				C138.5,247.4,138,247.9,138,248.1z"/>
			<path class="st7" d="M138.3,248.6c0.4,18.5,0.9,37,1.3,55.6c0,0.2,0.5-0.1,0.5-0.3c-0.4-18.5-0.9-37-1.3-55.6
				C138.8,248.2,138.3,248.5,138.3,248.6z"/>
			<path class="st7" d="M138.1,248.5c0.4,18.5,0.9,37,1.3,55.6c0,0.2,0.5-0.3,0.5-0.4c-0.4-18.5-0.9-37-1.3-55.5
				C138.6,247.9,138.1,248.3,138.1,248.5z"/>
			<path class="st7" d="M137.9,247.8c0.4,18.5,0.9,37,1.3,55.6c0,0.2,0.3,0,0.3-0.2c-0.4-18.5-0.9-37-1.3-55.6
				C138.2,247.5,137.9,247.7,137.9,247.8z"/>
		</g>
	</g>
</g>
<g>
	<g>
		<g>
			<path class="st7" d="M139.6,302.7c-14.4,2.8-28.8,5.6-43.1,8.4c-0.2,0,0.4,0.6,0.5,0.5c14.4-2.8,28.8-5.6,43.1-8.4
				C140.4,303.2,139.8,302.7,139.6,302.7z"/>
			<path class="st7" d="M139.7,302.2c-14.4,2.8-28.8,5.6-43.2,8.4c-0.2,0,0.4,0.5,0.6,0.4c14.4-2.8,28.8-5.6,43.1-8.4
				C140.5,302.6,139.9,302.2,139.7,302.2z"/>
			<path class="st7" d="M140,302.7c-14.4,2.8-28.8,5.6-43.2,8.3c-0.2,0,0.4,0.5,0.6,0.5c14.4-2.8,28.8-5.6,43.1-8.4
				C140.7,303.1,140.1,302.6,140,302.7z"/>
			<path class="st7" d="M140.5,302.7c-14.4,2.8-28.8,5.6-43.2,8.4c-0.1,0-0.1,0.2,0,0.2c14.4-2.8,28.8-5.6,43.2-8.4
				C140.6,302.9,140.6,302.7,140.5,302.7z"/>
			<path class="st7" d="M139.3,302.1c-14.4,2.8-28.8,5.6-43.2,8.4c-0.3,0.1,0.1,0.4,0.3,0.4c14.4-2.8,28.8-5.6,43.2-8.4
				C139.9,302.4,139.5,302.1,139.3,302.1z"/>
			<path class="st7" d="M139.3,302.6c-14.4,2.8-28.8,5.6-43.1,8.4c-0.2,0,0.3,0.5,0.5,0.5c14.4-2.8,28.8-5.6,43.1-8.4
				C140,303,139.5,302.5,139.3,302.6z"/>
			<path class="st7" d="M139.8,303.2c-14.4,2.8-28.8,5.6-43.2,8.4c-0.1,0-0.2,0.2-0.1,0.2c14.4-2.8,28.8-5.6,43.2-8.4
				C139.9,303.4,140,303.2,139.8,303.2z"/>
			<path class="st7" d="M140.2,302.2c-14.4,2.8-28.8,5.6-43.2,8.4c-0.2,0,0,0.3,0.2,0.3c14.4-2.8,28.8-5.6,43.2-8.4
				C140.6,302.4,140.4,302.1,140.2,302.2z"/>
			<path class="st7" d="M139.4,303c-14.4,2.8-28.8,5.6-43.2,8.4c-0.2,0,0.1,0.4,0.3,0.4c14.4-2.8,28.8-5.6,43.2-8.4
				C139.9,303.3,139.6,302.9,139.4,303z"/>
			<path class="st7" d="M139.9,301.9c-14.4,2.8-28.8,5.6-43.2,8.4c-0.2,0,0,0.3,0.2,0.3c14.4-2.8,28.8-5.6,43.2-8.4
				C140.3,302.2,140.1,301.9,139.9,301.9z"/>
			<path class="st7" d="M139.1,302.3c-14.4,2.8-28.8,5.6-43.2,8.4c-0.2,0,0.2,0.4,0.3,0.4c14.4-2.8,28.8-5.6,43.2-8.4
				C139.7,302.6,139.3,302.3,139.1,302.3z"/>
		</g>
	</g>
</g>
<g>
	<g>
		<g>
			<path class="st7" d="M92.7,317.1c5.3,17.5,10.7,34.9,16.1,52.4c0.1,0.2,0.5-0.5,0.4-0.7c-5.3-17.5-10.7-34.9-16.1-52.4
				C93.1,316.3,92.6,316.9,92.7,317.1z"/>
			<path class="st7" d="M92.9,316.5c5.3,17.5,10.7,34.9,16.1,52.4c0.1,0.3,0.4-0.1,0.3-0.2c-5.4-17.5-10.8-35-16.1-52.5
				C93.1,315.9,92.8,316.3,92.9,316.5z"/>
			<path class="st7" d="M93,317c5.3,17.5,10.7,34.9,16.1,52.4c0.1,0.2,0.5-0.4,0.5-0.6c-5.3-17.5-10.7-34.9-16.1-52.4
				C93.4,316.2,93,316.8,93,317z"/>
			<path class="st7" d="M93.3,317.4c5.3,17.5,10.7,34.9,16.1,52.4c0.1,0.2,0.3,0,0.3-0.2c-5.4-17.5-10.7-34.9-16.1-52.4
				C93.5,317.1,93.2,317.3,93.3,317.4z"/>
			<path class="st7" d="M93.4,316.9c5.3,17.5,10.7,34.9,16.1,52.4c0.1,0.2,0.3,0,0.3-0.1c-5.4-17.5-10.7-34.9-16.1-52.4
				C93.6,316.6,93.3,316.8,93.4,316.9z"/>
			<path class="st7" d="M92.4,317c5.3,17.5,10.7,34.9,16.1,52.4c0.1,0.2,0.4-0.4,0.3-0.6c-5.4-17.5-10.7-34.9-16.1-52.4
				C92.7,316.3,92.4,316.9,92.4,317z"/>
			<path class="st7" d="M92.7,317.6c5.3,17.5,10.7,34.9,16.1,52.4c0.1,0.2,0.4-0.3,0.4-0.4c-5.4-17.4-10.7-34.9-16.1-52.4
				C93,317,92.7,317.5,92.7,317.6z"/>
			<path class="st7" d="M92.5,317.4c5.3,17.5,10.7,34.9,16.1,52.4c0.1,0.2,0.4-0.4,0.4-0.5c-5.3-17.5-10.7-34.9-16.1-52.4
				C92.8,316.7,92.4,317.3,92.5,317.4z"/>
			<path class="st7" d="M92.2,316.7c5.4,17.5,10.7,34.9,16.1,52.4c0,0.1,0.3,0,0.2-0.1c-5.4-17.5-10.7-34.9-16.1-52.4
				C92.4,316.5,92.2,316.6,92.2,316.7z"/>
		</g>
	</g>
</g>
<g>
	<g>
		<g>
			<path class="st7" d="M108.5,368.5c-16.2,5.9-32.4,11.9-48.6,17.7c-0.2,0.1,0.5,0.5,0.6,0.4c16.2-5.9,32.4-11.8,48.6-17.7
				C109.3,368.9,108.7,368.4,108.5,368.5z"/>
			<path class="st7" d="M108.6,368c-16.2,5.9-32.4,11.8-48.6,17.7c-0.2,0.1,0.5,0.4,0.7,0.3c16.2-5.9,32.4-11.8,48.6-17.7
				C109.4,368.3,108.8,368,108.6,368z"/>
			<path class="st7" d="M108.8,368.4c-16.2,5.9-32.4,11.9-48.6,17.8c-0.2,0.1,0.5,0.5,0.6,0.4c16.2-5.9,32.4-11.8,48.6-17.7
				C109.6,368.8,109,368.4,108.8,368.4z"/>
			<path class="st7" d="M109.4,368.5c-16.2,5.9-32.4,11.8-48.6,17.7c-0.1,0-0.1,0.3,0,0.2c16.2-5.9,32.4-11.8,48.6-17.8
				C109.4,368.7,109.5,368.4,109.4,368.5z"/>
			<path class="st7" d="M108.2,367.9c-16.2,5.9-32.4,11.8-48.6,17.8c-0.3,0.1,0.2,0.3,0.3,0.3c16.2-5.9,32.4-11.8,48.6-17.8
				C108.7,368.1,108.3,367.8,108.2,367.9z"/>
			<path class="st7" d="M108.2,368.4c-16.2,5.9-32.4,11.9-48.6,17.7c-0.2,0.1,0.4,0.5,0.6,0.4c16.2-5.9,32.4-11.8,48.6-17.7
				C108.9,368.7,108.3,368.3,108.2,368.4z"/>
			<path class="st7" d="M108.7,369c-16.2,5.9-32.4,11.8-48.6,17.8c-0.1,0-0.1,0.3,0,0.2c16.2-5.9,32.4-11.8,48.6-17.8
				C108.8,369.2,108.8,368.9,108.7,369z"/>
			<path class="st7" d="M109.1,367.9c-16.2,5.9-32.4,11.8-48.6,17.8c-0.2,0.1,0,0.3,0.1,0.2c16.2-5.9,32.4-11.8,48.6-17.8
				C109.4,368.1,109.3,367.9,109.1,367.9z"/>
			<path class="st7" d="M108.3,368.7c-16.2,5.9-32.4,11.8-48.6,17.8c-0.2,0.1,0.2,0.4,0.4,0.4c16.2-5.9,32.4-11.8,48.6-17.8
				C108.9,369,108.4,368.7,108.3,368.7z"/>
			<path class="st7" d="M108.8,367.7c-16.2,5.9-32.4,11.8-48.6,17.8c-0.2,0.1,0,0.3,0.2,0.2c16.2-5.9,32.4-11.8,48.6-17.8
				C109.2,367.9,109,367.7,108.8,367.7z"/>
			<path class="st7" d="M108,368.1c-16.2,5.9-32.4,11.8-48.6,17.7c-0.2,0.1,0.3,0.4,0.4,0.3c16.2-5.9,32.4-11.8,48.6-17.8
				C108.6,368.3,108.1,368,108,368.1z"/>
		</g>
	</g>
</g>
<g>
	<g>
		<g>
			<path class="st7" d="M161.4,266.5c-16.2,5.2-32.3,10.4-48.5,15.5c-0.2,0.1,0.5,0.5,0.6,0.5c16.2-5.1,32.3-10.3,48.5-15.5
				C162.2,266.9,161.6,266.4,161.4,266.5z"/>
			<path class="st7" d="M161.5,266c-16.2,5.2-32.3,10.4-48.5,15.5c-0.2,0.1,0.5,0.4,0.7,0.3c16.2-5.1,32.3-10.3,48.5-15.5
				C162.3,266.3,161.7,266,161.5,266z"/>
			<path class="st7" d="M161.7,266.4c-16.2,5.1-32.4,10.3-48.5,15.5c-0.2,0.1,0.4,0.5,0.6,0.4c16.2-5.2,32.3-10.3,48.5-15.5
				C162.5,266.8,161.9,266.4,161.7,266.4z"/>
			<path class="st7" d="M162.3,266.5c-16.2,5.2-32.4,10.3-48.5,15.5c-0.1,0-0.1,0.2,0,0.2c16.2-5.2,32.4-10.3,48.5-15.5
				C162.3,266.7,162.4,266.4,162.3,266.5z"/>
			<path class="st7" d="M161.1,265.8c-16.2,5.2-32.4,10.3-48.5,15.5c-0.3,0.1,0.2,0.4,0.3,0.3c16.2-5.2,32.4-10.3,48.5-15.5
				C161.7,266.1,161.2,265.8,161.1,265.8z"/>
			<path class="st7" d="M161.1,266.3c-16.2,5.2-32.3,10.4-48.5,15.5c-0.2,0.1,0.4,0.5,0.6,0.4c16.2-5.1,32.3-10.3,48.5-15.5
				C161.8,266.7,161.2,266.3,161.1,266.3z"/>
			<path class="st7" d="M161.6,267c-16.2,5.2-32.4,10.3-48.5,15.5c-0.1,0-0.1,0.3,0,0.2c16.2-5.2,32.4-10.3,48.5-15.5
				C161.7,267.2,161.8,266.9,161.6,267z"/>
			<path class="st7" d="M162,265.9c-16.2,5.2-32.4,10.3-48.5,15.5c-0.2,0.1,0,0.3,0.1,0.2c16.2-5.2,32.4-10.3,48.5-15.5
				C162.3,266.1,162.2,265.9,162,265.9z"/>
			<path class="st7" d="M161.2,266.7c-16.2,5.2-32.4,10.3-48.5,15.5c-0.2,0.1,0.2,0.4,0.3,0.4c16.2-5.2,32.4-10.3,48.5-15.5
				C161.8,267,161.3,266.7,161.2,266.7z"/>
			<path class="st7" d="M161.7,265.7c-16.2,5.2-32.4,10.3-48.5,15.5c-0.2,0.1,0,0.3,0.2,0.2c16.2-5.2,32.4-10.3,48.5-15.5
				C162.1,265.9,161.9,265.6,161.7,265.7z"/>
			<path class="st7" d="M160.9,266.1c-16.2,5.2-32.4,10.3-48.5,15.5c-0.2,0.1,0.2,0.4,0.4,0.3c16.2-5.2,32.4-10.3,48.5-15.5
				C161.5,266.3,161,266,160.9,266.1z"/>
		</g>
	</g>
</g>
<g>
	<g>
		<g>
			<path class="st7" d="M113.1,283c3.4,17.5,6.9,35,10.3,52.6c0,0.2,0.5-0.4,0.5-0.6c-3.4-17.5-6.9-35-10.3-52.5
				C113.5,282.2,113,282.8,113.1,283z"/>
			<path class="st7" d="M113.2,282.4c3.4,17.5,6.9,35,10.3,52.6c0.1,0.3,0.4-0.1,0.3-0.2c-3.4-17.5-6.9-35-10.3-52.6
				C113.5,281.8,113.2,282.2,113.2,282.4z"/>
			<path class="st7" d="M113.4,282.9c3.4,17.5,6.9,35,10.3,52.6c0,0.2,0.6-0.4,0.5-0.6c-3.4-17.5-6.9-35-10.3-52.5
				C113.9,282.1,113.3,282.7,113.4,282.9z"/>
			<path class="st7" d="M113.7,283.3c3.4,17.5,6.9,35,10.3,52.6c0,0.2,0.3,0,0.3-0.1c-3.4-17.5-6.9-35-10.3-52.6
				C113.9,283,113.6,283.2,113.7,283.3z"/>
			<path class="st7" d="M113.8,282.8c3.4,17.5,6.9,35,10.3,52.6c0,0.2,0.3,0.1,0.3-0.1c-3.4-17.5-6.9-35-10.3-52.6
				C114,282.5,113.7,282.7,113.8,282.8z"/>
			<path class="st7" d="M112.8,282.3c3.4,17.5,6.9,35,10.3,52.6l0.2,0.1c-3.4-17.5-6.9-35-10.3-52.6
				C113,282.3,112.8,282.2,112.8,282.3z"/>
			<path class="st7" d="M112.8,282.9c3.4,17.5,6.9,35,10.3,52.6c0,0.2,0.4-0.4,0.4-0.5c-3.4-17.5-6.9-35-10.3-52.6
				C113.1,282.2,112.7,282.8,112.8,282.9z"/>
			<path class="st7" d="M113.1,283.5c3.4,17.5,6.9,35,10.3,52.6c0,0.2,0.5-0.2,0.4-0.4c-3.4-17.5-6.9-35-10.3-52.6
				C113.5,282.9,113.1,283.3,113.1,283.5z"/>
			<path class="st7" d="M112.8,283.3c3.4,17.5,6.9,35,10.3,52.6c0,0.2,0.5-0.3,0.4-0.5c-3.4-17.5-6.9-35-10.3-52.5
				C113.2,282.6,112.8,283.2,112.8,283.3z"/>
			<path class="st7" d="M112.6,282.6c3.4,17.5,6.9,35,10.3,52.6c0,0.2,0.3,0,0.2-0.1c-3.4-17.5-6.9-35-10.3-52.6
				C112.8,282.3,112.6,282.5,112.6,282.6z"/>
		</g>
	</g>
</g>
<g>
	<g>
		<g>
			<path class="st7" d="M123.2,334.6c-17,7.3-33.9,14.6-50.9,21.9c-0.2,0.1,0.5,0.5,0.7,0.4c16.9-7.3,33.9-14.6,50.8-21.9
				C124,335,123.3,334.6,123.2,334.6z"/>
			<path class="st7" d="M123.3,334.1c-17,7.3-33.9,14.6-50.9,21.9c-0.2,0.1,0.5,0.3,0.7,0.3c16.9-7.3,33.9-14.6,50.8-21.9
				C124.1,334.4,123.4,334.1,123.3,334.1z"/>
			<path class="st7" d="M123.5,334.6c-17,7.3-33.9,14.6-50.9,21.9c-0.2,0.1,0.5,0.4,0.6,0.4c17-7.3,33.9-14.6,50.9-21.9
				C124.3,334.8,123.7,334.5,123.5,334.6z"/>
			<path class="st7" d="M124.1,334.6c-17,7.3-33.9,14.6-50.9,21.9c-0.1,0-0.1,0.3,0,0.2c17-7.3,33.9-14.6,50.9-21.9
				C124.1,334.8,124.2,334.6,124.1,334.6z"/>
			<path class="st7" d="M122.8,334c-17,7.3-33.9,14.6-50.9,21.9c-0.3,0.1,0.2,0.3,0.3,0.3c17-7.3,33.9-14.6,50.9-21.9
				C123.4,334.1,123,333.9,122.8,334z"/>
			<path class="st7" d="M122.8,334.5c-17,7.3-33.9,14.6-50.9,21.9c-0.2,0.1,0.4,0.4,0.6,0.4c16.9-7.3,33.9-14.6,50.8-21.9
				C123.6,334.8,123,334.4,122.8,334.5z"/>
			<path class="st7" d="M123.4,335.1c-17,7.3-33.9,14.6-50.9,21.9c-0.1,0.1-0.1,0.3,0,0.2c17-7.3,33.9-14.6,50.9-21.9
				C123.5,335.3,123.5,335,123.4,335.1z"/>
			<path class="st7" d="M123.8,334c-17,7.3-33.9,14.6-50.9,21.9c-0.1,0.1,0,0.3,0.1,0.2c17-7.3,33.9-14.6,50.9-21.9
				C124.1,334.2,124,334,123.8,334z"/>
			<path class="st7" d="M123,334.8c-17,7.3-33.9,14.6-50.9,21.9c-0.2,0.1,0.3,0.4,0.4,0.4c17-7.3,33.9-14.6,50.9-21.9
				C123.6,335.1,123.1,334.8,123,334.8z"/>
			<path class="st7" d="M123.5,333.8c-17,7.3-33.9,14.6-50.9,21.9c-0.2,0.1,0,0.3,0.2,0.2c17-7.3,33.9-14.6,50.9-21.9
				C123.8,334,123.6,333.8,123.5,333.8z"/>
			<path class="st7" d="M122.6,334.2c-17,7.3-33.9,14.6-50.9,21.9c-0.2,0.1,0.3,0.3,0.4,0.3c17-7.3,33.9-14.6,50.9-21.9
				C123.2,334.4,122.8,334.2,122.6,334.2z"/>
		</g>
	</g>
</g>
<path id="XMLID_4_" class="st1" d="M735.1-67.5c4.9,0.1,9.6-0.7,14-2.1c3.3,14.2,18.1,25,35.9,25.2c9.1,0.1,17.4-2.6,23.8-7
	c6.4,4.6,14.6,7.5,23.7,7.6c15.8,0.2,29.4-8.1,34.8-19.9c0.8,0,1.5,0.1,2.3,0.1c22.7,0.3,41.3-14.4,41.5-32.7
	c0.2-18.3-18-33.4-40.7-33.6c-2.4,0-4.8,0.1-7.1,0.4c-0.6-16.6-16.6-30.1-36.5-30.3c-11.9-0.2-22.3,4.3-29.2,11.4
	c-6.4-4.9-14.9-7.9-24.3-8c-18.8-0.3-34.4,11.4-36.9,26.7c-0.2,0-0.4,0-0.6,0c-20.4-0.3-37.1,13.5-37.3,30.7S714.7-67.7,735.1-67.5z
	"/>
<path id="XMLID_2_" class="st3" d="M738.1-74.5c4.9,0.1,9.6-0.7,14-2.1c3.3,14.2,18.1,25,35.9,25.2c9.1,0.1,17.4-2.6,23.8-7
	c6.4,4.6,14.6,7.5,23.7,7.6c15.8,0.2,29.4-8.1,34.8-19.9c0.8,0,1.5,0.1,2.3,0.1c22.7,0.3,41.3-14.4,41.5-32.7
	c0.2-18.3-18-33.4-40.7-33.6c-2.4,0-4.8,0.1-7.1,0.4c-0.6-16.6-16.6-30.1-36.5-30.3c-11.9-0.2-22.3,4.3-29.2,11.4
	c-6.4-4.9-14.9-7.9-24.3-8c-18.8-0.3-34.4,11.4-36.9,26.7c-0.2,0-0.4,0-0.6,0c-20.4-0.3-37.1,13.5-37.3,30.7S717.7-74.7,738.1-74.5z
	"/>
</svg>
