<?xml version="1.0" encoding="utf-8"?>
<!-- Generator: Adobe Illustrator 19.0.0, SVG Export Plug-In . SVG Version: 6.00 Build 0)  -->
<svg version="1.1" id="lion" xmlns="http://www.w3.org/2000/svg" xmlns:xlink="http://www.w3.org/1999/xlink" x="0px" y="0px"
	 viewBox="0 0 239 284.3" style="enable-background:new 0 0 239 284.3;" xml:space="preserve">
<style type="text/css">
	.st0{fill:none;stroke:#FFCA06;stroke-width:9;stroke-linecap:round;stroke-miterlimit:10;}
	.st1{clip-path:url(#SVGID_2_);fill:none;stroke:#EEAE1F;stroke-width:9;stroke-linecap:round;stroke-miterlimit:10;}
	.st2{fill:#E87426;}
	.st3{fill:none;}
	.st4{opacity:0.81;}
	.st5{fill:#DB6C27;}
	.st6{fill:#FFCA06;}
	.st7{fill:#EEAE1F;}
	.st8{opacity:0.3;fill:#FFCA06;enable-background:new    ;}
	.st9{fill:none;stroke:#EEAE1F;stroke-width:2;stroke-linecap:round;stroke-miterlimit:10;}
	.st10{fill:#010101;}
	.st11{fill:none;stroke:#010101;stroke-width:4;stroke-linecap:round;stroke-linejoin:round;stroke-miterlimit:10;}
</style>
<g id="lion-tail">
	<path class="st0" d="M183,27.6c-20.5,33,58.8,25.2,31.9,67.1"/>
	<g>
		<g>
			<defs>
				<path id="SVGID_1_" d="M196.3,2.6l-3.6,7.3l-0.9-4.6c-1.5,1-2,1.5-3.4,2.8c-8.9,8.5-9.2,17.8-6.6,20.5
					c3.9,4.1,13.3,1.6,20.8-5.6s10.5-16.4,6.6-20.5C206.6-0.2,201.6,0,196.3,2.6L196.3,2.6z"/>
			</defs>
			<clipPath id="SVGID_2_">
				<use xlink:href="#SVGID_1_"  style="overflow:visible;"/>
			</clipPath>
			<path class="st1" d="M183.2,27.4c-25.8,27.8,55.1,34.4,31.9,67.1"/>
		</g>
	</g>
	<g>
		<path class="st2" d="M197,2l-3.6,7.3l-0.9-4.6c-1.5,1-2,1.5-3.4,2.8c-7.6,7.2-10.5,16.4-6.6,20.5s13.3,1.6,20.8-5.6
			c7.6-7.2,10.5-16.4,6.6-20.5C207.4-0.8,202.3-0.6,197,2L197,2z"/>
	</g>
</g>
<g id="lion-body">
	<g id="XMLID_20_">
		<path id="XMLID_21_" class="st2" d="M213.3,237.9l4.2-5.6C231,213,239,189.6,239,165.1c0-2.5,0-5-0.1-7.5l-29,1.5l28.7-6.8
			c-3.3-47-25.6-86.8-77.4-99l0,0l-12.5,26.5l4.3-30.3l0,0c-10-1.7-25.9-1.2-38-0.8C60.6,50.3,15.9,84.4,1.5,132.2l0,0l32.5,9.7H2.4
			C0.8,149.4,0,157.2,0,165.2c0,63.9,22.7,109.6,119.5,115.7C157.5,283.1,191.4,265.5,213.3,237.9L213.3,237.9"/>
	</g>
	<line class="st3" x1="51.9" y1="284.3" x2="64.6" y2="284.3"/>
	<g class="st4">
		<path class="st5" d="M80.3,279.2H32.2c-1.5,0-2.7-1.3-2.6-2.7c1.1-17.4,12.6-31.7,26.6-30.9c17.7,1,25.9,13.7,26.6,31
			C83,277.9,81.8,279.2,80.3,279.2z"/>
	</g>
	<g>
		<path class="st6" d="M79.6,281.1H31.5c-1.5,0-2.7-1.3-2.6-2.7c1.1-17.4,12.6-31.7,26.6-30.9c17.7,1,25.9,13.7,26.6,31
			C82.3,279.9,81.1,281.1,79.6,281.1z"/>
	</g>
	<path class="st2" d="M34.9,281.2c0-4.8,2.9-8.8,6.4-8.8s6.4,3.9,6.4,8.8"/>
	<path class="st2" d="M49.7,281.2c0-4.8,2.9-8.8,6.4-8.8s6.4,3.9,6.4,8.8"/>
	<path class="st2" d="M64.4,281.2c0-4.8,2.9-8.8,6.4-8.8s6.4,3.9,6.4,8.8"/>
	<g class="st4">
		<path class="st5" d="M160.9,279.2H209c1.5,0,2.7-1.3,2.6-2.7c-1.1-17.4-12.6-31.7-26.6-30.9c-17.7,1-25.9,13.7-26.6,31
			C158.2,277.9,159.4,279.2,160.9,279.2z"/>
	</g>
	<g>
		<path class="st6" d="M161.2,281.1h48.1c1.5,0,2.7-1.3,2.6-2.7c-1.1-17.4-12.6-31.7-26.6-30.9c-17.7,1-25.9,13.7-26.6,31
			C158.5,279.9,159.7,281.1,161.2,281.1z"/>
	</g>
	<path class="st2" d="M205.9,281.2c0-4.8-2.9-8.8-6.4-8.8s-6.4,3.9-6.4,8.8"/>
	<path class="st2" d="M191,281.2c0-4.8-2.9-8.8-6.4-8.8s-6.4,3.9-6.4,8.8"/>
	<path class="st2" d="M176.4,281.2c0-4.8-2.9-8.8-6.4-8.8s-6.4,3.9-6.4,8.8"/>
</g>
<g id="lion-head">
	<path id="XMLID_37_" class="st7" d="M178.4,164.7l-0.4-22.4c-0.2-12.4-10.8-22.2-23.5-22c-12.8,0.3-22.9,10.5-22.7,22.9l0.4,22.4
		L178.4,164.7z"/>
	<path id="XMLID_32_" class="st8" d="M121.6,266.7L121.6,266.7c-30,0-57.2-27.7-57.2-57.7v-37.1c0-14.9,12.2-27,27-27h60.2
		c14.9,0,27,12.2,27,27V209C178.7,239,151.6,266.7,121.6,266.7z"/>
	<path id="XMLID_36_" class="st6" d="M172,170.5l-0.4-22.5c0-12.8-3.2-22.5-16.9-22.6c-13.3,0-17.1,9.4-16.8,23.3l0.4,22.4
		L172,170.5z"/>
	<path id="XMLID_35_" class="st7" d="M111,164.9l-0.4-22.4c-0.2-12.4-10.8-22.2-23.5-22c-12.8,0.3-22.9,10.5-22.7,22.9l0.4,22.4
		L111,164.9z"/>
	<path id="XMLID_34_" class="st6" d="M104.6,170.7l-0.4-22.5c0-12.8-3.2-22.5-16.9-22.6c-13.3,0-17.1,9.4-16.8,23.3l0.4,22.4
		L104.6,170.7z"/>
	<path id="XMLID_33_" class="st6" d="M121.5,264L121.5,264c-30,0-57-25.3-57-56v-38.1c0-15.3,12.2-27.7,27-27.7h60.2
		c14.9,0,27,12.5,27,27.7V208C178.7,238.8,151.4,264,121.5,264z"/>
	<line id="XMLID_31_" class="st9" x1="154.6" y1="218.1" x2="207.8" y2="212.1"/>
	<line id="XMLID_30_" class="st9" x1="156.9" y1="225" x2="193" y2="225"/>
	<line id="XMLID_29_" class="st9" x1="150.8" y1="229.3" x2="192.1" y2="239.7"/>
	<line id="XMLID_28_" class="st9" x1="93.1" y1="218.5" x2="54.9" y2="208.9"/>
	<line id="XMLID_27_" class="st9" x1="90" y1="224.7" x2="39.3" y2="219.4"/>
	<line id="XMLID_26_" class="st9" x1="95.6" y1="229.3" x2="58.7" y2="239.6"/>
	<circle id="XMLID_18_" class="st10" cx="96.7" cy="202.4" r="4.1"/>
	<circle id="XMLID_19_" class="st10" cx="144.2" cy="202.4" r="4.1"/>
	<path id="XMLID_23_" class="st11" d="M121.5,237.7v-17.3"/>
	<path id="XMLID_14_" class="st10" d="M121.5,229L121.5,229c-3.1,0-11.9-3.6-11.9-8l0,0c0-4.4,2.6-8,5.7-8h12.3c3.1,0,5.7,3.6,5.7,8
		l0,0C133.5,225.4,124.7,229,121.5,229z"/>
	<path id="XMLID_15_" class="st11" d="M121.5,234.7c0,12.5-9.6,12.5-16.6,2.2"/>
	<path id="XMLID_16_" class="st11" d="M138.1,236.9c-7,10.3-16.6,10.3-16.6-2.2"/>
</g>
</svg>
