<?xml version="1.0" encoding="utf-8"?>
<!-- Generator: Adobe Illustrator 19.0.0, SVG Export Plug-In . SVG Version: 6.00 Build 0)  -->
<svg version="1.1" id="lion" xmlns="http://www.w3.org/2000/svg" xmlns:xlink="http://www.w3.org/1999/xlink" x="0px" y="0px"
	 viewBox="-178 278.6 239 284.3" style="enable-background:new -178 278.6 239 284.3;" xml:space="preserve">
<style type="text/css">
	.st0{fill:none;stroke:#FFCA06;stroke-width:9;stroke-linecap:round;stroke-miterlimit:10;}
	.st1{clip-path:url(#SVGID_2_);fill:none;stroke:#EEAE1F;stroke-width:9;stroke-linecap:round;stroke-miterlimit:10;}
	.st2{fill:#E87426;}
	.st3{fill:none;}
	.st4{opacity:0.81;}
	.st5{fill:#DB6C27;}
	.st6{fill:#FFCA06;}
	.st7{fill:#EEAE1F;}
	.st8{opacity:0.3;fill:#FFCA06;enable-background:new    ;}
	.st9{fill:none;stroke:#EEAE1F;stroke-width:2;stroke-linecap:round;stroke-miterlimit:10;}
	.st10{fill:#010101;}
	.st11{fill:none;stroke:#010101;stroke-width:4;stroke-linecap:round;stroke-linejoin:round;stroke-miterlimit:10;}
	.st12{fill:none;stroke:#000000;stroke-width:4;stroke-linecap:round;stroke-linejoin:round;stroke-miterlimit:10;}
</style>
<g id="lion-tail">
	<path class="st0" d="M5,306.2c-20.5,33,58.8,25.2,31.9,67.1"/>
	<g>
		<g>
			<g>
				<g>
					<defs>
						<path id="SVGID_1_" d="M18.3,281.2l-3.6,7.3l-0.9-4.6c-1.5,1-2,1.5-3.4,2.8c-8.9,8.5-9.2,17.8-6.6,20.5
							c3.9,4.1,13.3,1.6,20.8-5.6s10.5-16.4,6.6-20.5C28.6,278.4,23.6,278.6,18.3,281.2L18.3,281.2z"/>
					</defs>
					<clipPath id="SVGID_2_">
						<use xlink:href="#SVGID_1_"  style="overflow:visible;"/>
					</clipPath>
					<path class="st1" d="M5.2,306c-25.8,27.8,55.1,34.4,31.9,67.1"/>
				</g>
			</g>
		</g>
	</g>
	<g>
		<path class="st2" d="M19,280.6l-3.6,7.3l-0.9-4.6c-1.5,1-2,1.5-3.4,2.8c-7.6,7.2-10.5,16.4-6.6,20.5s13.3,1.6,20.8-5.6
			c7.6-7.2,10.5-16.4,6.6-20.5C29.4,277.8,24.3,278,19,280.6L19,280.6z"/>
	</g>
</g>
<g id="lion-body">
	<g id="XMLID_20_">
		<path id="XMLID_21_" class="st2" d="M35.3,516.5l4.2-5.6C53,491.6,61,468.2,61,443.7c0-2.5,0-5-0.1-7.5l-29,1.5l28.7-6.8
			c-3.3-47-25.6-86.8-77.4-99l0,0l-12.5,26.5l4.3-30.3l0,0c-10-1.7-25.9-1.2-38-0.8c-54.4,1.6-99.1,35.7-113.5,83.5l0,0l32.5,9.7
			h-31.6c-1.6,7.5-2.4,15.3-2.4,23.3c0,63.9,22.7,109.6,119.5,115.7C-20.5,561.7,13.4,544.1,35.3,516.5L35.3,516.5"/>
	</g>
	<line class="st3" x1="-126.1" y1="562.9" x2="-113.4" y2="562.9"/>
	<g class="st4">
		<path class="st5" d="M-97.7,557.8h-48.1c-1.5,0-2.7-1.3-2.6-2.7c1.1-17.4,12.6-31.7,26.6-30.9c17.7,1,25.9,13.7,26.6,31
			C-95,556.5-96.2,557.8-97.7,557.8z"/>
	</g>
	<g>
		<path class="st6" d="M-98.4,559.7h-48.1c-1.5,0-2.7-1.3-2.6-2.7c1.1-17.4,12.6-31.7,26.6-30.9c17.7,1,25.9,13.7,26.6,31
			C-95.7,558.5-96.9,559.7-98.4,559.7z"/>
	</g>
	<path class="st2" d="M-143.1,559.8c0-4.8,2.9-8.8,6.4-8.8s6.4,3.9,6.4,8.8"/>
	<path class="st2" d="M-128.3,559.8c0-4.8,2.9-8.8,6.4-8.8s6.4,3.9,6.4,8.8"/>
	<path class="st2" d="M-113.6,559.8c0-4.8,2.9-8.8,6.4-8.8s6.4,3.9,6.4,8.8"/>
	<g class="st4">
		<path class="st5" d="M-17.1,557.8H31c1.5,0,2.7-1.3,2.6-2.7C32.5,537.7,21,523.4,7,524.2c-17.7,1-25.9,13.7-26.6,31
			C-19.8,556.5-18.6,557.8-17.1,557.8z"/>
	</g>
	<g>
		<path class="st6" d="M-16.8,559.7h48.1c1.5,0,2.7-1.3,2.6-2.7c-1.1-17.4-12.6-31.7-26.6-30.9c-17.7,1-25.9,13.7-26.6,31
			C-19.5,558.5-18.3,559.7-16.8,559.7z"/>
	</g>
	<path class="st2" d="M27.9,559.8c0-4.8-2.9-8.8-6.4-8.8s-6.4,3.9-6.4,8.8"/>
	<path class="st2" d="M13,559.8c0-4.8-2.9-8.8-6.4-8.8s-6.4,3.9-6.4,8.8"/>
	<path class="st2" d="M-1.6,559.8c0-4.8-2.9-8.8-6.4-8.8s-6.4,3.9-6.4,8.8"/>
</g>
<path id="XMLID_37_" class="st7" d="M4.1,435.2l-0.4-24.8C3.5,396.7-7.6,385.8-20.8,386c-13.3,0.3-23.8,11.6-23.6,25.4l0.4,24.8
	L4.1,435.2z"/>
<path id="XMLID_32_" class="st8" d="M-55,542.9L-55,542.9c-31.2,0-59.3-32.3-59.3-62.3l-0.2-32.5c0-14.9,12.7-27,28.1-27h62.6
	c15.5,0,28.1,12.2,28.1,27l0.1,27.7C4.5,505.8-23.8,542.9-55,542.9z"/>
<path id="XMLID_36_" class="st6" d="M-2.6,441.6L-3,416.7c0-14.2-3.3-24.9-17.6-25c-13.8,0-17.8,10.4-17.5,25.8l0.4,24.8L-2.6,441.6
	z"/>
<path id="XMLID_35_" class="st7" d="M-66,436.4l-0.4-24.8c-0.2-13.7-11.2-24.6-24.4-24.4c-13.3,0.3-23.8,11.6-23.6,25.4l0.4,24.8
	L-66,436.4z"/>
<path id="XMLID_34_" class="st6" d="M-72.6,442.9l-0.4-24.9c0-14.2-3.3-24.9-17.6-25c-13.8,0-17.8,10.4-17.5,25.8l0.4,24.8
	L-72.6,442.9z"/>
<path id="XMLID_33_" class="st6" d="M-55.3,540.1L-55.3,540.1c-31.2,0-59.3-33.4-59.3-67.5l0.1-32.3c-0.1-22.5,22.4-35.1,37.8-35.1
	h43.7c15.5,0,38.7,16.7,37.2,36.6L4,469.3C4,503.4-24.3,540.1-55.3,540.1z"/>
<line id="XMLID_31_" class="st9" x1="-22.2" y1="496.3" x2="31" y2="490.3"/>
<line id="XMLID_30_" class="st9" x1="-19.9" y1="503.2" x2="16.2" y2="503.2"/>
<line id="XMLID_29_" class="st9" x1="-26" y1="507.5" x2="15.3" y2="517.9"/>
<line id="XMLID_28_" class="st9" x1="-83.7" y1="496.7" x2="-121.9" y2="487.1"/>
<line id="XMLID_27_" class="st9" x1="-86.8" y1="502.9" x2="-137.5" y2="497.6"/>
<line id="XMLID_26_" class="st9" x1="-81.2" y1="507.5" x2="-118.1" y2="517.8"/>
<circle id="XMLID_18_" class="st10" cx="-80.1" cy="480.6" r="4.1"/>
<circle id="XMLID_19_" class="st10" cx="-31.6" cy="480.6" r="4.1"/>
<path id="XMLID_23_" class="st11" d="M-56.3,521.9v-21.3"/>
<path id="XMLID_14_" class="st10" d="M-56.3,508.1L-56.3,508.1c-3.1,0-11.9-3.6-11.9-8l0,0c0-4.4,2.6-8,5.7-8h12.3
	c3.1,0,5.7,3.6,5.7,8l0,0C-44.3,504.5-53.1,508.1-56.3,508.1z"/>
<path id="XMLID_1_" class="st11" d="M-55.3,512.9"/>
<path id="XMLID_3_" class="st11" d="M-55.3,519.9"/>
<path id="XMLID_2_" class="st11" d="M-38.7,515.1"/>
<path class="st12" d="M-56.5,502.7"/>
<path class="st12" d="M-44.5,516.2c-1.9,4.6-6.5,7.9-11.9,7.9c-5.3,0-9.9-3.2-11.8-7.8"/>
<path class="st12" d="M-43.7,515.5"/>
</svg>
