<?xml version="1.0" encoding="utf-8"?>
<!-- Generator: Adobe Illustrator 19.0.0, SVG Export Plug-In . SVG Version: 6.00 Build 0)  -->
<svg version="1.1" id="lion" xmlns="http://www.w3.org/2000/svg" xmlns:xlink="http://www.w3.org/1999/xlink" x="0px" y="0px"
	 viewBox="-178 278.6 239 284.3" style="enable-background:new -178 278.6 239 284.3;" xml:space="preserve">
<style type="text/css">
	.st0{fill:none;stroke:#FFCA06;stroke-width:9;stroke-miterlimit:10;}
	.st1{fill:#E67326;}
	.st2{opacity:0.5;}
	.st3{clip-path:url(#XMLID_2_);fill:none;stroke:#E67326;stroke-width:9;stroke-miterlimit:10;}
	.st4{fill:#FBE90C;}
	.st5{fill:none;}
	.st6{fill:#FFCA06;}
	.st7{opacity:0.3;fill:#FFCA0B;enable-background:new    ;}
	.st8{fill:none;stroke:#E67326;stroke-width:2;stroke-linecap:round;stroke-miterlimit:10;}
	.st9{fill:#010101;}
	.st10{fill:none;stroke:#010101;stroke-width:4;stroke-linecap:round;stroke-linejoin:round;stroke-miterlimit:10;}
</style>
<g id="lion-tail">
	<path id="XMLID_76_" class="st0" d="M5.4,305c-20.5,33,58.8,25.2,31.9,67.1"/>
	<g id="XMLID_70_">
		<path id="XMLID_71_" class="st1" d="M17.6,280.6l-3.6,7.3l-0.9-4.6c-1.5,1-2,1.5-3.4,2.8c-7.6,7.2-10.5,16.4-6.6,20.5
			s13.3,1.6,20.8-5.6c7.6-7.2,10.5-16.4,6.6-20.5C28,277.8,22.9,278,17.6,280.6L17.6,280.6z"/>
	</g>
	<g class="st2">
		<defs>
			<path id="XMLID_4_" class="st2" d="M16.3,282.5l-3.6,7.3l-0.9-4.6c-1.5,1-2,1.5-3.4,2.8c-7.6,7.2-10.5,16.4-6.6,20.5
				s13.3,1.6,20.8-5.6c7.6-7.2,10.5-16.4,6.6-20.5C26.7,279.7,21.6,279.9,16.3,282.5L16.3,282.5z"/>
		</defs>
		<clipPath id="XMLID_2_">
			<use xlink:href="#XMLID_4_"  style="overflow:visible;"/>
		</clipPath>
		<path id="XMLID_5_" class="st3" d="M5.6,304.7c-20.5,33,58.8,25.2,31.9,67.1"/>
	</g>
</g>
<g id="lion-body">
	<g id="XMLID_20_">
		<path id="XMLID_21_" class="st4" d="M35.3,516.5l4.2-5.6C53,491.6,61,468.2,61,443.7c0-2.5,0-5-0.1-7.5l-29,1.5l28.7-6.8
			c-3.3-47-25.6-86.8-77.4-99l0,0l-12.5,26.5l4.3-30.3l0,0c-10-1.7-25.9-1.2-38-0.8c-54.4,1.6-99.1,35.7-113.5,83.5l0,0l32.5,9.7
			h-31.6c-1.6,7.5-2.4,15.3-2.4,23.3c0,63.9,22.7,109.6,119.5,115.7C-20.5,561.7,13.4,544.1,35.3,516.5L35.3,516.5"/>
	</g>
	<line id="XMLID_67_" class="st5" x1="-126.1" y1="562.9" x2="-113.4" y2="562.9"/>
	<g id="XMLID_65_" class="st2">
		<path id="XMLID_66_" class="st1" d="M-97.7,557.8h-48.1c-1.5,0-2.7-1.3-2.6-2.7c1.1-17.4,12.6-31.7,26.6-30.9
			c17.7,1,25.9,13.7,26.6,31C-95,556.5-96.2,557.8-97.7,557.8z"/>
	</g>
	<g id="XMLID_63_">
		<path id="XMLID_64_" class="st6" d="M-98.4,559.7h-48.1c-1.5,0-2.7-1.3-2.6-2.7c1.1-17.4,12.6-31.7,26.6-30.9
			c17.7,1,25.9,13.7,26.6,31C-95.7,558.5-96.9,559.7-98.4,559.7z"/>
	</g>
	<path id="XMLID_62_" class="st1" d="M-143.1,559.8c0-4.8,2.9-8.8,6.4-8.8s6.4,3.9,6.4,8.8"/>
	<path id="XMLID_61_" class="st1" d="M-128.3,559.8c0-4.8,2.9-8.8,6.4-8.8s6.4,3.9,6.4,8.8"/>
	<path id="XMLID_60_" class="st1" d="M-113.6,559.8c0-4.8,2.9-8.8,6.4-8.8s6.4,3.9,6.4,8.8"/>
	<g id="XMLID_58_" class="st2">
		<path id="XMLID_59_" class="st1" d="M-17.1,557.8H31c1.5,0,2.7-1.3,2.6-2.7C32.5,537.7,21,523.4,7,524.2
			c-17.7,1-25.9,13.7-26.6,31C-19.8,556.5-18.6,557.8-17.1,557.8z"/>
	</g>
	<g id="XMLID_56_">
		<path id="XMLID_57_" class="st6" d="M-16.8,559.7h48.1c1.5,0,2.7-1.3,2.6-2.7c-1.1-17.4-12.6-31.7-26.6-30.9
			c-17.7,1-25.9,13.7-26.6,31C-19.5,558.5-18.3,559.7-16.8,559.7z"/>
	</g>
	<path id="XMLID_55_" class="st1" d="M27.9,559.8c0-4.8-2.9-8.8-6.4-8.8s-6.4,3.9-6.4,8.8"/>
	<path id="XMLID_54_" class="st1" d="M13,559.8c0-4.8-2.9-8.8-6.4-8.8s-6.4,3.9-6.4,8.8"/>
	<path id="XMLID_53_" class="st1" d="M-1.6,559.8c0-4.8-2.9-8.8-6.4-8.8s-6.4,3.9-6.4,8.8"/>
</g>
<g id="lion-head">
	<path id="XMLID_37_" class="st1" d="M2.4,436.7L2,414.3c-0.2-12.4-10.8-22.2-23.5-22c-12.8,0.3-22.9,10.5-22.7,22.9l0.4,22.4
		L2.4,436.7z"/>
	<path id="XMLID_32_" class="st7" d="M-54.4,538.6L-54.4,538.6c-30,0-57.2-27.7-57.2-57.7v-37.1c0-14.9,12.2-27,27-27h60.2
		c14.9,0,27,12.2,27,27V481C2.7,511-24.4,538.6-54.4,538.6z"/>
	<path id="XMLID_36_" class="st6" d="M-4,442.5L-4.4,420c0-12.8-3.2-22.5-16.9-22.6c-13.3,0-17.1,9.4-16.8,23.3l0.4,22.4L-4,442.5z"
		/>
	<path id="XMLID_35_" class="st1" d="M-65,436.9l-0.4-22.4c-0.2-12.4-10.8-22.2-23.5-22c-12.8,0.3-22.9,10.5-22.7,22.9l0.4,22.4
		L-65,436.9z"/>
	<path id="XMLID_34_" class="st6" d="M-71.4,442.7l-0.4-22.5c0-12.8-3.2-22.5-16.9-22.6c-13.3,0-17.1,9.4-16.8,23.3l0.4,22.4
		L-71.4,442.7z"/>
	<path id="XMLID_33_" class="st6" d="M-54.5,535.9L-54.5,535.9c-30,0-57-25.3-57-56v-38.1c0-15.3,12.2-27.7,27-27.7h60.2
		c14.9,0,27,12.5,27,27.7V480C2.7,510.8-24.6,535.9-54.5,535.9z"/>
	<line id="XMLID_31_" class="st8" x1="-21.4" y1="490.1" x2="31.8" y2="484.1"/>
	<line id="XMLID_30_" class="st8" x1="-19.1" y1="497" x2="17" y2="497"/>
	<line id="XMLID_29_" class="st8" x1="-25.2" y1="501.3" x2="16.1" y2="511.7"/>
	<line id="XMLID_28_" class="st8" x1="-82.9" y1="490.5" x2="-121.1" y2="480.9"/>
	<line id="XMLID_27_" class="st8" x1="-86" y1="496.7" x2="-136.7" y2="491.4"/>
	<line id="XMLID_26_" class="st8" x1="-80.4" y1="501.3" x2="-117.3" y2="511.6"/>
	<circle id="XMLID_18_" class="st9" cx="-79.3" cy="475.4" r="4.1"/>
	<circle id="XMLID_19_" class="st9" cx="-31.8" cy="475.4" r="4.1"/>
	<path id="XMLID_23_" class="st10" d="M-54.4,523.4l-0.1-31"/>
	<path id="XMLID_14_" class="st9" d="M-54.5,501L-54.5,501c-3.1,0-11.9-3.6-11.9-8l0,0c0-4.4,2.6-8,5.7-8h12.3c3.1,0,5.7,3.6,5.7,8
		l0,0C-42.5,497.4-51.3,501-54.5,501z"/>
	<path class="st10" d="M-77.9,511.7"/>
	<path class="st10" d="M-31.8,511.7c-2.7,6.8-11.8,11.8-22.7,11.8c-10.9,0-20.1-5-22.7-11.9"/>
</g>
</svg>
