<?xml version="1.0" encoding="utf-8"?>
<!-- Generator: Adobe Illustrator 19.0.0, SVG Export Plug-In . SVG Version: 6.00 Build 0)  -->
<svg version="1.1" id="lion" xmlns="http://www.w3.org/2000/svg" xmlns:xlink="http://www.w3.org/1999/xlink" x="0px" y="0px"
	 viewBox="-174.3 282.3 239 279.8" style="enable-background:new -174.3 282.3 239 279.8;" xml:space="preserve">
<style type="text/css">
	.st0{fill:none;stroke:#FBE90C;stroke-width:9;stroke-linecap:round;stroke-miterlimit:10;}
	.st1{clip-path:url(#SVGID_2_);fill:none;stroke:#ECAD20;stroke-width:9;stroke-linecap:round;stroke-miterlimit:10;}
	.st2{fill:#FFC900;}
	.st3{fill:#FCF74C;}
	.st4{fill:none;}
	.st5{opacity:0.4;}
	.st6{fill:#E67326;}
	.st7{opacity:0.4;fill:#FFC900;}
	.st8{fill:none;stroke:#FFFFFF;stroke-miterlimit:10;}
	.st9{fill:#010101;}
	.st10{opacity:0.1091;fill:#E87325;enable-background:new    ;}
	.st11{fill:none;stroke:#010101;stroke-width:4;stroke-linecap:round;stroke-linejoin:round;stroke-miterlimit:10;}
</style>
<g id="lion-tail">
	<path id="XMLID_76_" class="st0" d="M11.5,309.9c-20.5,33,58.8,25.2,31.9,67.1"/>
	<g id="XMLID_72_">
		<g id="XMLID_73_">
			<g>
				<g>
					<g>
						<g>
							<defs>
								<path id="SVGID_1_" d="M24.8,284.9l-3.6,7.3l-0.9-4.6c-1.5,1-2,1.5-3.4,2.8c-8.9,8.5-9.2,17.8-6.6,20.5
									c3.9,4.1,13.3,1.6,20.8-5.6s10.5-16.4,6.6-20.5C35.1,282.1,30.1,282.3,24.8,284.9L24.8,284.9z"/>
							</defs>
							<clipPath id="SVGID_2_">
								<use xlink:href="#SVGID_1_"  style="overflow:visible;"/>
							</clipPath>
							<path id="XMLID_74_" class="st1" d="M11.7,309.7c-25.8,27.8,55.1,34.4,31.9,67.1"/>
						</g>
					</g>
				</g>
			</g>
		</g>
	</g>
	<g id="XMLID_70_">
		<path id="XMLID_71_" class="st2" d="M25.5,284.3l-3.6,7.3L21,287c-1.5,1-2,1.5-3.4,2.8C10,297,7.1,306.2,11,310.3
			s13.3,1.6,20.8-5.6c7.6-7.2,10.5-16.4,6.6-20.5C35.9,281.5,30.8,281.7,25.5,284.3L25.5,284.3z"/>
	</g>
</g>
<g id="lion-body">
	<g id="XMLID_20_">
		<path id="XMLID_21_" class="st3" d="M39,516.2l4.2-5.6c13.5-19.3,21.5-42.7,21.5-67.2c0-2.5,0-5-0.1-7.5l-29,1.5l28.7-6.8
			c-3.3-47-25.6-86.8-77.4-99l0,0l-12.5,26.5l4.3-30.3l0,0c-10-1.7-25.9-1.2-38-0.8c-54.4,1.6-99.1,35.7-113.5,83.5l0,0l32.5,9.7
			h-31.6c-1.6,7.5-2.4,15.3-2.4,23.3c0,63.9,22.7,109.6,119.5,115.7C-16.8,561.4,17.1,543.8,39,516.2L39,516.2"/>
	</g>
	<line id="XMLID_67_" class="st4" x1="-122.4" y1="562.1" x2="-109.7" y2="562.1"/>
	<g id="XMLID_65_" class="st5">
		<path id="XMLID_66_" class="st2" d="M-94,557h-48.1c-1.5,0-2.7-1.3-2.6-2.7c1.1-17.4,12.6-31.7,26.6-30.9
			c17.7,1,25.9,13.7,26.6,31C-91.3,555.7-92.5,557-94,557z"/>
	</g>
	<g id="XMLID_63_">
		<path id="XMLID_64_" class="st2" d="M-94.7,558.9h-48.1c-1.5,0-2.7-1.3-2.6-2.7c1.1-17.4,12.6-31.7,26.6-30.9
			c17.7,1,25.9,13.7,26.6,31C-92,557.7-93.2,558.9-94.7,558.9z"/>
	</g>
	<path id="XMLID_62_" class="st6" d="M-139.4,559c0-4.8,2.9-8.8,6.4-8.8s6.4,3.9,6.4,8.8"/>
	<path id="XMLID_61_" class="st6" d="M-124.6,559c0-4.8,2.9-8.8,6.4-8.8s6.4,3.9,6.4,8.8"/>
	<path id="XMLID_60_" class="st6" d="M-109.9,559c0-4.8,2.9-8.8,6.4-8.8s6.4,3.9,6.4,8.8"/>
	<g id="XMLID_58_" class="st5">
		<path id="XMLID_59_" class="st2" d="M-13.4,557h48.1c1.5,0,2.7-1.3,2.6-2.7c-1.1-17.4-12.6-31.7-26.6-30.9
			c-17.7,1-25.9,13.7-26.6,31C-16.1,555.7-14.9,557-13.4,557z"/>
	</g>
	<g id="XMLID_56_">
		<path id="XMLID_57_" class="st2" d="M-13.1,558.9H35c1.5,0,2.7-1.3,2.6-2.7C36.5,538.8,25,524.5,11,525.3
			c-17.7,1-25.9,13.7-26.6,31C-15.8,557.7-14.6,558.9-13.1,558.9z"/>
	</g>
	<path id="XMLID_55_" class="st6" d="M31.6,559c0-4.8-2.9-8.8-6.4-8.8s-6.4,3.9-6.4,8.8"/>
	<path id="XMLID_54_" class="st6" d="M16.7,559c0-4.8-2.9-8.8-6.4-8.8s-6.4,3.9-6.4,8.8"/>
	<path id="XMLID_53_" class="st6" d="M2.1,559c0-4.8-2.9-8.8-6.4-8.8s-6.4,3.9-6.4,8.8"/>
</g>
<g id="lion-head_1_">
	<path class="st2" d="M6.5,470.3c-0.2,40.1-27.6,75.9-59.9,75.9s-58.8-34.2-59.5-74.3c-0.7-40.9-10.4-70.8,59.5-70.8
		C12.5,401.1,6.8,428.9,6.5,470.3z"/>
	<path class="st7" d="M6.4,474.3c-0.2,40.1-27.6,75.9-59.9,75.9s-58.8-34.2-59.5-74.3c-0.7-40.9-10.4-70.8,59.5-70.8
		C12.3,405.1,6.6,432.9,6.4,474.3z"/>
	<g id="lion-head">
		<path class="st8" d="M-150.3,458.7"/>
		<g>
			<circle id="XMLID_2_" class="st9" cx="-78.7" cy="473.9" r="4.1"/>
			<circle id="XMLID_1_" class="st9" cx="-31.2" cy="473.9" r="4.1"/>
			<g>
				<g>
					<g>
						<path class="st10" d="M-22.9,490c17.7-2,35.5-4.1,53.2-6c0.4,0-0.6-0.9-0.9-0.8c-17.7,1.8-35.4,4-53.1,6
							C-24,489.2-23.2,490-22.9,490z"/>
						<path class="st10" d="M-22.7,489.3c17.7-2,35.5-4,53.3-6c0.4,0,0-0.6-0.2-0.6c-17.8,2-35.5,4-53.3,6
							C-23.3,488.8-22.9,489.3-22.7,489.3z"/>
						<path class="st10" d="M-22.4,489.9c17.7-2,35.5-4,53.2-6c0.3,0-0.6-0.9-1-0.9c-17.7,1.8-35.4,4-53.1,5.9
							C-23.7,489-22.7,489.9-22.4,489.9z"/>
						<path class="st10" d="M-21.8,490.6c17.8-2,35.5-4,53.3-6c0.4,0-0.4-0.6-0.3-0.6c-0.3-0.2-1.1-1-1.6-1
							c-17.7,1.7-35.4,4-53.1,5.9c-0.4,0,0.3,0.6,0.3,0.6C-23,489.8-22.2,490.6-21.8,490.6z"/>
						<path class="st10" d="M-21.8,489.9c17.7-2,35.5-4,53.2-6c0.3,0-0.9-1.2-1.3-1.1c-17.7,1.8-35.4,4-53.1,5.9
							C-23.3,488.8-22.2,490-21.8,489.9z"/>
						<path class="st10" d="M-23.5,489c17.8-2,35.6-4,53.3-6c0.1,0,0.3-0.4,0.1-0.3c-17.7,2-35.5,4-53.2,6
							C-23.4,488.7-23.6,489-23.5,489z"/>
						<path class="st10" d="M-23.3,489.8c17.7-2,35.5-4,53.3-6c0.4,0-0.2-0.7-0.5-0.6c-17.8,2-35.5,4-53.3,6
							C-24.2,489.2-23.5,489.9-23.3,489.8z"/>
						<path class="st10" d="M-22.8,490.7c17.7-2,35.5-4.1,53.2-6c0.3,0-1.1-1.4-1.5-1.3c-17.7,1.7-35.4,4-53.1,5.9
							C-24.6,489.3-23.2,490.7-22.8,490.7z"/>
						<path class="st10" d="M-21.9,489.2c17.7-2,35.4-4,53.2-6c0.5-0.1-0.1-0.7-0.3-0.7c-17.8,2-35.6,4-53.4,6
							C-22.8,488.6-22.1,489.2-21.9,489.2z"/>
						<path class="st10" d="M-23.3,490.4c17.7-2,35.5-4.1,53.2-6c0.3,0-0.7-1-1-0.9c-17.7,1.8-35.4,4-53.1,5.9
							C-24.6,489.4-23.6,490.4-23.3,490.4z"/>
						<path class="st10" d="M-22.4,488.8c17.8-2,35.5-4,53.3-6c0.3,0,0.2-0.5-0.1-0.5c-17.8,2-35.5,4-53.3,6
							C-22.8,488.4-22.7,488.8-22.4,488.8z"/>
						<path class="st10" d="M-23.7,489.4c17.8-2,35.5-4,53.3-6c0.3,0,0.2-0.5,0-0.4c-17.8,2-35.5,4-53.3,6
							C-24,489-24,489.4-23.7,489.4z"/>
					</g>
				</g>
			</g>
			<g>
				<g>
					<g>
						<path class="st10" d="M-20.7,497c12,0,24,0,36,0c0.4,0-0.4-0.9-0.7-0.9c-12,0-24,0-36,0C-21.7,496.1-21,497-20.7,497z"/>
						<path class="st10" d="M-20.5,496.3c12,0,24,0,36.1,0c0.4,0,0.1-0.6-0.1-0.6c-12,0-24,0-36.1,0
							C-21,495.7-20.7,496.3-20.5,496.3z"/>
						<path class="st10" d="M-20.2,496.9c12,0,24,0,36.1,0c0.4,0-0.5-1-0.8-1c-12,0-24,0-36,0C-21.3,495.9-20.5,496.9-20.2,496.9z"
							/>
						<path class="st10" d="M-19.6,497.6c12,0,24,0,36.1,0c0.4,0-0.3-0.6-0.3-0.6c-0.2-0.3-1-1.2-1.4-1.2c-12,0-24,0-36,0
							c-0.4,0,0.2,0.6,0.2,0.6C-20.7,496.7-20,497.6-19.6,497.6z"/>
						<path class="st10" d="M-19.6,497c12,0,24,0,36.1,0c0.3,0-0.7-1.3-1.1-1.3c-12,0-24,0-36,0C-20.9,495.7-19.9,497-19.6,497z"/>
						<path class="st10" d="M-21.2,496c12,0,24.1,0,36.1,0c0.1,0,0.4-0.3,0.1-0.3c-12,0-24.1,0-36.1,0
							C-21.2,495.7-21.4,496-21.2,496z"/>
						<path class="st10" d="M-21.1,496.9c12,0,24,0,36.1,0c0.4,0-0.2-0.7-0.4-0.7c-12,0-24,0-36.1,0
							C-21.9,496.2-21.3,496.9-21.1,496.9z"/>
						<path class="st10" d="M-20.6,497.7c12,0,24,0,36.1,0c0.3,0-1-1.6-1.4-1.6c-12,0-24,0-36,0C-22.2,496.1-21,497.7-20.6,497.7z"
							/>
						<path class="st10" d="M-19.8,496.2c12,0,24,0,36.1,0c0.5,0,0-0.7-0.2-0.7c-12,0-24,0-36.1,0C-20.5,495.6-20,496.2-19.8,496.2z
							"/>
						<path class="st10" d="M-21,497.4c12,0,24,0,36,0c0.4,0-0.6-1.1-0.9-1.1c-12,0-24,0-36,0C-22.3,496.3-21.3,497.4-21,497.4z"/>
						<path class="st10" d="M-20.2,495.8c12,0,24.1,0,36.1,0c0.3,0,0.3-0.4,0-0.4c-12,0-24.1,0-36.1,0
							C-20.4,495.4-20.5,495.8-20.2,495.8z"/>
						<path class="st10" d="M-21.5,496.4c12,0,24.1,0,36.1,0c0.3,0,0.3-0.5,0-0.5c-12,0-24.1,0-36.1,0
							C-21.8,496-21.8,496.4-21.5,496.4z"/>
					</g>
				</g>
			</g>
			<g>
				<g>
					<g>
						<path class="st10" d="M-27.2,501.6c13.7,3.4,27.5,6.7,41.2,10.3c0.3,0.1-0.3-1.1-0.6-1.2c-6.7-2-13.7-3.5-20.5-5.2
							c-6.9-1.7-13.7-3.4-20.6-5.2C-28,500.3-27.5,501.6-27.2,501.6z"/>
						<path class="st10" d="M-27,500.9c13.8,3.4,27.5,6.9,41.3,10.3c0.4,0.1,0.3-0.5,0-0.6c-13.8-3.4-27.5-6.9-41.3-10.3
							C-27.4,500.2-27.3,500.8-27,500.9z"/>
						<path class="st10" d="M-26.7,501.5c13.7,3.4,27.5,6.7,41.2,10.3c0.3,0.1-0.4-1.1-0.7-1.2c-6.7-2-13.7-3.5-20.5-5.2
							c-6.9-1.7-13.7-3.4-20.6-5.2C-27.6,500.2-27,501.4-26.7,501.5z"/>
						<path class="st10" d="M-26.1,502.2c13.8,3.4,27.6,6.8,41.3,10.3c0.4,0.1-0.2-0.7-0.2-0.7c-0.2-0.4-0.7-1.3-1.2-1.5
							c-2.1-0.7-4.2-1.2-6.3-1.7c-4.7-1.2-9.4-2.4-14.2-3.5c-6.9-1.7-13.7-3.4-20.6-5.2c-0.4-0.1,0.1,0.7,0.1,0.7
							C-27,501-26.5,502.1-26.1,502.2z"/>
						<path class="st10" d="M-26.1,501.5c13.7,3.4,27.6,6.7,41.3,10.3c0.3,0.1-0.5-1.3-0.9-1.4c-2.1-0.7-4.2-1.1-6.3-1.7
							c-4.7-1.2-9.4-2.4-14.2-3.5c-6.9-1.7-13.7-3.4-20.6-5.2C-27.1,500-26.5,501.5-26.1,501.5z"/>
						<path class="st10" d="M-27.7,500.6c13.8,3.5,27.6,6.9,41.3,10.3c0.1,0,0.4-0.3,0.2-0.3c-13.8-3.4-27.6-6.9-41.3-10.3
							C-27.7,500.2-28,500.5-27.7,500.6z"/>
						<path class="st10" d="M-27.6,501.5c13.8,3.5,27.5,6.9,41.3,10.3c0.4,0.1-0.1-0.8-0.3-0.9c-13.8-3.4-27.5-6.9-41.3-10.3
							C-28.3,500.5-27.9,501.4-27.6,501.5z"/>
						<path class="st10" d="M-27,502.4c13.8,3.4,27.6,6.7,41.3,10.3c0.4,0.1-0.1-0.7-0.1-0.7c-0.2-0.4-0.7-1.2-1.1-1.4
							c-2.1-0.7-4.2-1.2-6.3-1.7c-4.7-1.2-9.4-2.4-14.2-3.5c-6.9-1.7-13.7-3.4-20.6-5.2c-0.4-0.1,0,0.6,0.1,0.7
							C-27.9,501.2-27.4,502.3-27,502.4z"/>
						<path class="st10" d="M-26.3,500.8c13.8,3.4,27.5,6.9,41.3,10.3c0.4,0.1,0.2-0.6,0-0.6c-13.8-3.4-27.5-6.9-41.3-10.3
							C-26.8,500-26.6,500.7-26.3,500.8z"/>
						<path class="st10" d="M-27.5,502c13.7,3.4,27.6,6.7,41.2,10.3c0.3,0.1-0.5-1.4-0.9-1.5c-2.1-0.7-4.2-1.1-6.3-1.7
							c-4.7-1.2-9.4-2.4-14.2-3.5c-6.9-1.7-13.7-3.4-20.6-5.2C-28.5,500.4-27.9,501.9-27.5,502z"/>
						<path class="st10" d="M-26.8,500.4c13.8,3.5,27.6,6.9,41.3,10.3c0.2,0,0.4-0.3,0.2-0.4c-13.8-3.4-27.6-6.9-41.3-10.3
							C-26.8,500-27,500.3-26.8,500.4z"/>
						<path class="st10" d="M-28,501c13.8,3.4,27.5,6.9,41.3,10.3c0.3,0.1,0.3-0.5,0.1-0.5c-13.8-3.4-27.5-6.9-41.3-10.3
							C-28.3,500.4-28.2,501-28,501z"/>
					</g>
				</g>
			</g>
			<g>
				<g>
					<g>
						<path class="st10" d="M-86.5,487.7c-12.7-3.2-25.5-6.4-38.2-9.7c-0.4-0.1,0.1,0.9,0.4,0.9c12.7,3.2,25.4,6.4,38.1,9.7
							C-85.8,488.7-86.2,487.8-86.5,487.7z"/>
						<path class="st10" d="M-86.3,486.8c-12.7-3.2-25.5-6.4-38.2-9.7c-0.4-0.1,0.1,0.9,0.4,0.9c12.7,3.2,25.4,6.4,38.2,9.7
							C-85.6,487.8-86.1,486.9-86.3,486.8z"/>
						<path class="st10" d="M-86.1,487.5c-12.7-3.2-25.5-6.4-38.2-9.7c-0.4-0.1,0,0.8,0.3,0.8c12.7,3.2,25.5,6.4,38.2,9.7
							C-85.4,488.4-85.8,487.6-86.1,487.5z"/>
						<path class="st10" d="M-85.4,488.3c-12.7-3.2-25.5-6.4-38.2-9.6c-0.4-0.1-0.2,0.6,0,0.6c12.7,3.2,25.5,6.4,38.2,9.6
							C-84.9,489-85.1,488.3-85.4,488.3z"/>
						<path class="st10" d="M-85.4,487.6c-12.7-3.2-25.5-6.4-38.2-9.6c-0.4-0.1-0.2,0.6,0,0.7c12.7,3.2,25.5,6.4,38.2,9.7
							C-84.9,488.4-85.1,487.7-85.4,487.6z"/>
						<path class="st10" d="M-87,486.5c-12.7-3.2-25.5-6.4-38.2-9.7c-0.3-0.1,0.3,1.1,0.6,1.1c12.7,3.3,25.4,6.4,38.1,9.7
							C-86.2,487.8-86.7,486.6-87,486.5z"/>
						<path class="st10" d="M-87,487.5c-12.7-3.2-25.4-6.4-38.1-9.7c-0.3-0.1,0.2,1,0.5,1.1c12.7,3.3,25.4,6.4,38.1,9.7
							C-86.2,488.6-86.7,487.5-87,487.5z"/>
						<path class="st10" d="M-86.3,488.5c-12.7-3.2-25.5-6.5-38.2-9.7c-0.4-0.1,0.1,0.8,0.3,0.9c12.7,3.2,25.5,6.4,38.2,9.7
							C-85.6,489.5-86,488.6-86.3,488.5z"/>
						<path class="st10" d="M-85.7,486.6c-12.7-3.2-25.5-6.4-38.2-9.6c-0.4-0.1,0,0.7,0.2,0.8c12.7,3.2,25.5,6.4,38.2,9.7
							C-85.1,487.5-85.5,486.7-85.7,486.6z"/>
						<path class="st10" d="M-86.8,488.2c-12.7-3.3-25.5-6.4-38.2-9.7c-0.3-0.1,0.2,0.9,0.4,1c12.7,3.3,25.4,6.4,38.1,9.7
							C-86,489.3-86.5,488.3-86.8,488.2z"/>
						<path class="st10" d="M-86.1,486.2c-12.7-3.2-25.5-6.4-38.2-9.7c-0.4-0.1,0.1,0.8,0.3,0.9c12.7,3.2,25.5,6.4,38.2,9.7
							C-85.4,487.2-85.8,486.3-86.1,486.2z"/>
						<path class="st10" d="M-87.3,487c-12.7-3.2-25.5-6.4-38.2-9.7c-0.3-0.1,0.3,1.1,0.6,1.2c12.7,3.3,25.4,6.4,38.1,9.7
							C-86.4,488.3-87,487.1-87.3,487z"/>
					</g>
				</g>
			</g>
			<g>
				<g>
					<g>
						<path class="st10" d="M-89.8,494c-16.9-1.9-33.8-3.6-50.7-5.4c-0.4,0,0.3,0.9,0.5,0.9c16.9,1.8,33.7,3.5,50.6,5.4
							C-89,495-89.6,494.1-89.8,494z"/>
						<path class="st10" d="M-89.7,493.1c-16.9-1.8-33.8-3.6-50.6-5.3c-0.4,0,0.2,0.8,0.5,0.8c16.9,1.8,33.8,3.5,50.6,5.3
							C-88.9,494-89.4,493.1-89.7,493.1z"/>
						<path class="st10" d="M-89.4,493.8c-16.9-1.8-33.8-3.5-50.7-5.3c-0.4,0,0.1,0.7,0.4,0.8c16.9,1.8,33.8,3.6,50.7,5.3
							C-88.7,494.6-89.2,493.8-89.4,493.8z"/>
						<path class="st10" d="M-88.7,494.6c-16.9-1.7-33.8-3.5-50.6-5.3c-0.4,0-0.2,0.6,0.1,0.6c16.9,1.8,33.8,3.6,50.6,5.3
							C-88.2,495.2-88.5,494.6-88.7,494.6z"/>
						<path class="st10" d="M-88.7,493.9c-16.9-1.7-33.8-3.5-50.6-5.3c-0.4,0-0.2,0.6,0.1,0.6c16.9,1.8,33.8,3.6,50.6,5.3
							C-88.2,494.6-88.5,493.9-88.7,493.9z"/>
						<path class="st10" d="M-90.4,492.9c-16.9-1.8-33.8-3.4-50.6-5.3c-0.3,0,0.4,1,0.8,1c8.4,1.2,16.8,1.8,25.2,2.7
							c8.4,0.9,16.9,1.8,25.3,2.7C-89.4,494-90.1,492.9-90.4,492.9z"/>
						<path class="st10" d="M-90.3,493.8c-16.9-1.8-33.7-3.4-50.6-5.3c-0.3,0,0.4,1,0.7,1c8.4,1.2,16.8,1.8,25.2,2.7
							c8.4,0.9,16.8,1.8,25.3,2.7C-89.3,494.9-90,493.8-90.3,493.8z"/>
						<path class="st10" d="M-89.6,494.8c-16.9-1.8-33.8-3.6-50.6-5.3c-0.4,0,0.2,0.8,0.5,0.8c16.9,1.8,33.7,3.5,50.6,5.4
							C-88.8,495.7-89.4,494.8-89.6,494.8z"/>
						<path class="st10" d="M-89,493c-16.9-1.8-33.8-3.5-50.6-5.3c-0.5,0-0.1,0.6,0.1,0.7c16.9,1.8,33.8,3.6,50.7,5.3
							C-88.4,493.7-88.7,493-89,493z"/>
						<path class="st10" d="M-90.1,494.5c-16.9-1.8-33.7-3.4-50.6-5.3c-0.4,0,0.3,0.9,0.6,0.9c16.8,2.1,33.7,3.6,50.5,5.4
							C-89.2,495.5-89.8,494.5-90.1,494.5z"/>
						<path class="st10" d="M-89.5,492.6c-16.9-1.8-33.8-3.5-50.7-5.3c-0.4,0,0.1,0.8,0.4,0.8c16.9,1.8,33.8,3.6,50.7,5.3
							C-88.7,493.4-89.2,492.6-89.5,492.6z"/>
						<path class="st10" d="M-90.6,493.3c-16.9-1.8-33.8-3.3-50.6-5.4c-0.3,0,0.6,1.1,0.9,1.1c2.6,0.4,5.1,0.6,7.7,0.9
							c5.8,0.6,11.6,1.2,17.4,1.8c8.4,0.9,16.9,1.8,25.3,2.7C-89.6,494.5-90.3,493.3-90.6,493.3z"/>
					</g>
				</g>
			</g>
			<g>
				<g>
					<g>
						<path class="st10" d="M-84.6,499c-12.3,3.4-24.6,6.9-36.9,10.3c-0.3,0.1,0.6,0.7,0.9,0.7c12.3-3.4,24.5-6.9,36.8-10.3
							C-83.4,499.6-84.3,499-84.6,499z"/>
						<path class="st10" d="M-84.5,498.2c-12.3,3.4-24.6,6.9-36.9,10.3c-0.4,0.1,0.4,0.7,0.6,0.6c12.3-3.4,24.6-6.9,36.9-10.3
							C-83.5,498.7-84.3,498.1-84.5,498.2z"/>
						<path class="st10" d="M-84.2,498.9c-12.3,3.5-24.6,6.9-36.9,10.3c-0.4,0.1,0.4,0.6,0.6,0.6c12.3-3.4,24.6-6.9,36.9-10.3
							C-83.2,499.3-83.9,498.8-84.2,498.9z"/>
						<path class="st10" d="M-83.4,499.5c-12.3,3.5-24.6,6.9-36.9,10.4c-0.4,0.1,0.1,0.6,0.3,0.5c12.3-3.4,24.6-6.9,36.9-10.3
							C-82.7,500-83.2,499.5-83.4,499.5z"/>
						<path class="st10" d="M-83.4,498.9c-12.3,3.5-24.6,6.9-36.9,10.3c-0.4,0.1,0,0.6,0.2,0.5c12.3-3.4,24.6-6.9,36.9-10.3
							C-82.8,499.3-83.2,498.8-83.4,498.9z"/>
						<path class="st10" d="M-85.2,497.9c-12.3,3.4-24.6,6.9-36.9,10.3c-0.3,0.1,0.7,0.8,1,0.7c12.3-3.4,24.5-6.9,36.8-10.3
							C-83.9,498.6-84.9,497.9-85.2,497.9z"/>
						<path class="st10" d="M-85.1,498.8c-12.3,3.4-24.6,6.9-36.9,10.3c-0.3,0.1,0.8,0.8,1.1,0.8c12.3-3.3,24.5-6.8,36.8-10.3
							C-83.7,499.5-84.8,498.7-85.1,498.8z"/>
						<path class="st10" d="M-84.3,499.8c-12.3,3.4-24.6,6.9-36.9,10.3c-0.3,0.1,0.7,0.7,0.9,0.7c12.3-3.3,24.5-6.9,36.8-10.3
							C-83.1,500.4-84,499.7-84.3,499.8z"/>
						<path class="st10" d="M-83.7,498.1c-12.3,3.4-24.6,6.9-36.9,10.3c-0.3,0.1,0,0.6,0.2,0.5c12.3-3.4,24.6-6.9,36.9-10.3
							C-83.1,498.5-83.4,498-83.7,498.1z"/>
						<path class="st10" d="M-84.8,499.5c-12.3,3.4-24.6,6.9-36.9,10.3c-0.3,0.1,0.8,0.8,1.1,0.7c12.3-3.3,24.5-6.8,36.8-10.3
							C-83.4,500.2-84.5,499.4-84.8,499.5z"/>
						<path class="st10" d="M-84.1,497.7c-12.3,3.5-24.6,6.9-36.9,10.3c-0.4,0.1,0.1,0.6,0.3,0.5c12.3-3.4,24.6-6.9,36.9-10.3
							C-83.4,498.1-83.9,497.6-84.1,497.7z"/>
						<path class="st10" d="M-85.4,498.4c-12.3,3.4-24.6,6.9-36.9,10.3c-0.3,0.1,0.9,0.9,1.3,0.8c12.3-3.3,24.5-6.8,36.8-10.3
							C-83.9,499.1-85.1,498.3-85.4,498.4z"/>
					</g>
				</g>
			</g>
			<path id="XMLID_6_" class="st11" d="M-54.1,527.4v-23.9"/>
			<path class="st11" d="M-35.7,516.4c-2.8,6.6-10,11.2-18.4,11.2c-8.3,0-15.4-4.5-18.3-10.9"/>
			<g>
				<path class="st9" d="M-66.9,492h25.6c2.2,0,3.2,2.7,1.6,4.2L-52.5,508c-0.9,0.8-2.3,0.8-3.3,0l-12.8-11.8
					C-70.1,494.7-69.1,492-66.9,492z"/>
			</g>
		</g>
	</g>
	<path id="XMLID_5_" class="st2" d="M-67.1,436.1l-17.2-27.8c-6.5-11-14.4-17.6-27.2-10.1c-12.5,7.3-11.2,17.6-3.8,29.3l16.8,27.8
		L-67.1,436.1z"/>
</g>
<path id="XMLID_3_" class="st2" d="M-10.4,455.6l16.8-27.8c7.4-11.8,8.6-22-3.8-29.3c-12.9-7.5-20.8-0.9-27.2,10.1l-17.2,27.8
	L-10.4,455.6z"/>
</svg>
