<?xml version="1.0" encoding="utf-8"?>
<!-- Generator: Adobe Illustrator 19.0.0, SVG Export Plug-In . SVG Version: 6.00 Build 0)  -->
<svg version="1.1" id="lion" xmlns="http://www.w3.org/2000/svg" xmlns:xlink="http://www.w3.org/1999/xlink" x="0px" y="0px"
	 viewBox="-178 278.6 239 284.3" style="enable-background:new -178 278.6 239 284.3;" xml:space="preserve">
<style type="text/css">
	.st0{fill:none;stroke:#FBE90C;stroke-width:9;stroke-linecap:round;stroke-miterlimit:10;}
	.st1{clip-path:url(#SVGID_2_);fill:none;stroke:#ECAD20;stroke-width:9;stroke-linecap:round;stroke-miterlimit:10;}
	.st2{fill:#E67326;}
	.st3{fill:none;}
	.st4{opacity:0.81;}
	.st5{fill:#DA6D27;}
	.st6{fill:#FBE90C;}
	.st7{fill:#FFCA06;}
	.st8{opacity:0.3;fill:#FFCA0B;enable-background:new    ;}
	.st9{fill:none;stroke:#FFCA06;stroke-width:2;stroke-linecap:round;stroke-miterlimit:10;}
	.st10{fill:#010101;}
	.st11{fill:none;stroke:#010101;stroke-width:4;stroke-linecap:round;stroke-linejoin:round;stroke-miterlimit:10;}
</style>
<g id="lion-tail">
	<path id="XMLID_76_" class="st0" d="M5,306.2c-20.5,33,58.8,25.2,31.9,67.1"/>
	<g id="XMLID_72_">
		<g id="XMLID_73_">
			<g>
				<g>
					<defs>
						<path id="SVGID_1_" d="M18.3,281.2l-3.6,7.3l-0.9-4.6c-1.5,1-2,1.5-3.4,2.8c-8.9,8.5-9.2,17.8-6.6,20.5
							c3.9,4.1,13.3,1.6,20.8-5.6c7.5-7.2,10.5-16.4,6.6-20.5C28.6,278.4,23.6,278.6,18.3,281.2L18.3,281.2z"/>
					</defs>
					<clipPath id="SVGID_2_">
						<use xlink:href="#SVGID_1_"  style="overflow:visible;"/>
					</clipPath>
					<path id="XMLID_74_" class="st1" d="M5.2,306c-25.8,27.8,55.1,34.4,31.9,67.1"/>
				</g>
			</g>
		</g>
	</g>
	<g id="XMLID_70_">
		<path id="XMLID_71_" class="st2" d="M19,280.6l-3.6,7.3l-0.9-4.6c-1.5,1-2,1.5-3.4,2.8c-7.6,7.2-10.5,16.4-6.6,20.5
			c3.9,4.1,13.3,1.6,20.8-5.6c7.6-7.2,10.5-16.4,6.6-20.5C29.4,277.8,24.3,278,19,280.6L19,280.6z"/>
	</g>
</g>
<g id="lion-body">
	<g id="XMLID_20_">
		<path id="XMLID_21_" class="st2" d="M35.3,516.5l4.2-5.6C53,491.6,61,468.2,61,443.7c0-2.5,0-5-0.1-7.5l-29,1.5l28.7-6.8
			c-3.3-47-25.6-86.8-77.4-99l0,0l-12.5,26.5l4.3-30.3l0,0c-10-1.7-25.9-1.2-38-0.8c-54.4,1.6-99.1,35.7-113.5,83.5l0,0l32.5,9.7
			h-31.6c-1.6,7.5-2.4,15.3-2.4,23.3c0,63.9,22.7,109.6,119.5,115.7C-20.5,561.7,13.4,544.1,35.3,516.5L35.3,516.5"/>
	</g>
	<line id="XMLID_67_" class="st3" x1="-126.1" y1="562.9" x2="-113.4" y2="562.9"/>
	<g id="XMLID_65_" class="st4">
		<path id="XMLID_66_" class="st5" d="M-97.7,557.8h-48.1c-1.5,0-2.7-1.3-2.6-2.7c1.1-17.4,12.6-31.7,26.6-30.9
			c17.7,1,25.9,13.7,26.6,31C-95,556.5-96.2,557.8-97.7,557.8z"/>
	</g>
	<g id="XMLID_63_">
		<path id="XMLID_64_" class="st6" d="M-98.4,559.7h-48.1c-1.5,0-2.7-1.3-2.6-2.7c1.1-17.4,12.6-31.7,26.6-30.9
			c17.7,1,25.9,13.7,26.6,31C-95.7,558.5-96.9,559.7-98.4,559.7z"/>
	</g>
	<path id="XMLID_62_" class="st2" d="M-143.1,559.8c0-4.8,2.9-8.8,6.4-8.8s6.4,3.9,6.4,8.8"/>
	<path id="XMLID_61_" class="st2" d="M-128.3,559.8c0-4.8,2.9-8.8,6.4-8.8s6.4,3.9,6.4,8.8"/>
	<path id="XMLID_60_" class="st2" d="M-113.6,559.8c0-4.8,2.9-8.8,6.4-8.8s6.4,3.9,6.4,8.8"/>
	<g id="XMLID_58_" class="st4">
		<path id="XMLID_59_" class="st5" d="M-17.1,557.8H31c1.5,0,2.7-1.3,2.6-2.7C32.5,537.7,21,523.4,7,524.2
			c-17.7,1-25.9,13.7-26.6,31C-19.8,556.5-18.6,557.8-17.1,557.8z"/>
	</g>
	<g id="XMLID_56_">
		<path id="XMLID_57_" class="st6" d="M-16.8,559.7h48.1c1.5,0,2.7-1.3,2.6-2.7c-1.1-17.4-12.6-31.7-26.6-30.9
			c-17.7,1-25.9,13.7-26.6,31C-19.5,558.5-18.3,559.7-16.8,559.7z"/>
	</g>
	<path id="XMLID_55_" class="st2" d="M27.9,559.8c0-4.8-2.9-8.8-6.4-8.8s-6.4,3.9-6.4,8.8"/>
	<path id="XMLID_54_" class="st2" d="M13,559.8c0-4.8-2.9-8.8-6.4-8.8s-6.4,3.9-6.4,8.8"/>
	<path id="XMLID_53_" class="st2" d="M-1.6,559.8c0-4.8-2.9-8.8-6.4-8.8s-6.4,3.9-6.4,8.8"/>
</g>
<g id="lion-head">
	<path id="XMLID_37_" class="st7" d="M1.4,437.2L1,414.8c-0.2-12.4-10.8-22.2-23.5-22c-12.8,0.3-22.9,10.5-22.7,22.9l0.4,22.4
		L1.4,437.2z"/>
	<path id="XMLID_32_" class="st8" d="M-55.4,539.1L-55.4,539.1c-30,0-57.2-27.7-57.2-57.7v-37.1c0-14.9,12.2-27,27-27h60.2
		c14.9,0,27,12.2,27,27v37.2C1.7,511.5-25.4,539.1-55.4,539.1z"/>
	<path id="XMLID_36_" class="st6" d="M-5,443l-0.4-22.5c0-12.8-3.2-22.5-16.9-22.6c-13.3,0-17.1,9.4-16.8,23.3l0.4,22.4L-5,443z"/>
	<path id="XMLID_35_" class="st7" d="M-66,437.4l-0.4-22.4c-0.2-12.4-10.8-22.2-23.5-22c-12.8,0.3-22.9,10.5-22.7,22.9l0.4,22.4
		L-66,437.4z"/>
	<path id="XMLID_34_" class="st6" d="M-72.4,443.2l-0.4-22.5c0-12.8-3.2-22.5-16.9-22.6c-13.3,0-17.1,9.4-16.8,23.3l0.4,22.4
		L-72.4,443.2z"/>
	<path id="XMLID_33_" class="st6" d="M-55.5,536.4L-55.5,536.4c-30,0-57-25.3-57-56v-38.1c0-15.3,12.2-27.7,27-27.7h60.2
		c14.9,0,27,12.5,27,27.7v38.2C1.7,511.3-25.6,536.4-55.5,536.4z"/>
	<line id="XMLID_31_" class="st9" x1="-22.4" y1="490.6" x2="30.8" y2="484.6"/>
	<line id="XMLID_30_" class="st9" x1="-20.1" y1="497.5" x2="16" y2="497.5"/>
	<line id="XMLID_29_" class="st9" x1="-26.2" y1="501.8" x2="15.1" y2="512.2"/>
	<line id="XMLID_28_" class="st9" x1="-83.9" y1="491" x2="-122.1" y2="481.4"/>
	<line id="XMLID_27_" class="st9" x1="-87" y1="497.2" x2="-137.7" y2="491.9"/>
	<line id="XMLID_26_" class="st9" x1="-81.4" y1="501.8" x2="-118.3" y2="512.1"/>
	<circle id="XMLID_18_" class="st10" cx="-80.3" cy="475.9" r="4.1"/>
	<circle id="XMLID_19_" class="st10" cx="-32.8" cy="475.9" r="4.1"/>
	<path id="XMLID_23_" class="st11" d="M-55.5,510.2v-17.3"/>
	<path id="XMLID_14_" class="st10" d="M-55.5,501.5L-55.5,501.5c-3.1,0-11.9-3.6-11.9-8l0,0c0-4.4,2.6-8,5.7-8h12.3
		c3.1,0,5.7,3.6,5.7,8l0,0C-43.5,497.9-52.3,501.5-55.5,501.5z"/>
	<path id="XMLID_15_" class="st11" d="M-55.5,507.2c0,12.5-9.6,12.5-16.6,2.2"/>
	<path id="XMLID_16_" class="st11" d="M-38.9,509.3c-7,10.3-16.6,10.3-16.6-2.2"/>
</g>
</svg>
