<?xml version="1.0" encoding="utf-8"?>
<!-- Generator: Adobe Illustrator 19.0.0, SVG Export Plug-In . SVG Version: 6.00 Build 0)  -->
<svg version="1.1" id="monkey" xmlns="http://www.w3.org/2000/svg" xmlns:xlink="http://www.w3.org/1999/xlink" x="0px" y="0px"
	 viewBox="-178 278.6 239 284.3" style="enable-background:new -178 278.6 239 284.3;" xml:space="preserve">
<style type="text/css">
	.st0{fill:#FCF74C;}
	.st1{fill:#E87426;}
	.st2{opacity:0.66;fill:#FFCA06;enable-background:new    ;}
	.st3{clip-path:url(#SVGID_2_);fill:#FCF74C;}
	.st4{fill:#FFCA06;}
	.st5{fill:none;stroke:#E87426;stroke-width:9;stroke-linecap:round;stroke-miterlimit:10;}
	.st6{fill:none;stroke:#FCF74C;stroke-width:9;stroke-linecap:round;stroke-miterlimit:10;}
	.st7{clip-path:url(#SVGID_4_);fill:#FCF74C;}
	.st8{fill:none;stroke:#010101;stroke-width:4;stroke-linecap:round;stroke-linejoin:round;stroke-miterlimit:10;}
	.st9{fill:#010101;}
</style>
<g id="monkey-tail">
	<path id="XMLID_40_" class="st0" d="M5.7,482.6c0,50.9,8.9,46.5-75.5,46.5c-86.8,0-73.1,4.6-73.1-46.5s33.3-92.3,74.3-92.3
		S5.7,431.6,5.7,482.6z"/>
	<path id="XMLID_39_" class="st1" d="M-3.8,472.1c0,47.1,13.1,81.1-66.3,81.1c-84.3,0-63.8-34-63.8-81.1s29.1-85.3,65.1-85.3
		S-3.8,425.1-3.8,472.1z"/>
	<path id="XMLID_38_" class="st2" d="M-4.1,556.7h-8.6c-10.1,0-18.4-8.3-18.4-18.4v-37.2c0-11.6,9.5-21.2,21.2-21.2h3
		c11.6,0,21.2,9.5,21.2,21.2v37.2C14.2,548.4,6,556.7-4.1,556.7z"/>
	<path id="XMLID_37_" class="st0" d="M26.5,544.5h-38.3c-2.5,0-4.4-2-4.4-4.4l0,0c0-2.5-1.2-24.2,2.2-19.1
		c4.7,7,25.6,12.6,27.6,12.9c0.1,0,0.2,0,0.4,0.1c16.4,4.7,15.8,2.1,17.1,6l0,0C31,542.5,29,544.5,26.5,544.5z"/>
	<g id="XMLID_71_">
		<g id="XMLID_72_">
			<g id="XMLID_73_">
				<g id="XMLID_74_">
					<g>
						<g>
							<defs>
								<path id="SVGID_1_" d="M-19.9,511.7c0,35.6,9.9,61.2-50,61.2c-63.7,0-48.3-25.6-48.3-61.2s22.1-64.4,49.2-64.4
									S-19.9,476.1-19.9,511.7z"/>
							</defs>
							<clipPath id="SVGID_2_">
								<use xlink:href="#SVGID_1_"  style="overflow:visible;"/>
							</clipPath>
							<path id="XMLID_35_" class="st3" d="M-3.8,472.3c0,47.1,13.1,81.1-66.3,81.1c-84.3,0-63.8-34-63.8-81.1s29.1-85.3,65.1-85.3
								S-3.8,425.2-3.8,472.3z"/>
						</g>
					</g>
				</g>
			</g>
		</g>
	</g>
	<path id="XMLID_34_" class="st0" d="M-166.4,544.5h38.3c2.5,0,4.4-2,4.4-4.4l0,0c0-2.5,1.2-24.2-2.2-19.1
		c-4.7,7-25.6,12.6-27.6,12.9c-0.1,0-0.2,0-0.4,0.1c-16.4,4.7-15.8,2.1-17.1,6l0,0C-170.9,542.5-168.8,544.5-166.4,544.5z"/>
	<path id="XMLID_33_" class="st1" d="M-4,558.5h-8.6c-10.1,0-18.4-8.3-18.4-18.4v-37.2c0-11.6,9.5-21.2,21.2-21.2h3
		c11.6,0,21.2,9.5,21.2,21.2v37.2C14.2,550.3,6.1,558.5-4,558.5z"/>
	<g id="XMLID_67_">
		<path id="XMLID_32_" class="st4" d="M-4,558.5h-8.6c-10.1,0-18.4-8.3-18.4-18.4v-37.2c0-11.6,9.5-21.2,21.2-21.2h3
			c11.6,0,21.2,9.5,21.2,21.2v37.2C14.2,550.3,6.1,558.5-4,558.5z"/>
	</g>
	<g id="XMLID_65_">
		<path id="XMLID_31_" class="st4" d="M-4,558.5h-8.6c-10.1,0-18.4-8.3-18.4-18.4v-37.2c0-11.6,9.5-21.2,21.2-21.2h3
			c11.6,0,21.2,9.5,21.2,21.2v37.2C14.2,550.3,6.1,558.5-4,558.5z"/>
	</g>
	<g id="XMLID_63_">
		<path id="XMLID_30_" class="st1" d="M-4,558.5h-8.6c-10.1,0-18.4-8.3-18.4-18.4v-37.2c0-11.6,9.5-21.2,21.2-21.2h3
			c11.6,0,21.2,9.5,21.2,21.2v37.2C14.2,550.3,6.1,558.5-4,558.5z"/>
	</g>
	<path id="XMLID_29_" class="st2" d="M-125.6,556.5h-8.6c-10.1,0-18.4-8.3-18.4-18.4v-37.2c0-11.6,9.5-21.2,21.2-21.2h3
		c11.6,0,21.2,9.5,21.2,21.2v37.2C-107.3,548.2-115.5,556.5-125.6,556.5z"/>
	<g id="XMLID_60_">
		<path id="XMLID_28_" class="st1" d="M-134.3,558.5h8.6c10.1,0,18.4-8.3,18.4-18.4v-37.2c0-11.6-9.5-21.2-21.2-21.2h-3
			c-11.6,0-21.2,9.5-21.2,21.2v37.2C-152.6,550.3-144.4,558.5-134.3,558.5z"/>
	</g>
	<path id="XMLID_27_" class="st5" d="M53,421.5c-10.5-29.7-57.1-13.6-28.7,29.7c48.1,73.4-7.9,77.4-12.7,75.2"/>
	<path id="XMLID_26_" class="st6" d="M53,421.5c-2.1-6-5.8-10.2-10-12.6"/>
</g>
<g id="monkey-head">
	<path id="XMLID_25_" class="st0" d="M-14.5,379l24.6-0.4c13.6-0.1,24.4-11.6,24.3-25.6c-0.2-13.9-11.3-25.3-24.9-25l-24.6,0.4
		L-14.5,379z"/>
	<path id="XMLID_24_" class="st0" d="M-125.1,329.2l-24.6-0.4c-13.6-0.1-24.6,11.1-24.9,25c-0.1,14,10.7,25.4,24.3,25.6l24.6,0.4
		L-125.1,329.2z"/>
	<path id="XMLID_23_" class="st1" d="M-45.5,437.5H-93c-28.7,0-52.2-23.5-52.2-52.2v-32c0-28.7,23.5-52.2,52.2-52.2h47.4
		c28.7,0,52.2,23.5,52.2,52.2v31.9C6.7,414-16.8,437.5-45.5,437.5z"/>
	<path id="XMLID_22_" class="st1" d="M-119,336.5l-24.6-0.2c-14-0.4-24.8,2.7-25.3,17.7c-0.5,14.5,9.7,19.1,24.9,19.2l24.6,0.4
		L-119,336.5z"/>
	<path id="XMLID_21_" class="st1" d="M-20.8,372.7l24.6-0.4c15.2-0.1,25.4-4.7,24.9-19.2c-0.5-15-11.3-18.1-25.3-17.7l-24.5,0.2
		L-20.8,372.7z"/>
	<path id="XMLID_20_" class="st0" d="M-68.7,378.7c5.9,7.9,15.6,13.1,26.5,13.1c18.1,0,32.8-14.3,32.8-31.8s-14.7-31.8-32.8-31.8
		c-10.8,0-20.5,5.1-26.4,12.9l0,0c-5.9-7.9-15.6-13.1-26.5-13.1c-18.1,0-32.8,14.3-32.8,31.8s14.7,31.8,32.8,31.8
		C-84.2,391.7-74.6,386.6-68.7,378.7"/>
	<g id="XMLID_46_">
		<g id="XMLID_47_">
			<g id="XMLID_48_">
				<g id="XMLID_49_">
					<g>
						<g>
							<defs>
								<path id="SVGID_3_" d="M-24.8,456.9h-87.7c-24.2,0-43.7-19-43.7-42.5s19.6-42.5,43.7-42.5h87.6l0,0
									c24.2,0,43.7,19,43.7,42.5C19,437.9-0.6,456.9-24.8,456.9"/>
							</defs>
							<clipPath id="SVGID_4_">
								<use xlink:href="#SVGID_3_"  style="overflow:visible;"/>
							</clipPath>
							<path id="XMLID_18_" class="st7" d="M-45.5,437.6H-93c-28.7,0-52.2-23.5-52.2-52.2v-31.9c0-28.7,23.5-52.2,52.2-52.2h47.4
								c28.7,0,52.2,23.5,52.2,52.2v31.9C6.7,414.2-16.8,437.6-45.5,437.6z"/>
						</g>
					</g>
				</g>
			</g>
		</g>
	</g>
	<path id="XMLID_17_" class="st8" d="M-58.2,400.3c0,7.6-5.1,13.8-11.3,13.8c-6.3,0-11.3-6.2-11.3-13.8"/>
	<path id="XMLID_16_" class="st9" d="M-55.6,376.9c0,4.2-6.3,7.6-13.9,7.6s-14-3.5-14-7.6c0-6,6.3-7.6,13.9-7.6
		C-62.1,369.2-55.6,371.1-55.6,376.9z"/>
	<circle id="XMLID_15_" class="st9" cx="-100.7" cy="354.7" r="5.1"/>
	<circle id="XMLID_14_" class="st9" cx="-42.2" cy="354.6" r="5.1"/>
</g>
</svg>
