<?xml version="1.0" encoding="utf-8"?>
<!-- Generator: Adobe Illustrator 19.0.0, SVG Export Plug-In . SVG Version: 6.00 Build 0)  -->
<svg version="1.1" id="monkey" xmlns="http://www.w3.org/2000/svg" xmlns:xlink="http://www.w3.org/1999/xlink" x="0px" y="0px"
	 viewBox="-352.9 645.9 189.3 220.6" style="enable-background:new -352.9 645.9 189.3 220.6;" xml:space="preserve">
<style type="text/css">
	.st0{fill:#FFC900;}
	.st1{fill:#E87325;}
	.st2{opacity:0.6;}
	.st3{clip-path:url(#SVGID_2_);fill:#FFC900;}
	.st4{fill:none;stroke:#E87325;stroke-width:9;stroke-linecap:round;stroke-miterlimit:10;}
	.st5{fill:none;stroke:#FFC900;stroke-width:9;stroke-linecap:round;stroke-miterlimit:10;}
	.st6{clip-path:url(#SVGID_4_);fill:#FFC900;}
	.st7{fill:none;stroke:#000000;stroke-width:4;stroke-linecap:round;stroke-linejoin:round;stroke-miterlimit:10;}
</style>
<g id="monkey-body">
	<path class="st0" d="M-206.5,793.2c0,41.3,7.2,37.7-61.3,37.7c-70.4,0-59.3,3.7-59.3-37.7s27-74.9,60.3-74.9
		S-206.5,751.8-206.5,793.2z"/>
	<path class="st1" d="M-214.2,784.7c0,38.2,10.6,65.8-53.8,65.8c-68.4,0-51.8-27.6-51.8-65.8c0-38.2,23.6-69.2,52.8-69.2
		S-214.2,746.5-214.2,784.7z"/>
	<g class="st2">
		<path class="st0" d="M-214.5,852.5h-7c-8.2,0-14.9-6.7-14.9-14.9v-30.2c0-9.4,7.7-17.2,17.2-17.2h2.4c9.4,0,17.2,7.7,17.2,17.2
			v30.2C-199.6,845.8-206.3,852.5-214.5,852.5z"/>
		<g>
			<path class="st0" d="M-214.5,852.5h-7c-8.2,0-14.9-6.7-14.9-14.9v-30.2c0-9.4,7.7-17.2,17.2-17.2h2.4c9.4,0,17.2,7.7,17.2,17.2
				v30.2C-199.6,845.8-206.3,852.5-214.5,852.5z"/>
		</g>
		<g>
			<path class="st0" d="M-214.5,852.5h-7c-8.2,0-14.9-6.7-14.9-14.9v-30.2c0-9.4,7.7-17.2,17.2-17.2h2.4c9.4,0,17.2,7.7,17.2,17.2
				v30.2C-199.6,845.8-206.3,852.5-214.5,852.5z"/>
		</g>
		<g>
			<path class="st0" d="M-214.5,852.5h-7c-8.2,0-14.9-6.7-14.9-14.9v-30.2c0-9.4,7.7-17.2,17.2-17.2h2.4c9.4,0,17.2,7.7,17.2,17.2
				v30.2C-199.6,845.8-206.3,852.5-214.5,852.5z"/>
		</g>
	</g>
	<g class="st2">
		<path class="st0" d="M-319.2,850.9h7c8.2,0,14.9-6.7,14.9-14.9v-30.2c0-9.4-7.7-17.2-17.2-17.2h-2.4c-9.4,0-17.2,7.7-17.2,17.2
			V836C-334,844.2-327.4,850.9-319.2,850.9z"/>
		<g>
			<path class="st0" d="M-319.2,850.9h7c8.2,0,14.9-6.7,14.9-14.9v-30.2c0-9.4-7.7-17.2-17.2-17.2h-2.4c-9.4,0-17.2,7.7-17.2,17.2
				V836C-334,844.2-327.4,850.9-319.2,850.9z"/>
		</g>
		<g>
			<path class="st0" d="M-319.2,850.9h7c8.2,0,14.9-6.7,14.9-14.9v-30.2c0-9.4-7.7-17.2-17.2-17.2h-2.4c-9.4,0-17.2,7.7-17.2,17.2
				V836C-334,844.2-327.4,850.9-319.2,850.9z"/>
		</g>
		<g>
			<path class="st0" d="M-319.2,850.9h7c8.2,0,14.9-6.7,14.9-14.9v-30.2c0-9.4-8.7-17.2-18.2-17.2h-1.4c-9.4,0-17.2,7.7-17.2,17.2
				V836C-334,844.2-327.4,850.9-319.2,850.9z"/>
		</g>
	</g>
	<path class="st0" d="M-189.6,843.4h-31.1c-2,0-3.6-1.6-3.6-3.6l0,0c0-2-1-19.6,1.8-15.5c3.8,5.7,20.8,10.2,22.4,10.5
		c0.1,0,0.2,0,0.3,0.1c13.3,3.8,12.8,1.7,13.9,4.9l0,0C-186,841.8-187.6,843.4-189.6,843.4z"/>
	<g>
		<g>
			<defs>
				<path id="SVGID_1_" d="M-227.3,816.8c0,28.9,8,49.7-40.6,49.7c-51.7,0-39.2-20.8-39.2-49.7s17.9-52.3,39.9-52.3
					S-227.3,787.9-227.3,816.8z"/>
			</defs>
			<clipPath id="SVGID_2_">
				<use xlink:href="#SVGID_1_"  style="overflow:visible;"/>
			</clipPath>
			<path class="st3" d="M-214.2,784.8c0,38.2,10.6,65.8-53.8,65.8c-68.4,0-51.8-27.6-51.8-65.8c0-38.2,23.6-69.2,52.8-69.2
				S-214.2,746.6-214.2,784.8z"/>
		</g>
	</g>
	<path class="st0" d="M-346.2,843.4h31.1c2,0,3.6-1.6,3.6-3.6l0,0c0-2,1-19.6-1.8-15.5c-3.8,5.7-20.8,10.2-22.4,10.5
		c-0.1,0-0.2,0-0.3,0.1c-13.3,3.8-12.8,1.7-13.9,4.9l0,0C-349.8,841.8-348.1,843.4-346.2,843.4z"/>
	<g>
		<path class="st1" d="M-214.4,854.8h-7c-8.2,0-14.9-6.7-14.9-14.9v-30.2c0-9.4,7.7-17.2,17.2-17.2h2.4c9.4,0,17.2,7.7,17.2,17.2
			v30.2C-199.6,848.1-206.2,854.8-214.4,854.8z"/>
		<g>
			<path class="st0" d="M-214.4,854.8h-7c-8.2,0-14.9-6.7-14.9-14.9v-30.2c0-9.4,7.7-17.2,17.2-17.2h2.4c9.4,0,17.2,7.7,17.2,17.2
				v30.2C-199.6,848.1-206.2,854.8-214.4,854.8z"/>
		</g>
		<g>
			<path class="st0" d="M-214.4,854.8h-7c-8.2,0-14.9-6.7-14.9-14.9v-30.2c0-9.4,7.7-17.2,17.2-17.2h2.4c9.4,0,17.2,7.7,17.2,17.2
				v30.2C-199.6,848.1-206.2,854.8-214.4,854.8z"/>
		</g>
		<g>
			<path class="st1" d="M-214.4,854.8h-7c-8.2,0-14.9-6.7-14.9-14.9v-30.2c0-9.4,7.7-17.2,17.2-17.2h2.4c9.4,0,17.2,7.7,17.2,17.2
				v30.2C-199.6,848.1-206.2,854.8-214.4,854.8z"/>
		</g>
	</g>
	<g>
		<path class="st1" d="M-319.1,853.2h7c8.2,0,14.9-6.7,14.9-14.9v-30.2c0-9.4-7.7-17.2-17.2-17.2h-2.4c-9.4,0-17.2,7.7-17.2,17.2
			v30.3C-334,846.5-327.3,853.2-319.1,853.2z"/>
		<g>
			<path class="st0" d="M-319.1,853.2h7c8.2,0,14.9-6.7,14.9-14.9v-30.2c0-9.4-7.7-17.2-17.2-17.2h-2.4c-9.4,0-17.2,7.7-17.2,17.2
				v30.3C-334,846.5-327.3,853.2-319.1,853.2z"/>
		</g>
		<g>
			<path class="st0" d="M-319.1,853.2h7c8.2,0,14.9-6.7,14.9-14.9v-30.2c0-9.4-7.7-17.2-17.2-17.2h-2.4c-9.4,0-17.2,7.7-17.2,17.2
				v30.2C-334,846.5-327.3,853.2-319.1,853.2z"/>
		</g>
		<g>
			<path class="st1" d="M-320.1,853.2h7c8.2,0,14.9-6.7,14.9-14.9v-30.2c0-9.4-7.7-17.2-17.2-17.2h-2.4c-9.4,0-17.2,7.7-17.2,17.2
				v30.2C-335,846.5-328.3,853.2-320.1,853.2z"/>
		</g>
	</g>
	<path class="st4" d="M-168.1,743.6c-8.5-24.1-46.3-11-23.3,24.1c39,59.6-6.4,62.8-10.3,61"/>
	<path class="st5" d="M-168.1,743.6c-1.7-4.9-4.7-8.3-8.1-10.2"/>
</g>
<g id="monkey-head">
	<path class="st0" d="M-222.9,709.1l20-0.3c11-0.1,19.8-9.4,19.7-20.8c-0.2-11.3-9.2-20.5-20.2-20.3l-20,0.3L-222.9,709.1z"/>
	<path class="st0" d="M-312.7,668.7l-20-0.3c-11-0.1-20,9-20.2,20.3c-0.1,11.4,8.7,20.6,19.7,20.8l20,0.3L-312.7,668.7z"/>
	<path class="st1" d="M-248.1,756.6h-38.5c-23.3,0-42.4-19.1-42.4-42.4v-25.9c0-23.3,19.1-42.4,42.4-42.4h38.5
		c23.3,0,42.4,19.1,42.4,42.4v25.9C-205.7,737.5-224.8,756.6-248.1,756.6z"/>
	<path class="st1" d="M-307.7,674.6l-20-0.2c-11.4-0.3-20.1,2.2-20.5,14.4c-0.4,11.8,7.9,15.5,20.2,15.6l20,0.3L-307.7,674.6z"/>
	<path class="st1" d="M-228,704l20-0.3c12.3-0.1,20.6-3.8,20.2-15.6c-0.4-12.2-9.2-14.7-20.5-14.4l-20,0.2L-228,704z"/>
	<path class="st0" d="M-266.9,708.9c4.8,6.4,12.7,10.6,21.5,10.6c14.7,0,26.6-11.6,26.6-25.8s-11.9-25.8-26.6-25.8
		c-8.8,0-16.6,4.1-21.4,10.5l0,0c-4.8-6.4-12.7-10.6-21.5-10.6c-14.7,0-26.6,11.6-26.6,25.8c0,14.2,11.9,25.8,26.6,25.8
		C-279.5,719.4-271.7,715.3-266.9,708.9"/>
	<g>
		<g>
			<defs>
				<path id="SVGID_3_" d="M-231.3,772.3h-71.1c-19.6,0-35.5-15.4-35.5-34.5s15.9-34.5,35.5-34.5h71.1l0,0
					c19.6,0,35.5,15.4,35.5,34.5C-195.7,756.9-211.6,772.3-231.3,772.3"/>
			</defs>
			<clipPath id="SVGID_4_">
				<use xlink:href="#SVGID_3_"  style="overflow:visible;"/>
			</clipPath>
			<path class="st6" d="M-248.1,756.7h-38.5c-23.3,0-42.4-19.1-42.4-42.4v-25.9c0-23.3,19.1-42.4,42.4-42.4h38.5
				c23.3,0,42.4,19.1,42.4,42.4v25.9C-205.7,737.7-224.8,756.7-248.1,756.7z"/>
		</g>
	</g>
	<path class="st7" d="M-258.4,726.4c0,6.2-4.1,11.2-9.2,11.2s-9.2-5-9.2-11.2"/>
	<path d="M-256.3,707.4c0,3.4-5.1,6.2-11.3,6.2s-11.4-2.8-11.4-6.2c0-4.9,5.1-6.2,11.3-6.2S-256.3,702.7-256.3,707.4z"/>
	<circle cx="-292.9" cy="689.4" r="4.1"/>
	<circle cx="-245.4" cy="689.3" r="4.1"/>
</g>
</svg>
