<?xml version="1.0" encoding="utf-8"?>
<!-- Generator: Adobe Illustrator 19.0.0, SVG Export Plug-In . SVG Version: 6.00 Build 0)  -->
<svg version="1.1" id="monkey" xmlns="http://www.w3.org/2000/svg" xmlns:xlink="http://www.w3.org/1999/xlink" x="0px" y="0px"
	 viewBox="-178 278.6 239 284.3" style="enable-background:new -178 278.6 239 284.3;" xml:space="preserve">
<style type="text/css">
	.st0{fill:#FFC900;}
	.st1{fill:#E87325;}
	.st2{opacity:0.6;}
	.st3{clip-path:url(#SVGID_2_);fill:#FFC900;}
	.st4{fill:none;stroke:#E87325;stroke-width:9;stroke-linecap:round;stroke-miterlimit:10;}
	.st5{fill:none;stroke:#FFC900;stroke-width:9;stroke-linecap:round;stroke-miterlimit:10;}
	.st6{clip-path:url(#SVGID_4_);fill:#FFC900;}
	.st7{fill:none;stroke:#000000;stroke-width:4;stroke-linecap:round;stroke-linejoin:round;stroke-miterlimit:10;}
</style>
<g id="monkey-body">
	<path class="st0" d="M4.7,480c0,50.4,8.8,46-74.9,46c-86,0-72.4,4.5-72.4-46s33-91.5,73.7-91.5S4.7,429.4,4.7,480z"/>
	<path class="st1" d="M-4.7,469.6c0,46.7,12.9,80.4-65.7,80.4c-83.5,0-63.3-33.7-63.3-80.4s28.8-84.5,64.5-84.5
		S-4.7,422.9-4.7,469.6z"/>
	<g class="st2">
		<path class="st0" d="M-5.1,552.4h-8.5c-10,0-18.2-8.2-18.2-18.2v-36.9c0-11.5,9.4-21,21-21h2.9c11.5,0,21,9.4,21,21v36.9
			C13.1,544.2,4.9,552.4-5.1,552.4z"/>
		<g>
			<path class="st0" d="M-5.1,552.4h-8.5c-10,0-18.2-8.2-18.2-18.2v-36.9c0-11.5,9.4-21,21-21h2.9c11.5,0,21,9.4,21,21v36.9
				C13.1,544.2,4.9,552.4-5.1,552.4z"/>
		</g>
		<g>
			<path class="st0" d="M-5.1,552.4h-8.5c-10,0-18.2-8.2-18.2-18.2v-36.9c0-11.5,9.4-21,21-21h2.9c11.5,0,21,9.4,21,21v36.9
				C13.1,544.2,4.9,552.4-5.1,552.4z"/>
		</g>
		<g>
			<path class="st0" d="M-5.1,552.4h-8.5c-10,0-18.2-8.2-18.2-18.2v-36.9c0-11.5,9.4-21,21-21h2.9c11.5,0,21,9.4,21,21v36.9
				C13.1,544.2,4.9,552.4-5.1,552.4z"/>
		</g>
	</g>
	<g class="st2">
		<path class="st0" d="M-133,550.4h8.5c10,0,18.2-8.2,18.2-18.2v-36.9c0-11.5-9.4-21-21-21h-2.9c-11.5,0-21,9.4-21,21v36.9
			C-151.1,542.3-143,550.4-133,550.4z"/>
		<g>
			<path class="st0" d="M-133,550.4h8.5c10,0,18.2-8.2,18.2-18.2v-36.9c0-11.5-9.4-21-21-21h-2.9c-11.5,0-21,9.4-21,21v36.9
				C-151.1,542.3-143,550.4-133,550.4z"/>
		</g>
		<g>
			<path class="st0" d="M-133,550.4h8.5c10,0,18.2-8.2,18.2-18.2v-36.9c0-11.5-9.4-21-21-21h-2.9c-11.5,0-21,9.4-21,21v36.9
				C-151.1,542.3-143,550.4-133,550.4z"/>
		</g>
		<g>
			<path class="st0" d="M-133,550.4h8.5c10,0,18.2-8.2,18.2-18.2v-36.9c0-11.5-10.6-21-22.2-21h-1.7c-11.5,0-21,9.4-21,21v36.9
				C-151.1,542.3-143,550.4-133,550.4z"/>
		</g>
	</g>
	<path class="st0" d="M25.3,541.3h-38c-2.4,0-4.4-2-4.4-4.4l0,0c0-2.4-1.2-23.9,2.2-18.9c4.6,7,25.4,12.5,27.4,12.8
		c0.1,0,0.2,0,0.4,0.1c16.2,4.6,15.6,2.1,17,6l0,0C29.7,539.3,27.8,541.3,25.3,541.3z"/>
	<g>
		<g>
			<g>
				<g>
					<defs>
						<path id="SVGID_1_" d="M-20.7,508.8c0,35.3,9.8,60.7-49.6,60.7c-63.1,0-47.9-25.4-47.9-60.7s21.9-63.9,48.7-63.9
							S-20.7,473.5-20.7,508.8z"/>
					</defs>
					<clipPath id="SVGID_2_">
						<use xlink:href="#SVGID_1_"  style="overflow:visible;"/>
					</clipPath>
					<path class="st3" d="M-4.7,469.7c0,46.7,12.9,80.4-65.7,80.4c-83.5,0-63.3-33.7-63.3-80.4s28.8-84.5,64.5-84.5
						S-4.7,423-4.7,469.7z"/>
				</g>
			</g>
		</g>
	</g>
	<path class="st0" d="M-166,541.3h38c2.4,0,4.4-2,4.4-4.4l0,0c0-2.4,1.2-23.9-2.2-18.9c-4.6,7-25.4,12.5-27.4,12.8
		c-0.1,0-0.2,0-0.4,0.1c-16.2,4.6-15.6,2.1-17,6l0,0C-170.4,539.3-168.3,541.3-166,541.3z"/>
	<g>
		<path class="st1" d="M-5,555.2h-8.5c-10,0-18.2-8.2-18.2-18.2v-36.9c0-11.5,9.4-21,21-21h2.9c11.5,0,21,9.4,21,21V537
			C13.1,547,5,555.2-5,555.2z"/>
		<g>
			<path class="st0" d="M-5,555.2h-8.5c-10,0-18.2-8.2-18.2-18.2v-36.9c0-11.5,9.4-21,21-21h2.9c11.5,0,21,9.4,21,21V537
				C13.1,547,5,555.2-5,555.2z"/>
		</g>
		<g>
			<path class="st0" d="M-5,555.2h-8.5c-10,0-18.2-8.2-18.2-18.2v-36.9c0-11.5,9.4-21,21-21h2.9c11.5,0,21,9.4,21,21V537
				C13.1,547,5,555.2-5,555.2z"/>
		</g>
		<g>
			<path class="st1" d="M-5,555.2h-8.5c-10,0-18.2-8.2-18.2-18.2v-36.9c0-11.5,9.4-21,21-21h2.9c11.5,0,21,9.4,21,21V537
				C13.1,547,5,555.2-5,555.2z"/>
		</g>
	</g>
	<g>
		<path class="st1" d="M-132.9,553.2h8.5c10,0,18.2-8.2,18.2-18.2v-36.9c0-11.5-9.4-21-21-21h-2.9c-11.5,0-21,9.4-21,21v37
			C-151.1,545.1-142.9,553.2-132.9,553.2z"/>
		<g>
			<path class="st0" d="M-132.9,553.2h8.5c10,0,18.2-8.2,18.2-18.2v-36.9c0-11.5-9.4-21-21-21h-2.9c-11.5,0-21,9.4-21,21v37
				C-151.1,545.1-142.9,553.2-132.9,553.2z"/>
		</g>
		<g>
			<path class="st0" d="M-132.9,553.2h8.5c10,0,18.2-8.2,18.2-18.2v-36.9c0-11.5-9.4-21-21-21h-2.9c-11.5,0-21,9.4-21,21V535
				C-151.1,545.1-142.9,553.2-132.9,553.2z"/>
		</g>
		<g>
			<path class="st1" d="M-134.1,553.2h8.5c10,0,18.2-8.2,18.2-18.2v-36.9c0-11.5-9.4-21-21-21h-2.9c-11.5,0-21,9.4-21,21V535
				C-152.3,545.1-144.1,553.2-134.1,553.2z"/>
		</g>
	</g>
	<path class="st4" d="M51.6,419.4C41.2,390-5,406,23.1,448.8c47.6,72.8-7.8,76.7-12.6,74.5"/>
	<path class="st5" d="M51.6,419.4c-2.1-6-5.7-10.1-9.9-12.5"/>
</g>
<g id="monkey-head">
	<path class="st0" d="M-15.4,377.2L9,376.8c13.4-0.1,24.2-11.5,24.1-25.4c-0.2-13.8-11.2-25-24.7-24.8L-16,327L-15.4,377.2z"/>
	<path class="st0" d="M-125,327.9l-24.4-0.4c-13.4-0.1-24.4,11-24.7,24.8c-0.1,13.9,10.6,25.2,24.1,25.4l24.4,0.4L-125,327.9z"/>
	<path class="st1" d="M-46.1,435.3h-47c-28.5,0-51.8-23.3-51.8-51.8v-31.6c0-28.5,23.3-51.8,51.8-51.8h47
		c28.5,0,51.8,23.3,51.8,51.8v31.6C5.7,411.9-17.7,435.3-46.1,435.3z"/>
	<path class="st1" d="M-118.9,335.1l-24.4-0.2c-13.9-0.4-24.6,2.7-25,17.6c-0.5,14.4,9.6,18.9,24.7,19.1l24.4,0.4L-118.9,335.1z"/>
	<path class="st1" d="M-21.6,371l24.4-0.4c15-0.1,25.2-4.6,24.7-19.1c-0.5-14.9-11.2-18-25-17.6l-24.4,0.2L-21.6,371z"/>
	<path class="st0" d="M-69.1,377c5.9,7.8,15.5,12.9,26.3,12.9c18,0,32.5-14.2,32.5-31.5s-14.5-31.5-32.5-31.5
		c-10.7,0-20.3,5-26.1,12.8l0,0c-5.9-7.8-15.5-12.9-26.3-12.9c-18,0-32.5,14.2-32.5,31.5s14.5,31.5,32.5,31.5
		C-84.5,389.8-75,384.8-69.1,377"/>
	<g>
		<g>
			<g>
				<g>
					<defs>
						<path id="SVGID_3_" d="M-25.6,454.4h-86.8c-23.9,0-43.4-18.8-43.4-42.1c0-23.3,19.4-42.1,43.4-42.1h86.8l0,0
							c23.9,0,43.4,18.8,43.4,42.1C17.9,435.6-1.6,454.4-25.6,454.4"/>
					</defs>
					<clipPath id="SVGID_4_">
						<use xlink:href="#SVGID_3_"  style="overflow:visible;"/>
					</clipPath>
					<path class="st6" d="M-46.1,435.4h-47c-28.5,0-51.8-23.3-51.8-51.8V352c0-28.5,23.3-51.8,51.8-51.8h47
						c28.5,0,51.8,23.3,51.8,51.8v31.6C5.7,412.2-17.7,435.4-46.1,435.4z"/>
				</g>
			</g>
		</g>
	</g>
	<path class="st7" d="M-58.7,398.4c0,7.6-5,13.7-11.2,13.7s-11.2-6.1-11.2-13.7"/>
	<path d="M-56.1,375.2c0,4.2-6.2,7.6-13.8,7.6s-13.9-3.4-13.9-7.6c0-6,6.2-7.6,13.8-7.6S-56.1,369.4-56.1,375.2z"/>
	<circle cx="-100.9" cy="353.2" r="5"/>
	<circle cx="-42.8" cy="353.1" r="5"/>
</g>
</svg>
