<?xml version="1.0" encoding="utf-8"?>
<!-- Generator: Adobe Illustrator 19.0.0, SVG Export Plug-In . SVG Version: 6.00 Build 0)  -->
<svg version="1.1" id="hobbies-illustrations" xmlns="http://www.w3.org/2000/svg" xmlns:xlink="http://www.w3.org/1999/xlink"
	 x="0px" y="0px" viewBox="86 -92.1 768 1024" style="enable-background:new 86 -92.1 768 1024;" xml:space="preserve">
<style type="text/css">
	.st0{fill:none;stroke:#FFFFFF;stroke-miterlimit:10;}
	.st1{fill:#DFE3E5;}
	.st2{fill:#F9CA47;}
	.st3{fill:#FFFFFF;}
	.st4{fill:none;}
	.st5{fill:none;stroke:#000000;stroke-miterlimit:10;}
	.st6{fill:#FCBF04;}
	.st7{opacity:0.1091;fill:#E87325;enable-background:new    ;}
	.st8{fill:#067987;}
	.st9{fill:none;stroke:#FCBF04;stroke-miterlimit:10;}
	.st10{opacity:0.8;}
	.st11{fill:#10656B;}
	.st12{opacity:0.5;}
	.st13{fill:#DBA91F;}
	.st14{opacity:0.53;fill:none;stroke:#10656B;stroke-miterlimit:10;enable-background:new    ;}
	.st15{fill:none;stroke:#DBA91F;stroke-miterlimit:10;}
</style>
<path id="XMLID_37_" class="st0" d="M864.8,110.7"/>
<path id="XMLID_65_" class="st1" d="M15.5-43.6c4.9,0.1,9.6-0.7,14-2.1c3.3,14.2,18.1,25,35.9,25.2c9.1,0.1,17.4-2.6,23.8-7
	c6.4,4.6,14.6,7.5,23.7,7.6c15.8,0.2,29.4-8.1,34.8-19.9c0.8,0,1.5,0.1,2.3,0.1c22.7,0.3,41.3-14.4,41.5-32.7
	c0.2-18.3-18-33.4-40.7-33.6c-2.4,0-4.8,0.1-7.1,0.4c-0.6-16.6-16.6-30.1-36.5-30.3c-11.9-0.2-22.3,4.3-29.2,11.4
	c-6.4-4.9-14.9-7.9-24.3-8c-18.8-0.3-34.4,11.4-36.9,26.7c-0.2,0-0.4,0-0.6,0c-20.4-0.3-37.1,13.5-37.3,30.7
	C-21.3-57.9-4.9-43.8,15.5-43.6z"/>
<circle id="XMLID_70_" class="st2" cx="807.6" cy="-88.9" r="57.4"/>
<path id="XMLID_69_" class="st3" d="M15.5-51.6c4.9,0.1,9.6-0.7,14-2.1c3.3,14.2,18.1,25,35.9,25.2c9.1,0.1,17.4-2.6,23.8-7
	c6.4,4.6,14.6,7.5,23.7,7.6c15.8,0.2,29.4-8.1,34.8-19.9c0.8,0,1.5,0.1,2.3,0.1c22.7,0.3,41.3-14.4,41.5-32.7
	c0.2-18.3-18-33.4-40.7-33.6c-2.4,0-4.8,0.1-7.1,0.4c-0.6-16.6-16.6-30.1-36.5-30.3c-11.9-0.2-22.3,4.3-29.2,11.4
	c-6.4-4.9-14.9-7.9-24.3-8c-18.8-0.3-34.4,11.4-36.9,26.7c-0.2,0-0.4,0-0.6,0c-20.4-0.3-37.1,13.5-37.3,30.7
	C-21.3-65.9-4.9-51.8,15.5-51.6z"/>
<path id="XMLID_67_" class="st1" d="M901.4-37.3c-4.7,0.3-9.2,1.4-13.2,3.2c-4.1-14.9-19-25.4-35.9-24.4c-8.6,0.5-16.3,3.9-22.3,9
	c-6.4-4.5-14.5-7-23.1-6.5c-15.1,0.8-27.5,10.5-31.8,23.3c-0.8,0-1.4,0-2.2,0c-21.7,1.2-38.3,17.9-37.3,37.4
	c1.1,19.5,19.5,34.3,41.1,33.1c2.3-0.1,4.6-0.4,6.7-0.9c1.7,17.7,17.9,30.9,37,29.8c11.2-0.6,20.9-6.1,26.9-14
	c6.5,4.8,14.8,7.4,23.7,6.9c17.9-1,32-14.3,33.3-30.7c0.2,0,0.4,0,0.6,0c19.5-1.1,34.4-16.7,33.4-35
	C937.4-24.5,920.8-38.4,901.4-37.3z"/>
<path id="XMLID_66_" class="st3" d="M903.4-46.8c-4.7,0.3-9.2,1.4-13.2,3.2c-4.1-14.9-19-25.4-35.9-24.4c-8.6,0.5-16.3,3.9-22.3,9
	c-6.4-4.5-14.5-7-23.1-6.5c-15.1,0.8-27.5,10.5-31.8,23.3c-0.8,0-1.4,0-2.2,0c-21.7,1.2-38.3,17.9-37.3,37.4
	c1.1,19.5,19.5,34.3,41.1,33.1c2.3-0.1,4.6-0.4,6.7-0.9c1.7,17.7,17.9,30.9,37,29.8c11.2-0.6,20.9-6.1,26.9-14
	c6.5,4.8,14.8,7.4,23.7,6.9c17.9-1,32-14.3,33.3-30.7c0.2,0,0.4,0,0.6,0c19.5-1.1,34.4-16.7,33.4-35S922.8-47.8,903.4-46.8z"/>
<g id="XMLID_373_">
	<line id="XMLID_291_" class="st4" x1="823.2" y1="636.1" x2="772.3" y2="655.7"/>
	<path id="XMLID_289_" class="st5" d="M763,609.3"/>
	<g id="XMLID_286_">
		<path id="XMLID_31_" class="st6" d="M896,991.6c-28.7-123.3-75.6-272.7-137.2-374.1c-3.2-5.3,2-12.2,8-13.8l7.7-2.1
			c6-1.7,10.5,2.6,14,7.7c63.2,92.5,110.3,225.4,144.3,352.4"/>
	</g>
	<g id="XMLID_292_">
		<g>
			<g>
				<g>
					<path class="st7" d="M779.8,657.6c15.1,6.6,30.3,13.1,45.4,19.7c0.2,0.1-0.1-0.6-0.2-0.7c-15.1-6.6-30.3-13.1-45.4-19.7
						C779.4,656.8,779.7,657.5,779.8,657.6z"/>
					<path class="st7" d="M779.9,656.9c15.1,6.6,30.3,13.1,45.4,19.7c0.2,0.1,0.2-0.3,0.1-0.3c-15.1-6.6-30.3-13.1-45.4-19.7
						C779.7,656.5,779.7,656.8,779.9,656.9z"/>
					<path class="st7" d="M780.1,657.5c15.1,6.6,30.3,13.1,45.4,19.7c0.2,0.1,0-0.7-0.2-0.8c-15.1-6.6-30.2-13.1-45.4-19.7
						C779.7,656.6,779.9,657.4,780.1,657.5z"/>
					<path class="st7" d="M780.4,658c15.1,6.6,30.3,13.1,45.4,19.7c0.2,0.1,0.1-0.4,0-0.5c-15.1-6.6-30.3-13.1-45.4-19.7
						C780.2,657.4,780.3,657.9,780.4,658z"/>
					<path class="st7" d="M780.5,657.5c15.1,6.6,30.3,13.1,45.4,19.7c0.2,0.1,0.1-0.5,0-0.6c-15.1-6.6-30.3-13.1-45.4-19.7
						C780.2,656.9,780.3,657.5,780.5,657.5z"/>
					<path class="st7" d="M779.5,657.4c15.1,6.6,30.3,13.1,45.4,19.7c0.2,0.1,0.1-0.3,0-0.4c-15.1-6.6-30.3-13.1-45.4-19.7
						C779.2,656.9,779.3,657.3,779.5,657.4z"/>
					<path class="st7" d="M779.9,658c15.1,6.6,30.3,13.1,45.4,19.7c0.3,0.1,0.1-0.4,0-0.5c-15.1-6.6-30.3-13.1-45.4-19.7
						C779.6,657.5,779.8,658,779.9,658z"/>
					<path class="st7" d="M780.3,656.8c15.1,6.6,30.3,13.1,45.4,19.7c0.1,0,0.3-0.1,0.2-0.1c-15.1-6.6-30.3-13.1-45.4-19.7
						C780.4,656.7,780.2,656.8,780.3,656.8z"/>
					<path class="st7" d="M779.6,657.8c15.1,6.6,30.3,13.1,45.4,19.7c0.3,0.1,0.1-0.4-0.1-0.5c-15.1-6.6-30.3-13.1-45.4-19.7
						C779.3,657.3,779.5,657.8,779.6,657.8z"/>
				</g>
			</g>
		</g>
	</g>
	<g id="XMLID_441_">
		<g>
			<g>
				<g>
					<path class="st7" d="M801.4,689.1c4-14.7,8-29.5,11.9-44.2c0.1-0.2-0.5,0.1-0.6,0.2c-4,14.7-8,29.5-11.9,44.2
						C800.8,689.5,801.4,689.3,801.4,689.1z"/>
					<path class="st7" d="M801.6,688.6c4-14.7,8-29.5,11.9-44.2c0.1-0.2-0.6,0-0.7,0.2c-4,14.7-8,29.5-11.9,44.2
						C800.9,689,801.6,688.8,801.6,688.6z"/>
					<path class="st7" d="M801.7,689c4-14.7,8-29.5,11.9-44.2c0.1-0.2-0.7,0.2-0.7,0.3c-4,14.7-8,29.5-11.9,44.2
						C800.9,689.5,801.7,689.2,801.7,689z"/>
					<path class="st7" d="M802.1,689.4c4-14.7,8-29.5,11.9-44.2c0.1-0.2-0.3-0.1-0.3,0c-4,14.7-8,29.5-11.9,44.2
						C801.7,689.6,802.1,689.5,802.1,689.4z"/>
					<path class="st7" d="M802.2,688.9c4-14.7,8-29.5,11.9-44.2c0-0.2-0.5,0.1-0.6,0.3c-4,14.7-8,29.5-11.9,44.2
						C801.5,689.4,802.1,689.1,802.2,688.9z"/>
					<path class="st7" d="M801.1,688.5c4-14.7,8-29.5,11.9-44.2c0,0-0.1-0.3-0.1-0.2c-4,14.7-8,29.5-11.9,44.2
						C801,688.4,801.1,688.6,801.1,688.5z"/>
					<path class="st7" d="M801,689.1c4-14.7,8-29.5,11.9-44.2c0-0.2-0.2-0.2-0.3-0.1c-4,14.7-8,29.5-11.9,44.2
						C800.7,689.2,801,689.2,801,689.1z"/>
					<path class="st7" d="M801.5,689.7c4-14.7,8-29.5,11.9-44.2c0-0.1-0.1-0.2-0.1-0.2c-4,14.7-8,29.5-11.9,44.2
						C801.3,689.6,801.5,689.7,801.5,689.7z"/>
					<path class="st7" d="M802.1,688.5c4-14.7,8-29.5,11.9-44.2c0.1-0.2-0.5,0-0.6,0.2c-4,14.7-8,29.5-11.9,44.2
						C801.5,688.9,802,688.6,802.1,688.5z"/>
					<path class="st7" d="M801.1,689.5c4-14.7,8-29.5,11.9-44.2l-0.1-0.2c-4,14.7-8,29.5-11.9,44.2
						C800.9,689.4,801.1,689.5,801.1,689.5z"/>
					<path class="st7" d="M801.9,688.3c4-14.7,8-29.5,11.9-44.2c0.1-0.2-0.4-0.1-0.4,0c-4,14.7-8,29.5-11.9,44.2
						C801.4,688.6,801.8,688.4,801.9,688.3z"/>
				</g>
			</g>
		</g>
	</g>
	<line id="XMLID_285_" class="st0" x1="754.4" y1="605.5" x2="806.3" y2="635.5"/>
	<line id="XMLID_281_" class="st0" x1="788" y1="592.6" x2="769.6" y2="649.6"/>
	<path id="XMLID_280_" class="st8" d="M866.2,613.6c48.7-8.2,75.5-30.5,82.9-46.9c2.5-5.5-44.9-25.4-93.6-17.2
		c-48.7,8.2-82.5,42.4-82.9,46.9C772.2,601.5,817.5,621.8,866.2,613.6z"/>
	<path id="XMLID_277_" class="st9" d="M857.4,564.4c-36.2,6.1-64.2,26.6-76.3,38.5"/>
	<path id="XMLID_273_" class="st9" d="M944.3,575.4c-14.6-7.5-50.4-17.2-86.9-11"/>
	<path id="XMLID_272_" class="st8" d="M729,675.9c-40.6,28.2-75.3,30.8-92,24.3c-5.6-2.2,14.4-49.5,55-77.7s88.7-27.3,92-24.3
		C787.8,601.5,769.7,647.8,729,675.9z"/>
	<path id="XMLID_271_" class="st9" d="M700.9,634.5c30.2-20.9,64.5-25.8,81.5-25.7"/>
	<path id="XMLID_270_" class="st9" d="M646.4,703.1c5.2-15.6,24-47.5,54.5-68.6"/>
	<line id="XMLID_269_" class="st9" x1="670.5" y1="662.8" x2="671.3" y2="701.6"/>
	<line id="XMLID_268_" class="st9" x1="700.9" y1="634.5" x2="704" y2="690.6"/>
	<line id="XMLID_267_" class="st9" x1="732" y1="618.4" x2="736.5" y2="670.3"/>
	<line id="XMLID_266_" class="st9" x1="763.1" y1="610.3" x2="765.6" y2="639.4"/>
	<line id="XMLID_265_" class="st9" x1="898.9" y1="563.3" x2="925.5" y2="591.7"/>
	<line id="XMLID_264_" class="st9" x1="857.4" y1="564.4" x2="894.4" y2="606.6"/>
	<g id="XMLID_260_" class="st10">
		<g id="XMLID_262_">
			<path id="XMLID_263_" class="st11" d="M697.7,693.6l9.2-4.3l6-11.3l0,0l58.2-63.1c-4.4-0.9-46.5,22.3-67.7,67L697.7,693.6z"/>
		</g>
	</g>
	<g id="XMLID_253_" class="st12">
		<g id="XMLID_254_">
			<g id="XMLID_258_">
				<path id="XMLID_259_" class="st13" d="M791.2,623l-5.8,1.6l-1,36.6l4.1,10.7C793.1,649.3,793.4,641,791.2,623"/>
			</g>
		</g>
	</g>
	<line id="XMLID_252_" class="st9" x1="824" y1="574.5" x2="856.9" y2="614.9"/>
	<path id="XMLID_251_" class="st8" d="M771.9,702.1c-23.1,43.7-52.7,62-70.6,63.9c-6,0.6-10-50.6,13.1-94.3s66.2-65,70.6-63.9
		C789.9,609,795,658.4,771.9,702.1z"/>
	<path id="XMLID_250_" class="st9" d="M727.9,678.3c17.2-32.5,45.4-52.6,60.6-60.3"/>
	<path id="XMLID_249_" class="st9" d="M711,764.2c-2.6-16.2-0.5-53.2,16.8-86"/>
	<line id="XMLID_248_" class="st9" x1="713.9" y1="717.3" x2="732.4" y2="751.5"/>
	<line id="XMLID_247_" class="st9" x1="727.9" y1="678.3" x2="756.4" y2="726.7"/>
	<line id="XMLID_246_" class="st9" x1="744.8" y1="653.1" x2="773.9" y2="698.1"/>
	<line id="XMLID_245_" class="st9" x1="769.4" y1="630.1" x2="787" y2="656.5"/>
	<line id="XMLID_244_" class="st9" x1="796" y1="590.5" x2="814.5" y2="613"/>
	<path id="XMLID_243_" class="st14" d="M948.5,659.6"/>
	<path id="XMLID_242_" class="st14" d="M853.4,663.2"/>
	<g id="XMLID_240_" class="st10">
		<path id="XMLID_241_" class="st11" d="M890.3,608c-5.4-2.5-11.1-4.8-16.9-6.7c-47-15.1-92.8-0.3-95.1,3.5l96.3,7.1L890.3,608"/>
	</g>
	<g id="XMLID_228_" class="st12">
		<g id="XMLID_235_">
			<g id="XMLID_236_">
				<path id="XMLID_239_" class="st15" d="M779.2,623.8"/>
				<path id="XMLID_238_" class="st15" d="M779.2,623.8"/>
				<path id="XMLID_237_" class="st13" d="M790.2,625.4l21.5,19.9l4.5,10.6c-11-7.1-20.7-14.9-28.1-22.2"/>
			</g>
		</g>
	</g>
	<path id="XMLID_227_" class="st9" d="M758.8,612.1"/>
	<g id="XMLID_186_">
		<path id="XMLID_193_" class="st8" d="M848.1,665c47,15.1,81,7.6,95.1-3.5c4.7-3.7-28.2-43.2-75.2-58.3s-92.8-0.3-95.1,3.5
			C770.2,610.9,801.1,649.8,848.1,665z"/>
		<path id="XMLID_192_" class="st9" d="M863,617.2c-35-11.3-69.2-5.9-85.5-0.9"/>
		<path id="XMLID_191_" class="st9" d="M935.1,667c-9.5-13.4-36.8-38.4-72.1-49.8"/>
		<line id="XMLID_190_" class="st9" x1="900.3" y1="635.4" x2="910.9" y2="672.8"/>
		<line id="XMLID_189_" class="st9" x1="863" y1="617.2" x2="876.4" y2="671.8"/>
		<line id="XMLID_188_" class="st9" x1="828.6" y1="610.8" x2="839.3" y2="661.8"/>
		<line id="XMLID_187_" class="st9" x1="796.5" y1="612.1" x2="802.5" y2="640.7"/>
	</g>
	<path id="XMLID_178_" class="st14" d="M723.1,667.3"/>
	<path id="XMLID_177_" class="st14" d="M774.7,587.2"/>
	<path id="XMLID_175_" class="st14" d="M786.5,681.7"/>
	<path id="XMLID_174_" class="st13" d="M789.3,624.9"/>
	<path id="XMLID_172_" class="st13" d="M789.2,633.5"/>
	<line id="XMLID_171_" class="st4" x1="789.3" y1="624.9" x2="791.2" y2="625.2"/>
	<g id="XMLID_293_">
		<g>
			<g>
				<g>
					<path class="st7" d="M824.8,676.8c-3.6,17.4-7.3,34.9-10.9,52.3c0,0.2,0.7-0.2,0.7-0.4c3.6-17.4,7.3-34.8,10.9-52.3
						C825.5,676.3,824.8,676.6,824.8,676.8z"/>
					<path class="st7" d="M824.9,676.3c-3.6,17.4-7.3,34.9-10.9,52.3c0,0.2,0.5-0.1,0.5-0.3c3.6-17.4,7.3-34.9,10.9-52.3
						C825.5,675.8,825,676.2,824.9,676.3z"/>
					<path class="st7" d="M825.1,676.7c-3.6,17.4-7.3,34.9-10.9,52.3c0,0.2,0.7-0.2,0.7-0.3c3.6-17.4,7.3-34.8,10.9-52.3
						C825.8,676.2,825.1,676.5,825.1,676.7z"/>
					<path class="st7" d="M825.5,677.1c-3.6,17.4-7.3,34.9-10.9,52.3c0,0.1,0.1,0.3,0.2,0.1c3.6-17.4,7.3-34.9,10.9-52.3
						C825.6,677.1,825.5,676.9,825.5,677.1z"/>
					<path class="st7" d="M825.6,676.6c-3.6,17.4-7.3,34.9-10.9,52.3c0,0.1,0.2,0.2,0.2,0.1c3.6-17.4,7.3-34.9,10.9-52.3
						C825.8,676.6,825.6,676.5,825.6,676.6z"/>
					<path class="st7" d="M824.5,676.2c-3.6,17.4-7.3,34.9-10.9,52.3c0,0.2,0.2,0.1,0.3,0c3.6-17.4,7.3-34.9,10.9-52.3
						C824.8,676,824.5,676.1,824.5,676.2z"/>
					<path class="st7" d="M824.5,676.8c-3.6,17.4-7.3,34.9-10.9,52.3c0,0.2,0.6-0.2,0.6-0.4c3.6-17.4,7.3-34.8,10.9-52.3
						C825.1,676.2,824.5,676.6,824.5,676.8z"/>
					<path class="st7" d="M824.8,677.3c-3.7,17.4-7.3,34.9-10.9,52.3c0,0.2,0.5,0,0.5-0.1c3.6-17.4,7.3-34.9,10.9-52.3
						C825.3,676.9,824.8,677.1,824.8,677.3z"/>
					<path class="st7" d="M824.5,677.1c-3.6,17.4-7.3,34.9-10.9,52.3c0,0.2,0.6-0.1,0.6-0.3c3.6-17.4,7.3-34.8,10.9-52.3
						C825.2,676.6,824.5,676.9,824.5,677.1z"/>
					<path class="st7" d="M824.3,676.5c-3.6,17.4-7.3,34.9-10.9,52.3c-0.1,0.2,0.3,0,0.4-0.1c3.6-17.4,7.3-34.9,10.9-52.3
						C824.7,676.1,824.3,676.3,824.3,676.5z"/>
				</g>
			</g>
		</g>
	</g>
	<g id="XMLID_295_">
		<g>
			<g>
				<g>
					<path class="st7" d="M814.7,729.4c15.6,7.8,31.2,15.7,46.8,23.5c0.2,0.1,0-0.6-0.2-0.7c-15.6-7.9-31.2-15.7-46.8-23.5
						C814.4,728.7,814.6,729.4,814.7,729.4z"/>
					<path class="st7" d="M814.8,728.8c15.6,7.8,31.2,15.7,46.9,23.5c0.2,0.1,0.2-0.3,0.1-0.3c-15.6-7.8-31.2-15.7-46.9-23.5
						C814.6,728.3,814.6,728.7,814.8,728.8z"/>
					<path class="st7" d="M815,729.3c15.6,7.8,31.2,15.6,46.8,23.5c0.2,0.1,0-0.7-0.1-0.8c-15.6-7.9-31.2-15.7-46.8-23.5
						C814.7,728.5,814.8,729.3,815,729.3z"/>
					<path class="st7" d="M815.3,729.9c15.6,7.8,31.2,15.7,46.9,23.5c0.2,0.1,0.1-0.4,0-0.5c-15.6-7.8-31.2-15.7-46.9-23.5
						C815.1,729.3,815.2,729.8,815.3,729.9z"/>
					<path class="st7" d="M815.4,729.4c15.6,7.8,31.2,15.7,46.9,23.5c0.2,0.1,0.1-0.5,0-0.5c-15.6-7.8-31.2-15.7-46.9-23.5
						C815.2,728.8,815.2,729.4,815.4,729.4z"/>
					<path class="st7" d="M814.4,729.3c15.6,7.8,31.2,15.7,46.9,23.5c0.2,0.1,0.1-0.3,0-0.4c-15.6-7.8-31.2-15.7-46.9-23.5
						C814.2,728.8,814.2,729.2,814.4,729.3z"/>
					<path class="st7" d="M814.8,729.9c15.6,7.8,31.2,15.7,46.9,23.5c0.3,0.1,0.1-0.4,0-0.5c-15.6-7.8-31.2-15.7-46.9-23.5
						C814.5,729.4,814.7,729.9,814.8,729.9z"/>
					<path class="st7" d="M815.2,728.7c15.6,7.8,31.2,15.7,46.9,23.5c0,0,0.2,0,0.2-0.1c-15.6-7.8-31.2-15.7-46.9-23.5
						C815.3,728.6,815.1,728.7,815.2,728.7z"/>
					<path class="st7" d="M814.5,729.7c15.6,7.8,31.2,15.7,46.9,23.5c0.3,0.1,0.1-0.4,0-0.5c-15.6-7.8-31.2-15.7-46.9-23.5
						C814.2,729.1,814.4,729.7,814.5,729.7z"/>
				</g>
			</g>
		</g>
	</g>
	<g id="XMLID_170_">
		<g id="XMLID_297_">
			<g>
				<g>
					<g>
						<path class="st7" d="M891.5,827.2c-8.8-4.5-17.6-9.1-26.4-13.6c-4.9-2.5-9.8-5.1-14.8-7.6c-0.9-0.5-1.8-0.9-2.7-1.4
							c-0.6-0.3-1.1-0.6-1.7-0.9c-0.3-0.5,0.7-2.4,0.9-2.7l-0.2-0.1c-0.3,0.9-0.7,1.8-1.2,2.7c0,0,0,0.2,0,0.3
							c15.3,7.9,30.7,15.8,46,23.7C891.5,827.6,891.6,827.3,891.5,827.2z"/>
						<path class="st7" d="M891.2,826.4c-15.3-7.9-30.7-15.8-46-23.7c0,0.1,0.1,0.3,0.1,0.4c0.5-0.9,0.8-1.9,1.2-2.8
							c0-0.1-0.2-0.2-0.2-0.1c-0.3,0.9-0.7,1.8-1.2,2.6c-0.1,0.1,0,0.4,0.1,0.4c15.3,7.9,30.7,15.8,46,23.7
							C891.3,826.9,891.3,826.5,891.2,826.4z"/>
						<path class="st7" d="M848,795.9l-0.1-0.2C847.9,795.7,847.9,795.9,848,795.9z"/>
						<path class="st7" d="M891.6,826.9c-15.3-7.9-30.7-15.8-46-23.6c0.1,0.2,0.1,0.5,0.2,0.7c0.8-2.6,1.7-5.1,2.6-7.7
							c2-6.1,3.9-12.3,5.7-18.4c2.6-8.6,5.2-17.2,7.9-25.9c0.1-0.2-0.5,0.1-0.6,0.2c-2.1,6.8-4.1,13.6-6.2,20.4
							c-1.8,6-3.6,11.9-5.4,17.9c-0.7,2.4-1.5,4.8-2.2,7.2c-0.5,1.5-1,4.5-2.1,5.6c-0.1,0.1,0.1,0.7,0.2,0.7
							c15.3,7.9,30.6,15.8,46,23.6C891.9,827.7,891.7,827,891.6,826.9z"/>
						<path class="st7" d="M891.7,826.3c-15.3-7.9-30.7-15.7-46-23.6c0.1,0.3,0.2,0.5,0.3,0.8c1-3.6,2.3-7.1,3.4-10.6
							c1.9-5.8,3.6-11.6,5.4-17.4c2.5-8,4.8-16,7.3-24c0.1-0.2-0.6,0-0.7,0.2c-2.2,7.4-4.5,14.8-6.7,22.2
							c-1.6,5.4-3.2,10.7-4.9,16.1c-0.6,2-1.2,4-1.8,6c-0.4,1.4-0.8,2.7-1.3,4.1c-0.2,1-0.6,1.9-1.2,2.7c-0.2,0.1,0.1,0.7,0.3,0.8
							c15.3,7.9,30.6,15.8,45.9,23.6C892.1,827.2,891.9,826.4,891.7,826.3z"/>
						<path class="st7" d="M891.9,826.8c-15.3-7.9-30.7-15.7-46-23.6c0.1,0.2,0.2,0.5,0.3,0.7c0.7-2.6,1.6-5.2,2.5-7.8
							c2-6.1,3.9-12.3,5.8-18.4c2.6-8.6,5.2-17.2,7.9-25.8c0.1-0.2-0.7,0.1-0.7,0.3c-2.4,8-4.8,16-7.2,24
							c-1.6,5.3-3.2,10.5-4.8,15.8c-0.7,2.3-1.4,4.5-2.1,6.8c-0.4,1.4-0.7,3.3-1.7,4.4c-0.1,0.1,0.2,0.7,0.3,0.7
							c15.3,7.9,30.6,15.8,45.9,23.6C892.2,827.7,892,826.9,891.9,826.8z"/>
						<path class="st7" d="M848.2,799c5.4-15.4,9.7-31.2,14.5-46.7c0.1-0.2-0.3-0.1-0.3,0c-1.9,6.2-3.7,12.4-5.6,18.6
							c-2.8,9.4-5.5,18.8-8.8,28.1C848,798.9,848.2,799,848.2,799z"/>
						<path class="st7" d="M892.3,826.8c-15.3-7.9-30.7-15.8-46-23.7c0,0.1,0.1,0.2,0.1,0.3c0.5-0.8,0.8-1.9,1.1-2.8
							c0.5-1.5,1.1-3.1,1.6-4.6c2.1-6.1,3.9-12.3,5.8-18.4c2.7-8.6,5.2-17.3,7.9-25.9c0.1-0.2-0.5,0.1-0.6,0.3
							c-2.6,8.6-5.2,17.2-7.8,25.8c-1.7,5.7-3.4,11.3-5.2,17c-0.6,1.9-1.2,3.8-1.9,5.7c-0.3,0.9-0.6,1.9-1.2,2.7
							c-0.1,0.1,0,0.3,0.1,0.3c15.3,7.9,30.7,15.8,46,23.7C892.5,827.3,892.4,826.9,892.3,826.8z"/>
						<path class="st7" d="M891.3,826.2c-15.3-7.9-30.7-15.8-46-23.7c0,0.1,0.1,0.3,0.1,0.4c1-1.9,1.6-4.1,2.3-6.1
							c1.9-5.9,3.7-11.8,5.6-17.8c2.8-9.2,5.6-18.4,8.4-27.6c0-0.1-0.1-0.2-0.1-0.2c-2.7,8.6-5.2,17.2-7.9,25.9
							c-1.7,5.7-3.5,11.3-5.3,17c-0.6,2-1.3,4-2,5.9c-0.3,0.8-0.5,2-1.2,2.5c-0.1,0.1,0,0.4,0.1,0.5c15.3,7.9,30.7,15.8,46,23.7
							C891.5,826.8,891.5,826.2,891.3,826.2z"/>
						<path class="st7" d="M891.3,826.7c-15.3-7.9-30.7-15.8-46-23.7c0,0.2,0.1,0.4,0.1,0.6c3.2-8.5,5.7-17.2,8.3-25.9
							c2.6-8.6,5.2-17.2,7.8-25.8c0.1-0.2-0.2-0.2-0.3-0.1c-2.4,8-4.9,16-7.3,24c-1.6,5.3-3.2,10.6-4.9,15.9
							c-0.7,2.3-1.4,4.6-2.2,6.8c-0.4,1.3-0.7,3.6-1.8,4.5c-0.1,0.1,0,0.6,0.1,0.6c15.3,7.9,30.7,15.8,46,23.6
							C891.5,827.4,891.5,826.8,891.3,826.7z"/>
						<path class="st7" d="M854.8,776.5c2.4-8,4.8-16,7.3-24l-0.1-0.2c-2.5,8-4.9,16-7.3,24C854.6,776.4,854.8,776.5,854.8,776.5z"
							/>
						<path class="st7" d="M892.1,826.2c-15.3-7.9-30.7-15.8-46-23.7c0.1,0.2,0.1,0.3,0.2,0.5c1.1-2.4,1.8-5,2.7-7.5
							c2.1-6.1,3.9-12.2,5.8-18.4c2.7-8.6,5.2-17.2,7.9-25.8c0.1-0.2-0.5,0-0.6,0.2c-2.4,8-4.8,16-7.3,24
							c-1.6,5.3-3.2,10.5-4.8,15.8c-0.7,2.3-1.4,4.5-2.2,6.8c-0.5,1.3-0.8,3.5-1.9,4.5c-0.1,0.1,0.1,0.5,0.2,0.5
							c15.3,7.9,30.7,15.8,46,23.7C892.5,826.9,892.2,826.3,892.1,826.2z"/>
						<path class="st7" d="M848.2,796.6c4.6-14.7,9-29.5,13.5-44.2l-0.1-0.2c-4.5,14.8-8.9,29.5-13.6,44.2
							C848,796.5,848.2,796.6,848.2,796.6z"/>
						<path class="st7" d="M891.9,826c-15.3-7.9-30.7-15.8-46-23.7c0.1,0.1,0.1,0.3,0.2,0.4c1-1.9,1.6-4.2,2.3-6.2
							c2-5.9,3.8-11.8,5.6-17.7c2.8-9.2,5.6-18.5,8.5-27.7c0.1-0.2-0.4-0.1-0.4,0c-2.3,7.4-4.5,14.8-6.7,22.2
							c-1.6,5.4-3.3,10.7-4.9,16.1c-0.6,2-1.2,4-1.9,6c-0.4,1.4-0.9,2.8-1.4,4.1c-0.2,1-0.7,2-1.3,2.8c-0.1,0.1,0,0.4,0.1,0.5
							c15.3,7.9,30.7,15.8,46,23.7C892.2,826.6,892,826.1,891.9,826z"/>
					</g>
				</g>
			</g>
		</g>
	</g>
	<g id="XMLID_299_">
		<g id="XMLID_296_">
			<g id="XMLID_304_">
				<g>
					<g>
						<g>
							<path class="st7" d="M886.1,950.1c8-18.1,16-36.2,24.1-54.3c0-0.1-0.1-0.3-0.1-0.2c-8,18.1-16,36.2-24.1,54.3
								C885.9,950,886.1,950.2,886.1,950.1z"/>
							<path class="st7" d="M886.8,949.8c8-18.1,16-36.2,24.1-54.3c0,0,0-0.1-0.1-0.1c-0.5-0.2-1.1-0.4-1.6-0.7c-0.1,0-0.2,0-0.1,0
								c1.1,0.4,1.5,0.9,1,1.6c-0.3,0.7-0.6,1.3-0.9,2c-0.9,1.9-1.7,3.8-2.6,5.8c-2.8,6.2-5.5,12.4-8.3,18.6c-4,9-8,18.1-12,27.1
								C886.3,950.1,886.7,950,886.8,949.8z"/>
							<path class="st7" d="M885.7,949.9c8-18.1,16-36.2,24.1-54.3l-0.1-0.2c-0.5-0.2-1-0.5-1.5-0.8c0.1,0,0.1,0.1,0.2,0.1
								c1.2,0.7,1.3,0.6,0.7,1.9c-0.9,2-1.7,3.9-2.6,5.9c-2.7,6.1-5.4,12.1-8.1,18.2c-4.3,9.7-8.6,19.3-12.9,29
								C885.6,949.8,885.7,950,885.7,949.9z"/>
							<path class="st7" d="M904.9,892.9c-9-5.3-18.1-10.2-27.2-15.3c-3.2-1.8-6.5-3.6-9.7-5.4c-0.4-0.2-2.3-1-2.4-1.4
								c-0.1-0.4,0.5-0.8,0.6-1l-0.2-0.1c-0.3,0.3-0.5,0.7-0.8,1c0,0-0.1,0.2,0,0.3c13.2,7.3,26.3,14.8,39.6,21.9
								C904.8,892.9,905,892.9,904.9,892.9z"/>
							<path class="st7" d="M904.7,892.1c-13.1-7.6-26.4-14.8-39.6-22.2c0,0.1,0,0.3,0.1,0.4c0.4-0.5,0.3-0.4,0.9-1.2
								c0-0.1-0.1-0.2-0.2-0.1c-0.3,0.3-0.6,0.6-0.9,1c-0.1,0.1-0.1,0.4,0,0.4C878.2,877.6,891.3,885.1,904.7,892.1
								C904.8,892.2,904.7,892.1,904.7,892.1z"/>
							<path class="st7" d="M885.7,949c8.2-18,16.1-36.2,24.1-54.3v-0.2c-8.2-4.3-16.1-9-24.2-13.5c-6.8-3.8-13.6-7.6-20.4-11.4
								c0,0.2,0.1,0.3,0.1,0.5c1.6-2.1,2.9-4.5,4.1-6.8c3.3-6.1,6.6-12.2,9.8-18.4c0-0.1-0.1-0.2,0-0.2c-2.8,5.3-5.6,10.6-8.5,15.8
								c-0.9,1.6-1.8,3.3-2.7,4.9c-0.1,0.1-1.7,3.6-2.9,4.2c-0.1,0.1,0,0.4,0.1,0.5c7.3,4.1,14.6,8.1,22,12.2
								c5.1,2.8,10.1,5.7,15.3,8.4c2.2,1.2,4.4,2.3,6.5,3.5c0.9,0.5,0.8,0.5,0.3,1.6c-7.9,17.6-15.9,35.3-23.5,53
								C885.7,948.8,885.8,948.9,885.7,949z"/>
							<path class="st7" d="M886.1,949.6c8-18.1,16-36.2,24.1-54.3v-0.1c-2.5-1.2-4.9-2.7-7.3-4.1c-5.1-2.9-10.2-5.7-15.3-8.5
								c-7.3-4.1-14.7-8.2-22-12.3c0.1,0.2,0.1,0.5,0.2,0.7c1.2-2.4,2.7-4.8,4-7.1c2.8-5,5.4-10,8.1-15.1
								c3.9-7.4,7.8-14.7,11.7-22.1c0.1-0.2-0.5,0-0.6,0.1c-3.6,6.8-7.1,13.6-10.7,20.4c-2.5,4.7-5,9.4-7.5,14.2
								c-0.9,1.6-1.7,3.2-2.6,4.9c-0.5,1-1.5,3.4-2.6,4.1c-0.1,0.1,0,0.7,0.1,0.8c7.9,4.4,15.7,8.7,23.6,13.1c4.5,2.5,9,5,13.5,7.5
								c1.4,0.8,2.9,1.5,4.3,2.3c0.5,0.3,2.4,1,2.5,1.8c-0.1,0.3-0.3,0.6-0.4,0.9c-0.4,0.8-0.7,1.7-1.1,2.5
								c-0.9,2.1-1.8,4.1-2.7,6.2c-2.5,5.7-5.1,11.5-7.6,17.2c-4,9-8,18.1-12,27.1C885.3,949.9,886,949.7,886.1,949.6z"/>
							<path class="st7" d="M886.3,949.1c8-18.1,16-36.2,24.1-54.3v-0.1c-7.7-3.9-15.2-8.4-22.7-12.6c-7.3-4.1-14.7-8.1-22-12.3
								c0.1,0.3,0.2,0.5,0.3,0.8c1.2-2.5,2.6-4.8,3.9-7.2c2.8-5,5.5-10.1,8.2-15.1c3.9-7.3,7.7-14.7,11.7-22c0.1-0.2-0.6-0.1-0.7,0
								c-3.6,6.8-7.1,13.6-10.7,20.4c-2.5,4.7-5,9.4-7.5,14.1c-1.2,2.2-2.3,4.5-3.5,6.7c-0.4,0.7-0.9,1.8-1.7,2.2
								c-0.2,0.1,0.1,0.8,0.2,0.8c7.3,4.1,14.6,8.1,21.9,12.2c5,2.8,10,5.6,15.1,8.3c1.9,1,3.9,2.1,5.8,3.2c0.8,0.5,1,0.5,0.8,1.4
								c-0.3,1.2-1.3,2.8-1.7,3.9c-1,2.2-2,4.5-3,6.7c-2.6,5.8-5.2,11.7-7.8,17.5c-3.7,8.4-7.5,16.8-11.2,25.3
								C885.5,949.3,886.2,949.2,886.3,949.1z"/>
							<path class="st7" d="M886.4,949.4c8-18.1,16-36.2,24.1-54.2v-0.1c-2.6-1.1-4.9-2.7-7.4-4.1c-5.1-2.9-10.2-5.7-15.3-8.5
								c-7.3-4.1-14.7-8.1-22-12.2c0.1,0.3,0.2,0.5,0.3,0.8c1.1-2.5,2.6-4.8,3.9-7.2c2.8-5,5.5-10.1,8.1-15.1
								c3.9-7.3,7.7-14.7,11.7-22c0.1-0.2-0.7,0-0.8,0.2c-3.9,7.3-7.7,14.7-11.5,22c-2.4,4.6-4.8,9.2-7.2,13.8
								c-0.9,1.7-1.8,3.5-2.8,5.2c-0.5,0.8-0.9,1.8-1.7,2.3c-0.2,0.1,0.1,0.7,0.2,0.8c7.3,4.1,14.6,8.1,21.9,12.2
								c5,2.8,10,5.6,15.1,8.4c1.7,0.9,3.3,1.8,4.9,2.8c0.5,0.2,0.9,0.5,1.2,0.9c0.7,0.3,0.7,0.8,0.1,1.4
								c-7.9,17.6-15.7,35.3-23.5,53C885.5,949.8,886.3,949.6,886.4,949.4z"/>
							<path class="st7" d="M869,866.5c7.5-12.9,14.1-26.3,21.1-39.4c0.1-0.2-0.3-0.1-0.4,0c-6.9,13.1-13.5,26.5-21,39.4
								C868.7,866.4,868.9,866.5,869,866.5z"/>
							<path class="st7" d="M886.8,949.4c8-18.1,16-36.2,24.1-54.2v-0.1c-2.6-1.1-5-2.7-7.4-4.1c-5.1-2.9-10.2-5.7-15.2-8.5
								c-7.3-4.1-14.7-8.2-22-12.2c0,0.1,0.1,0.2,0.1,0.3c0.5-0.6,0.8-1.2,1.2-1.9c1-1.6,1.9-3.3,2.8-4.9c2.8-5,5.5-10.1,8.2-15.1
								c3.9-7.4,7.7-14.7,11.7-22.1c0.1-0.2-0.6,0-0.6,0.2c-3.6,6.8-7.1,13.6-10.7,20.3c-2.5,4.7-5,9.5-7.5,14.2
								c-0.8,1.6-1.7,3.2-2.6,4.7c-0.7,1.2-1.6,3.3-2.8,4.3c-0.1,0.1,0,0.3,0.1,0.3c7.3,4.1,14.7,8.1,22,12.2
								c5.1,2.8,10.1,5.7,15.2,8.5c1.9,1.1,3.9,2.1,5.8,3.3c0.8,0.5,1.1,0.6,0.8,1.5c-0.3,1.2-1.3,2.9-1.7,3.9c-1,2.2-2,4.5-3,6.7
								c-2.6,5.8-5.2,11.7-7.8,17.5c-3.7,8.4-7.5,16.9-11.2,25.3C886.1,949.8,886.8,949.6,886.8,949.4z"/>
							<path class="st7" d="M885.6,949.5c8-18.1,16-36.2,24.1-54.3c0,0,0-0.1-0.1-0.2c-14.9-8.2-29.7-16.6-44.5-24.9
								c0,0.2,0.1,0.4,0.1,0.6c8.6-14.3,15.9-29.4,23.7-44.1c0.1-0.1-0.2-0.3-0.2-0.1c-3.6,6.8-7.2,13.6-10.8,20.4
								c-2.5,4.7-5,9.5-7.5,14.2c-0.9,1.6-1.8,3.3-2.7,4.9c-0.5,0.9-1.6,3.5-2.7,4.1c-0.1,0.1,0,0.6,0.1,0.6
								c7.3,4.1,14.6,8.1,22,12.2c5.1,2.8,10.1,5.6,15.2,8.4c2,1.1,3.9,2.1,5.9,3.2c0.3,0.2,0.7,0.4,1,0.6c0.2,0.3,0.2,0.6,0,0.8
								c-0.2,1.2-1.3,2.9-1.7,3.9c-1,2.2-2,4.5-3,6.7c-2.6,5.8-5.2,11.7-7.8,17.5c-3.7,8.4-7.5,16.9-11.2,25.3
								C885.3,949.6,885.6,949.7,885.6,949.5z"/>
							<path class="st7" d="M872.7,859c5.6-10.5,11.2-21.1,16.8-31.7c0-0.1-0.1-0.3-0.2-0.2c-5.6,10.5-11.1,21.1-16.8,31.7
								C872.5,858.8,872.7,858.9,872.7,859z"/>
							<path class="st7" d="M886.7,949c8-18.1,16-36.2,24.1-54.3v-0.1c-2.6-1.2-5-2.7-7.5-4.1c-5.1-2.9-10.2-5.7-15.3-8.5
								c-7.4-4.1-14.7-8.2-22.1-12.3c0.1,0.2,0.1,0.3,0.2,0.5c1.5-2.2,2.8-4.6,4.1-6.9c2.8-5,5.5-10,8.2-15.1
								c3.9-7.3,7.7-14.7,11.7-22c0.1-0.2-0.5-0.1-0.6,0c-3.3,6.3-6.6,12.5-9.8,18.8c-2.3,4.3-4.5,8.6-6.8,12.9
								c-1.2,2.2-2.3,4.4-3.6,6.6c-0.5,0.9-1,1.8-1.6,2.7c-0.4,1-1.1,1.8-1.9,2.6c-0.1,0.1,0.1,0.5,0.1,0.5
								c7.3,4.1,14.7,8.1,22,12.2c5.1,2.8,10.1,5.6,15.2,8.4c1.9,1.1,3.9,2.1,5.8,3.2c0.9,0.5,1.1,0.5,0.9,1.5
								c-0.3,1.2-1.3,2.9-1.7,3.9c-1,2.2-2,4.5-3,6.7c-2.6,5.8-5.2,11.7-7.8,17.5c-3.7,8.4-7.5,16.9-11.2,25.3
								C886.1,949.2,886.7,949.1,886.7,949z"/>
							<path class="st7" d="M869.3,864.3c6.7-12.3,13.1-24.8,19.7-37.1c0,0-0.1-0.3-0.1-0.2C882.3,839.4,875.9,851.9,869.3,864.3
								L869.3,864.3z"/>
							<path class="st7" d="M886.5,948.8c8-18.1,16-36.2,24.1-54.3c0,0,0-0.1-0.1-0.1c-7.7-3.9-15.2-8.4-22.8-12.6
								c-7.4-4.1-14.7-8.2-22.1-12.3c0,0.1,0.1,0.3,0.1,0.4c1.6-2.1,2.8-4.5,4.1-6.8c2.8-5,5.5-10,8.1-15.1
								c3.9-7.3,7.8-14.7,11.7-22.1c0.1-0.2-0.3-0.2-0.4-0.1c-3.6,6.8-7.1,13.6-10.7,20.4c-2.5,4.7-5,9.5-7.5,14.2
								c-0.9,1.6-1.8,3.2-2.7,4.9c-0.5,0.9-1.7,3.6-2.9,4.2c-0.1,0.1,0,0.4,0.1,0.5c7.3,4.1,14.7,8.1,22,12.2
								c5.1,2.8,10.1,5.7,15.2,8.4c1.7,0.9,3.5,1.8,5.2,2.8c0.5,0.2,1,0.5,1.4,0.9c0.7,0.3,0.8,0.8,0.2,1.4
								c-7.8,17.7-15.7,35.3-23.5,53C886,948.9,886.5,948.9,886.5,948.8z"/>
						</g>
					</g>
				</g>
			</g>
		</g>
	</g>
	<g id="XMLID_309_">
		<g id="XMLID_306_">
			<g id="XMLID_300_">
				<g id="XMLID_303_">
					<g id="XMLID_302_">
						<g id="XMLID_301_">
							<g id="XMLID_298_">
								<g id="XMLID_284_">
									<g id="XMLID_283_">
										<g id="XMLID_282_">
											<g id="XMLID_169_">
												<g id="XMLID_166_">
													<g id="XMLID_15_">
														<g>
															<g>
																<g>
																	<path class="st7" d="M844.9,712.5c-6.1,16.3-12.3,32.6-18.4,48.9c0,0,0,0.1,0.1,0.1c0.5,0.2,1,0.4,1.5,0.7l0.2,0.1
																		c-1.3-0.9-1.5-0.8-0.9-2.3c0.5-1.2,0.9-2.5,1.4-3.7c2.2-5.8,4.4-11.7,6.6-17.5c3.3-8.8,6.6-17.5,9.9-26.3
																		C845.3,712.3,844.9,712.4,844.9,712.5z"/>
																	<path class="st7" d="M844.7,712.8c-6.1,16.3-12.3,32.6-18.4,48.9c0,0,0,0.1,0.1,0.1c1.1,0.5,2.1,1.1,3.1,1.7
																		c0,0,0.3,0,0.2,0c-0.4-0.3-2.8-1.3-2.8-2.2c0.1-0.3,0.3-0.7,0.4-1c0.3-0.9,0.7-1.8,1-2.7
																		c2.1-5.6,4.2-11.2,6.3-16.8c3.5-9.4,7.1-18.7,10.6-28.1C845.2,712.5,844.7,712.6,844.7,712.8z"/>
																	<path class="st7" d="M833.8,766.1h0.2H833.8z"/>
																	<path class="st7" d="M861.2,781.8c5.3,3.2,10.7,6.5,16,9.7c0.1,0,0.2,0,0.2,0c-5.3-3.2-10.7-6.5-16-9.7
																		C861.4,781.7,861.2,781.8,861.2,781.8z"/>
																	<path class="st7" d="M845.9,713.3c-6.1,16.3-12.3,32.6-18.4,48.9c0,0,0,0.2,0.1,0.2c16.7,10,33.2,20.2,49.8,30.2
																		c0-0.1,0-0.3-0.1-0.4c-2.8,3.7-4.8,8.1-7,12.1c-4.4,8.2-8.7,16.3-13,24.5c0,0.1,0.1,0.2,0,0.2
																		c3.8-7.2,7.6-14.4,11.5-21.5c1.5-2.9,3.1-5.7,4.7-8.5c0.8-1.4,1.5-2.8,2.4-4.1c0.4-0.9,1-1.7,1.7-2.4
																		c0.1-0.1,0-0.4,0-0.4c-7.6-4.6-15.2-9.2-22.8-13.8c-5.5-3.4-11.1-6.7-16.7-10c-2.1-1.3-4.2-2.5-6.3-3.7
																		c-0.6-0.4-1.2-0.7-1.8-1.1c-0.6-0.4-1.2-0.7-1.8-1.1c-0.3-0.6-0.1-0.8,0.1-1.4c0.8-2.1,1.6-4.2,2.4-6.3
																		c1.9-5,3.8-10,5.6-15c3.3-8.8,6.6-17.5,9.9-26.3C846,713.5,845.9,713.3,845.9,713.3z"/>
																	<path class="st7" d="M872.2,798c-6.7,12.2-13.1,24.6-19.7,36.9c0,0.1,0,0.1,0.1,0.2c0.5,0.2,1,0.5,1.5,0.7
																		c0,0,0.2,0.1,0.1,0c-1.3-0.5-1.6-1.2-0.7-2.1c0.6-1.1,1.2-2.2,1.8-3.3c1.6-3.1,3.3-6.2,4.9-9.3
																		c4.1-7.7,8.1-15.3,12.3-22.9C872.5,798.1,872.3,798,872.2,798z"/>
																	<path class="st7" d="M874.4,794.3c-7.9,13.4-14.8,27.3-22.2,40.9v0.1c1.1,0.4,2.1,0.9,3.1,1.6c0,0,0.3,0,0.2,0
																		c-0.5-0.3-1-0.6-1.6-0.9c-0.4-0.4-0.8-0.7-1.2-1.1c0.3-0.5,0.6-1.1,0.9-1.6c0.3-0.6,0.6-1.1,0.9-1.7
																		c2.1-3.9,4.2-7.9,6.2-11.8c4.5-8.5,9-17.1,13.8-25.5C874.7,794.3,874.5,794.2,874.4,794.3z"/>
																	<path class="st7" d="M859.7,839.3h0.2H859.7z"/>
																	<path class="st7" d="M876.3,847.7c8.6,4.8,17.1,9.6,25.7,14.4h0.2c-8.6-4.8-17.1-9.6-25.7-14.4
																		C876.5,847.6,876.3,847.7,876.3,847.7z"/>
																	<path class="st7" d="M854,836.2c16.1,8.9,32.1,18,48.1,27c0-0.1,0-0.3-0.1-0.4c-2.3,2.9-4,6.2-5.9,9.4
																		c-3.6,6.3-7.2,12.6-10.8,18.9c0,0.1,0.1,0.2,0,0.2c3.6-6.3,7.2-12.7,10.9-19c1.3-2.3,2.6-4.6,4.1-6.8
																		c0.5-0.8,1-1.9,1.9-2.4c0.1-0.1,0-0.4-0.1-0.4c-6.9-3.8-13.7-7.7-20.6-11.5c-9.2-5.1-18.5-10.1-27.7-15.3
																		C853.9,836,854,836.2,854,836.2z"/>
																	<path class="st7" d="M845.2,713.1c-6.1,16.3-12.3,32.6-18.4,48.8v0.1c2.6,1.3,5.1,3,7.5,4.5
																		c5.9,3.6,11.8,7.2,17.7,10.7c8.2,5,16.4,10,24.6,15c-0.1-0.2-0.1-0.5-0.2-0.7c-1.3,2.9-3.1,5.6-4.6,8.4
																		c-2.8,5.1-5.5,10.2-8.3,15.3c-3.6,6.7-7.1,13.5-10.7,20.2v0.1c2.5,1.2,4.9,2.7,7.4,4.1c5.7,3.3,11.5,6.5,17.3,9.7
																		c8,4.5,16,9,24,13.4c-0.1-0.2-0.2-0.4-0.2-0.7c-1.2,2.5-2.8,4.8-4.2,7.1c-3,5-5.8,10-8.7,15.1
																		c-4.2,7.3-8.3,14.7-12.5,22c-0.1,0.2,0.7,0,0.8-0.1c4.1-7.3,8.2-14.7,12.3-22c2.6-4.6,5.2-9.2,7.7-13.8
																		c1-1.7,1.9-3.5,3-5.2c0.5-0.8,1-1.8,1.8-2.4c0.2-0.1-0.1-0.6-0.2-0.7c-6.8-3.8-13.7-7.7-20.5-11.5
																		c-5-2.8-9.9-5.6-14.9-8.4c-2.6-1.4-5.1-2.9-7.7-4.3c-1-0.5-1.9-1-2.8-1.6c-0.5-0.3-1.1-0.6-1.6-1
																		c-0.2-0.5,0.2-0.9,0.4-1.3c0.8-1.5,1.6-3,2.4-4.5c2.3-4.3,4.5-8.6,6.8-12.9c2.7-5.2,5.5-10.5,8.2-15.7
																		c0.8-1.6,1.7-3.2,2.5-4.8c0.4-0.8,1.5-3.2,2.6-4.1c0.1-0.1-0.1-0.6-0.2-0.7c-7.6-4.6-15.2-9.2-22.8-13.8
																		c-5.5-3.4-11-6.7-16.6-10.1c-2-1.2-4.1-2.4-6.1-3.7c-0.6-0.4-1.2-0.7-1.7-1.1c-0.5-0.3-1.1-0.7-1.6-1.1
																		c-0.3-0.5,0-1,0.2-1.5c0.8-2.1,1.6-4.2,2.4-6.3c1.9-5,3.8-10,5.6-15c3.3-8.7,6.6-17.5,9.9-26.2
																		C846,712.7,845.2,712.9,845.2,713.1z"/>
																	<path class="st7" d="M845.3,712.6c-6.1,16.3-12.3,32.6-18.4,48.9c0,0,0,0.1,0.1,0.1c3.6,1.7,6.9,4,10.3,6
																		c5.6,3.4,11.1,6.7,16.7,10.1c4.8,2.9,9.6,5.8,14.5,8.8c1.9,1.1,3.8,2.3,5.7,3.4c0.4,0.2,2.4,1.2,2.4,1.6
																		c0,0.5-1.3,2.4-1.4,2.5c-0.8,1.4-1.6,2.8-2.4,4.2c-2.8,4.9-5.4,10-8.1,15c-3.9,7.3-7.7,14.6-11.6,21.9v0.1
																		c2.6,1.1,5,2.6,7.4,4c5.2,2.9,10.4,5.8,15.5,8.7c5.4,3,10.8,6,16.2,9c2,1.1,3.9,2.2,5.9,3.3
																		c0.4,0.2,3.2,1.5,3.3,1.8c0.1,0.4-0.4,0.8-0.6,1.1c-1.2,1.9-2.3,3.7-3.5,5.6c-2.6,4.5-5.2,9-7.8,13.5
																		c-4.5,7.9-8.9,15.8-13.4,23.7c-0.1,0.2,0.5,0,0.6-0.1c3.8-6.8,7.6-13.6,11.4-20.3c2.7-4.7,5.3-9.4,8-14.1
																		c0.9-1.6,1.8-3.2,2.8-4.7c0.8-1.4,1.7-3.2,2.9-4.4c0.1-0.1,0-0.3,0-0.3c-7.4-4.1-14.8-8.3-22.3-12.4
																		c-4.9-2.8-9.9-5.5-14.8-8.3c-2.2-1.2-4.3-2.4-6.5-3.6c-1.3-0.7-2.9-1.4-4-2.5c-0.6-0.2-0.7-0.6-0.3-1
																		c0.3-0.6,0.6-1.2,1-1.8c0.7-1.4,1.5-2.8,2.2-4.2c2.6-5,5.3-10,7.9-15.1c2.6-5,5.2-10,8-15c1.2-2.1,2.3-4.7,3.9-6.5
																		c0-0.1,0-0.3,0-0.3c-7.6-4.6-15.2-9.2-22.8-13.9c-5.6-3.4-11.1-6.7-16.7-10.1c-2-1.2-4.1-2.4-6.1-3.7
																		c-0.6-0.4-1.2-0.7-1.8-1.1c-0.6-0.4-1.1-0.7-1.7-1.1c-0.3-0.5,0-1,0.2-1.5c0.8-2.1,1.6-4.2,2.4-6.3
																		c1.9-5,3.8-10,5.6-15c3.3-8.8,6.6-17.5,9.9-26.3C846,712.2,845.4,712.5,845.3,712.6z"/>
																	<path class="st7" d="M845.5,713c-6.1,16.3-12.3,32.6-18.4,48.9v0.1c2.6,1.4,5,2.9,7.5,4.5
																		c5.9,3.6,11.8,7.2,17.7,10.8c8.2,5,16.4,10,24.6,15c-0.1-0.2-0.1-0.5-0.2-0.7c-1.1,2.5-2.6,4.8-4,7.2
																		c-2.8,5-5.4,10-8.1,15c-3.9,7.3-7.7,14.6-11.6,21.9v0.1c8.3,4.3,16.4,9.2,24.6,13.8c8,4.5,16,9,24,13.4
																		c-0.1-0.2-0.1-0.5-0.2-0.7c-1.1,2.5-2.8,4.8-4.2,7.2c-3,5-5.8,10-8.7,15.1c-4.2,7.3-8.3,14.7-12.5,22
																		c-0.1,0.2,0.6,0.1,0.7-0.1c3.8-6.8,7.6-13.6,11.4-20.4c2.6-4.7,5.3-9.4,7.9-14.1c0.9-1.6,1.8-3.2,2.7-4.8
																		c0.6-1.1,1.6-3.3,2.7-4.1c0.1-0.1,0-0.7-0.1-0.8c-7.4-4.1-14.8-8.3-22.2-12.4c-4.9-2.7-9.8-5.5-14.7-8.2
																		c-2.2-1.2-4.3-2.4-6.5-3.6c-1.2-0.7-2.7-1.3-3.8-2.2c-0.8-0.6-0.6-0.5-0.1-1.6c0.6-1.1,1.2-2.2,1.8-3.3
																		c2.5-4.7,4.9-9.4,7.4-14.1c2.8-5.2,5.5-10.4,8.3-15.7c0.9-1.6,1.7-3.3,2.6-4.9c0.6-1.1,1.5-3.2,2.5-4
																		c0.1-0.1-0.1-0.7-0.2-0.7c-7.6-4.6-15.2-9.2-22.8-13.8c-5-3-10-6.1-15.1-9.1c-2.2-1.3-4.4-2.7-6.6-4
																		c-1.3-0.8-2.8-1.5-4-2.6c-0.6-0.2-0.7-0.6-0.3-1c0.3-0.7,0.5-1.4,0.8-2.1c0.6-1.6,1.2-3.1,1.8-4.7
																		c2.1-5.6,4.2-11.2,6.3-16.8c3.1-8.1,6.1-16.3,9.2-24.4C846.3,712.6,845.6,712.8,845.5,713z"/>
																	<path class="st7" d="M846,712.9c-6.1,16.3-12.3,32.6-18.4,48.9c0,0,0,0.1,0.1,0.2c16.5,10.2,33.1,20.2,49.7,30.2
																		c0-0.1,0-0.3-0.1-0.4c-4.5,6.9-8.2,14.5-12,21.8c-3.9,7.3-7.7,14.6-11.6,21.9v0.2c16,9.4,32.3,18.2,48.5,27.3
																		c0-0.2-0.1-0.3-0.1-0.5c-4.1,5.9-7.5,12.3-11,18.6c-4.8,8.4-9.5,16.9-14.3,25.3c0,0.1,0.1,0.3,0.1,0.2
																		c3.5-6.2,7-12.5,10.6-18.7c2.4-4.3,4.9-8.6,7.3-12.9c1.3-2.2,2.5-4.4,3.8-6.6c0.6-1.1,1.3-2.1,2-3.2
																		c0.3-1,0.8-1.7,1.6-2.2c0.1-0.1,0-0.4-0.1-0.5c-6.9-3.8-13.7-7.7-20.5-11.5c-5-2.8-10-5.6-15-8.3
																		c-2.3-1.3-4.6-2.5-6.9-3.8c-0.7-0.4-1.5-0.8-2.2-1.2c-1.2-0.6-2.3-1.3-3.5-2c-0.1-0.1-0.1-0.2-0.2-0.4
																		c0.2-0.3,0.3-0.6,0.5-0.9c0.8-1.5,1.6-3,2.4-4.5c2.3-4.3,4.6-8.6,6.8-12.9c2.8-5.2,5.6-10.5,8.4-15.7
																		c0.9-1.6,1.8-3.2,2.7-4.8c0.6-1.1,1.6-3.4,2.7-4.2c0.1-0.1,0.1-0.4,0-0.5c-7.6-4.6-15.2-9.2-22.8-13.8
																		c-5.5-3.4-11.1-6.7-16.6-10c-2.1-1.2-4.2-2.5-6.2-3.7c-0.6-0.4-1.2-0.7-1.8-1.1c-0.6-0.4-1.2-0.7-1.8-1.1
																		c-0.3-0.5,0-0.9,0.2-1.4c0.8-2.1,1.6-4.2,2.4-6.3c1.9-5,3.8-10,5.6-15c3.3-8.8,6.6-17.5,9.9-26.3
																		C846.2,712.9,846.1,712.8,846,712.9z"/>
																	<path class="st7" d="M896.8,868.7c-7.2,12.3-14.1,24.7-21.2,37.1c-0.1,0.2,0.2,0.2,0.3,0
																		C882.9,893.5,889.8,881,896.8,868.7C897,868.7,896.8,868.6,896.8,868.7z"/>
																	<path class="st7" d="M844.8,713c-6.1,16.3-12.3,32.6-18.4,48.8c0,0,0,0.1,0.1,0.1c3.6,1.6,7,4.1,10.3,6.1
																		c5.6,3.4,11.1,6.7,16.7,10.1c7.6,4.6,15.2,9.3,22.9,13.9c0-0.1-0.1-0.2-0.1-0.4c-1.6,2.1-2.7,4.6-4,6.8
																		c-2.8,4.9-5.5,10-8.1,15c-3.9,7.3-7.7,14.6-11.6,21.9v0.1c3.5,1.6,6.8,3.7,10.1,5.6c5.4,3,10.8,6.1,16.3,9.1
																		c7.4,4.2,14.9,8.3,22.3,12.5c0-0.1-0.1-0.2-0.1-0.4c-1.7,2.1-2.9,4.6-4.3,6.8c-3,5-5.8,10-8.7,15.1
																		c-4.2,7.3-8.3,14.7-12.5,22c-0.1,0.2,0.6,0,0.7-0.2c3.8-6.7,7.6-13.5,11.4-20.3c2.7-4.7,5.3-9.4,8-14.1
																		c0.9-1.6,1.8-3.2,2.8-4.7c0.8-1.3,1.7-3.2,2.9-4.3c0.1-0.1,0-0.3-0.1-0.4c-6.9-3.8-13.7-7.7-20.6-11.5
																		c-5-2.8-10-5.6-15-8.4c-2.3-1.3-4.5-2.5-6.8-3.8c-1.4-0.8-3.4-1.6-4.6-2.6c-0.3-0.3-0.7-0.7-1-1
																		c0.2-0.3,0.3-0.6,0.5-0.9c0.8-1.5,1.6-3,2.4-4.5c2.3-4.3,4.5-8.6,6.8-12.9c2.8-5.2,5.5-10.5,8.3-15.7
																		c0.8-1.6,1.7-3.1,2.6-4.7c0.7-1.3,1.6-3.2,2.7-4.3c0.1-0.1,0-0.3-0.1-0.4c-7.6-4.6-15.2-9.2-22.8-13.9
																		c-5.6-3.4-11.1-6.7-16.7-10.1c-2-1.2-4.1-2.5-6.1-3.7c-0.6-0.4-1.2-0.7-1.7-1.1c-0.6-0.4-1.1-0.7-1.7-1.1
																		c-0.3-0.5,0-1,0.2-1.5c0.8-2.1,1.6-4.2,2.4-6.3c1.9-5,3.8-10,5.6-15c3.3-8.7,6.6-17.5,9.9-26.2
																		C845.6,712.6,844.9,712.9,844.8,713z"/>
																	<path class="st7" d="M845.2,713.5c-6.1,16.3-12.3,32.6-18.4,48.9v0.1c8.6,4.8,17,10.2,25.4,15.3
																		c8.2,5,16.4,10,24.7,15c-0.1-0.2-0.1-0.3-0.2-0.5c-1.5,2.2-2.8,4.5-4.1,6.8c-2.8,4.9-5.4,9.9-8.1,14.9
																		c-3.9,7.3-7.7,14.6-11.6,21.9c0,0,0,0.1,0.1,0.1c8.4,4.4,16.5,9.2,24.8,13.8c8,4.5,16,9,24,13.4
																		c0-0.1-0.1-0.3-0.1-0.4c-1.6,2.2-3,4.5-4.4,6.9c-3,5-5.8,10-8.7,15c-4.2,7.3-8.3,14.7-12.5,22
																		c-0.1,0.2,0.4,0.2,0.4,0.1c3.8-6.8,7.6-13.6,11.5-20.3c2.7-4.7,5.3-9.4,8-14.1c0.9-1.6,1.9-3.2,2.8-4.8
																		c0.6-1,1.8-3.5,3-4.2c0.1-0.1,0-0.4-0.1-0.5c-6.3-3.5-12.6-7-18.9-10.6c-9.1-5.1-18.4-10-27.4-15.2
																		c-0.5-0.2-0.9-0.5-1.3-0.9c-0.6-0.2-0.7-0.5-0.3-0.9c0.2-0.4,0.4-0.8,0.6-1.2c0.5-0.9,0.9-1.7,1.4-2.6
																		c2.2-4.2,4.4-8.3,6.6-12.5c2.5-4.8,5.1-9.6,7.7-14.4c1-1.8,2-3.7,3-5.5c0.7-1.3,1.4-2.6,2.2-3.8
																		c0.4-1,1.1-1.8,1.8-2.6c0.1-0.1,0-0.4-0.1-0.5c-7.6-4.6-15.2-9.2-22.8-13.8c-5.5-3.4-11.1-6.7-16.6-10.1
																		c-2.1-1.2-4.1-2.4-6.2-3.7c-0.6-0.4-1.2-0.7-1.8-1.1c-0.6-0.4-1.2-0.7-1.7-1.1c-0.3-0.6,0-0.9,0.2-1.5
																		c0.8-2.1,1.6-4.2,2.4-6.3c1.9-5,3.8-10,5.6-15c3.3-8.8,6.6-17.5,9.9-26.3C845.8,713.3,845.2,713.4,845.2,713.5z"/>
																	<path class="st7" d="M844.9,713.4c-6.1,16.3-12.3,32.6-18.4,48.8v0.1c2.6,1.3,5.1,3,7.6,4.5
																		c5.9,3.6,11.8,7.2,17.7,10.8c8.2,5,16.4,10,24.6,14.9c0-0.2-0.1-0.3-0.1-0.5c-1.5,2.2-2.7,4.6-4.1,6.9
																		c-2.8,4.9-5.5,10-8.1,15c-3.9,7.3-7.7,14.6-11.6,21.8v0.1c2.5,1.3,5,2.7,7.5,4.2c5.7,3.3,11.5,6.4,17.3,9.7
																		c8,4.5,16,9,24,13.4c-0.1-0.1-0.1-0.3-0.2-0.4c-1.6,2.2-2.9,4.6-4.3,6.9c-3,5-5.8,10-8.7,15
																		c-4.2,7.3-8.3,14.7-12.5,22c-0.1,0.2,0.6,0.1,0.6,0c3.8-6.8,7.6-13.6,11.4-20.4c2.6-4.7,5.3-9.4,8-14.1
																		c0.9-1.6,1.9-3.2,2.8-4.8c0.7-1.1,1.7-3.4,2.9-4.2c0.1-0.1,0-0.4-0.1-0.5c-6.9-3.8-13.7-7.7-20.6-11.5
																		c-5-2.8-10-5.6-15-8.4c-3.8-2.1-7.7-4.1-11.4-6.4c-0.4-0.3-1-0.4-1.1-1c0.3-0.5,0.6-1.1,0.8-1.6
																		c0.3-0.6,0.6-1.1,0.9-1.7c2.1-3.9,4.1-7.9,6.2-11.8c2.8-5.3,5.6-10.7,8.5-16c1-1.8,1.9-3.7,2.9-5.5
																		c0.7-1.3,1.4-2.5,2.1-3.7c0.5-1,1.1-1.8,1.8-2.6c0.1-0.1,0-0.4-0.1-0.5c-7.6-4.6-15.2-9.2-22.8-13.9
																		c-5.1-3.1-10.1-6.1-15.2-9.2c-2.2-1.3-4.4-2.7-6.6-4c-1.4-0.8-2.9-1.6-4.1-2.7c-0.6-0.3-0.7-0.6-0.4-1.1
																		c0.3-0.7,0.5-1.4,0.8-2.1c0.6-1.6,1.2-3.1,1.8-4.7c2.1-5.6,4.2-11.2,6.3-16.8c3.1-8.1,6.1-16.3,9.2-24.4
																		C845.6,713,845,713.2,844.9,713.4z"/>
																	<path class="st7" d="M899.2,864.9c-8.4,13.4-15.9,27.4-23.7,41.1c-0.1,0.2,0.3,0.1,0.4,0
																		c7.8-13.7,15.2-27.7,23.6-41.1C899.4,864.9,899.2,864.8,899.2,864.9z"/>
																</g>
															</g>
														</g>
													</g>
												</g>
											</g>
										</g>
									</g>
								</g>
							</g>
						</g>
					</g>
				</g>
			</g>
		</g>
	</g>
	<g id="XMLID_440_">
		<g>
			<g>
				<g>
					<path class="st7" d="M845.7,712.1c-15-7.8-30.1-15.6-45.1-23.4c-0.2-0.1-0.1,0.7,0.1,0.8c15,7.8,30.1,15.6,45.1,23.4
						C846,712.9,845.9,712.2,845.7,712.1z"/>
					<path class="st7" d="M845.8,711.5c-15-7.8-30.1-15.6-45.1-23.4c-0.2-0.1,0,0.7,0.2,0.8c15,7.9,30,15.6,45,23.4
						C846.2,712.4,846,711.6,845.8,711.5z"/>
					<path class="st7" d="M846,712c-15-7.8-30.1-15.6-45.1-23.4c-0.2-0.1,0,0.7,0.2,0.8c15,7.8,30,15.6,45.1,23.4
						C846.3,712.9,846.2,712.1,846,712z"/>
					<path class="st7" d="M846.4,712c-15-7.8-30.1-15.6-45.1-23.4c-0.2-0.1-0.2,0.3,0,0.4c15,7.8,30.1,15.6,45.1,23.4
						C846.6,712.5,846.5,712.1,846.4,712z"/>
					<path class="st7" d="M845.5,711.3c-15-7.8-30.1-15.6-45.1-23.4c-0.2-0.1-0.1,0.4,0,0.5c15,7.8,30.1,15.6,45.1,23.4
						C845.6,712,845.6,711.4,845.5,711.3z"/>
					<path class="st7" d="M845.4,711.9c-15-7.8-30.1-15.6-45.1-23.4c-0.2-0.1-0.1,0.6,0,0.7c15,7.8,30.1,15.6,45.1,23.4
						C845.6,712.6,845.6,712,845.4,711.9z"/>
					<path class="st7" d="M846.2,711.4c-15-7.8-30.1-15.6-45.1-23.4c-0.3-0.1-0.1,0.4,0.1,0.5c15,7.8,30.1,15.6,45.1,23.4
						C846.6,712.1,846.4,711.5,846.2,711.4z"/>
					<path class="st7" d="M845.6,712.4c-15-7.8-30.1-15.6-45.1-23.4c-0.2-0.1-0.3,0.2-0.1,0.3c15,7.8,30.1,15.6,45.1,23.4
						C845.6,712.8,845.7,712.5,845.6,712.4z"/>
					<path class="st7" d="M846,711.2c-15-7.8-30.1-15.6-45.1-23.4c-0.3-0.1-0.1,0.4,0,0.5c15,7.8,30.1,15.6,45.1,23.4
						C846.3,711.8,846.1,711.3,846,711.2z"/>
					<path class="st7" d="M845.3,711.6c-15-7.8-30.1-15.6-45.1-23.4c-0.2-0.1-0.2,0.4,0,0.5c15,7.8,30.1,15.6,45.1,23.4
						C845.5,712.1,845.4,711.7,845.3,711.6z"/>
				</g>
			</g>
		</g>
	</g>
</g>
<g id="XMLID_1_">
	<g>
		<g>
			<g>
				<path class="st7" d="M12,485.7c17-4.7,34-9.5,51-14.3c0.2-0.1-0.4-0.5-0.6-0.4c-17,4.7-34,9.5-51,14.3
					C11.2,485.4,11.8,485.8,12,485.7z"/>
				<path class="st7" d="M12.1,485.2c17-4.8,34-9.5,51-14.3c0.2-0.1-0.3-0.5-0.4-0.4c-17,4.8-34,9.5-51,14.3
					C11.4,484.9,11.9,485.3,12.1,485.2z"/>
				<path class="st7" d="M12.2,485.6c17-4.7,34-9.5,51-14.3c0.2-0.1-0.5-0.6-0.7-0.5c-17,4.7-34,9.5-50.9,14.2
					C11.4,485.2,12.1,485.7,12.2,485.6z"/>
				<path class="st7" d="M12.7,486.1c17-4.8,34-9.5,51-14.3c0.2-0.1-0.3-0.4-0.4-0.3c-17,4.7-34,9.5-51,14.3
					C12.1,485.8,12.5,486.1,12.7,486.1z"/>
				<path class="st7" d="M12.7,485.7c17-4.8,34-9.5,51-14.3c0.2-0.1-0.4-0.5-0.5-0.5c-17,4.7-34,9.5-50.9,14.2
					C11.9,485.3,12.5,485.8,12.7,485.7z"/>
				<path class="st7" d="M11.5,485.6c17-4.8,34-9.5,51-14.3c0.2-0.1,0-0.3-0.1-0.3c-17,4.8-34,9.5-51,14.3
					C11.2,485.4,11.4,485.6,11.5,485.6z"/>
				<path class="st7" d="M12.1,486.2c17-4.8,34-9.5,51-14.3c0.3-0.1-0.2-0.3-0.3-0.3c-17,4.8-34,9.5-51,14.3
					C11.5,486,12,486.2,12.1,486.2z"/>
				<path class="st7" d="M12.5,485.2c17-4.8,34-9.5,51-14.3c0.2-0.1-0.1-0.4-0.3-0.4c-17,4.8-34,9.5-51,14.3
					C12,484.9,12.4,485.2,12.5,485.2z"/>
				<path class="st7" d="M11.7,486c17-4.8,34-9.5,51-14.3c0.2-0.1-0.1-0.3-0.2-0.3c-17,4.8-34,9.5-51,14.3
					C11.2,485.8,11.6,486,11.7,486z"/>
				<path class="st7" d="M12.2,484.9c17-4.8,34-9.5,51-14.3c0.1,0,0.2-0.2,0.1-0.2c-17,4.8-34,9.5-51,14.3
					C12.2,484.8,12.1,485,12.2,484.9z"/>
			</g>
		</g>
	</g>
</g>
<g id="XMLID_10_">
	<g>
		<g>
			<g>
				<path class="st7" d="M-9.2,527c17-4.7,34-9.5,51-14.3c0.2-0.1-0.4-0.5-0.6-0.4c-17,4.7-34,9.5-51,14.3
					C-10,526.6-9.3,527-9.2,527z"/>
				<path class="st7" d="M-9.1,526.5c17-4.8,34-9.5,51-14.3c0.2-0.1-0.3-0.5-0.4-0.4c-17,4.8-34,9.5-51,14.3
					C-9.7,526.1-9.2,526.5-9.1,526.5z"/>
				<path class="st7" d="M-8.9,526.9c17-4.8,34-9.5,51-14.3c0.2-0.1-0.5-0.6-0.7-0.5c-17,4.7-34,9.5-50.9,14.2
					C-9.8,526.4-9.1,527-8.9,526.9z"/>
				<path class="st7" d="M-8.4,527.3c17-4.8,34-9.5,51-14.3c0.2-0.1-0.3-0.4-0.4-0.3c-17,4.7-34,9.5-51,14.3
					C-9.1,527.1-8.6,527.4-8.4,527.3z"/>
				<path class="st7" d="M-8.5,527c17-4.8,34-9.5,51-14.3c0.2-0.1-0.4-0.5-0.5-0.5c-17,4.7-34,9.5-50.9,14.2
					C-9.2,526.6-8.6,527-8.5,527z"/>
				<path class="st7" d="M-9.6,526.8c17-4.8,34-9.5,51-14.3c0.2-0.1,0-0.3-0.1-0.3c-17,4.8-34,9.5-51,14.3
					C-10,526.6-9.8,526.9-9.6,526.8z"/>
				<path class="st7" d="M-9,527.5c17-4.8,34-9.5,51-14.3c0.3-0.1-0.2-0.3-0.3-0.3c-17,4.8-34,9.5-51,14.3
					C-9.6,527.2-9.2,527.5-9,527.5z"/>
				<path class="st7" d="M-8.6,526.5c17-4.8,34-9.5,51-14.3c0.2-0.1-0.1-0.4-0.3-0.4c-17,4.8-34,9.5-51,14.3
					C-9.1,526.2-8.7,526.5-8.6,526.5z"/>
				<path class="st7" d="M-9.4,527.3c17-4.8,34-9.5,51-14.3c0.2-0.1-0.1-0.3-0.2-0.3c-17,4.8-34,9.5-51,14.3
					C-9.9,527-9.6,527.3-9.4,527.3z"/>
				<path class="st7" d="M-8.9,526.2c17-4.8,34-9.5,51-14.3c0.1,0,0.2-0.2,0.1-0.2c-17,4.8-34,9.5-51,14.3
					C-8.9,526-9.1,526.2-8.9,526.2z"/>
			</g>
		</g>
	</g>
</g>
<path id="XMLID_68_" class="st1" d="M201.9,708.7c-6.6,0.1-12.9,1.3-18.6,3.4c-5-19-25.1-32.9-49-32.6c-12.1,0.2-23.2,4-31.8,10.3
	c-8.7-6.1-19.9-9.6-32-9.4c-21.3,0.3-39.3,11.9-46.1,27.9c-1,0-2.1-0.1-3.1,0c-30.5,0.4-54.9,20.8-54.6,45.3s25.4,44.2,55.9,43.7
	c3.2,0,6.5-0.4,9.5-0.8c1.4,22.3,23.3,39.8,50.1,39.4c15.8-0.2,29.7-6.6,38.6-16.4c8.9,6.3,20.3,10.1,32.8,9.9
	c25.2-0.4,45.8-16.5,48.6-37.1c0.3,0,0.5,0,0.8,0c27.4-0.4,49.3-19.5,49-42.5S229.3,708.3,201.9,708.7z"/>
<g>
	<g>
		<path class="st6" d="M50.3,908.7L2.8,924.1c0,0-129.7-518.7,150.8-778.5c23.6-21.9,40-1.6,40-1.6
			C-74.4,385.2,50.3,908.7,50.3,908.7z"/>
		<g id="XMLID_3_">
			<line id="XMLID_1920_" class="st4" x1="145.9" y1="135.6" x2="185.4" y2="168.1"/>
			<path id="XMLID_1919_" class="st5" d="M207.4,129.5"/>
			<g id="XMLID_1916_">
				<g>
					<g>
						<g>
							<path class="st7" d="M177.8,166.4c-15.4,1.4-30.8,2.8-46.3,4.1c-0.2,0,0.3,0.6,0.5,0.6c15.4-1.4,30.8-2.8,46.3-4.1
								C178.5,167,177.9,166.4,177.8,166.4z"/>
							<path class="st7" d="M177.9,165.9c-15.4,1.4-30.8,2.8-46.3,4.1c-0.2,0,0.4,0.5,0.6,0.5c15.4-1.4,30.8-2.8,46.3-4.1
								C178.6,166.4,178,165.9,177.9,165.9z"/>
							<path class="st7" d="M178.1,166.4c-15.4,1.4-30.9,2.8-46.3,4.1c-0.2,0,0.3,0.6,0.5,0.5c15.4-1.4,30.8-2.8,46.3-4.1
								C178.8,166.9,178.3,166.3,178.1,166.4z"/>
							<path class="st7" d="M178.6,166.4c-15.4,1.4-30.9,2.8-46.3,4.1c-0.1,0-0.1,0.2,0,0.2c15.4-1.4,30.9-2.8,46.3-4.1
								C178.7,166.6,178.7,166.4,178.6,166.4z"/>
							<path class="st7" d="M177.5,165.7c-15.4,1.4-30.9,2.8-46.3,4.1c-0.3,0,0.1,0.4,0.2,0.4c15.4-1.4,30.9-2.8,46.3-4.1
								C178,166.1,177.6,165.7,177.5,165.7z"/>
							<path class="st7" d="M177.5,166.2c-15.4,1.4-30.8,2.8-46.3,4.1c-0.2,0,0.3,0.6,0.4,0.6c15.4-1.4,30.8-2.8,46.3-4.1
								C178.1,166.8,177.6,166.2,177.5,166.2z"/>
							<path class="st7" d="M178,167c-15.4,1.4-30.9,2.8-46.3,4.1c-0.1,0-0.2,0.2-0.1,0.2c15.4-1.4,30.9-2.8,46.3-4.1
								C177.9,167.1,178.1,166.9,178,167z"/>
							<path class="st7" d="M178.3,165.8c-15.4,1.4-30.9,2.8-46.3,4.1c-0.2,0,0,0.3,0.2,0.3c15.4-1.4,30.9-2.8,46.3-4.1
								C178.7,166.1,178.5,165.8,178.3,165.8z"/>
							<path class="st7" d="M177.6,166.7c-15.4,1.4-30.9,2.8-46.3,4.1c-0.2,0,0.1,0.4,0.2,0.4c15.4-1.4,30.9-2.8,46.3-4.1
								C178,167,177.7,166.6,177.6,166.7z"/>
							<path class="st7" d="M178,165.6c-15.4,1.4-30.9,2.8-46.3,4.1c-0.2,0,0,0.3,0.2,0.3c15.4-1.4,30.9-2.8,46.3-4.1
								C178.5,165.9,178.2,165.6,178,165.6z"/>
							<path class="st7" d="M177.3,166c-15.4,1.4-30.9,2.8-46.3,4.1c-0.2,0,0.1,0.4,0.3,0.4c15.4-1.4,30.9-2.8,46.3-4.1
								C177.8,166.3,177.4,166,177.3,166z"/>
						</g>
					</g>
				</g>
			</g>
			<g id="XMLID_1915_">
				<g>
					<g>
						<g>
							<path class="st7" d="M150.4,189.3c0.8-14.3,1.6-28.6,2.4-42.9c0-0.2-0.5,0.2-0.5,0.3c-0.8,14.3-1.6,28.6-2.4,42.9
								C149.8,189.8,150.4,189.4,150.4,189.3z"/>
							<path class="st7" d="M150.6,188.8c0.8-14.3,1.6-28.6,2.4-42.9c0-0.2-0.6,0.2-0.6,0.4c-0.8,14.3-1.6,28.6-2.4,42.9
								C149.9,189.3,150.6,188.9,150.6,188.8z"/>
							<path class="st7" d="M150.7,189.2c0.8-14.3,1.6-28.6,2.4-42.9c0-0.2-0.6,0.3-0.6,0.5c-0.9,14.3-1.6,28.6-2.4,42.9
								C150,189.8,150.7,189.3,150.7,189.2z"/>
							<path class="st7" d="M151.1,189.6c0.8-14.3,1.6-28.6,2.4-42.9c0-0.2-0.3-0.1-0.3,0.1c-0.8,14.3-1.6,28.6-2.4,42.9
								C150.8,189.8,151,189.7,151.1,189.6z"/>
							<path class="st7" d="M151.1,189.1c0.8-14.3,1.6-28.6,2.4-42.9c0-0.2-0.5,0.2-0.5,0.4c-0.8,14.3-1.6,28.6-2.4,42.9
								C150.6,189.7,151.1,189.3,151.1,189.1z"/>
							<path class="st7" d="M150.2,188.7c0.8-14.3,1.6-28.6,2.4-42.9c0-0.1-0.2-0.2-0.2-0.1c-0.8,14.3-1.6,28.6-2.4,42.9
								C149.9,188.7,150.1,188.8,150.2,188.7z"/>
							<path class="st7" d="M150,189.3c0.8-14.3,1.6-28.6,2.4-42.9c0-0.2-0.3-0.1-0.3,0c-0.8,14.3-1.6,28.6-2.4,42.9
								C149.7,189.5,150,189.4,150,189.3z"/>
							<path class="st7" d="M151,188.6c0.8-14.3,1.6-28.6,2.4-42.9c0-0.2-0.5,0.2-0.5,0.3c-0.8,14.3-1.6,28.6-2.4,42.9
								C150.5,189.1,151,188.8,151,188.6z"/>
							<path class="st7" d="M150.1,189.7c0.8-14.3,1.6-28.6,2.4-42.9c0-0.1-0.2-0.1-0.2-0.2c-0.8,14.3-1.6,28.6-2.4,42.9
								C149.9,189.6,150.1,189.7,150.1,189.7z"/>
							<path class="st7" d="M150.8,188.4c0.8-14.3,1.6-28.6,2.4-42.9c0-0.2-0.4,0-0.4,0.2c-0.8,14.3-1.6,28.6-2.4,42.9
								C150.4,188.8,150.8,188.6,150.8,188.4z"/>
						</g>
					</g>
				</g>
			</g>
			<line id="XMLID_1914_" class="st0" x1="216.2" y1="128.7" x2="161.1" y2="140.1"/>
			<line id="XMLID_1913_" class="st0" x1="190.1" y1="107.3" x2="189.7" y2="163.5"/>
			<path id="XMLID_1912_" class="st8" d="M114.1,102.9c-41-21.7-58.2-49.5-60-66.2c-0.6-5.6,47.5-9.4,88.5,12.3s61,62.1,60,66.2
				C201.5,119.8,155.2,124.6,114.1,102.9z"/>
			<path id="XMLID_1911_" class="st9" d="M136.5,61.6c30.5,16.1,49.4,42.6,56.6,56.8"/>
			<path id="XMLID_1910_" class="st9" d="M55.8,45.8c15.2-2.4,49.9-0.5,80.7,15.8"/>
			<path id="XMLID_1909_" class="st8" d="M218,198.9c27.9,37.1,58,49.7,74.8,48.8c5.6-0.3,1.8-48.4-26.1-85.5s-71-50.5-74.8-48.8
				C187.6,115.2,190.1,161.8,218,198.9z"/>
			<path id="XMLID_1908_" class="st9" d="M255.3,170.3c-20.7-27.6-49.8-42-65-47"/>
			<path id="XMLID_1907_" class="st9" d="M283.6,247.5c0-15.4-7.4-49.4-28.3-77.2"/>
			<line id="XMLID_1906_" class="st9" x1="274" y1="204.4" x2="261.9" y2="238.9"/>
			<line id="XMLID_1905_" class="st9" x1="255.3" y1="170.3" x2="236" y2="219.4"/>
			<line id="XMLID_1904_" class="st9" x1="232.4" y1="146.8" x2="213" y2="191.7"/>
			<line id="XMLID_1903_" class="st9" x1="207" y1="130.4" x2="196.2" y2="155.5"/>
			<line id="XMLID_1902_" class="st9" x1="99.9" y1="48.4" x2="67.8" y2="65.8"/>
			<line id="XMLID_1901_" class="st9" x1="136.5" y1="61.6" x2="91.1" y2="88.3"/>
			<g id="XMLID_1898_" class="st10">
				<g id="XMLID_1899_">
					<path id="XMLID_1900_" class="st11" d="M240.7,223.9l-6.8-6.6l-1.9-11.9l0,0L198.7,132c4.2,0.5,34.8,33.6,40.5,79.7
						L240.7,223.9z"/>
				</g>
			</g>
			<g id="XMLID_1894_" class="st12">
				<g id="XMLID_1895_">
					<g id="XMLID_1896_">
						<path id="XMLID_1897_" class="st13" d="M177.4,128l4.7,3.1l-9.9,32.9l-6.8,8.3C167.9,150.9,170.2,143.5,177.4,128"/>
					</g>
				</g>
			</g>
			<line id="XMLID_1893_" class="st9" x1="163.3" y1="80.5" x2="122.1" y2="106.7"/>
			<path id="XMLID_1892_" class="st8" d="M172.1,209.6c7.7,45.7,28.7,70.8,44,77.8c5.1,2.3,23.8-42.1,16.1-87.9
				c-7.7-45.7-39.8-77.4-44-77.8C183.5,121.3,164.4,163.8,172.1,209.6z"/>
			<path id="XMLID_1891_" class="st9" d="M218.3,201.3c-5.7-34-24.9-60.3-36.2-71.6"/>
			<path id="XMLID_1890_" class="st9" d="M208,282.9c7.1-13.7,16.1-47.3,10.4-81.6"/>
			<line id="XMLID_1889_" class="st9" x1="219.3" y1="240.3" x2="192.7" y2="265.2"/>
			<line id="XMLID_1888_" class="st9" x1="218.3" y1="201.3" x2="178.6" y2="236.1"/>
			<line id="XMLID_1887_" class="st9" x1="210.7" y1="173.9" x2="171.4" y2="205.4"/>
			<line id="XMLID_1886_" class="st9" x1="195.6" y1="146.1" x2="172.1" y2="164.5"/>
			<line id="XMLID_1885_" class="st9" x1="183.5" y1="103" x2="160.4" y2="117.6"/>
			<path id="XMLID_1884_" class="st14" d="M27.2,119.6"/>
			<path id="XMLID_1883_" class="st14" d="M111,150.8"/>
			<g id="XMLID_1881_" class="st10">
				<path id="XMLID_1882_" class="st11" d="M94.4,90.8c5.6-0.7,11.3-1,17.1-1c46.4,0.4,82.7,27.1,83.7,31.2l-87.9-22L94.4,90.8"/>
			</g>
			<g id="XMLID_1875_" class="st12">
				<g id="XMLID_1876_">
					<g id="XMLID_1877_">
						<path id="XMLID_1880_" class="st15" d="M188.7,137.6"/>
						<path id="XMLID_1879_" class="st15" d="M188.7,137.7"/>
						<path id="XMLID_1878_" class="st13" d="M177.3,135.3l-25.1,11.4l-7.2,8.1c11.9-3,22.8-7.2,31.6-11.5"/>
					</g>
				</g>
			</g>
			<path id="XMLID_1874_" class="st9" d="M210.3,133.2"/>
			<g id="XMLID_1866_">
				<path id="XMLID_1873_" class="st8" d="M115.1,154c-46.4-0.4-74.5-17.2-83.7-31.2c-3.1-4.7,37.9-30.2,84.3-29.8
					s82.7,27.1,83.7,31.2C200.5,128.8,161.5,154.4,115.1,154z"/>
				<path id="XMLID_1872_" class="st9" d="M116,107c34.5,0.3,63.4,15.1,76.4,24.4"/>
				<path id="XMLID_1871_" class="st9" d="M37,130.1c12.4-9.1,44.1-23.4,78.9-23.1"/>
				<line id="XMLID_1870_" class="st9" x1="77.4" y1="112.2" x2="56.9" y2="142.4"/>
				<line id="XMLID_1869_" class="st9" x1="116" y1="107" x2="87.9" y2="151.7"/>
				<line id="XMLID_1868_" class="st9" x1="148.5" y1="111.5" x2="123.9" y2="153.8"/>
				<line id="XMLID_1867_" class="st9" x1="176.7" y1="122.1" x2="162.9" y2="145.8"/>
			</g>
			<path id="XMLID_1865_" class="st14" d="M225.8,192.9"/>
			<path id="XMLID_1864_" class="st14" d="M203.4,106.4"/>
			<path id="XMLID_1863_" class="st14" d="M165.1,187.1"/>
			<path id="XMLID_1862_" class="st13" d="M179.4,135.6"/>
			<path id="XMLID_1861_" class="st13" d="M177,143.3"/>
			<line id="XMLID_1860_" class="st4" x1="179.4" y1="135.6" x2="177.6" y2="135.3"/>
			<g id="XMLID_1859_">
				<g>
					<g>
						<g>
							<path class="st7" d="M131,171.3c-1.9,16.6-3.8,33.2-5.7,49.8c0,0.2,0.7-0.3,0.7-0.5c2-16.6,3.8-33.2,5.7-49.8
								C131.8,170.7,131,171.1,131,171.3z"/>
							<path class="st7" d="M131.2,170.8c-1.9,16.6-3.8,33.2-5.7,49.8c0,0.2,0.5-0.2,0.5-0.3c1.9-16.6,3.8-33.2,5.7-49.8
								C131.7,170.3,131.2,170.6,131.2,170.8z"/>
							<path class="st7" d="M131.3,171.2c-1.9,16.6-3.8,33.2-5.7,49.8c0,0.2,0.7-0.2,0.7-0.4c1.9-16.6,3.8-33.2,5.7-49.8
								C132,170.6,131.4,171,131.3,171.2z"/>
							<path class="st7" d="M131.7,171.5c-1.9,16.6-3.8,33.2-5.7,49.8c0,0.1,0.2,0.2,0.2,0.1c1.9-16.6,3.8-33.2,5.7-49.8
								C131.9,171.5,131.7,171.4,131.7,171.5z"/>
							<path class="st7" d="M131.8,171.1c-1.9,16.6-3.8,33.2-5.7,49.8c0,0.2,0.3,0.2,0.3,0c1.9-16.6,3.8-33.2,5.7-49.8
								C132.1,171,131.8,171,131.8,171.1z"/>
							<path class="st7" d="M130.8,170.7c-1.9,16.6-3.8,33.2-5.7,49.8c0,0.1,0.2,0.1,0.3,0c1.9-16.6,3.8-33.2,5.7-49.8
								C131,170.5,130.8,170.5,130.8,170.7z"/>
							<path class="st7" d="M130.7,171.2c-1.9,16.6-3.8,33.2-5.7,49.8c0,0.2,0.6-0.3,0.6-0.4c1.9-16.6,3.8-33.2,5.7-49.8
								C131.3,170.6,130.7,171.1,130.7,171.2z"/>
							<path class="st7" d="M131,171.8c-1.9,16.6-3.8,33.2-5.7,49.8c0,0.2,0.5,0,0.5-0.2c1.9-16.6,3.8-33.2,5.7-49.8
								C131.6,171.4,131.1,171.6,131,171.8z"/>
							<path class="st7" d="M130.8,171.6c-1.9,16.6-3.8,33.2-5.7,49.8c0,0.2,0.6-0.2,0.6-0.4c1.9-16.6,3.8-33.2,5.7-49.8
								C131.4,171.1,130.8,171.4,130.8,171.6z"/>
							<path class="st7" d="M130.6,171c-1.9,16.6-3.8,33.2-5.7,49.8c0,0.2,0.3,0,0.3-0.1c1.9-16.6,3.8-33.2,5.7-49.8
								C130.9,170.6,130.6,170.8,130.6,171z"/>
						</g>
					</g>
				</g>
			</g>
			<g id="XMLID_933_">
				<g>
					<g>
						<g>
							<path class="st7" d="M103.4,201.9c15.7-3.9,31.3-7.8,47-11.7c0.2,0-0.4-0.5-0.6-0.4c-15.7,3.9-31.3,7.8-47,11.7
								C102.7,201.5,103.3,201.9,103.4,201.9z"/>
							<path class="st7" d="M103.6,201.4c15.7-3.9,31.3-7.8,47-11.7c0.2-0.1-0.3-0.5-0.4-0.4c-15.7,3.9-31.3,7.8-47,11.7
								C102.9,201,103.4,201.4,103.6,201.4z"/>
							<path class="st7" d="M103.7,201.8c15.7-3.9,31.3-7.9,47-11.7c0.2,0-0.5-0.6-0.7-0.5c-15.7,3.8-31.3,7.8-46.9,11.7
								C102.9,201.3,103.6,201.8,103.7,201.8z"/>
							<path class="st7" d="M104.2,202.2c15.7-3.9,31.3-7.8,47-11.7c0.2,0-0.3-0.4-0.4-0.3c-15.7,3.9-31.3,7.8-47,11.7
								C103.6,201.9,104,202.3,104.2,202.2z"/>
							<path class="st7" d="M104.2,201.9c15.7-3.9,31.3-7.8,47-11.7c0.2-0.1-0.4-0.5-0.5-0.5c-15.7,3.9-31.3,7.8-46.9,11.7
								C103.4,201.4,104,201.9,104.2,201.9z"/>
							<path class="st7" d="M103,201.7c15.7-3.9,31.3-7.8,47-11.7c0.2-0.1,0-0.3-0.2-0.3c-15.7,3.9-31.3,7.8-47,11.7
								C102.7,201.5,102.9,201.8,103,201.7z"/>
							<path class="st7" d="M103.6,202.4c15.7-3.9,31.3-7.8,47-11.7c0.3-0.1-0.2-0.3-0.3-0.3c-15.7,3.9-31.3,7.8-47,11.7
								C103,202.1,103.5,202.4,103.6,202.4z"/>
							<path class="st7" d="M104,201.4c15.7-3.9,31.3-7.8,47-11.7c0.2-0.1-0.1-0.4-0.3-0.4c-15.7,3.9-31.3,7.8-47,11.7
								C103.5,201,103.9,201.4,104,201.4z"/>
							<path class="st7" d="M103.2,202.2c15.7-3.9,31.3-7.8,47-11.7c0.2-0.1-0.1-0.3-0.2-0.3c-15.7,3.9-31.3,7.8-47,11.7
								C102.7,201.9,103.1,202.2,103.2,202.2z"/>
							<path class="st7" d="M103.7,201.1c15.7-3.9,31.3-7.8,47-11.7c0.1,0,0.2-0.2,0.1-0.2c-15.7,3.9-31.3,7.8-47,11.7
								C103.7,200.9,103.6,201.1,103.7,201.1z"/>
						</g>
					</g>
				</g>
			</g>
		</g>
	</g>
	<g>
		<g>
			<g>
				<path class="st7" d="M102.2,202c0.4,18.5,0.9,37,1.3,55.6c0,0.2,0.6-0.4,0.6-0.6c-0.4-18.5-0.9-37-1.3-55.5
					C102.9,201.2,102.2,201.8,102.2,202z"/>
				<path class="st7" d="M102.4,201.4c0.4,18.5,0.9,37,1.3,55.6c0,0.2,0.4-0.2,0.4-0.3c-0.4-18.5-0.9-37-1.3-55.6
					C102.8,200.9,102.4,201.3,102.4,201.4z"/>
				<path class="st7" d="M102.5,201.9c0.4,18.5,0.9,37,1.3,55.5c0,0.2,0.6-0.3,0.6-0.5c-0.4-18.5-0.9-37-1.3-55.5
					C103.2,201.2,102.5,201.7,102.5,201.9z"/>
				<path class="st7" d="M102.9,202.2c0.4,18.5,0.9,37,1.3,55.6c0,0.2,0.3,0.2,0.3,0c-0.4-18.5-0.9-37-1.3-55.6
					C103.1,202.1,102.8,202.1,102.9,202.2z"/>
				<path class="st7" d="M103,201.8c0.4,18.5,0.9,37,1.3,55.6c0,0.2,0.3,0.1,0.3,0c-0.4-18.5-0.9-37-1.3-55.6
					C103.3,201.6,103,201.6,103,201.8z"/>
				<path class="st7" d="M102,201.3c0.4,18.5,0.9,37.1,1.3,55.6c0,0.1,0.2,0.1,0.2,0c-0.4-18.5-0.9-37-1.3-55.5
					C102.2,201.2,102,201.1,102,201.3z"/>
				<path class="st7" d="M101.9,201.9c0.4,18.5,0.9,37,1.3,55.5c0,0.2,0.5-0.3,0.5-0.5c-0.4-18.5-0.9-37-1.3-55.5
					C102.4,201.2,101.9,201.7,101.9,201.9z"/>
				<path class="st7" d="M102.2,202.4c0.4,18.5,0.9,37,1.3,55.6c0,0.2,0.5-0.1,0.5-0.3c-0.4-18.5-0.9-37-1.3-55.6
					C102.7,202,102.2,202.3,102.2,202.4z"/>
				<path class="st7" d="M102,202.3c0.4,18.5,0.9,37,1.3,55.6c0,0.2,0.5-0.3,0.5-0.4c-0.4-18.5-0.9-37-1.3-55.5
					C102.5,201.7,102,202.1,102,202.3z"/>
				<path class="st7" d="M101.8,201.6c0.4,18.5,0.9,37,1.3,55.6c0,0.2,0.3,0,0.3-0.2c-0.4-18.5-0.9-37-1.3-55.6
					C102.1,201.3,101.8,201.5,101.8,201.6z"/>
			</g>
		</g>
	</g>
	<g>
		<g>
			<g>
				<path class="st7" d="M103.5,256.5c-14.4,2.8-28.8,5.6-43.1,8.4c-0.2,0,0.4,0.6,0.5,0.5c14.4-2.8,28.8-5.6,43.1-8.4
					C104.3,257,103.7,256.5,103.5,256.5z"/>
				<path class="st7" d="M103.6,256c-14.4,2.8-28.8,5.6-43.2,8.4c-0.2,0,0.4,0.5,0.6,0.4c14.4-2.8,28.8-5.6,43.1-8.4
					C104.4,256.4,103.8,256,103.6,256z"/>
				<path class="st7" d="M103.9,256.5c-14.4,2.8-28.8,5.6-43.2,8.3c-0.2,0,0.4,0.5,0.6,0.5c14.4-2.8,28.8-5.6,43.1-8.4
					C104.6,256.9,104,256.4,103.9,256.5z"/>
				<path class="st7" d="M104.4,256.5c-14.4,2.8-28.8,5.6-43.2,8.4c-0.1,0-0.1,0.2,0,0.2c14.4-2.8,28.8-5.6,43.2-8.4
					C104.5,256.7,104.5,256.5,104.4,256.5z"/>
				<path class="st7" d="M103.2,255.9c-14.4,2.8-28.8,5.6-43.2,8.4c-0.3,0.1,0.1,0.4,0.3,0.4c14.4-2.8,28.8-5.6,43.2-8.4
					C103.8,256.2,103.4,255.9,103.2,255.9z"/>
				<path class="st7" d="M103.2,256.4c-14.4,2.8-28.8,5.6-43.1,8.4c-0.2,0,0.3,0.5,0.5,0.5c14.4-2.8,28.8-5.6,43.1-8.4
					C103.9,256.8,103.4,256.3,103.2,256.4z"/>
				<path class="st7" d="M103.7,257c-14.4,2.8-28.8,5.6-43.2,8.4c-0.1,0-0.2,0.2-0.1,0.2c14.4-2.8,28.8-5.6,43.2-8.4
					C103.8,257.2,103.9,257,103.7,257z"/>
				<path class="st7" d="M104.1,256c-14.4,2.8-28.8,5.6-43.2,8.4c-0.2,0,0,0.3,0.2,0.3c14.4-2.8,28.8-5.6,43.2-8.4
					C104.5,256.2,104.3,255.9,104.1,256z"/>
				<path class="st7" d="M103.3,256.8c-14.4,2.8-28.8,5.6-43.2,8.4c-0.2,0,0.1,0.4,0.3,0.4c14.4-2.8,28.8-5.6,43.2-8.4
					C103.8,257.1,103.5,256.7,103.3,256.8z"/>
				<path class="st7" d="M103.8,255.7c-14.4,2.8-28.8,5.6-43.2,8.4c-0.2,0,0,0.3,0.2,0.3c14.4-2.8,28.8-5.6,43.2-8.4
					C104.2,256,104,255.7,103.8,255.7z"/>
				<path class="st7" d="M103,256.1c-14.4,2.8-28.8,5.6-43.2,8.4c-0.2,0,0.2,0.4,0.3,0.4c14.4-2.8,28.8-5.6,43.2-8.4
					C103.6,256.4,103.2,256.1,103,256.1z"/>
			</g>
		</g>
	</g>
	<g>
		<g>
			<g>
				<path class="st7" d="M56.6,270.9c5.3,17.5,10.7,34.9,16.1,52.4c0.1,0.2,0.5-0.5,0.4-0.7c-5.3-17.5-10.7-34.9-16.1-52.4
					C57,270.1,56.5,270.7,56.6,270.9z"/>
				<path class="st7" d="M56.8,270.3c5.3,17.5,10.7,34.9,16.1,52.4c0.1,0.3,0.4-0.1,0.3-0.2c-5.4-17.5-10.8-35-16.1-52.5
					C57,269.7,56.7,270.1,56.8,270.3z"/>
				<path class="st7" d="M56.9,270.8c5.3,17.5,10.7,34.9,16.1,52.4c0.1,0.2,0.5-0.4,0.5-0.6c-5.3-17.5-10.7-34.9-16.1-52.4
					C57.3,270,56.9,270.6,56.9,270.8z"/>
				<path class="st7" d="M57.2,271.2c5.3,17.5,10.7,34.9,16.1,52.4c0.1,0.2,0.3,0,0.3-0.2c-5.4-17.5-10.7-34.9-16.1-52.4
					C57.4,270.9,57.1,271.1,57.2,271.2z"/>
				<path class="st7" d="M57.3,270.7c5.3,17.5,10.7,34.9,16.1,52.4c0.1,0.2,0.3,0,0.3-0.1c-5.4-17.5-10.7-34.9-16.1-52.4
					C57.5,270.4,57.2,270.6,57.3,270.7z"/>
				<path class="st7" d="M56.3,270.8c5.3,17.5,10.7,34.9,16.1,52.4c0.1,0.2,0.4-0.4,0.3-0.6c-5.4-17.5-10.7-34.9-16.1-52.4
					C56.6,270.1,56.3,270.7,56.3,270.8z"/>
				<path class="st7" d="M56.6,271.4c5.3,17.5,10.7,34.9,16.1,52.4c0.1,0.2,0.4-0.3,0.4-0.4C67.7,306,62.4,288.5,57,271
					C56.9,270.8,56.6,271.3,56.6,271.4z"/>
				<path class="st7" d="M56.4,271.2c5.3,17.5,10.7,34.9,16.1,52.4c0.1,0.2,0.4-0.4,0.4-0.5c-5.3-17.5-10.7-34.9-16.1-52.4
					C56.7,270.5,56.3,271.1,56.4,271.2z"/>
				<path class="st7" d="M56.1,270.5c5.4,17.5,10.7,34.9,16.1,52.4c0,0.1,0.3,0,0.2-0.1c-5.4-17.5-10.7-34.9-16.1-52.4
					C56.3,270.3,56.1,270.4,56.1,270.5z"/>
			</g>
		</g>
	</g>
	<g>
		<g>
			<g>
				<path class="st7" d="M72.4,322.3C56.2,328.2,40,334.2,23.8,340c-0.2,0.1,0.5,0.5,0.6,0.4c16.2-5.9,32.4-11.8,48.6-17.7
					C73.2,322.7,72.6,322.2,72.4,322.3z"/>
				<path class="st7" d="M72.5,321.8c-16.2,5.9-32.4,11.8-48.6,17.7c-0.2,0.1,0.5,0.4,0.7,0.3c16.2-5.9,32.4-11.8,48.6-17.7
					C73.3,322.1,72.7,321.8,72.5,321.8z"/>
				<path class="st7" d="M72.7,322.2c-16.2,5.9-32.4,11.9-48.6,17.8c-0.2,0.1,0.5,0.5,0.6,0.4c16.2-5.9,32.4-11.8,48.6-17.7
					C73.5,322.6,72.9,322.2,72.7,322.2z"/>
				<path class="st7" d="M73.3,322.3c-16.2,5.9-32.4,11.8-48.6,17.7c-0.1,0-0.1,0.3,0,0.2c16.2-5.9,32.4-11.8,48.6-17.8
					C73.3,322.5,73.4,322.2,73.3,322.3z"/>
				<path class="st7" d="M72.1,321.7c-16.2,5.9-32.4,11.8-48.6,17.8c-0.3,0.1,0.2,0.3,0.3,0.3C40,333.9,56.2,328,72.4,322
					C72.6,321.9,72.2,321.6,72.1,321.7z"/>
				<path class="st7" d="M72.1,322.2c-16.2,5.9-32.4,11.9-48.6,17.7c-0.2,0.1,0.4,0.5,0.6,0.4c16.2-5.9,32.4-11.8,48.6-17.7
					C72.8,322.5,72.2,322.1,72.1,322.2z"/>
				<path class="st7" d="M72.6,322.8c-16.2,5.9-32.4,11.8-48.6,17.8c-0.1,0-0.1,0.3,0,0.2c16.2-5.9,32.4-11.8,48.6-17.8
					C72.7,323,72.7,322.7,72.6,322.8z"/>
				<path class="st7" d="M73,321.7c-16.2,5.9-32.4,11.8-48.6,17.8c-0.2,0.1,0,0.3,0.1,0.2c16.2-5.9,32.4-11.8,48.6-17.8
					C73.3,321.9,73.2,321.7,73,321.7z"/>
				<path class="st7" d="M72.2,322.5c-16.2,5.9-32.4,11.8-48.6,17.8c-0.2,0.1,0.2,0.4,0.4,0.4c16.2-5.9,32.4-11.8,48.6-17.8
					C72.8,322.8,72.3,322.5,72.2,322.5z"/>
				<path class="st7" d="M72.7,321.5c-16.2,5.9-32.4,11.8-48.6,17.8c-0.2,0.1,0,0.3,0.2,0.2c16.2-5.9,32.4-11.8,48.6-17.8
					C73.1,321.7,72.9,321.5,72.7,321.5z"/>
				<path class="st7" d="M71.9,321.9c-16.2,5.9-32.4,11.8-48.6,17.7c-0.2,0.1,0.3,0.4,0.4,0.3c16.2-5.9,32.4-11.8,48.6-17.8
					C72.5,322.1,72,321.8,71.9,321.9z"/>
			</g>
		</g>
	</g>
	<g>
		<g>
			<g>
				<path class="st7" d="M125.3,220.3c-16.2,5.2-32.3,10.4-48.5,15.5c-0.2,0.1,0.5,0.5,0.6,0.5c16.2-5.1,32.3-10.3,48.5-15.5
					C126.1,220.7,125.5,220.2,125.3,220.3z"/>
				<path class="st7" d="M125.4,219.8c-16.2,5.2-32.3,10.4-48.5,15.5c-0.2,0.1,0.5,0.4,0.7,0.3c16.2-5.1,32.3-10.3,48.5-15.5
					C126.2,220.1,125.6,219.8,125.4,219.8z"/>
				<path class="st7" d="M125.6,220.2c-16.2,5.1-32.4,10.3-48.5,15.5c-0.2,0.1,0.4,0.5,0.6,0.4c16.2-5.2,32.3-10.3,48.5-15.5
					C126.4,220.6,125.8,220.2,125.6,220.2z"/>
				<path class="st7" d="M126.2,220.3c-16.2,5.2-32.4,10.3-48.5,15.5c-0.1,0-0.1,0.2,0,0.2c16.2-5.2,32.4-10.3,48.5-15.5
					C126.2,220.5,126.3,220.2,126.2,220.3z"/>
				<path class="st7" d="M125,219.6c-16.2,5.2-32.4,10.3-48.5,15.5c-0.3,0.1,0.2,0.4,0.3,0.3c16.2-5.2,32.4-10.3,48.5-15.5
					C125.6,219.9,125.1,219.6,125,219.6z"/>
				<path class="st7" d="M125,220.1c-16.2,5.2-32.3,10.4-48.5,15.5c-0.2,0.1,0.4,0.5,0.6,0.4c16.2-5.1,32.3-10.3,48.5-15.5
					C125.7,220.5,125.1,220.1,125,220.1z"/>
				<path class="st7" d="M125.5,220.8c-16.2,5.2-32.4,10.3-48.5,15.5c-0.1,0-0.1,0.3,0,0.2c16.2-5.2,32.4-10.3,48.5-15.5
					C125.6,221,125.7,220.7,125.5,220.8z"/>
				<path class="st7" d="M125.9,219.7c-16.2,5.2-32.4,10.3-48.5,15.5c-0.2,0.1,0,0.3,0.1,0.2c16.2-5.2,32.4-10.3,48.5-15.5
					C126.2,219.9,126.1,219.7,125.9,219.7z"/>
				<path class="st7" d="M125.1,220.5c-16.2,5.2-32.4,10.3-48.5,15.5c-0.2,0.1,0.2,0.4,0.3,0.4c16.2-5.2,32.4-10.3,48.5-15.5
					C125.7,220.8,125.2,220.5,125.1,220.5z"/>
				<path class="st7" d="M125.6,219.5c-16.2,5.2-32.4,10.3-48.5,15.5c-0.2,0.1,0,0.3,0.2,0.2c16.2-5.2,32.4-10.3,48.5-15.5
					C126,219.7,125.8,219.4,125.6,219.5z"/>
				<path class="st7" d="M124.8,219.9c-16.2,5.2-32.4,10.3-48.5,15.5c-0.2,0.1,0.2,0.4,0.4,0.3c16.2-5.2,32.4-10.3,48.5-15.5
					C125.4,220.1,124.9,219.8,124.8,219.9z"/>
			</g>
		</g>
	</g>
	<g>
		<g>
			<g>
				<path class="st7" d="M77,236.8c3.4,17.5,6.9,35,10.3,52.6c0,0.2,0.5-0.4,0.5-0.6c-3.4-17.5-6.9-35-10.3-52.5
					C77.4,236,76.9,236.6,77,236.8z"/>
				<path class="st7" d="M77.1,236.2c3.4,17.5,6.9,35,10.3,52.6c0.1,0.3,0.4-0.1,0.3-0.2c-3.4-17.5-6.9-35-10.3-52.6
					C77.4,235.6,77.1,236,77.1,236.2z"/>
				<path class="st7" d="M77.3,236.7c3.4,17.5,6.9,35,10.3,52.6c0,0.2,0.6-0.4,0.5-0.6c-3.4-17.5-6.9-35-10.3-52.5
					C77.8,235.9,77.2,236.5,77.3,236.7z"/>
				<path class="st7" d="M77.6,237.1c3.4,17.5,6.9,35,10.3,52.6c0,0.2,0.3,0,0.3-0.1c-3.4-17.5-6.9-35-10.3-52.6
					C77.8,236.8,77.5,237,77.6,237.1z"/>
				<path class="st7" d="M77.7,236.6c3.4,17.5,6.9,35,10.3,52.6c0,0.2,0.3,0.1,0.3-0.1c-3.4-17.5-6.9-35-10.3-52.6
					C77.9,236.3,77.6,236.5,77.7,236.6z"/>
				<path class="st7" d="M76.7,236.1c3.4,17.5,6.9,35,10.3,52.6l0.2,0.1c-3.4-17.5-6.9-35-10.3-52.6C76.9,236.1,76.7,236,76.7,236.1
					z"/>
				<path class="st7" d="M76.7,236.7c3.4,17.5,6.9,35,10.3,52.6c0,0.2,0.4-0.4,0.4-0.5c-3.4-17.5-6.9-35-10.3-52.6
					C77,236,76.6,236.6,76.7,236.7z"/>
				<path class="st7" d="M77,237.3c3.4,17.5,6.9,35,10.3,52.6c0,0.2,0.5-0.2,0.4-0.4c-3.4-17.5-6.9-35-10.3-52.6
					C77.4,236.7,77,237.1,77,237.3z"/>
				<path class="st7" d="M76.7,237.1c3.4,17.5,6.9,35,10.3,52.6c0,0.2,0.5-0.3,0.4-0.5c-3.4-17.5-6.9-35-10.3-52.5
					C77.1,236.4,76.7,237,76.7,237.1z"/>
				<path class="st7" d="M76.5,236.4c3.4,17.5,6.9,35,10.3,52.6c0,0.2,0.3,0,0.2-0.1c-3.4-17.5-6.9-35-10.3-52.6
					C76.7,236.1,76.5,236.3,76.5,236.4z"/>
			</g>
		</g>
	</g>
	<g>
		<g>
			<g>
				<path class="st7" d="M87.1,288.4c-17,7.3-33.9,14.6-50.9,21.9c-0.2,0.1,0.5,0.5,0.7,0.4c16.9-7.3,33.9-14.6,50.8-21.9
					C87.9,288.8,87.2,288.4,87.1,288.4z"/>
				<path class="st7" d="M87.2,287.9c-17,7.3-33.9,14.6-50.9,21.9c-0.2,0.1,0.5,0.3,0.7,0.3c16.9-7.3,33.9-14.6,50.8-21.9
					C88,288.2,87.3,287.9,87.2,287.9z"/>
				<path class="st7" d="M87.4,288.4c-17,7.3-33.9,14.6-50.9,21.9c-0.2,0.1,0.5,0.4,0.6,0.4c17-7.3,33.9-14.6,50.9-21.9
					C88.2,288.6,87.6,288.3,87.4,288.4z"/>
				<path class="st7" d="M88,288.4c-17,7.3-33.9,14.6-50.9,21.9c-0.1,0-0.1,0.3,0,0.2c17-7.3,33.9-14.6,50.9-21.9
					C88,288.6,88.1,288.4,88,288.4z"/>
				<path class="st7" d="M86.7,287.8c-17,7.3-33.9,14.6-50.9,21.9c-0.3,0.1,0.2,0.3,0.3,0.3c17-7.3,33.9-14.6,50.9-21.9
					C87.3,287.9,86.9,287.7,86.7,287.8z"/>
				<path class="st7" d="M86.7,288.3c-17,7.3-33.9,14.6-50.9,21.9c-0.2,0.1,0.4,0.4,0.6,0.4c16.9-7.3,33.9-14.6,50.8-21.9
					C87.5,288.6,86.9,288.2,86.7,288.3z"/>
				<path class="st7" d="M87.3,288.9c-17,7.3-33.9,14.6-50.9,21.9c-0.1,0.1-0.1,0.3,0,0.2c17-7.3,33.9-14.6,50.9-21.9
					C87.4,289.1,87.4,288.8,87.3,288.9z"/>
				<path class="st7" d="M87.7,287.8c-17,7.3-33.9,14.6-50.9,21.9c-0.1,0.1,0,0.3,0.1,0.2c17-7.3,33.9-14.6,50.9-21.9
					C88,288,87.9,287.8,87.7,287.8z"/>
				<path class="st7" d="M86.9,288.6c-17,7.3-33.9,14.6-50.9,21.9c-0.2,0.1,0.3,0.4,0.4,0.4c17-7.3,33.9-14.6,50.9-21.9
					C87.5,288.9,87,288.6,86.9,288.6z"/>
				<path class="st7" d="M87.4,287.6c-17,7.3-33.9,14.6-50.9,21.9c-0.2,0.1,0,0.3,0.2,0.2c17-7.3,33.9-14.6,50.9-21.9
					C87.7,287.8,87.5,287.6,87.4,287.6z"/>
				<path class="st7" d="M86.5,288c-17,7.3-33.9,14.6-50.9,21.9c-0.2,0.1,0.3,0.3,0.4,0.3c17-7.3,33.9-14.6,50.9-21.9
					C87.1,288.2,86.7,288,86.5,288z"/>
			</g>
		</g>
	</g>
</g>
<path id="XMLID_4_" class="st1" d="M834.7,238.5c-6.6,0.1-12.9,1.3-18.6,3.4c-5-19-25.1-32.9-49-32.6c-12.1,0.2-23.2,4-31.8,10.3
	c-8.7-6.1-19.9-9.6-32-9.4c-21.3,0.3-39.3,11.9-46.1,27.9c-1,0-2.1-0.1-3.1,0c-30.5,0.4-54.9,20.8-54.6,45.3s25.4,44.2,55.9,43.7
	c3.2,0,6.5-0.4,9.5-0.8c1.4,22.3,23.3,39.8,50.1,39.4c15.8-0.2,29.7-6.6,38.6-16.4c8.9,6.3,20.3,10.1,32.8,9.9
	c25.2-0.4,45.8-16.5,48.6-37.1c0.3,0,0.5,0,0.8,0c27.4-0.4,49.3-19.5,49-42.5S862.1,238.1,834.7,238.5z"/>
<path id="XMLID_74_" class="st3" d="M201.8,698.4c-6.6,0.1-12.9,1.3-18.6,3.4c-5-19-25.1-32.9-49-32.6c-12.1,0.2-23.2,4-31.8,10.3
	c-8.7-6.1-19.9-9.6-32-9.4C49.1,670.4,31.1,682,24.3,698c-1,0-2.1-0.1-3.1,0c-30.5,0.4-54.9,20.8-54.6,45.3
	C-33,767.9-8,787.5,22.5,787c3.2,0,6.5-0.4,9.5-0.8c1.4,22.3,23.3,39.8,50.1,39.4c15.8-0.2,29.7-6.6,38.6-16.4
	c8.9,6.3,20.3,10.1,32.8,9.9c25.2-0.4,45.8-16.5,48.6-37.1c0.3,0,0.5,0,0.8,0c27.4-0.4,49.3-19.5,49-42.5
	C251.5,716.5,229.1,698,201.8,698.4z"/>
<path id="XMLID_2_" class="st3" d="M834.6,228.2c-6.6,0.1-12.9,1.3-18.6,3.4c-5-19-25.1-32.9-49-32.6c-12.1,0.2-23.2,4-31.8,10.3
	c-8.7-6.1-19.9-9.6-32-9.4c-21.3,0.3-39.3,11.9-46.1,27.9c-1,0-2.1-0.1-3.1,0c-30.5,0.4-54.9,20.8-54.6,45.3
	c0.4,24.6,25.4,44.2,55.9,43.7c3.2,0,6.5-0.4,9.5-0.8c1.4,22.3,23.3,39.8,50.1,39.4c15.8-0.2,29.7-6.6,38.6-16.4
	c8.9,6.3,20.3,10.1,32.8,9.9c25.2-0.4,45.8-16.5,48.6-37.1c0.3,0,0.5,0,0.8,0c27.4-0.4,49.3-19.5,49-42.5
	C884.3,246.3,861.9,227.8,834.6,228.2z"/>
</svg>
