<svg xmlns="http://www.w3.org/2000/svg" x="0" y="0" viewBox="0 0 768 1024" style="baseProfile:basic;version:1.1">
  <style type="text/css">
    
	.st0{fill:none;}
	.st1{fill:none;stroke:#000000;stroke-miterlimit:10;}
	.st2{fill:#FCBF04;}
	.st3{opacity:0.1091;fill:#E87325;}
	.st4{fill:none;stroke:#FFFFFF;stroke-miterlimit:10;}
	.st5{fill:#067987;}
	.st6{fill:none;stroke:#FCBF04;stroke-miterlimit:10;}
	.st7{opacity:0.8;}
	.st8{fill:#10656B;}
	.st9{opacity:0.5;}
	.st10{fill:#DBA91F;}
	.st11{opacity:0.53;fill:none;stroke:#10656B;stroke-miterlimit:10;}
	.st12{fill:none;stroke:#DBA91F;stroke-miterlimit:10;}
	.st13{fill:#FFC900;}
	.st14{opacity:0.4;}
	.st15{fill:#EB8541;}
	.st16{fill:#BA642A;}
	.st17{fill:#FFFFFF;}
	.st18{font-family:&#39;MontserratAlternates-Regular&#39;;}
	.st19{font-size:32px;}
	.st20{fill:#E87325;}
	.st21{fill:#076A72;}
	.st22{fill:#FCF74C;}
	.st23{fill-rule:evenodd;clip-rule:evenodd;fill:#FCF74C;}

  </style>
  <g>
    <line class="st0" x1="323" y1="155" x2="343" y2="159"/>
    <path class="st1" d=""/>
    <g>
      <path class="st2" d="M322 278c2-45 8-94 22-133 1-2-2-4-4-4l-3 0c-2 0-3 2-4 4 -16 37-23 86-27 133"/>
    </g>
    <g>
      <path class="st3" d="M339 160c-5 3-10 7-15 10 0 0 1 0 1 0 5-3 10-7 15-10C340 160 339 159 339 160z"/>
      <path class="st3" d="M339 159c-5 3-10 7-15 10 0 0 1 0 1 0 5-3 10-7 15-10C340 159 339 159 339 159z"/>
      <path class="st3" d="M339 159c-5 3-10 7-15 10 0 0 1 0 1 0 5-3 10-7 15-10C340 160 340 159 339 159z"/>
      <path class="st3" d="M340 159c-5 3-10 7-15 10 0 0 0 0 0 0 5-3 10-7 15-10C340 160 340 159 340 159z"/>
      <path class="st3" d="M339 159c-5 3-10 7-15 10 0 0 0 0 0 0 5-3 10-7 15-10C339 159 339 159 339 159z"/>
      <path class="st3" d="M339 159c-5 3-10 7-15 10 0 0 1 0 1 0 5-3 10-7 15-10C340 160 339 159 339 159z"/>
      <path class="st3" d="M339 160c-5 3-10 7-15 10 0 0 0 0 0 0 5-3 10-7 15-10C340 160 339 160 339 160z"/>
      <path class="st3" d="M340 159c-5 3-10 7-15 10 0 0 0 0 0 0 5-3 10-7 15-10C340 159 340 159 340 159z"/>
      <path class="st3" d="M339 160c-5 3-10 7-15 10 0 0 0 0 0 0 5-3 10-7 15-10C340 160 339 160 339 160z"/>
      <path class="st3" d="M339 159c-5 3-10 7-15 10 0 0 0 0 0 0 5-3 10-7 15-10C340 159 340 159 339 159z"/>
      <path class="st3" d="M339 159c-5 3-10 7-15 10 0 0 0 0 0 0 5-3 10-7 15-10C339 159 339 159 339 159z"/>
    </g>
    <g>
      <path class="st3" d="M335 172c-2-5-5-10-7-15 0 0 0 0 0 1 2 5 5 10 7 15C335 173 335 172 335 172z"/>
      <path class="st3" d="M335 171c-2-5-5-10-7-15 0 0 0 1 0 1 2 5 5 10 7 15C335 172 335 171 335 171z"/>
      <path class="st3" d="M335 172c-2-5-5-10-7-15 0 0 0 1 0 1 2 5 5 10 7 15C335 173 335 172 335 172z"/>
      <path class="st3" d="M336 172c-2-5-5-10-7-15 0 0 0 0 0 0 2 5 5 10 7 15C335 172 336 172 336 172z"/>
      <path class="st3" d="M336 172c-2-5-5-10-7-15 0 0 0 0 0 0 2 5 5 10 7 15C335 172 336 172 336 172z"/>
      <path class="st3" d="M335 171c-2-5-5-10-7-15 0 0 0 0 0 0 2 5 5 10 7 15C335 172 335 171 335 171z"/>
      <path class="st3" d="M335 172c-2-5-5-10-7-15 0 0 0 0 0 0 2 5 5 10 7 15C334 172 335 172 335 172z"/>
      <path class="st3" d="M335 171c-2-5-5-10-7-15 0 0 0 0 0 1 2 5 5 10 7 15C335 172 336 171 335 171z"/>
      <path class="st3" d="M335 172c-2-5-5-10-7-15 0 0 0 0 0 0 2 5 5 10 7 15C335 172 335 172 335 172z"/>
      <path class="st3" d="M335 171c-2-5-5-10-7-15 0 0 0 0 0 0 2 5 5 10 7 15C335 172 335 171 335 171z"/>
      <path class="st3" d="M335 172c-2-5-5-10-7-15 0 0 0 0 0 0 2 5 5 10 7 15C334 172 335 172 335 172z"/>
    </g>
    <line class="st4" x1="345" y1="140" x2="329" y2="154"/>
    <line class="st4" x1="333" y1="138" x2="343" y2="156"/>
    <path class="st5" d="M307 150c-18 0-28-6-32-11 -1-2 14-12 32-12 18 0 32 9 32 11C339 140 324 150 307 150z"/>
    <path class="st6" d="M307 133c13 0 24 5 29 8"/>
    <path class="st6" d="M277 142c5-4 16-9 30-10"/>
    <path class="st5" d="M359 163c16 7 28 6 34 2 2-1-8-16-24-23 -16-7-33-4-34-2C333 141 343 156 359 163z"/>
    <path class="st6" d="M366 147c-12-5-24-5-30-3"/>
    <path class="st6" d="M390 167c-3-5-12-15-24-20"/>
    <line class="st6" x1="379" y1="154" x2="381" y2="168"/>
    <line class="st6" x1="366" y1="147" x2="369" y2="166"/>
    <line class="st6" x1="354" y1="143" x2="356" y2="161"/>
    <line class="st6" x1="343" y1="142" x2="344" y2="153"/>
    <line class="st6" x1="292" y1="135" x2="285" y2="147"/>
    <line class="st6" x1="307" y1="133" x2="297" y2="150"/>
    <g class="st7">
      <g>
        <path class="st8" d="M371 167l-3-1 -3-4 0 0 -25-18c1-1 18 5 28 19L371 167z"/>
      </g>
    </g>
    <g class="st9">
      <g>
        <g>
          <path class="st10" d="M334 149l2 0 3 13c0 0-1 4-1 4 -3-8-4-10-4-17"/>
        </g>
      </g>
    </g>
    <line class="st6" x1="319" y1="134" x2="310" y2="150"/>
    <path class="st5" d="M346 175c11 14 23 18 29 18 2 0 0-18-11-32s-28-18-29-18C333 144 335 161 346 175z"/>
    <path class="st6" d="M360 164c-8-10-19-15-25-17"/>
    <path class="st6" d="M371 193c0-6-3-19-12-29"/>
    <line class="st6" x1="367" y1="176" x2="363" y2="190"/>
    <line class="st6" x1="360" y1="164" x2="353" y2="183"/>
    <line class="st6" x1="352" y1="156" x2="345" y2="174"/>
    <line class="st6" x1="342" y1="150" x2="337" y2="160"/>
    <line class="st6" x1="330" y1="138" x2="325" y2="147"/>
    <path class="st11" d=""/>
    <path class="st11" d=""/>
    <g class="st7">
      <path class="st8" d="M298 150c2-1 4-2 5-3 15-8 32-6 33-5l-33 9L298 150"/>
    </g>
    <g class="st9">
      <g>
        <g>
          <path class="st12" d=""/>
          <path class="st12" d=""/>
          <path class="st10" d="M334 149l-6 8c0 0-1 4-1 4 3-3 6-7 8-10"/>
        </g>
      </g>
    </g>
    <path class="st6" d=""/>
    <g>
      <path class="st5" d="M317 167c-15 8-28 8-33 5 -2-1 7-17 22-25s32-6 33-5C340 143 332 159 317 167z"/>
      <path class="st6" d="M308 151c11-6 24-7 30-6"/>
      <path class="st6" d="M286 174c2-5 10-16 22-22"/>
      <line class="st6" x1="296" y1="160" x2="295" y2="174"/>
      <line class="st6" x1="308" y1="151" x2="307" y2="171"/>
      <line class="st6" x1="320" y1="147" x2="320" y2="165"/>
      <line class="st6" x1="331" y1="145" x2="331" y2="156"/>
    </g>
    <path class="st11" d=""/>
    <path class="st11" d=""/>
    <path class="st11" d=""/>
    <path class="st10" d=""/>
    <path class="st10" d=""/>
    <line class="st0" x1="335" y1="149" x2="334" y2="149"/>
    <g>
      <path class="st3" d="M325 170c2 6 5 12 7 18 0 0 0-1 0-1 -2-6-5-12-7-18C325 169 325 170 325 170z"/>
      <path class="st3" d="M325 170c2 6 5 12 7 18 0 0 0 0 0 0 -2-6-5-12-7-18C325 169 325 170 325 170z"/>
      <path class="st3" d="M325 170c2 6 5 12 7 18 0 0 0 0 0-1 -2-6-5-12-7-18C325 169 325 170 325 170z"/>
      <path class="st3" d="M325 171c2 6 5 12 7 18 0 0 0 0 0 0 -2-6-5-12-7-18C326 170 325 171 325 171z"/>
      <path class="st3" d="M325 170c2 6 5 12 7 18 0 0 0 0 0 0 -2-6-5-12-7-18C326 170 325 170 325 170z"/>
      <path class="st3" d="M324 170c2 6 5 12 7 18 0 0 0 0 0-1 -2-6-5-12-7-17C325 169 324 170 324 170z"/>
      <path class="st3" d="M325 171c2 6 5 12 7 18 0 0 0 0 0 0 -2-6-5-12-7-18C325 170 325 171 325 171z"/>
      <path class="st3" d="M325 171c2 6 5 12 7 18 0 0 0 0 0-1 -2-6-5-12-7-18C325 170 325 171 325 171z"/>
      <path class="st3" d="M324 170c2 6 5 12 7 18 0 0 0 0 0 0 -2-6-5-12-7-18C325 170 324 170 324 170z"/>
    </g>
    <g>
      <path class="st3" d="M332 187c-5 4-10 8-15 11 0 0 1 0 1 0 5-4 10-8 15-11C333 187 332 187 332 187z"/>
      <path class="st3" d="M332 187c-5 4-10 8-15 11 0 0 1 0 1 0 5-4 10-8 15-11C333 187 332 186 332 187z"/>
      <path class="st3" d="M332 187c-5 4-10 8-15 11 0 0 1 0 1 0 5-4 10-8 15-11C333 187 332 187 332 187z"/>
      <path class="st3" d="M333 187c-5 4-10 8-15 11 0 0 0 0 0 0 5-4 10-8 15-11C333 187 333 187 333 187z"/>
      <path class="st3" d="M331 186c-5 4-10 8-15 11 0 0 0 0 0 0 5-4 10-8 15-11C332 186 332 186 331 186z"/>
      <path class="st3" d="M331 187c-5 4-10 8-15 11 0 0 1 0 1 0 5-4 10-8 15-11C332 187 332 187 331 187z"/>
      <path class="st3" d="M332 187c-5 4-10 8-15 11 0 0 0 0 0 0 5-4 10-8 15-11C332 188 332 187 332 187z"/>
      <path class="st3" d="M332 186c-5 4-10 8-15 11 0 0 0 0 0 0 5-4 10-8 15-11C333 187 333 186 332 186z"/>
      <path class="st3" d="M331 187c-5 4-10 8-15 11 0 0 0 0 1 0 5-4 10-8 15-11C332 187 332 187 331 187z"/>
      <path class="st3" d="M332 186c-5 4-10 8-15 11 0 0 0 0 0 0 5-4 10-8 15-11C332 186 332 186 332 186z"/>
      <path class="st3" d="M331 187c-5 4-10 8-15 11 0 0 0 0 0 0 5-4 10-8 15-11C332 187 331 187 331 187z"/>
    </g>
    <g>
      <g>
        <path class="st3" d="M313 228c5-4 10-8 14-11 0 0 0 0 0 0 0 0-1-1-1-1 0 0 0 0 0 0 1 1 1 1 0 2 -1 0-1 1-2 1 -2 1-3 3-5 4 -2 2-5 4-7 6C313 228 313 228 313 228z"/>
        <path class="st3" d="M313 227c5-4 10-8 14-11 0 0 0 0 0 0 0 0-1-1-1-1 0 0 0 0 0 0 1 1 0 1 0 2 -2 1-4 3-5 4 -3 2-5 4-8 6C312 227 312 228 313 227z"/>
        <path class="st3" d="M313 227c5-4 10-8 15-11 0 0 0 0 0 0 -2-3-3-6-5-9 -2-3-3-6-5-9 0 0 0 0 0 1 1 3 3 5 4 8 1 2 2 3 3 5 1 1 2 3 2 4 0 1 0 1-1 1 0 0-1 1-1 1 -2 1-3 3-5 4 -2 2-5 4-7 6C312 227 313 227 313 227z"/>
        <path class="st3" d="M313 227c5-4 10-8 14-11 0 0 0 0 0 0 -3-6-6-12-9-18 0 0 0 1 0 1 1 3 3 5 4 7 1 2 2 3 3 5 0 1 1 2 1 2 1 1 1 1 1 2 0 1-1 1-2 2 -2 1-3 3-5 4 -2 2-5 4-7 6C312 227 313 227 313 227z"/>
        <path class="st3" d="M313 227c5-4 10-8 14-11 0 0 0 0 0 0 -2-3-3-6-5-9 -2-3-3-6-5-9 0 0 0 1 0 1 1 3 3 5 4 7 1 2 2 4 3 6 0 1 2 3 2 4 0 1-2 2-2 2 -2 1-3 3-5 4 -2 2-5 4-7 6C312 227 313 227 313 227z"/>
        <path class="st3" d="M314 227c5-4 10-8 14-11 0 0 0 0 0 0 -2-3-4-7-5-10 -1-3-3-5-4-8 0 0 0 0 0 0 1 3 3 5 4 8 1 2 2 4 3 6 0 1 1 2 1 2 0 1 1 1 1 2 0 1-2 2-2 2 -2 1-3 3-5 4 -2 2-5 4-7 6C313 227 313 228 314 227z"/>
        <path class="st3" d="M314 227c5-4 10-8 14-11 0 0 0 0 0 0 -2-3-3-6-5-9 -2-3-3-6-5-9 0 0 0 0 0 0 1 3 3 5 4 8 1 2 2 3 3 5 1 1 2 3 2 4 0 1 0 1-1 1 0 0-1 1-1 1 -2 1-3 3-5 4 -2 2-5 4-7 6C313 227 313 227 314 227z"/>
        <path class="st3" d="M325 211c-2-5-5-9-7-14 0 0 0 0 0 0 2 4 5 9 7 13C325 211 325 211 325 211z"/>
        <path class="st3" d="M312 227c5-4 10-8 14-11 0 0 0 0 0 0 -3-6-6-12-9-18 0 0 0 0 0 0 1 3 3 5 4 8 1 2 2 4 3 6 0 1 1 2 1 2 0 1 1 1 1 2 0 1-2 2-2 2 -2 1-3 3-5 4 -2 2-5 4-7 6C312 227 312 227 312 227z"/>
        <path class="st3" d="M313 227c5-4 10-8 14-11 0 0 0 0 0 0 -3-6-6-12-9-18 0 0 0 0 0 1 1 3 3 5 4 8 1 2 2 4 3 6 0 1 1 2 1 2 0 0 1 1 1 1 0 1-2 2-2 2 -2 1-3 3-5 4 -2 2-5 4-7 6C313 227 313 227 313 227z"/>
        <path class="st3" d="M324 210c-2-4-4-8-6-12 0 0 0 0 0 0 2 4 4 8 6 12C324 210 324 210 324 210z"/>
        <path class="st3" d="M313 226c5-4 10-8 14-11 0 0 0 0 0 0 -3-6-6-12-9-18 0 0 0 0 0 0 1 2 3 5 4 8 1 2 2 4 3 6 0 1 1 2 1 2 0 1 1 1 1 2 0 1-1 2-2 2 -2 1-3 3-5 4 -2 2-5 4-7 6C313 226 313 227 313 226z"/>
        <path class="st3" d="M323 207c-2-3-3-6-5-10 0 0 0 0 0 0 2 3 3 6 5 10C322 207 323 207 323 207z"/>
      </g>
    </g>
    <g>
      <g>
        <g>
          <path class="st3" d="M322 268c-2-3-4-6-6-9 -1-2-3-4-4-6 0 0-2-3-2-3 0 0 0 0 0 0 0 0 0 0 0 0 0 0 0 0 0 0 4 6 8 12 12 17C322 268 322 268 322 268z"/>
          <path class="st3" d="M323 268c-4-6-8-12-12-17 0 0 0 0 0 0 0 0 1 0 1-1 0 0 0 0 0 0 0 0-1 0-1 1 0 0 0 0 0 0 4 6 8 12 12 17C322 268 323 268 323 268z"/>
          <path class="st3" d="M323 269c-2-3-4-6-7-10 -1-2-2-4-4-5 0-1-1-1-1-2 0 0 0-1 1-1 0 0 0 0 0 0 0 0-1 1-1 1 0 0 0 0 0 0 4 6 8 12 12 17C322 269 323 269 323 269z"/>
          <path class="st3" d="M316 248c3-2 6-5 9-7 0 0 0 0 0 0 0 0 0 0 0 0 0 0 0 0 0 0 0 1-2 2-3 3 -2 2-4 3-6 5C316 248 316 248 316 248z"/>
          <path class="st3" d="M316 248c3-2 6-5 9-7 0 0 0 0 0 0 0 0-1-1-1-1 0 0 0 0 0 0 1 0 1 1 1 1 -1 1-1 1-2 2 -2 2-4 4-6 5C316 248 316 248 316 248z"/>
          <path class="st3" d="M312 252c5-3 9-7 14-11 0 0 0 0 0 0 -1-1-3-3-4-5 -2-2-4-5-6-7 0 0 0 0 0 0 2 2 4 5 6 7 1 1 2 2 3 4 1 1 1 1 0 2 -1 1-2 1-2 2 -1 1-3 2-4 3 -2 2-4 4-7 5C312 251 312 252 312 252z"/>
          <path class="st3" d="M323 269c-4-6-8-12-12-17 0 0 0 0 0 1 2-2 4-3 6-5 3-2 5-4 8-6 0 0 0 0 0 0 -2-2-4-5-6-7 -2-2-4-5-6-7 0 0 0 0 0 1 1 2 3 3 4 5 1 2 3 3 4 5 0 0 3 3 3 4 0 0 0 1-1 1 -1 1-2 2-3 3 -1 1-3 2-4 3 -1 0-1 1-2 1 -1 1-2 2-4 2 0 0 0 1 0 1 4 6 8 12 12 17C323 269 323 269 323 269z"/>
          <path class="st3" d="M323 268c-4-6-8-12-12-17 0 0 0 1 0 1 2-2 5-4 7-6 2-2 5-4 7-6 0 0 0 0 0 0 -4-5-8-10-12-15 0 0 0 1 0 1 3 4 7 8 10 12 0 0 1 1 1 2 0 0 0 0-1 1 -1 1-1 1-2 2 -1 1-3 2-4 3 -1 0-1 1-2 1 -2 1-3 3-5 4 0 0 0 1 0 1 4 6 8 12 12 17C323 269 323 268 323 268z"/>
          <path class="st3" d="M323 268c-4-6-8-12-12-17 0 0 0 1 0 1 3-2 5-4 8-7 2-2 4-3 6-5 0 0 0 0 0 0 -2-2-4-5-6-7 -2-2-4-5-6-7 0 0 0 1 0 1 2 2 3 4 5 6 1 1 2 3 3 4 0 0 3 3 3 4 0 0 0 0-1 1 -1 1-1 1-2 2 -1 1-3 2-4 3 -1 1-3 3-4 4 -1 0-1 1-2 1 0 0 0 1 0 1 4 6 8 12 12 17C323 269 323 269 323 268z"/>
          <path class="st3" d="M323 268c-4-6-8-12-12-17 0 0 0 0 0 0 3-2 5-4 7-6 2-2 5-4 7-6 0 0 0 0 0 0 -2-2-4-5-6-7 -2-2-4-5-6-7 0 0 0 0 0 0 1 2 3 4 4 5 1 2 3 3 4 5 1 1 2 2 2 3 0 0 0 1 0 1 0 0-1 1-1 1 -1 1-3 2-4 3 -1 1-3 2-4 3 -1 1-2 2-4 2 0 0 0 0 0 0 4 6 8 12 12 17C323 269 324 269 323 268z"/>
          <path class="st3" d="M323 237c-3-4-6-8-9-12 0 0 0 0 0 0 3 4 7 8 10 12C323 237 323 237 323 237z"/>
          <path class="st3" d="M323 268c-4-6-8-12-12-17 0 0 0 0 0 0 5-3 9-7 14-11 0 0 0 0 0 0 -4-5-8-10-11-14 0 0 0 0 0 0 1 2 3 3 4 5 1 1 2 3 3 4 1 1 2 2 3 4 0 0 0 1 1 1 0 0-1 0-1 1 -1 1-2 2-3 3 -2 2-4 3-6 5 -1 1-2 2-4 2 0 0 0 0 0 0 4 6 8 12 12 17C322 269 323 269 323 268z"/>
          <path class="st3" d="M323 268c-4-6-8-12-12-17 0 0 0 0 0 1 5-3 10-8 14-11 0 0 0 0 0 0 -4-5-8-10-12-15 0 0 0 0 0 1 1 2 3 3 4 5 1 2 3 3 4 5 1 1 2 2 2 3 0 1 0 1 0 1 -1 1-2 2-3 3 -1 1-3 2-4 3 -1 0-1 1-2 1 -1 1-2 2-4 2 0 0 0 1 0 1 4 6 8 12 12 17C323 269 323 268 323 268z"/>
          <path class="st3" d="M320 235c-2-3-5-6-7-9 0 0 0 0 0 0 2 3 5 6 7 9C320 235 320 235 320 235z"/>
          <path class="st3" d="M323 268c-4-6-8-12-12-17 0 0 0 0 0 1 3-2 5-4 7-5 2-2 5-4 7-6 0 0 0 0 0 0 -4-5-8-10-12-15 0 0 0 0 0 0 1 2 3 3 4 5 1 2 3 3 4 5 1 1 3 3 3 4 0 1-1 1-2 2 -1 1-3 2-4 3 -1 1-3 2-4 3 -1 1-3 2-4 2 0 0 0 0 0 1 4 6 8 12 12 17C323 268 323 268 323 268z"/>
          <path class="st3" d="M320 234c-2-3-5-6-7-9 0 0 0 0 0 0 2 3 5 6 7 9C320 234 320 234 320 234z"/>
        </g>
      </g>
    </g>
    <g>
      <g>
        <g>
          <g>
            <g>
              <g>
                <g>
                  <g>
                    <g>
                      <g>
                        <g>
                          <g>
                            <g>
                              <path class="st3" d="M321 185c3 5 6 11 10 16 0 0 0 0 0 0 -1 0-2 1-2 2 0 0 0 0 0 0 1-1 1-1 2-2 0 0 0 0 0 0 -3-5-6-11-10-16C321 184 321 185 321 185z"/>
                              <path class="st3" d="M325 205c0 0 0 0 0 0C325 205 325 205 325 205z"/>
                              <path class="st3" d="M318 210c-1 1-2 2-3 3 0 0 0 0 0 0 1-1 2-2 3-3C319 210 318 210 318 210z"/>
                              <path class="st3" d="M317 211c-1 1-1 1-2 2 0 0 0 0 0 0 1-1 1-1 2-2C317 211 317 211 317 211z"/>
                              <path class="st3" d="M329 200c-5 4-10 8-15 12 0 0 0 0 0 0 1 1 1 2 2 2 0 0 0 0 0 0 0 0-2-2-2-3 1-1 1-1 2-2 1-1 1-1 2-2 3-3 7-6 10-9C329 200 329 200 329 200z"/>
                              <path class="st3" d="M319 218c0 0 0 0 0 0C319 218 319 218 319 218z"/>
                              <path class="st3" d="M317 216c2 3 4 6 7 8 0 0 1 1 1 1 1 1 1 1 2 2 0 0-2 1-2 1 0 0 0 0 0 0 1-1 1-1 2-1 0 0 0 0 0 0 -3-4-6-8-10-12C317 216 317 216 317 216z"/>
                              <path class="st3" d="M316 235c-2 1-3 3-5 4 0 0 0 0 0 0 2-1 3-3 5-4C316 235 316 235 316 235z"/>
                              <path class="st3" d="M314 236c-1 1-2 2-3 3 0 0 0 0 0 0 1-1 2-2 3-3C314 236 314 236 314 236z"/>
                              <path class="st3" d="M324 228c-5 4-10 8-14 11 0 0 0 0 0 0 1 1 1 2 2 2 0 0 0 0 0 0 -1-1-1-1-1-2 -1-1 0-1 0-1 1-1 3-2 4-3 3-3 6-5 9-7C325 228 324 228 324 228z"/>
                              <path class="st3" d="M315 245c0 0 0 0 0 0C315 245 315 245 315 245z"/>
                              <path class="st3" d="M320 184c2 3 4 6 5 9 1 2 2 4 4 6 0 0 1 1 0 1 0 0-1 1-1 1 -1 1-1 1-2 2 -1 1-2 2-3 3 -3 2-6 5-9 8 0 0 0 0 0 0 3 3 5 6 7 9 1 1 2 3 3 4 1 1 1 1 0 1 -1 0-1 1-1 1 -1 1-1 1-2 2 -1 1-2 2-3 3 -3 2-5 4-8 6 0 0 0 0 0 0 2 2 4 5 6 7 2 2 4 4 6 7 0 0 0 0 0 0 -2-2-4-4-6-7 -1-2-3-3-4-5 0 0-1-1-1-1 0 0 0-1-1-1 0 0 3-2 3-3 1-1 2-2 3-3 2-2 4-3 6-5 0 0 2-1 2-2 0-1-1-2-2-2 -1-1-2-3-3-4 -1-1-2-3-3-4 -1-1-2-2-2-3 0 0 0-1 0-1 0 0 1-1 1-1 1-1 3-2 4-3 2-2 4-3 6-5 1-1 2-2 4-3 0 0 0 0 0 0 -3-5-6-11-10-16C320 184 320 184 320 184z"/>
                              <path class="st3" d="M320 184c3 5 6 11 10 16 0 0 0 0 0-1 -3 3-6 5-9 8 -2 2-4 4-7 6 0 0 0 0 0 0 2 2 4 5 6 7 2 2 4 5 6 7 0 0 0 0 0-1 -2 2-5 4-8 6 -3 2-5 4-8 6 0 0 0 0 0 0 4 5 8 10 12 14 0 0 0-1 0-1 -2-2-3-4-5-6 -2-2-3-4-5-6 0 0-2-2-2-2 0 0 0 0 1-1 1 0 1-1 2-1 1-1 3-2 4-3 2-1 3-3 5-4 1-1 2-2 3-2 0 0 0-1 0-1 -1-2-3-3-4-5 -2-2-4-4-5-6 0 0-2-2-1-2 0-1 2-2 2-2 1-1 3-2 4-3 1-1 3-3 4-4 1-1 3-3 5-4 0 0 0-1 0-1 -3-5-6-11-10-16C320 184 320 184 320 184z"/>
                              <path class="st3" d="M320 184c2 3 3 5 5 8 1 2 2 4 3 5 0 0 1 2 1 2 0 0-1 0-1 1 -1 1-2 1-3 2 -2 1-3 3-5 4 -2 2-4 4-7 6 0 0 0 0 0 0 2 2 4 5 6 7 1 1 2 3 3 4 0 1 1 1 1 2 0 0 1 0 1 1 0 0-2 1-2 1 -2 2-4 3-7 5 -2 2-4 4-7 5 0 0 0 0 0 0 3 2 5 5 7 8 2 2 3 4 5 6 0 0 0 0 0 0 -2-2-4-5-6-7 -1-1-2-3-3-4 -1-1-1-1-2-2 -1-1-1-1 0-1 0 0 1-1 1-1 0 0 1-1 1-1 2-1 3-3 5-4 2-2 4-4 7-5 0 0 0 0 0 0 -2-2-3-4-5-6 -1-1-2-3-3-4 -1-1-1-1-2-2 0 0-1-1-1-1 0-1 1-1 1-2 1-1 2-2 4-3 2-2 3-3 5-5 2-1 3-3 5-4 0 0 0 0 0 0 -3-5-6-11-10-16C320 183 320 184 320 184z"/>
                              <path class="st3" d="M321 184c3 5 6 11 10 16 0 0 0 0 0-1 -2 2-5 5-8 7 -3 2-5 5-8 7 0 0 0 0 0 0 4 5 8 10 12 14 0 0 0 0 0-1 -2 2-5 4-8 6 -3 2-5 4-8 6 0 0 0 0 0 0 4 5 8 10 12 14 0 0 0-1 0-1 -4-4-7-8-11-13 -1-1-1-1 0-1 1-1 2-2 3-2 2-1 3-3 5-4 1 0 1-1 2-1 2-1 3-3 5-4 0 0 0-1 0-1 -2-2-3-4-5-6 -1-1-2-3-3-4 -1-1-1-1-2-2 0 0-1-1-1-1 0-1 1-1 1-2 1-1 2-2 3-3 2-2 3-3 5-5 1-1 3-3 5-4 0 0 0-1 0-1 -3-5-6-11-10-16C321 184 320 184 321 184z"/>
                              <path class="st3" d="M313 243c3 4 7 8 10 12 0 0 0 0 0 0 -3-4-7-8-10-12C313 242 313 242 313 243z"/>
                              <path class="st3" d="M321 184c3 5 6 11 10 16 0 0 0 0 0 0 -3 2-5 4-8 7 -3 2-5 5-8 7 0 0 0 0 0 0 4 5 8 10 11 14 0 0 0 0 0 0 -2 1-5 3-7 5 -3 2-6 5-8 7 0 0 0 0 0 0 4 5 8 10 12 14 0 0 0 0 0 0 -2-2-3-4-5-6 -1-1-2-3-4-4 -1-1-1-1-2-2 0 0-1-1-1-1 0-1 1-1 1-1 1-1 2-2 3-3 2-1 3-3 5-4 1-1 2-2 3-2 1-1 1-1 2-1 0 0 0 0 0 0 -1-2-3-3-4-5 -1-2-3-3-4-5 -1-1-2-2-3-4 0 0 0-1 0-1 1-1 2-2 3-3 1-1 3-2 4-4 1-1 3-2 4-4 1-1 2-2 4-3 0 0 0 0 0 0 -3-5-6-11-10-16C321 184 321 184 321 184z"/>
                              <path class="st3" d="M320 184c3 5 6 11 10 16 0 0 0 0 0 0 -6 4-10 9-16 13 0 0 0 0 0 0 2 2 4 5 6 7 2 2 4 5 6 7 0 0 0 0 0 0 -6 4-10 8-16 12 0 0 0 0 0 0 3 3 5 6 7 8 2 2 3 4 5 6 0 0 0 0 0 0 -2-2-3-4-5-6 -1-1-2-3-4-4 1 1-3-3-3-4 0 0 0 0 1-1 1 0 1-1 2-1 1-1 3-2 4-3 2-1 3-3 5-4 1-1 2-2 3-2 0 0 0 0 0 0 -1-2-3-3-4-5 -1-2-3-3-4-5 -1-1-2-2-2-3 0 0 0-1 0-1 0 0 1-1 1-1 1-1 3-2 4-3 1-1 3-3 4-4 2-1 3-3 5-4 0 0 0 0 0 0 -3-5-6-11-10-16C320 184 320 184 320 184z"/>
                              <path class="st3" d="M320 185c3 5 6 11 10 16 0 0 0 0 0-1 -6 4-11 9-16 13 0 0 0 0 0 0 4 5 8 10 12 14 0 0 0 0 0 0 -6 3-10 8-15 12 0 0 0 0 0 0 4 5 8 10 12 14 0 0 0 0 0 0 -2-2-4-5-6-7 -1-1-2-3-4-4 -1-1-1-1-2-2 0 0-1-1-1-1 0-1 1-1 2-2 2-1 3-3 5-4 2-1 3-3 5-4 1-1 2-2 4-2 0 0 0 0 0 0 -2-2-4-5-6-7 -1-1-2-3-3-4 -1-1-1-1-2-2 0 0-1-1-1-1 0-1 1-1 2-2 2-1 3-3 5-4 2-1 3-3 5-4 1-1 2-2 4-3 0 0 0 0 0-1 -3-5-6-11-10-16C320 184 320 185 320 185z"/>
                              <path class="st3" d="M320 185c3 5 6 11 10 16 0 0 0 0 0-1 -6 4-10 9-16 13 0 0 0 0 0 0 4 5 8 10 12 14 0 0 0 0 0-1 -5 4-10 8-16 12 0 0 0 0 0 0 4 5 8 10 12 14 0 0 0 0 0-1 -1-2-3-3-4-5 -1-2-3-3-4-5 -1-1-2-2-3-3 0-1 0-1 0-1 1-1 2-2 3-3 1-1 3-2 4-3 1 0 1-1 2-1 2-1 3-3 5-4 0 0 0 0 0-1 -1-2-3-3-4-5 -1-1-2-3-3-4 -1-1-4-4-3-4 0-1 0-1 1-1 1-1 2-2 3-3 1-1 3-3 4-4 1-1 1-1 2-2 2-1 3-3 5-4 0 0 0-1 0-1 -3-5-6-11-10-16C320 184 320 185 320 185z"/>
                            </g>
                          </g>
                        </g>
                      </g>
                    </g>
                  </g>
                </g>
              </g>
            </g>
          </g>
        </g>
      </g>
    </g>
    <g>
      <path class="st3" d="M321 184c5-4 9-7 14-11 0 0-1 0-1 0 -5 4-9 7-14 11C320 184 321 184 321 184z"/>
      <path class="st3" d="M321 183c5-4 9-7 14-11 0 0 0 0-1 0 -5 4-9 7-14 11C321 183 321 184 321 183z"/>
      <path class="st3" d="M321 184c5-4 9-7 14-11 0 0-1 0-1 0 -5 4-9 7-14 11C320 184 321 184 321 184z"/>
      <path class="st3" d="M322 184c5-4 9-7 14-11 0 0 0 0 0 0 -5 4-9 7-14 11C321 184 322 184 322 184z"/>
      <path class="st3" d="M322 184c5-4 9-7 14-11 0 0-1 0-1 0 -5 4-9 7-14 11C321 184 322 184 322 184z"/>
      <path class="st3" d="M321 184c5-4 9-7 14-11 0 0 0 0 0 0 -5 4-9 7-14 11C320 184 321 184 321 184z"/>
      <path class="st3" d="M321 184c5-4 9-7 14-11 0 0 0 0 0 0 -5 4-9 7-14 11C321 184 321 184 321 184z"/>
      <path class="st3" d="M322 183c5-4 9-7 14-11 0 0 0 0 0 0 -5 4-9 7-14 11C321 183 322 183 322 183z"/>
      <path class="st3" d="M321 184c5-4 9-7 14-11 0 0 0 0 0 0 -5 4-9 7-14 11C321 184 321 184 321 184z"/>
      <path class="st3" d="M321 183c5-4 9-7 14-11 0 0 0 0 0 0 -5 4-9 7-14 11C321 183 321 183 321 183z"/>
    </g>
  </g>
  <g>
    <g>
      <path class="st2" d="M206 250c2-23 6-45 12-65 1-2-1-3-3-3l-2 0c-2 0-3 1-3 3 -7 19-12 41-14 65"/>
    </g>
    <line class="st0" x1="201" y1="194" x2="217" y2="196"/>
    <path class="st1" d=""/>
    <g>
      <path class="st3" d="M214 197c-4 3-8 6-12 9 0 0 1 0 1 0 4-3 8-6 12-9C215 197 214 197 214 197z"/>
      <path class="st3" d="M214 197c-4 3-8 6-12 9 0 0 1 0 1 0 4-3 8-6 12-9C215 197 214 197 214 197z"/>
      <path class="st3" d="M214 197c-4 3-8 6-12 9 0 0 1 0 1 0 4-3 8-6 12-9C215 197 215 197 214 197z"/>
      <path class="st3" d="M215 197c-4 3-8 6-12 9 0 0 0 0 0 0 4-3 8-6 12-9C215 197 215 197 215 197z"/>
      <path class="st3" d="M214 196c-4 3-8 6-12 9 0 0 0 0 0 0 4-3 8-6 12-9C214 197 214 196 214 196z"/>
      <path class="st3" d="M214 197c-4 3-8 6-12 9 0 0 1 0 1 0 4-3 8-6 12-9C215 197 214 197 214 197z"/>
      <path class="st3" d="M214 198c-4 3-8 6-12 9 0 0 0 0 0 0 4-3 8-6 12-9C215 198 214 197 214 198z"/>
      <path class="st3" d="M215 196c-4 3-8 6-12 9 0 0 0 0 0 0 4-3 8-6 12-9C215 197 215 196 215 196z"/>
      <path class="st3" d="M214 197c-4 3-8 6-12 9 0 0 0 0 1 0 4-3 8-6 12-9C215 197 214 197 214 197z"/>
      <path class="st3" d="M215 196c-4 3-8 6-12 9 0 0 0 0 0 0 4-3 8-6 12-9C215 196 215 196 215 196z"/>
      <path class="st3" d="M214 197c-4 3-8 6-12 9 0 0 0 0 0 0 4-3 8-6 12-9C214 197 214 197 214 197z"/>
    </g>
    <g>
      <path class="st3" d="M211 207c-2-4-4-8-6-12 0 0 0 0 0 1 2 4 4 8 6 12C211 208 211 207 211 207z"/>
      <path class="st3" d="M211 207c-2-4-4-8-6-12 0 0 0 1 0 1 2 4 4 8 6 12C211 208 212 207 211 207z"/>
      <path class="st3" d="M212 207c-2-4-4-8-6-12 0 0 0 1 0 1 2 4 4 8 6 12C211 208 212 207 212 207z"/>
      <path class="st3" d="M212 208c-2-4-4-8-6-12 0 0 0 0 0 0 2 4 4 8 6 12C212 208 212 208 212 208z"/>
      <path class="st3" d="M212 207c-2-4-4-8-6-12 0 0 0 0 0 0 2 4 4 8 6 12C212 208 212 207 212 207z"/>
      <path class="st3" d="M211 207c-2-4-4-8-6-12 0 0 0 0 0 0 2 4 4 8 6 12C211 207 211 207 211 207z"/>
      <path class="st3" d="M211 207c-2-4-4-8-6-12 0 0 0 0 0 0 2 4 4 8 6 12C211 208 211 207 211 207z"/>
      <path class="st3" d="M212 207c-2-4-4-8-6-12 0 0 0 0 0 1 2 4 4 8 6 12C212 207 212 207 212 207z"/>
      <path class="st3" d="M211 208c-2-4-4-8-6-12 0 0 0 0 0 0 2 4 4 8 6 12C211 208 211 208 211 208z"/>
      <path class="st3" d="M212 206c-2-4-4-8-6-12 0 0 0 0 0 0 2 4 4 8 6 12C211 207 212 207 212 206z"/>
      <path class="st3" d="M211 207c-2-4-4-8-6-12 0 0 0 0 0 0 2 4 4 8 6 12C211 207 211 207 211 207z"/>
    </g>
    <line class="st4" x1="219" y1="181" x2="206" y2="193"/>
    <line class="st4" x1="208" y1="179" x2="217" y2="194"/>
    <path class="st5" d="M187 191c-14 1-24-4-27-8 -1-1 11-10 26-11 14-1 26 7 27 8C213 181 202 190 187 191z"/>
    <path class="st6" d="M187 176c11-1 20 3 24 6"/>
    <path class="st6" d="M162 185c4-3 13-8 24-9"/>
    <path class="st5" d="M231 198c14 5 24 3 28 0 1-1-8-13-22-18s-27-1-28 0C209 182 217 194 231 198z"/>
    <path class="st6" d=""/>
    <path class="st6" d=""/>
    <path class="st6" d=""/>
    <path class="st6" d=""/>
    <line class="st6" x1="247" y1="192" x2="250" y2="201"/>
    <line class="st6" x1="236" y1="185" x2="239" y2="201"/>
    <line class="st6" x1="226" y1="183" x2="229" y2="197"/>
    <line class="st6" x1="216" y1="182" x2="218" y2="191"/>
    <line class="st6" x1="175" y1="179" x2="169" y2="188"/>
    <line class="st6" x1="187" y1="176" x2="179" y2="191"/>
    <g>
      <path class="st8" d="M240 201l-5-1 -5-1 2-1 -19-13c1-1 15 3 24 14L240 201z"/>
    </g>
    <g>
      <g>
        <path class="st10" d="M209 188l2 0 3 10 0 3c-3-6-3-8-4-14"/>
      </g>
    </g>
    <line class="st6" x1="197" y1="177" x2="190" y2="190"/>
    <path class="st5" d="M220 210c10 11 19 14 24 13 2 0-1-15-10-26s-23-14-24-13C209 184 211 199 220 210z"/>
    <path class="st6" d="M231 200c-7-8-17-12-21-13"/>
    <path class="st6" d="M242 223c0-5-3-15-11-23"/>
    <line class="st6" x1="238" y1="210" x2="235" y2="221"/>
    <line class="st6" x1="231" y1="200" x2="226" y2="216"/>
    <line class="st6" x1="225" y1="194" x2="219" y2="209"/>
    <line class="st6" x1="216" y1="189" x2="213" y2="198"/>
    <line class="st6" x1="206" y1="179" x2="202" y2="187"/>
    <path class="st11" d=""/>
    <path class="st8" d="M180 191c1-1 3-2 4-3 12-8 26-6 27-5l-27 9L180 191"/>
    <g>
      <g>
        <path class="st12" d=""/>
        <path class="st12" d=""/>
        <path class="st10" d="M210 189l-5 7c0 0-1 3-1 3 3-3 5-6 7-8"/>
      </g>
    </g>
    <path class="st6" d=""/>
    <path class="st5" d="M198 205c-11 9-21 11-26 9 -2-1 3-15 15-24 11-9 25-10 26-9C214 182 209 196 198 205z"/>
    <line class="st6" x1="181" y1="203" x2="182" y2="214"/>
    <line class="st6" x1="189" y1="194" x2="191" y2="210"/>
    <line class="st6" x1="198" y1="189" x2="200" y2="204"/>
    <line class="st6" x1="207" y1="186" x2="208" y2="194"/>
    <path class="st6" d="M189 194c8-7 18-9 23-9"/>
    <path class="st6" d="M174 215c1-5 6-14 15-21"/>
    <path class="st11" d=""/>
    <path class="st11" d=""/>
    <path class="st11" d=""/>
    <path class="st10" d=""/>
    <path class="st10" d=""/>
    <line class="st0" x1="210" y1="189" x2="210" y2="189"/>
    <g>
      <path class="st3" d="M203 207c2 5 4 9 7 14 0 0 0-1 0-1 -2-5-4-9-7-14C203 206 203 206 203 207z"/>
      <path class="st3" d="M203 206c2 5 4 9 7 14 0 0 0 0 0 0 -2-5-4-9-7-14C203 206 203 206 203 206z"/>
      <path class="st3" d="M203 207c2 5 4 9 7 14 0 0 0-1 0-1 -2-5-4-9-7-14C203 206 203 206 203 207z"/>
      <path class="st3" d="M203 207c2 5 4 9 7 14 0 0 0 0 0 0 -2-5-4-9-7-14C204 207 203 207 203 207z"/>
      <path class="st3" d="M203 207c2 5 4 9 7 14 0 0 0 0 0 0 -2-5-4-9-7-14C204 206 203 206 203 207z"/>
      <path class="st3" d="M202 207c2 5 4 9 7 14 0 0 0 0 0 0 -2-5-4-9-7-14C203 206 202 206 202 207z"/>
      <path class="st3" d="M203 207c2 5 4 9 7 14 0 0 0 0 0 0 -2-5-4-9-7-14C203 207 203 207 203 207z"/>
      <path class="st3" d="M203 207c2 5 4 9 7 14 0 0 0 0 0-1 -2-5-4-9-7-14C203 206 203 207 203 207z"/>
      <path class="st3" d="M202 206c2 5 4 9 7 14 0 0 0 0 0 0 -2-5-4-9-7-14C203 206 202 206 202 206z"/>
    </g>
    <g>
      <path class="st3" d="M209 220c-4 3-8 7-12 10 0 0 1 0 1 0 4-3 8-7 12-10C210 220 209 220 209 220z"/>
      <path class="st3" d="M209 220c-4 3-8 7-12 10 0 0 1 0 1 0 4-3 8-7 12-10C210 220 209 219 209 220z"/>
      <path class="st3" d="M209 220c-4 3-8 7-12 10 0 0 1 0 1 0 4-3 8-7 12-10C210 220 209 220 209 220z"/>
      <path class="st3" d="M210 220c-4 3-8 7-12 10 0 0 0 0 0 0 4-3 8-7 12-10C210 220 210 220 210 220z"/>
      <path class="st3" d="M209 219c-4 3-8 7-12 10 0 0 0 0 0 0 4-3 8-7 12-10C209 219 209 219 209 219z"/>
      <path class="st3" d="M209 220c-4 3-8 7-12 10 0 0 1 0 1 0 4-3 8-7 12-10C210 220 209 220 209 220z"/>
      <path class="st3" d="M209 220c-4 3-8 7-12 10 0 0 0 0 0 0 4-3 8-7 12-10C210 221 209 220 209 220z"/>
      <path class="st3" d="M210 219c-4 3-8 7-12 10 0 0 0 0 0 0 4-3 8-7 12-10C210 220 210 219 210 219z"/>
      <path class="st3" d="M209 220c-4 3-8 7-12 10 0 0 0 0 1 0 4-3 8-7 12-10C209 220 209 220 209 220z"/>
      <path class="st3" d="M209 219c-4 3-8 7-12 10 0 0 0 0 0 0 4-3 8-7 12-10C210 219 209 219 209 219z"/>
      <path class="st3" d="M209 220c-4 3-8 7-12 10 0 0 0 0 0 0 4-3 8-7 12-10C209 220 209 220 209 220z"/>
    </g>
    <g>
      <path class="st3" d="M195 254c4-3 8-7 12-10 0 0 0 0 0 0 0 0-1-1-1-1 0 0 0 0 0 0 1 1 1 2 0 2 0 0-1 1-1 1 -1 1-2 2-4 3 -2 2-4 3-6 5C195 254 195 254 195 254z"/>
      <path class="st3" d="M195 254c4-3 8-7 12-10 0 0 0 0 0 0 0 0-1-1-1-1 0 0 0 0 0 0 1 1 1 1 0 2 -1 1-3 2-4 3 -2 2-4 4-7 6C195 254 195 254 195 254z"/>
      <path class="st3" d="M195 254c4-3 8-7 12-10 0 0 0 0 0 0 -3-5-6-10-8-14 0 0 0 0 0 1 1 2 2 4 3 6 1 2 2 3 3 5 0 1 2 3 2 4 0 1-1 1-2 2 -1 1-2 2-4 3 -2 2-4 3-6 5C194 254 195 254 195 254z"/>
      <path class="st3" d="M195 253c4-3 8-7 12-10 0 0 0 0 0 0 -3-5-6-10-8-14 0 0 0 0 0 1 1 2 2 4 3 6 1 2 2 3 3 5 0 1 2 3 2 4 0 1-1 1-2 2 -1 1-2 2-4 3 -2 2-4 3-6 5C194 253 195 253 195 253z"/>
      <path class="st3" d="M195 254c4-3 8-7 12-10 0 0 0 0 0 0 -2-2-3-5-4-7 -1-2-3-5-4-7 0 0 0 1 0 1 1 2 2 4 3 6 1 2 2 4 3 5 0 1 1 2 1 2 0 1-1 1-2 2 -1 1-2 2-4 3 -2 2-4 3-6 5C194 254 195 254 195 254z"/>
      <path class="st3" d="M196 254c4-3 8-7 12-10 0 0 0 0 0 0 -2-2-3-5-5-8 -1-2-2-4-4-6 0 0 0 0 0 0 1 2 2 4 4 6 1 2 2 4 3 5 0 1 2 2 1 3 0 1-1 1-2 2 -1 1-2 2-4 3 -2 2-4 3-6 5C195 254 196 254 196 254z"/>
      <path class="st3" d="M196 254c4-3 8-7 12-10 0 0 0 0 0 0 -2-2-3-5-4-7 -1-2-3-5-4-7 0 0 0 0 0 0 1 2 2 4 3 6 1 2 2 4 3 5 0 1 1 2 1 3 0 1-1 1-2 2 -1 1-2 2-4 3 -2 2-4 3-6 5C195 254 196 254 196 254z"/>
      <path class="st3" d="M204 239c-2-3-4-7-6-10 0 0 0 0 0 0 2 3 4 7 6 10C204 239 204 239 204 239z"/>
      <path class="st3" d="M195 254c4-3 8-7 12-10 0 0 0 0 0 0 -3-5-6-9-8-14 0 0 0 0 0 0 1 2 2 4 4 6 1 2 2 4 3 5 0 1 1 2 1 3 0 1-1 1-2 2 -1 1-2 2-4 3 -2 2-4 3-6 5C194 254 195 254 195 254z"/>
      <path class="st3" d="M196 253c4-3 8-7 12-10 0 0 0 0 0 0 -3-5-6-10-8-15 0 0 0 0 0 0 1 2 2 4 3 6 1 2 2 4 3 5 0 1 1 2 1 3 0 1-1 1-2 2 -1 1-2 2-4 3 -2 2-4 3-6 5C195 253 196 253 196 253z"/>
      <path class="st3" d="M203 238c-2-3-3-5-5-8 0 0 0 0 0 0 2 3 3 5 5 8C202 238 203 238 203 238z"/>
      <path class="st3" d="M195 253c4-3 8-7 12-10 0 0 0 0 0 0 -3-5-6-10-8-14 0 0 0 0 0 0 1 2 2 4 4 6 1 2 2 4 3 5 0 1 2 2 1 3 0 1-1 1-2 2 -1 1-2 2-4 3 -2 2-4 3-6 5C195 253 195 253 195 253z"/>
      <path class="st3" d="M202 237c-2-3-3-5-5-8 0 0 0 0 0 0 2 3 3 5 5 8C202 237 202 237 202 237z"/>
    </g>
    <g>
      <path class="st3" d="M200 218c4-3 8-6 11-10 0 0-1 0-1 0 -4 3-8 7-11 10C200 218 200 218 200 218z"/>
      <path class="st3" d="M201 217c4-3 8-6 11-10 0 0 0 0-1 0 -4 3-8 7-11 10C200 217 200 217 201 217z"/>
      <path class="st3" d="M201 218c4-3 8-6 11-10 0 0-1 0-1 0 -4 3-8 6-11 10C200 218 201 218 201 218z"/>
      <path class="st3" d="M201 218c4-3 8-6 11-10 0 0 0 0 0 0 -4 3-8 7-11 10C201 218 201 218 201 218z"/>
      <path class="st3" d="M201 218c4-3 8-6 11-10 0 0-1 0-1 0 -4 3-8 6-11 10C200 218 201 218 201 218z"/>
      <path class="st3" d="M200 218c4-3 8-6 11-10 0 0 0 0 0 0 -4 3-8 7-11 10C200 218 200 218 200 218z"/>
      <path class="st3" d="M201 218c4-3 8-6 11-10 0 0 0 0 0 0 -4 3-8 6-11 10C200 218 200 218 201 218z"/>
      <path class="st3" d="M201 217c4-3 8-6 11-10 0 0 0 0 0 0 -4 3-8 6-11 10C200 217 201 217 201 217z"/>
      <path class="st3" d="M200 218c4-3 8-6 11-10 0 0 0 0 0 0 -4 3-8 7-11 10C200 218 200 218 200 218z"/>
      <path class="st3" d="M201 217c4-3 8-6 11-10 0 0 0 0 0 0 -4 3-8 6-11 10C200 217 201 217 201 217z"/>
    </g>
  </g>
  <rect x="104" y="323" class="st13" width="559" height="106"/>
  <path class="st6" d="M214 182c6 0 11-1 22 3"/>
  <g class="st14">
    <path class="st15" d="M666 328c0 0 0-1-1-1l-1 1L666 328z"/>
    <path class="st15" d="M661 325c-1 1-2 2-1 3 1-1 1-1 2-2 1 0 1 0 1 1 0 0 1 0 2-1 -1-1-2-1-4 0C660 326 660 325 661 325z"/>
    <path class="st15" d="M581 323l1 0C581 323 581 323 581 323z"/>
    <path class="st15" d="M532 322c0 0 1 0 1 0C532 322 532 322 532 322z"/>
    <path class="st15" d="M524 321c0 0 0 0 0 0C524 321 524 321 524 321z"/>
    <path class="st15" d="M581 323l-1 0C580 323 580 323 581 323z"/>
    <path class="st15" d="M650 328c0 0 1 0 1 0 0 0 0 0-1 0C650 328 650 328 650 328z"/>
    <path class="st15" d="M603 322l0 0c0 0 0 0 0-1L603 322z"/>
    <path class="st15" d="M619 322c0 0-1 1-1 2 0 0 0-1 1-1C620 322 620 322 619 322z"/>
    <path class="st15" d="M646 324l0 0C646 324 646 324 646 324z"/>
    <path class="st15" d="M591 322c0 0 0 0 0 0C591 322 591 322 591 322z"/>
    <path class="st15" d="M125 330c0 0 0 0 0 0C125 330 125 330 125 330z"/>
    <path class="st15" d="M106 325l0 0c0 0 0 0 0-1L106 325z"/>
    <path class="st15" d="M508 320c0 0 0 0 0 0C509 319 508 319 508 320z"/>
    <path class="st15" d="M367 320c2 1-3 1 0 2C367 322 369 321 367 320z"/>
    <path class="st15" d="M649 328c0 0 0 0-1 0C649 328 649 328 649 328z"/>
    <path class="st15" d="M367 323c0 0 0 0 0 0l0 0C367 323 367 323 367 323z"/>
    <path class="st15" d="M473 320c0 0 0 0 0 0C473 321 473 320 473 320z"/>
    <path class="st15" d="M499 322l-1 0C499 322 499 322 499 322z"/>
    <path class="st15" d="M459 322c0 0 0 0-1 0 0 0 0 0 0 0C458 322 459 322 459 322z"/>
    <path class="st15" d="M445 322c0 0 0 0 0 0 0 0 0 0 0 0L445 322z"/>
    <path class="st15" d="M169 330c0 0-1-1-1-1C168 330 166 330 169 330z"/>
    <path class="st15" d="M650 328c0 0 0 0 0 0 0 0 0 0 0 0C650 328 650 328 650 328z"/>
    <path class="st15" d="M458 331l-2 0C457 331 458 331 458 331z"/>
    <path class="st15" d="M271 330l-1 0C271 330 271 330 271 330z"/>
    <path class="st15" d="M449 331c0 0-1-1-1-1 0 0 0 0 0 0L449 331z"/>
    <path class="st15" d="M168 329c0 0 0 0 0 0S168 329 168 329z"/>
    <path class="st15" d="M153 331c2 0 1-1 1-2 3 0 1 1 2 2 2 0 3-2 4-2 0 0 0 0 0 1 2-1 5 0 7-2 0 0 0 0 0 0 0-1 0-1 0-2 1 0 2-1 2 0 -1 0-1 0-1 1l1 0c1 1-1 0-1 2 2 0 4-2 6-1 0 1-4 0-2 2l-2-1c2 2-1 0 0 2 3 0 3-1 7 0 1-1 0-1 0-2 4-1 3 3 7 2 1-1 1-3 3-2l-1 2c3 0 2-2 5-1 -1 1-2 1-2 1 2 1 1-1 3-1l0 1c3 0 7-1 10-1 0 0-1 1 0 1 4-1 9 0 14 1l2-1c0 0 1 1 0 1 2 0 0-1 1-1 1 0 1 1 1 1 3-1 8-2 12-1l-1 0c2 0 3-2 5-1l0 0c5 1 11-1 15 1 1-2 5 1 6-2 3 1 2 2 6 2 1 0 2-1 3-2l0 1 2-1 1 1 1 0c-1 0-1-1-1-1 2-1 5 1 5 1l5-1c0 0-1 1-2 1 3-1 0 1 3 0 0 0 0-1 0-1 1 1 4 1 6 0l0 1c4 0 8 0 12 0 -1 0-1-2 0-2l0 1c1-1-1 0 0-1 2 0 1 1 0 2l2 0c0 0 0 1 0 1 1-1 3 1 4 0l0 0c4 0 6 0 9-1 0-1 1-1 2-2 2 0 5 1 8 1 2-1 1-1 2-2 0 1 3 1 2 2 3 0 4 0 9-1 0 0-1-1-1-1 1 0 2 0 2 1l0 0c5-2 11 3 15 1l0 0 4-1c2 0-1 1 0 1 4-2 7 0 11-1 3 3 10 0 14 2l0-1c1-1 1 0 2 1 0-1-1-1 0-1 8-1 17 1 26 2 3 0 2-4 6-2l-1 1c6-2 13 0 19-1 0 0 0 1-1 1 1 1 5 0 5-1 1 0 0 1 1 1 1 1 3-1 4 0 0 0 0 0-1 0 1 0 4 0 3-1 2 1 4 0 6 0 1-1 4 1 4-1 0 2 4 1 5 1 0 1 1 1 1 1 2 0 3 0 3-1 3 2 6-2 8 1 5-1 10-2 14-2 0 2-5 0-5 2 4-1 7-2 11-2 1 0-1 1-1 1 4-1 8 0 12-1 0 0 0 0-1 0 1 0 2 0 2-1l-1 0c-1-1 3-2 3-3 -1 2 4 1 2 4 0 0 1-1 1-1 1 0 1 0 0 1 3 0 2-1 4-1 0 0 0 1-1 1 1-1 2-2 4-1 0 0 0 1 0 1 3 0 6-2 10-1 -1 2 1 1 2 2l2 0 -1-1c2 0 3-1 5-1l-1 1 3 0 -2-1c2-1 0-2 2-1 0 0 2 0 3 1 0 0 0 0 0 0 1 0 2-1 3-1 0 0 0 2 0 2 1-1 4 0 5-2 0 0 0 1 0 1l1-1c1 0 1 0 1 1 3 0-1-2 2-1 0 0 0 0-1 0 3 0 6-1 9 0 1 2-2 0-1 2 4 0 8-2 12-1l-1 0c1-2 3 1 5 0 0 0-1 1 0 1 3 0 5-1 9-1l0 1c2 0 4 0 6 1 0-1 1 0 1-1 5 3 10-2 14 1 -1 0-1 0-1 0l4-1c0-1-1-1-1-1 0-1 2-1 3-1 -2 1 0 1 1 2 0 0 0-1 0-1 2 2 0-2 3-1l0 0c1 0 2-1 3-1 0 1-1 0-1 1 2 0 3-2 5-1 -1 0-2 0-2 1 2 1 2 1 3 1l0 0 3 1 -1 0c2-3 4-1 7-2 -3 2 0 1-1 2 1 0 2 1 1 1 1-1 2 1 4-1 0 0 1 0 1 1 2 0 0-1 0-1 3-1 6 2 10 0 3-1 4-2 7-3 1 1-1 1-1 1 2 1 3 0 4 0 0 0 0 1 0 1 1 0 1-1 2-1 0 0-1 1-1 2 1 0 3-1 4-1 0 1-1 1-1 1 2 0 4-1 5-2l-1 0c1 0 0 1 0 1 -1 1-2 0-2-1l1 0c-1-2-4 0-6 0l1-2 -2 1c0 0-1-1 0-2 -1-1-1 1-3 0 0 0 0 0 0 0l-1 0c0 0 0-1 1-1 -3-1-4 1-5 0l0 0c-4 1 0 1-3 3l-2-3 0 1c0 0-1 0-1-1 -1 1 0 1-1 1 -2-1-5 1-5-1 -1 1 2 1 0 1 -1-2-2 0-4-1 1-1 2-1 0-1 -1 2-3 0-5 0 0 1-3 1-5 1 0 0-4-1-7-1l0 0c0 1-3 1-4 1 0-1 0-1 1-2l-2 0c0 0-1 1-2 1l0-1c-2 0-4 1-7 1 0 1 2 3-1 4 0-1 0-2 1-2 0 0-1 0-1 0l1-1c-1 0-1 1-2 1 0-1-1-1-1-1 0 0 1 0 1 0 -1 0-2-1-3-1 0 0 0 1-1 1 -2 0-1-1-2-1 0 1-2 0-2 1 -1 0-1-1-1-1 -1 1-5 0-4 1l0 0c0 0 0 0 0 0 0 0 0 0 0 0h0c-3 1-7-1-11 0l0 0c-2 0-5 0-6 1 -1 0-1-1-1-1 -2 0-2 1-4 0 2-1-1-1 2-1 -2 0-2-1-5 0 1-1-2-1-2-1l1 1c-1 0-2 0-3 0l1-1c-4-2-8 3-11 0 -1 1 2 1 1 2 -2 0-4-2-5-2 -3-1-2 2-5 1 0 0 1 2-1 2 -2 0-2-2-1-2 0 0 1 0 1 0 1 0 1 0 1-1l0 0c-1 0-4 0-3-1 -1 0-1 1 0 1 -2-1-4 0-6 0 0 0 1 1 0 1 -4-1-2 1-4 1 -1-1 1-2-2-1 -2 0 0-1 0-2 -2 1-4-1-6-1l1 0c-1 0-1 0-2 0l1 1c-1 0-1 0-1-1 -1 1 1 2-1 2 -1 0-3 1-3-1 3 0 0-1 2-1 0 0-1 0-2 0 0 0 0 0 0 0 -3-1-1 1-4 1 0-1-1-1-1-1 1 0 1 1-1 2 -2-1-2 0-3 0l1 0c0 1-1 1-3 1 0-1 1 0 1-1 -1 1-3-1-5 0 -1 0 0-1-1-2 -2 1-2-1-5 0 1 1 1 1-1 2l4-1 -3 1c1 0 3-1 3 0 -1 1-1 1-1 1 -2-1-3 1-5 0l0-2c-3-1-5 1-9 1l1 0c0 1-2 0-3 1 0-1-1-1-1-2 0 1-3 0-3 2l-2-1c-3 0-3 2-6 2 1-1 0-1 1-2 -1 0-2 0-2 0 -1 0-3 1-4 0 0 0-1 1-2 1 0 0 0 0 0 0 0 0-2 1-1 1 -3-2-8 0-11-2 -2 0-5 1-7 1 0 0 0 0 0 0 -3-1-2 2-5 1 -2-1 2-1 1-1 0-3-4 0-6-1l0 0c-2-1-4 1-6 1 0 0 0 0 0 0 -2 1-5 2-7 2 1-1 1-1 1-2 -1 0 0 2-2 2 -1-1-2-1-2-2l2 0c-1-1-3 0-4 0l0-1c-3 0-3 2-7 2l0 0c-2 2-2-1-3 0l-1-2c-1 0-4 2-6 2 1-1 4-2 5-2 -1 0-4 0-5 1 0 0 1-1 2 0 -1 1-3 2-6 2 0-3-6-1-8-3 -4 1-8 0-13 0 2 2-1 0-1 3 -1 0-2 0-2 0l-3-1c-1-1 1-1 1-1 -3 0-1-1-3-2 0 1-1 1-2 1l2 1c-4 1-3-2-7-1l1-1c-2 0-7 0-8 2 0 0-1-1 0-1 -4 0-10 2-13 1l0-1c-1 0-1 1-2 1 0 0 0-1 0-1 0 0-2 1-3 1l1-1c-4-1-6 2-10 2 0-2-3-2-5-3l0 0c-5 0-8 1-13 2 -3-2-10-1-14-2 1 0 0 1-1 2 -1 0-3 1-3 0l0 0c-1-2-3-1-5-1l0 2c-4-3-12 1-14-2 -1 1-2 1-3 1l0-1c-3 0-4 0-8 0l1-1c-2 0-3 3-5 3l-1-2c-4 0-7-1-11 0 0 0 0-1 1-1 -2 0-7-1-6 1 0-2-4 0-6 1l0-1c-2 1-2 2-4 2 -1 0 0-1 0-1 -2-1-1 1-4 0l1-1c-2 0-2 0-3 1 -1 0-4 0-4-1 0 1-1 1-2 1 0 0 0-1 0-1 -3-1-5 1-7 0 0 0 0-1 0-1 3 0 5 0 4 0 0-1-2-1 0-3 -2 1-4 2-6 2 0 0 0 0 0 0l0 0c0 0-1 0-1 0 -1 0-1 0-2 0 0-1-2 0-3 0 0 1-1 1 0 2 0 0 0 0 1 0 0 0 0 0 0 0 0 0 0 0 0 0 1 0 2 0 3 0 -1 1-2 1-3 0 -1 1-1 1-1 2 -1-2-4-2-4-3 -3 1-7 0-9 3 -1 0-1-1-1-1 1 0 1 0 1 0 -2 1-5 0-6 2 -2-1 1-1-2-1l0 0c-6-2-10 4-16 1 0 0 1 0 1 1 -8-1-16 1-23-1 -2 0-2 1-4 1l0-1 -2 1c-3 1-5-3-9-1l1 1c-1 0-5 0-4 0 0 0 0 1-1 0l0-1 -3 1c-3 0 0-3-4-3 -1 0-4 2-4 2 1 0 2 0 2 1l-1 0c0 2-1 4 2 5l2-1 1 1 -2 0c1 1 2 0 3 0 0 0 1 1 1 1l2-2c0 1-1 1 1 2 1-1-1-2 1-2 1 1 1 2 2 1 0 0 0 1-1 1 1-1 3 0 4-1 1 1 4 0 4 1 0 0 2-1 3-1 -2 2 4 0 3 2 1-2 5-1 8-2 0 0 0 0-1 0 1 0 2 1 3 1 0-2 2-2 4-3 2 2-1 2-1 3 0-1 3-1 2-2 1 1 1 0 2 2 0-2 1 0 2-2 2 1 0 2 3 1C155 331 153 331 153 331zM203 328c0 0 0 0 0 0 0 0-1 0-1 0C203 328 203 328 203 328zM208 328c-1 0-1 0-2 0 0 0 0-1 0-1C206 327 207 328 208 328zM199 320c1 0 1 0 1 0 0 0-1 0-1 0 0 0 0 0 0 0C199 321 199 320 199 320z"/>
    <path class="st15" d="M198 322c0 0 0 0 0 0 0 0 0 0 0 0 0 0 0 0 0 0C198 322 198 322 198 322z"/>
    <path class="st15" d="M582 323l0 0c0 0 0 0 0 0C582 323 582 323 582 323z"/>
    <polygon class="st15" points="266 330 266 330 266 330 "/>
    <path class="st15" d="M605 327c0 0 0 0 0 0C605 327 605 327 605 327z"/>
    <path class="st15" d="M615 327l1 0C616 328 616 328 615 327z"/>
    <path class="st15" d="M623 328c0 0 0 0 0 0 0 0 0 0 0 0L623 328z"/>
    <path class="st15" d="M500 329c0 0 0 0 0 0C499 330 499 330 500 329z"/>
    <path class="st15" d="M536 327c0 0-1 0-1 1C536 327 536 327 536 327z"/>
    <path class="st15" d="M459 331c0 0 0 0 0 0 0 0 0 0 0 0L459 331z"/>
    <path class="st15" d="M533 327c1 0 1 0 2 0C535 327 534 327 533 327z"/>
    <path class="st15" d="M656 329l0 0c0 0 0 0 0 0L656 329z"/>
    <path class="st15" d="M657 328l0 0C657 328 657 328 657 328z"/>
    <path class="st15" d="M658 328l-1 0C658 328 658 328 658 328z"/>
    <path class="st15" d="M646 328l0 0C646 328 646 328 646 328z"/>
    <path class="st15" d="M643 328c1 0 2 1 3 1l0 0C646 329 644 327 643 328z"/>
    <path class="st15" d="M630 323l3 0c0 0-1-1 0-1C630 321 634 323 630 323z"/>
    <path class="st15" d="M622 322c1 0 0-1 0-1C621 322 621 322 622 322z"/>
    <path class="st15" d="M563 322l0-1C562 322 564 322 563 322z"/>
    <polygon class="st15" points="552 328 553 328 554 327 "/>
    <polygon class="st15" points="546 320 546 320 544 321 "/>
    <path class="st15" d="M447 321l0 1C448 322 448 320 447 321z"/>
    <path class="st15" d="M405 322c0-1-2-1-2 0C403 322 404 322 405 322z"/>
    <polygon class="st15" points="278 320 278 320 277 320 "/>
  </g>
  <rect x="404" y="196" class="st13" width="192" height="52"/>
  <g class="st14">
    <path class="st15" d="M596 251c0 0 0-1 0-1l0 1L596 251z"/>
    <path class="st15" d="M594 248c0 1-1 2 0 3 0-1 0-1 1-2 0 0 0 0 0 1 0 0 0 0 1-1 0-1-1-1-1 0C594 249 594 248 594 248z"/>
    <path class="st15" d="M567 246l0 0C567 246 567 246 567 246z"/>
    <path class="st15" d="M550 245c0 0 0 0 0 0C550 245 550 245 550 245z"/>
    <path class="st15" d="M547 244c0 0 0 0 0 0C548 244 547 244 547 244z"/>
    <path class="st15" d="M567 246l0 0C567 246 567 246 567 246z"/>
    <path class="st15" d="M591 251c0 0 0 0 0 0 0 0 0 0 0 0C591 251 591 251 591 251z"/>
    <path class="st15" d="M575 245l0 0c0 0 0 0 0-1L575 245z"/>
    <path class="st15" d="M580 245c0 0 0 1 0 2 0 0 0-1 0-1C580 245 580 245 580 245z"/>
    <path class="st15" d="M589 247l0 0C590 247 589 247 589 247z"/>
    <path class="st15" d="M571 245c0 0 0 0 0 0C571 245 571 245 571 245z"/>
    <path class="st15" d="M411 253c0 0 0 0 0 0C411 253 411 253 411 253z"/>
    <path class="st15" d="M404 248l0 0c0 0 0 0 0-1L404 248z"/>
    <path class="st15" d="M542 243c0 0 0 0 0 0C542 242 542 242 542 243z"/>
    <path class="st15" d="M494 243c1 1-1 1 0 2C494 245 494 244 494 243z"/>
    <path class="st15" d="M591 251c0 0 0 0 0 0C590 251 591 251 591 251z"/>
    <path class="st15" d="M494 246c0 0 0 0 0 0l0 0C494 246 494 246 494 246z"/>
    <path class="st15" d="M530 243c0 0 0 0 0 0C530 244 530 243 530 243z"/>
    <path class="st15" d="M539 245l0 0C539 245 539 245 539 245z"/>
    <path class="st15" d="M525 245c0 0 0 0 0 0 0 0 0 0 0 0C525 245 525 245 525 245z"/>
    <path class="st15" d="M520 245c0 0 0 0 0 0 0 0 0 0 0 0L520 245z"/>
    <path class="st15" d="M426 253c0 0 0-1 0-1C425 253 425 253 426 253z"/>
    <path class="st15" d="M591 251c0 0 0 0 0 0 0 0 0 0 0 0C591 251 591 251 591 251z"/>
    <path class="st15" d="M525 254l-1 0C525 254 525 254 525 254z"/>
    <path class="st15" d="M461 253l0 0C461 253 461 253 461 253z"/>
    <path class="st15" d="M522 254c0 0 0-1 0-1 0 0 0 0 0 0L522 254z"/>
    <path class="st15" d="M425 252c0 0 0 0 0 0S425 252 425 252z"/>
    <path class="st15" d="M420 254c1 0 0-1 1-2 1 0 0 1 1 2 1 0 1-2 1-2 0 0 0 0 0 1 1-1 2 0 2-2 0 0 0 0 0 0 0-1 0-1 0-2 0 0 1-1 1 0 0 0 0 0 0 1l0 0c0 1 0 0 0 2 1 0 1-2 2-1 0 1-1 0-1 2l-1-1c1 2 0 0 0 2 1 0 1-1 2 0 0-1 0-1 0-2 2-1 1 3 2 2 0-1 0-3 1-2l0 2c1 0 1-2 2-1 0 1-1 1-1 1 1 1 0-1 1-1l0 1c1 0 2-1 4-1 0 0 0 1 0 1 2-1 3 0 5 1l1-1c0 0 0 1 0 1 1 0 0-1 0-1 0 0 0 1 0 1 1-1 3-2 4-1l0 0c1 0 1-2 2-1l0 0c2 1 4-1 5 1 0-2 2 1 2-2 1 1 1 2 2 2 0 0 1-1 1-2l0 1 1-1 0 1 0 0c0 0 0-1 0-1 1-1 2 1 2 1l2-1c0 0 0 1-1 1 1-1 0 1 1 0 0 0 0-1 0-1 0 1 1 1 2 0l0 1c1 0 3 0 4 0 0 0 0-2 0-2l0 1c0-1 0 0 0-1 1 0 0 1 0 2l1 0c0 0 0 1 0 1 0-1 1 1 1 0l0 0c1 0 2 0 3-1 0-1 0-1 1-2 1 0 2 1 3 1 1-1 0-1 1-2 0 1 1 1 1 2 1 0 2 0 3-1 0 0 0-1 0-1 0 0 1 0 1 1l0 0c2-2 4 3 5 1l0 0 1-1c1 0 0 1 0 1 2-2 2 0 4-1 1 3 3 0 5 2l0-1c0-1 0 0 1 1 0-1 0-1 0-1 3-1 6 1 9 2 1 0 1-4 2-2l0 1c2-2 4 0 7-1 0 0 0 1 0 1 0 1 2 0 2-1 0 0 0 1 0 1 0 1 1-1 1 0 0 0 0 0 0 0 0 0 1 0 1-1 1 1 2 0 2 0 0-1 1 1 1-1 0 2 1 1 2 1 0 1 0 1 0 1 1 0 1 0 1-1 1 2 2-2 3 1 2-1 3-2 5-2 0 2-2 0-2 2 1-1 2-2 4-2 0 0 0 1 0 1 1-1 3 0 4-1 0 0 0 0 0 0 0 0 1 0 1-1l0 0c0-1 1-2 1-3 0 2 1 1 1 4 0 0 0-1 0-1 0 0 0 0 0 1 1 0 1-1 1-1 0 0 0 1 0 1 0-1 1-2 2-1 0 0 0 1 0 1 1 0 2-2 3-1 0 2 0 1 1 2l1 0 0-1c1 0 1-1 2-1l0 1 1 0 -1-1c1-1 0-2 1-1 0 0 1 0 1 1 0 0 0 0 0 0 0 0 1-1 1-1 0 0 0 2 0 2 0-1 1 0 2-2 0 0 0 1 0 1l0-1c0 0 0 0 0 1 1 0 0-2 1-1 0 0 0 0 0 0 1 0 2-1 3 0 0 2-1 0-1 2 1 0 3-2 4-1l0 0c0-2 1 1 2 0 0 0 0 1 0 1 1 0 2-1 3-1l0 1c1 0 1 0 2 1 0-1 0 0 0-1 2 3 3-2 5 1 0 0 0 0 0 0l1-1c0-1 0-1 0-1 0-1 1-1 1-1 -1 1 0 1 0 2 0 0 0-1 0-1 1 2 0-2 1-1l0 0c0 0 1-1 1-1 0 1 0 0 0 1 1 0 1-2 2-1 0 0-1 0-1 1 1 1 1 1 1 1l0 0 1 1 0 0c1-3 1-1 2-2 -1 2 0 1 0 2 0 0 1 1 0 1 0-1 1 1 1-1 0 0 0 0 0 1 1 0 0-1 0-1 1-1 2 2 3 0 1-1 1-2 2-3 0 1 0 1 0 1 1 1 1 0 1 0 0 0 0 1 0 1 0 0 0-1 1-1 0 0 0 1 0 2 0 0 1-1 1-1 0 1 0 1 0 1 1 0 1-1 2-2l0 0c0 0 0 1 0 1 0 1-1 0-1-1l0 0c0-2-1 0-2 0l0-2 -1 1c0 0 0-1 0-2 -1-1 0 1-1 0 0 0 0 0 0 0l-1 0c0 0 0-1 0-1 -1-1-1 1-2 0l0 0c-1 1 0 1-1 3l-1-3 0 1c0 0 0 0 0-1 0 1 0 1 0 1 -1-1-2 1-2-1 0 1 1 1 0 1 0-2-1 0-1-1 0-1 1-1 0-1 0 2-1 0-2 0 0 1-1 1-2 1 0 0-2-1-2-1l0 0c0 1-1 1-1 1 0-1 0-1 0-2l-1 0c0 0 0 1-1 1l0-1c-1 0-1 1-2 1 0 1 1 3 0 4 0-1 0-2 0-2 0 0 0 0 0 0l0-1c0 0 0 1-1 1 0-1 0-1 0-1 0 0 0 0 0 0 0 0-1-1-1-1 0 0 0 1 0 1 -1 0 0-1-1-1 0 1-1 0-1 1 0 0 0-1 0-1 0 1-2 0-1 1l0 0c0 0 0 0 0 0 0 0 0 0 0 0h0c-1 1-2-1-4 0l0 0c-1 0-2 0-2 1 0 0 0-1 0-1 -1 0-1 1-1 0 1-1 0-1 1-1 -1 0-1-1-2 0 0-1-1-1-1-1l0 1c0 0-1 0-1 0l0-1c-1-2-3 3-4 0 0 1 1 1 0 2 -1 0-1-2-2-2 -1-1-1 2-2 1 0 0 0 2 0 2 -1 0-1-2 0-2 0 0 0 0 0 0 0 0 0 0 0-1l0 0c0 0-1 0-1-1 0 0 0 1 0 1 -1-1-1 0-2 0 0 0 0 1 0 1 -1-1-1 1-1 1 0-1 0-2-1-1 -1 0 0-1 0-2 -1 1-1-1-2-1l0 0c0 0 0 0-1 0l0 1c0 0 0 0 0-1 0 1 0 2 0 2 0 0-1 1-1-1 1 0 0-1 1-1 0 0 0 0-1 0 0 0 0 0 0 0 -1-1 0 1-1 1 0-1 0-1 0-1 0 0 0 1 0 2 -1-1-1 0-1 0l0 0c0 1 0 1-1 1 0-1 0 0 0-1 -1 1-1-1-2 0 0 0 0-1 0-2 -1 1-1-1-2 0 0 1 0 1 0 2l1-1 -1 1c0 0 1-1 1 0 0 1 0 1 0 1 -1-1-1 1-2 0l0-2c-1-1-2 1-3 1l0 0c0 1-1 0-1 1 0-1 0-1 0-2 0 1-1 0-1 2l-1-1c-1 0-1 2-2 2 0-1 0-1 1-2 0 0-1 0-1 0 0 0-1 1-1 0 0 0 0 1-1 1 0 0 0 0 0 0 0 0-1 1 0 1 -1-2-3 0-4-2 -1 0-2 1-2 1 0 0 0 0 0 0 -1-1-1 2-2 1 -1-1 1-1 0-1 0-3-1 0-2-1l0 0c-1-1-1 1-2 1 0 0 0 0 0 0 -1 1-2 2-3 2 0-1 0-1 0-2 0 0 0 2-1 2 0-1-1-1-1-2l1 0c0-1-1 0-1 0l0-1c-1 0-1 2-2 2l0 0c-1 2-1-1-1 0l0-2c0 0-1 2-2 2 0-1 1-2 2-2 0 0-1 0-2 1 0 0 0-1 1 0 -1 1-1 2-2 2 0-3-2-1-3-3 -1 1-3 0-5 0 1 2 0 0 0 3 0 0-1 0-1 0l-1-1c0-1 0-1 0-1 -1 0 0-1-1-2 0 1 0 1-1 1l1 1c-1 1-1-2-2-1l0-1c-1 0-2 0-3 2 0 0 0-1 0-1 -1 0-3 2-4 1l0-1c0 0 0 1-1 1 0 0 0-1 0-1 0 0-1 1-1 1l0-1c-1-1-2 2-3 2 0-2-1-2-2-3l0 0c-2 0-3 1-4 2 -1-2-3-1-5-2 0 0 0 1 0 2 0 0-1 1-1 0l0 0c0-2-1-1-2-1l0 2c-2-3-4 1-5-2 0 1-1 1-1 1l0-1c-1 0-2 0-3 0l0-1c-1 0-1 3-2 3l0-2c-1 0-3-1-4 0 0 0 0-1 0-1 -1 0-2-1-2 1 0-2-1 0-2 1l0-1c-1 1-1 2-1 2 0 0 0-1 0-1 -1-1 0 1-1 0l0-1c-1 0-1 0-1 1 0 0-1 0-1-1 0 1 0 1-1 1 0 0 0-1 0-1 -1-1-2 1-2 0 0 0 0-1 0-1 1 0 2 0 1 0 0-1-1-1 0-3 -1 1-2 2-2 2 0 0 0 0 0 0l0 0c0 0 0 0 0 0 0 0 0 0-1 0 0-1-1 0-1 0 0 1 0 1 0 2 0 0 0 0 0 0 0 0 0 0 0 0 0 0 0 0 0 0 0 0 1 0 1 0 0 1-1 1-1 0 0 1 0 1 0 2 0-2-1-2-2-3 -1 1-2 0-3 3 0 0 0-1 0-1 0 0 0 0 0 0 -1 1-2 0-2 2 -1-1 0-1-1-1l0 0c-2-2-3 4-6 1 0 0 0 0 0 1 -3-1-5 1-8-1 -1 0-1 1-1 1l0-1 -1 1c-1 1-2-3-3-1l0 1c0 0-2 0-1 0 0 0 0 1 0 0l0-1 -1 1c-1 0 0-3-1-3 -1 0-1 2-1 2 0 0 1 0 1 1l0 0c0 2 0 4 1 5l1-1 0 1 -1 0c0 1 1 0 1 0 0 0 0 1 0 1l1-2c0 1 0 1 0 2 0-1 0-2 0-2 0 1 0 2 1 1 0 0 0 1 0 1 0-1 1 0 1-1 0 1 1 0 1 1 0 0 1-1 1-1 -1 2 1 0 1 2 0-2 2-1 3-2 0 0 0 0 0 0 0 0 1 1 1 1 0-2 1-2 1-3 1 2 0 2 0 3 0-1 1-1 1-2 0 1 0 0 1 2 0-2 0 0 1-2 1 1 0 2 1 1C421 254 420 254 420 254zM437 251c0 0 0 0 0 0 0 0 0 0 0 0C437 251 437 251 437 251zM439 251c0 0 0 0-1 0 0 0 0-1 0-1C438 250 439 251 439 251zM436 243c0 0 0 0 0 0 0 0 0 0 0 0 0 0 0 0 0 0C436 244 436 243 436 243z"/>
    <path class="st15" d="M435 245c0 0 0 0 0 0 0 0 0 0 0 0 0 0 0 0 0 0C436 245 435 245 435 245z"/>
    <path class="st15" d="M567 246l0 0c0 0 0 0 0 0C567 246 567 246 567 246z"/>
    <polygon class="st15" points="459 253 459 253 459 253 "/>
    <path class="st15" d="M575 250c0 0 0 0 0 0C576 250 575 250 575 250z"/>
    <path class="st15" d="M579 250l0 0C579 251 579 251 579 250z"/>
    <path class="st15" d="M582 251c0 0 0 0 0 0 0 0 0 0 0 0L582 251z"/>
    <path class="st15" d="M539 252c0 0 0 0 0 0C539 253 539 253 539 252z"/>
    <path class="st15" d="M552 250c0 0 0 0 0 1C552 250 552 250 552 250z"/>
    <path class="st15" d="M525 254c0 0 0 0 0 0 0 0 0 0 0 0L525 254z"/>
    <path class="st15" d="M551 250c0 0 0 0 1 0C551 250 551 250 551 250z"/>
    <path class="st15" d="M593 252l0 0c0 0 0 0 0 0L593 252z"/>
    <path class="st15" d="M593 251l0 0C593 251 593 251 593 251z"/>
    <path class="st15" d="M594 251l0 0C593 251 594 251 594 251z"/>
    <path class="st15" d="M590 251l0 0C590 251 590 251 590 251z"/>
    <path class="st15" d="M589 251c0 0 1 1 1 1l0 0C589 252 589 250 589 251z"/>
    <path class="st15" d="M584 246l1 0c0 0 0-1 0-1C584 244 585 246 584 246z"/>
    <path class="st15" d="M581 245c0 0 0-1 0-1C581 245 581 245 581 245z"/>
    <path class="st15" d="M561 245l0-1C561 245 561 245 561 245z"/>
    <polygon class="st15" points="557 251 558 251 558 250 "/>
    <polygon class="st15" points="555 243 555 243 555 244 "/>
    <path class="st15" d="M521 244l0 1C522 245 522 243 521 244z"/>
    <path class="st15" d="M507 245c0-1-1-1-1 0C506 245 506 245 507 245z"/>
    <polygon class="st15" points="463 243 463 243 463 243 "/>
  </g>
  <path class="st16" d="M614 429H577v-85c0-1 1-2 2-2h36c1 0 2 1 2 2v84C616 428 615 429 614 429z"/>
  <text transform="matrix(1 0 0 1 430.395 234.2374)" class="st17 st18 st19">
    SCHOOL
  </text>
  <path class="st20" d="M616 429H581v-82c0-1 1-2 2-2h31c1 0 2 1 2 2v82C616 429 616 429 616 429z"/>
  <g>
    <path class="st16" d="M262 407H128c-1 0-2-1-2-2v-61c0-1 1-2 2-2H262c1 0 2 1 2 2v61C264 406 263 407 262 407z"/>
    <path class="st16" d="M262 407H128c-1 0-2-1-2-2v-61c0-1 1-2 2-2H262c1 0 2 1 2 2v61C264 406 263 407 262 407z"/>
  </g>
  <g>
    <path class="st16" d="M408 407H274c-1 0-2-1-2-2v-61c0-1 1-2 2-2h134c1 0 2 1 2 2v61C410 406 409 407 408 407z"/>
    <path class="st16" d="M408 407H274c-1 0-2-1-2-2v-61c0-1 1-2 2-2h134c1 0 2 1 2 2v61C410 406 409 407 408 407z"/>
  </g>
  <g>
    <path class="st16" d="M555 407H420c-1 0-2-1-2-2V344c0-1 1-2 2-2h134c1 0 2 1 2 2v61C556 406 556 407 555 407z"/>
    <path class="st16" d="M555 407H420c-1 0-2-1-2-2V344c0-1 1-2 2-2h134c1 0 2 1 2 2v61C556 406 556 407 555 407z"/>
  </g>
  <path class="st20" d="M262 407H132c-1 0-2-1-2-2v-57c0-1 1-2 2-2h129c1 0 2 1 2 2v57C264 406 263 407 262 407z"/>
  <path class="st6" d="M235 185c10 4 17 11 20 15"/>
  <path class="st20" d="M408 407H278c-1 0-2-1-2-2v-58c0-1 1-2 2-2h130c1 0 2 1 2 2v58C410 406 409 407 408 407z"/>
  <path class="st20" d="M554 407H425c-1 0-2-1-2-2v-58c0-1 1-2 2-2h129c1 0 2 1 2 2v58C556 406 555 407 554 407z"/>
  <path class="st1" d=""/>
  <path class="st1" d=""/>
  <path class="st11" d=""/>
  <path class="st11" d=""/>
  <g>
    <path class="st6" d=""/>
    <path class="st6" d=""/>
  </g>
  <path class="st11" d=""/>
  <path class="st11" d=""/>
  <g>
    <path class="st3" d="M207 231c-2-5-4-9-7-14 0 0 0 0 0 1 2 5 4 9 7 14C207 231 208 231 207 231z"/>
    <path class="st3" d="M208 230c-2-5-4-9-7-14 0 0 0 1 0 1 2 5 4 9 7 14C207 231 208 230 208 230z"/>
    <path class="st3" d="M208 231c-2-5-4-9-7-14 0 0 0 1 0 1 2 5 4 9 7 14C208 231 208 231 208 231z"/>
    <path class="st3" d="M208 231c-2-5-4-9-7-14 0 0 0 0 0 0 2 5 4 9 7 14C208 231 208 231 208 231z"/>
    <path class="st3" d="M208 231c-2-5-4-9-7-14 0 0 0 0 0 0 2 5 4 9 7 14C208 231 208 231 208 231z"/>
    <path class="st3" d="M207 230c-2-5-4-9-7-14 0 0 0 0 0 0 2 5 4 9 7 14C207 230 207 230 207 230z"/>
    <path class="st3" d="M207 231c-2-5-4-9-7-14 0 0 0 0 0 0 2 5 4 9 7 14C207 231 207 231 207 231z"/>
    <path class="st3" d="M208 230c-2-5-4-9-7-14 0 0 0 0 0 1 2 5 4 9 7 14C208 231 208 230 208 230z"/>
    <path class="st3" d="M207 231c-2-5-4-9-7-14 0 0 0 0 0 0 2 5 4 9 7 14C207 231 207 231 207 231z"/>
    <path class="st3" d="M208 230c-2-5-4-9-7-14 0 0 0 0 0 0 2 5 4 9 7 14C208 230 208 230 208 230z"/>
    <path class="st3" d="M207 230c-2-5-4-9-7-14 0 0 0 0 0 0 2 5 4 9 7 14C207 231 207 230 207 230z"/>
  </g>
  <g>
    <path class="st3" d="M206 231c-4 4-7 8-11 11 0 0 1 0 1 0 4-4 7-8 11-11C207 231 207 231 206 231z"/>
    <path class="st3" d="M207 231c-4 4-7 8-11 11 0 0 1 0 1 0 4-4 7-8 11-11C207 231 207 231 207 231z"/>
    <path class="st3" d="M207 231c-4 4-7 8-11 11 0 0 1 0 1 0 4-4 7-8 11-11C208 231 207 231 207 231z"/>
    <path class="st3" d="M207 231c-4 4-7 8-11 11 0 0 0 0 0 0 4-4 7-8 11-11C207 231 207 231 207 231z"/>
    <path class="st3" d="M206 231c-4 4-7 8-11 11 0 0 0 0 0 0 4-4 7-8 11-11C207 231 206 231 206 231z"/>
    <path class="st3" d="M206 231c-4 4-7 8-11 11 0 0 1 0 1 0 4-4 7-8 11-11C207 231 206 231 206 231z"/>
    <path class="st3" d="M207 232c-4 4-7 8-11 11 0 0 0 0 0 0 4-4 7-8 11-11C207 232 207 232 207 232z"/>
    <path class="st3" d="M207 231c-4 4-7 8-11 11 0 0 0 0 0 0 4-4 7-8 11-11C207 231 207 231 207 231z"/>
    <path class="st3" d="M206 232c-4 4-7 8-11 11 0 0 0 0 1 0 4-4 7-8 11-11C207 232 206 231 206 232z"/>
    <path class="st3" d="M207 230c-4 4-7 8-11 11 0 0 0 0 0 0 4-4 7-8 11-11C207 231 207 230 207 230z"/>
    <path class="st3" d="M206 231c-4 4-7 8-11 11 0 0 0 0 0 0 4-4 7-8 11-11C207 231 206 231 206 231z"/>
  </g>
  <g>
    <path class="st3" d="M206 253c-3-4-7-7-10-11 0 0 0 1 0 1 3 4 7 7 10 11C206 254 206 253 206 253z"/>
    <path class="st3" d="M206 252c-3-4-7-7-10-11 0 0 0 1 0 1 3 4 7 7 10 11C206 253 206 253 206 252z"/>
    <path class="st3" d="M206 253c-3-4-7-7-10-11 0 0 0 1 0 1 3 4 7 7 10 11C206 254 206 253 206 253z"/>
    <path class="st3" d="M207 253c-3-4-7-7-10-11 0 0 0 0 0 0 3 4 7 7 10 11C207 253 207 253 207 253z"/>
    <path class="st3" d="M206 252c-3-4-7-7-10-11 0 0 0 0 0 0 3 4 7 7 10 11C206 253 206 252 206 252z"/>
    <path class="st3" d="M206 253c-3-4-7-7-10-11 0 0 0 0 0 1 3 4 7 7 10 11C206 253 206 253 206 253z"/>
    <path class="st3" d="M206 252c-3-4-7-7-10-11 0 0 0 1 0 1 3 4 7 7 10 11C207 253 207 252 206 252z"/>
    <path class="st3" d="M206 253c-3-4-7-7-10-11 0 0 0 0 0 0 3 4 7 7 10 11C206 254 206 253 206 253z"/>
    <path class="st3" d="M206 252c-3-4-7-7-10-11 0 0 0 0 0 1 3 4 7 7 10 11C206 253 206 252 206 252z"/>
    <path class="st3" d="M206 252c-3-4-7-7-10-11 0 0 0 0 0 0 3 4 7 7 10 11C205 253 206 253 206 252z"/>
  </g>
  <g>
    <ellipse transform="matrix(0.9495 0.3137 -0.3137 0.9495 161.9398 -191.3999)" class="st21" cx="676" cy="407" rx="5" ry="34"/>
    <ellipse transform="matrix(0.9998 0.0222 -0.0222 0.9998 9.1979 -14.567)" class="st21" cx="660" cy="407" rx="5" ry="34"/>
    <ellipse transform="matrix(0.986 0.1666 -0.1666 0.986 78.0907 -105.3964)" class="st5" cx="667" cy="413" rx="5" ry="34"/>
    <g>
      <g>
        <ellipse class="st22" cx="658" cy="387" rx="1" ry="7"/>
      </g>
      <g>
        <ellipse class="st22" cx="658" cy="387" rx="7" ry="1"/>
        <g>
          <path class="st0" d="M658 389c1 0 2 0 4 0 1 0 1 0 2 0 0 0 1 0 1 0 0 0 0 0 0 0 0 0 0 0 0-1 0 0 0-1 0-1 0 0 0 0 0 0 0 0-1 0-1 0 -1 0-1 0-2 0 -1 0-2 0-4 0 -1 0-2 0-4 0 -1 0-1 0-2 0 0 0-1 0-1 0 0 0 0 0 0 0 0 0 0 0 0 1 0 0 0 1 0 1 0 0 0 0 0 0 0 0 1 0 1 0 1 0 1 0 2 0C655 389 657 389 658 389v-1c-1 0-2 0-3 0 -1 0-1 0-2 0 0 0-1 0-1 0 0 0 0 0 0 0 0 0 0 0 0 0 0 0 0 0 1 0 1 0 1 0 2 0 1 0 2 0 3 0 1 0 2 0 3 0 1 0 1 0 2 0 0 0 1 0 1 0 0 0 0 0 0 0 0 0 0 0 0 0 0 0 0 0-1 0 -1 0-1 0-2 0 -1 0-2 0-3 0L658 389z"/>
        </g>
      </g>
      <g>
        <ellipse transform="matrix(0.7071 -0.7071 0.7071 0.7071 -81.1432 578.4725)" class="st22" cx="658" cy="387" rx="1" ry="7"/>
        <g>
          <path class="st0" d="M659 386c-1-1-2-2-3-2 0 0-1-1-2-1 0 0-1 0-1 0 0 0 0 0-1 0 0 0-1 0-1 0l0 0c0 0 0 0 0 0 0 0 0 0 0 0 0 0 0 0 0 1 0 0 0 1 1 1 1 1 1 1 2 2 1 1 3 3 4 4 1 1 1 1 2 1 0 0 0 0 1 0 0 0 0 0 1 0 0 0 0 0 0 0 0 0 0 0 0 0 0-1 0-1-1-1C661 388 660 387 659 386l-1 1c1 1 2 3 3 4 0 0 0 1 0 1 0 0 0 0 0 0l0 0c0 0 0 0 0 0 -1 0-1-1-2-1 -1-1-3-2-4-4 -1-1-1-1-2-2 0 0 0-1-1-1 0 0 0 0 0-1 0 0 0 0 0 0 0 0 0 0 0 0 0 0 0 0 0 0 0 0 0 0 1 0 0 0 1 1 1 1 1 1 2 1 3 2L659 386z"/>
        </g>
      </g>
      <g>
        <ellipse transform="matrix(-0.7071 -0.7071 0.7071 -0.7071 848.9941 1126.0344)" class="st22" cx="658" cy="387" rx="1" ry="7"/>
        <g>
          <path class="st0" d="M656 386c0 0 0 0-1 1 -1 1-1 1-2 3 0 1-1 1-1 2 0 0 0 0 0 0 0 0 0 0 0 0 0 0 0 0 0 0 0 0 0 0 1 0 0 0 0 0 0 0 0 0 1 0 1-1 1-1 3-2 4-3 1-1 2-3 3-4 0 0 0-1 1-1 0 0 0 0 0 0 0 0 0 0 0-1 0 0 0 0 0 0 0 0 0 0 0 0 0 0 0 0 0 0 -1 0-1 1-2 1 -1 1-2 2-3 2C657 386 656 386 656 386l1 1c0 0 0 0 1-1 1-1 1-1 2-2 1 0 1-1 2-1 0 0 0 0 0 0 0 0 0 0 0 0 0 0 0 1 0 1 -1 1-2 3-3 4 -1 1-3 2-4 3 0 0-1 0-1 0 0 0 0 0 0 0 0 0 0 0 0 0 0-1 1-1 1-2 1-1 1-2 2-2 1-1 1-1 1-1L656 386z"/>
          
        </g>
      </g>
    </g>
    <ellipse transform="matrix(0.9468 -0.3219 0.3219 0.9468 -97.3928 230.6441)" class="st21" cx="649" cy="410" rx="5" ry="34"/>
    <ellipse transform="matrix(0.9826 -0.1856 0.1856 0.9826 -65.695 128.6641)" class="st5" cx="654" cy="415" rx="5" ry="31"/>
    <g>
      <g>
        <ellipse transform="matrix(0.9965 -0.0832 0.0832 0.9965 -31.7775 55.4884)" class="st22" cx="650" cy="409" rx="1" ry="7"/>
        <g>
          <path class="st0" d="M651 409c0 0 0 0 0-1 0-1 0-2-1-3 0-1 0-1-1-2 0 0 0 0 0 0 0 0 0 0 0 0 0 0 0 0 0 0 0 0 0 0 0 0 0 0 0 0 0 0 0 0 0 1 0 1 0 2 0 4 0 5 0 2 0 4 1 5 0 0 0 1 1 1 0 0 0 0 0 0 0 0 0 0 0 0 0 0 0 0 0 0 0 0 0 0 0 0 0 0 0 0 0 0 0-1 0-2 1-2 0-1 0-2 0-3C651 409 651 409 651 409l-1 0c0 0 0 0 0 1 0 1 0 2 0 3 0 1 0 1 0 2 0 0 0 0 0 0 0 0 0 0 0 0 0 0 0-1 0-1 -1-2-1-3-1-5 0-2 0-4 0-5 0 0 0-1 0-1 0 0 0 0 0 0 0 0 0 0 0 0 0 0 1 1 1 2 0 1 0 2 1 3 0 1 0 1 0 1L651 409z"/>
        </g>
      </g>
      <ellipse transform="matrix(0.0832 0.9965 -0.9965 0.0832 1002.9467 -272.5088)" class="st22" cx="650" cy="409" rx="1" ry="7"/>
      <g>
        <ellipse transform="matrix(0.6458 -0.7635 0.7635 0.6458 -82.0774 640.7809)" class="st22" cx="650" cy="409" rx="1" ry="7"/>
        <g>
          <path class="st0" d="M651 407c-1-1-2-2-3-2 -1 0-1-1-2-1 0 0-1 0-1 0 0 0 0 0-1 0 0 0-1 0-1 0l0 0c0 0 0 0 0 0 0 0 0 0 0 0 0 0 0 0 0 1 0 0 1 1 1 1 1 1 1 1 2 2 1 1 3 2 4 3 1 0 2 1 2 1 0 0 0 0 1 0 0 0 0 0 0 0 0 0 0 0 0 0 0 0 0 0 0 0 0-1 0-1-1-1C653 410 652 409 651 407l-1 1c1 1 3 2 4 4 0 0 0 1 1 1 0 0 0 0 0 0l0 0c0 0 0 0 0 0 -1 0-2-1-2-1 -1-1-3-2-4-3 -1-1-1-1-2-2 0 0-1-1-1-1 0 0 0 0 0-1 0 0 0 0 0 0 0 0 0 0 0 0 0 0 0 0 0 0 0 0 1 0 1 0 1 0 1 1 1 1 1 1 2 1 3 2L651 407z"/>
          
        </g>
      </g>
      <g>
        <ellipse transform="matrix(-0.7635 -0.6458 0.6458 -0.7635 881.5122 1140.5125)" class="st22" cx="650" cy="409" rx="1" ry="7"/>
        <g>
          <path class="st0" d="M648 408c-1 1-2 2-2 3 0 1-1 1-1 2 0 0 0 1 0 1 0 0 0 0 0 1 0 0 0 1 0 1l0 0c0 0 0 0 0 0 0 0 0 0 0 0 0 0 0 0 1 0 0 0 1-1 1-1 1-1 1-1 2-2 1-1 2-3 3-4 0-1 1-2 1-2 0 0 0 0 0-1 0 0 0 0 0 0 0 0 0 0 0 0 0 0 0 0 0 0 -1 0-1 0-1 1C651 405 649 406 648 408l1 1c1-1 2-3 4-4 0 0 1 0 1-1 0 0 0 0 0 0l0 0c0 0 0 0 0 0 0 1-1 2-1 2 -1 1-2 3-3 4 -1 1-1 1-2 2 0 0-1 1-1 1 0 0 0 0-1 0 0 0 0 0 0 0 0 0 0 0 0 0 0 0 0 0 0 0 0 0 0-1 0-1 0-1 1-1 1-1 1-1 1-2 2-3L648 408z"/>
          
        </g>
      </g>
    </g>
    <ellipse transform="matrix(0.9102 -0.4141 0.4141 0.9102 -115.051 303.8212)" class="st5" cx="643" cy="417" rx="5" ry="34"/>
    <g>
      <g>
        <ellipse class="st22" cx="672" cy="411" rx="1" ry="7"/>
        <g>
          <path class="st0" d="M674 411c0 0 0 0 0-1 0-1 0-2 0-3 0-1 0-1-1-2 0 0 0 0 0 0 0 0 0 0 0 0 0 0 0 0 0 0 0 0 0 0 0 0 0 0 0 0 0 0 0 0 0 1 0 1 0 2-1 3-1 5 0 2 0 4 1 5 0 0 0 1 0 1 0 0 0 0 0 0 0 0 0 0 0 0 0 0 0 0 0 0 0 0 0 0 0 0 0 0 0 0 0 0 1-1 1-2 1-2 0-1 0-2 0-3C674 412 674 411 674 411h-1c0 0 0 0 0 1 0 1 0 2 0 3 0 1 0 1-1 2 0 0 0 0 0 0 0 0 0 0 0 0 0 0 0-1 0-1 0-2-1-3-1-5 0-2 0-4 1-5 0 0 0-1 0-1 0 0 0 0 0 0 0 0 0 0 0 0 0 0 0 1 1 2 0 1 0 2 0 3 0 1 0 1 0 1L674 411z"/>
          
        </g>
      </g>
      <g>
        <ellipse class="st22" cx="672" cy="411" rx="7" ry="1"/>
        <g>
          <path class="st0" d="M672 413c1 0 2 0 4 0 1 0 1 0 2 0 0 0 1 0 1 0 0 0 0 0 0 0 0 0 0 0 0-1 0 0 0-1 0-1 0 0 0 0 0 0 0 0-1 0-1 0 -1 0-1 0-2 0 -1 0-2 0-4 0 -1 0-2 0-4 0 -1 0-1 0-2 0 0 0-1 0-1 0 0 0 0 0 0 0 0 0 0 0 0 1 0 0 0 1 0 1 0 0 0 0 0 0 0 0 1 0 1 0 1 0 1 0 2 0C670 413 671 413 672 413v-1c-1 0-2 0-3 0 -1 0-1 0-2 0 0 0-1 0-1 0 0 0 0 0 0 0 0 0 0 0 0 0 0 0 0 0 1 0 1 0 1 0 2 0 1 0 2 0 3 0 1 0 2 0 3 0 1 0 1 0 2 0 0 0 1 0 1 0 0 0 0 0 0 0 0 0 0 0 0 0 0 0 0 0-1 0 -1 0-1 0-2 0 -1 0-2 0-3 0L672 413z"/>
        </g>
      </g>
      <g>
        <ellipse transform="matrix(0.7071 -0.7071 0.7071 0.7071 -93.7688 595.8528)" class="st22" cx="672" cy="411" rx="1" ry="7"/>
        <g>
          <path class="st0" d="M674 410c-1-1-3-2-4-3 0 0-1 0-1-1 0 0 0 0 0 0 0 0 0 0 0 0 0 0 0 0 0 1 0 0 0 1 0 1 0 1 1 2 1 2 1 1 2 3 4 4 1 1 1 1 2 2 0 0 1 1 1 1 0 0 0 0 1 0 0 0 0 0 0 0 0 0 0 0 0 0l0 0c0 0 0-1 0-1 0 0 0 0 0-1 0 0 0-1 0-1 0-1-1-1-1-2C675 412 675 411 674 410l-1 1c1 1 2 2 2 3 0 0 1 1 1 1 0 0 0 0 0 1 0 0 0 0 0 0 0 0 0 0 0 0 0 0 0 0 0 0 0 0 0 0-1 0 0 0-1 0-1-1 -1 0-1-1-2-2 -1-1-3-2-4-4 -1-1-1-1-1-2 0 0 0 0 0 0l0 0c0 0 0 0 0 0 0 0 1 0 1 0 1 1 3 2 4 3L674 410z"/>
        </g>
      </g>
      <g>
        <ellipse transform="matrix(-0.7071 -0.7071 0.7071 -0.7071 857.111 1177.2578)" class="st22" cx="672" cy="411" rx="1" ry="7"/>
        <g>
          <path class="st0" d="M671 410c0 0 0 0-1 1 -1 1-1 1-2 3 0 1-1 1-1 2 0 0 0 0 0 0 0 0 0 0 0 0 0 0 0 0 0 0 0 0 0 0 1 0 0 0 0 0 0 0 0 0 1 0 1-1 1-1 3-2 4-3 1-1 2-3 3-4 0 0 0-1 1-1 0 0 0 0 0 0 0 0 0 0 0-1 0 0 0 0 0 0 0 0 0 0 0 0 0 0 0 0 0 0 -1 0-1 1-2 1 -1 1-2 2-3 2C671 409 671 410 671 410l1 1c0 0 0 0 1-1 1-1 1-1 2-2 1 0 1-1 2-1 0 0 0 0 0 0 0 0 0 0 0 0 0 0 0 1 0 1 -1 1-2 3-3 4 -1 1-3 2-4 3 0 0-1 0-1 0 0 0 0 0 0 0 0 0 0 0 0 0 0-1 1-1 1-2 1-1 1-2 2-2 1-1 1-1 1-1L671 410z"/>
        </g>
      </g>
    </g>
    <path class="st5" d="M668 444c0 3-2 5-5 5h-4c-3 0-5-2-5-5v-9c0-3 2-5 5-5l3 3c3 0 3-1 3 2L668 444z"/>
  </g>
  <ellipse transform="matrix(0.8896 0.4568 -0.4568 0.8896 266.0232 -264.6674)" class="st5" cx="680" cy="418" rx="5" ry="34"/>
  <polygon class="st22" points="691 323 73 323 138 248 626 248 "/>
</svg>
