<?xml version="1.0" encoding="utf-8"?>
<!-- Generator: Adobe Illustrator 19.0.0, SVG Export Plug-In . SVG Version: 6.00 Build 0)  -->
<svg version="1.1" id="Layer_1" xmlns="http://www.w3.org/2000/svg" xmlns:xlink="http://www.w3.org/1999/xlink" x="0px" y="0px"
	 viewBox="0 0 762.6 618.8" style="enable-background:new 0 0 762.6 618.8;" xml:space="preserve">
<style type="text/css">
	.st0{stroke:#000000;stroke-miterlimit:10;}
</style>
<g id="XMLID_1_">
	<path id="XMLID_3_" class="st0" d="M88.7,462.7H45.8v-16.3h68.7v13.1l-44.2,55.1h44.9V531H44.4v-13L88.7,462.7z"/>
</g>
<g id="XMLID_2_">
	<path id="XMLID_5_" class="st0" d="M221,408.4h-62.7v-23.9h100.5v19.1L194,484.2h65.7v24.1H156.1v-19L221,408.4z"/>
</g>
<g id="XMLID_7_">
	<path id="XMLID_8_" class="st0" d="M403.3,260H296.2v-40.8h171.6v32.7L357.3,389.5h112.3v41.2h-177v-32.4L403.3,260z"/>
</g>
<g id="XMLID_10_">
	<path id="XMLID_11_" class="st0" d="M28,576H1.4v-10.1h42.5v8.1l-27.4,34.1h27.8v10.2H0.5v-8L28,576z"/>
</g>
<g id="XMLID_13_">
	<path id="XMLID_14_" class="st0" d="M660.5,63.2H496.2V0.5h263.1v50.1L590,261.8h172.2v63.1H490.7v-49.7L660.5,63.2z"/>
</g>
</svg>
