<?xml version="1.0" encoding="utf-8"?>
<!-- Generator: Adobe Illustrator 19.0.0, SVG Export Plug-In . SVG Version: 6.00 Build 0)  -->
<svg version="1.1" id="hobbies-illustrations" xmlns="http://www.w3.org/2000/svg" xmlns:xlink="http://www.w3.org/1999/xlink"
	 x="0px" y="0px" viewBox="86 -92.1 768 1024" style="enable-background:new 86 -92.1 768 1024;" xml:space="preserve">
<style type="text/css">
	.st0{fill:none;stroke:#FFFFFF;stroke-miterlimit:10;}
	.st1{fill:#FFFFFF;}
	.st2{fill:#DFE3E5;}
	.st3{fill:#FFFFFF;stroke:#FFFFFF;stroke-width:0.5;stroke-miterlimit:10;}
</style>
<path id="XMLID_32_" class="st0" d="M769,130.7"/>
<path id="XMLID_26_" class="st0" d="M776.8,71.9"/>
<path id="XMLID_37_" class="st0" d="M882.2,144.7"/>
<path id="XMLID_36_" class="st0" d="M838.2,144.7"/>
<circle id="XMLID_12_" class="st1" cx="790.5" cy="-67.6" r="2.5"/>
<circle id="XMLID_13_" class="st2" cx="823.1" cy="-78.9" r="71.1"/>
<circle id="XMLID_1_" class="st3" cx="129.6" cy="-46.5" r="1.5"/>
<circle id="XMLID_3_" class="st3" cx="243.6" cy="-21" r="1.5"/>
<circle id="XMLID_7_" class="st3" cx="354.6" cy="-68.6" r="1.5"/>
<circle id="XMLID_8_" class="st3" cx="512.1" cy="-55.5" r="1.5"/>
<circle id="XMLID_9_" class="st3" cx="639.6" cy="-68.6" r="1.5"/>
<circle id="XMLID_10_" class="st3" cx="697.1" cy="-24.5" r="1.5"/>
<circle id="XMLID_11_" class="st3" cx="735.6" cy="57" r="1.5"/>
<circle id="XMLID_14_" class="st3" cx="831.6" cy="31.5" r="1.5"/>
<circle id="XMLID_15_" class="st3" cx="778.3" cy="132.2" r="1.5"/>
<circle id="XMLID_17_" class="st3" cx="678.6" cy="121.5" r="1.5"/>
<circle id="XMLID_19_" class="st3" cx="712.6" cy="231" r="1.5"/>
<circle id="XMLID_20_" class="st3" cx="814.1" cy="263.5" r="1.5"/>
<circle id="XMLID_21_" class="st3" cx="623.1" cy="187.5" r="1.5"/>
<circle id="XMLID_22_" class="st3" cx="569.1" cy="108" r="1.5"/>
<circle id="XMLID_25_" class="st3" cx="515.1" cy="177" r="1.5"/>
<circle id="XMLID_29_" class="st3" cx="459.6" cy="93" r="1.5"/>
<circle id="XMLID_31_" class="st3" cx="374.1" cy="121.5" r="1.5"/>
<circle id="XMLID_38_" class="st3" cx="278.1" cy="96" r="1.5"/>
<circle id="XMLID_39_" class="st3" cx="314.1" cy="189" r="1.5"/>
<circle id="XMLID_40_" class="st3" cx="215.1" cy="160.5" r="1.5"/>
<circle id="XMLID_41_" class="st3" cx="194.1" cy="58.5" r="1.5"/>
<circle id="XMLID_42_" class="st3" cx="117.6" cy="108" r="1.5"/>
<circle id="XMLID_43_" class="st3" cx="216.6" cy="-90.6" r="1.5"/>
<circle id="XMLID_45_" class="st3" cx="132.6" cy="219" r="1.5"/>
<circle id="XMLID_46_" class="st3" cx="269.6" cy="305.5" r="1.5"/>
<circle id="XMLID_47_" class="st3" cx="149.6" cy="391.5" r="1.5"/>
<circle id="XMLID_51_" class="st3" cx="332.1" cy="301.5" r="1.5"/>
<circle id="XMLID_52_" class="st3" cx="691.1" cy="327.5" r="1.5"/>
<circle id="XMLID_53_" class="st3" cx="459.6" cy="-79.5" r="1.5"/>
<circle id="XMLID_54_" class="st3" cx="781.3" cy="364.5" r="1.5"/>
<circle id="XMLID_59_" class="st3" cx="129.6" cy="-3.5" r="1.5"/>
<circle id="XMLID_60_" class="st3" cx="779.8" cy="31.5" r="1.5"/>
<circle id="XMLID_62_" class="st3" cx="633.6" cy="146.1" r="1.5"/>
<circle id="XMLID_63_" class="st3" cx="770.5" cy="304.5" r="1.5"/>
<path id="XMLID_68_" class="st2" d="M224.8,245.9c-6.3,0-12.3,1.2-17.8,3.3c-4.5-20.2-23.4-35.3-46.2-35.3
	c-11.5,0-22.2,3.9-30.4,10.4c-8.1-6.6-18.8-10.4-30.3-10.4c-20.3,0-37.6,12-44.2,28.8c-1,0-2-0.1-3-0.1c-29,0-52.6,21.2-52.6,47.2
	s23.5,47.2,52.6,47.2c3.1,0,6.2-0.3,9-0.7c1,23.6,21.7,42.5,47.1,42.5c15,0,28.3-6.6,37-16.8c8.3,6.9,19.2,11,31.1,11
	c23.9,0,43.8-16.8,46.8-38.6c0.3,0,0.5,0,0.8,0c26,0,47.2-19.9,47.2-44.3C271.9,265.8,250.8,245.9,224.8,245.9z"/>
<circle id="XMLID_64_" class="st3" cx="639.6" cy="265.5" r="1.5"/>
<path id="XMLID_74_" class="st1" d="M219.5,235c-6.3,0-12.3,1.2-17.8,3.3c-4.5-20.2-23.4-35.3-46.2-35.3c-11.5,0-22.2,3.9-30.4,10.4
	c-8.1-6.6-18.8-10.4-30.3-10.4c-20.3,0-37.6,12-44.2,28.8c-1,0-2-0.1-3-0.1c-29,0-52.6,21.2-52.6,47.2s23.5,47.2,52.6,47.2
	c3.1,0,6.2-0.3,9-0.7c1,23.6,21.7,42.5,47.1,42.5c15,0,28.3-6.6,37-16.8c8.3,6.9,19.2,11,31.1,11c23.9,0,43.8-16.8,46.8-38.6
	c0.3,0,0.5,0,0.8,0c26,0,47.2-19.9,47.2-44.3S245.5,235,219.5,235z"/>
<path id="XMLID_67_" class="st2" d="M894.5,150.7c-5.6,0.1-10.9,1.3-15.6,3.3c-4.3-17.7-21.5-30.6-41.5-30.1
	c-10.2,0.3-19.4,4-26.6,9.9c-7.3-5.5-16.8-8.8-27-8.5c-17.8,0.4-32.8,11.4-38.4,26.4c-0.9,0-1.7-0.1-2.6,0
	c-25.6,0.6-45.8,19.7-45.3,42.7c0.6,23,21.7,41.1,47.3,40.4c2.7-0.1,5.4-0.3,8-0.8c1.4,20.9,20,37,42.5,36.5
	c13.2-0.3,24.8-6.4,32.2-15.6c7.4,5.9,17.1,9.3,27.7,9c21.1-0.5,38.2-15.8,40.3-35c0.2,0,0.5,0,0.7,0c23-0.6,41.2-18.5,40.6-40.1
	S917.4,150.2,894.5,150.7z"/>
<path id="XMLID_66_" class="st1" d="M892.2,138.8c-5.6,0.1-10.9,1.3-15.6,3.3c-4.3-17.7-21.5-30.6-41.5-30.1
	c-10.2,0.3-19.4,4-26.6,9.9c-7.3-5.5-16.8-8.8-27-8.5c-17.8,0.4-32.8,11.4-38.4,26.4c-0.9,0-1.7-0.1-2.6,0
	c-25.6,0.6-45.8,19.7-45.3,42.7c0.6,23,21.7,41.1,47.3,40.4c2.7-0.1,5.4-0.3,8-0.8c1.4,20.9,20,37,42.5,36.5
	c13.2-0.3,24.8-6.4,32.2-15.6c7.4,5.9,17.1,9.3,27.7,9c21.1-0.5,38.2-15.8,40.3-35c0.2,0,0.5,0,0.7,0c23-0.6,41.2-18.5,40.6-40.1
	S915.1,138.2,892.2,138.8z"/>
<circle id="XMLID_70_" class="st1" cx="824.1" cy="-86.9" r="71.1"/>
<path id="XMLID_4_" class="st2" d="M33.4-112.4c-0.5,21.6,17.6,39.5,40.6,40.1c0.2,0,0.5,0,0.7,0c2.1,19.3,19.2,34.5,40.3,35
	c10.6,0.3,20.3-3.1,27.7-9c7.4,9.2,19,15.3,32.2,15.6c22.5,0.6,41.1-15.6,42.5-36.5c2.6,0.5,5.3,0.7,8,0.8
	c25.6,0.6,46.7-17.4,47.3-40.4c0.6-23-19.7-42.1-45.3-42.7c-0.9,0-1.7,0.1-2.6,0c-5.5-14.9-20.6-25.9-38.4-26.4
	c-10.2-0.3-19.7,3-27,8.5c-7.2-5.9-16.4-9.6-26.6-9.9c-20-0.5-37.1,12.4-41.5,30.1c-4.8-2-10-3.1-15.6-3.3
	C53.1-150.9,34-134,33.4-112.4z"/>
<path id="XMLID_2_" class="st1" d="M35.7-124.3c-0.5,21.6,17.6,39.5,40.6,40.1c0.2,0,0.5,0,0.7,0c2.1,19.3,19.2,34.5,40.3,35
	c10.6,0.3,20.3-3.1,27.7-9c7.4,9.2,19,15.3,32.2,15.6c22.5,0.6,41.1-15.6,42.5-36.5c2.6,0.5,5.3,0.7,8,0.8
	c25.6,0.6,46.7-17.4,47.3-40.4c0.6-23-19.7-42.1-45.3-42.7c-0.9,0-1.7,0.1-2.6,0c-5.5-14.9-20.6-25.9-38.4-26.4
	c-10.2-0.3-19.7,3-27,8.5c-7.2-5.9-16.4-9.6-26.6-9.9c-20-0.5-37.1,12.4-41.5,30.1c-4.8-2-10-3.1-15.6-3.3
	C55.4-162.8,36.3-145.9,35.7-124.3z"/>
</svg>
